<?xml version="1.0" encoding="UTF-8" standalone="no"?>
<!DOCTYPE svg PUBLIC "-//W3C//DTD SVG 1.1//EN"
 "http://www.w3.org/Graphics/SVG/1.1/DTD/svg11.dtd">
<!-- Generated by graphviz version 7.0.5 (20221223.1930)
 -->
<!-- Title: ee205_animal_farm&#45;aar0m/src/Animal/Animal.cpp Pages: 1 -->
<!--zoomable 364 -->
<svg id="main" version="1.1" xmlns="http://www.w3.org/2000/svg" xmlns:xlink="http://www.w3.org/1999/xlink" xml:space="preserve" onload="init(evt)">
<style type="text/css"><![CDATA[
.edge:hover path { stroke: red; }
.edge:hover polygon { stroke: red; fill: red; }
]]></style>
<script type="text/javascript"><![CDATA[
var edges = document.getElementsByTagName('g');
if (edges && edges.length) {
  for (var i=0;i<edges.length;i++) {
    if (edges[i].id.substr(0,4)=='edge') {
      edges[i].setAttribute('class','edge');
    }
  }
}
]]></script>
        <defs>
                <circle id="rim" cx="0" cy="0" r="7"/>
                <circle id="rim2" cx="0" cy="0" r="3.5"/>
                <g id="zoomPlus">
                        <use xlink:href="#rim" fill="#404040">
                                <set attributeName="fill" to="#808080" begin="zoomplus.mouseover" end="zoomplus.mouseout"/>
                        </use>
                        <path d="M-4,0h8M0,-4v8" fill="none" stroke="white" stroke-width="1.5" pointer-events="none"/>
                </g>
                <g id="zoomMin">
                        <use xlink:href="#rim" fill="#404040">
                                <set attributeName="fill" to="#808080" begin="zoomminus.mouseover" end="zoomminus.mouseout"/>
                        </use>
                        <path d="M-4,0h8" fill="none" stroke="white" stroke-width="1.5" pointer-events="none"/>
                </g>
                <g id="dirArrow">
                        <path fill="none" stroke="white" stroke-width="1.5" d="M0,-3.0v7 M-2.5,-0.5L0,-3.0L2.5,-0.5"/>
                </g>
               <g id="resetDef">
                       <use xlink:href="#rim2" fill="#404040">
                               <set attributeName="fill" to="#808080" begin="reset.mouseover" end="reset.mouseout"/>
                       </use>
               </g>
        </defs>

<script type="text/javascript">
var viewWidth = 613;
var viewHeight = 364;
var sectionId = 'dynsection-0';
</script>
<script xlink:href="svgpan.js"/>
<svg id="graph" class="graph">
<g id="viewport">
<title>ee205_animal_farm&#45;aar0m/src/Animal/Animal.cpp</title>
<!-- Node1 -->
<g id="node1" class="node">
<title>Node1</title>
<g id="a_node1"><a xlink:title="Are there any malls for animals?">
<polygon fill="#999999" stroke="#666666" points="410.99,-356 173.46,-356 173.46,-336 410.99,-336 410.99,-356"/>
<text text-anchor="middle" x="292.23" y="-343" font-family="Helvetica,sans-Serif" font-size="10.00">ee205_animal_farm&#45;aar0m/src/Animal/Animal.cpp</text>
</a>
</g>
</g>
<!-- Node2 -->
<g id="node2" class="node">
<title>Node2</title>
<g id="a_node2"><a xlink:href="Mammal_2Cat_2Cat_8h.html" target="_top" xlink:title="Meow meow meow? Meow meow meow meow meow meow!">
<polygon fill="white" stroke="#666666" points="304.92,-300 197.54,-300 197.54,-280 304.92,-280 304.92,-300"/>
<text text-anchor="middle" x="251.23" y="-287" font-family="Helvetica,sans-Serif" font-size="10.00">../Mammal/Cat/Cat.h</text>
</a>
</g>
</g>
<!-- Node1&#45;&gt;Node2 -->
<g id="edge1" class="edge">
<title>Node1&#45;&gt;Node2</title>
<path fill="none" stroke="#63b8ff" d="M285.08,-335.59C279.62,-328.39 271.9,-318.23 265.22,-309.43"/>
<polygon fill="#63b8ff" stroke="#63b8ff" points="268.04,-307.35 259.2,-301.5 262.46,-311.58 268.04,-307.35"/>
</g>
<!-- Node8 -->
<g id="node8" class="node">
<title>Node8</title>
<g id="a_node8"><a xlink:href="Animal_8h.html" target="_top" xlink:title="Are there any malls for animals?">
<polygon fill="white" stroke="#666666" points="425.31,-188 329.14,-188 329.14,-168 425.31,-168 425.31,-188"/>
<text text-anchor="middle" x="377.23" y="-175" font-family="Helvetica,sans-Serif" font-size="10.00">../Animal/Animal.h</text>
</a>
</g>
</g>
<!-- Node1&#45;&gt;Node8 -->
<g id="edge23" class="edge">
<title>Node1&#45;&gt;Node8</title>
<path fill="none" stroke="#63b8ff" d="M297.59,-335.64C307.68,-317.94 330.02,-278.26 347.23,-244 354.74,-229.03 362.66,-211.81 368.47,-198.86"/>
<polygon fill="#63b8ff" stroke="#63b8ff" points="371.67,-200.29 372.53,-189.73 365.27,-197.45 371.67,-200.29"/>
</g>
<!-- Node3 -->
<g id="node3" class="node">
<title>Node3</title>
<g id="a_node3"><a xlink:href="Name_8h.html" target="_top" xlink:title="A utility class for managing names of things.">
<polygon fill="white" stroke="#666666" points="127.63,-244 32.82,-244 32.82,-224 127.63,-224 127.63,-244"/>
<text text-anchor="middle" x="80.23" y="-231" font-family="Helvetica,sans-Serif" font-size="10.00">../../Utility/Name.h</text>
</a>
</g>
</g>
<!-- Node2&#45;&gt;Node3 -->
<g id="edge2" class="edge">
<title>Node2&#45;&gt;Node3</title>
<path fill="none" stroke="#63b8ff" d="M221.44,-279.59C193.66,-270.82 151.97,-257.66 121.09,-247.9"/>
<polygon fill="#63b8ff" stroke="#63b8ff" points="122.28,-244.61 111.69,-244.94 120.17,-251.28 122.28,-244.61"/>
</g>
<!-- Node6 -->
<g id="node6" class="node">
<title>Node6</title>
<g id="a_node6"><a xlink:href="Trim_8h.html" target="_top" xlink:title="General string&#45;trimming functions.">
<polygon fill="white" stroke="#666666" points="248.45,-244 160,-244 160,-224 248.45,-224 248.45,-244"/>
<text text-anchor="middle" x="204.23" y="-231" font-family="Helvetica,sans-Serif" font-size="10.00">../../Utility/Trim.h</text>
</a>
</g>
</g>
<!-- Node2&#45;&gt;Node6 -->
<g id="edge5" class="edge">
<title>Node2&#45;&gt;Node6</title>
<path fill="none" stroke="#63b8ff" d="M243.04,-279.59C236.64,-272.24 227.55,-261.8 219.78,-252.87"/>
<polygon fill="#63b8ff" stroke="#63b8ff" points="222.52,-250.69 213.31,-245.44 217.24,-255.28 222.52,-250.69"/>
</g>
<!-- Node7 -->
<g id="node7" class="node">
<title>Node7</title>
<g id="a_node7"><a xlink:href="Mammal_8h.html" target="_top" xlink:title="Mammals? More like &quot;ma pals!&quot;.">
<polygon fill="white" stroke="#666666" points="337.74,-244 266.72,-244 266.72,-224 337.74,-224 337.74,-244"/>
<text text-anchor="middle" x="302.23" y="-231" font-family="Helvetica,sans-Serif" font-size="10.00">../Mammal.h</text>
</a>
</g>
</g>
<!-- Node2&#45;&gt;Node7 -->
<g id="edge6" class="edge">
<title>Node2&#45;&gt;Node7</title>
<path fill="none" stroke="#63b8ff" d="M260.11,-279.59C267.13,-272.16 277.13,-261.58 285.62,-252.58"/>
<polygon fill="#63b8ff" stroke="#63b8ff" points="288.08,-255.07 292.41,-245.4 282.99,-250.27 288.08,-255.07"/>
</g>
<!-- Node4 -->
<g id="node4" class="node">
<title>Node4</title>
<g id="a_node4"><a xlink:title=" ">
<polygon fill="#e0e0e0" stroke="#999999" points="40.68,-188 -0.23,-188 -0.23,-168 40.68,-168 40.68,-188"/>
<text text-anchor="middle" x="20.23" y="-175" font-family="Helvetica,sans-Serif" font-size="10.00">string</text>
</a>
</g>
</g>
<!-- Node3&#45;&gt;Node4 -->
<g id="edge3" class="edge">
<title>Node3&#45;&gt;Node4</title>
<path fill="none" stroke="#63b8ff" d="M69.78,-223.59C61.26,-215.93 49.02,-204.91 38.83,-195.75"/>
<polygon fill="#63b8ff" stroke="#63b8ff" points="41.46,-193.4 31.68,-189.31 36.77,-198.6 41.46,-193.4"/>
</g>
<!-- Node5 -->
<g id="node5" class="node">
<title>Node5</title>
<g id="a_node5"><a xlink:title=" ">
<polygon fill="#e0e0e0" stroke="#999999" points="101.96,-188 58.49,-188 58.49,-168 101.96,-168 101.96,-188"/>
<text text-anchor="middle" x="80.23" y="-175" font-family="Helvetica,sans-Serif" font-size="10.00">vector</text>
</a>
</g>
</g>
<!-- Node3&#45;&gt;Node5 -->
<g id="edge4" class="edge">
<title>Node3&#45;&gt;Node5</title>
<path fill="none" stroke="#63b8ff" d="M80.23,-223.59C80.23,-217.01 80.23,-207.96 80.23,-199.73"/>
<polygon fill="#63b8ff" stroke="#63b8ff" points="83.73,-199.81 80.23,-189.81 76.73,-199.81 83.73,-199.81"/>
</g>
<!-- Node7&#45;&gt;Node8 -->
<g id="edge7" class="edge">
<title>Node7&#45;&gt;Node8</title>
<path fill="none" stroke="#63b8ff" d="M315.29,-223.59C326.19,-215.74 341.98,-204.38 354.88,-195.09"/>
<polygon fill="#63b8ff" stroke="#63b8ff" points="356.76,-198.05 362.83,-189.36 352.67,-192.37 356.76,-198.05"/>
</g>
<!-- Node18 -->
<g id="node18" class="node">
<title>Node18</title>
<g id="a_node18"><a xlink:href="Gender_8h.html" target="_top" xlink:title="Gender class to be used for Mammals.">
<polygon fill="white" stroke="#666666" points="212.98,-188 119.48,-188 119.48,-168 212.98,-168 212.98,-188"/>
<text text-anchor="middle" x="166.23" y="-175" font-family="Helvetica,sans-Serif" font-size="10.00">../Utility/Gender.h</text>
</a>
</g>
</g>
<!-- Node7&#45;&gt;Node18 -->
<g id="edge19" class="edge">
<title>Node7&#45;&gt;Node18</title>
<path fill="none" stroke="#63b8ff" d="M278.54,-223.59C257.02,-215.05 225.03,-202.35 200.68,-192.68"/>
<polygon fill="#63b8ff" stroke="#63b8ff" points="202.09,-189.48 191.51,-189.04 199.51,-195.98 202.09,-189.48"/>
</g>
<!-- Node9 -->
<g id="node9" class="node">
<title>Node9</title>
<g id="a_node9"><a xlink:href="Node_8h.html" target="_top" xlink:title="Node class for objects to inherit.">
<polygon fill="white" stroke="#666666" points="353.45,-132 251.01,-132 251.01,-112 353.45,-112 353.45,-132"/>
<text text-anchor="middle" x="302.23" y="-119" font-family="Helvetica,sans-Serif" font-size="10.00">../Container/Node.h</text>
</a>
</g>
</g>
<!-- Node8&#45;&gt;Node9 -->
<g id="edge8" class="edge">
<title>Node8&#45;&gt;Node9</title>
<path fill="none" stroke="#63b8ff" d="M364.16,-167.59C353.26,-159.74 337.48,-148.38 324.57,-139.09"/>
<polygon fill="#63b8ff" stroke="#63b8ff" points="326.78,-136.37 316.62,-133.36 322.69,-142.05 326.78,-136.37"/>
</g>
<!-- Node10 -->
<g id="node10" class="node">
<title>Node10</title>
<g id="a_node10"><a xlink:href="config_8h.html" target="_top" xlink:title="Header file for Animal Farm configuration.">
<polygon fill="white" stroke="#666666" points="211.09,-76 151.37,-76 151.37,-56 211.09,-56 211.09,-76"/>
<text text-anchor="middle" x="181.23" y="-63" font-family="Helvetica,sans-Serif" font-size="10.00">../config.h</text>
</a>
</g>
</g>
<!-- Node8&#45;&gt;Node10 -->
<g id="edge14" class="edge">
<title>Node8&#45;&gt;Node10</title>
<path fill="none" stroke="#63b8ff" d="M330.65,-167.53C303.4,-160.56 269.17,-149.25 242.23,-132 222.95,-119.66 205.59,-99.89 194.37,-85.39"/>
<polygon fill="#63b8ff" stroke="#63b8ff" points="197.31,-83.49 188.53,-77.56 191.7,-87.67 197.31,-83.49"/>
</g>
<!-- Node14 -->
<g id="node14" class="node">
<title>Node14</title>
<g id="a_node14"><a xlink:title=" ">
<polygon fill="#e0e0e0" stroke="#999999" points="421.57,-76 366.88,-76 366.88,-56 421.57,-56 421.57,-76"/>
<text text-anchor="middle" x="394.23" y="-63" font-family="Helvetica,sans-Serif" font-size="10.00">iostream</text>
</a>
</g>
</g>
<!-- Node8&#45;&gt;Node14 -->
<g id="edge17" class="edge">
<title>Node8&#45;&gt;Node14</title>
<path fill="none" stroke="#63b8ff" d="M378.68,-167.62C381.4,-150.01 387.33,-111.59 391.03,-87.65"/>
<polygon fill="#63b8ff" stroke="#63b8ff" points="394.48,-88.27 392.55,-77.85 387.56,-87.2 394.48,-88.27"/>
</g>
<!-- Node15 -->
<g id="node15" class="node">
<title>Node15</title>
<g id="a_node15"><a xlink:title=" ">
<polygon fill="#e0e0e0" stroke="#999999" points="457.46,-132 408.99,-132 408.99,-112 457.46,-112 457.46,-132"/>
<text text-anchor="middle" x="433.23" y="-119" font-family="Helvetica,sans-Serif" font-size="10.00">cassert</text>
</a>
</g>
</g>
<!-- Node8&#45;&gt;Node15 -->
<g id="edge15" class="edge">
<title>Node8&#45;&gt;Node15</title>
<path fill="none" stroke="#63b8ff" d="M386.98,-167.59C394.85,-160.01 406.13,-149.13 415.57,-140.02"/>
<polygon fill="#63b8ff" stroke="#63b8ff" points="417.73,-142.81 422.49,-133.35 412.87,-137.77 417.73,-142.81"/>
</g>
<!-- Node16 -->
<g id="node16" class="node">
<title>Node16</title>
<g id="a_node16"><a xlink:title=" ">
<polygon fill="#e0e0e0" stroke="#999999" points="521.18,-132 475.27,-132 475.27,-112 521.18,-112 521.18,-132"/>
<text text-anchor="middle" x="498.23" y="-119" font-family="Helvetica,sans-Serif" font-size="10.00">cstring</text>
</a>
</g>
</g>
<!-- Node8&#45;&gt;Node16 -->
<g id="edge16" class="edge">
<title>Node8&#45;&gt;Node16</title>
<path fill="none" stroke="#63b8ff" d="M398.3,-167.59C417.19,-159.17 445.14,-146.69 466.69,-137.07"/>
<polygon fill="#63b8ff" stroke="#63b8ff" points="467.9,-140.37 475.6,-133.1 465.05,-133.98 467.9,-140.37"/>
</g>
<!-- Node17 -->
<g id="node17" class="node">
<title>Node17</title>
<g id="a_node17"><a xlink:title=" ">
<polygon fill="#e0e0e0" stroke="#999999" points="605.25,-132 539.21,-132 539.21,-112 605.25,-112 605.25,-132"/>
<text text-anchor="middle" x="572.23" y="-119" font-family="Helvetica,sans-Serif" font-size="10.00">string_view</text>
</a>
</g>
</g>
<!-- Node8&#45;&gt;Node17 -->
<g id="edge18" class="edge">
<title>Node8&#45;&gt;Node17</title>
<path fill="none" stroke="#63b8ff" d="M411.19,-167.59C443.59,-158.62 492.55,-145.06 527.99,-135.25"/>
<polygon fill="#63b8ff" stroke="#63b8ff" points="528.81,-138.65 537.52,-132.61 526.94,-131.91 528.81,-138.65"/>
</g>
<!-- Node9&#45;&gt;Node10 -->
<g id="edge9" class="edge">
<title>Node9&#45;&gt;Node10</title>
<path fill="none" stroke="#63b8ff" d="M281.15,-111.59C262.27,-103.17 234.31,-90.69 212.76,-81.07"/>
<polygon fill="#63b8ff" stroke="#63b8ff" points="214.41,-77.98 203.85,-77.1 211.56,-84.37 214.41,-77.98"/>
</g>
<!-- Node13 -->
<g id="node13" class="node">
<title>Node13</title>
<g id="a_node13"><a xlink:title=" ">
<polygon fill="#e0e0e0" stroke="#999999" points="349.19,-76 229.27,-76 229.27,-56 349.19,-56 349.19,-76"/>
<text text-anchor="middle" x="289.23" y="-63" font-family="Helvetica,sans-Serif" font-size="10.00">boost/core/typeinfo.hpp</text>
</a>
</g>
</g>
<!-- Node9&#45;&gt;Node13 -->
<g id="edge12" class="edge">
<title>Node9&#45;&gt;Node13</title>
<path fill="none" stroke="#63b8ff" d="M299.96,-111.59C298.36,-104.93 296.15,-95.75 294.15,-87.44"/>
<polygon fill="#63b8ff" stroke="#63b8ff" points="297.56,-86.67 291.82,-77.77 290.76,-88.31 297.56,-86.67"/>
</g>
<!-- Node9&#45;&gt;Node14 -->
<g id="edge13" class="edge">
<title>Node9&#45;&gt;Node14</title>
<path fill="none" stroke="#63b8ff" d="M318.25,-111.59C332.02,-103.51 352.13,-91.71 368.2,-82.27"/>
<polygon fill="#63b8ff" stroke="#63b8ff" points="369.92,-85.33 376.77,-77.25 366.38,-79.29 369.92,-85.33"/>
</g>
<!-- Node11 -->
<g id="node11" class="node">
<title>Node11</title>
<g id="a_node11"><a xlink:title=" ">
<polygon fill="#e0e0e0" stroke="#999999" points="172.75,-20 121.71,-20 121.71,0 172.75,0 172.75,-20"/>
<text text-anchor="middle" x="147.23" y="-7" font-family="Helvetica,sans-Serif" font-size="10.00">iomanip</text>
</a>
</g>
</g>
<!-- Node10&#45;&gt;Node11 -->
<g id="edge10" class="edge">
<title>Node10&#45;&gt;Node11</title>
<path fill="none" stroke="#63b8ff" d="M175.3,-55.59C170.87,-48.55 164.65,-38.67 159.19,-30"/>
<polygon fill="#63b8ff" stroke="#63b8ff" points="162.18,-28.18 153.89,-21.58 156.25,-31.91 162.18,-28.18"/>
</g>
<!-- Node12 -->
<g id="node12" class="node">
<title>Node12</title>
<g id="a_node12"><a xlink:title=" ">
<polygon fill="#e0e0e0" stroke="#999999" points="240.13,-20 190.32,-20 190.32,0 240.13,0 240.13,-20"/>
<text text-anchor="middle" x="215.23" y="-7" font-family="Helvetica,sans-Serif" font-size="10.00">random</text>
</a>
</g>
</g>
<!-- Node10&#45;&gt;Node12 -->
<g id="edge11" class="edge">
<title>Node10&#45;&gt;Node12</title>
<path fill="none" stroke="#63b8ff" d="M187.15,-55.59C191.59,-48.55 197.8,-38.67 203.26,-30"/>
<polygon fill="#63b8ff" stroke="#63b8ff" points="206.2,-31.91 208.57,-21.58 200.28,-28.18 206.2,-31.91"/>
</g>
<!-- Node18&#45;&gt;Node10 -->
<g id="edge20" class="edge">
<title>Node18&#45;&gt;Node10</title>
<path fill="none" stroke="#63b8ff" d="M124.63,-167.57C89.18,-157.46 46.67,-139.1 65.23,-112 81.86,-87.7 113.68,-76.52 139.78,-71.38"/>
<polygon fill="#63b8ff" stroke="#63b8ff" points="140.18,-74.86 149.44,-69.72 138.99,-67.96 140.18,-74.86"/>
</g>
<!-- Node19 -->
<g id="node19" class="node">
<title>Node19</title>
<g id="a_node19"><a xlink:title=" ">
<polygon fill="#e0e0e0" stroke="#999999" points="118.57,-132 73.88,-132 73.88,-112 118.57,-112 118.57,-132"/>
<text text-anchor="middle" x="96.23" y="-119" font-family="Helvetica,sans-Serif" font-size="10.00">cstdlib</text>
</a>
</g>
</g>
<!-- Node18&#45;&gt;Node19 -->
<g id="edge21" class="edge">
<title>Node18&#45;&gt;Node19</title>
<path fill="none" stroke="#63b8ff" d="M154.03,-167.59C143.9,-159.77 129.24,-148.46 117.22,-139.19"/>
<polygon fill="#63b8ff" stroke="#63b8ff" points="119.53,-136.56 109.48,-133.22 115.26,-142.1 119.53,-136.56"/>
</g>
<!-- Node20 -->
<g id="node20" class="node">
<title>Node20</title>
<g id="a_node20"><a xlink:title=" ">
<polygon fill="#e0e0e0" stroke="#999999" points="195.53,-132 136.92,-132 136.92,-112 195.53,-112 195.53,-132"/>
<text text-anchor="middle" x="166.23" y="-119" font-family="Helvetica,sans-Serif" font-size="10.00">stdexcept</text>
</a>
</g>
</g>
<!-- Node18&#45;&gt;Node20 -->
<g id="edge22" class="edge">
<title>Node18&#45;&gt;Node20</title>
<path fill="none" stroke="#63b8ff" d="M166.23,-167.59C166.23,-161.01 166.23,-151.96 166.23,-143.73"/>
<polygon fill="#63b8ff" stroke="#63b8ff" points="169.73,-143.81 166.23,-133.81 162.73,-143.81 169.73,-143.81"/>
</g>
</g>
</svg>
        <g id="navigator" transform="translate(0 0)" fill="#404254">
                <rect fill="#f2f5e9" fill-opacity="0.5" stroke="#606060" stroke-width=".5" x="0" y="0" width="60" height="60"/>
                <use id="zoomplus" xlink:href="#zoomPlus" x="17" y="9" onmousedown="handleZoom(evt,'in')"/>
                <use id="zoomminus" xlink:href="#zoomMin" x="42" y="9" onmousedown="handleZoom(evt,'out')"/>
                <use id="reset" xlink:href="#resetDef" x="30" y="36" onmousedown="handleReset()"/>
                <g id="arrowUp" xlink:href="#dirArrow" transform="translate(30 24)" onmousedown="handlePan(0,-1)">
                  <use xlink:href="#rim" fill="#404040">
                        <set attributeName="fill" to="#808080" begin="arrowUp.mouseover" end="arrowUp.mouseout"/>
                  </use>
                  <path fill="none" stroke="white" stroke-width="1.5" d="M0,-3.0v7 M-2.5,-0.5L0,-3.0L2.5,-0.5"/>
                </g>
                <g id="arrowRight" xlink:href="#dirArrow" transform="rotate(90) translate(36 -43)" onmousedown="handlePan(1,0)">
                  <use xlink:href="#rim" fill="#404040">
                        <set attributeName="fill" to="#808080" begin="arrowRight.mouseover" end="arrowRight.mouseout"/>
                  </use>
                  <path fill="none" stroke="white" stroke-width="1.5" d="M0,-3.0v7 M-2.5,-0.5L0,-3.0L2.5,-0.5"/>
                </g>
                <g id="arrowDown" xlink:href="#dirArrow" transform="rotate(180) translate(-30 -48)" onmousedown="handlePan(0,1)">
                  <use xlink:href="#rim" fill="#404040">
                        <set attributeName="fill" to="#808080" begin="arrowDown.mouseover" end="arrowDown.mouseout"/>
                  </use>
                  <path fill="none" stroke="white" stroke-width="1.5" d="M0,-3.0v7 M-2.5,-0.5L0,-3.0L2.5,-0.5"/>
                </g>
                <g id="arrowLeft" xlink:href="#dirArrow" transform="rotate(270) translate(-36 17)" onmousedown="handlePan(-1,0)">
                  <use xlink:href="#rim" fill="#404040">
                        <set attributeName="fill" to="#808080" begin="arrowLeft.mouseover" end="arrowLeft.mouseout"/>
                  </use>
                  <path fill="none" stroke="white" stroke-width="1.5" d="M0,-3.0v7 M-2.5,-0.5L0,-3.0L2.5,-0.5"/>
                </g>
        </g>
        <svg viewBox="0 0 15 15" width="100%" height="30px" preserveAspectRatio="xMaxYMin meet">
         <g id="arrow_out" transform="scale(0.3 0.3)">
          <a xlink:href="Animal_8cpp__incl_org.svg" target="_base">
           <rect id="button" ry="5" rx="5" y="6" x="6" height="38" width="38"
                fill="#f2f5e9" fill-opacity="0.5" stroke="#606060" stroke-width="1.0"/>
           <path id="arrow"
             d="M 11.500037,31.436501 C 11.940474,20.09759 22.043105,11.32322 32.158766,21.979434 L 37.068811,17.246167 C 37.068811,17.246167 37.088388,32 37.088388,32 L 22.160133,31.978069 C 22.160133,31.978069 26.997745,27.140456 26.997745,27.140456 C 18.528582,18.264221 13.291696,25.230495 11.500037,31.436501 z"
             style="fill:#404040;"/>
          </a>
         </g>
        </svg>
</svg>
