<?xml version="1.0" encoding="UTF-8" standalone="no"?>
<!DOCTYPE svg PUBLIC "-//W3C//DTD SVG 1.1//EN"
 "http://www.w3.org/Graphics/SVG/1.1/DTD/svg11.dtd">
<!-- Generated by graphviz version 7.0.5 (20221223.1930)
 -->
<!-- Title: ee205_animal_farm&#45;aar0m/src/Animal/Animal.h Pages: 1 -->
<svg width="1086pt" height="196pt"
 viewBox="0.00 0.00 1086.29 196.00" xmlns="http://www.w3.org/2000/svg" xmlns:xlink="http://www.w3.org/1999/xlink">
<g id="graph0" class="graph" transform="scale(1 1) rotate(0) translate(4 192)">
<title>ee205_animal_farm&#45;aar0m/src/Animal/Animal.h</title>
<!-- Node1 -->
<g id="node1" class="node">
<title>Node1</title>
<g id="a_node1"><a xlink:title="Are there any malls for animals?">
<polygon fill="#999999" stroke="#666666" points="363.58,-188 136.18,-188 136.18,-168 363.58,-168 363.58,-188"/>
<text text-anchor="middle" x="249.88" y="-175" font-family="Helvetica,sans-Serif" font-size="10.00">ee205_animal_farm&#45;aar0m/src/Animal/Animal.h</text>
</a>
</g>
</g>
<!-- Node2 -->
<g id="node2" class="node">
<title>Node2</title>
<g id="a_node2"><a xlink:href="Animal_8cpp.html" target="_top" xlink:title="Are there any malls for animals?">
<polygon fill="white" stroke="#666666" points="237.64,-20 0.12,-20 0.12,0 237.64,0 237.64,-20"/>
<text text-anchor="middle" x="118.88" y="-7" font-family="Helvetica,sans-Serif" font-size="10.00">ee205_animal_farm&#45;aar0m/src/Animal/Animal.cpp</text>
</a>
</g>
</g>
<!-- Node1&#45;&gt;Node2 -->
<g id="edge1" class="edge">
<title>Node1&#45;&gt;Node2</title>
<path fill="none" stroke="#63b8ff" d="M235.53,-158.82C207.68,-123.53 147.19,-46.88 126.22,-20.3"/>
<polygon fill="#63b8ff" stroke="#63b8ff" points="232.58,-160.73 241.53,-166.41 238.08,-156.39 232.58,-160.73"/>
</g>
<!-- Node3 -->
<g id="node3" class="node">
<title>Node3</title>
<g id="a_node3"><a xlink:href="Mammal_8h.html" target="_top" xlink:title="Mammals? More like &quot;ma pals!&quot;.">
<polygon fill="white" stroke="#666666" points="577.12,-132 334.64,-132 334.64,-112 577.12,-112 577.12,-132"/>
<text text-anchor="middle" x="455.88" y="-119" font-family="Helvetica,sans-Serif" font-size="10.00">ee205_animal_farm&#45;aar0m/src/Mammal/Mammal.h</text>
</a>
</g>
</g>
<!-- Node1&#45;&gt;Node3 -->
<g id="edge2" class="edge">
<title>Node1&#45;&gt;Node3</title>
<path fill="none" stroke="#63b8ff" d="M296.85,-164.69C334.16,-154.91 385.57,-141.43 419.72,-132.48"/>
<polygon fill="#63b8ff" stroke="#63b8ff" points="296.01,-161.29 287.23,-167.21 297.79,-168.06 296.01,-161.29"/>
</g>
<!-- Node4 -->
<g id="node4" class="node">
<title>Node4</title>
<g id="a_node4"><a xlink:href="SingleLinkedList_8h.html" target="_top" xlink:title="Singly Linked List (SLL) class to store Nodes.">
<polygon fill="white" stroke="#666666" points="1042.14,-76 759.63,-76 759.63,-56 1042.14,-56 1042.14,-76"/>
<text text-anchor="middle" x="900.88" y="-63" font-family="Helvetica,sans-Serif" font-size="10.00">ee205_animal_farm&#45;aar0m/src/Container/SingleLinkedList.h</text>
</a>
</g>
</g>
<!-- Node3&#45;&gt;Node4 -->
<g id="edge3" class="edge">
<title>Node3&#45;&gt;Node4</title>
<path fill="none" stroke="#63b8ff" d="M545.36,-110.14C626.58,-100.29 745.16,-85.9 822.67,-76.49"/>
<polygon fill="#63b8ff" stroke="#63b8ff" points="545.17,-106.64 535.66,-111.32 546.01,-113.59 545.17,-106.64"/>
</g>
<!-- Node7 -->
<g id="node7" class="node">
<title>Node7</title>
<g id="a_node7"><a xlink:href="Mammal_2Cat_2Cat_8h.html" target="_top" xlink:title="Meow meow meow? Meow meow meow meow meow meow!">
<polygon fill="white" stroke="#666666" points="470.19,-76 231.58,-76 231.58,-56 470.19,-56 470.19,-76"/>
<text text-anchor="middle" x="350.88" y="-63" font-family="Helvetica,sans-Serif" font-size="10.00">ee205_animal_farm&#45;aar0m/src/Mammal/Cat/Cat.h</text>
</a>
</g>
</g>
<!-- Node3&#45;&gt;Node7 -->
<g id="edge6" class="edge">
<title>Node3&#45;&gt;Node7</title>
<path fill="none" stroke="#63b8ff" d="M427.39,-106.35C408.91,-96.84 385.37,-84.74 369.31,-76.48"/>
<polygon fill="#63b8ff" stroke="#63b8ff" points="425.75,-109.44 436.25,-110.9 428.95,-103.22 425.75,-109.44"/>
</g>
<!-- Node9 -->
<g id="node9" class="node">
<title>Node9</title>
<g id="a_node9"><a xlink:href="Mammal_8cpp.html" target="_top" xlink:title="Mammals? More like &quot;ma pals!&quot;.">
<polygon fill="white" stroke="#666666" points="741.68,-76 488.08,-76 488.08,-56 741.68,-56 741.68,-76"/>
<text text-anchor="middle" x="614.88" y="-63" font-family="Helvetica,sans-Serif" font-size="10.00">ee205_animal_farm&#45;aar0m/src/Mammal/Mammal.cpp</text>
</a>
</g>
</g>
<!-- Node3&#45;&gt;Node9 -->
<g id="edge10" class="edge">
<title>Node3&#45;&gt;Node9</title>
<path fill="none" stroke="#63b8ff" d="M494.39,-107.92C522.98,-98.21 561.29,-85.2 586.97,-76.48"/>
<polygon fill="#63b8ff" stroke="#63b8ff" points="493.35,-104.58 485.01,-111.11 495.6,-111.21 493.35,-104.58"/>
</g>
<!-- Node5 -->
<g id="node5" class="node">
<title>Node5</title>
<g id="a_node5"><a xlink:href="SingleLinkedList_8cpp.html" target="_top" xlink:title="Singly Linked List (SLL) class to store Nodes.">
<polygon fill="white" stroke="#666666" points="1078.2,-20 785.56,-20 785.56,0 1078.2,0 1078.2,-20"/>
<text text-anchor="middle" x="931.88" y="-7" font-family="Helvetica,sans-Serif" font-size="10.00">ee205_animal_farm&#45;aar0m/src/Container/SingleLinkedList.cpp</text>
</a>
</g>
</g>
<!-- Node4&#45;&gt;Node5 -->
<g id="edge4" class="edge">
<title>Node4&#45;&gt;Node5</title>
<path fill="none" stroke="#63b8ff" d="M911.87,-45.87C916.85,-37.19 922.51,-27.32 926.54,-20.3"/>
<polygon fill="#63b8ff" stroke="#63b8ff" points="908.98,-43.87 907.03,-54.28 915.05,-47.35 908.98,-43.87"/>
</g>
<!-- Node6 -->
<g id="node6" class="node">
<title>Node6</title>
<g id="a_node6"><a xlink:href="main__catEmpire_8cpp_source.html" target="_top" xlink:title=" ">
<polygon fill="white" stroke="#666666" points="767.98,-20 521.78,-20 521.78,0 767.98,0 767.98,-20"/>
<text text-anchor="middle" x="644.88" y="-7" font-family="Helvetica,sans-Serif" font-size="10.00">ee205_animal_farm&#45;aar0m/src/main_catEmpire.cpp</text>
</a>
</g>
</g>
<!-- Node4&#45;&gt;Node6 -->
<g id="edge5" class="edge">
<title>Node4&#45;&gt;Node6</title>
<path fill="none" stroke="#63b8ff" d="M844.88,-53.19C798.31,-43.36 732.88,-29.56 689.71,-20.46"/>
<polygon fill="#63b8ff" stroke="#63b8ff" points="844.01,-56.58 854.52,-55.22 845.45,-49.73 844.01,-56.58"/>
</g>
<!-- Node7&#45;&gt;Node2 -->
<g id="edge7" class="edge">
<title>Node7&#45;&gt;Node2</title>
<path fill="none" stroke="#63b8ff" d="M299.06,-52.94C256.92,-43.13 198.3,-29.49 159.51,-20.46"/>
<polygon fill="#63b8ff" stroke="#63b8ff" points="298.2,-56.33 308.73,-55.19 299.78,-49.51 298.2,-56.33"/>
</g>
<!-- Node7&#45;&gt;Node6 -->
<g id="edge9" class="edge">
<title>Node7&#45;&gt;Node6</title>
<path fill="none" stroke="#63b8ff" d="M413.5,-53.5C467.09,-43.66 543.29,-29.66 593.39,-20.46"/>
<polygon fill="#63b8ff" stroke="#63b8ff" points="413.12,-50.01 403.92,-55.26 414.39,-56.89 413.12,-50.01"/>
</g>
<!-- Node8 -->
<g id="node8" class="node">
<title>Node8</title>
<g id="a_node8"><a xlink:href="Mammal_2Cat_2Cat_8cpp.html" target="_top" xlink:title="Meow meow meow? Meow meow meow meow meow meow!">
<polygon fill="white" stroke="#666666" points="504.25,-20 255.52,-20 255.52,0 504.25,0 504.25,-20"/>
<text text-anchor="middle" x="379.88" y="-7" font-family="Helvetica,sans-Serif" font-size="10.00">ee205_animal_farm&#45;aar0m/src/Mammal/Cat/Cat.cpp</text>
</a>
</g>
</g>
<!-- Node7&#45;&gt;Node8 -->
<g id="edge8" class="edge">
<title>Node7&#45;&gt;Node8</title>
<path fill="none" stroke="#63b8ff" d="M361.31,-45.58C365.94,-36.97 371.16,-27.24 374.89,-20.3"/>
<polygon fill="#63b8ff" stroke="#63b8ff" points="358.3,-43.79 356.65,-54.26 364.46,-47.11 358.3,-43.79"/>
</g>
</g>
</svg>
