<?xml version="1.0" encoding="UTF-8" standalone="no"?>
<!DOCTYPE svg PUBLIC "-//W3C//DTD SVG 1.1//EN"
 "http://www.w3.org/Graphics/SVG/1.1/DTD/svg11.dtd">
<!-- Generated by graphviz version 7.0.5 (20221223.1930)
 -->
<!-- Title: ee205_animal_farm&#45;aar0m/src/Animal/Animal.h Pages: 1 -->
<svg width="509pt" height="196pt"
 viewBox="0.00 0.00 509.18 196.00" xmlns="http://www.w3.org/2000/svg" xmlns:xlink="http://www.w3.org/1999/xlink">
<g id="graph0" class="graph" transform="scale(1 1) rotate(0) translate(4 192)">
<title>ee205_animal_farm&#45;aar0m/src/Animal/Animal.h</title>
<!-- Node1 -->
<g id="node1" class="node">
<title>Node1</title>
<g id="a_node1"><a xlink:title="Are there any malls for animals?">
<polygon fill="#999999" stroke="#666666" points="382.87,-188 155.47,-188 155.47,-168 382.87,-168 382.87,-188"/>
<text text-anchor="middle" x="269.17" y="-175" font-family="Helvetica,sans-Serif" font-size="10.00">ee205_animal_farm&#45;aar0m/src/Animal/Animal.h</text>
</a>
</g>
</g>
<!-- Node2 -->
<g id="node2" class="node">
<title>Node2</title>
<g id="a_node2"><a xlink:href="Node_8h.html" target="_top" xlink:title="Node class for objects to inherit.">
<polygon fill="white" stroke="#666666" points="190.39,-132 87.95,-132 87.95,-112 190.39,-112 190.39,-132"/>
<text text-anchor="middle" x="139.17" y="-119" font-family="Helvetica,sans-Serif" font-size="10.00">../Container/Node.h</text>
</a>
</g>
</g>
<!-- Node1&#45;&gt;Node2 -->
<g id="edge1" class="edge">
<title>Node1&#45;&gt;Node2</title>
<path fill="none" stroke="#63b8ff" d="M246.53,-167.59C226.06,-159.09 195.65,-146.46 172.42,-136.81"/>
<polygon fill="#63b8ff" stroke="#63b8ff" points="173.97,-133.66 163.39,-133.06 171.28,-140.13 173.97,-133.66"/>
</g>
<!-- Node3 -->
<g id="node3" class="node">
<title>Node3</title>
<g id="a_node3"><a xlink:href="config_8h.html" target="_top" xlink:title="Header file for Animal Farm configuration.">
<polygon fill="white" stroke="#666666" points="270.03,-76 210.31,-76 210.31,-56 270.03,-56 270.03,-76"/>
<text text-anchor="middle" x="240.17" y="-63" font-family="Helvetica,sans-Serif" font-size="10.00">../config.h</text>
</a>
</g>
</g>
<!-- Node1&#45;&gt;Node3 -->
<g id="edge11" class="edge">
<title>Node1&#45;&gt;Node3</title>
<path fill="none" stroke="#63b8ff" d="M264.7,-167.55C260.63,-158.58 254.73,-144.64 251.17,-132 247.08,-117.46 244.29,-100.63 242.54,-87.74"/>
<polygon fill="#63b8ff" stroke="#63b8ff" points="246.02,-87.39 241.31,-77.9 239.07,-88.25 246.02,-87.39"/>
</g>
<!-- Node7 -->
<g id="node7" class="node">
<title>Node7</title>
<g id="a_node7"><a xlink:title=" ">
<polygon fill="#e0e0e0" stroke="#999999" points="54.52,-76 -0.17,-76 -0.17,-56 54.52,-56 54.52,-76"/>
<text text-anchor="middle" x="27.17" y="-63" font-family="Helvetica,sans-Serif" font-size="10.00">iostream</text>
</a>
</g>
</g>
<!-- Node1&#45;&gt;Node7 -->
<g id="edge13" class="edge">
<title>Node1&#45;&gt;Node7</title>
<path fill="none" stroke="#63b8ff" d="M175.89,-167.53C143.43,-161.07 107.96,-150.22 79.17,-132 61.09,-120.56 46.53,-100.61 37.47,-85.82"/>
<polygon fill="#63b8ff" stroke="#63b8ff" points="40.67,-84.36 32.63,-77.47 34.61,-87.87 40.67,-84.36"/>
</g>
<!-- Node8 -->
<g id="node8" class="node">
<title>Node8</title>
<g id="a_node8"><a xlink:href="Gender_8h.html" target="_top" xlink:title="Gender class to be used for Mammals.">
<polygon fill="white" stroke="#666666" points="353.92,-132 260.42,-132 260.42,-112 353.92,-112 353.92,-132"/>
<text text-anchor="middle" x="307.17" y="-119" font-family="Helvetica,sans-Serif" font-size="10.00">../Utility/Gender.h</text>
</a>
</g>
</g>
<!-- Node1&#45;&gt;Node8 -->
<g id="edge7" class="edge">
<title>Node1&#45;&gt;Node8</title>
<path fill="none" stroke="#63b8ff" d="M275.79,-167.59C280.86,-160.39 288.01,-150.23 294.2,-141.43"/>
<polygon fill="#63b8ff" stroke="#63b8ff" points="296.87,-143.73 299.76,-133.54 291.14,-139.7 296.87,-143.73"/>
</g>
<!-- Node11 -->
<g id="node11" class="node">
<title>Node11</title>
<g id="a_node11"><a xlink:title=" ">
<polygon fill="#e0e0e0" stroke="#999999" points="417.13,-132 371.22,-132 371.22,-112 417.13,-112 417.13,-132"/>
<text text-anchor="middle" x="394.17" y="-119" font-family="Helvetica,sans-Serif" font-size="10.00">cstring</text>
</a>
</g>
</g>
<!-- Node1&#45;&gt;Node11 -->
<g id="edge12" class="edge">
<title>Node1&#45;&gt;Node11</title>
<path fill="none" stroke="#63b8ff" d="M290.95,-167.59C310.54,-159.13 339.6,-146.58 361.9,-136.94"/>
<polygon fill="#63b8ff" stroke="#63b8ff" points="363.05,-140.26 370.84,-133.08 360.27,-133.83 363.05,-140.26"/>
</g>
<!-- Node12 -->
<g id="node12" class="node">
<title>Node12</title>
<g id="a_node12"><a xlink:title=" ">
<polygon fill="#e0e0e0" stroke="#999999" points="501.19,-132 435.15,-132 435.15,-112 501.19,-112 501.19,-132"/>
<text text-anchor="middle" x="468.17" y="-119" font-family="Helvetica,sans-Serif" font-size="10.00">string_view</text>
</a>
</g>
</g>
<!-- Node1&#45;&gt;Node12 -->
<g id="edge14" class="edge">
<title>Node1&#45;&gt;Node12</title>
<path fill="none" stroke="#63b8ff" d="M303.84,-167.59C337.24,-158.53 387.91,-144.78 424.15,-134.95"/>
<polygon fill="#63b8ff" stroke="#63b8ff" points="424.7,-138.42 433.44,-132.43 422.87,-131.67 424.7,-138.42"/>
</g>
<!-- Node2&#45;&gt;Node3 -->
<g id="edge2" class="edge">
<title>Node2&#45;&gt;Node3</title>
<path fill="none" stroke="#63b8ff" d="M156.77,-111.59C172.1,-103.4 194.59,-91.37 212.36,-81.87"/>
<polygon fill="#63b8ff" stroke="#63b8ff" points="213.94,-84.99 221.11,-77.19 210.64,-78.82 213.94,-84.99"/>
</g>
<!-- Node6 -->
<g id="node6" class="node">
<title>Node6</title>
<g id="a_node6"><a xlink:title=" ">
<polygon fill="#e0e0e0" stroke="#999999" points="192.13,-76 72.21,-76 72.21,-56 192.13,-56 192.13,-76"/>
<text text-anchor="middle" x="132.17" y="-63" font-family="Helvetica,sans-Serif" font-size="10.00">boost/core/typeinfo.hpp</text>
</a>
</g>
</g>
<!-- Node2&#45;&gt;Node6 -->
<g id="edge5" class="edge">
<title>Node2&#45;&gt;Node6</title>
<path fill="none" stroke="#63b8ff" d="M137.95,-111.59C137.09,-104.93 135.9,-95.75 134.82,-87.44"/>
<polygon fill="#63b8ff" stroke="#63b8ff" points="138.33,-87.27 133.57,-77.8 131.39,-88.17 138.33,-87.27"/>
</g>
<!-- Node2&#45;&gt;Node7 -->
<g id="edge6" class="edge">
<title>Node2&#45;&gt;Node7</title>
<path fill="none" stroke="#63b8ff" d="M119.66,-111.59C102.42,-103.28 77.01,-91.03 57.19,-81.47"/>
<polygon fill="#63b8ff" stroke="#63b8ff" points="58.72,-78.33 48.2,-77.14 55.68,-84.63 58.72,-78.33"/>
</g>
<!-- Node4 -->
<g id="node4" class="node">
<title>Node4</title>
<g id="a_node4"><a xlink:title=" ">
<polygon fill="#e0e0e0" stroke="#999999" points="231.69,-20 180.65,-20 180.65,0 231.69,0 231.69,-20"/>
<text text-anchor="middle" x="206.17" y="-7" font-family="Helvetica,sans-Serif" font-size="10.00">iomanip</text>
</a>
</g>
</g>
<!-- Node3&#45;&gt;Node4 -->
<g id="edge3" class="edge">
<title>Node3&#45;&gt;Node4</title>
<path fill="none" stroke="#63b8ff" d="M234.25,-55.59C229.81,-48.55 223.59,-38.67 218.14,-30"/>
<polygon fill="#63b8ff" stroke="#63b8ff" points="221.12,-28.18 212.83,-21.58 215.2,-31.91 221.12,-28.18"/>
</g>
<!-- Node5 -->
<g id="node5" class="node">
<title>Node5</title>
<g id="a_node5"><a xlink:title=" ">
<polygon fill="#e0e0e0" stroke="#999999" points="299.08,-20 249.27,-20 249.27,0 299.08,0 299.08,-20"/>
<text text-anchor="middle" x="274.17" y="-7" font-family="Helvetica,sans-Serif" font-size="10.00">random</text>
</a>
</g>
</g>
<!-- Node3&#45;&gt;Node5 -->
<g id="edge4" class="edge">
<title>Node3&#45;&gt;Node5</title>
<path fill="none" stroke="#63b8ff" d="M246.09,-55.59C250.53,-48.55 256.75,-38.67 262.21,-30"/>
<polygon fill="#63b8ff" stroke="#63b8ff" points="265.15,-31.91 267.51,-21.58 259.22,-28.18 265.15,-31.91"/>
</g>
<!-- Node8&#45;&gt;Node3 -->
<g id="edge8" class="edge">
<title>Node8&#45;&gt;Node3</title>
<path fill="none" stroke="#63b8ff" d="M295.5,-111.59C285.89,-103.85 272.04,-92.69 260.61,-83.47"/>
<polygon fill="#63b8ff" stroke="#63b8ff" points="262.87,-80.8 252.89,-77.25 258.48,-86.25 262.87,-80.8"/>
</g>
<!-- Node9 -->
<g id="node9" class="node">
<title>Node9</title>
<g id="a_node9"><a xlink:title=" ">
<polygon fill="#e0e0e0" stroke="#999999" points="409.52,-76 364.83,-76 364.83,-56 409.52,-56 409.52,-76"/>
<text text-anchor="middle" x="387.17" y="-63" font-family="Helvetica,sans-Serif" font-size="10.00">cstdlib</text>
</a>
</g>
</g>
<!-- Node8&#45;&gt;Node9 -->
<g id="edge9" class="edge">
<title>Node8&#45;&gt;Node9</title>
<path fill="none" stroke="#63b8ff" d="M321.11,-111.59C332.85,-103.67 349.9,-92.16 363.74,-82.82"/>
<polygon fill="#63b8ff" stroke="#63b8ff" points="365.54,-85.82 371.87,-77.33 361.63,-80.02 365.54,-85.82"/>
</g>
<!-- Node10 -->
<g id="node10" class="node">
<title>Node10</title>
<g id="a_node10"><a xlink:title=" ">
<polygon fill="#e0e0e0" stroke="#999999" points="346.48,-76 287.87,-76 287.87,-56 346.48,-56 346.48,-76"/>
<text text-anchor="middle" x="317.17" y="-63" font-family="Helvetica,sans-Serif" font-size="10.00">stdexcept</text>
</a>
</g>
</g>
<!-- Node8&#45;&gt;Node10 -->
<g id="edge10" class="edge">
<title>Node8&#45;&gt;Node10</title>
<path fill="none" stroke="#63b8ff" d="M308.91,-111.59C310.15,-104.93 311.85,-95.75 313.39,-87.44"/>
<polygon fill="#63b8ff" stroke="#63b8ff" points="316.8,-88.26 315.17,-77.79 309.91,-86.98 316.8,-88.26"/>
</g>
</g>
</svg>
