<?xml version="1.0" encoding="UTF-8" standalone="no"?>
<!DOCTYPE svg PUBLIC "-//W3C//DTD SVG 1.1//EN"
 "http://www.w3.org/Graphics/SVG/1.1/DTD/svg11.dtd">
<!-- Generated by graphviz version 7.0.5 (20221223.1930)
 -->
<!-- Title: ee205_animal_farm&#45;aar0m/src/Animal/Animal.h Pages: 1 -->
<svg width="479pt" height="196pt"
 viewBox="0.00 0.00 478.52 196.00" xmlns="http://www.w3.org/2000/svg" xmlns:xlink="http://www.w3.org/1999/xlink">
<g id="graph0" class="graph" transform="scale(1 1) rotate(0) translate(4 192)">
<title>ee205_animal_farm&#45;aar0m/src/Animal/Animal.h</title>
<!-- Node1 -->
<g id="node1" class="node">
<title>Node1</title>
<g id="a_node1"><a xlink:title="Are there any malls for animals?">
<polygon fill="#999999" stroke="#666666" points="386.21,-188 158.81,-188 158.81,-168 386.21,-168 386.21,-188"/>
<text text-anchor="middle" x="272.51" y="-175" font-family="Helvetica,sans-Serif" font-size="10.00">ee205_animal_farm&#45;aar0m/src/Animal/Animal.h</text>
</a>
</g>
</g>
<!-- Node2 -->
<g id="node2" class="node">
<title>Node2</title>
<g id="a_node2"><a xlink:href="Node_8h.html" target="_top" xlink:title="Node class for objects to inherit.">
<polygon fill="white" stroke="#666666" points="218.73,-132 116.29,-132 116.29,-112 218.73,-112 218.73,-132"/>
<text text-anchor="middle" x="167.51" y="-119" font-family="Helvetica,sans-Serif" font-size="10.00">../Container/Node.h</text>
</a>
</g>
</g>
<!-- Node1&#45;&gt;Node2 -->
<g id="edge1" class="edge">
<title>Node1&#45;&gt;Node2</title>
<path fill="none" stroke="#63b8ff" d="M254.22,-167.59C238.21,-159.36 214.68,-147.26 196.17,-137.74"/>
<polygon fill="#63b8ff" stroke="#63b8ff" points="197.78,-134.63 187.29,-133.17 194.58,-140.86 197.78,-134.63"/>
</g>
<!-- Node3 -->
<g id="node3" class="node">
<title>Node3</title>
<g id="a_node3"><a xlink:href="config_8h.html" target="_top" xlink:title="Header file for Animal Farm configuration.">
<polygon fill="white" stroke="#666666" points="89.37,-76 29.65,-76 29.65,-56 89.37,-56 89.37,-76"/>
<text text-anchor="middle" x="59.51" y="-63" font-family="Helvetica,sans-Serif" font-size="10.00">../config.h</text>
</a>
</g>
</g>
<!-- Node1&#45;&gt;Node3 -->
<g id="edge7" class="edge">
<title>Node1&#45;&gt;Node3</title>
<path fill="none" stroke="#63b8ff" d="M197.77,-167.53C167.78,-161.06 134.09,-150.2 107.51,-132 90.54,-120.38 77.26,-100.75 69.02,-86.09"/>
<polygon fill="#63b8ff" stroke="#63b8ff" points="72.19,-84.61 64.42,-77.41 66,-87.88 72.19,-84.61"/>
</g>
<!-- Node7 -->
<g id="node7" class="node">
<title>Node7</title>
<g id="a_node7"><a xlink:title=" ">
<polygon fill="#e0e0e0" stroke="#999999" points="299.86,-76 245.16,-76 245.16,-56 299.86,-56 299.86,-76"/>
<text text-anchor="middle" x="272.51" y="-63" font-family="Helvetica,sans-Serif" font-size="10.00">iostream</text>
</a>
</g>
</g>
<!-- Node1&#45;&gt;Node7 -->
<g id="edge10" class="edge">
<title>Node1&#45;&gt;Node7</title>
<path fill="none" stroke="#63b8ff" d="M270.64,-167.74C268.91,-158.68 266.47,-144.46 265.51,-132 264.35,-117.06 266.25,-100.25 268.36,-87.46"/>
<polygon fill="#63b8ff" stroke="#63b8ff" points="271.78,-88.2 270.16,-77.73 264.9,-86.93 271.78,-88.2"/>
</g>
<!-- Node8 -->
<g id="node8" class="node">
<title>Node8</title>
<g id="a_node8"><a xlink:title=" ">
<polygon fill="#e0e0e0" stroke="#999999" points="322.74,-132 274.28,-132 274.28,-112 322.74,-112 322.74,-132"/>
<text text-anchor="middle" x="298.51" y="-119" font-family="Helvetica,sans-Serif" font-size="10.00">cassert</text>
</a>
</g>
</g>
<!-- Node1&#45;&gt;Node8 -->
<g id="edge8" class="edge">
<title>Node1&#45;&gt;Node8</title>
<path fill="none" stroke="#63b8ff" d="M277.04,-167.59C280.36,-160.7 284.98,-151.1 289.09,-142.57"/>
<polygon fill="#63b8ff" stroke="#63b8ff" points="292.19,-144.19 293.38,-133.66 285.88,-141.15 292.19,-144.19"/>
</g>
<!-- Node9 -->
<g id="node9" class="node">
<title>Node9</title>
<g id="a_node9"><a xlink:title=" ">
<polygon fill="#e0e0e0" stroke="#999999" points="386.47,-132 340.55,-132 340.55,-112 386.47,-112 386.47,-132"/>
<text text-anchor="middle" x="363.51" y="-119" font-family="Helvetica,sans-Serif" font-size="10.00">cstring</text>
</a>
</g>
</g>
<!-- Node1&#45;&gt;Node9 -->
<g id="edge9" class="edge">
<title>Node1&#45;&gt;Node9</title>
<path fill="none" stroke="#63b8ff" d="M288.36,-167.59C301.98,-159.51 321.87,-147.71 337.77,-138.27"/>
<polygon fill="#63b8ff" stroke="#63b8ff" points="339.42,-141.37 346.23,-133.25 335.85,-135.35 339.42,-141.37"/>
</g>
<!-- Node10 -->
<g id="node10" class="node">
<title>Node10</title>
<g id="a_node10"><a xlink:title=" ">
<polygon fill="#e0e0e0" stroke="#999999" points="470.53,-132 404.49,-132 404.49,-112 470.53,-112 470.53,-132"/>
<text text-anchor="middle" x="437.51" y="-119" font-family="Helvetica,sans-Serif" font-size="10.00">string_view</text>
</a>
</g>
</g>
<!-- Node1&#45;&gt;Node10 -->
<g id="edge11" class="edge">
<title>Node1&#45;&gt;Node10</title>
<path fill="none" stroke="#63b8ff" d="M301.25,-167.59C327.94,-158.86 367.93,-145.77 397.69,-136.03"/>
<polygon fill="#63b8ff" stroke="#63b8ff" points="398.69,-139.39 407.11,-132.95 396.51,-132.73 398.69,-139.39"/>
</g>
<!-- Node2&#45;&gt;Node3 -->
<g id="edge2" class="edge">
<title>Node2&#45;&gt;Node3</title>
<path fill="none" stroke="#63b8ff" d="M148.7,-111.59C132.15,-103.32 107.8,-91.14 88.72,-81.6"/>
<polygon fill="#63b8ff" stroke="#63b8ff" points="90.33,-78.5 79.82,-77.16 87.2,-84.76 90.33,-78.5"/>
</g>
<!-- Node6 -->
<g id="node6" class="node">
<title>Node6</title>
<g id="a_node6"><a xlink:title=" ">
<polygon fill="#e0e0e0" stroke="#999999" points="227.47,-76 107.55,-76 107.55,-56 227.47,-56 227.47,-76"/>
<text text-anchor="middle" x="167.51" y="-63" font-family="Helvetica,sans-Serif" font-size="10.00">boost/core/typeinfo.hpp</text>
</a>
</g>
</g>
<!-- Node2&#45;&gt;Node6 -->
<g id="edge5" class="edge">
<title>Node2&#45;&gt;Node6</title>
<path fill="none" stroke="#63b8ff" d="M167.51,-111.59C167.51,-105.01 167.51,-95.96 167.51,-87.73"/>
<polygon fill="#63b8ff" stroke="#63b8ff" points="171.01,-87.81 167.51,-77.81 164.01,-87.81 171.01,-87.81"/>
</g>
<!-- Node2&#45;&gt;Node7 -->
<g id="edge6" class="edge">
<title>Node2&#45;&gt;Node7</title>
<path fill="none" stroke="#63b8ff" d="M185.8,-111.59C201.81,-103.36 225.34,-91.26 243.85,-81.74"/>
<polygon fill="#63b8ff" stroke="#63b8ff" points="245.44,-84.86 252.73,-77.17 242.24,-78.63 245.44,-84.86"/>
</g>
<!-- Node4 -->
<g id="node4" class="node">
<title>Node4</title>
<g id="a_node4"><a xlink:title=" ">
<polygon fill="#e0e0e0" stroke="#999999" points="51.03,-20 -0.01,-20 -0.01,0 51.03,0 51.03,-20"/>
<text text-anchor="middle" x="25.51" y="-7" font-family="Helvetica,sans-Serif" font-size="10.00">iomanip</text>
</a>
</g>
</g>
<!-- Node3&#45;&gt;Node4 -->
<g id="edge3" class="edge">
<title>Node3&#45;&gt;Node4</title>
<path fill="none" stroke="#63b8ff" d="M53.59,-55.59C49.15,-48.55 42.93,-38.67 37.47,-30"/>
<polygon fill="#63b8ff" stroke="#63b8ff" points="40.46,-28.18 32.17,-21.58 34.54,-31.91 40.46,-28.18"/>
</g>
<!-- Node5 -->
<g id="node5" class="node">
<title>Node5</title>
<g id="a_node5"><a xlink:title=" ">
<polygon fill="#e0e0e0" stroke="#999999" points="118.42,-20 68.6,-20 68.6,0 118.42,0 118.42,-20"/>
<text text-anchor="middle" x="93.51" y="-7" font-family="Helvetica,sans-Serif" font-size="10.00">random</text>
</a>
</g>
</g>
<!-- Node3&#45;&gt;Node5 -->
<g id="edge4" class="edge">
<title>Node3&#45;&gt;Node5</title>
<path fill="none" stroke="#63b8ff" d="M65.43,-55.59C69.87,-48.55 76.09,-38.67 81.55,-30"/>
<polygon fill="#63b8ff" stroke="#63b8ff" points="84.48,-31.91 86.85,-21.58 78.56,-28.18 84.48,-31.91"/>
</g>
</g>
</svg>
