<?xml version="1.0" encoding="UTF-8" standalone="no"?>
<!DOCTYPE svg PUBLIC "-//W3C//DTD SVG 1.1//EN"
 "http://www.w3.org/Graphics/SVG/1.1/DTD/svg11.dtd">
<!-- Generated by graphviz version 7.0.5 (20221223.1930)
 -->
<!-- Title: ee205_animal_farm&#45;aar0m/src/Legacy/ArrayDB.h Pages: 1 -->
<svg width="520pt" height="84pt"
 viewBox="0.00 0.00 520.22 84.00" xmlns="http://www.w3.org/2000/svg" xmlns:xlink="http://www.w3.org/1999/xlink">
<g id="graph0" class="graph" transform="scale(1 1) rotate(0) translate(4 80)">
<title>ee205_animal_farm&#45;aar0m/src/Legacy/ArrayDB.h</title>
<!-- Node1 -->
<g id="node1" class="node">
<title>Node1</title>
<g id="a_node1"><a xlink:title="Header file for Cat array database.">
<polygon fill="#999999" stroke="#666666" points="373.43,-76 137.23,-76 137.23,-56 373.43,-56 373.43,-76"/>
<text text-anchor="middle" x="255.33" y="-63" font-family="Helvetica,sans-Serif" font-size="10.00">ee205_animal_farm&#45;aar0m/src/Legacy/ArrayDB.h</text>
</a>
</g>
</g>
<!-- Node2 -->
<g id="node2" class="node">
<title>Node2</title>
<g id="a_node2"><a xlink:href="ArrayDB_8cpp.html" target="_top" xlink:title="All functions pertaining to Cat array database.">
<polygon fill="white" stroke="#666666" points="246.49,-20 0.17,-20 0.17,0 246.49,0 246.49,-20"/>
<text text-anchor="middle" x="123.33" y="-7" font-family="Helvetica,sans-Serif" font-size="10.00">ee205_animal_farm&#45;aar0m/src/Legacy/ArrayDB.cpp</text>
</a>
</g>
</g>
<!-- Node1&#45;&gt;Node2 -->
<g id="edge1" class="edge">
<title>Node1&#45;&gt;Node2</title>
<path fill="none" stroke="#63b8ff" d="M221.77,-51.27C198.23,-41.64 167.35,-29.01 146.5,-20.48"/>
<polygon fill="#63b8ff" stroke="#63b8ff" points="220.36,-54.47 230.94,-55.02 223.01,-48 220.36,-54.47"/>
</g>
<!-- Node3 -->
<g id="node3" class="node">
<title>Node3</title>
<g id="a_node3"><a xlink:href="epicCats_8cpp.html" target="_top" xlink:title="File for epicCats.">
<polygon fill="white" stroke="#666666" points="512.11,-20 264.55,-20 264.55,0 512.11,0 512.11,-20"/>
<text text-anchor="middle" x="388.33" y="-7" font-family="Helvetica,sans-Serif" font-size="10.00">ee205_animal_farm&#45;aar0m/src/Legacy/epicCats.cpp</text>
</a>
</g>
</g>
<!-- Node1&#45;&gt;Node3 -->
<g id="edge2" class="edge">
<title>Node1&#45;&gt;Node3</title>
<path fill="none" stroke="#63b8ff" d="M289.14,-51.27C312.87,-41.64 343.98,-29.01 364.98,-20.48"/>
<polygon fill="#63b8ff" stroke="#63b8ff" points="287.85,-48.02 279.9,-55.02 290.48,-54.51 287.85,-48.02"/>
</g>
</g>
</svg>
