<?xml version="1.0" encoding="UTF-8" standalone="no"?>
<!DOCTYPE svg PUBLIC "-//W3C//DTD SVG 1.1//EN"
 "http://www.w3.org/Graphics/SVG/1.1/DTD/svg11.dtd">
<!-- Generated by graphviz version 7.0.5 (20221223.1930)
 -->
<!-- Title: ee205_animal_farm&#45;aar0m/src/Legacy/ArrayDB.cpp Pages: 1 -->
<svg width="264pt" height="140pt"
 viewBox="0.00 0.00 264.23 140.00" xmlns="http://www.w3.org/2000/svg" xmlns:xlink="http://www.w3.org/1999/xlink">
<g id="graph0" class="graph" transform="scale(1 1) rotate(0) translate(4 136)">
<title>ee205_animal_farm&#45;aar0m/src/Legacy/ArrayDB.cpp</title>
<!-- Node1 -->
<g id="node1" class="node">
<title>Node1</title>
<g id="a_node1"><a xlink:title="All functions pertaining to Cat array database.">
<polygon fill="#999999" stroke="#666666" points="253.22,-132 6.9,-132 6.9,-112 253.22,-112 253.22,-132"/>
<text text-anchor="middle" x="130.06" y="-119" font-family="Helvetica,sans-Serif" font-size="10.00">ee205_animal_farm&#45;aar0m/src/Legacy/ArrayDB.cpp</text>
</a>
</g>
</g>
<!-- Node2 -->
<g id="node2" class="node">
<title>Node2</title>
<g id="a_node2"><a xlink:href="ArrayDB_8h.html" target="_top" xlink:title="Header file for Cat array database.">
<polygon fill="white" stroke="#666666" points="62.18,-76 -0.06,-76 -0.06,-56 62.18,-56 62.18,-76"/>
<text text-anchor="middle" x="31.06" y="-63" font-family="Helvetica,sans-Serif" font-size="10.00">ArrayDB.h</text>
</a>
</g>
</g>
<!-- Node1&#45;&gt;Node2 -->
<g id="edge1" class="edge">
<title>Node1&#45;&gt;Node2</title>
<path fill="none" stroke="#63b8ff" d="M112.82,-111.59C97.72,-103.36 75.53,-91.26 58.08,-81.74"/>
<polygon fill="#63b8ff" stroke="#63b8ff" points="60.22,-78.92 49.77,-77.2 56.87,-85.07 60.22,-78.92"/>
</g>
<!-- Node3 -->
<g id="node3" class="node">
<title>Node3</title>
<g id="a_node3"><a xlink:href="Legacy_2Cat_8h.html" target="_top" xlink:title="Header file for Cat.">
<polygon fill="white" stroke="#666666" points="119.96,-76 80.16,-76 80.16,-56 119.96,-56 119.96,-76"/>
<text text-anchor="middle" x="100.06" y="-63" font-family="Helvetica,sans-Serif" font-size="10.00">Cat.h</text>
</a>
</g>
</g>
<!-- Node1&#45;&gt;Node3 -->
<g id="edge2" class="edge">
<title>Node1&#45;&gt;Node3</title>
<path fill="none" stroke="#63b8ff" d="M124.84,-111.59C120.96,-104.63 115.55,-94.89 110.78,-86.29"/>
<polygon fill="#63b8ff" stroke="#63b8ff" points="113.88,-84.66 105.96,-77.62 107.76,-88.06 113.88,-84.66"/>
</g>
<!-- Node6 -->
<g id="node6" class="node">
<title>Node6</title>
<g id="a_node6"><a xlink:title=" ">
<polygon fill="#e0e0e0" stroke="#999999" points="184.02,-76 138.11,-76 138.11,-56 184.02,-56 184.02,-76"/>
<text text-anchor="middle" x="161.06" y="-63" font-family="Helvetica,sans-Serif" font-size="10.00">cstring</text>
</a>
</g>
</g>
<!-- Node1&#45;&gt;Node6 -->
<g id="edge5" class="edge">
<title>Node1&#45;&gt;Node6</title>
<path fill="none" stroke="#63b8ff" d="M135.46,-111.59C139.51,-104.55 145.18,-94.67 150.15,-86"/>
<polygon fill="#63b8ff" stroke="#63b8ff" points="153.03,-88.03 154.97,-77.61 146.96,-84.54 153.03,-88.03"/>
</g>
<!-- Node7 -->
<g id="node7" class="node">
<title>Node7</title>
<g id="a_node7"><a xlink:title=" ">
<polygon fill="#e0e0e0" stroke="#999999" points="256.41,-76 201.72,-76 201.72,-56 256.41,-56 256.41,-76"/>
<text text-anchor="middle" x="229.06" y="-63" font-family="Helvetica,sans-Serif" font-size="10.00">iostream</text>
</a>
</g>
</g>
<!-- Node1&#45;&gt;Node7 -->
<g id="edge6" class="edge">
<title>Node1&#45;&gt;Node7</title>
<path fill="none" stroke="#63b8ff" d="M147.31,-111.59C162.4,-103.36 184.59,-91.26 202.04,-81.74"/>
<polygon fill="#63b8ff" stroke="#63b8ff" points="203.25,-85.07 210.35,-77.2 199.9,-78.92 203.25,-85.07"/>
</g>
<!-- Node4 -->
<g id="node4" class="node">
<title>Node4</title>
<g id="a_node4"><a xlink:title=" ">
<polygon fill="#e0e0e0" stroke="#999999" points="91.3,-20 42.82,-20 42.82,0 91.3,0 91.3,-20"/>
<text text-anchor="middle" x="67.06" y="-7" font-family="Helvetica,sans-Serif" font-size="10.00">stdint.h</text>
</a>
</g>
</g>
<!-- Node3&#45;&gt;Node4 -->
<g id="edge3" class="edge">
<title>Node3&#45;&gt;Node4</title>
<path fill="none" stroke="#63b8ff" d="M94.31,-55.59C90.01,-48.55 83.97,-38.67 78.67,-30"/>
<polygon fill="#63b8ff" stroke="#63b8ff" points="81.73,-28.3 73.53,-21.59 75.76,-31.95 81.73,-28.3"/>
</g>
<!-- Node5 -->
<g id="node5" class="node">
<title>Node5</title>
<g id="a_node5"><a xlink:title=" ">
<polygon fill="#e0e0e0" stroke="#999999" points="156.75,-20 109.38,-20 109.38,0 156.75,0 156.75,-20"/>
<text text-anchor="middle" x="133.06" y="-7" font-family="Helvetica,sans-Serif" font-size="10.00">stdlib.h</text>
</a>
</g>
</g>
<!-- Node3&#45;&gt;Node5 -->
<g id="edge4" class="edge">
<title>Node3&#45;&gt;Node5</title>
<path fill="none" stroke="#63b8ff" d="M105.81,-55.59C110.12,-48.55 116.15,-38.67 121.45,-30"/>
<polygon fill="#63b8ff" stroke="#63b8ff" points="124.36,-31.95 126.59,-21.59 118.39,-28.3 124.36,-31.95"/>
</g>
</g>
</svg>
