<?xml version="1.0" encoding="UTF-8" standalone="no"?>
<!DOCTYPE svg PUBLIC "-//W3C//DTD SVG 1.1//EN"
 "http://www.w3.org/Graphics/SVG/1.1/DTD/svg11.dtd">
<!-- Generated by graphviz version 7.0.5 (20221223.1930)
 -->
<!-- Title: ee205_animal_farm&#45;aar0m/src/Legacy/Cat.h Pages: 1 -->
<svg width="763pt" height="84pt"
 viewBox="0.00 0.00 763.22 84.00" xmlns="http://www.w3.org/2000/svg" xmlns:xlink="http://www.w3.org/1999/xlink">
<g id="graph0" class="graph" transform="scale(1 1) rotate(0) translate(4 80)">
<title>ee205_animal_farm&#45;aar0m/src/Legacy/Cat.h</title>
<!-- Node1 -->
<g id="node1" class="node">
<title>Node1</title>
<g id="a_node1"><a xlink:title="Header file for Cat.">
<polygon fill="#999999" stroke="#666666" points="484.21,-76 270.45,-76 270.45,-56 484.21,-56 484.21,-76"/>
<text text-anchor="middle" x="377.33" y="-63" font-family="Helvetica,sans-Serif" font-size="10.00">ee205_animal_farm&#45;aar0m/src/Legacy/Cat.h</text>
</a>
</g>
</g>
<!-- Node2 -->
<g id="node2" class="node">
<title>Node2</title>
<g id="a_node2"><a xlink:href="ArrayDB_8cpp.html" target="_top" xlink:title="All functions pertaining to Cat array database.">
<polygon fill="white" stroke="#666666" points="246.49,-20 0.17,-20 0.17,0 246.49,0 246.49,-20"/>
<text text-anchor="middle" x="123.33" y="-7" font-family="Helvetica,sans-Serif" font-size="10.00">ee205_animal_farm&#45;aar0m/src/Legacy/ArrayDB.cpp</text>
</a>
</g>
</g>
<!-- Node1&#45;&gt;Node2 -->
<g id="edge1" class="edge">
<title>Node1&#45;&gt;Node2</title>
<path fill="none" stroke="#63b8ff" d="M321.77,-53.19C275.56,-43.36 210.64,-29.56 167.81,-20.46"/>
<polygon fill="#63b8ff" stroke="#63b8ff" points="320.81,-56.56 331.32,-55.22 322.26,-49.71 320.81,-56.56"/>
</g>
<!-- Node3 -->
<g id="node3" class="node">
<title>Node3</title>
<g id="a_node3"><a xlink:href="Cat_8cpp.html" target="_top" xlink:title="Functions for validating, generating, and printing structures for Cats.">
<polygon fill="white" stroke="#666666" points="489.77,-20 264.89,-20 264.89,0 489.77,0 489.77,-20"/>
<text text-anchor="middle" x="377.33" y="-7" font-family="Helvetica,sans-Serif" font-size="10.00">ee205_animal_farm&#45;aar0m/src/Legacy/Cat.cpp</text>
</a>
</g>
</g>
<!-- Node1&#45;&gt;Node3 -->
<g id="edge2" class="edge">
<title>Node1&#45;&gt;Node3</title>
<path fill="none" stroke="#63b8ff" d="M377.33,-44.13C377.33,-35.9 377.33,-26.85 377.33,-20.3"/>
<polygon fill="#63b8ff" stroke="#63b8ff" points="373.83,-44.08 377.33,-54.08 380.83,-44.08 373.83,-44.08"/>
</g>
<!-- Node4 -->
<g id="node4" class="node">
<title>Node4</title>
<g id="a_node4"><a xlink:href="epicCats_8cpp.html" target="_top" xlink:title="File for epicCats.">
<polygon fill="white" stroke="#666666" points="755.11,-20 507.55,-20 507.55,0 755.11,0 755.11,-20"/>
<text text-anchor="middle" x="631.33" y="-7" font-family="Helvetica,sans-Serif" font-size="10.00">ee205_animal_farm&#45;aar0m/src/Legacy/epicCats.cpp</text>
</a>
</g>
</g>
<!-- Node1&#45;&gt;Node4 -->
<g id="edge3" class="edge">
<title>Node1&#45;&gt;Node4</title>
<path fill="none" stroke="#63b8ff" d="M432.89,-53.19C479.1,-43.36 544.01,-29.56 586.85,-20.46"/>
<polygon fill="#63b8ff" stroke="#63b8ff" points="432.4,-49.71 423.34,-55.22 433.85,-56.56 432.4,-49.71"/>
</g>
</g>
</svg>
