<?xml version="1.0" encoding="UTF-8" standalone="no"?>
<!DOCTYPE svg PUBLIC "-//W3C//DTD SVG 1.1//EN"
 "http://www.w3.org/Graphics/SVG/1.1/DTD/svg11.dtd">
<!-- Generated by graphviz version 7.0.5 (20221223.1930)
 -->
<!-- Title: ee205_animal_farm&#45;aar0m/src/Legacy/Cat.h Pages: 1 -->
<svg width="222pt" height="84pt"
 viewBox="0.00 0.00 221.88 84.00" xmlns="http://www.w3.org/2000/svg" xmlns:xlink="http://www.w3.org/1999/xlink">
<g id="graph0" class="graph" transform="scale(1 1) rotate(0) translate(4 80)">
<title>ee205_animal_farm&#45;aar0m/src/Legacy/Cat.h</title>
<!-- Node1 -->
<g id="node1" class="node">
<title>Node1</title>
<g id="a_node1"><a xlink:title="Header file for Cat.">
<polygon fill="#999999" stroke="#666666" points="213.81,-76 0.06,-76 0.06,-56 213.81,-56 213.81,-76"/>
<text text-anchor="middle" x="106.94" y="-63" font-family="Helvetica,sans-Serif" font-size="10.00">ee205_animal_farm&#45;aar0m/src/Legacy/Cat.h</text>
</a>
</g>
</g>
<!-- Node2 -->
<g id="node2" class="node">
<title>Node2</title>
<g id="a_node2"><a xlink:title=" ">
<polygon fill="#e0e0e0" stroke="#999999" points="98.18,-20 49.7,-20 49.7,0 98.18,0 98.18,-20"/>
<text text-anchor="middle" x="73.94" y="-7" font-family="Helvetica,sans-Serif" font-size="10.00">stdint.h</text>
</a>
</g>
</g>
<!-- Node1&#45;&gt;Node2 -->
<g id="edge1" class="edge">
<title>Node1&#45;&gt;Node2</title>
<path fill="none" stroke="#63b8ff" d="M101.19,-55.59C96.88,-48.55 90.85,-38.67 85.55,-30"/>
<polygon fill="#63b8ff" stroke="#63b8ff" points="88.61,-28.3 80.41,-21.59 82.64,-31.95 88.61,-28.3"/>
</g>
<!-- Node3 -->
<g id="node3" class="node">
<title>Node3</title>
<g id="a_node3"><a xlink:title=" ">
<polygon fill="#e0e0e0" stroke="#999999" points="163.62,-20 116.25,-20 116.25,0 163.62,0 163.62,-20"/>
<text text-anchor="middle" x="139.94" y="-7" font-family="Helvetica,sans-Serif" font-size="10.00">stdlib.h</text>
</a>
</g>
</g>
<!-- Node1&#45;&gt;Node3 -->
<g id="edge2" class="edge">
<title>Node1&#45;&gt;Node3</title>
<path fill="none" stroke="#63b8ff" d="M112.69,-55.59C116.99,-48.55 123.03,-38.67 128.33,-30"/>
<polygon fill="#63b8ff" stroke="#63b8ff" points="131.24,-31.95 133.47,-21.59 125.27,-28.3 131.24,-31.95"/>
</g>
</g>
</svg>
