<?xml version="1.0" encoding="UTF-8" standalone="no"?>
<!DOCTYPE svg PUBLIC "-//W3C//DTD SVG 1.1//EN"
 "http://www.w3.org/Graphics/SVG/1.1/DTD/svg11.dtd">
<!-- Generated by graphviz version 7.0.5 (20221223.1930)
 -->
<!-- Title: Node Pages: 1 -->
<svg width="254pt" height="141pt"
 viewBox="0.00 0.00 254.07 141.00" xmlns="http://www.w3.org/2000/svg" xmlns:xlink="http://www.w3.org/1999/xlink">
<g id="graph0" class="graph" transform="scale(1 1) rotate(0) translate(4 137)">
<title>Node</title>
<!-- Node1 -->
<g id="node1" class="node">
<title>Node1</title>
<g id="a_node1"><a xlink:title="Do no new nodes know known nodes!?">
<polygon fill="#999999" stroke="#666666" points="0,-0.5 0,-132.5 203.06,-132.5 203.06,-0.5 0,-0.5"/>
<text text-anchor="middle" x="101.53" y="-119.5" font-family="Helvetica,sans-Serif" font-size="10.00">Node</text>
<polyline fill="none" stroke="#666666" points="0,-112.5 203.06,-112.5"/>
<text text-anchor="middle" x="101.53" y="-99.5" font-family="Helvetica,sans-Serif" font-size="10.00"> </text>
<polyline fill="none" stroke="#666666" points="0,-92.5 203.06,-92.5"/>
<text text-anchor="start" x="8" y="-79.5" font-family="Helvetica,sans-Serif" font-size="10.00">+ Node()=default</text>
<text text-anchor="start" x="8" y="-67.5" font-family="Helvetica,sans-Serif" font-size="10.00">+ virtual ~Node()</text>
<text text-anchor="start" x="8" y="-55.5" font-family="Helvetica,sans-Serif" font-size="10.00">+ virtual void reset()</text>
<text text-anchor="start" x="8" y="-43.5" font-family="Helvetica,sans-Serif" font-size="10.00">+ virtual void dump() const noexcept</text>
<text text-anchor="start" x="8" y="-31.5" font-family="Helvetica,sans-Serif" font-size="10.00">+ virtual bool validate() const</text>
<text text-anchor="start" x="8" y="-19.5" font-family="Helvetica,sans-Serif" font-size="10.00">+ virtual void info() const noexcept</text>
<text text-anchor="start" x="8" y="-7.5" font-family="Helvetica,sans-Serif" font-size="10.00">+ bool isLessThan(const Node *rhs_node)</text>
</a>
</g>
</g>
<!-- Node1&#45;&gt;Node1 -->
<g id="edge1" class="edge">
<title>Node1&#45;&gt;Node1</title>
<path fill="none" stroke="#404040" d="M202.68,-87.48C213.85,-83.49 221.06,-76.5 221.06,-66.5 221.06,-60.41 218.38,-55.43 213.76,-51.57"/>
<polygon fill="none" stroke="#404040" points="214.01,-51.7 206.82,-52.34 203.47,-45.95 210.66,-45.32 214.01,-51.7"/>
<text text-anchor="middle" x="233.56" y="-75.5" font-family="Helvetica,sans-Serif" font-size="10.00"> #left</text>
<text text-anchor="middle" x="233.56" y="-63.5" font-family="Helvetica,sans-Serif" font-size="10.00">#next</text>
<text text-anchor="middle" x="233.56" y="-51.5" font-family="Helvetica,sans-Serif" font-size="10.00">#right</text>
</g>
</g>
</svg>
