<?xml version="1.0" encoding="UTF-8" standalone="no"?>
<!DOCTYPE svg PUBLIC "-//W3C//DTD SVG 1.1//EN"
 "http://www.w3.org/Graphics/SVG/1.1/DTD/svg11.dtd">
<!-- Generated by graphviz version 7.0.5 (20221223.1930)
 -->
<!-- Title: Name::getNextName Pages: 1 -->
<svg width="611pt" height="256pt"
 viewBox="0.00 0.00 610.72 256.00" xmlns="http://www.w3.org/2000/svg" xmlns:xlink="http://www.w3.org/1999/xlink">
<g id="graph0" class="graph" transform="scale(1 1) rotate(0) translate(4 252)">
<title>Name::getNextName</title>
<!-- Node1 -->
<g id="node1" class="node">
<title>Node1</title>
<g id="a_node1"><a xlink:title="Get the next name.">
<polygon fill="#999999" stroke="#666666" points="109.55,-153 -0.19,-153 -0.19,-133 109.55,-133 109.55,-153"/>
<text text-anchor="middle" x="54.68" y="-140" font-family="Helvetica,sans-Serif" font-size="10.00">Name::getNextName</text>
</a>
</g>
</g>
<!-- Node2 -->
<g id="node2" class="node">
<title>Node2</title>
<g id="a_node2"><a xlink:href="className.html#a27aa1b326d6f3bc1e040f645f87a6c4a" target="_top" xlink:title="Erase and then re&#45;load the names database or set the serial number to 0.">
<polygon fill="white" stroke="#666666" points="216.07,-153 145.14,-153 145.14,-133 216.07,-133 216.07,-153"/>
<text text-anchor="middle" x="180.6" y="-140" font-family="Helvetica,sans-Serif" font-size="10.00">Name::reset</text>
</a>
</g>
</g>
<!-- Node1&#45;&gt;Node2 -->
<g id="edge1" class="edge">
<title>Node1&#45;&gt;Node2</title>
<path fill="none" stroke="#63b8ff" d="M110.04,-143C117.9,-143 125.92,-143 133.6,-143"/>
<polygon fill="#63b8ff" stroke="#63b8ff" points="133.39,-146.5 143.39,-143 133.39,-139.5 133.39,-146.5"/>
</g>
<!-- Node3 -->
<g id="node3" class="node">
<title>Node3</title>
<g id="a_node3"><a xlink:href="Trim_8cpp.html#a4279db14ccdb56c5983718defd20af7b" target="_top" xlink:title="This function does the following:">
<polygon fill="white" stroke="#666666" points="322.68,-210 290.36,-210 290.36,-190 322.68,-190 322.68,-210"/>
<text text-anchor="middle" x="306.52" y="-197" font-family="Helvetica,sans-Serif" font-size="10.00">trim</text>
</a>
</g>
</g>
<!-- Node2&#45;&gt;Node3 -->
<g id="edge2" class="edge">
<title>Node2&#45;&gt;Node3</title>
<path fill="none" stroke="#63b8ff" d="M204.33,-153.45C225.61,-163.24 257.37,-177.85 279.62,-188.09"/>
<polygon fill="#63b8ff" stroke="#63b8ff" points="278.07,-191.22 288.61,-192.22 280.99,-184.87 278.07,-191.22"/>
</g>
<!-- Node6 -->
<g id="node6" class="node">
<title>Node6</title>
<g id="a_node6"><a xlink:href="className.html#adf2e3789f330180d37ad880f17e004cc" target="_top" xlink:title="Check if newName is valid.">
<polygon fill="white" stroke="#666666" points="361.39,-115 251.64,-115 251.64,-95 361.39,-95 361.39,-115"/>
<text text-anchor="middle" x="306.52" y="-102" font-family="Helvetica,sans-Serif" font-size="10.00">Name::validateName</text>
</a>
</g>
</g>
<!-- Node2&#45;&gt;Node6 -->
<g id="edge5" class="edge">
<title>Node2&#45;&gt;Node6</title>
<path fill="none" stroke="#63b8ff" d="M215.79,-132.52C229.6,-128.28 245.74,-123.33 260.49,-118.81"/>
<polygon fill="#63b8ff" stroke="#63b8ff" points="261.46,-122.17 269.99,-115.89 259.41,-115.48 261.46,-122.17"/>
</g>
<!-- Node4 -->
<g id="node4" class="node">
<title>Node4</title>
<g id="a_node4"><a xlink:href="Trim_8cpp.html#a398351d9936e6de09064add80fa3cc4e" target="_top" xlink:title="Classify a character into a CharClass.">
<polygon fill="white" stroke="#666666" points="535.42,-248 464.5,-248 464.5,-228 535.42,-228 535.42,-248"/>
<text text-anchor="middle" x="499.96" y="-235" font-family="Helvetica,sans-Serif" font-size="10.00">classifyChar</text>
</a>
</g>
</g>
<!-- Node3&#45;&gt;Node4 -->
<g id="edge3" class="edge">
<title>Node3&#45;&gt;Node4</title>
<path fill="none" stroke="#63b8ff" d="M323.05,-203.41C340.91,-207.3 371.14,-213.81 397.21,-219 415.42,-222.63 435.52,-226.43 453,-229.66"/>
<polygon fill="#63b8ff" stroke="#63b8ff" points="452.11,-233.06 462.58,-231.43 453.38,-226.17 452.11,-233.06"/>
</g>
<!-- Node5 -->
<g id="node5" class="node">
<title>Node5</title>
<g id="a_node5"><a xlink:href="Trim_8cpp.html#a1def1a684f40ed2028c47b59da0c86f3" target="_top" xlink:title="Shift characters in a string to the left.">
<polygon fill="white" stroke="#666666" points="526.7,-210 473.22,-210 473.22,-190 526.7,-190 526.7,-210"/>
<text text-anchor="middle" x="499.96" y="-197" font-family="Helvetica,sans-Serif" font-size="10.00">shift_left</text>
</a>
</g>
</g>
<!-- Node3&#45;&gt;Node5 -->
<g id="edge4" class="edge">
<title>Node3&#45;&gt;Node5</title>
<path fill="none" stroke="#63b8ff" d="M322.86,-200C352.64,-200 419.06,-200 461.28,-200"/>
<polygon fill="#63b8ff" stroke="#63b8ff" points="461.24,-203.5 471.24,-200 461.24,-196.5 461.24,-203.5"/>
</g>
<!-- Node7 -->
<g id="node7" class="node">
<title>Node7</title>
<g id="a_node7"><a xlink:href="className.html#a528a6452c92fdd26082cd1f1ba96f0ee" target="_top" xlink:title="Return true if newName&#39;s interior whitespace is trimmed.">
<polygon fill="white" stroke="#666666" points="602.47,-172 397.45,-172 397.45,-152 602.47,-152 602.47,-172"/>
<text text-anchor="middle" x="499.96" y="-159" font-family="Helvetica,sans-Serif" font-size="10.00">Name::validateInteriorWhitespaceTrimmed</text>
</a>
</g>
</g>
<!-- Node6&#45;&gt;Node7 -->
<g id="edge6" class="edge">
<title>Node6&#45;&gt;Node7</title>
<path fill="none" stroke="#63b8ff" d="M328.42,-115.39C346.3,-123.89 372.92,-135.68 397.21,-143 404.63,-145.24 412.45,-147.26 420.31,-149.08"/>
<polygon fill="#63b8ff" stroke="#63b8ff" points="419.42,-152.47 429.94,-151.19 420.92,-145.63 419.42,-152.47"/>
</g>
<!-- Node8 -->
<g id="node8" class="node">
<title>Node8</title>
<g id="a_node8"><a xlink:href="className.html#a48ffe2521a489104cee5718de979a57a" target="_top" xlink:title="Return true if newName only contains A &#45; Z, a &#45; z, 0&#45;9, space and &#45;">
<polygon fill="white" stroke="#666666" points="577.42,-134 422.51,-134 422.51,-114 577.42,-114 577.42,-134"/>
<text text-anchor="middle" x="499.96" y="-121" font-family="Helvetica,sans-Serif" font-size="10.00">Name::validateNoSpecialChars</text>
</a>
</g>
</g>
<!-- Node6&#45;&gt;Node8 -->
<g id="edge7" class="edge">
<title>Node6&#45;&gt;Node8</title>
<path fill="none" stroke="#63b8ff" d="M361.87,-110.39C377.28,-111.92 394.47,-113.63 411.32,-115.3"/>
<polygon fill="#63b8ff" stroke="#63b8ff" points="410.52,-118.74 420.82,-116.24 411.22,-111.77 410.52,-118.74"/>
</g>
<!-- Node9 -->
<g id="node9" class="node">
<title>Node9</title>
<g id="a_node9"><a xlink:href="className.html#a0af5e33bf02472905a9e9d0b9f9510cf" target="_top" xlink:title="Return true if newName is not empty.">
<polygon fill="white" stroke="#666666" points="563.06,-96 436.86,-96 436.86,-76 563.06,-76 563.06,-96"/>
<text text-anchor="middle" x="499.96" y="-83" font-family="Helvetica,sans-Serif" font-size="10.00">Name::validateNotEmpty</text>
</a>
</g>
</g>
<!-- Node6&#45;&gt;Node9 -->
<g id="edge8" class="edge">
<title>Node6&#45;&gt;Node9</title>
<path fill="none" stroke="#63b8ff" d="M361.87,-99.61C381.54,-97.65 404.11,-95.41 425.18,-93.32"/>
<polygon fill="#63b8ff" stroke="#63b8ff" points="425.26,-96.83 434.86,-92.36 424.56,-89.87 425.26,-96.83"/>
</g>
<!-- Node10 -->
<g id="node10" class="node">
<title>Node10</title>
<g id="a_node10"><a xlink:href="className.html#a024eecc170d4ba3e3fb4f05b35078478" target="_top" xlink:title="Return true if newName starts with an alphabetic character (A &#45; Z or a &#45; z)">
<polygon fill="white" stroke="#666666" points="577.36,-58 422.57,-58 422.57,-38 577.36,-38 577.36,-58"/>
<text text-anchor="middle" x="499.96" y="-45" font-family="Helvetica,sans-Serif" font-size="10.00">Name::validateStartsWithAlpha</text>
</a>
</g>
</g>
<!-- Node6&#45;&gt;Node10 -->
<g id="edge9" class="edge">
<title>Node6&#45;&gt;Node10</title>
<path fill="none" stroke="#63b8ff" d="M328.42,-94.61C346.3,-86.11 372.92,-74.32 397.21,-67 404.63,-64.76 412.45,-62.74 420.31,-60.92"/>
<polygon fill="#63b8ff" stroke="#63b8ff" points="420.92,-64.37 429.94,-58.81 419.42,-57.53 420.92,-64.37"/>
</g>
<!-- Node11 -->
<g id="node11" class="node">
<title>Node11</title>
<g id="a_node11"><a xlink:href="className.html#a8004ce0cca7df10725e0e34cd541f274" target="_top" xlink:title="Return true if newName is left and right trimmed for whitespace.">
<polygon fill="white" stroke="#666666" points="561.1,-20 438.82,-20 438.82,0 561.1,0 561.1,-20"/>
<text text-anchor="middle" x="499.96" y="-7" font-family="Helvetica,sans-Serif" font-size="10.00">Name::validateTrimmed</text>
</a>
</g>
</g>
<!-- Node6&#45;&gt;Node11 -->
<g id="edge10" class="edge">
<title>Node6&#45;&gt;Node11</title>
<path fill="none" stroke="#63b8ff" d="M316.28,-94.72C331.11,-78.03 362.92,-45.3 397.21,-29 406.56,-24.55 416.87,-21.14 427.21,-18.53"/>
<polygon fill="#63b8ff" stroke="#63b8ff" points="427.96,-21.95 436.94,-16.33 426.42,-15.12 427.96,-21.95"/>
</g>
</g>
</svg>
