<?xml version="1.0" encoding="UTF-8" standalone="no"?>
<!DOCTYPE svg PUBLIC "-//W3C//DTD SVG 1.1//EN"
 "http://www.w3.org/Graphics/SVG/1.1/DTD/svg11.dtd">
<!-- Generated by graphviz version 7.0.5 (20221223.1930)
 -->
<!-- Title: Node::compare Pages: 1 -->
<svg width="446pt" height="142pt"
 viewBox="0.00 0.00 445.96 142.00" xmlns="http://www.w3.org/2000/svg" xmlns:xlink="http://www.w3.org/1999/xlink">
<g id="graph0" class="graph" transform="scale(1 1) rotate(0) translate(4 138)">
<title>Node::compare</title>
<!-- Node1 -->
<g id="node1" class="node">
<title>Node1</title>
<g id="a_node1"><a xlink:title="Compares Node based on address value: numerically compares addresses.">
<polygon fill="#999999" stroke="#666666" points="438.14,-77 353.4,-77 353.4,-57 438.14,-57 438.14,-77"/>
<text text-anchor="middle" x="395.77" y="-64" font-family="Helvetica,sans-Serif" font-size="10.00">Node::compare</text>
</a>
</g>
</g>
<!-- Node2 -->
<g id="node2" class="node">
<title>Node2</title>
<g id="a_node2"><a xlink:href="classAnimal.html#a95a1b1fdee210b87d8af2b1d8da3591e" target="_top" xlink:title="Compares Animals based on name, weight, color.">
<polygon fill="white" stroke="#666666" points="277.85,-134 186.79,-134 186.79,-114 277.85,-114 277.85,-134"/>
<text text-anchor="middle" x="232.32" y="-121" font-family="Helvetica,sans-Serif" font-size="10.00">Animal::compare</text>
</a>
</g>
</g>
<!-- Node1&#45;&gt;Node2 -->
<g id="edge1" class="edge">
<title>Node1&#45;&gt;Node2</title>
<path fill="none" stroke="#63b8ff" d="M366.84,-82.74C352.47,-90.32 334.48,-99.03 317.59,-105 305,-109.45 290.99,-113.1 278.05,-115.97"/>
<polygon fill="#63b8ff" stroke="#63b8ff" points="368.12,-86.03 375.26,-78.2 364.8,-79.87 368.12,-86.03"/>
</g>
<!-- Node4 -->
<g id="node4" class="node">
<title>Node4</title>
<g id="a_node4"><a xlink:href="classSingleLinkedList.html#a0574ca35fa19ffd4073671b5ad1d505c" target="_top" xlink:title="Returns largest Node in SLL.">
<polygon fill="white" stroke="#666666" points="314.87,-96 149.78,-96 149.78,-76 314.87,-76 314.87,-96"/>
<text text-anchor="middle" x="232.32" y="-83" font-family="Helvetica,sans-Serif" font-size="10.00">SingleLinkedList::getLargestNode</text>
</a>
</g>
</g>
<!-- Node1&#45;&gt;Node4 -->
<g id="edge3" class="edge">
<title>Node1&#45;&gt;Node4</title>
<path fill="none" stroke="#63b8ff" d="M341.87,-73.23C333.31,-74.23 324.28,-75.3 315.23,-76.36"/>
<polygon fill="#63b8ff" stroke="#63b8ff" points="342.17,-76.71 351.69,-72.07 341.35,-69.76 342.17,-76.71"/>
</g>
<!-- Node6 -->
<g id="node6" class="node">
<title>Node6</title>
<g id="a_node6"><a xlink:href="classSingleLinkedList.html#a943d365899a8f6ada65f95ba188cec5f" target="_top" xlink:title="Returns smallest Node in SLL.">
<polygon fill="white" stroke="#666666" points="317.36,-58 147.29,-58 147.29,-38 317.36,-38 317.36,-58"/>
<text text-anchor="middle" x="232.32" y="-45" font-family="Helvetica,sans-Serif" font-size="10.00">SingleLinkedList::getSmallestNode</text>
</a>
</g>
</g>
<!-- Node1&#45;&gt;Node6 -->
<g id="edge5" class="edge">
<title>Node1&#45;&gt;Node6</title>
<path fill="none" stroke="#63b8ff" d="M341.8,-60.77C334.06,-59.85 325.93,-58.9 317.76,-57.94"/>
<polygon fill="#63b8ff" stroke="#63b8ff" points="341.35,-64.24 351.69,-61.93 342.17,-57.29 341.35,-64.24"/>
</g>
<!-- Node7 -->
<g id="node7" class="node">
<title>Node7</title>
<g id="a_node7"><a xlink:href="classSingleLinkedList.html#aa87b3ac7c24c27effa6f24b850ea52d6" target="_top" xlink:title="Checks if an SLL is sorted from least to greatest.">
<polygon fill="white" stroke="#666666" points="297.89,-20 166.75,-20 166.75,0 297.89,0 297.89,-20"/>
<text text-anchor="middle" x="232.32" y="-7" font-family="Helvetica,sans-Serif" font-size="10.00">SingleLinkedList::isSorted</text>
</a>
</g>
</g>
<!-- Node1&#45;&gt;Node7 -->
<g id="edge6" class="edge">
<title>Node1&#45;&gt;Node7</title>
<path fill="none" stroke="#63b8ff" d="M366.84,-51.26C352.47,-43.68 334.48,-34.97 317.59,-29 308.26,-25.7 298.14,-22.84 288.25,-20.41"/>
<polygon fill="#63b8ff" stroke="#63b8ff" points="364.8,-54.13 375.26,-55.8 368.12,-47.97 364.8,-54.13"/>
</g>
<!-- Node3 -->
<g id="node3" class="node">
<title>Node3</title>
<g id="a_node3"><a xlink:href="classMammal.html#ac67515f2d2e49ec737c4aaa385bcd99f" target="_top" xlink:title="Compares Mammals based on color: ASCII values of the strings are compared.">
<polygon fill="white" stroke="#666666" points="104.82,-134 6.23,-134 6.23,-114 104.82,-114 104.82,-134"/>
<text text-anchor="middle" x="55.53" y="-121" font-family="Helvetica,sans-Serif" font-size="10.00">Mammal::compare</text>
</a>
</g>
</g>
<!-- Node2&#45;&gt;Node3 -->
<g id="edge2" class="edge">
<title>Node2&#45;&gt;Node3</title>
<path fill="none" stroke="#63b8ff" d="M174.86,-124C152.36,-124 126.72,-124 105.07,-124"/>
<polygon fill="#63b8ff" stroke="#63b8ff" points="174.79,-127.5 184.79,-124 174.79,-120.5 174.79,-127.5"/>
</g>
<!-- Node5 -->
<g id="node5" class="node">
<title>Node5</title>
<g id="a_node5"><a xlink:href="classSingleLinkedList.html#af7e0bb2dfe82ddcb6e8ff9291807e66b" target="_top" xlink:title="Sorts an SLL via selection sort.">
<polygon fill="white" stroke="#666666" points="111.08,-58 -0.03,-58 -0.03,-38 111.08,-38 111.08,-58"/>
<text text-anchor="middle" x="55.53" y="-45" font-family="Helvetica,sans-Serif" font-size="10.00">SingleLinkedList::sort</text>
</a>
</g>
</g>
<!-- Node4&#45;&gt;Node5 -->
<g id="edge4" class="edge">
<title>Node4&#45;&gt;Node5</title>
<path fill="none" stroke="#63b8ff" d="M171.9,-73.08C149.96,-68.31 125.4,-62.97 104.6,-58.45"/>
<polygon fill="#63b8ff" stroke="#63b8ff" points="171.1,-76.49 181.62,-75.19 172.59,-69.65 171.1,-76.49"/>
</g>
<!-- Node7&#45;&gt;Node5 -->
<g id="edge7" class="edge">
<title>Node7&#45;&gt;Node5</title>
<path fill="none" stroke="#63b8ff" d="M171.9,-22.92C149.96,-27.69 125.4,-33.03 104.6,-37.55"/>
<polygon fill="#63b8ff" stroke="#63b8ff" points="172.59,-26.35 181.62,-20.81 171.1,-19.51 172.59,-26.35"/>
</g>
</g>
</svg>
