<?xml version="1.0" encoding="UTF-8" standalone="no"?>
<!DOCTYPE svg PUBLIC "-//W3C//DTD SVG 1.1//EN"
 "http://www.w3.org/Graphics/SVG/1.1/DTD/svg11.dtd">
<!-- Generated by graphviz version 7.0.5 (20221223.1930)
 -->
<!-- Title: Mammal::compare Pages: 1 -->
<svg width="354pt" height="28pt"
 viewBox="0.00 0.00 354.20 28.00" xmlns="http://www.w3.org/2000/svg" xmlns:xlink="http://www.w3.org/1999/xlink">
<g id="graph0" class="graph" transform="scale(1 1) rotate(0) translate(4 24)">
<title>Mammal::compare</title>
<!-- Node1 -->
<g id="node1" class="node">
<title>Node1</title>
<g id="a_node1"><a xlink:title="Compares Mammals based on color: ASCII values of the strings are compared.">
<polygon fill="#999999" stroke="#666666" points="98.7,-20 0.1,-20 0.1,0 98.7,0 98.7,-20"/>
<text text-anchor="middle" x="49.4" y="-7" font-family="Helvetica,sans-Serif" font-size="10.00">Mammal::compare</text>
</a>
</g>
</g>
<!-- Node2 -->
<g id="node2" class="node">
<title>Node2</title>
<g id="a_node2"><a xlink:href="classAnimal.html#a95a1b1fdee210b87d8af2b1d8da3591e" target="_top" xlink:title="Compares Animals based on name, weight, color.">
<polygon fill="white" stroke="#666666" points="225.84,-20 134.78,-20 134.78,0 225.84,0 225.84,-20"/>
<text text-anchor="middle" x="180.31" y="-7" font-family="Helvetica,sans-Serif" font-size="10.00">Animal::compare</text>
</a>
</g>
</g>
<!-- Node1&#45;&gt;Node2 -->
<g id="edge1" class="edge">
<title>Node1&#45;&gt;Node2</title>
<path fill="none" stroke="#63b8ff" d="M99.14,-10C106.9,-10 114.98,-10 122.9,-10"/>
<polygon fill="#63b8ff" stroke="#63b8ff" points="122.82,-13.5 132.82,-10 122.82,-6.5 122.82,-13.5"/>
</g>
<!-- Node3 -->
<g id="node3" class="node">
<title>Node3</title>
<g id="a_node3"><a xlink:href="classNode.html#a9b78207ed76a32e15e9cc630615f5836" target="_top" xlink:title="Compares Node based on address value: numerically compares addresses.">
<polygon fill="white" stroke="#666666" points="346.38,-20 261.64,-20 261.64,0 346.38,0 346.38,-20"/>
<text text-anchor="middle" x="304.01" y="-7" font-family="Helvetica,sans-Serif" font-size="10.00">Node::compare</text>
</a>
</g>
</g>
<!-- Node2&#45;&gt;Node3 -->
<g id="edge2" class="edge">
<title>Node2&#45;&gt;Node3</title>
<path fill="none" stroke="#63b8ff" d="M226.28,-10C234.02,-10 242.12,-10 250.04,-10"/>
<polygon fill="#63b8ff" stroke="#63b8ff" points="249.94,-13.5 259.94,-10 249.94,-6.5 249.94,-13.5"/>
</g>
</g>
</svg>
