<?xml version="1.0" encoding="UTF-8" standalone="no"?>
<!DOCTYPE svg PUBLIC "-//W3C//DTD SVG 1.1//EN"
 "http://www.w3.org/Graphics/SVG/1.1/DTD/svg11.dtd">
<!-- Generated by graphviz version 7.0.5 (20221223.1930)
 -->
<!-- Title: Name::validateName Pages: 1 -->
<!--zoomable 104 -->
<svg id="main" version="1.1" xmlns="http://www.w3.org/2000/svg" xmlns:xlink="http://www.w3.org/1999/xlink" xml:space="preserve" onload="init(evt)">
<style type="text/css"><![CDATA[
.edge:hover path { stroke: red; }
.edge:hover polygon { stroke: red; fill: red; }
]]></style>
<script type="text/javascript"><![CDATA[
var edges = document.getElementsByTagName('g');
if (edges && edges.length) {
  for (var i=0;i<edges.length;i++) {
    if (edges[i].id.substr(0,4)=='edge') {
      edges[i].setAttribute('class','edge');
    }
  }
}
]]></script>
        <defs>
                <circle id="rim" cx="0" cy="0" r="7"/>
                <circle id="rim2" cx="0" cy="0" r="3.5"/>
                <g id="zoomPlus">
                        <use xlink:href="#rim" fill="#404040">
                                <set attributeName="fill" to="#808080" begin="zoomplus.mouseover" end="zoomplus.mouseout"/>
                        </use>
                        <path d="M-4,0h8M0,-4v8" fill="none" stroke="white" stroke-width="1.5" pointer-events="none"/>
                </g>
                <g id="zoomMin">
                        <use xlink:href="#rim" fill="#404040">
                                <set attributeName="fill" to="#808080" begin="zoomminus.mouseover" end="zoomminus.mouseout"/>
                        </use>
                        <path d="M-4,0h8" fill="none" stroke="white" stroke-width="1.5" pointer-events="none"/>
                </g>
                <g id="dirArrow">
                        <path fill="none" stroke="white" stroke-width="1.5" d="M0,-3.0v7 M-2.5,-0.5L0,-3.0L2.5,-0.5"/>
                </g>
               <g id="resetDef">
                       <use xlink:href="#rim2" fill="#404040">
                               <set attributeName="fill" to="#808080" begin="reset.mouseover" end="reset.mouseout"/>
                       </use>
               </g>
        </defs>

<script type="text/javascript">
var viewWidth = 546;
var viewHeight = 104;
var sectionId = 'dynsection-7';
</script>
<script xlink:href="svgpan.js"/>
<svg id="graph" class="graph">
<g id="viewport">
<title>Name::validateName</title>
<!-- Node1 -->
<g id="node1" class="node">
<title>Node1</title>
<g id="a_node1"><a xlink:title="Check if newName is valid.">
<polygon fill="#999999" stroke="#666666" points="538.45,-58 428.7,-58 428.7,-38 538.45,-38 538.45,-58"/>
<text text-anchor="middle" x="483.58" y="-45" font-family="Helvetica,sans-Serif" font-size="10.00">Name::validateName</text>
</a>
</g>
</g>
<!-- Node2 -->
<g id="node2" class="node">
<title>Node2</title>
<g id="a_node2"><a xlink:href="className.html#a27aa1b326d6f3bc1e040f645f87a6c4a" target="_top" xlink:title="Erase and then re&#45;load the names database or set the serial number to 0.">
<polygon fill="white" stroke="#666666" points="389.79,-96 318.86,-96 318.86,-76 389.79,-76 389.79,-96"/>
<text text-anchor="middle" x="354.32" y="-83" font-family="Helvetica,sans-Serif" font-size="10.00">Name::reset</text>
</a>
</g>
</g>
<!-- Node1&#45;&gt;Node2 -->
<g id="edge1" class="edge">
<title>Node1&#45;&gt;Node2</title>
<path fill="none" stroke="#63b8ff" d="M436.57,-61.74C421.16,-66.34 404.26,-71.39 389.88,-75.68"/>
<polygon fill="#63b8ff" stroke="#63b8ff" points="437.44,-65.13 446.02,-58.92 435.43,-58.43 437.44,-65.13"/>
</g>
<!-- Node5 -->
<g id="node5" class="node">
<title>Node5</title>
<g id="a_node5"><a xlink:href="classCat.html#af4a79f34cbaf6a5059a1d0863f8072bb" target="_top" xlink:title="Set the Cat name.">
<polygon fill="white" stroke="#666666" points="392.96,-58 315.69,-58 315.69,-38 392.96,-38 392.96,-58"/>
<text text-anchor="middle" x="354.32" y="-45" font-family="Helvetica,sans-Serif" font-size="10.00">Cat::setName</text>
</a>
</g>
</g>
<!-- Node1&#45;&gt;Node5 -->
<g id="edge4" class="edge">
<title>Node1&#45;&gt;Node5</title>
<path fill="none" stroke="#63b8ff" d="M416.87,-48C408.81,-48 400.79,-48 393.33,-48"/>
<polygon fill="#63b8ff" stroke="#63b8ff" points="416.73,-51.5 426.73,-48 416.73,-44.5 416.73,-51.5"/>
</g>
<!-- Node7 -->
<g id="node7" class="node">
<title>Node7</title>
<g id="a_node7"><a xlink:href="classCat.html#a0680012e4e432f9a1b128a82948a4798" target="_top" xlink:title="Validates Cat based on specified ruleset.">
<polygon fill="white" stroke="#666666" points="389.91,-20 318.74,-20 318.74,0 389.91,0 389.91,-20"/>
<text text-anchor="middle" x="354.32" y="-7" font-family="Helvetica,sans-Serif" font-size="10.00">Cat::validate</text>
</a>
</g>
</g>
<!-- Node1&#45;&gt;Node7 -->
<g id="edge7" class="edge">
<title>Node1&#45;&gt;Node7</title>
<path fill="none" stroke="#63b8ff" d="M436.66,-34.29C421.39,-29.73 404.63,-24.72 390.32,-20.45"/>
<polygon fill="#63b8ff" stroke="#63b8ff" points="435.43,-37.57 446.02,-37.08 437.44,-30.87 435.43,-37.57"/>
</g>
<!-- Node3 -->
<g id="node3" class="node">
<title>Node3</title>
<g id="a_node3"><a xlink:href="className.html#ad7a220d0aae6115ce4b63a7cb04b814b" target="_top" xlink:title="Get the next name.">
<polygon fill="white" stroke="#666666" points="279.94,-96 170.2,-96 170.2,-76 279.94,-76 279.94,-96"/>
<text text-anchor="middle" x="225.07" y="-83" font-family="Helvetica,sans-Serif" font-size="10.00">Name::getNextName</text>
</a>
</g>
</g>
<!-- Node2&#45;&gt;Node3 -->
<g id="edge2" class="edge">
<title>Node2&#45;&gt;Node3</title>
<path fill="none" stroke="#63b8ff" d="M307.09,-86C298.43,-86 289.29,-86 280.41,-86"/>
<polygon fill="#63b8ff" stroke="#63b8ff" points="307.04,-89.5 317.04,-86 307.04,-82.5 307.04,-89.5"/>
</g>
<!-- Node4 -->
<g id="node4" class="node">
<title>Node4</title>
<g id="a_node4"><a xlink:href="classAnimal.html#a6c67202c385f8e213a21454565f01e62" target="_top" xlink:title="Generates a random Animal with random specifications (in this case, a Cat)">
<polygon fill="white" stroke="#666666" points="134.58,-77 -0.19,-77 -0.19,-57 134.58,-57 134.58,-77"/>
<text text-anchor="middle" x="67.19" y="-64" font-family="Helvetica,sans-Serif" font-size="10.00">Animal::getRandomAnimal</text>
</a>
</g>
</g>
<!-- Node3&#45;&gt;Node4 -->
<g id="edge3" class="edge">
<title>Node3&#45;&gt;Node4</title>
<path fill="none" stroke="#63b8ff" d="M158.62,-78.02C150.75,-77.06 142.71,-76.08 134.82,-75.12"/>
<polygon fill="#63b8ff" stroke="#63b8ff" points="158.14,-81.49 168.49,-79.22 158.99,-74.54 158.14,-81.49"/>
</g>
<!-- Node6 -->
<g id="node6" class="node">
<title>Node6</title>
<g id="a_node6"><a xlink:href="classCat.html#a70728c65135e1a98f70eada1da99b282" target="_top" xlink:title="Generates a Cat with a specified Name, &#39;color&#39;, &#39;weight&#39;, and Gender.">
<polygon fill="white" stroke="#666666" points="251.25,-58 198.89,-58 198.89,-38 251.25,-38 251.25,-58"/>
<text text-anchor="middle" x="225.07" y="-45" font-family="Helvetica,sans-Serif" font-size="10.00">Cat::Cat</text>
</a>
</g>
</g>
<!-- Node5&#45;&gt;Node6 -->
<g id="edge5" class="edge">
<title>Node5&#45;&gt;Node6</title>
<path fill="none" stroke="#63b8ff" d="M303.99,-48C286.05,-48 266.51,-48 251.49,-48"/>
<polygon fill="#63b8ff" stroke="#63b8ff" points="303.98,-51.5 313.98,-48 303.98,-44.5 303.98,-51.5"/>
</g>
<!-- Node6&#45;&gt;Node4 -->
<g id="edge6" class="edge">
<title>Node6&#45;&gt;Node4</title>
<path fill="none" stroke="#63b8ff" d="M187.38,-52.47C171.71,-54.38 152.92,-56.67 134.95,-58.86"/>
<polygon fill="#63b8ff" stroke="#63b8ff" points="187.68,-55.96 197.18,-51.28 186.83,-49.01 187.68,-55.96"/>
</g>
<!-- Node8 -->
<g id="node8" class="node">
<title>Node8</title>
<g id="a_node8"><a xlink:href="classCat.html#a84a4c2dd95aeafdee0c49ccde0ad5cb6" target="_top" xlink:title="Generates a Cat with an unknown &#39;color&#39;, Gender, random &#39;weight&#39;, and specified &#39;newName&#39;.">
<polygon fill="white" stroke="#666666" points="251.25,-20 198.89,-20 198.89,0 251.25,0 251.25,-20"/>
<text text-anchor="middle" x="225.07" y="-7" font-family="Helvetica,sans-Serif" font-size="10.00">Cat::Cat</text>
</a>
</g>
</g>
<!-- Node7&#45;&gt;Node8 -->
<g id="edge8" class="edge">
<title>Node7&#45;&gt;Node8</title>
<path fill="none" stroke="#63b8ff" d="M307.21,-10C288.43,-10 267.44,-10 251.52,-10"/>
<polygon fill="#63b8ff" stroke="#63b8ff" points="307.04,-13.5 317.04,-10 307.04,-6.5 307.04,-13.5"/>
</g>
</g>
</svg>
        <g id="navigator" transform="translate(0 0)" fill="#404254">
                <rect fill="#f2f5e9" fill-opacity="0.5" stroke="#606060" stroke-width=".5" x="0" y="0" width="60" height="60"/>
                <use id="zoomplus" xlink:href="#zoomPlus" x="17" y="9" onmousedown="handleZoom(evt,'in')"/>
                <use id="zoomminus" xlink:href="#zoomMin" x="42" y="9" onmousedown="handleZoom(evt,'out')"/>
                <use id="reset" xlink:href="#resetDef" x="30" y="36" onmousedown="handleReset()"/>
                <g id="arrowUp" xlink:href="#dirArrow" transform="translate(30 24)" onmousedown="handlePan(0,-1)">
                  <use xlink:href="#rim" fill="#404040">
                        <set attributeName="fill" to="#808080" begin="arrowUp.mouseover" end="arrowUp.mouseout"/>
                  </use>
                  <path fill="none" stroke="white" stroke-width="1.5" d="M0,-3.0v7 M-2.5,-0.5L0,-3.0L2.5,-0.5"/>
                </g>
                <g id="arrowRight" xlink:href="#dirArrow" transform="rotate(90) translate(36 -43)" onmousedown="handlePan(1,0)">
                  <use xlink:href="#rim" fill="#404040">
                        <set attributeName="fill" to="#808080" begin="arrowRight.mouseover" end="arrowRight.mouseout"/>
                  </use>
                  <path fill="none" stroke="white" stroke-width="1.5" d="M0,-3.0v7 M-2.5,-0.5L0,-3.0L2.5,-0.5"/>
                </g>
                <g id="arrowDown" xlink:href="#dirArrow" transform="rotate(180) translate(-30 -48)" onmousedown="handlePan(0,1)">
                  <use xlink:href="#rim" fill="#404040">
                        <set attributeName="fill" to="#808080" begin="arrowDown.mouseover" end="arrowDown.mouseout"/>
                  </use>
                  <path fill="none" stroke="white" stroke-width="1.5" d="M0,-3.0v7 M-2.5,-0.5L0,-3.0L2.5,-0.5"/>
                </g>
                <g id="arrowLeft" xlink:href="#dirArrow" transform="rotate(270) translate(-36 17)" onmousedown="handlePan(-1,0)">
                  <use xlink:href="#rim" fill="#404040">
                        <set attributeName="fill" to="#808080" begin="arrowLeft.mouseover" end="arrowLeft.mouseout"/>
                  </use>
                  <path fill="none" stroke="white" stroke-width="1.5" d="M0,-3.0v7 M-2.5,-0.5L0,-3.0L2.5,-0.5"/>
                </g>
        </g>
        <svg viewBox="0 0 15 15" width="100%" height="30px" preserveAspectRatio="xMaxYMin meet">
         <g id="arrow_out" transform="scale(0.3 0.3)">
          <a xlink:href="className_adf2e3789f330180d37ad880f17e004cc_icgraph_org.svg" target="_base">
           <rect id="button" ry="5" rx="5" y="6" x="6" height="38" width="38"
                fill="#f2f5e9" fill-opacity="0.5" stroke="#606060" stroke-width="1.0"/>
           <path id="arrow"
             d="M 11.500037,31.436501 C 11.940474,20.09759 22.043105,11.32322 32.158766,21.979434 L 37.068811,17.246167 C 37.068811,17.246167 37.088388,32 37.088388,32 L 22.160133,31.978069 C 22.160133,31.978069 26.997745,27.140456 26.997745,27.140456 C 18.528582,18.264221 13.291696,25.230495 11.500037,31.436501 z"
             style="fill:#404040;"/>
          </a>
         </g>
        </svg>
</svg>
