<?xml version="1.0" encoding="UTF-8" standalone="no"?>
<!DOCTYPE svg PUBLIC "-//W3C//DTD SVG 1.1//EN"
 "http://www.w3.org/Graphics/SVG/1.1/DTD/svg11.dtd">
<!-- Generated by graphviz version 7.0.5 (20221223.1930)
 -->
<!-- Title: Animal::generatePounds Pages: 1 -->
<svg width="393pt" height="142pt"
 viewBox="0.00 0.00 392.58 142.00" xmlns="http://www.w3.org/2000/svg" xmlns:xlink="http://www.w3.org/1999/xlink">
<g id="graph0" class="graph" transform="scale(1 1) rotate(0) translate(4 138)">
<title>Animal::generatePounds</title>
<!-- Node1 -->
<g id="node1" class="node">
<title>Node1</title>
<g id="a_node1"><a xlink:title="Generates a random &#39;weight&#39; in pounds for an Animal.">
<polygon fill="#999999" stroke="#666666" points="384.34,-77 259.31,-77 259.31,-57 384.34,-57 384.34,-77"/>
<text text-anchor="middle" x="321.83" y="-64" font-family="Helvetica,sans-Serif" font-size="10.00">Animal::generatePounds</text>
</a>
</g>
</g>
<!-- Node2 -->
<g id="node2" class="node">
<title>Node2</title>
<g id="a_node2"><a xlink:href="classAnimal.html#a1e726a49ec952443190ac62dad22353c" target="_top" xlink:title="Generates an Animal with a random valid &#39;weight&#39;.">
<polygon fill="white" stroke="#666666" points="197.06,-134 114.68,-134 114.68,-114 197.06,-114 197.06,-134"/>
<text text-anchor="middle" x="155.87" y="-121" font-family="Helvetica,sans-Serif" font-size="10.00">Animal::Animal</text>
</a>
</g>
</g>
<!-- Node1&#45;&gt;Node2 -->
<g id="edge1" class="edge">
<title>Node1&#45;&gt;Node2</title>
<path fill="none" stroke="#63b8ff" d="M285.2,-81.75C266.79,-89.14 243.89,-97.98 223.07,-105 214.23,-107.98 204.63,-110.91 195.56,-113.54"/>
<polygon fill="#63b8ff" stroke="#63b8ff" points="286.38,-85.05 294.34,-78.05 283.75,-78.56 286.38,-85.05"/>
</g>
<!-- Node3 -->
<g id="node3" class="node">
<title>Node3</title>
<g id="a_node3"><a xlink:href="classCat.html#a84a4c2dd95aeafdee0c49ccde0ad5cb6" target="_top" xlink:title="Generates a Cat with an unknown &#39;color&#39;, Gender, random &#39;weight&#39;, and specified &#39;newName&#39;.">
<polygon fill="white" stroke="#666666" points="182.05,-96 129.69,-96 129.69,-76 182.05,-76 182.05,-96"/>
<text text-anchor="middle" x="155.87" y="-83" font-family="Helvetica,sans-Serif" font-size="10.00">Cat::Cat</text>
</a>
</g>
</g>
<!-- Node1&#45;&gt;Node3 -->
<g id="edge2" class="edge">
<title>Node1&#45;&gt;Node3</title>
<path fill="none" stroke="#63b8ff" d="M247.53,-75.49C224.26,-78.19 200.05,-81 182.51,-83.03"/>
<polygon fill="#63b8ff" stroke="#63b8ff" points="247.81,-78.99 257.34,-74.36 247,-72.03 247.81,-78.99"/>
</g>
<!-- Node4 -->
<g id="node4" class="node">
<title>Node4</title>
<g id="a_node4"><a xlink:href="classMammal.html#a2963b6863086e485edc02b48d34eb9fc" target="_top" xlink:title="Generates a Mammal with a specified Gender and random &#39;weight&#39;.">
<polygon fill="white" stroke="#666666" points="205.1,-58 106.65,-58 106.65,-38 205.1,-38 205.1,-58"/>
<text text-anchor="middle" x="155.87" y="-45" font-family="Helvetica,sans-Serif" font-size="10.00">Mammal::Mammal</text>
</a>
</g>
</g>
<!-- Node1&#45;&gt;Node4 -->
<g id="edge3" class="edge">
<title>Node1&#45;&gt;Node4</title>
<path fill="none" stroke="#63b8ff" d="M247.51,-58.5C233.24,-56.85 218.62,-55.16 205.4,-53.62"/>
<polygon fill="#63b8ff" stroke="#63b8ff" points="247,-61.97 257.34,-59.64 247.81,-55.01 247,-61.97"/>
</g>
<!-- Node6 -->
<g id="node6" class="node">
<title>Node6</title>
<g id="a_node6"><a xlink:href="classAnimal.html#a6c67202c385f8e213a21454565f01e62" target="_top" xlink:title="Generates a random Animal with random specifications (in this case, a Cat)">
<polygon fill="white" stroke="#666666" points="223.26,-20 88.48,-20 88.48,0 223.26,0 223.26,-20"/>
<text text-anchor="middle" x="155.87" y="-7" font-family="Helvetica,sans-Serif" font-size="10.00">Animal::getRandomAnimal</text>
</a>
</g>
</g>
<!-- Node1&#45;&gt;Node6 -->
<g id="edge5" class="edge">
<title>Node1&#45;&gt;Node6</title>
<path fill="none" stroke="#63b8ff" d="M285.2,-52.25C266.79,-44.86 243.89,-36.02 223.07,-29 214.23,-26.02 204.63,-23.09 195.56,-20.46"/>
<polygon fill="#63b8ff" stroke="#63b8ff" points="283.75,-55.44 294.34,-55.95 286.38,-48.95 283.75,-55.44"/>
</g>
<!-- Node5 -->
<g id="node5" class="node">
<title>Node5</title>
<g id="a_node5"><a xlink:href="classCat.html#ab2228ede359b6e69434dd5f9fea37de7" target="_top" xlink:title="Generates a Cat with a specified Name and Gender.">
<polygon fill="white" stroke="#666666" points="52.52,-58 0.16,-58 0.16,-38 52.52,-38 52.52,-58"/>
<text text-anchor="middle" x="26.34" y="-45" font-family="Helvetica,sans-Serif" font-size="10.00">Cat::Cat</text>
</a>
</g>
</g>
<!-- Node4&#45;&gt;Node5 -->
<g id="edge4" class="edge">
<title>Node4&#45;&gt;Node5</title>
<path fill="none" stroke="#63b8ff" d="M95.07,-48C80.24,-48 65.12,-48 52.95,-48"/>
<polygon fill="#63b8ff" stroke="#63b8ff" points="94.78,-51.5 104.78,-48 94.78,-44.5 94.78,-51.5"/>
</g>
</g>
</svg>
