<?xml version="1.0" encoding="UTF-8" standalone="no"?>
<!DOCTYPE svg PUBLIC "-//W3C//DTD SVG 1.1//EN"
 "http://www.w3.org/Graphics/SVG/1.1/DTD/svg11.dtd">
<!-- Generated by graphviz version 7.0.5 (20221223.1930)
 -->
<!-- Title: Animal::setWeight Pages: 1 -->
<svg width="358pt" height="47pt"
 viewBox="0.00 0.00 357.50 47.00" xmlns="http://www.w3.org/2000/svg" xmlns:xlink="http://www.w3.org/1999/xlink">
<g id="graph0" class="graph" transform="scale(1 1) rotate(0) translate(4 43)">
<title>Animal::setWeight</title>
<!-- Node1 -->
<g id="node1" class="node">
<title>Node1</title>
<g id="a_node1"><a xlink:title="Sets &#39;weight&#39; of Animal.">
<polygon fill="#999999" stroke="#666666" points="349.3,-20 253.12,-20 253.12,0 349.3,0 349.3,-20"/>
<text text-anchor="middle" x="301.21" y="-7" font-family="Helvetica,sans-Serif" font-size="10.00">Animal::setWeight</text>
</a>
</g>
</g>
<!-- Node2 -->
<g id="node2" class="node">
<title>Node2</title>
<g id="a_node2"><a xlink:href="classAnimal.html#aec8039997b0be3da027036d998f8207c" target="_top" xlink:title="Generates an Animal with a specified &#39;weight&#39;.">
<polygon fill="white" stroke="#666666" points="216.76,-39 134.38,-39 134.38,-19 216.76,-19 216.76,-39"/>
<text text-anchor="middle" x="175.57" y="-26" font-family="Helvetica,sans-Serif" font-size="10.00">Animal::Animal</text>
</a>
</g>
</g>
<!-- Node1&#45;&gt;Node2 -->
<g id="edge1" class="edge">
<title>Node1&#45;&gt;Node2</title>
<path fill="none" stroke="#63b8ff" d="M241.62,-19C233.38,-20.27 225.06,-21.55 217.25,-22.75"/>
<polygon fill="#63b8ff" stroke="#63b8ff" points="241.91,-22.5 251.27,-17.52 240.85,-15.58 241.91,-22.5"/>
</g>
<!-- Node3 -->
<g id="node3" class="node">
<title>Node3</title>
<g id="a_node3"><a xlink:href="classMammal.html#a355f8c647618d6baf6bda466f04401e2" target="_top" xlink:title="Generates a Mammal with a specified &#39;color&#39;, &#39;weight&#39;, and Gender.">
<polygon fill="white" stroke="#666666" points="98.34,-20 -0.11,-20 -0.11,0 98.34,0 98.34,-20"/>
<text text-anchor="middle" x="49.11" y="-7" font-family="Helvetica,sans-Serif" font-size="10.00">Mammal::Mammal</text>
</a>
</g>
</g>
<!-- Node1&#45;&gt;Node3 -->
<g id="edge3" class="edge">
<title>Node1&#45;&gt;Node3</title>
<path fill="none" stroke="#63b8ff" d="M241.59,-10C198.07,-10 139.41,-10 98.53,-10"/>
<polygon fill="#63b8ff" stroke="#63b8ff" points="241.36,-13.5 251.36,-10 241.36,-6.5 241.36,-13.5"/>
</g>
<!-- Node2&#45;&gt;Node3 -->
<g id="edge2" class="edge">
<title>Node2&#45;&gt;Node3</title>
<path fill="none" stroke="#63b8ff" d="M122.97,-21.12C114.89,-19.89 106.57,-18.62 98.57,-17.4"/>
<polygon fill="#63b8ff" stroke="#63b8ff" points="122.25,-24.55 132.67,-22.6 123.31,-17.63 122.25,-24.55"/>
</g>
</g>
</svg>
