<?xml version="1.0" encoding="UTF-8" standalone="no"?>
<!DOCTYPE svg PUBLIC "-//W3C//DTD SVG 1.1//EN"
 "http://www.w3.org/Graphics/SVG/1.1/DTD/svg11.dtd">
<!-- Generated by graphviz version 7.0.5 (20221223.1930)
 -->
<!-- Title: SingleLinkedList::sort Pages: 1 -->
<!--zoomable 256 -->
<svg id="main" version="1.1" xmlns="http://www.w3.org/2000/svg" xmlns:xlink="http://www.w3.org/1999/xlink" xml:space="preserve" onload="init(evt)">
<style type="text/css"><![CDATA[
.edge:hover path { stroke: red; }
.edge:hover polygon { stroke: red; fill: red; }
]]></style>
<script type="text/javascript"><![CDATA[
var edges = document.getElementsByTagName('g');
if (edges && edges.length) {
  for (var i=0;i<edges.length;i++) {
    if (edges[i].id.substr(0,4)=='edge') {
      edges[i].setAttribute('class','edge');
    }
  }
}
]]></script>
        <defs>
                <circle id="rim" cx="0" cy="0" r="7"/>
                <circle id="rim2" cx="0" cy="0" r="3.5"/>
                <g id="zoomPlus">
                        <use xlink:href="#rim" fill="#404040">
                                <set attributeName="fill" to="#808080" begin="zoomplus.mouseover" end="zoomplus.mouseout"/>
                        </use>
                        <path d="M-4,0h8M0,-4v8" fill="none" stroke="white" stroke-width="1.5" pointer-events="none"/>
                </g>
                <g id="zoomMin">
                        <use xlink:href="#rim" fill="#404040">
                                <set attributeName="fill" to="#808080" begin="zoomminus.mouseover" end="zoomminus.mouseout"/>
                        </use>
                        <path d="M-4,0h8" fill="none" stroke="white" stroke-width="1.5" pointer-events="none"/>
                </g>
                <g id="dirArrow">
                        <path fill="none" stroke="white" stroke-width="1.5" d="M0,-3.0v7 M-2.5,-0.5L0,-3.0L2.5,-0.5"/>
                </g>
               <g id="resetDef">
                       <use xlink:href="#rim2" fill="#404040">
                               <set attributeName="fill" to="#808080" begin="reset.mouseover" end="reset.mouseout"/>
                       </use>
               </g>
        </defs>

<script type="text/javascript">
var viewWidth = 947;
var viewHeight = 256;
var sectionId = 'dynsection-15';
</script>
<script xlink:href="svgpan.js"/>
<svg id="graph" class="graph">
<g id="viewport">
<title>SingleLinkedList::sort</title>
<!-- Node1 -->
<g id="node1" class="node">
<title>Node1</title>
<g id="a_node1"><a xlink:title="Sorts SingleLinkedList via selection sort.">
<polygon fill="#999999" stroke="#666666" points="111.08,-96 -0.03,-96 -0.03,-76 111.08,-76 111.08,-96"/>
<text text-anchor="middle" x="55.53" y="-83" font-family="Helvetica,sans-Serif" font-size="10.00">SingleLinkedList::sort</text>
</a>
</g>
</g>
<!-- Node2 -->
<g id="node2" class="node">
<title>Node2</title>
<g id="a_node2"><a xlink:href="classSingleLinkedList.html#ae4bac7ac6ecc8a0f1d689d2fed3b2c2e" target="_top" xlink:title="Adds a new Node, &#39;newNode&#39;, to SingleLinkedList.">
<polygon fill="white" stroke="#666666" points="483.31,-248 372.17,-248 372.17,-228 483.31,-228 483.31,-248"/>
<text text-anchor="middle" x="427.74" y="-235" font-family="Helvetica,sans-Serif" font-size="10.00">SingleLinkedList::add</text>
</a>
</g>
</g>
<!-- Node1&#45;&gt;Node2 -->
<g id="edge1" class="edge">
<title>Node1&#45;&gt;Node2</title>
<path fill="none" stroke="#63b8ff" d="M65.79,-96.24C81.12,-112.55 113.41,-144.41 147.05,-162 215.29,-197.69 301.91,-217.87 360.53,-228.33"/>
<polygon fill="#63b8ff" stroke="#63b8ff" points="359.93,-231.77 370.38,-230.03 361.12,-224.88 359.93,-231.77"/>
</g>
<!-- Node5 -->
<g id="node5" class="node">
<title>Node5</title>
<g id="a_node5"><a xlink:href="classSingleLinkedList.html#a4e475a8028331e1eee38a655f88706a6" target="_top" xlink:title="Iterates and validates every object in a SingleLinkedList based on specified ruleset.">
<polygon fill="white" stroke="#666666" points="666.67,-134 537.97,-134 537.97,-114 666.67,-114 666.67,-134"/>
<text text-anchor="middle" x="602.32" y="-121" font-family="Helvetica,sans-Serif" font-size="10.00">SingleLinkedList::validate</text>
</a>
</g>
</g>
<!-- Node1&#45;&gt;Node5 -->
<g id="edge21" class="edge">
<title>Node1&#45;&gt;Node5</title>
<path fill="none" stroke="#63b8ff" d="M111.51,-89.84C209.62,-96.68 414.97,-111 526.07,-118.75"/>
<polygon fill="#63b8ff" stroke="#63b8ff" points="525.78,-122.24 535.99,-119.44 526.26,-115.26 525.78,-122.24"/>
</g>
<!-- Node8 -->
<g id="node8" class="node">
<title>Node8</title>
<g id="a_node8"><a xlink:href="classSingleLinkedList.html#a943d365899a8f6ada65f95ba188cec5f" target="_top" xlink:title="Returns smallest Node in SingleLinkedList.">
<polygon fill="white" stroke="#666666" points="317.36,-20 147.29,-20 147.29,0 317.36,0 317.36,-20"/>
<text text-anchor="middle" x="232.32" y="-7" font-family="Helvetica,sans-Serif" font-size="10.00">SingleLinkedList::getSmallestNode</text>
</a>
</g>
</g>
<!-- Node1&#45;&gt;Node8 -->
<g id="edge9" class="edge">
<title>Node1&#45;&gt;Node8</title>
<path fill="none" stroke="#63b8ff" d="M69.83,-75.56C86.81,-62.74 117.53,-41.2 147.05,-29 151.91,-26.99 157.01,-25.18 162.21,-23.55"/>
<polygon fill="#63b8ff" stroke="#63b8ff" points="162.86,-27 171.49,-20.86 160.91,-20.28 162.86,-27"/>
</g>
<!-- Node10 -->
<g id="node10" class="node">
<title>Node10</title>
<g id="a_node10"><a xlink:href="classSingleLinkedList.html#aa87b3ac7c24c27effa6f24b850ea52d6" target="_top" xlink:title="Checks if SingleLinkedList is sorted from least to greatest.">
<polygon fill="white" stroke="#666666" points="297.89,-58 166.75,-58 166.75,-38 297.89,-38 297.89,-58"/>
<text text-anchor="middle" x="232.32" y="-45" font-family="Helvetica,sans-Serif" font-size="10.00">SingleLinkedList::isSorted</text>
</a>
</g>
</g>
<!-- Node1&#45;&gt;Node10 -->
<g id="edge11" class="edge">
<title>Node1&#45;&gt;Node10</title>
<path fill="none" stroke="#63b8ff" d="M104.75,-75.52C125.58,-70.99 150.14,-65.65 172.06,-60.88"/>
<polygon fill="#63b8ff" stroke="#63b8ff" points="172.75,-64.32 181.77,-58.77 171.26,-57.48 172.75,-64.32"/>
</g>
<!-- Node11 -->
<g id="node11" class="node">
<title>Node11</title>
<g id="a_node11"><a xlink:href="classSingleLinkedList.html#af4561d78939a5b2f1c9cf4c86866cec4" target="_top" xlink:title="Removes a Node, &#39;thisNode&#39;, from SingleLinkedList.">
<polygon fill="white" stroke="#666666" points="296.05,-153 168.59,-153 168.59,-133 296.05,-133 296.05,-153"/>
<text text-anchor="middle" x="232.32" y="-140" font-family="Helvetica,sans-Serif" font-size="10.00">SingleLinkedList::remove</text>
</a>
</g>
</g>
<!-- Node1&#45;&gt;Node11 -->
<g id="edge14" class="edge">
<title>Node1&#45;&gt;Node11</title>
<path fill="none" stroke="#63b8ff" d="M88.59,-96.45C116.59,-105.59 157.46,-118.92 188.3,-128.97"/>
<polygon fill="#63b8ff" stroke="#63b8ff" points="187.14,-132.27 197.73,-132.05 189.31,-125.62 187.14,-132.27"/>
</g>
<!-- Node3 -->
<g id="node3" class="node">
<title>Node3</title>
<g id="a_node3"><a xlink:href="classSingleLinkedList.html#a28ef6274454e216111ee060540b7944f" target="_top" xlink:title="Indicates if a specific object is present in the SingleLinkedList.">
<polygon fill="white" stroke="#666666" points="657.27,-210 547.37,-210 547.37,-190 657.27,-190 657.27,-210"/>
<text text-anchor="middle" x="602.32" y="-197" font-family="Helvetica,sans-Serif" font-size="10.00">SingleLinkedList::isIn</text>
</a>
</g>
</g>
<!-- Node2&#45;&gt;Node3 -->
<g id="edge2" class="edge">
<title>Node2&#45;&gt;Node3</title>
<path fill="none" stroke="#63b8ff" d="M476.36,-227.52C496.92,-222.99 521.17,-217.65 542.81,-212.88"/>
<polygon fill="#63b8ff" stroke="#63b8ff" points="543.37,-216.34 552.38,-210.78 541.86,-209.51 543.37,-216.34"/>
</g>
<!-- Node4 -->
<g id="node4" class="node">
<title>Node4</title>
<g id="a_node4"><a xlink:href="classNode.html#a9f69825adc179781257e406b3255a93e" target="_top" xlink:title="Ensures Node and all its members are healthy (presumably)">
<polygon fill="white" stroke="#666666" points="792.37,-172 712.51,-172 712.51,-152 792.37,-152 792.37,-172"/>
<text text-anchor="middle" x="752.44" y="-159" font-family="Helvetica,sans-Serif" font-size="10.00">Node::validate</text>
</a>
</g>
</g>
<!-- Node2&#45;&gt;Node4 -->
<g id="edge3" class="edge">
<title>Node2&#45;&gt;Node4</title>
<path fill="none" stroke="#63b8ff" d="M483.76,-241.39C533.07,-242.63 606.68,-239.98 666.75,-219 691.22,-210.45 715.38,-193.06 731.59,-179.72"/>
<polygon fill="#63b8ff" stroke="#63b8ff" points="733.66,-182.56 739.01,-173.42 729.12,-177.23 733.66,-182.56"/>
</g>
<!-- Node2&#45;&gt;Node5 -->
<g id="edge4" class="edge">
<title>Node2&#45;&gt;Node5</title>
<path fill="none" stroke="#63b8ff" d="M444.36,-227.68C474.39,-207.84 540.41,-164.23 576.52,-140.38"/>
<polygon fill="#63b8ff" stroke="#63b8ff" points="578.18,-143.48 584.6,-135.05 574.32,-137.64 578.18,-143.48"/>
</g>
<!-- Node5&#45;&gt;Node4 -->
<g id="edge6" class="edge">
<title>Node5&#45;&gt;Node4</title>
<path fill="none" stroke="#63b8ff" d="M644.19,-134.48C661.86,-139.02 682.7,-144.37 701.3,-149.14"/>
<polygon fill="#63b8ff" stroke="#63b8ff" points="700.21,-152.47 710.77,-151.57 701.95,-145.69 700.21,-152.47"/>
</g>
<!-- Node6 -->
<g id="node6" class="node">
<title>Node6</title>
<g id="a_node6"><a xlink:href="classContainer.html#a4ba5dfecf5b1505bd08df17f0c2436c5" target="_top" xlink:title="Generates a Container to place objects into.">
<polygon fill="white" stroke="#666666" points="938.85,-115 837.89,-115 837.89,-95 938.85,-95 938.85,-115"/>
<text text-anchor="middle" x="888.37" y="-102" font-family="Helvetica,sans-Serif" font-size="10.00">Container::isEmpty</text>
</a>
</g>
</g>
<!-- Node5&#45;&gt;Node6 -->
<g id="edge5" class="edge">
<title>Node5&#45;&gt;Node6</title>
<path fill="none" stroke="#63b8ff" d="M667.07,-119.74C714.67,-116.55 779.32,-112.23 826.27,-109.09"/>
<polygon fill="#63b8ff" stroke="#63b8ff" points="826.25,-112.6 836,-108.44 825.78,-105.61 826.25,-112.6"/>
</g>
<!-- Node7 -->
<g id="node7" class="node">
<title>Node7</title>
<g id="a_node7"><a xlink:href="classContainer.html#a654be97698b35ecb309b27f8a075b216" target="_top" xlink:title="Validates that Node and Container follow a specified ruleset.">
<polygon fill="white" stroke="#666666" points="802.32,-96 702.55,-96 702.55,-76 802.32,-76 802.32,-96"/>
<text text-anchor="middle" x="752.44" y="-83" font-family="Helvetica,sans-Serif" font-size="10.00">Container::validate</text>
</a>
</g>
</g>
<!-- Node5&#45;&gt;Node7 -->
<g id="edge7" class="edge">
<title>Node5&#45;&gt;Node7</title>
<path fill="none" stroke="#63b8ff" d="M644.19,-113.52C661.35,-109.11 681.51,-103.94 699.69,-99.28"/>
<polygon fill="#63b8ff" stroke="#63b8ff" points="700.42,-102.7 709.24,-96.83 698.68,-95.92 700.42,-102.7"/>
</g>
<!-- Node7&#45;&gt;Node6 -->
<g id="edge8" class="edge">
<title>Node7&#45;&gt;Node6</title>
<path fill="none" stroke="#63b8ff" d="M802.55,-92.97C810.36,-94.08 818.53,-95.23 826.57,-96.38"/>
<polygon fill="#63b8ff" stroke="#63b8ff" points="825.92,-99.82 836.32,-97.76 826.91,-92.89 825.92,-99.82"/>
</g>
<!-- Node9 -->
<g id="node9" class="node">
<title>Node9</title>
<g id="a_node9"><a xlink:href="classNode.html#af1273b8825cf35f7e08f959c09a6ffe8" target="_top" xlink:title="Compares Node based by numerically comparing addresses.">
<polygon fill="white" stroke="#666666" points="475.84,-20 379.64,-20 379.64,0 475.84,0 475.84,-20"/>
<text text-anchor="middle" x="427.74" y="-7" font-family="Helvetica,sans-Serif" font-size="10.00">Node::isLessThan</text>
</a>
</g>
</g>
<!-- Node8&#45;&gt;Node9 -->
<g id="edge10" class="edge">
<title>Node8&#45;&gt;Node9</title>
<path fill="none" stroke="#63b8ff" d="M317.6,-10C334.64,-10 352.2,-10 368.12,-10"/>
<polygon fill="#63b8ff" stroke="#63b8ff" points="367.88,-13.5 377.88,-10 367.88,-6.5 367.88,-13.5"/>
</g>
<!-- Node10&#45;&gt;Node5 -->
<g id="edge13" class="edge">
<title>Node10&#45;&gt;Node5</title>
<path fill="none" stroke="#63b8ff" d="M298.12,-46.76C353.35,-47.35 434.29,-52.16 501.89,-72 528.99,-79.95 557.27,-95.57 576.72,-107.62"/>
<polygon fill="#63b8ff" stroke="#63b8ff" points="574.69,-110.48 585.01,-112.9 578.45,-104.58 574.69,-110.48"/>
</g>
<!-- Node10&#45;&gt;Node9 -->
<g id="edge12" class="edge">
<title>Node10&#45;&gt;Node9</title>
<path fill="none" stroke="#63b8ff" d="M286.69,-37.52C311.91,-32.56 342.1,-26.63 367.98,-21.54"/>
<polygon fill="#63b8ff" stroke="#63b8ff" points="368.54,-25 377.67,-19.64 367.19,-18.13 368.54,-25"/>
</g>
<!-- Node11&#45;&gt;Node3 -->
<g id="edge19" class="edge">
<title>Node11&#45;&gt;Node3</title>
<path fill="none" stroke="#63b8ff" d="M260.09,-153.41C284.16,-162.3 320.7,-174.63 353.59,-181 414.68,-192.83 485.59,-197.36 535.85,-199.06"/>
<polygon fill="#63b8ff" stroke="#63b8ff" points="535.59,-202.56 545.69,-199.36 535.8,-195.56 535.59,-202.56"/>
</g>
<!-- Node11&#45;&gt;Node5 -->
<g id="edge20" class="edge">
<title>Node11&#45;&gt;Node5</title>
<path fill="none" stroke="#63b8ff" d="M296.16,-139.76C359.82,-136.47 458.29,-131.38 526.06,-127.89"/>
<polygon fill="#63b8ff" stroke="#63b8ff" points="526.18,-131.38 535.99,-127.37 525.82,-124.39 526.18,-131.38"/>
</g>
<!-- Node12 -->
<g id="node12" class="node">
<title>Node12</title>
<g id="a_node12"><a xlink:href="classSingleLinkedList.html#ae5d531b9dd176a59642c64e02bca26c0" target="_top" xlink:title="Returns &quot;parent&quot; Node (previous) of thisNode.">
<polygon fill="white" stroke="#666666" points="502.05,-172 353.44,-172 353.44,-152 502.05,-152 502.05,-172"/>
<text text-anchor="middle" x="427.74" y="-159" font-family="Helvetica,sans-Serif" font-size="10.00">SingleLinkedList::getParentOf</text>
</a>
</g>
</g>
<!-- Node11&#45;&gt;Node12 -->
<g id="edge15" class="edge">
<title>Node11&#45;&gt;Node12</title>
<path fill="none" stroke="#63b8ff" d="M296.39,-149.2C310.94,-150.62 326.64,-152.17 341.95,-153.67"/>
<polygon fill="#63b8ff" stroke="#63b8ff" points="341.2,-157.11 351.49,-154.61 341.88,-150.15 341.2,-157.11"/>
</g>
<!-- Node12&#45;&gt;Node3 -->
<g id="edge16" class="edge">
<title>Node12&#45;&gt;Node3</title>
<path fill="none" stroke="#63b8ff" d="M476.36,-172.48C496.92,-177.01 521.17,-182.35 542.81,-187.12"/>
<polygon fill="#63b8ff" stroke="#63b8ff" points="541.86,-190.49 552.38,-189.22 543.37,-183.66 541.86,-190.49"/>
</g>
<!-- Node12&#45;&gt;Node4 -->
<g id="edge17" class="edge">
<title>Node12&#45;&gt;Node4</title>
<path fill="none" stroke="#63b8ff" d="M502.37,-162C563.2,-162 647.93,-162 701.21,-162"/>
<polygon fill="#63b8ff" stroke="#63b8ff" points="700.9,-165.5 710.9,-162 700.9,-158.5 700.9,-165.5"/>
</g>
<!-- Node12&#45;&gt;Node5 -->
<g id="edge18" class="edge">
<title>Node12&#45;&gt;Node5</title>
<path fill="none" stroke="#63b8ff" d="M476.36,-151.52C496.92,-146.99 521.17,-141.65 542.81,-136.88"/>
<polygon fill="#63b8ff" stroke="#63b8ff" points="543.37,-140.34 552.38,-134.78 541.86,-133.51 543.37,-140.34"/>
</g>
</g>
</svg>
        <g id="navigator" transform="translate(0 0)" fill="#404254">
                <rect fill="#f2f5e9" fill-opacity="0.5" stroke="#606060" stroke-width=".5" x="0" y="0" width="60" height="60"/>
                <use id="zoomplus" xlink:href="#zoomPlus" x="17" y="9" onmousedown="handleZoom(evt,'in')"/>
                <use id="zoomminus" xlink:href="#zoomMin" x="42" y="9" onmousedown="handleZoom(evt,'out')"/>
                <use id="reset" xlink:href="#resetDef" x="30" y="36" onmousedown="handleReset()"/>
                <g id="arrowUp" xlink:href="#dirArrow" transform="translate(30 24)" onmousedown="handlePan(0,-1)">
                  <use xlink:href="#rim" fill="#404040">
                        <set attributeName="fill" to="#808080" begin="arrowUp.mouseover" end="arrowUp.mouseout"/>
                  </use>
                  <path fill="none" stroke="white" stroke-width="1.5" d="M0,-3.0v7 M-2.5,-0.5L0,-3.0L2.5,-0.5"/>
                </g>
                <g id="arrowRight" xlink:href="#dirArrow" transform="rotate(90) translate(36 -43)" onmousedown="handlePan(1,0)">
                  <use xlink:href="#rim" fill="#404040">
                        <set attributeName="fill" to="#808080" begin="arrowRight.mouseover" end="arrowRight.mouseout"/>
                  </use>
                  <path fill="none" stroke="white" stroke-width="1.5" d="M0,-3.0v7 M-2.5,-0.5L0,-3.0L2.5,-0.5"/>
                </g>
                <g id="arrowDown" xlink:href="#dirArrow" transform="rotate(180) translate(-30 -48)" onmousedown="handlePan(0,1)">
                  <use xlink:href="#rim" fill="#404040">
                        <set attributeName="fill" to="#808080" begin="arrowDown.mouseover" end="arrowDown.mouseout"/>
                  </use>
                  <path fill="none" stroke="white" stroke-width="1.5" d="M0,-3.0v7 M-2.5,-0.5L0,-3.0L2.5,-0.5"/>
                </g>
                <g id="arrowLeft" xlink:href="#dirArrow" transform="rotate(270) translate(-36 17)" onmousedown="handlePan(-1,0)">
                  <use xlink:href="#rim" fill="#404040">
                        <set attributeName="fill" to="#808080" begin="arrowLeft.mouseover" end="arrowLeft.mouseout"/>
                  </use>
                  <path fill="none" stroke="white" stroke-width="1.5" d="M0,-3.0v7 M-2.5,-0.5L0,-3.0L2.5,-0.5"/>
                </g>
        </g>
        <svg viewBox="0 0 15 15" width="100%" height="30px" preserveAspectRatio="xMaxYMin meet">
         <g id="arrow_out" transform="scale(0.3 0.3)">
          <a xlink:href="classSingleLinkedList_af7e0bb2dfe82ddcb6e8ff9291807e66b_cgraph_org.svg" target="_base">
           <rect id="button" ry="5" rx="5" y="6" x="6" height="38" width="38"
                fill="#f2f5e9" fill-opacity="0.5" stroke="#606060" stroke-width="1.0"/>
           <path id="arrow"
             d="M 11.500037,31.436501 C 11.940474,20.09759 22.043105,11.32322 32.158766,21.979434 L 37.068811,17.246167 C 37.068811,17.246167 37.088388,32 37.088388,32 L 22.160133,31.978069 C 22.160133,31.978069 26.997745,27.140456 26.997745,27.140456 C 18.528582,18.264221 13.291696,25.230495 11.500037,31.436501 z"
             style="fill:#404040;"/>
          </a>
         </g>
        </svg>
</svg>
