<?xml version="1.0" encoding="UTF-8" standalone="no"?>
<!DOCTYPE svg PUBLIC "-//W3C//DTD SVG 1.1//EN"
 "http://www.w3.org/Graphics/SVG/1.1/DTD/svg11.dtd">
<!-- Generated by graphviz version 7.0.5 (20221223.1930)
 -->
<!-- Title: Animal::Animal Pages: 1 -->
<svg width="252pt" height="66pt"
 viewBox="0.00 0.00 252.21 66.00" xmlns="http://www.w3.org/2000/svg" xmlns:xlink="http://www.w3.org/1999/xlink">
<g id="graph0" class="graph" transform="scale(1 1) rotate(0) translate(4 62)">
<title>Animal::Animal</title>
<!-- Node1 -->
<g id="node1" class="node">
<title>Node1</title>
<g id="a_node1"><a xlink:title="Generates an Animal with a random valid &#39;weight&#39;.">
<polygon fill="#999999" stroke="#666666" points="82.53,-39 0.15,-39 0.15,-19 82.53,-19 82.53,-39"/>
<text text-anchor="middle" x="41.34" y="-26" font-family="Helvetica,sans-Serif" font-size="10.00">Animal::Animal</text>
</a>
</g>
</g>
<!-- Node2 -->
<g id="node2" class="node">
<title>Node2</title>
<g id="a_node2"><a xlink:href="classAnimal.html#a96634826703e846e99b8592be6fef36a" target="_top" xlink:title="Generates a random &#39;weight&#39; in pounds for an Animal.">
<polygon fill="white" stroke="#666666" points="243.97,-58 118.93,-58 118.93,-38 243.97,-38 243.97,-58"/>
<text text-anchor="middle" x="181.45" y="-45" font-family="Helvetica,sans-Serif" font-size="10.00">Animal::generatePounds</text>
</a>
</g>
</g>
<!-- Node1&#45;&gt;Node2 -->
<g id="edge1" class="edge">
<title>Node1&#45;&gt;Node2</title>
<path fill="none" stroke="#63b8ff" d="M82.66,-34.55C90.47,-35.62 98.87,-36.78 107.35,-37.94"/>
<polygon fill="#63b8ff" stroke="#63b8ff" points="106.62,-41.38 117.01,-39.27 107.58,-34.44 106.62,-41.38"/>
</g>
<!-- Node3 -->
<g id="node3" class="node">
<title>Node3</title>
<g id="a_node3"><a xlink:href="classAnimal.html#acde9807bf2eadb3fb6a8650ba7ccfa43" target="_top" xlink:title="Validates &#39;weight&#39; based on specified ruleset.">
<polygon fill="white" stroke="#666666" points="240.16,-20 122.73,-20 122.73,0 240.16,0 240.16,-20"/>
<text text-anchor="middle" x="181.45" y="-7" font-family="Helvetica,sans-Serif" font-size="10.00">Animal::validateWeight</text>
</a>
</g>
</g>
<!-- Node1&#45;&gt;Node3 -->
<g id="edge2" class="edge">
<title>Node1&#45;&gt;Node3</title>
<path fill="none" stroke="#63b8ff" d="M82.66,-23.45C91.59,-22.23 101.29,-20.89 111.01,-19.55"/>
<polygon fill="#63b8ff" stroke="#63b8ff" points="111.45,-23.03 120.88,-18.2 110.49,-16.09 111.45,-23.03"/>
</g>
</g>
</svg>
