<?xml version="1.0" encoding="UTF-8" standalone="no"?>
<!DOCTYPE svg PUBLIC "-//W3C//DTD SVG 1.1//EN"
 "http://www.w3.org/Graphics/SVG/1.1/DTD/svg11.dtd">
<!-- Generated by graphviz version 7.0.5 (20221223.1930)
 -->
<!-- Title: Mammal::getColor Pages: 1 -->
<svg width="325pt" height="28pt"
 viewBox="0.00 0.00 324.73 28.00" xmlns="http://www.w3.org/2000/svg" xmlns:xlink="http://www.w3.org/1999/xlink">
<g id="graph0" class="graph" transform="scale(1 1) rotate(0) translate(4 24)">
<title>Mammal::getColor</title>
<!-- Node1 -->
<g id="node1" class="node">
<title>Node1</title>
<g id="a_node1"><a xlink:title="Returns color of Mammal.">
<polygon fill="#999999" stroke="#666666" points="316.57,-20 219.19,-20 219.19,0 316.57,0 316.57,-20"/>
<text text-anchor="middle" x="267.88" y="-7" font-family="Helvetica,sans-Serif" font-size="10.00">Mammal::getColor</text>
</a>
</g>
</g>
<!-- Node2 -->
<g id="node2" class="node">
<title>Node2</title>
<g id="a_node2"><a xlink:href="classMammal.html#ab20372fdea68db8cdf54929f1f6f4e31" target="_top" xlink:title="Prints information about Mammal (Node, Animal, &#39;classification&#39;, &#39;color&#39;)">
<polygon fill="white" stroke="#666666" points="182.99,-20 98.18,-20 98.18,0 182.99,0 182.99,-20"/>
<text text-anchor="middle" x="140.59" y="-7" font-family="Helvetica,sans-Serif" font-size="10.00">Mammal::dump</text>
</a>
</g>
</g>
<!-- Node1&#45;&gt;Node2 -->
<g id="edge1" class="edge">
<title>Node1&#45;&gt;Node2</title>
<path fill="none" stroke="#63b8ff" d="M207.36,-10C199.2,-10 190.96,-10 183.21,-10"/>
<polygon fill="#63b8ff" stroke="#63b8ff" points="207.29,-13.5 217.29,-10 207.29,-6.5 207.29,-13.5"/>
</g>
<!-- Node3 -->
<g id="node3" class="node">
<title>Node3</title>
<g id="a_node3"><a xlink:href="classCat.html#a85f15f727bab7daf77a5c6284e9e50cb" target="_top" xlink:title="Prints information about Cat (Node, Animal, Mammal, Name)">
<polygon fill="white" stroke="#666666" points="62.2,-20 -0.07,-20 -0.07,0 62.2,0 62.2,-20"/>
<text text-anchor="middle" x="31.07" y="-7" font-family="Helvetica,sans-Serif" font-size="10.00">Cat::dump</text>
</a>
</g>
</g>
<!-- Node2&#45;&gt;Node3 -->
<g id="edge2" class="edge">
<title>Node2&#45;&gt;Node3</title>
<path fill="none" stroke="#63b8ff" d="M86.32,-10C78.21,-10 70.08,-10 62.68,-10"/>
<polygon fill="#63b8ff" stroke="#63b8ff" points="86.19,-13.5 96.19,-10 86.19,-6.5 86.19,-13.5"/>
</g>
</g>
</svg>
