<?xml version="1.0" encoding="UTF-8" standalone="no"?>
<!DOCTYPE svg PUBLIC "-//W3C//DTD SVG 1.1//EN"
 "http://www.w3.org/Graphics/SVG/1.1/DTD/svg11.dtd">
<!-- Generated by graphviz version 7.0.5 (20221223.1930)
 -->
<!-- Title: Cat::Cat Pages: 1 -->
<!--zoomable 180 -->
<svg id="main" version="1.1" xmlns="http://www.w3.org/2000/svg" xmlns:xlink="http://www.w3.org/1999/xlink" xml:space="preserve" onload="init(evt)">
<style type="text/css"><![CDATA[
.edge:hover path { stroke: red; }
.edge:hover polygon { stroke: red; fill: red; }
]]></style>
<script type="text/javascript"><![CDATA[
var edges = document.getElementsByTagName('g');
if (edges && edges.length) {
  for (var i=0;i<edges.length;i++) {
    if (edges[i].id.substr(0,4)=='edge') {
      edges[i].setAttribute('class','edge');
    }
  }
}
]]></script>
        <defs>
                <circle id="rim" cx="0" cy="0" r="7"/>
                <circle id="rim2" cx="0" cy="0" r="3.5"/>
                <g id="zoomPlus">
                        <use xlink:href="#rim" fill="#404040">
                                <set attributeName="fill" to="#808080" begin="zoomplus.mouseover" end="zoomplus.mouseout"/>
                        </use>
                        <path d="M-4,0h8M0,-4v8" fill="none" stroke="white" stroke-width="1.5" pointer-events="none"/>
                </g>
                <g id="zoomMin">
                        <use xlink:href="#rim" fill="#404040">
                                <set attributeName="fill" to="#808080" begin="zoomminus.mouseover" end="zoomminus.mouseout"/>
                        </use>
                        <path d="M-4,0h8" fill="none" stroke="white" stroke-width="1.5" pointer-events="none"/>
                </g>
                <g id="dirArrow">
                        <path fill="none" stroke="white" stroke-width="1.5" d="M0,-3.0v7 M-2.5,-0.5L0,-3.0L2.5,-0.5"/>
                </g>
               <g id="resetDef">
                       <use xlink:href="#rim2" fill="#404040">
                               <set attributeName="fill" to="#808080" begin="reset.mouseover" end="reset.mouseout"/>
                       </use>
               </g>
        </defs>

<script type="text/javascript">
var viewWidth = 590;
var viewHeight = 180;
var sectionId = 'dynsection-5';
</script>
<script xlink:href="svgpan.js"/>
<svg id="graph" class="graph">
<g id="viewport">
<title>Cat::Cat</title>
<!-- Node1 -->
<g id="node1" class="node">
<title>Node1</title>
<g id="a_node1"><a xlink:title="Generates a Cat with a specified Name, &#39;weight&#39; and Gender.">
<polygon fill="#999999" stroke="#666666" points="52.52,-115 0.16,-115 0.16,-95 52.52,-95 52.52,-115"/>
<text text-anchor="middle" x="26.34" y="-102" font-family="Helvetica,sans-Serif" font-size="10.00">Cat::Cat</text>
</a>
</g>
</g>
<!-- Node2 -->
<g id="node2" class="node">
<title>Node2</title>
<g id="a_node2"><a xlink:href="classMammal.html#abf70435fbb0b7a21bb228b6a89c3d271" target="_top" xlink:title="Generates a Mammal with a specified &#39;weight&#39; and Gender.">
<polygon fill="white" stroke="#666666" points="187.02,-134 88.57,-134 88.57,-114 187.02,-114 187.02,-134"/>
<text text-anchor="middle" x="137.79" y="-121" font-family="Helvetica,sans-Serif" font-size="10.00">Mammal::Mammal</text>
</a>
</g>
</g>
<!-- Node1&#45;&gt;Node2 -->
<g id="edge1" class="edge">
<title>Node1&#45;&gt;Node2</title>
<path fill="none" stroke="#63b8ff" d="M53,-109.45C60.29,-110.72 68.56,-112.16 76.98,-113.62"/>
<polygon fill="#63b8ff" stroke="#63b8ff" points="76.14,-117.02 86.59,-115.29 77.34,-110.13 76.14,-117.02"/>
</g>
<!-- Node4 -->
<g id="node4" class="node">
<title>Node4</title>
<g id="a_node4"><a xlink:href="classCat.html#af4a79f34cbaf6a5059a1d0863f8072bb" target="_top" xlink:title="Set the Cat name.">
<polygon fill="white" stroke="#666666" points="176.43,-96 99.16,-96 99.16,-76 176.43,-76 176.43,-96"/>
<text text-anchor="middle" x="137.79" y="-83" font-family="Helvetica,sans-Serif" font-size="10.00">Cat::setName</text>
</a>
</g>
</g>
<!-- Node1&#45;&gt;Node4 -->
<g id="edge3" class="edge">
<title>Node1&#45;&gt;Node4</title>
<path fill="none" stroke="#63b8ff" d="M53,-100.55C63.34,-98.75 75.64,-96.62 87.58,-94.54"/>
<polygon fill="#63b8ff" stroke="#63b8ff" points="88.1,-98.01 97.35,-92.85 86.9,-91.11 88.1,-98.01"/>
</g>
<!-- Node3 -->
<g id="node3" class="node">
<title>Node3</title>
<g id="a_node3"><a xlink:href="classAnimal.html#acde9807bf2eadb3fb6a8650ba7ccfa43" target="_top" xlink:title="Validates &#39;weight&#39; based on specified ruleset.">
<polygon fill="white" stroke="#666666" points="340.48,-134 223.05,-134 223.05,-114 340.48,-114 340.48,-134"/>
<text text-anchor="middle" x="281.76" y="-121" font-family="Helvetica,sans-Serif" font-size="10.00">Animal::validateWeight</text>
</a>
</g>
</g>
<!-- Node2&#45;&gt;Node3 -->
<g id="edge2" class="edge">
<title>Node2&#45;&gt;Node3</title>
<path fill="none" stroke="#63b8ff" d="M187.25,-124C195.01,-124 203.16,-124 211.29,-124"/>
<polygon fill="#63b8ff" stroke="#63b8ff" points="211.2,-127.5 221.2,-124 211.2,-120.5 211.2,-127.5"/>
</g>
<!-- Node5 -->
<g id="node5" class="node">
<title>Node5</title>
<g id="a_node5"><a xlink:href="className.html#adf2e3789f330180d37ad880f17e004cc" target="_top" xlink:title="Check if newName is valid.">
<polygon fill="white" stroke="#666666" points="336.64,-96 226.89,-96 226.89,-76 336.64,-76 336.64,-96"/>
<text text-anchor="middle" x="281.76" y="-83" font-family="Helvetica,sans-Serif" font-size="10.00">Name::validateName</text>
</a>
</g>
</g>
<!-- Node4&#45;&gt;Node5 -->
<g id="edge4" class="edge">
<title>Node4&#45;&gt;Node5</title>
<path fill="none" stroke="#63b8ff" d="M176.84,-86C188.65,-86 202.03,-86 215.17,-86"/>
<polygon fill="#63b8ff" stroke="#63b8ff" points="215.09,-89.5 225.09,-86 215.09,-82.5 215.09,-89.5"/>
</g>
<!-- Node6 -->
<g id="node6" class="node">
<title>Node6</title>
<g id="a_node6"><a xlink:href="className.html#a528a6452c92fdd26082cd1f1ba96f0ee" target="_top" xlink:title="Return true if newName&#39;s interior whitespace is trimmed.">
<polygon fill="white" stroke="#666666" points="581.89,-172 376.86,-172 376.86,-152 581.89,-152 581.89,-172"/>
<text text-anchor="middle" x="479.38" y="-159" font-family="Helvetica,sans-Serif" font-size="10.00">Name::validateInteriorWhitespaceTrimmed</text>
</a>
</g>
</g>
<!-- Node5&#45;&gt;Node6 -->
<g id="edge5" class="edge">
<title>Node5&#45;&gt;Node6</title>
<path fill="none" stroke="#63b8ff" d="M323.15,-96.39C329.24,-98.76 335.26,-101.6 340.62,-105 360.27,-117.45 356.19,-131.88 376.62,-143 379.68,-144.66 382.86,-146.19 386.12,-147.58"/>
<polygon fill="#63b8ff" stroke="#63b8ff" points="384.77,-150.81 395.36,-151.05 387.24,-144.26 384.77,-150.81"/>
</g>
<!-- Node7 -->
<g id="node7" class="node">
<title>Node7</title>
<g id="a_node7"><a xlink:href="className.html#a48ffe2521a489104cee5718de979a57a" target="_top" xlink:title="Return true if newName only contains A &#45; Z, a &#45; z, 0&#45;9, space and &#45;">
<polygon fill="white" stroke="#666666" points="556.83,-134 401.92,-134 401.92,-114 556.83,-114 556.83,-134"/>
<text text-anchor="middle" x="479.38" y="-121" font-family="Helvetica,sans-Serif" font-size="10.00">Name::validateNoSpecialChars</text>
</a>
</g>
</g>
<!-- Node5&#45;&gt;Node7 -->
<g id="edge6" class="edge">
<title>Node5&#45;&gt;Node7</title>
<path fill="none" stroke="#63b8ff" d="M333.88,-96.49C347.74,-99.3 362.75,-102.3 376.62,-105 387.54,-107.12 399.12,-109.33 410.41,-111.46"/>
<polygon fill="#63b8ff" stroke="#63b8ff" points="409.61,-114.87 420.08,-113.27 410.9,-107.99 409.61,-114.87"/>
</g>
<!-- Node8 -->
<g id="node8" class="node">
<title>Node8</title>
<g id="a_node8"><a xlink:href="className.html#a0af5e33bf02472905a9e9d0b9f9510cf" target="_top" xlink:title="Return true if newName is not empty.">
<polygon fill="white" stroke="#666666" points="542.48,-96 416.27,-96 416.27,-76 542.48,-76 542.48,-96"/>
<text text-anchor="middle" x="479.38" y="-83" font-family="Helvetica,sans-Serif" font-size="10.00">Name::validateNotEmpty</text>
</a>
</g>
</g>
<!-- Node5&#45;&gt;Node8 -->
<g id="edge7" class="edge">
<title>Node5&#45;&gt;Node8</title>
<path fill="none" stroke="#63b8ff" d="M336.99,-86C357.98,-86 382.34,-86 404.86,-86"/>
<polygon fill="#63b8ff" stroke="#63b8ff" points="404.58,-89.5 414.58,-86 404.58,-82.5 404.58,-89.5"/>
</g>
<!-- Node9 -->
<g id="node9" class="node">
<title>Node9</title>
<g id="a_node9"><a xlink:href="className.html#a024eecc170d4ba3e3fb4f05b35078478" target="_top" xlink:title="Return true if newName starts with an alphabetic character (A &#45; Z or a &#45; z)">
<polygon fill="white" stroke="#666666" points="556.77,-58 401.98,-58 401.98,-38 556.77,-38 556.77,-58"/>
<text text-anchor="middle" x="479.38" y="-45" font-family="Helvetica,sans-Serif" font-size="10.00">Name::validateStartsWithAlpha</text>
</a>
</g>
</g>
<!-- Node5&#45;&gt;Node9 -->
<g id="edge8" class="edge">
<title>Node5&#45;&gt;Node9</title>
<path fill="none" stroke="#63b8ff" d="M333.88,-75.51C347.74,-72.7 362.75,-69.7 376.62,-67 387.54,-64.88 399.12,-62.67 410.41,-60.54"/>
<polygon fill="#63b8ff" stroke="#63b8ff" points="410.9,-64.01 420.08,-58.73 409.61,-57.13 410.9,-64.01"/>
</g>
<!-- Node10 -->
<g id="node10" class="node">
<title>Node10</title>
<g id="a_node10"><a xlink:href="className.html#a8004ce0cca7df10725e0e34cd541f274" target="_top" xlink:title="Return true if newName is left and right trimmed for whitespace.">
<polygon fill="white" stroke="#666666" points="540.52,-20 418.23,-20 418.23,0 540.52,0 540.52,-20"/>
<text text-anchor="middle" x="479.38" y="-7" font-family="Helvetica,sans-Serif" font-size="10.00">Name::validateTrimmed</text>
</a>
</g>
</g>
<!-- Node5&#45;&gt;Node10 -->
<g id="edge9" class="edge">
<title>Node5&#45;&gt;Node10</title>
<path fill="none" stroke="#63b8ff" d="M296.25,-75.62C313.78,-62.67 345.81,-40.78 376.62,-29 386.17,-25.35 396.51,-22.38 406.81,-19.97"/>
<polygon fill="#63b8ff" stroke="#63b8ff" points="407.41,-23.42 416.45,-17.89 405.93,-16.58 407.41,-23.42"/>
</g>
</g>
</svg>
        <g id="navigator" transform="translate(0 0)" fill="#404254">
                <rect fill="#f2f5e9" fill-opacity="0.5" stroke="#606060" stroke-width=".5" x="0" y="0" width="60" height="60"/>
                <use id="zoomplus" xlink:href="#zoomPlus" x="17" y="9" onmousedown="handleZoom(evt,'in')"/>
                <use id="zoomminus" xlink:href="#zoomMin" x="42" y="9" onmousedown="handleZoom(evt,'out')"/>
                <use id="reset" xlink:href="#resetDef" x="30" y="36" onmousedown="handleReset()"/>
                <g id="arrowUp" xlink:href="#dirArrow" transform="translate(30 24)" onmousedown="handlePan(0,-1)">
                  <use xlink:href="#rim" fill="#404040">
                        <set attributeName="fill" to="#808080" begin="arrowUp.mouseover" end="arrowUp.mouseout"/>
                  </use>
                  <path fill="none" stroke="white" stroke-width="1.5" d="M0,-3.0v7 M-2.5,-0.5L0,-3.0L2.5,-0.5"/>
                </g>
                <g id="arrowRight" xlink:href="#dirArrow" transform="rotate(90) translate(36 -43)" onmousedown="handlePan(1,0)">
                  <use xlink:href="#rim" fill="#404040">
                        <set attributeName="fill" to="#808080" begin="arrowRight.mouseover" end="arrowRight.mouseout"/>
                  </use>
                  <path fill="none" stroke="white" stroke-width="1.5" d="M0,-3.0v7 M-2.5,-0.5L0,-3.0L2.5,-0.5"/>
                </g>
                <g id="arrowDown" xlink:href="#dirArrow" transform="rotate(180) translate(-30 -48)" onmousedown="handlePan(0,1)">
                  <use xlink:href="#rim" fill="#404040">
                        <set attributeName="fill" to="#808080" begin="arrowDown.mouseover" end="arrowDown.mouseout"/>
                  </use>
                  <path fill="none" stroke="white" stroke-width="1.5" d="M0,-3.0v7 M-2.5,-0.5L0,-3.0L2.5,-0.5"/>
                </g>
                <g id="arrowLeft" xlink:href="#dirArrow" transform="rotate(270) translate(-36 17)" onmousedown="handlePan(-1,0)">
                  <use xlink:href="#rim" fill="#404040">
                        <set attributeName="fill" to="#808080" begin="arrowLeft.mouseover" end="arrowLeft.mouseout"/>
                  </use>
                  <path fill="none" stroke="white" stroke-width="1.5" d="M0,-3.0v7 M-2.5,-0.5L0,-3.0L2.5,-0.5"/>
                </g>
        </g>
        <svg viewBox="0 0 15 15" width="100%" height="30px" preserveAspectRatio="xMaxYMin meet">
         <g id="arrow_out" transform="scale(0.3 0.3)">
          <a xlink:href="classCat_a60314b7772165a58e772b51c3820d338_cgraph_org.svg" target="_base">
           <rect id="button" ry="5" rx="5" y="6" x="6" height="38" width="38"
                fill="#f2f5e9" fill-opacity="0.5" stroke="#606060" stroke-width="1.0"/>
           <path id="arrow"
             d="M 11.500037,31.436501 C 11.940474,20.09759 22.043105,11.32322 32.158766,21.979434 L 37.068811,17.246167 C 37.068811,17.246167 37.088388,32 37.088388,32 L 22.160133,31.978069 C 22.160133,31.978069 26.997745,27.140456 26.997745,27.140456 C 18.528582,18.264221 13.291696,25.230495 11.500037,31.436501 z"
             style="fill:#404040;"/>
          </a>
         </g>
        </svg>
</svg>
