<?xml version="1.0" encoding="UTF-8" standalone="no"?>
<!DOCTYPE svg PUBLIC "-//W3C//DTD SVG 1.1//EN"
 "http://www.w3.org/Graphics/SVG/1.1/DTD/svg11.dtd">
<!-- Generated by graphviz version 7.0.5 (20221223.1930)
 -->
<!-- Title: SingleLinkedList::getParentOf Pages: 1 -->
<svg width="593pt" height="142pt"
 viewBox="0.00 0.00 593.02 142.00" xmlns="http://www.w3.org/2000/svg" xmlns:xlink="http://www.w3.org/1999/xlink">
<g id="graph0" class="graph" transform="scale(1 1) rotate(0) translate(4 138)">
<title>SingleLinkedList::getParentOf</title>
<!-- Node1 -->
<g id="node1" class="node">
<title>Node1</title>
<g id="a_node1"><a xlink:title="Returns &quot;parent&quot; Node (previous) of thisNode.">
<polygon fill="#999999" stroke="#666666" points="148.46,-96 -0.15,-96 -0.15,-76 148.46,-76 148.46,-96"/>
<text text-anchor="middle" x="74.15" y="-83" font-family="Helvetica,sans-Serif" font-size="10.00">SingleLinkedList::getParentOf</text>
</a>
</g>
</g>
<!-- Node2 -->
<g id="node2" class="node">
<title>Node2</title>
<g id="a_node2"><a xlink:href="classSingleLinkedList.html#a28ef6274454e216111ee060540b7944f" target="_top" xlink:title="Indicates if a specific object is present in the SingleLinkedList.">
<polygon fill="white" stroke="#666666" points="303.68,-134 193.79,-134 193.79,-114 303.68,-114 303.68,-134"/>
<text text-anchor="middle" x="248.73" y="-121" font-family="Helvetica,sans-Serif" font-size="10.00">SingleLinkedList::isIn</text>
</a>
</g>
</g>
<!-- Node1&#45;&gt;Node2 -->
<g id="edge1" class="edge">
<title>Node1&#45;&gt;Node2</title>
<path fill="none" stroke="#63b8ff" d="M122.77,-96.48C143.33,-101.01 167.58,-106.35 189.22,-111.12"/>
<polygon fill="#63b8ff" stroke="#63b8ff" points="188.27,-114.49 198.79,-113.22 189.78,-107.66 188.27,-114.49"/>
</g>
<!-- Node3 -->
<g id="node3" class="node">
<title>Node3</title>
<g id="a_node3"><a xlink:href="classNode.html#a9f69825adc179781257e406b3255a93e" target="_top" xlink:title="Ensures Node and all its members are healthy (presumably)">
<polygon fill="white" stroke="#666666" points="438.78,-96 358.92,-96 358.92,-76 438.78,-76 438.78,-96"/>
<text text-anchor="middle" x="398.85" y="-83" font-family="Helvetica,sans-Serif" font-size="10.00">Node::validate</text>
</a>
</g>
</g>
<!-- Node1&#45;&gt;Node3 -->
<g id="edge2" class="edge">
<title>Node1&#45;&gt;Node3</title>
<path fill="none" stroke="#63b8ff" d="M148.78,-86C209.61,-86 294.34,-86 347.62,-86"/>
<polygon fill="#63b8ff" stroke="#63b8ff" points="347.31,-89.5 357.31,-86 347.31,-82.5 347.31,-89.5"/>
</g>
<!-- Node4 -->
<g id="node4" class="node">
<title>Node4</title>
<g id="a_node4"><a xlink:href="classSingleLinkedList.html#a4e475a8028331e1eee38a655f88706a6" target="_top" xlink:title="Iterates and validates every object in a SingleLinkedList based on specified ruleset.">
<polygon fill="white" stroke="#666666" points="313.08,-58 184.38,-58 184.38,-38 313.08,-38 313.08,-58"/>
<text text-anchor="middle" x="248.73" y="-45" font-family="Helvetica,sans-Serif" font-size="10.00">SingleLinkedList::validate</text>
</a>
</g>
</g>
<!-- Node1&#45;&gt;Node4 -->
<g id="edge3" class="edge">
<title>Node1&#45;&gt;Node4</title>
<path fill="none" stroke="#63b8ff" d="M122.77,-75.52C143.33,-70.99 167.58,-65.65 189.22,-60.88"/>
<polygon fill="#63b8ff" stroke="#63b8ff" points="189.78,-64.34 198.79,-58.78 188.27,-57.51 189.78,-64.34"/>
</g>
<!-- Node4&#45;&gt;Node3 -->
<g id="edge5" class="edge">
<title>Node4&#45;&gt;Node3</title>
<path fill="none" stroke="#63b8ff" d="M290.6,-58.48C308.27,-63.02 329.11,-68.37 347.71,-73.14"/>
<polygon fill="#63b8ff" stroke="#63b8ff" points="346.63,-76.47 357.18,-75.57 348.36,-69.69 346.63,-76.47"/>
</g>
<!-- Node5 -->
<g id="node5" class="node">
<title>Node5</title>
<g id="a_node5"><a xlink:href="classContainer.html#a4ba5dfecf5b1505bd08df17f0c2436c5" target="_top" xlink:title="Generates a Container to place objects into.">
<polygon fill="white" stroke="#666666" points="585.26,-39 484.3,-39 484.3,-19 585.26,-19 585.26,-39"/>
<text text-anchor="middle" x="534.78" y="-26" font-family="Helvetica,sans-Serif" font-size="10.00">Container::isEmpty</text>
</a>
</g>
</g>
<!-- Node4&#45;&gt;Node5 -->
<g id="edge4" class="edge">
<title>Node4&#45;&gt;Node5</title>
<path fill="none" stroke="#63b8ff" d="M313.48,-43.74C361.08,-40.55 425.73,-36.23 472.68,-33.09"/>
<polygon fill="#63b8ff" stroke="#63b8ff" points="472.66,-36.6 482.41,-32.44 472.2,-29.61 472.66,-36.6"/>
</g>
<!-- Node6 -->
<g id="node6" class="node">
<title>Node6</title>
<g id="a_node6"><a xlink:href="classContainer.html#a654be97698b35ecb309b27f8a075b216" target="_top" xlink:title="Validates that Node and Container follow a specified ruleset.">
<polygon fill="white" stroke="#666666" points="448.73,-20 348.96,-20 348.96,0 448.73,0 448.73,-20"/>
<text text-anchor="middle" x="398.85" y="-7" font-family="Helvetica,sans-Serif" font-size="10.00">Container::validate</text>
</a>
</g>
</g>
<!-- Node4&#45;&gt;Node6 -->
<g id="edge6" class="edge">
<title>Node4&#45;&gt;Node6</title>
<path fill="none" stroke="#63b8ff" d="M290.6,-37.52C307.76,-33.11 327.92,-27.94 346.1,-23.28"/>
<polygon fill="#63b8ff" stroke="#63b8ff" points="346.83,-26.7 355.65,-20.83 345.09,-19.92 346.83,-26.7"/>
</g>
<!-- Node6&#45;&gt;Node5 -->
<g id="edge7" class="edge">
<title>Node6&#45;&gt;Node5</title>
<path fill="none" stroke="#63b8ff" d="M448.96,-16.97C456.77,-18.08 464.94,-19.23 472.98,-20.38"/>
<polygon fill="#63b8ff" stroke="#63b8ff" points="472.34,-23.82 482.73,-21.76 473.32,-16.89 472.34,-23.82"/>
</g>
</g>
</svg>
