<?xml version="1.0" encoding="UTF-8" standalone="no"?>
<!DOCTYPE svg PUBLIC "-//W3C//DTD SVG 1.1//EN"
 "http://www.w3.org/Graphics/SVG/1.1/DTD/svg11.dtd">
<!-- Generated by graphviz version 7.0.5 (20221223.1930)
 -->
<!-- Title: SingleLinkedList::dump Pages: 1 -->
<svg width="253pt" height="66pt"
 viewBox="0.00 0.00 253.33 66.00" xmlns="http://www.w3.org/2000/svg" xmlns:xlink="http://www.w3.org/1999/xlink">
<g id="graph0" class="graph" transform="scale(1 1) rotate(0) translate(4 62)">
<title>SingleLinkedList::dump</title>
<!-- Node1 -->
<g id="node1" class="node">
<title>Node1</title>
<g id="a_node1"><a xlink:title="Iterates and prints information for every object in a SingleLinkedList.">
<polygon fill="#999999" stroke="#666666" points="119.6,-39 -0.2,-39 -0.2,-19 119.6,-19 119.6,-39"/>
<text text-anchor="middle" x="59.7" y="-26" font-family="Helvetica,sans-Serif" font-size="10.00">SingleLinkedList::dump</text>
</a>
</g>
</g>
<!-- Node2 -->
<g id="node2" class="node">
<title>Node2</title>
<g id="a_node2"><a xlink:href="classContainer.html#a75b21971a3106e2a45818384748189d3" target="_top" xlink:title="Prints information of a Container, including class, address, and &#39;count&#39;.">
<polygon fill="white" stroke="#666666" points="245.29,-58 155.43,-58 155.43,-38 245.29,-38 245.29,-58"/>
<text text-anchor="middle" x="200.36" y="-45" font-family="Helvetica,sans-Serif" font-size="10.00">Container::dump</text>
</a>
</g>
</g>
<!-- Node1&#45;&gt;Node2 -->
<g id="edge1" class="edge">
<title>Node1&#45;&gt;Node2</title>
<path fill="none" stroke="#63b8ff" d="M119.91,-37.11C127.82,-38.2 135.91,-39.31 143.76,-40.38"/>
<polygon fill="#63b8ff" stroke="#63b8ff" points="143.15,-43.83 153.54,-41.72 144.1,-36.9 143.15,-43.83"/>
</g>
<!-- Node3 -->
<g id="node3" class="node">
<title>Node3</title>
<g id="a_node3"><a xlink:href="classNode.html#aafe01f5fb0aa5034d12b210065427110" target="_top" xlink:title="Prints information of a Node, including class, address, and next Node.">
<polygon fill="white" stroke="#666666" points="235.84,-20 164.88,-20 164.88,0 235.84,0 235.84,-20"/>
<text text-anchor="middle" x="200.36" y="-7" font-family="Helvetica,sans-Serif" font-size="10.00">Node::dump</text>
</a>
</g>
</g>
<!-- Node1&#45;&gt;Node3 -->
<g id="edge2" class="edge">
<title>Node1&#45;&gt;Node3</title>
<path fill="none" stroke="#63b8ff" d="M119.91,-20.89C131.04,-19.36 142.54,-17.79 153.2,-16.33"/>
<polygon fill="#63b8ff" stroke="#63b8ff" points="153.46,-19.82 162.89,-15 152.51,-12.89 153.46,-19.82"/>
</g>
</g>
</svg>
