<?xml version="1.0" encoding="UTF-8" standalone="no"?>
<!DOCTYPE svg PUBLIC "-//W3C//DTD SVG 1.1//EN"
 "http://www.w3.org/Graphics/SVG/1.1/DTD/svg11.dtd">
<!-- Generated by graphviz version 7.0.5 (20221223.1930)
 -->
<!-- Title: Name::reset Pages: 1 -->
<svg width="465pt" height="256pt"
 viewBox="0.00 0.00 465.35 256.00" xmlns="http://www.w3.org/2000/svg" xmlns:xlink="http://www.w3.org/1999/xlink">
<g id="graph0" class="graph" transform="scale(1 1) rotate(0) translate(4 252)">
<title>Name::reset</title>
<!-- Node1 -->
<g id="node1" class="node">
<title>Node1</title>
<g id="a_node1"><a xlink:title="Erase and then re&#45;load the names database or set the serial number to 0.">
<polygon fill="#999999" stroke="#666666" points="70.7,-153 -0.23,-153 -0.23,-133 70.7,-133 70.7,-153"/>
<text text-anchor="middle" x="35.23" y="-140" font-family="Helvetica,sans-Serif" font-size="10.00">Name::reset</text>
</a>
</g>
</g>
<!-- Node2 -->
<g id="node2" class="node">
<title>Node2</title>
<g id="a_node2"><a xlink:href="Trim_8cpp.html#a4279db14ccdb56c5983718defd20af7b" target="_top" xlink:title="This function does the following:">
<polygon fill="white" stroke="#666666" points="177.31,-210 144.99,-210 144.99,-190 177.31,-190 177.31,-210"/>
<text text-anchor="middle" x="161.15" y="-197" font-family="Helvetica,sans-Serif" font-size="10.00">trim</text>
</a>
</g>
</g>
<!-- Node1&#45;&gt;Node2 -->
<g id="edge1" class="edge">
<title>Node1&#45;&gt;Node2</title>
<path fill="none" stroke="#63b8ff" d="M58.96,-153.45C80.24,-163.24 112.01,-177.85 134.25,-188.09"/>
<polygon fill="#63b8ff" stroke="#63b8ff" points="132.7,-191.22 143.25,-192.22 135.62,-184.87 132.7,-191.22"/>
</g>
<!-- Node5 -->
<g id="node5" class="node">
<title>Node5</title>
<g id="a_node5"><a xlink:href="className.html#adf2e3789f330180d37ad880f17e004cc" target="_top" xlink:title="Check if newName is valid.">
<polygon fill="white" stroke="#666666" points="216.02,-115 106.28,-115 106.28,-95 216.02,-95 216.02,-115"/>
<text text-anchor="middle" x="161.15" y="-102" font-family="Helvetica,sans-Serif" font-size="10.00">Name::validateName</text>
</a>
</g>
</g>
<!-- Node1&#45;&gt;Node5 -->
<g id="edge4" class="edge">
<title>Node1&#45;&gt;Node5</title>
<path fill="none" stroke="#63b8ff" d="M70.42,-132.52C84.24,-128.28 100.37,-123.33 115.12,-118.81"/>
<polygon fill="#63b8ff" stroke="#63b8ff" points="116.09,-122.17 124.63,-115.89 114.04,-115.48 116.09,-122.17"/>
</g>
<!-- Node3 -->
<g id="node3" class="node">
<title>Node3</title>
<g id="a_node3"><a xlink:href="Trim_8cpp.html#a398351d9936e6de09064add80fa3cc4e" target="_top" xlink:title="Classify a character into a CharClass.">
<polygon fill="white" stroke="#666666" points="390.05,-248 319.13,-248 319.13,-228 390.05,-228 390.05,-248"/>
<text text-anchor="middle" x="354.59" y="-235" font-family="Helvetica,sans-Serif" font-size="10.00">classifyChar</text>
</a>
</g>
</g>
<!-- Node2&#45;&gt;Node3 -->
<g id="edge2" class="edge">
<title>Node2&#45;&gt;Node3</title>
<path fill="none" stroke="#63b8ff" d="M177.68,-203.41C195.55,-207.3 225.77,-213.81 251.84,-219 270.05,-222.63 290.15,-226.43 307.63,-229.66"/>
<polygon fill="#63b8ff" stroke="#63b8ff" points="306.75,-233.06 317.21,-231.43 308.01,-226.17 306.75,-233.06"/>
</g>
<!-- Node4 -->
<g id="node4" class="node">
<title>Node4</title>
<g id="a_node4"><a xlink:href="Trim_8cpp.html#a1def1a684f40ed2028c47b59da0c86f3" target="_top" xlink:title="Shift characters in a string to the left.">
<polygon fill="white" stroke="#666666" points="381.33,-210 327.85,-210 327.85,-190 381.33,-190 381.33,-210"/>
<text text-anchor="middle" x="354.59" y="-197" font-family="Helvetica,sans-Serif" font-size="10.00">shift_left</text>
</a>
</g>
</g>
<!-- Node2&#45;&gt;Node4 -->
<g id="edge3" class="edge">
<title>Node2&#45;&gt;Node4</title>
<path fill="none" stroke="#63b8ff" d="M177.49,-200C207.27,-200 273.69,-200 315.91,-200"/>
<polygon fill="#63b8ff" stroke="#63b8ff" points="315.87,-203.5 325.87,-200 315.87,-196.5 315.87,-203.5"/>
</g>
<!-- Node6 -->
<g id="node6" class="node">
<title>Node6</title>
<g id="a_node6"><a xlink:href="className.html#a528a6452c92fdd26082cd1f1ba96f0ee" target="_top" xlink:title="Return true if newName&#39;s interior whitespace is trimmed.">
<polygon fill="white" stroke="#666666" points="457.11,-172 252.08,-172 252.08,-152 457.11,-152 457.11,-172"/>
<text text-anchor="middle" x="354.59" y="-159" font-family="Helvetica,sans-Serif" font-size="10.00">Name::validateInteriorWhitespaceTrimmed</text>
</a>
</g>
</g>
<!-- Node5&#45;&gt;Node6 -->
<g id="edge5" class="edge">
<title>Node5&#45;&gt;Node6</title>
<path fill="none" stroke="#63b8ff" d="M183.05,-115.39C200.93,-123.89 227.55,-135.68 251.84,-143 259.26,-145.24 267.08,-147.26 274.94,-149.08"/>
<polygon fill="#63b8ff" stroke="#63b8ff" points="274.05,-152.47 284.57,-151.19 275.55,-145.63 274.05,-152.47"/>
</g>
<!-- Node7 -->
<g id="node7" class="node">
<title>Node7</title>
<g id="a_node7"><a xlink:href="className.html#a48ffe2521a489104cee5718de979a57a" target="_top" xlink:title="Return true if newName only contains A &#45; Z, a &#45; z, 0&#45;9, space and &#45;">
<polygon fill="white" stroke="#666666" points="432.05,-134 277.14,-134 277.14,-114 432.05,-114 432.05,-134"/>
<text text-anchor="middle" x="354.59" y="-121" font-family="Helvetica,sans-Serif" font-size="10.00">Name::validateNoSpecialChars</text>
</a>
</g>
</g>
<!-- Node5&#45;&gt;Node7 -->
<g id="edge6" class="edge">
<title>Node5&#45;&gt;Node7</title>
<path fill="none" stroke="#63b8ff" d="M216.5,-110.39C231.91,-111.92 249.1,-113.63 265.95,-115.3"/>
<polygon fill="#63b8ff" stroke="#63b8ff" points="265.15,-118.74 275.45,-116.24 265.85,-111.77 265.15,-118.74"/>
</g>
<!-- Node8 -->
<g id="node8" class="node">
<title>Node8</title>
<g id="a_node8"><a xlink:href="className.html#a0af5e33bf02472905a9e9d0b9f9510cf" target="_top" xlink:title="Return true if newName is not empty.">
<polygon fill="white" stroke="#666666" points="417.69,-96 291.49,-96 291.49,-76 417.69,-76 417.69,-96"/>
<text text-anchor="middle" x="354.59" y="-83" font-family="Helvetica,sans-Serif" font-size="10.00">Name::validateNotEmpty</text>
</a>
</g>
</g>
<!-- Node5&#45;&gt;Node8 -->
<g id="edge7" class="edge">
<title>Node5&#45;&gt;Node8</title>
<path fill="none" stroke="#63b8ff" d="M216.5,-99.61C236.18,-97.65 258.74,-95.41 279.81,-93.32"/>
<polygon fill="#63b8ff" stroke="#63b8ff" points="279.89,-96.83 289.49,-92.36 279.2,-89.87 279.89,-96.83"/>
</g>
<!-- Node9 -->
<g id="node9" class="node">
<title>Node9</title>
<g id="a_node9"><a xlink:href="className.html#a024eecc170d4ba3e3fb4f05b35078478" target="_top" xlink:title="Return true if newName starts with an alphabetic character (A &#45; Z or a &#45; z)">
<polygon fill="white" stroke="#666666" points="431.99,-58 277.2,-58 277.2,-38 431.99,-38 431.99,-58"/>
<text text-anchor="middle" x="354.59" y="-45" font-family="Helvetica,sans-Serif" font-size="10.00">Name::validateStartsWithAlpha</text>
</a>
</g>
</g>
<!-- Node5&#45;&gt;Node9 -->
<g id="edge8" class="edge">
<title>Node5&#45;&gt;Node9</title>
<path fill="none" stroke="#63b8ff" d="M183.05,-94.61C200.93,-86.11 227.55,-74.32 251.84,-67 259.26,-64.76 267.08,-62.74 274.94,-60.92"/>
<polygon fill="#63b8ff" stroke="#63b8ff" points="275.55,-64.37 284.57,-58.81 274.05,-57.53 275.55,-64.37"/>
</g>
<!-- Node10 -->
<g id="node10" class="node">
<title>Node10</title>
<g id="a_node10"><a xlink:href="className.html#a8004ce0cca7df10725e0e34cd541f274" target="_top" xlink:title="Return true if newName is left and right trimmed for whitespace.">
<polygon fill="white" stroke="#666666" points="415.74,-20 293.45,-20 293.45,0 415.74,0 415.74,-20"/>
<text text-anchor="middle" x="354.59" y="-7" font-family="Helvetica,sans-Serif" font-size="10.00">Name::validateTrimmed</text>
</a>
</g>
</g>
<!-- Node5&#45;&gt;Node10 -->
<g id="edge9" class="edge">
<title>Node5&#45;&gt;Node10</title>
<path fill="none" stroke="#63b8ff" d="M170.91,-94.72C185.74,-78.03 217.55,-45.3 251.84,-29 261.19,-24.55 271.5,-21.14 281.84,-18.53"/>
<polygon fill="#63b8ff" stroke="#63b8ff" points="282.59,-21.95 291.57,-16.33 281.05,-15.12 282.59,-21.95"/>
</g>
</g>
</svg>
