<?xml version="1.0" encoding="UTF-8" standalone="no"?>
<!DOCTYPE svg PUBLIC "-//W3C//DTD SVG 1.1//EN"
 "http://www.w3.org/Graphics/SVG/1.1/DTD/svg11.dtd">
<!-- Generated by graphviz version 7.0.5 (20221223.1930)
 -->
<!-- Title: SingleLinkedList::remove Pages: 1 -->
<svg width="757pt" height="142pt"
 viewBox="0.00 0.00 756.75 142.00" xmlns="http://www.w3.org/2000/svg" xmlns:xlink="http://www.w3.org/1999/xlink">
<g id="graph0" class="graph" transform="scale(1 1) rotate(0) translate(4 138)">
<title>SingleLinkedList::remove</title>
<!-- Node1 -->
<g id="node1" class="node">
<title>Node1</title>
<g id="a_node1"><a xlink:title="Removes a Node, &#39;thisNode&#39;, from SingleLinkedList.">
<polygon fill="#999999" stroke="#666666" points="127.59,-96 0.14,-96 0.14,-76 127.59,-76 127.59,-96"/>
<text text-anchor="middle" x="63.86" y="-83" font-family="Helvetica,sans-Serif" font-size="10.00">SingleLinkedList::remove</text>
</a>
</g>
</g>
<!-- Node2 -->
<g id="node2" class="node">
<title>Node2</title>
<g id="a_node2"><a xlink:href="classSingleLinkedList.html#ae5d531b9dd176a59642c64e02bca26c0" target="_top" xlink:title="Returns &quot;parent&quot; Node (previous) of thisNode.">
<polygon fill="white" stroke="#666666" points="312.19,-96 163.58,-96 163.58,-76 312.19,-76 312.19,-96"/>
<text text-anchor="middle" x="237.88" y="-83" font-family="Helvetica,sans-Serif" font-size="10.00">SingleLinkedList::getParentOf</text>
</a>
</g>
</g>
<!-- Node1&#45;&gt;Node2 -->
<g id="edge1" class="edge">
<title>Node1&#45;&gt;Node2</title>
<path fill="none" stroke="#63b8ff" d="M127.94,-86C135.76,-86 143.85,-86 151.94,-86"/>
<polygon fill="#63b8ff" stroke="#63b8ff" points="151.81,-89.5 161.81,-86 151.81,-82.5 151.81,-89.5"/>
</g>
<!-- Node3 -->
<g id="node3" class="node">
<title>Node3</title>
<g id="a_node3"><a xlink:href="classSingleLinkedList.html#a28ef6274454e216111ee060540b7944f" target="_top" xlink:title="Indicates if a specific object is present in the SingleLinkedList.">
<polygon fill="white" stroke="#666666" points="467.4,-134 357.51,-134 357.51,-114 467.4,-114 467.4,-134"/>
<text text-anchor="middle" x="412.46" y="-121" font-family="Helvetica,sans-Serif" font-size="10.00">SingleLinkedList::isIn</text>
</a>
</g>
</g>
<!-- Node1&#45;&gt;Node3 -->
<g id="edge9" class="edge">
<title>Node1&#45;&gt;Node3</title>
<path fill="none" stroke="#63b8ff" d="M113.46,-96.48C129.41,-99.61 147.27,-102.79 163.73,-105 225.21,-113.24 295.78,-118.22 345.84,-121"/>
<polygon fill="#63b8ff" stroke="#63b8ff" points="345.46,-124.48 355.64,-121.53 345.84,-117.49 345.46,-124.48"/>
</g>
<!-- Node5 -->
<g id="node5" class="node">
<title>Node5</title>
<g id="a_node5"><a xlink:href="classSingleLinkedList.html#a4e475a8028331e1eee38a655f88706a6" target="_top" xlink:title="Iterates and validates every object in a SingleLinkedList based on specified ruleset.">
<polygon fill="white" stroke="#666666" points="476.81,-58 348.11,-58 348.11,-38 476.81,-38 476.81,-58"/>
<text text-anchor="middle" x="412.46" y="-45" font-family="Helvetica,sans-Serif" font-size="10.00">SingleLinkedList::validate</text>
</a>
</g>
</g>
<!-- Node1&#45;&gt;Node5 -->
<g id="edge10" class="edge">
<title>Node1&#45;&gt;Node5</title>
<path fill="none" stroke="#63b8ff" d="M113.46,-75.52C129.41,-72.39 147.27,-69.21 163.73,-67 221.54,-59.25 287.39,-54.39 336.66,-51.52"/>
<polygon fill="#63b8ff" stroke="#63b8ff" points="336.57,-55.04 346.35,-50.98 336.17,-48.05 336.57,-55.04"/>
</g>
<!-- Node2&#45;&gt;Node3 -->
<g id="edge2" class="edge">
<title>Node2&#45;&gt;Node3</title>
<path fill="none" stroke="#63b8ff" d="M286.5,-96.48C307.06,-101.01 331.31,-106.35 352.95,-111.12"/>
<polygon fill="#63b8ff" stroke="#63b8ff" points="352,-114.49 362.52,-113.22 353.51,-107.66 352,-114.49"/>
</g>
<!-- Node4 -->
<g id="node4" class="node">
<title>Node4</title>
<g id="a_node4"><a xlink:href="classNode.html#a9f69825adc179781257e406b3255a93e" target="_top" xlink:title="Ensures Node and all its members are healthy (presumably)">
<polygon fill="white" stroke="#666666" points="602.51,-96 522.65,-96 522.65,-76 602.51,-76 602.51,-96"/>
<text text-anchor="middle" x="562.58" y="-83" font-family="Helvetica,sans-Serif" font-size="10.00">Node::validate</text>
</a>
</g>
</g>
<!-- Node2&#45;&gt;Node4 -->
<g id="edge3" class="edge">
<title>Node2&#45;&gt;Node4</title>
<path fill="none" stroke="#63b8ff" d="M312.51,-86C373.34,-86 458.06,-86 511.35,-86"/>
<polygon fill="#63b8ff" stroke="#63b8ff" points="511.04,-89.5 521.04,-86 511.04,-82.5 511.04,-89.5"/>
</g>
<!-- Node2&#45;&gt;Node5 -->
<g id="edge4" class="edge">
<title>Node2&#45;&gt;Node5</title>
<path fill="none" stroke="#63b8ff" d="M286.5,-75.52C307.06,-70.99 331.31,-65.65 352.95,-60.88"/>
<polygon fill="#63b8ff" stroke="#63b8ff" points="353.51,-64.34 362.52,-58.78 352,-57.51 353.51,-64.34"/>
</g>
<!-- Node5&#45;&gt;Node4 -->
<g id="edge6" class="edge">
<title>Node5&#45;&gt;Node4</title>
<path fill="none" stroke="#63b8ff" d="M454.32,-58.48C471.99,-63.02 492.84,-68.37 511.43,-73.14"/>
<polygon fill="#63b8ff" stroke="#63b8ff" points="510.35,-76.47 520.91,-75.57 512.09,-69.69 510.35,-76.47"/>
</g>
<!-- Node6 -->
<g id="node6" class="node">
<title>Node6</title>
<g id="a_node6"><a xlink:href="classContainer.html#a4ba5dfecf5b1505bd08df17f0c2436c5" target="_top" xlink:title="Generates a Container to place objects into.">
<polygon fill="white" stroke="#666666" points="748.99,-39 648.03,-39 648.03,-19 748.99,-19 748.99,-39"/>
<text text-anchor="middle" x="698.51" y="-26" font-family="Helvetica,sans-Serif" font-size="10.00">Container::isEmpty</text>
</a>
</g>
</g>
<!-- Node5&#45;&gt;Node6 -->
<g id="edge5" class="edge">
<title>Node5&#45;&gt;Node6</title>
<path fill="none" stroke="#63b8ff" d="M477.2,-43.74C524.8,-40.55 589.46,-36.23 636.41,-33.09"/>
<polygon fill="#63b8ff" stroke="#63b8ff" points="636.39,-36.6 646.13,-32.44 635.92,-29.61 636.39,-36.6"/>
</g>
<!-- Node7 -->
<g id="node7" class="node">
<title>Node7</title>
<g id="a_node7"><a xlink:href="classContainer.html#a654be97698b35ecb309b27f8a075b216" target="_top" xlink:title="Validates that Node and Container follow a specified ruleset.">
<polygon fill="white" stroke="#666666" points="612.46,-20 512.69,-20 512.69,0 612.46,0 612.46,-20"/>
<text text-anchor="middle" x="562.58" y="-7" font-family="Helvetica,sans-Serif" font-size="10.00">Container::validate</text>
</a>
</g>
</g>
<!-- Node5&#45;&gt;Node7 -->
<g id="edge7" class="edge">
<title>Node5&#45;&gt;Node7</title>
<path fill="none" stroke="#63b8ff" d="M454.32,-37.52C471.49,-33.11 491.64,-27.94 509.82,-23.28"/>
<polygon fill="#63b8ff" stroke="#63b8ff" points="510.56,-26.7 519.38,-20.83 508.82,-19.92 510.56,-26.7"/>
</g>
<!-- Node7&#45;&gt;Node6 -->
<g id="edge8" class="edge">
<title>Node7&#45;&gt;Node6</title>
<path fill="none" stroke="#63b8ff" d="M612.69,-16.97C620.5,-18.08 628.67,-19.23 636.71,-20.38"/>
<polygon fill="#63b8ff" stroke="#63b8ff" points="636.06,-23.82 646.46,-21.76 637.05,-16.89 636.06,-23.82"/>
</g>
</g>
</svg>
