<?xml version="1.0" encoding="UTF-8" standalone="no"?>
<!DOCTYPE svg PUBLIC "-//W3C//DTD SVG 1.1//EN"
 "http://www.w3.org/Graphics/SVG/1.1/DTD/svg11.dtd">
<!-- Generated by graphviz version 7.0.5 (20221223.1930)
 -->
<!-- Title: Animal::validate Pages: 1 -->
<svg width="236pt" height="66pt"
 viewBox="0.00 0.00 236.08 66.00" xmlns="http://www.w3.org/2000/svg" xmlns:xlink="http://www.w3.org/1999/xlink">
<g id="graph0" class="graph" transform="scale(1 1) rotate(0) translate(4 62)">
<title>Animal::validate</title>
<!-- Node1 -->
<g id="node1" class="node">
<title>Node1</title>
<g id="a_node1"><a xlink:title="Validates Animal based on specified ruleset.">
<polygon fill="#999999" stroke="#666666" points="86.39,-39 0.2,-39 0.2,-19 86.39,-19 86.39,-39"/>
<text text-anchor="middle" x="43.3" y="-26" font-family="Helvetica,sans-Serif" font-size="10.00">Animal::validate</text>
</a>
</g>
</g>
<!-- Node2 -->
<g id="node2" class="node">
<title>Node2</title>
<g id="a_node2"><a xlink:href="classAnimal.html#ae4e9e9cf7a0286c70334400b9310746c" target="_top" xlink:title="Returns &#39;kingdom&#39; of Animal.">
<polygon fill="white" stroke="#666666" points="228.33,-58 122.34,-58 122.34,-38 228.33,-38 228.33,-58"/>
<text text-anchor="middle" x="175.34" y="-45" font-family="Helvetica,sans-Serif" font-size="10.00">Animal::getKingdom</text>
</a>
</g>
</g>
<!-- Node1&#45;&gt;Node2 -->
<g id="edge1" class="edge">
<title>Node1&#45;&gt;Node2</title>
<path fill="none" stroke="#63b8ff" d="M86.88,-35.22C94.53,-36.34 102.65,-37.53 110.75,-38.71"/>
<polygon fill="#63b8ff" stroke="#63b8ff" points="110.22,-42.17 120.63,-40.15 111.24,-35.24 110.22,-42.17"/>
</g>
<!-- Node3 -->
<g id="node3" class="node">
<title>Node3</title>
<g id="a_node3"><a xlink:href="classNode.html#a9f69825adc179781257e406b3255a93e" target="_top" xlink:title="Ensures Node and all its members are healthy (presumably)">
<polygon fill="white" stroke="#666666" points="215.27,-20 135.41,-20 135.41,0 215.27,0 215.27,-20"/>
<text text-anchor="middle" x="175.34" y="-7" font-family="Helvetica,sans-Serif" font-size="10.00">Node::validate</text>
</a>
</g>
</g>
<!-- Node1&#45;&gt;Node3 -->
<g id="edge2" class="edge">
<title>Node1&#45;&gt;Node3</title>
<path fill="none" stroke="#63b8ff" d="M86.88,-22.78C98.79,-21.04 111.84,-19.13 124.15,-17.33"/>
<polygon fill="#63b8ff" stroke="#63b8ff" points="124.3,-20.85 133.68,-15.94 123.28,-13.92 124.3,-20.85"/>
</g>
</g>
</svg>
