<?xml version="1.0" encoding="UTF-8" standalone="no"?>
<!DOCTYPE svg PUBLIC "-//W3C//DTD SVG 1.1//EN"
 "http://www.w3.org/Graphics/SVG/1.1/DTD/svg11.dtd">
<!-- Generated by graphviz version 7.0.5 (20221223.1930)
 -->
<!-- Title: Animal::getRandomAnimal Pages: 1 -->
<svg width="825pt" height="294pt"
 viewBox="0.00 0.00 825.02 294.00" xmlns="http://www.w3.org/2000/svg" xmlns:xlink="http://www.w3.org/1999/xlink">
<g id="graph0" class="graph" transform="scale(1 1) rotate(0) translate(4 290)">
<title>Animal::getRandomAnimal</title>
<!-- Node1 -->
<g id="node1" class="node">
<title>Node1</title>
<g id="a_node1"><a xlink:title="Generates a random Animal with random specifications (in this case, a Cat)">
<polygon fill="#999999" stroke="#666666" points="134.58,-134 -0.19,-134 -0.19,-114 134.58,-114 134.58,-134"/>
<text text-anchor="middle" x="67.19" y="-121" font-family="Helvetica,sans-Serif" font-size="10.00">Animal::getRandomAnimal</text>
</a>
</g>
</g>
<!-- Node2 -->
<g id="node2" class="node">
<title>Node2</title>
<g id="a_node2"><a xlink:href="classCat.html#a70728c65135e1a98f70eada1da99b282" target="_top" xlink:title="Generates a Cat with a specified Name, &#39;color&#39;, &#39;weight&#39;, and Gender.">
<polygon fill="white" stroke="#666666" points="259.33,-210 206.97,-210 206.97,-190 259.33,-190 259.33,-210"/>
<text text-anchor="middle" x="233.15" y="-197" font-family="Helvetica,sans-Serif" font-size="10.00">Cat::Cat</text>
</a>
</g>
</g>
<!-- Node1&#45;&gt;Node2 -->
<g id="edge1" class="edge">
<title>Node1&#45;&gt;Node2</title>
<path fill="none" stroke="#63b8ff" d="M84.29,-134.38C103.98,-146.75 138.63,-167.44 170.39,-181 178.42,-184.43 187.28,-187.53 195.73,-190.19"/>
<polygon fill="#63b8ff" stroke="#63b8ff" points="194.44,-193.46 205.03,-192.98 196.45,-186.75 194.44,-193.46"/>
</g>
<!-- Node14 -->
<g id="node14" class="node">
<title>Node14</title>
<g id="a_node14"><a xlink:href="className.html#ae37c5819949fd2a4317eab8d60a1f1ca" target="_top" xlink:title="Construct a FROM_FILE Name class.">
<polygon fill="white" stroke="#666666" points="270.55,-172 195.74,-172 195.74,-152 270.55,-152 270.55,-172"/>
<text text-anchor="middle" x="233.15" y="-159" font-family="Helvetica,sans-Serif" font-size="10.00">Name::Name</text>
</a>
</g>
</g>
<!-- Node1&#45;&gt;Node14 -->
<g id="edge14" class="edge">
<title>Node1&#45;&gt;Node14</title>
<path fill="none" stroke="#63b8ff" d="M113.43,-134.48C135.48,-139.6 162.01,-145.74 184.39,-150.93"/>
<polygon fill="#63b8ff" stroke="#63b8ff" points="183.33,-154.28 193.87,-153.13 184.91,-147.46 183.33,-154.28"/>
</g>
<!-- Node15 -->
<g id="node15" class="node">
<title>Node15</title>
<g id="a_node15"><a xlink:href="classAnimal.html#a96634826703e846e99b8592be6fef36a" target="_top" xlink:title="Generates a random &#39;weight&#39; in pounds for an Animal.">
<polygon fill="white" stroke="#666666" points="295.66,-134 170.63,-134 170.63,-114 295.66,-114 295.66,-134"/>
<text text-anchor="middle" x="233.15" y="-121" font-family="Helvetica,sans-Serif" font-size="10.00">Animal::generatePounds</text>
</a>
</g>
</g>
<!-- Node1&#45;&gt;Node15 -->
<g id="edge15" class="edge">
<title>Node1&#45;&gt;Node15</title>
<path fill="none" stroke="#63b8ff" d="M134.88,-124C142.83,-124 150.99,-124 159.03,-124"/>
<polygon fill="#63b8ff" stroke="#63b8ff" points="158.77,-127.5 168.77,-124 158.77,-120.5 158.77,-127.5"/>
</g>
<!-- Node16 -->
<g id="node16" class="node">
<title>Node16</title>
<g id="a_node16"><a xlink:href="className.html#ad7a220d0aae6115ce4b63a7cb04b814b" target="_top" xlink:title="Get the next name.">
<polygon fill="white" stroke="#666666" points="288.02,-96 178.28,-96 178.28,-76 288.02,-76 288.02,-96"/>
<text text-anchor="middle" x="233.15" y="-83" font-family="Helvetica,sans-Serif" font-size="10.00">Name::getNextName</text>
</a>
</g>
</g>
<!-- Node1&#45;&gt;Node16 -->
<g id="edge16" class="edge">
<title>Node1&#45;&gt;Node16</title>
<path fill="none" stroke="#63b8ff" d="M113.43,-113.52C132.78,-109.03 155.58,-103.75 176,-99.01"/>
<polygon fill="#63b8ff" stroke="#63b8ff" points="176.63,-102.46 185.59,-96.79 175.05,-95.64 176.63,-102.46"/>
</g>
<!-- Node21 -->
<g id="node21" class="node">
<title>Node21</title>
<g id="a_node21"><a xlink:href="Gender_8cpp.html#aebf11d43c445f9551ea2fd861fd53f6e" target="_top" xlink:title="Generates a random Gender from the enumeration.">
<polygon fill="white" stroke="#666666" points="286.15,-58 180.15,-58 180.15,-38 286.15,-38 286.15,-58"/>
<text text-anchor="middle" x="233.15" y="-45" font-family="Helvetica,sans-Serif" font-size="10.00">newRandomGender</text>
</a>
</g>
</g>
<!-- Node1&#45;&gt;Node21 -->
<g id="edge22" class="edge">
<title>Node1&#45;&gt;Node21</title>
<path fill="none" stroke="#63b8ff" d="M84.29,-113.62C103.98,-101.25 138.63,-80.56 170.39,-67 174.45,-65.27 178.72,-63.61 183.05,-62.06"/>
<polygon fill="#63b8ff" stroke="#63b8ff" points="184.02,-65.43 192.37,-58.91 181.78,-58.8 184.02,-65.43"/>
</g>
<!-- Node3 -->
<g id="node3" class="node">
<title>Node3</title>
<g id="a_node3"><a xlink:href="classMammal.html#a70dd126be96f5b57dbe3ae394fd17809" target="_top" xlink:title="Generates a Mammal with a specified &#39;color&#39;, &#39;weight&#39;, and Gender.">
<polygon fill="white" stroke="#666666" points="430.25,-229 331.79,-229 331.79,-209 430.25,-209 430.25,-229"/>
<text text-anchor="middle" x="381.02" y="-216" font-family="Helvetica,sans-Serif" font-size="10.00">Mammal::Mammal</text>
</a>
</g>
</g>
<!-- Node2&#45;&gt;Node3 -->
<g id="edge2" class="edge">
<title>Node2&#45;&gt;Node3</title>
<path fill="none" stroke="#63b8ff" d="M259.56,-203.31C276.3,-205.49 298.96,-208.44 320.12,-211.2"/>
<polygon fill="#63b8ff" stroke="#63b8ff" points="319.46,-214.64 329.83,-212.46 320.37,-207.7 319.46,-214.64"/>
</g>
<!-- Node7 -->
<g id="node7" class="node">
<title>Node7</title>
<g id="a_node7"><a xlink:href="classCat.html#af4a79f34cbaf6a5059a1d0863f8072bb" target="_top" xlink:title="Set the Cat name.">
<polygon fill="white" stroke="#666666" points="419.65,-191 342.39,-191 342.39,-171 419.65,-171 419.65,-191"/>
<text text-anchor="middle" x="381.02" y="-178" font-family="Helvetica,sans-Serif" font-size="10.00">Cat::setName</text>
</a>
</g>
</g>
<!-- Node2&#45;&gt;Node7 -->
<g id="edge7" class="edge">
<title>Node2&#45;&gt;Node7</title>
<path fill="none" stroke="#63b8ff" d="M259.56,-196.69C279.13,-194.14 306.79,-190.54 330.66,-187.43"/>
<polygon fill="#63b8ff" stroke="#63b8ff" points="331.07,-190.91 340.53,-186.14 330.16,-183.96 331.07,-190.91"/>
</g>
<!-- Node4 -->
<g id="node4" class="node">
<title>Node4</title>
<g id="a_node4"><a xlink:href="classAnimal.html#aec8039997b0be3da027036d998f8207c" target="_top" xlink:title="Generates an Animal with a specified &#39;weight&#39;.">
<polygon fill="white" stroke="#666666" points="562.01,-286 479.63,-286 479.63,-266 562.01,-266 562.01,-286"/>
<text text-anchor="middle" x="520.82" y="-273" font-family="Helvetica,sans-Serif" font-size="10.00">Animal::Animal</text>
</a>
</g>
</g>
<!-- Node3&#45;&gt;Node4 -->
<g id="edge3" class="edge">
<title>Node3&#45;&gt;Node4</title>
<path fill="none" stroke="#63b8ff" d="M407.29,-229.45C428.85,-238.37 460.1,-251.3 484.2,-261.26"/>
<polygon fill="#63b8ff" stroke="#63b8ff" points="482.73,-264.44 493.31,-265.03 485.4,-257.98 482.73,-264.44"/>
</g>
<!-- Node5 -->
<g id="node5" class="node">
<title>Node5</title>
<g id="a_node5"><a xlink:href="classAnimal.html#acde9807bf2eadb3fb6a8650ba7ccfa43" target="_top" xlink:title="Validates &#39;weight&#39; based on specified ruleset.">
<polygon fill="white" stroke="#666666" points="772.98,-286 655.55,-286 655.55,-266 772.98,-266 772.98,-286"/>
<text text-anchor="middle" x="714.26" y="-273" font-family="Helvetica,sans-Serif" font-size="10.00">Animal::validateWeight</text>
</a>
</g>
</g>
<!-- Node3&#45;&gt;Node5 -->
<g id="edge6" class="edge">
<title>Node3&#45;&gt;Node5</title>
<path fill="none" stroke="#63b8ff" d="M430.54,-227.35C486.82,-237.03 580.04,-253.07 643.94,-264.07"/>
<polygon fill="#63b8ff" stroke="#63b8ff" points="643.18,-267.49 653.63,-265.74 644.37,-260.59 643.18,-267.49"/>
</g>
<!-- Node6 -->
<g id="node6" class="node">
<title>Node6</title>
<g id="a_node6"><a xlink:href="classMammal.html#a826f4c8ab8772a1daac49f9214929a77" target="_top" xlink:title="Sets color of Mammal.">
<polygon fill="white" stroke="#666666" points="569.45,-210 472.19,-210 472.19,-190 569.45,-190 569.45,-210"/>
<text text-anchor="middle" x="520.82" y="-197" font-family="Helvetica,sans-Serif" font-size="10.00">Mammal::setColor</text>
</a>
</g>
</g>
<!-- Node3&#45;&gt;Node6 -->
<g id="edge5" class="edge">
<title>Node3&#45;&gt;Node6</title>
<path fill="none" stroke="#63b8ff" d="M430.6,-212.3C440.4,-210.95 450.8,-209.52 460.9,-208.12"/>
<polygon fill="#63b8ff" stroke="#63b8ff" points="461.21,-211.61 470.64,-206.78 460.25,-204.68 461.21,-211.61"/>
</g>
<!-- Node4&#45;&gt;Node5 -->
<g id="edge4" class="edge">
<title>Node4&#45;&gt;Node5</title>
<path fill="none" stroke="#63b8ff" d="M562.42,-276C586.04,-276 616.47,-276 643.79,-276"/>
<polygon fill="#63b8ff" stroke="#63b8ff" points="643.77,-279.5 653.77,-276 643.77,-272.5 643.77,-279.5"/>
</g>
<!-- Node8 -->
<g id="node8" class="node">
<title>Node8</title>
<g id="a_node8"><a xlink:href="className.html#adf2e3789f330180d37ad880f17e004cc" target="_top" xlink:title="Check if newName is valid.">
<polygon fill="white" stroke="#666666" points="575.69,-172 465.94,-172 465.94,-152 575.69,-152 575.69,-172"/>
<text text-anchor="middle" x="520.82" y="-159" font-family="Helvetica,sans-Serif" font-size="10.00">Name::validateName</text>
</a>
</g>
</g>
<!-- Node7&#45;&gt;Node8 -->
<g id="edge8" class="edge">
<title>Node7&#45;&gt;Node8</title>
<path fill="none" stroke="#63b8ff" d="M420.04,-175.76C430.72,-174.28 442.66,-172.64 454.45,-171.01"/>
<polygon fill="#63b8ff" stroke="#63b8ff" points="454.75,-174.5 464.18,-169.67 453.79,-167.57 454.75,-174.5"/>
</g>
<!-- Node9 -->
<g id="node9" class="node">
<title>Node9</title>
<g id="a_node9"><a xlink:href="className.html#a528a6452c92fdd26082cd1f1ba96f0ee" target="_top" xlink:title="Return true if newName&#39;s interior whitespace is trimmed.">
<polygon fill="white" stroke="#666666" points="816.77,-248 611.75,-248 611.75,-228 816.77,-228 816.77,-248"/>
<text text-anchor="middle" x="714.26" y="-235" font-family="Helvetica,sans-Serif" font-size="10.00">Name::validateInteriorWhitespaceTrimmed</text>
</a>
</g>
</g>
<!-- Node8&#45;&gt;Node9 -->
<g id="edge9" class="edge">
<title>Node8&#45;&gt;Node9</title>
<path fill="none" stroke="#63b8ff" d="M558.73,-172.44C564.57,-174.82 570.37,-177.66 575.51,-181 595.01,-193.68 591.07,-207.88 611.51,-219 614.56,-220.66 617.74,-222.19 621,-223.58"/>
<polygon fill="#63b8ff" stroke="#63b8ff" points="619.66,-226.81 630.25,-227.05 622.12,-220.26 619.66,-226.81"/>
</g>
<!-- Node10 -->
<g id="node10" class="node">
<title>Node10</title>
<g id="a_node10"><a xlink:href="className.html#a48ffe2521a489104cee5718de979a57a" target="_top" xlink:title="Return true if newName only contains A &#45; Z, a &#45; z, 0&#45;9, space and &#45;">
<polygon fill="white" stroke="#666666" points="791.72,-210 636.81,-210 636.81,-190 791.72,-190 791.72,-210"/>
<text text-anchor="middle" x="714.26" y="-197" font-family="Helvetica,sans-Serif" font-size="10.00">Name::validateNoSpecialChars</text>
</a>
</g>
</g>
<!-- Node8&#45;&gt;Node10 -->
<g id="edge10" class="edge">
<title>Node8&#45;&gt;Node10</title>
<path fill="none" stroke="#63b8ff" d="M570.18,-172.47C583.56,-175.3 598.08,-178.33 611.51,-181 622.28,-183.15 633.71,-185.35 644.87,-187.46"/>
<polygon fill="#63b8ff" stroke="#63b8ff" points="643.94,-190.85 654.41,-189.26 645.23,-183.97 643.94,-190.85"/>
</g>
<!-- Node11 -->
<g id="node11" class="node">
<title>Node11</title>
<g id="a_node11"><a xlink:href="className.html#a0af5e33bf02472905a9e9d0b9f9510cf" target="_top" xlink:title="Return true if newName is not empty.">
<polygon fill="white" stroke="#666666" points="777.36,-172 651.16,-172 651.16,-152 777.36,-152 777.36,-172"/>
<text text-anchor="middle" x="714.26" y="-159" font-family="Helvetica,sans-Serif" font-size="10.00">Name::validateNotEmpty</text>
</a>
</g>
</g>
<!-- Node8&#45;&gt;Node11 -->
<g id="edge11" class="edge">
<title>Node8&#45;&gt;Node11</title>
<path fill="none" stroke="#63b8ff" d="M576.17,-162C595.75,-162 618.2,-162 639.19,-162"/>
<polygon fill="#63b8ff" stroke="#63b8ff" points="639.15,-165.5 649.15,-162 639.15,-158.5 639.15,-165.5"/>
</g>
<!-- Node12 -->
<g id="node12" class="node">
<title>Node12</title>
<g id="a_node12"><a xlink:href="className.html#a024eecc170d4ba3e3fb4f05b35078478" target="_top" xlink:title="Return true if newName starts with an alphabetic character (A &#45; Z or a &#45; z)">
<polygon fill="white" stroke="#666666" points="791.66,-134 636.87,-134 636.87,-114 791.66,-114 791.66,-134"/>
<text text-anchor="middle" x="714.26" y="-121" font-family="Helvetica,sans-Serif" font-size="10.00">Name::validateStartsWithAlpha</text>
</a>
</g>
</g>
<!-- Node8&#45;&gt;Node12 -->
<g id="edge12" class="edge">
<title>Node8&#45;&gt;Node12</title>
<path fill="none" stroke="#63b8ff" d="M570.18,-151.53C583.56,-148.7 598.08,-145.67 611.51,-143 622.28,-140.85 633.71,-138.65 644.87,-136.54"/>
<polygon fill="#63b8ff" stroke="#63b8ff" points="645.23,-140.03 654.41,-134.74 643.94,-133.15 645.23,-140.03"/>
</g>
<!-- Node13 -->
<g id="node13" class="node">
<title>Node13</title>
<g id="a_node13"><a xlink:href="className.html#a8004ce0cca7df10725e0e34cd541f274" target="_top" xlink:title="Return true if newName is left and right trimmed for whitespace.">
<polygon fill="white" stroke="#666666" points="775.4,-96 653.12,-96 653.12,-76 775.4,-76 775.4,-96"/>
<text text-anchor="middle" x="714.26" y="-83" font-family="Helvetica,sans-Serif" font-size="10.00">Name::validateTrimmed</text>
</a>
</g>
</g>
<!-- Node8&#45;&gt;Node13 -->
<g id="edge13" class="edge">
<title>Node8&#45;&gt;Node13</title>
<path fill="none" stroke="#63b8ff" d="M534.62,-151.6C551.29,-138.62 581.81,-116.7 611.51,-105 621.02,-101.25 631.34,-98.23 641.62,-95.8"/>
<polygon fill="#63b8ff" stroke="#63b8ff" points="642.23,-99.25 651.26,-93.7 640.74,-92.41 642.23,-99.25"/>
</g>
<!-- Node17 -->
<g id="node17" class="node">
<title>Node17</title>
<g id="a_node17"><a xlink:href="className.html#a27aa1b326d6f3bc1e040f645f87a6c4a" target="_top" xlink:title="Erase and then re&#45;load the names database or set the serial number to 0.">
<polygon fill="white" stroke="#666666" points="416.48,-96 345.55,-96 345.55,-76 416.48,-76 416.48,-96"/>
<text text-anchor="middle" x="381.02" y="-83" font-family="Helvetica,sans-Serif" font-size="10.00">Name::reset</text>
</a>
</g>
</g>
<!-- Node16&#45;&gt;Node17 -->
<g id="edge17" class="edge">
<title>Node16&#45;&gt;Node17</title>
<path fill="none" stroke="#63b8ff" d="M288.46,-86C303.42,-86 319.5,-86 333.94,-86"/>
<polygon fill="#63b8ff" stroke="#63b8ff" points="333.61,-89.5 343.61,-86 333.61,-82.5 333.61,-89.5"/>
</g>
<!-- Node17&#45;&gt;Node8 -->
<g id="edge21" class="edge">
<title>Node17&#45;&gt;Node8</title>
<path fill="none" stroke="#63b8ff" d="M400.89,-96.41C424.19,-109.26 464.04,-131.24 491.13,-146.18"/>
<polygon fill="#63b8ff" stroke="#63b8ff" points="489.4,-149.22 499.85,-150.99 492.78,-143.09 489.4,-149.22"/>
</g>
<!-- Node18 -->
<g id="node18" class="node">
<title>Node18</title>
<g id="a_node18"><a xlink:href="Trim_8cpp.html#a4279db14ccdb56c5983718defd20af7b" target="_top" xlink:title="This function does the following:">
<polygon fill="white" stroke="#666666" points="536.98,-58 504.66,-58 504.66,-38 536.98,-38 536.98,-58"/>
<text text-anchor="middle" x="520.82" y="-45" font-family="Helvetica,sans-Serif" font-size="10.00">trim</text>
</a>
</g>
</g>
<!-- Node17&#45;&gt;Node18 -->
<g id="edge18" class="edge">
<title>Node17&#45;&gt;Node18</title>
<path fill="none" stroke="#63b8ff" d="M416.79,-76.41C440.61,-69.84 471.7,-61.27 493.47,-55.27"/>
<polygon fill="#63b8ff" stroke="#63b8ff" points="494.34,-58.66 503.04,-52.63 492.47,-51.91 494.34,-58.66"/>
</g>
<!-- Node19 -->
<g id="node19" class="node">
<title>Node19</title>
<g id="a_node19"><a xlink:href="Trim_8cpp.html#a398351d9936e6de09064add80fa3cc4e" target="_top" xlink:title="Classify a character into a CharClass.">
<polygon fill="white" stroke="#666666" points="749.72,-58 678.8,-58 678.8,-38 749.72,-38 749.72,-58"/>
<text text-anchor="middle" x="714.26" y="-45" font-family="Helvetica,sans-Serif" font-size="10.00">classifyChar</text>
</a>
</g>
</g>
<!-- Node18&#45;&gt;Node19 -->
<g id="edge19" class="edge">
<title>Node18&#45;&gt;Node19</title>
<path fill="none" stroke="#63b8ff" d="M537.16,-48C564.98,-48 624.76,-48 666.93,-48"/>
<polygon fill="#63b8ff" stroke="#63b8ff" points="666.8,-51.5 676.8,-48 666.8,-44.5 666.8,-51.5"/>
</g>
<!-- Node20 -->
<g id="node20" class="node">
<title>Node20</title>
<g id="a_node20"><a xlink:href="Trim_8cpp.html#a1def1a684f40ed2028c47b59da0c86f3" target="_top" xlink:title="Shift characters in a string to the left.">
<polygon fill="white" stroke="#666666" points="741,-20 687.52,-20 687.52,0 741,0 741,-20"/>
<text text-anchor="middle" x="714.26" y="-7" font-family="Helvetica,sans-Serif" font-size="10.00">shift_left</text>
</a>
</g>
</g>
<!-- Node18&#45;&gt;Node20 -->
<g id="edge20" class="edge">
<title>Node18&#45;&gt;Node20</title>
<path fill="none" stroke="#63b8ff" d="M537.35,-44.59C555.21,-40.7 585.44,-34.19 611.51,-29 632.92,-24.73 656.92,-20.24 676.23,-16.69"/>
<polygon fill="#63b8ff" stroke="#63b8ff" points="676.6,-20.18 685.81,-14.94 675.34,-13.3 676.6,-20.18"/>
</g>
</g>
</svg>
