<?xml version="1.0" encoding="UTF-8" standalone="no"?>
<!DOCTYPE svg PUBLIC "-//W3C//DTD SVG 1.1//EN"
 "http://www.w3.org/Graphics/SVG/1.1/DTD/svg11.dtd">
<!-- Generated by graphviz version 7.0.5 (20221223.1930)
 -->
<!-- Title: Animal::dump Pages: 1 -->
<svg width="349pt" height="104pt"
 viewBox="0.00 0.00 349.22 104.00" xmlns="http://www.w3.org/2000/svg" xmlns:xlink="http://www.w3.org/1999/xlink">
<g id="graph0" class="graph" transform="scale(1 1) rotate(0) translate(4 100)">
<title>Animal::dump</title>
<!-- Node1 -->
<g id="node1" class="node">
<title>Node1</title>
<g id="a_node1"><a xlink:title="Prints information of Animal (Node properties, &#39;kingdom&#39;, Gender)">
<polygon fill="#999999" stroke="#666666" points="77.21,-58 -0.07,-58 -0.07,-38 77.21,-38 77.21,-58"/>
<text text-anchor="middle" x="38.57" y="-45" font-family="Helvetica,sans-Serif" font-size="10.00">Animal::dump</text>
</a>
</g>
</g>
<!-- Node2 -->
<g id="node2" class="node">
<title>Node2</title>
<g id="a_node2"><a xlink:href="classNode.html#aafe01f5fb0aa5034d12b210065427110" target="_top" xlink:title="Prints information of a Node, including class, address, and next Node.">
<polygon fill="white" stroke="#666666" points="191.91,-96 120.95,-96 120.95,-76 191.91,-76 191.91,-96"/>
<text text-anchor="middle" x="156.43" y="-83" font-family="Helvetica,sans-Serif" font-size="10.00">Node::dump</text>
</a>
</g>
</g>
<!-- Node1&#45;&gt;Node2 -->
<g id="edge1" class="edge">
<title>Node1&#45;&gt;Node2</title>
<path fill="none" stroke="#63b8ff" d="M71.54,-58.48C84.33,-62.68 99.25,-67.57 112.93,-72.06"/>
<polygon fill="#63b8ff" stroke="#63b8ff" points="111.54,-75.29 122.13,-75.08 113.72,-68.64 111.54,-75.29"/>
</g>
<!-- Node3 -->
<g id="node3" class="node">
<title>Node3</title>
<g id="a_node3"><a xlink:href="classAnimal.html#ae4e9e9cf7a0286c70334400b9310746c" target="_top" xlink:title="Returns &#39;kingdom&#39; of Animal.">
<polygon fill="white" stroke="#666666" points="341.47,-58 235.48,-58 235.48,-38 341.47,-38 341.47,-58"/>
<text text-anchor="middle" x="288.47" y="-45" font-family="Helvetica,sans-Serif" font-size="10.00">Animal::getKingdom</text>
</a>
</g>
</g>
<!-- Node1&#45;&gt;Node3 -->
<g id="edge2" class="edge">
<title>Node1&#45;&gt;Node3</title>
<path fill="none" stroke="#63b8ff" d="M77.49,-48C116.38,-48 177.56,-48 223.87,-48"/>
<polygon fill="#63b8ff" stroke="#63b8ff" points="223.79,-51.5 233.79,-48 223.79,-44.5 223.79,-51.5"/>
</g>
<!-- Node4 -->
<g id="node4" class="node">
<title>Node4</title>
<g id="a_node4"><a xlink:href="classAnimal.html#a7a892113e7a4a8834cf84b7b2621e2d8" target="_top" xlink:title="Validates Animal based on specified ruleset.">
<polygon fill="white" stroke="#666666" points="199.52,-20 113.34,-20 113.34,0 199.52,0 199.52,-20"/>
<text text-anchor="middle" x="156.43" y="-7" font-family="Helvetica,sans-Serif" font-size="10.00">Animal::validate</text>
</a>
</g>
</g>
<!-- Node1&#45;&gt;Node4 -->
<g id="edge3" class="edge">
<title>Node1&#45;&gt;Node4</title>
<path fill="none" stroke="#63b8ff" d="M71.54,-37.52C84.33,-33.32 99.25,-28.43 112.93,-23.94"/>
<polygon fill="#63b8ff" stroke="#63b8ff" points="113.72,-27.36 122.13,-20.92 111.54,-20.71 113.72,-27.36"/>
</g>
<!-- Node4&#45;&gt;Node3 -->
<g id="edge4" class="edge">
<title>Node4&#45;&gt;Node3</title>
<path fill="none" stroke="#63b8ff" d="M193.31,-20.48C207.95,-24.76 225.08,-29.77 240.68,-34.33"/>
<polygon fill="#63b8ff" stroke="#63b8ff" points="239.68,-37.68 250.26,-37.13 241.64,-30.96 239.68,-37.68"/>
</g>
<!-- Node5 -->
<g id="node5" class="node">
<title>Node5</title>
<g id="a_node5"><a xlink:href="classNode.html#a9f69825adc179781257e406b3255a93e" target="_top" xlink:title="Ensures Node and all its members are healthy (presumably)">
<polygon fill="white" stroke="#666666" points="328.41,-20 248.54,-20 248.54,0 328.41,0 328.41,-20"/>
<text text-anchor="middle" x="288.47" y="-7" font-family="Helvetica,sans-Serif" font-size="10.00">Node::validate</text>
</a>
</g>
</g>
<!-- Node4&#45;&gt;Node5 -->
<g id="edge5" class="edge">
<title>Node4&#45;&gt;Node5</title>
<path fill="none" stroke="#63b8ff" d="M200.01,-10C211.8,-10 224.71,-10 236.91,-10"/>
<polygon fill="#63b8ff" stroke="#63b8ff" points="236.81,-13.5 246.81,-10 236.81,-6.5 236.81,-13.5"/>
</g>
</g>
</svg>
