<?xml version="1.0" encoding="UTF-8" standalone="no"?>
<!DOCTYPE svg PUBLIC "-//W3C//DTD SVG 1.1//EN"
 "http://www.w3.org/Graphics/SVG/1.1/DTD/svg11.dtd">
<!-- Generated by graphviz version 7.0.5 (20221223.1930)
 -->
<!-- Title: Mammal::getClassification Pages: 1 -->
<svg width="467pt" height="66pt"
 viewBox="0.00 0.00 467.33 66.00" xmlns="http://www.w3.org/2000/svg" xmlns:xlink="http://www.w3.org/1999/xlink">
<g id="graph0" class="graph" transform="scale(1 1) rotate(0) translate(4 62)">
<title>Mammal::getClassification</title>
<!-- Node1 -->
<g id="node1" class="node">
<title>Node1</title>
<g id="a_node1"><a xlink:title="Returns classification of Mammal.">
<polygon fill="#999999" stroke="#666666" points="459.18,-39 326.77,-39 326.77,-19 459.18,-19 459.18,-39"/>
<text text-anchor="middle" x="392.98" y="-26" font-family="Helvetica,sans-Serif" font-size="10.00">Mammal::getClassification</text>
</a>
</g>
</g>
<!-- Node2 -->
<g id="node2" class="node">
<title>Node2</title>
<g id="a_node2"><a xlink:href="classMammal.html#ab20372fdea68db8cdf54929f1f6f4e31" target="_top" xlink:title="Prints information about Mammal (Node, Animal, &#39;classification&#39;, &#39;color&#39;)">
<polygon fill="white" stroke="#666666" points="285.85,-58 201.04,-58 201.04,-38 285.85,-38 285.85,-58"/>
<text text-anchor="middle" x="243.45" y="-45" font-family="Helvetica,sans-Serif" font-size="10.00">Mammal::dump</text>
</a>
</g>
</g>
<!-- Node1&#45;&gt;Node2 -->
<g id="edge1" class="edge">
<title>Node1&#45;&gt;Node2</title>
<path fill="none" stroke="#63b8ff" d="M315.13,-38.9C305.12,-40.19 295.2,-41.46 286.09,-42.64"/>
<polygon fill="#63b8ff" stroke="#63b8ff" points="315.44,-42.39 324.91,-37.64 314.54,-35.44 315.44,-42.39"/>
</g>
<!-- Node4 -->
<g id="node4" class="node">
<title>Node4</title>
<g id="a_node4"><a xlink:href="classMammal.html#a11ad9c1757cac1c6fff7ad1ce384e2c7" target="_top" xlink:title="Validates Animal based on specified ruleset.">
<polygon fill="white" stroke="#666666" points="290.81,-20 196.09,-20 196.09,0 290.81,0 290.81,-20"/>
<text text-anchor="middle" x="243.45" y="-7" font-family="Helvetica,sans-Serif" font-size="10.00">Mammal::validate</text>
</a>
</g>
</g>
<!-- Node1&#45;&gt;Node4 -->
<g id="edge3" class="edge">
<title>Node1&#45;&gt;Node4</title>
<path fill="none" stroke="#63b8ff" d="M315.25,-19.12C307.06,-18.06 298.93,-17.02 291.24,-16.03"/>
<polygon fill="#63b8ff" stroke="#63b8ff" points="314.54,-22.56 324.91,-20.36 315.44,-15.61 314.54,-22.56"/>
</g>
<!-- Node3 -->
<g id="node3" class="node">
<title>Node3</title>
<g id="a_node3"><a xlink:href="classCat.html#a85f15f727bab7daf77a5c6284e9e50cb" target="_top" xlink:title="Prints information about Cat (Node, Animal, Mammal, Name)">
<polygon fill="white" stroke="#666666" points="155.61,-58 93.34,-58 93.34,-38 155.61,-38 155.61,-58"/>
<text text-anchor="middle" x="124.47" y="-45" font-family="Helvetica,sans-Serif" font-size="10.00">Cat::dump</text>
</a>
</g>
</g>
<!-- Node2&#45;&gt;Node3 -->
<g id="edge2" class="edge">
<title>Node2&#45;&gt;Node3</title>
<path fill="none" stroke="#63b8ff" d="M189.31,-48C177.92,-48 166.26,-48 156.07,-48"/>
<polygon fill="#63b8ff" stroke="#63b8ff" points="189.03,-51.5 199.03,-48 189.03,-44.5 189.03,-51.5"/>
</g>
<!-- Node5 -->
<g id="node5" class="node">
<title>Node5</title>
<g id="a_node5"><a xlink:href="classCat.html#a0680012e4e432f9a1b128a82948a4798" target="_top" xlink:title="Validates Cat based on specified ruleset.">
<polygon fill="white" stroke="#666666" points="160.06,-20 88.89,-20 88.89,0 160.06,0 160.06,-20"/>
<text text-anchor="middle" x="124.47" y="-7" font-family="Helvetica,sans-Serif" font-size="10.00">Cat::validate</text>
</a>
</g>
</g>
<!-- Node4&#45;&gt;Node5 -->
<g id="edge4" class="edge">
<title>Node4&#45;&gt;Node5</title>
<path fill="none" stroke="#63b8ff" d="M184.63,-10C176.33,-10 168.01,-10 160.34,-10"/>
<polygon fill="#63b8ff" stroke="#63b8ff" points="184.37,-13.5 194.36,-10 184.36,-6.5 184.37,-13.5"/>
</g>
<!-- Node6 -->
<g id="node6" class="node">
<title>Node6</title>
<g id="a_node6"><a xlink:href="classCat.html#a84a4c2dd95aeafdee0c49ccde0ad5cb6" target="_top" xlink:title="Generates a Cat with an unknown &#39;color&#39;, Gender, random &#39;weight&#39;, and specified &#39;newName&#39;.">
<polygon fill="white" stroke="#666666" points="52.52,-20 0.16,-20 0.16,0 52.52,0 52.52,-20"/>
<text text-anchor="middle" x="26.34" y="-7" font-family="Helvetica,sans-Serif" font-size="10.00">Cat::Cat</text>
</a>
</g>
</g>
<!-- Node5&#45;&gt;Node6 -->
<g id="edge5" class="edge">
<title>Node5&#45;&gt;Node6</title>
<path fill="none" stroke="#63b8ff" d="M77.18,-10C68.79,-10 60.32,-10 52.8,-10"/>
<polygon fill="#63b8ff" stroke="#63b8ff" points="76.98,-13.5 86.98,-10 76.98,-6.5 76.98,-13.5"/>
</g>
</g>
</svg>
