<?xml version="1.0" encoding="UTF-8" standalone="no"?>
<!DOCTYPE svg PUBLIC "-//W3C//DTD SVG 1.1//EN"
 "http://www.w3.org/Graphics/SVG/1.1/DTD/svg11.dtd">
<!-- Generated by graphviz version 7.0.5 (20221223.1930)
 -->
<!-- Title: Animal::validateWeight Pages: 1 -->
<svg width="638pt" height="47pt"
 viewBox="0.00 0.00 637.70 47.00" xmlns="http://www.w3.org/2000/svg" xmlns:xlink="http://www.w3.org/1999/xlink">
<g id="graph0" class="graph" transform="scale(1 1) rotate(0) translate(4 43)">
<title>Animal::validateWeight</title>
<!-- Node1 -->
<g id="node1" class="node">
<title>Node1</title>
<g id="a_node1"><a xlink:title="Validates &#39;weight&#39; based on specified ruleset.">
<polygon fill="#999999" stroke="#666666" points="629.56,-20 512.13,-20 512.13,0 629.56,0 629.56,-20"/>
<text text-anchor="middle" x="570.84" y="-7" font-family="Helvetica,sans-Serif" font-size="10.00">Animal::validateWeight</text>
</a>
</g>
</g>
<!-- Node2 -->
<g id="node2" class="node">
<title>Node2</title>
<g id="a_node2"><a xlink:href="classAnimal.html#aec8039997b0be3da027036d998f8207c" target="_top" xlink:title="Generates an Animal with a specified &#39;weight&#39;.">
<polygon fill="white" stroke="#666666" points="475.83,-39 393.45,-39 393.45,-19 475.83,-19 475.83,-39"/>
<text text-anchor="middle" x="434.64" y="-26" font-family="Helvetica,sans-Serif" font-size="10.00">Animal::Animal</text>
</a>
</g>
</g>
<!-- Node1&#45;&gt;Node2 -->
<g id="edge1" class="edge">
<title>Node1&#45;&gt;Node2</title>
<path fill="none" stroke="#63b8ff" d="M500.4,-19.83C492.06,-21.01 483.77,-22.19 476.04,-23.28"/>
<polygon fill="#63b8ff" stroke="#63b8ff" points="500.85,-23.3 510.26,-18.44 499.87,-16.37 500.85,-23.3"/>
</g>
<!-- Node3 -->
<g id="node3" class="node">
<title>Node3</title>
<g id="a_node3"><a xlink:href="classMammal.html#a70dd126be96f5b57dbe3ae394fd17809" target="_top" xlink:title="Generates a Mammal with a specified &#39;color&#39;, &#39;weight&#39;, and Gender.">
<polygon fill="white" stroke="#666666" points="357.41,-20 258.95,-20 258.95,0 357.41,0 357.41,-20"/>
<text text-anchor="middle" x="308.18" y="-7" font-family="Helvetica,sans-Serif" font-size="10.00">Mammal::Mammal</text>
</a>
</g>
</g>
<!-- Node1&#45;&gt;Node3 -->
<g id="edge5" class="edge">
<title>Node1&#45;&gt;Node3</title>
<path fill="none" stroke="#63b8ff" d="M500.21,-10C455.16,-10 397.66,-10 357.57,-10"/>
<polygon fill="#63b8ff" stroke="#63b8ff" points="500.16,-13.5 510.16,-10 500.16,-6.5 500.16,-13.5"/>
</g>
<!-- Node2&#45;&gt;Node3 -->
<g id="edge2" class="edge">
<title>Node2&#45;&gt;Node3</title>
<path fill="none" stroke="#63b8ff" d="M382.04,-21.12C373.96,-19.89 365.64,-18.62 357.63,-17.4"/>
<polygon fill="#63b8ff" stroke="#63b8ff" points="381.32,-24.55 391.74,-22.6 382.38,-17.63 381.32,-24.55"/>
</g>
<!-- Node4 -->
<g id="node4" class="node">
<title>Node4</title>
<g id="a_node4"><a xlink:href="classCat.html#a70728c65135e1a98f70eada1da99b282" target="_top" xlink:title="Generates a Cat with a specified Name, &#39;color&#39;, &#39;weight&#39;, and Gender.">
<polygon fill="white" stroke="#666666" points="222.91,-20 170.55,-20 170.55,0 222.91,0 222.91,-20"/>
<text text-anchor="middle" x="196.73" y="-7" font-family="Helvetica,sans-Serif" font-size="10.00">Cat::Cat</text>
</a>
</g>
</g>
<!-- Node3&#45;&gt;Node4 -->
<g id="edge3" class="edge">
<title>Node3&#45;&gt;Node4</title>
<path fill="none" stroke="#63b8ff" d="M247.04,-10C238.63,-10 230.39,-10 223.13,-10"/>
<polygon fill="#63b8ff" stroke="#63b8ff" points="247.02,-13.5 257.02,-10 247.02,-6.5 247.02,-13.5"/>
</g>
<!-- Node5 -->
<g id="node5" class="node">
<title>Node5</title>
<g id="a_node5"><a xlink:href="classAnimal.html#a6c67202c385f8e213a21454565f01e62" target="_top" xlink:title="Generates a random Animal with random specifications (in this case, a Cat)">
<polygon fill="white" stroke="#666666" points="134.58,-20 -0.19,-20 -0.19,0 134.58,0 134.58,-20"/>
<text text-anchor="middle" x="67.19" y="-7" font-family="Helvetica,sans-Serif" font-size="10.00">Animal::getRandomAnimal</text>
</a>
</g>
</g>
<!-- Node4&#45;&gt;Node5 -->
<g id="edge4" class="edge">
<title>Node4&#45;&gt;Node5</title>
<path fill="none" stroke="#63b8ff" d="M158.91,-10C151.33,-10 143.13,-10 134.86,-10"/>
<polygon fill="#63b8ff" stroke="#63b8ff" points="158.71,-13.5 168.71,-10 158.71,-6.5 158.71,-13.5"/>
</g>
</g>
</svg>
