<?xml version="1.0" encoding="UTF-8" standalone="no"?>
<!DOCTYPE svg PUBLIC "-//W3C//DTD SVG 1.1//EN"
 "http://www.w3.org/Graphics/SVG/1.1/DTD/svg11.dtd">
<!-- Generated by graphviz version 7.0.5 (20221223.1930)
 -->
<!-- Title: Cat::setName Pages: 1 -->
<svg width="472pt" height="180pt"
 viewBox="0.00 0.00 472.02 180.00" xmlns="http://www.w3.org/2000/svg" xmlns:xlink="http://www.w3.org/1999/xlink">
<g id="graph0" class="graph" transform="scale(1 1) rotate(0) translate(4 176)">
<title>Cat::setName</title>
<!-- Node1 -->
<g id="node1" class="node">
<title>Node1</title>
<g id="a_node1"><a xlink:title="Set the Cat name.">
<polygon fill="#999999" stroke="#666666" points="77.2,-96 -0.07,-96 -0.07,-76 77.2,-76 77.2,-96"/>
<text text-anchor="middle" x="38.57" y="-83" font-family="Helvetica,sans-Serif" font-size="10.00">Cat::setName</text>
</a>
</g>
</g>
<!-- Node2 -->
<g id="node2" class="node">
<title>Node2</title>
<g id="a_node2"><a xlink:href="className.html#adf2e3789f330180d37ad880f17e004cc" target="_top" xlink:title="Check if newName is valid.">
<polygon fill="white" stroke="#666666" points="222.69,-96 112.95,-96 112.95,-76 222.69,-76 222.69,-96"/>
<text text-anchor="middle" x="167.82" y="-83" font-family="Helvetica,sans-Serif" font-size="10.00">Name::validateName</text>
</a>
</g>
</g>
<!-- Node1&#45;&gt;Node2 -->
<g id="edge1" class="edge">
<title>Node1&#45;&gt;Node2</title>
<path fill="none" stroke="#63b8ff" d="M77.4,-86C85.06,-86 93.31,-86 101.61,-86"/>
<polygon fill="#63b8ff" stroke="#63b8ff" points="101.37,-89.5 111.37,-86 101.37,-82.5 101.37,-89.5"/>
</g>
<!-- Node3 -->
<g id="node3" class="node">
<title>Node3</title>
<g id="a_node3"><a xlink:href="className.html#a528a6452c92fdd26082cd1f1ba96f0ee" target="_top" xlink:title="Return true if newName&#39;s interior whitespace is trimmed.">
<polygon fill="white" stroke="#666666" points="463.77,-172 258.75,-172 258.75,-152 463.77,-152 463.77,-172"/>
<text text-anchor="middle" x="361.26" y="-159" font-family="Helvetica,sans-Serif" font-size="10.00">Name::validateInteriorWhitespaceTrimmed</text>
</a>
</g>
</g>
<!-- Node2&#45;&gt;Node3 -->
<g id="edge2" class="edge">
<title>Node2&#45;&gt;Node3</title>
<path fill="none" stroke="#63b8ff" d="M181.63,-96.4C198.29,-109.38 228.81,-131.3 258.51,-143 263.8,-145.09 269.35,-146.95 275,-148.61"/>
<polygon fill="#63b8ff" stroke="#63b8ff" points="273.93,-151.95 284.5,-151.17 275.75,-145.19 273.93,-151.95"/>
</g>
<!-- Node4 -->
<g id="node4" class="node">
<title>Node4</title>
<g id="a_node4"><a xlink:href="className.html#a48ffe2521a489104cee5718de979a57a" target="_top" xlink:title="Return true if newName only contains A &#45; Z, a &#45; z, 0&#45;9, space and &#45;">
<polygon fill="white" stroke="#666666" points="438.72,-134 283.81,-134 283.81,-114 438.72,-114 438.72,-134"/>
<text text-anchor="middle" x="361.26" y="-121" font-family="Helvetica,sans-Serif" font-size="10.00">Name::validateNoSpecialChars</text>
</a>
</g>
</g>
<!-- Node2&#45;&gt;Node4 -->
<g id="edge3" class="edge">
<title>Node2&#45;&gt;Node4</title>
<path fill="none" stroke="#63b8ff" d="M217.18,-96.47C230.56,-99.3 245.08,-102.33 258.51,-105 269.28,-107.15 280.71,-109.35 291.87,-111.46"/>
<polygon fill="#63b8ff" stroke="#63b8ff" points="290.94,-114.85 301.41,-113.26 292.23,-107.97 290.94,-114.85"/>
</g>
<!-- Node5 -->
<g id="node5" class="node">
<title>Node5</title>
<g id="a_node5"><a xlink:href="className.html#a0af5e33bf02472905a9e9d0b9f9510cf" target="_top" xlink:title="Return true if newName is not empty.">
<polygon fill="white" stroke="#666666" points="424.36,-96 298.16,-96 298.16,-76 424.36,-76 424.36,-96"/>
<text text-anchor="middle" x="361.26" y="-83" font-family="Helvetica,sans-Serif" font-size="10.00">Name::validateNotEmpty</text>
</a>
</g>
</g>
<!-- Node2&#45;&gt;Node5 -->
<g id="edge4" class="edge">
<title>Node2&#45;&gt;Node5</title>
<path fill="none" stroke="#63b8ff" d="M223.17,-86C242.75,-86 265.2,-86 286.19,-86"/>
<polygon fill="#63b8ff" stroke="#63b8ff" points="286.15,-89.5 296.15,-86 286.15,-82.5 286.15,-89.5"/>
</g>
<!-- Node6 -->
<g id="node6" class="node">
<title>Node6</title>
<g id="a_node6"><a xlink:href="className.html#a024eecc170d4ba3e3fb4f05b35078478" target="_top" xlink:title="Return true if newName starts with an alphabetic character (A &#45; Z or a &#45; z)">
<polygon fill="white" stroke="#666666" points="438.66,-58 283.87,-58 283.87,-38 438.66,-38 438.66,-58"/>
<text text-anchor="middle" x="361.26" y="-45" font-family="Helvetica,sans-Serif" font-size="10.00">Name::validateStartsWithAlpha</text>
</a>
</g>
</g>
<!-- Node2&#45;&gt;Node6 -->
<g id="edge5" class="edge">
<title>Node2&#45;&gt;Node6</title>
<path fill="none" stroke="#63b8ff" d="M217.18,-75.53C230.56,-72.7 245.08,-69.67 258.51,-67 269.28,-64.85 280.71,-62.65 291.87,-60.54"/>
<polygon fill="#63b8ff" stroke="#63b8ff" points="292.23,-64.03 301.41,-58.74 290.94,-57.15 292.23,-64.03"/>
</g>
<!-- Node7 -->
<g id="node7" class="node">
<title>Node7</title>
<g id="a_node7"><a xlink:href="className.html#a8004ce0cca7df10725e0e34cd541f274" target="_top" xlink:title="Return true if newName is left and right trimmed for whitespace.">
<polygon fill="white" stroke="#666666" points="422.41,-20 300.12,-20 300.12,0 422.41,0 422.41,-20"/>
<text text-anchor="middle" x="361.26" y="-7" font-family="Helvetica,sans-Serif" font-size="10.00">Name::validateTrimmed</text>
</a>
</g>
</g>
<!-- Node2&#45;&gt;Node7 -->
<g id="edge6" class="edge">
<title>Node2&#45;&gt;Node7</title>
<path fill="none" stroke="#63b8ff" d="M181.63,-75.6C198.29,-62.62 228.81,-40.7 258.51,-29 268.02,-25.25 278.34,-22.23 288.62,-19.8"/>
<polygon fill="#63b8ff" stroke="#63b8ff" points="289.23,-23.25 298.26,-17.7 287.74,-16.41 289.23,-23.25"/>
</g>
</g>
</svg>
