<?xml version="1.0" encoding="UTF-8" standalone="no"?>
<!DOCTYPE svg PUBLIC "-//W3C//DTD SVG 1.1//EN"
 "http://www.w3.org/Graphics/SVG/1.1/DTD/svg11.dtd">
<!-- Generated by graphviz version 7.0.5 (20221223.1930)
 -->
<!-- Title: SingleLinkedList::isIn Pages: 1 -->
<svg width="613pt" height="80pt"
 viewBox="0.00 0.00 613.03 79.99" xmlns="http://www.w3.org/2000/svg" xmlns:xlink="http://www.w3.org/1999/xlink">
<g id="graph0" class="graph" transform="scale(1 1) rotate(0) translate(4 75.99)">
<title>SingleLinkedList::isIn</title>
<!-- Node1 -->
<g id="node1" class="node">
<title>Node1</title>
<g id="a_node1"><a xlink:title="Indicates if a specific object is present in the SingleLinkedList.">
<polygon fill="#999999" stroke="#666666" points="605,-33.99 495.11,-33.99 495.11,-13.99 605,-13.99 605,-33.99"/>
<text text-anchor="middle" x="550.06" y="-20.99" font-family="Helvetica,sans-Serif" font-size="10.00">SingleLinkedList::isIn</text>
</a>
</g>
</g>
<!-- Node2 -->
<g id="node2" class="node">
<title>Node2</title>
<g id="a_node2"><a xlink:href="classSingleLinkedList.html#ae4bac7ac6ecc8a0f1d689d2fed3b2c2e" target="_top" xlink:title="Adds a new Node, &#39;newNode&#39;, to SingleLinkedList.">
<polygon fill="white" stroke="#666666" points="266.49,-71.99 155.35,-71.99 155.35,-51.99 266.49,-51.99 266.49,-71.99"/>
<text text-anchor="middle" x="210.92" y="-58.99" font-family="Helvetica,sans-Serif" font-size="10.00">SingleLinkedList::add</text>
</a>
</g>
</g>
<!-- Node1&#45;&gt;Node2 -->
<g id="edge1" class="edge">
<title>Node1&#45;&gt;Node2</title>
<path fill="none" stroke="#63b8ff" d="M494.07,-36.79C482.56,-39.14 470.47,-41.35 459.09,-42.99 393.27,-52.42 316.87,-57.39 266.63,-59.84"/>
<polygon fill="#63b8ff" stroke="#63b8ff" points="494.79,-40.22 503.85,-34.74 493.35,-33.37 494.79,-40.22"/>
</g>
<!-- Node4 -->
<g id="node4" class="node">
<title>Node4</title>
<g id="a_node4"><a xlink:href="classSingleLinkedList.html#ae5d531b9dd176a59642c64e02bca26c0" target="_top" xlink:title="Returns &quot;parent&quot; Node (previous) of thisNode.">
<polygon fill="white" stroke="#666666" points="459.24,-33.99 310.63,-33.99 310.63,-13.99 459.24,-13.99 459.24,-33.99"/>
<text text-anchor="middle" x="384.93" y="-20.99" font-family="Helvetica,sans-Serif" font-size="10.00">SingleLinkedList::getParentOf</text>
</a>
</g>
</g>
<!-- Node1&#45;&gt;Node4 -->
<g id="edge3" class="edge">
<title>Node1&#45;&gt;Node4</title>
<path fill="none" stroke="#63b8ff" d="M483.39,-23.99C475.52,-23.99 467.44,-23.99 459.47,-23.99"/>
<polygon fill="#63b8ff" stroke="#63b8ff" points="483.23,-27.49 493.23,-23.99 483.23,-20.49 483.23,-27.49"/>
</g>
<!-- Node5 -->
<g id="node5" class="node">
<title>Node5</title>
<g id="a_node5"><a xlink:href="classSingleLinkedList.html#af4561d78939a5b2f1c9cf4c86866cec4" target="_top" xlink:title="Removes a Node, &#39;thisNode&#39;, from SingleLinkedList.">
<polygon fill="white" stroke="#666666" points="274.65,-33.99 147.19,-33.99 147.19,-13.99 274.65,-13.99 274.65,-33.99"/>
<text text-anchor="middle" x="210.92" y="-20.99" font-family="Helvetica,sans-Serif" font-size="10.00">SingleLinkedList::remove</text>
</a>
</g>
</g>
<!-- Node1&#45;&gt;Node5 -->
<g id="edge6" class="edge">
<title>Node1&#45;&gt;Node5</title>
<path fill="none" stroke="#63b8ff" d="M497.43,-11.16C484.95,-8.6 471.61,-6.29 459.09,-4.99 393.53,1.86 376.4,1.26 310.78,-4.99 292.86,-6.69 273.36,-10.1 256.44,-13.57"/>
<polygon fill="#63b8ff" stroke="#63b8ff" points="496.59,-14.56 507.11,-13.25 498.07,-7.72 496.59,-14.56"/>
</g>
<!-- Node3 -->
<g id="node3" class="node">
<title>Node3</title>
<g id="a_node3"><a xlink:href="classSingleLinkedList.html#af7e0bb2dfe82ddcb6e8ff9291807e66b" target="_top" xlink:title="Sorts SingleLinkedList via selection sort.">
<polygon fill="white" stroke="#666666" points="111.08,-52.99 -0.03,-52.99 -0.03,-32.99 111.08,-32.99 111.08,-52.99"/>
<text text-anchor="middle" x="55.53" y="-39.99" font-family="Helvetica,sans-Serif" font-size="10.00">SingleLinkedList::sort</text>
</a>
</g>
</g>
<!-- Node2&#45;&gt;Node3 -->
<g id="edge2" class="edge">
<title>Node2&#45;&gt;Node3</title>
<path fill="none" stroke="#63b8ff" d="M143.82,-53.8C132.99,-52.46 121.87,-51.08 111.35,-49.78"/>
<polygon fill="#63b8ff" stroke="#63b8ff" points="143.12,-57.24 153.47,-54.99 143.98,-50.29 143.12,-57.24"/>
</g>
<!-- Node4&#45;&gt;Node5 -->
<g id="edge4" class="edge">
<title>Node4&#45;&gt;Node5</title>
<path fill="none" stroke="#63b8ff" d="M299.1,-23.99C291.01,-23.99 282.92,-23.99 275.09,-23.99"/>
<polygon fill="#63b8ff" stroke="#63b8ff" points="298.97,-27.49 308.97,-23.99 298.97,-20.49 298.97,-27.49"/>
</g>
<!-- Node5&#45;&gt;Node3 -->
<g id="edge5" class="edge">
<title>Node5&#45;&gt;Node3</title>
<path fill="none" stroke="#63b8ff" d="M135.82,-33.16C127.51,-34.19 119.16,-35.23 111.16,-36.22"/>
<polygon fill="#63b8ff" stroke="#63b8ff" points="136.09,-36.66 145.58,-31.95 135.23,-29.71 136.09,-36.66"/>
</g>
</g>
</svg>
