<?xml version="1.0" encoding="UTF-8" standalone="no"?>
<!DOCTYPE svg PUBLIC "-//W3C//DTD SVG 1.1//EN"
 "http://www.w3.org/Graphics/SVG/1.1/DTD/svg11.dtd">
<!-- Generated by graphviz version 7.0.5 (20221223.1930)
 -->
<!-- Title: Mammal::Mammal Pages: 1 -->
<svg width="393pt" height="104pt"
 viewBox="0.00 0.00 393.07 104.00" xmlns="http://www.w3.org/2000/svg" xmlns:xlink="http://www.w3.org/1999/xlink">
<g id="graph0" class="graph" transform="scale(1 1) rotate(0) translate(4 100)">
<title>Mammal::Mammal</title>
<!-- Node1 -->
<g id="node1" class="node">
<title>Node1</title>
<g id="a_node1"><a xlink:title="Generates a Mammal with a specified &#39;color&#39;, &#39;weight&#39;, and Gender.">
<polygon fill="#999999" stroke="#666666" points="98.34,-58 -0.11,-58 -0.11,-38 98.34,-38 98.34,-58"/>
<text text-anchor="middle" x="49.11" y="-45" font-family="Helvetica,sans-Serif" font-size="10.00">Mammal::Mammal</text>
</a>
</g>
</g>
<!-- Node2 -->
<g id="node2" class="node">
<title>Node2</title>
<g id="a_node2"><a xlink:href="classAnimal.html#aec8039997b0be3da027036d998f8207c" target="_top" xlink:title="Generates an Animal with a specified &#39;weight&#39;.">
<polygon fill="white" stroke="#666666" points="223.98,-96 141.6,-96 141.6,-76 223.98,-76 223.98,-96"/>
<text text-anchor="middle" x="182.79" y="-83" font-family="Helvetica,sans-Serif" font-size="10.00">Animal::Animal</text>
</a>
</g>
</g>
<!-- Node1&#45;&gt;Node2 -->
<g id="edge1" class="edge">
<title>Node1&#45;&gt;Node2</title>
<path fill="none" stroke="#63b8ff" d="M86.44,-58.48C101.41,-62.8 118.94,-67.86 134.87,-72.46"/>
<polygon fill="#63b8ff" stroke="#63b8ff" points="133.55,-75.72 144.12,-75.13 135.49,-68.99 133.55,-75.72"/>
</g>
<!-- Node3 -->
<g id="node3" class="node">
<title>Node3</title>
<g id="a_node3"><a xlink:href="classAnimal.html#acde9807bf2eadb3fb6a8650ba7ccfa43" target="_top" xlink:title="Validates &#39;weight&#39; based on specified ruleset.">
<polygon fill="white" stroke="#666666" points="384.93,-77 267.5,-77 267.5,-57 384.93,-57 384.93,-77"/>
<text text-anchor="middle" x="326.21" y="-64" font-family="Helvetica,sans-Serif" font-size="10.00">Animal::validateWeight</text>
</a>
</g>
</g>
<!-- Node1&#45;&gt;Node3 -->
<g id="edge4" class="edge">
<title>Node1&#45;&gt;Node3</title>
<path fill="none" stroke="#63b8ff" d="M98.66,-51.35C142.22,-54.36 206.63,-58.81 255.66,-62.2"/>
<polygon fill="#63b8ff" stroke="#63b8ff" points="255.4,-65.69 265.62,-62.88 255.89,-58.7 255.4,-65.69"/>
</g>
<!-- Node4 -->
<g id="node4" class="node">
<title>Node4</title>
<g id="a_node4"><a xlink:href="classMammal.html#a826f4c8ab8772a1daac49f9214929a77" target="_top" xlink:title="Sets color of Mammal.">
<polygon fill="white" stroke="#666666" points="231.42,-20 134.16,-20 134.16,0 231.42,0 231.42,-20"/>
<text text-anchor="middle" x="182.79" y="-7" font-family="Helvetica,sans-Serif" font-size="10.00">Mammal::setColor</text>
</a>
</g>
</g>
<!-- Node1&#45;&gt;Node4 -->
<g id="edge3" class="edge">
<title>Node1&#45;&gt;Node4</title>
<path fill="none" stroke="#63b8ff" d="M86.44,-37.52C101.41,-33.2 118.94,-28.14 134.87,-23.54"/>
<polygon fill="#63b8ff" stroke="#63b8ff" points="135.49,-27.01 144.12,-20.87 133.55,-20.28 135.49,-27.01"/>
</g>
<!-- Node2&#45;&gt;Node3 -->
<g id="edge2" class="edge">
<title>Node2&#45;&gt;Node3</title>
<path fill="none" stroke="#63b8ff" d="M224.32,-80.56C234.19,-79.23 245.03,-77.77 255.83,-76.32"/>
<polygon fill="#63b8ff" stroke="#63b8ff" points="256.08,-79.82 265.53,-75.02 255.15,-72.88 256.08,-79.82"/>
</g>
</g>
</svg>
