<?xml version="1.0" encoding="UTF-8" standalone="no"?>
<!DOCTYPE svg PUBLIC "-//W3C//DTD SVG 1.1//EN"
 "http://www.w3.org/Graphics/SVG/1.1/DTD/svg11.dtd">
<!-- Generated by graphviz version 7.0.5 (20221223.1930)
 -->
<!-- Title: Animal::info Pages: 1 -->
<svg width="548pt" height="66pt"
 viewBox="0.00 0.00 548.24 66.00" xmlns="http://www.w3.org/2000/svg" xmlns:xlink="http://www.w3.org/1999/xlink">
<g id="graph0" class="graph" transform="scale(1 1) rotate(0) translate(4 62)">
<title>Animal::info</title>
<!-- Node1 -->
<g id="node1" class="node">
<title>Node1</title>
<g id="a_node1"><a xlink:title="Print a unique one&#45;line string representing this object.">
<polygon fill="#999999" stroke="#666666" points="540.36,-39 471.87,-39 471.87,-19 540.36,-19 540.36,-39"/>
<text text-anchor="middle" x="506.11" y="-26" font-family="Helvetica,sans-Serif" font-size="10.00">Animal::info</text>
</a>
</g>
</g>
<!-- Node2 -->
<g id="node2" class="node">
<title>Node2</title>
<g id="a_node2"><a xlink:href="classAnimal.html#a7a892113e7a4a8834cf84b7b2621e2d8" target="_top" xlink:title="Validates Animal based on specified ruleset.">
<polygon fill="white" stroke="#666666" points="435.79,-39 349.6,-39 349.6,-19 435.79,-19 435.79,-39"/>
<text text-anchor="middle" x="392.69" y="-26" font-family="Helvetica,sans-Serif" font-size="10.00">Animal::validate</text>
</a>
</g>
</g>
<!-- Node1&#45;&gt;Node2 -->
<g id="edge1" class="edge">
<title>Node1&#45;&gt;Node2</title>
<path fill="none" stroke="#63b8ff" d="M460.04,-29C452.1,-29 443.85,-29 435.99,-29"/>
<polygon fill="#63b8ff" stroke="#63b8ff" points="459.87,-32.5 469.87,-29 459.87,-25.5 459.87,-32.5"/>
</g>
<!-- Node3 -->
<g id="node3" class="node">
<title>Node3</title>
<g id="a_node3"><a xlink:href="classAnimal.html#a476580d51e6bf6dca87c5a3d395f4347" target="_top" xlink:title="Prints information of Animal (Node properties, &#39;kingdom&#39;, Gender)">
<polygon fill="white" stroke="#666666" points="304.86,-58 227.58,-58 227.58,-38 304.86,-38 304.86,-58"/>
<text text-anchor="middle" x="266.22" y="-45" font-family="Helvetica,sans-Serif" font-size="10.00">Animal::dump</text>
</a>
</g>
</g>
<!-- Node2&#45;&gt;Node3 -->
<g id="edge2" class="edge">
<title>Node2&#45;&gt;Node3</title>
<path fill="none" stroke="#63b8ff" d="M337.95,-37.2C326.98,-38.88 315.64,-40.61 305.34,-42.18"/>
<polygon fill="#63b8ff" stroke="#63b8ff" points="338.35,-40.68 347.71,-35.71 337.29,-33.76 338.35,-40.68"/>
</g>
<!-- Node6 -->
<g id="node6" class="node">
<title>Node6</title>
<g id="a_node6"><a xlink:href="classMammal.html#a11ad9c1757cac1c6fff7ad1ce384e2c7" target="_top" xlink:title="Validates Animal based on specified ruleset.">
<polygon fill="white" stroke="#666666" points="313.58,-20 218.86,-20 218.86,0 313.58,0 313.58,-20"/>
<text text-anchor="middle" x="266.22" y="-7" font-family="Helvetica,sans-Serif" font-size="10.00">Mammal::validate</text>
</a>
</g>
</g>
<!-- Node2&#45;&gt;Node6 -->
<g id="edge5" class="edge">
<title>Node2&#45;&gt;Node6</title>
<path fill="none" stroke="#63b8ff" d="M337.99,-20.8C329.93,-19.57 321.68,-18.31 313.78,-17.11"/>
<polygon fill="#63b8ff" stroke="#63b8ff" points="337.29,-24.24 347.71,-22.29 338.35,-17.32 337.29,-24.24"/>
</g>
<!-- Node4 -->
<g id="node4" class="node">
<title>Node4</title>
<g id="a_node4"><a xlink:href="classMammal.html#ab20372fdea68db8cdf54929f1f6f4e31" target="_top" xlink:title="Prints information about Mammal (Node, Animal, &#39;classification&#39;, &#39;color&#39;)">
<polygon fill="white" stroke="#666666" points="182.99,-58 98.18,-58 98.18,-38 182.99,-38 182.99,-58"/>
<text text-anchor="middle" x="140.59" y="-45" font-family="Helvetica,sans-Serif" font-size="10.00">Mammal::dump</text>
</a>
</g>
</g>
<!-- Node3&#45;&gt;Node4 -->
<g id="edge3" class="edge">
<title>Node3&#45;&gt;Node4</title>
<path fill="none" stroke="#63b8ff" d="M215.7,-48C204.93,-48 193.65,-48 183.22,-48"/>
<polygon fill="#63b8ff" stroke="#63b8ff" points="215.6,-51.5 225.6,-48 215.6,-44.5 215.6,-51.5"/>
</g>
<!-- Node5 -->
<g id="node5" class="node">
<title>Node5</title>
<g id="a_node5"><a xlink:href="classCat.html#a85f15f727bab7daf77a5c6284e9e50cb" target="_top" xlink:title="Prints information about Cat (Node, Animal, Mammal, Name)">
<polygon fill="white" stroke="#666666" points="62.2,-58 -0.07,-58 -0.07,-38 62.2,-38 62.2,-58"/>
<text text-anchor="middle" x="31.07" y="-45" font-family="Helvetica,sans-Serif" font-size="10.00">Cat::dump</text>
</a>
</g>
</g>
<!-- Node4&#45;&gt;Node5 -->
<g id="edge4" class="edge">
<title>Node4&#45;&gt;Node5</title>
<path fill="none" stroke="#63b8ff" d="M86.32,-48C78.21,-48 70.08,-48 62.68,-48"/>
<polygon fill="#63b8ff" stroke="#63b8ff" points="86.19,-51.5 96.19,-48 86.19,-44.5 86.19,-51.5"/>
</g>
<!-- Node7 -->
<g id="node7" class="node">
<title>Node7</title>
<g id="a_node7"><a xlink:href="classCat.html#a0680012e4e432f9a1b128a82948a4798" target="_top" xlink:title="Validates Cat based on specified ruleset.">
<polygon fill="white" stroke="#666666" points="176.17,-20 105,-20 105,0 176.17,0 176.17,-20"/>
<text text-anchor="middle" x="140.59" y="-7" font-family="Helvetica,sans-Serif" font-size="10.00">Cat::validate</text>
</a>
</g>
</g>
<!-- Node6&#45;&gt;Node7 -->
<g id="edge6" class="edge">
<title>Node6&#45;&gt;Node7</title>
<path fill="none" stroke="#63b8ff" d="M207.19,-10C196.68,-10 186.02,-10 176.44,-10"/>
<polygon fill="#63b8ff" stroke="#63b8ff" points="206.96,-13.5 216.96,-10 206.96,-6.5 206.96,-13.5"/>
</g>
<!-- Node8 -->
<g id="node8" class="node">
<title>Node8</title>
<g id="a_node8"><a xlink:href="classCat.html#ae8cbfb9566aca77591c94edfb39413dc" target="_top" xlink:title="Generates a Cat with an unknown &#39;color&#39;, Gender, random &#39;weight&#39;, and specified &#39;newName&#39;.">
<polygon fill="white" stroke="#666666" points="57.25,-20 4.89,-20 4.89,0 57.25,0 57.25,-20"/>
<text text-anchor="middle" x="31.07" y="-7" font-family="Helvetica,sans-Serif" font-size="10.00">Cat::Cat</text>
</a>
</g>
</g>
<!-- Node7&#45;&gt;Node8 -->
<g id="edge7" class="edge">
<title>Node7&#45;&gt;Node8</title>
<path fill="none" stroke="#63b8ff" d="M93.21,-10C81,-10 68.27,-10 57.61,-10"/>
<polygon fill="#63b8ff" stroke="#63b8ff" points="93.16,-13.5 103.16,-10 93.16,-6.5 93.16,-13.5"/>
</g>
</g>
</svg>
