<?xml version="1.0" encoding="UTF-8" standalone="no"?>
<!DOCTYPE svg PUBLIC "-//W3C//DTD SVG 1.1//EN"
 "http://www.w3.org/Graphics/SVG/1.1/DTD/svg11.dtd">
<!-- Generated by graphviz version 7.0.5 (20221223.1930)
 -->
<!-- Title: SingleLinkedList::isSorted Pages: 1 -->
<svg width="576pt" height="104pt"
 viewBox="0.00 0.00 575.78 104.00" xmlns="http://www.w3.org/2000/svg" xmlns:xlink="http://www.w3.org/1999/xlink">
<g id="graph0" class="graph" transform="scale(1 1) rotate(0) translate(4 100)">
<title>SingleLinkedList::isSorted</title>
<!-- Node1 -->
<g id="node1" class="node">
<title>Node1</title>
<g id="a_node1"><a xlink:title="Checks if SingleLinkedList is sorted from least to greatest.">
<polygon fill="#999999" stroke="#666666" points="131.1,-77 -0.03,-77 -0.03,-57 131.1,-57 131.1,-77"/>
<text text-anchor="middle" x="65.53" y="-64" font-family="Helvetica,sans-Serif" font-size="10.00">SingleLinkedList::isSorted</text>
</a>
</g>
</g>
<!-- Node2 -->
<g id="node2" class="node">
<title>Node2</title>
<g id="a_node2"><a xlink:href="classNode.html#af1273b8825cf35f7e08f959c09a6ffe8" target="_top" xlink:title="Compares Node based by numerically comparing addresses.">
<polygon fill="white" stroke="#666666" points="279.6,-96 183.39,-96 183.39,-76 279.6,-76 279.6,-96"/>
<text text-anchor="middle" x="231.49" y="-83" font-family="Helvetica,sans-Serif" font-size="10.00">Node::isLessThan</text>
</a>
</g>
</g>
<!-- Node1&#45;&gt;Node2 -->
<g id="edge1" class="edge">
<title>Node1&#45;&gt;Node2</title>
<path fill="none" stroke="#63b8ff" d="M131.34,-74.51C144.7,-76.06 158.7,-77.68 171.83,-79.2"/>
<polygon fill="#63b8ff" stroke="#63b8ff" points="171.26,-82.66 181.6,-80.33 172.07,-75.71 171.26,-82.66"/>
</g>
<!-- Node3 -->
<g id="node3" class="node">
<title>Node3</title>
<g id="a_node3"><a xlink:href="classSingleLinkedList.html#a4e475a8028331e1eee38a655f88706a6" target="_top" xlink:title="Iterates and validates every object in a SingleLinkedList based on specified ruleset.">
<polygon fill="white" stroke="#666666" points="295.85,-58 167.14,-58 167.14,-38 295.85,-38 295.85,-58"/>
<text text-anchor="middle" x="231.49" y="-45" font-family="Helvetica,sans-Serif" font-size="10.00">SingleLinkedList::validate</text>
</a>
</g>
</g>
<!-- Node1&#45;&gt;Node3 -->
<g id="edge2" class="edge">
<title>Node1&#45;&gt;Node3</title>
<path fill="none" stroke="#63b8ff" d="M131.34,-59.49C139.24,-58.57 147.38,-57.63 155.42,-56.7"/>
<polygon fill="#63b8ff" stroke="#63b8ff" points="155.67,-60.19 165.2,-55.57 154.86,-53.24 155.67,-60.19"/>
</g>
<!-- Node4 -->
<g id="node4" class="node">
<title>Node4</title>
<g id="a_node4"><a xlink:href="classContainer.html#a4ba5dfecf5b1505bd08df17f0c2436c5" target="_top" xlink:title="Generates a Container to place objects into.">
<polygon fill="white" stroke="#666666" points="568.02,-58 467.06,-58 467.06,-38 568.02,-38 568.02,-58"/>
<text text-anchor="middle" x="517.54" y="-45" font-family="Helvetica,sans-Serif" font-size="10.00">Container::isEmpty</text>
</a>
</g>
</g>
<!-- Node3&#45;&gt;Node4 -->
<g id="edge3" class="edge">
<title>Node3&#45;&gt;Node4</title>
<path fill="none" stroke="#63b8ff" d="M277.28,-58.42C294.28,-61.88 313.9,-65.29 331.92,-67 375.89,-71.16 387.4,-71.83 431.3,-67 443.07,-65.7 455.58,-63.43 467.29,-60.9"/>
<polygon fill="#63b8ff" stroke="#63b8ff" points="467.78,-64.38 476.75,-58.75 466.23,-57.55 467.78,-64.38"/>
</g>
<!-- Node5 -->
<g id="node5" class="node">
<title>Node5</title>
<g id="a_node5"><a xlink:href="classNode.html#a9f69825adc179781257e406b3255a93e" target="_top" xlink:title="Ensures Node and all its members are healthy (presumably)">
<polygon fill="white" stroke="#666666" points="421.54,-58 341.68,-58 341.68,-38 421.54,-38 421.54,-58"/>
<text text-anchor="middle" x="381.61" y="-45" font-family="Helvetica,sans-Serif" font-size="10.00">Node::validate</text>
</a>
</g>
</g>
<!-- Node3&#45;&gt;Node5 -->
<g id="edge4" class="edge">
<title>Node3&#45;&gt;Node5</title>
<path fill="none" stroke="#63b8ff" d="M296.17,-48C307.45,-48 319.07,-48 329.93,-48"/>
<polygon fill="#63b8ff" stroke="#63b8ff" points="329.87,-51.5 339.87,-48 329.87,-44.5 329.87,-51.5"/>
</g>
<!-- Node6 -->
<g id="node6" class="node">
<title>Node6</title>
<g id="a_node6"><a xlink:href="classContainer.html#a654be97698b35ecb309b27f8a075b216" target="_top" xlink:title="Validates that Node and Container follow a specified ruleset.">
<polygon fill="white" stroke="#666666" points="431.5,-20 331.73,-20 331.73,0 431.5,0 431.5,-20"/>
<text text-anchor="middle" x="381.61" y="-7" font-family="Helvetica,sans-Serif" font-size="10.00">Container::validate</text>
</a>
</g>
</g>
<!-- Node3&#45;&gt;Node6 -->
<g id="edge5" class="edge">
<title>Node3&#45;&gt;Node6</title>
<path fill="none" stroke="#63b8ff" d="M273.36,-37.52C290.52,-33.11 310.68,-27.94 328.86,-23.28"/>
<polygon fill="#63b8ff" stroke="#63b8ff" points="329.6,-26.7 338.41,-20.83 327.86,-19.92 329.6,-26.7"/>
</g>
<!-- Node6&#45;&gt;Node4 -->
<g id="edge6" class="edge">
<title>Node6&#45;&gt;Node4</title>
<path fill="none" stroke="#63b8ff" d="M419.56,-20.48C434.79,-24.8 452.62,-29.86 468.81,-34.46"/>
<polygon fill="#63b8ff" stroke="#63b8ff" points="467.68,-37.77 478.26,-37.14 469.59,-31.04 467.68,-37.77"/>
</g>
</g>
</svg>
