<?xml version="1.0" encoding="UTF-8" standalone="no"?>
<!DOCTYPE svg PUBLIC "-//W3C//DTD SVG 1.1//EN"
 "http://www.w3.org/Graphics/SVG/1.1/DTD/svg11.dtd">
<!-- Generated by graphviz version 7.0.5 (20221223.1930)
 -->
<!-- Title: SingleLinkedList::add Pages: 1 -->
<!--zoomable 142 -->
<svg id="main" version="1.1" xmlns="http://www.w3.org/2000/svg" xmlns:xlink="http://www.w3.org/1999/xlink" xml:space="preserve" onload="init(evt)">
<style type="text/css"><![CDATA[
.edge:hover path { stroke: red; }
.edge:hover polygon { stroke: red; fill: red; }
]]></style>
<script type="text/javascript"><![CDATA[
var edges = document.getElementsByTagName('g');
if (edges && edges.length) {
  for (var i=0;i<edges.length;i++) {
    if (edges[i].id.substr(0,4)=='edge') {
      edges[i].setAttribute('class','edge');
    }
  }
}
]]></script>
        <defs>
                <circle id="rim" cx="0" cy="0" r="7"/>
                <circle id="rim2" cx="0" cy="0" r="3.5"/>
                <g id="zoomPlus">
                        <use xlink:href="#rim" fill="#404040">
                                <set attributeName="fill" to="#808080" begin="zoomplus.mouseover" end="zoomplus.mouseout"/>
                        </use>
                        <path d="M-4,0h8M0,-4v8" fill="none" stroke="white" stroke-width="1.5" pointer-events="none"/>
                </g>
                <g id="zoomMin">
                        <use xlink:href="#rim" fill="#404040">
                                <set attributeName="fill" to="#808080" begin="zoomminus.mouseover" end="zoomminus.mouseout"/>
                        </use>
                        <path d="M-4,0h8" fill="none" stroke="white" stroke-width="1.5" pointer-events="none"/>
                </g>
                <g id="dirArrow">
                        <path fill="none" stroke="white" stroke-width="1.5" d="M0,-3.0v7 M-2.5,-0.5L0,-3.0L2.5,-0.5"/>
                </g>
               <g id="resetDef">
                       <use xlink:href="#rim2" fill="#404040">
                               <set attributeName="fill" to="#808080" begin="reset.mouseover" end="reset.mouseout"/>
                       </use>
               </g>
        </defs>

<script type="text/javascript">
var viewWidth = 556;
var viewHeight = 142;
var sectionId = 'dynsection-2';
</script>
<script xlink:href="svgpan.js"/>
<svg id="graph" class="graph">
<g id="viewport">
<title>SingleLinkedList::add</title>
<!-- Node1 -->
<g id="node1" class="node">
<title>Node1</title>
<g id="a_node1"><a xlink:title="Adds a new Node, &#39;newNode&#39;, to SingleLinkedList.">
<polygon fill="#999999" stroke="#666666" points="111.1,-96 -0.03,-96 -0.03,-76 111.1,-76 111.1,-96"/>
<text text-anchor="middle" x="55.53" y="-83" font-family="Helvetica,sans-Serif" font-size="10.00">SingleLinkedList::add</text>
</a>
</g>
</g>
<!-- Node2 -->
<g id="node2" class="node">
<title>Node2</title>
<g id="a_node2"><a xlink:href="classSingleLinkedList.html#a28ef6274454e216111ee060540b7944f" target="_top" xlink:title="Indicates if a specific object is present in the SingleLinkedList.">
<polygon fill="white" stroke="#666666" points="266.44,-134 156.55,-134 156.55,-114 266.44,-114 266.44,-134"/>
<text text-anchor="middle" x="211.49" y="-121" font-family="Helvetica,sans-Serif" font-size="10.00">SingleLinkedList::isIn</text>
</a>
</g>
</g>
<!-- Node1&#45;&gt;Node2 -->
<g id="edge1" class="edge">
<title>Node1&#45;&gt;Node2</title>
<path fill="none" stroke="#63b8ff" d="M99.01,-96.48C117.02,-100.93 138.2,-106.16 157.23,-110.85"/>
<polygon fill="#63b8ff" stroke="#63b8ff" points="156.14,-114.19 166.69,-113.19 157.82,-107.39 156.14,-114.19"/>
</g>
<!-- Node3 -->
<g id="node3" class="node">
<title>Node3</title>
<g id="a_node3"><a xlink:href="classNode.html#a9f69825adc179781257e406b3255a93e" target="_top" xlink:title="Ensures Node and all its members are healthy (presumably)">
<polygon fill="white" stroke="#666666" points="401.54,-96 321.68,-96 321.68,-76 401.54,-76 401.54,-96"/>
<text text-anchor="middle" x="361.61" y="-83" font-family="Helvetica,sans-Serif" font-size="10.00">Node::validate</text>
</a>
</g>
</g>
<!-- Node1&#45;&gt;Node3 -->
<g id="edge2" class="edge">
<title>Node1&#45;&gt;Node3</title>
<path fill="none" stroke="#63b8ff" d="M111.6,-86C168.16,-86 255.46,-86 310.24,-86"/>
<polygon fill="#63b8ff" stroke="#63b8ff" points="309.9,-89.5 319.9,-86 309.9,-82.5 309.9,-89.5"/>
</g>
<!-- Node4 -->
<g id="node4" class="node">
<title>Node4</title>
<g id="a_node4"><a xlink:href="classSingleLinkedList.html#a4e475a8028331e1eee38a655f88706a6" target="_top" xlink:title="Iterates and validates every object in a SingleLinkedList based on specified ruleset.">
<polygon fill="white" stroke="#666666" points="275.85,-58 147.14,-58 147.14,-38 275.85,-38 275.85,-58"/>
<text text-anchor="middle" x="211.49" y="-45" font-family="Helvetica,sans-Serif" font-size="10.00">SingleLinkedList::validate</text>
</a>
</g>
</g>
<!-- Node1&#45;&gt;Node4 -->
<g id="edge3" class="edge">
<title>Node1&#45;&gt;Node4</title>
<path fill="none" stroke="#63b8ff" d="M99.01,-75.52C117.02,-71.07 138.2,-65.84 157.23,-61.15"/>
<polygon fill="#63b8ff" stroke="#63b8ff" points="157.82,-64.61 166.69,-58.81 156.14,-57.81 157.82,-64.61"/>
</g>
<!-- Node4&#45;&gt;Node3 -->
<g id="edge5" class="edge">
<title>Node4&#45;&gt;Node3</title>
<path fill="none" stroke="#63b8ff" d="M253.36,-58.48C271.03,-63.02 291.88,-68.37 310.47,-73.14"/>
<polygon fill="#63b8ff" stroke="#63b8ff" points="309.39,-76.47 319.94,-75.57 311.13,-69.69 309.39,-76.47"/>
</g>
<!-- Node5 -->
<g id="node5" class="node">
<title>Node5</title>
<g id="a_node5"><a xlink:href="classContainer.html#a4ba5dfecf5b1505bd08df17f0c2436c5" target="_top" xlink:title="Generates a Container to place objects into.">
<polygon fill="white" stroke="#666666" points="548.02,-39 447.06,-39 447.06,-19 548.02,-19 548.02,-39"/>
<text text-anchor="middle" x="497.54" y="-26" font-family="Helvetica,sans-Serif" font-size="10.00">Container::isEmpty</text>
</a>
</g>
</g>
<!-- Node4&#45;&gt;Node5 -->
<g id="edge4" class="edge">
<title>Node4&#45;&gt;Node5</title>
<path fill="none" stroke="#63b8ff" d="M276.24,-43.74C323.84,-40.55 388.5,-36.23 435.45,-33.09"/>
<polygon fill="#63b8ff" stroke="#63b8ff" points="435.43,-36.6 445.17,-32.44 434.96,-29.61 435.43,-36.6"/>
</g>
<!-- Node6 -->
<g id="node6" class="node">
<title>Node6</title>
<g id="a_node6"><a xlink:href="classContainer.html#a654be97698b35ecb309b27f8a075b216" target="_top" xlink:title="Validates that Node and Container follow a specified ruleset.">
<polygon fill="white" stroke="#666666" points="411.5,-20 311.73,-20 311.73,0 411.5,0 411.5,-20"/>
<text text-anchor="middle" x="361.61" y="-7" font-family="Helvetica,sans-Serif" font-size="10.00">Container::validate</text>
</a>
</g>
</g>
<!-- Node4&#45;&gt;Node6 -->
<g id="edge6" class="edge">
<title>Node4&#45;&gt;Node6</title>
<path fill="none" stroke="#63b8ff" d="M253.36,-37.52C270.52,-33.11 290.68,-27.94 308.86,-23.28"/>
<polygon fill="#63b8ff" stroke="#63b8ff" points="309.6,-26.7 318.41,-20.83 307.86,-19.92 309.6,-26.7"/>
</g>
<!-- Node6&#45;&gt;Node5 -->
<g id="edge7" class="edge">
<title>Node6&#45;&gt;Node5</title>
<path fill="none" stroke="#63b8ff" d="M411.72,-16.97C419.54,-18.08 427.7,-19.23 435.75,-20.38"/>
<polygon fill="#63b8ff" stroke="#63b8ff" points="435.1,-23.82 445.49,-21.76 436.08,-16.89 435.1,-23.82"/>
</g>
</g>
</svg>
        <g id="navigator" transform="translate(0 0)" fill="#404254">
                <rect fill="#f2f5e9" fill-opacity="0.5" stroke="#606060" stroke-width=".5" x="0" y="0" width="60" height="60"/>
                <use id="zoomplus" xlink:href="#zoomPlus" x="17" y="9" onmousedown="handleZoom(evt,'in')"/>
                <use id="zoomminus" xlink:href="#zoomMin" x="42" y="9" onmousedown="handleZoom(evt,'out')"/>
                <use id="reset" xlink:href="#resetDef" x="30" y="36" onmousedown="handleReset()"/>
                <g id="arrowUp" xlink:href="#dirArrow" transform="translate(30 24)" onmousedown="handlePan(0,-1)">
                  <use xlink:href="#rim" fill="#404040">
                        <set attributeName="fill" to="#808080" begin="arrowUp.mouseover" end="arrowUp.mouseout"/>
                  </use>
                  <path fill="none" stroke="white" stroke-width="1.5" d="M0,-3.0v7 M-2.5,-0.5L0,-3.0L2.5,-0.5"/>
                </g>
                <g id="arrowRight" xlink:href="#dirArrow" transform="rotate(90) translate(36 -43)" onmousedown="handlePan(1,0)">
                  <use xlink:href="#rim" fill="#404040">
                        <set attributeName="fill" to="#808080" begin="arrowRight.mouseover" end="arrowRight.mouseout"/>
                  </use>
                  <path fill="none" stroke="white" stroke-width="1.5" d="M0,-3.0v7 M-2.5,-0.5L0,-3.0L2.5,-0.5"/>
                </g>
                <g id="arrowDown" xlink:href="#dirArrow" transform="rotate(180) translate(-30 -48)" onmousedown="handlePan(0,1)">
                  <use xlink:href="#rim" fill="#404040">
                        <set attributeName="fill" to="#808080" begin="arrowDown.mouseover" end="arrowDown.mouseout"/>
                  </use>
                  <path fill="none" stroke="white" stroke-width="1.5" d="M0,-3.0v7 M-2.5,-0.5L0,-3.0L2.5,-0.5"/>
                </g>
                <g id="arrowLeft" xlink:href="#dirArrow" transform="rotate(270) translate(-36 17)" onmousedown="handlePan(-1,0)">
                  <use xlink:href="#rim" fill="#404040">
                        <set attributeName="fill" to="#808080" begin="arrowLeft.mouseover" end="arrowLeft.mouseout"/>
                  </use>
                  <path fill="none" stroke="white" stroke-width="1.5" d="M0,-3.0v7 M-2.5,-0.5L0,-3.0L2.5,-0.5"/>
                </g>
        </g>
        <svg viewBox="0 0 15 15" width="100%" height="30px" preserveAspectRatio="xMaxYMin meet">
         <g id="arrow_out" transform="scale(0.3 0.3)">
          <a xlink:href="classSingleLinkedList_ae4bac7ac6ecc8a0f1d689d2fed3b2c2e_cgraph_org.svg" target="_base">
           <rect id="button" ry="5" rx="5" y="6" x="6" height="38" width="38"
                fill="#f2f5e9" fill-opacity="0.5" stroke="#606060" stroke-width="1.0"/>
           <path id="arrow"
             d="M 11.500037,31.436501 C 11.940474,20.09759 22.043105,11.32322 32.158766,21.979434 L 37.068811,17.246167 C 37.068811,17.246167 37.088388,32 37.088388,32 L 22.160133,31.978069 C 22.160133,31.978069 26.997745,27.140456 26.997745,27.140456 C 18.528582,18.264221 13.291696,25.230495 11.500037,31.436501 z"
             style="fill:#404040;"/>
          </a>
         </g>
        </svg>
</svg>
