<?xml version="1.0" encoding="UTF-8" standalone="no"?>
<!DOCTYPE svg PUBLIC "-//W3C//DTD SVG 1.1//EN"
 "http://www.w3.org/Graphics/SVG/1.1/DTD/svg11.dtd">
<!-- Generated by graphviz version 7.0.5 (20221223.1930)
 -->
<!-- Title: Cat::validate Pages: 1 -->
<!--zoomable 294 -->
<svg id="main" version="1.1" xmlns="http://www.w3.org/2000/svg" xmlns:xlink="http://www.w3.org/1999/xlink" xml:space="preserve" onload="init(evt)">
<style type="text/css"><![CDATA[
.edge:hover path { stroke: red; }
.edge:hover polygon { stroke: red; fill: red; }
]]></style>
<script type="text/javascript"><![CDATA[
var edges = document.getElementsByTagName('g');
if (edges && edges.length) {
  for (var i=0;i<edges.length;i++) {
    if (edges[i].id.substr(0,4)=='edge') {
      edges[i].setAttribute('class','edge');
    }
  }
}
]]></script>
        <defs>
                <circle id="rim" cx="0" cy="0" r="7"/>
                <circle id="rim2" cx="0" cy="0" r="3.5"/>
                <g id="zoomPlus">
                        <use xlink:href="#rim" fill="#404040">
                                <set attributeName="fill" to="#808080" begin="zoomplus.mouseover" end="zoomplus.mouseout"/>
                        </use>
                        <path d="M-4,0h8M0,-4v8" fill="none" stroke="white" stroke-width="1.5" pointer-events="none"/>
                </g>
                <g id="zoomMin">
                        <use xlink:href="#rim" fill="#404040">
                                <set attributeName="fill" to="#808080" begin="zoomminus.mouseover" end="zoomminus.mouseout"/>
                        </use>
                        <path d="M-4,0h8" fill="none" stroke="white" stroke-width="1.5" pointer-events="none"/>
                </g>
                <g id="dirArrow">
                        <path fill="none" stroke="white" stroke-width="1.5" d="M0,-3.0v7 M-2.5,-0.5L0,-3.0L2.5,-0.5"/>
                </g>
               <g id="resetDef">
                       <use xlink:href="#rim2" fill="#404040">
                               <set attributeName="fill" to="#808080" begin="reset.mouseover" end="reset.mouseout"/>
                       </use>
               </g>
        </defs>

<script type="text/javascript">
var viewWidth = 608;
var viewHeight = 294;
var sectionId = 'dynsection-14';
</script>
<script xlink:href="svgpan.js"/>
<svg id="graph" class="graph">
<g id="viewport">
<title>Cat::validate</title>
<!-- Node1 -->
<g id="node1" class="node">
<title>Node1</title>
<g id="a_node1"><a xlink:title="Validates Cat based on specified ruleset.">
<polygon fill="#999999" stroke="#666666" points="71.38,-153 0.21,-153 0.21,-133 71.38,-133 71.38,-153"/>
<text text-anchor="middle" x="35.79" y="-140" font-family="Helvetica,sans-Serif" font-size="10.00">Cat::validate</text>
</a>
</g>
</g>
<!-- Node2 -->
<g id="node2" class="node">
<title>Node2</title>
<g id="a_node2"><a xlink:href="classMammal.html#a11ad9c1757cac1c6fff7ad1ce384e2c7" target="_top" xlink:title="Validates Animal based on specified ruleset.">
<polygon fill="white" stroke="#666666" points="209.63,-229 114.91,-229 114.91,-209 209.63,-209 209.63,-229"/>
<text text-anchor="middle" x="162.27" y="-216" font-family="Helvetica,sans-Serif" font-size="10.00">Mammal::validate</text>
</a>
</g>
</g>
<!-- Node1&#45;&gt;Node2 -->
<g id="edge1" class="edge">
<title>Node1&#45;&gt;Node2</title>
<path fill="none" stroke="#63b8ff" d="M53.84,-153.41C74.7,-166.14 110.25,-187.85 134.7,-202.78"/>
<polygon fill="#63b8ff" stroke="#63b8ff" points="132.78,-205.71 143.14,-207.93 136.43,-199.73 132.78,-205.71"/>
</g>
<!-- Node8 -->
<g id="node8" class="node">
<title>Node8</title>
<g id="a_node8"><a xlink:href="className.html#adf2e3789f330180d37ad880f17e004cc" target="_top" xlink:title="Check if newName is valid.">
<polygon fill="white" stroke="#666666" points="217.15,-115 107.4,-115 107.4,-95 217.15,-95 217.15,-115"/>
<text text-anchor="middle" x="162.27" y="-102" font-family="Helvetica,sans-Serif" font-size="10.00">Name::validateName</text>
</a>
</g>
</g>
<!-- Node1&#45;&gt;Node8 -->
<g id="edge7" class="edge">
<title>Node1&#45;&gt;Node8</title>
<path fill="none" stroke="#63b8ff" d="M71.14,-132.52C85.01,-128.28 101.23,-123.33 116.04,-118.81"/>
<polygon fill="#63b8ff" stroke="#63b8ff" points="117.05,-122.16 125.59,-115.89 115.01,-115.46 117.05,-122.16"/>
</g>
<!-- Node3 -->
<g id="node3" class="node">
<title>Node3</title>
<g id="a_node3"><a xlink:href="classMammal.html#a58a3aed0f5c4a932ee49c7738d81b686" target="_top" xlink:title="Returns classification of Mammal.">
<polygon fill="white" stroke="#666666" points="421.92,-286 289.51,-286 289.51,-266 421.92,-266 421.92,-286"/>
<text text-anchor="middle" x="355.72" y="-273" font-family="Helvetica,sans-Serif" font-size="10.00">Mammal::getClassification</text>
</a>
</g>
</g>
<!-- Node2&#45;&gt;Node3 -->
<g id="edge2" class="edge">
<title>Node2&#45;&gt;Node3</title>
<path fill="none" stroke="#63b8ff" d="M184.18,-229.39C202.06,-237.89 228.67,-249.68 252.96,-257 260.98,-259.42 269.44,-261.58 277.93,-263.51"/>
<polygon fill="#63b8ff" stroke="#63b8ff" points="277.08,-266.9 287.59,-265.59 278.55,-260.06 277.08,-266.9"/>
</g>
<!-- Node4 -->
<g id="node4" class="node">
<title>Node4</title>
<g id="a_node4"><a xlink:href="classAnimal.html#a7a892113e7a4a8834cf84b7b2621e2d8" target="_top" xlink:title="Validates Animal based on specified ruleset.">
<polygon fill="white" stroke="#666666" points="398.81,-248 312.62,-248 312.62,-228 398.81,-228 398.81,-248"/>
<text text-anchor="middle" x="355.72" y="-235" font-family="Helvetica,sans-Serif" font-size="10.00">Animal::validate</text>
</a>
</g>
</g>
<!-- Node2&#45;&gt;Node4 -->
<g id="edge3" class="edge">
<title>Node2&#45;&gt;Node4</title>
<path fill="none" stroke="#63b8ff" d="M210.11,-223.65C237.54,-226.37 272.3,-229.82 300.87,-232.66"/>
<polygon fill="#63b8ff" stroke="#63b8ff" points="300.48,-236.13 310.78,-233.64 301.17,-229.17 300.48,-236.13"/>
</g>
<!-- Node7 -->
<g id="node7" class="node">
<title>Node7</title>
<g id="a_node7"><a xlink:href="Gender_8cpp.html#a538e79224dfde704ae9d2a14d8ca761b" target="_top" xlink:title="Validates a Gender class given via input.">
<polygon fill="white" stroke="#666666" points="397.54,-210 313.89,-210 313.89,-190 397.54,-190 397.54,-210"/>
<text text-anchor="middle" x="355.72" y="-197" font-family="Helvetica,sans-Serif" font-size="10.00">validateGender</text>
</a>
</g>
</g>
<!-- Node2&#45;&gt;Node7 -->
<g id="edge6" class="edge">
<title>Node2&#45;&gt;Node7</title>
<path fill="none" stroke="#63b8ff" d="M210.11,-214.35C238.05,-211.58 273.6,-208.05 302.46,-205.19"/>
<polygon fill="#63b8ff" stroke="#63b8ff" points="302.46,-208.7 312.06,-204.23 301.76,-201.74 302.46,-208.7"/>
</g>
<!-- Node5 -->
<g id="node5" class="node">
<title>Node5</title>
<g id="a_node5"><a xlink:href="classAnimal.html#ae4e9e9cf7a0286c70334400b9310746c" target="_top" xlink:title="Returns &#39;kingdom&#39; of Animal.">
<polygon fill="white" stroke="#666666" points="600.21,-267 494.22,-267 494.22,-247 600.21,-247 600.21,-267"/>
<text text-anchor="middle" x="547.22" y="-254" font-family="Helvetica,sans-Serif" font-size="10.00">Animal::getKingdom</text>
</a>
</g>
</g>
<!-- Node4&#45;&gt;Node5 -->
<g id="edge4" class="edge">
<title>Node4&#45;&gt;Node5</title>
<path fill="none" stroke="#63b8ff" d="M399.24,-242.26C423.89,-244.74 455.4,-247.89 482.91,-250.65"/>
<polygon fill="#63b8ff" stroke="#63b8ff" points="482.23,-254.1 492.53,-251.62 482.92,-247.14 482.23,-254.1"/>
</g>
<!-- Node6 -->
<g id="node6" class="node">
<title>Node6</title>
<g id="a_node6"><a xlink:href="classNode.html#a9f69825adc179781257e406b3255a93e" target="_top" xlink:title="Ensures Node and all its members are healthy (presumably)">
<polygon fill="white" stroke="#666666" points="587.15,-229 507.29,-229 507.29,-209 587.15,-209 587.15,-229"/>
<text text-anchor="middle" x="547.22" y="-216" font-family="Helvetica,sans-Serif" font-size="10.00">Node::validate</text>
</a>
</g>
</g>
<!-- Node4&#45;&gt;Node6 -->
<g id="edge5" class="edge">
<title>Node4&#45;&gt;Node6</title>
<path fill="none" stroke="#63b8ff" d="M399.24,-233.74C427.89,-230.86 465.79,-227.06 495.92,-224.04"/>
<polygon fill="#63b8ff" stroke="#63b8ff" points="495.95,-227.56 505.55,-223.08 495.26,-220.59 495.95,-227.56"/>
</g>
<!-- Node9 -->
<g id="node9" class="node">
<title>Node9</title>
<g id="a_node9"><a xlink:href="className.html#a528a6452c92fdd26082cd1f1ba96f0ee" target="_top" xlink:title="Return true if newName&#39;s interior whitespace is trimmed.">
<polygon fill="white" stroke="#666666" points="458.23,-172 253.2,-172 253.2,-152 458.23,-152 458.23,-172"/>
<text text-anchor="middle" x="355.72" y="-159" font-family="Helvetica,sans-Serif" font-size="10.00">Name::validateInteriorWhitespaceTrimmed</text>
</a>
</g>
</g>
<!-- Node8&#45;&gt;Node9 -->
<g id="edge8" class="edge">
<title>Node8&#45;&gt;Node9</title>
<path fill="none" stroke="#63b8ff" d="M184.18,-115.39C202.06,-123.89 228.67,-135.68 252.96,-143 260.39,-145.24 268.2,-147.26 276.06,-149.08"/>
<polygon fill="#63b8ff" stroke="#63b8ff" points="275.18,-152.47 285.69,-151.19 276.67,-145.63 275.18,-152.47"/>
</g>
<!-- Node10 -->
<g id="node10" class="node">
<title>Node10</title>
<g id="a_node10"><a xlink:href="className.html#a48ffe2521a489104cee5718de979a57a" target="_top" xlink:title="Return true if newName only contains A &#45; Z, a &#45; z, 0&#45;9, space and &#45;">
<polygon fill="white" stroke="#666666" points="433.17,-134 278.26,-134 278.26,-114 433.17,-114 433.17,-134"/>
<text text-anchor="middle" x="355.72" y="-121" font-family="Helvetica,sans-Serif" font-size="10.00">Name::validateNoSpecialChars</text>
</a>
</g>
</g>
<!-- Node8&#45;&gt;Node10 -->
<g id="edge9" class="edge">
<title>Node8&#45;&gt;Node10</title>
<path fill="none" stroke="#63b8ff" d="M217.62,-110.39C233.04,-111.92 250.23,-113.63 267.08,-115.3"/>
<polygon fill="#63b8ff" stroke="#63b8ff" points="266.28,-118.74 276.57,-116.24 266.97,-111.77 266.28,-118.74"/>
</g>
<!-- Node11 -->
<g id="node11" class="node">
<title>Node11</title>
<g id="a_node11"><a xlink:href="className.html#a0af5e33bf02472905a9e9d0b9f9510cf" target="_top" xlink:title="Return true if newName is not empty.">
<polygon fill="white" stroke="#666666" points="418.82,-96 292.61,-96 292.61,-76 418.82,-76 418.82,-96"/>
<text text-anchor="middle" x="355.72" y="-83" font-family="Helvetica,sans-Serif" font-size="10.00">Name::validateNotEmpty</text>
</a>
</g>
</g>
<!-- Node8&#45;&gt;Node11 -->
<g id="edge10" class="edge">
<title>Node8&#45;&gt;Node11</title>
<path fill="none" stroke="#63b8ff" d="M217.62,-99.61C237.3,-97.65 259.86,-95.41 280.93,-93.32"/>
<polygon fill="#63b8ff" stroke="#63b8ff" points="281.01,-96.83 290.62,-92.36 280.32,-89.87 281.01,-96.83"/>
</g>
<!-- Node12 -->
<g id="node12" class="node">
<title>Node12</title>
<g id="a_node12"><a xlink:href="className.html#a024eecc170d4ba3e3fb4f05b35078478" target="_top" xlink:title="Return true if newName starts with an alphabetic character (A &#45; Z or a &#45; z)">
<polygon fill="white" stroke="#666666" points="433.11,-58 278.32,-58 278.32,-38 433.11,-38 433.11,-58"/>
<text text-anchor="middle" x="355.72" y="-45" font-family="Helvetica,sans-Serif" font-size="10.00">Name::validateStartsWithAlpha</text>
</a>
</g>
</g>
<!-- Node8&#45;&gt;Node12 -->
<g id="edge11" class="edge">
<title>Node8&#45;&gt;Node12</title>
<path fill="none" stroke="#63b8ff" d="M184.18,-94.61C202.06,-86.11 228.67,-74.32 252.96,-67 260.39,-64.76 268.2,-62.74 276.06,-60.92"/>
<polygon fill="#63b8ff" stroke="#63b8ff" points="276.67,-64.37 285.69,-58.81 275.18,-57.53 276.67,-64.37"/>
</g>
<!-- Node13 -->
<g id="node13" class="node">
<title>Node13</title>
<g id="a_node13"><a xlink:href="className.html#a8004ce0cca7df10725e0e34cd541f274" target="_top" xlink:title="Return true if newName is left and right trimmed for whitespace.">
<polygon fill="white" stroke="#666666" points="416.86,-20 294.57,-20 294.57,0 416.86,0 416.86,-20"/>
<text text-anchor="middle" x="355.72" y="-7" font-family="Helvetica,sans-Serif" font-size="10.00">Name::validateTrimmed</text>
</a>
</g>
</g>
<!-- Node8&#45;&gt;Node13 -->
<g id="edge12" class="edge">
<title>Node8&#45;&gt;Node13</title>
<path fill="none" stroke="#63b8ff" d="M172.03,-94.72C186.87,-78.03 218.68,-45.3 252.96,-29 262.32,-24.55 272.62,-21.14 282.97,-18.53"/>
<polygon fill="#63b8ff" stroke="#63b8ff" points="283.71,-21.95 292.7,-16.33 282.17,-15.12 283.71,-21.95"/>
</g>
</g>
</svg>
        <g id="navigator" transform="translate(0 0)" fill="#404254">
                <rect fill="#f2f5e9" fill-opacity="0.5" stroke="#606060" stroke-width=".5" x="0" y="0" width="60" height="60"/>
                <use id="zoomplus" xlink:href="#zoomPlus" x="17" y="9" onmousedown="handleZoom(evt,'in')"/>
                <use id="zoomminus" xlink:href="#zoomMin" x="42" y="9" onmousedown="handleZoom(evt,'out')"/>
                <use id="reset" xlink:href="#resetDef" x="30" y="36" onmousedown="handleReset()"/>
                <g id="arrowUp" xlink:href="#dirArrow" transform="translate(30 24)" onmousedown="handlePan(0,-1)">
                  <use xlink:href="#rim" fill="#404040">
                        <set attributeName="fill" to="#808080" begin="arrowUp.mouseover" end="arrowUp.mouseout"/>
                  </use>
                  <path fill="none" stroke="white" stroke-width="1.5" d="M0,-3.0v7 M-2.5,-0.5L0,-3.0L2.5,-0.5"/>
                </g>
                <g id="arrowRight" xlink:href="#dirArrow" transform="rotate(90) translate(36 -43)" onmousedown="handlePan(1,0)">
                  <use xlink:href="#rim" fill="#404040">
                        <set attributeName="fill" to="#808080" begin="arrowRight.mouseover" end="arrowRight.mouseout"/>
                  </use>
                  <path fill="none" stroke="white" stroke-width="1.5" d="M0,-3.0v7 M-2.5,-0.5L0,-3.0L2.5,-0.5"/>
                </g>
                <g id="arrowDown" xlink:href="#dirArrow" transform="rotate(180) translate(-30 -48)" onmousedown="handlePan(0,1)">
                  <use xlink:href="#rim" fill="#404040">
                        <set attributeName="fill" to="#808080" begin="arrowDown.mouseover" end="arrowDown.mouseout"/>
                  </use>
                  <path fill="none" stroke="white" stroke-width="1.5" d="M0,-3.0v7 M-2.5,-0.5L0,-3.0L2.5,-0.5"/>
                </g>
                <g id="arrowLeft" xlink:href="#dirArrow" transform="rotate(270) translate(-36 17)" onmousedown="handlePan(-1,0)">
                  <use xlink:href="#rim" fill="#404040">
                        <set attributeName="fill" to="#808080" begin="arrowLeft.mouseover" end="arrowLeft.mouseout"/>
                  </use>
                  <path fill="none" stroke="white" stroke-width="1.5" d="M0,-3.0v7 M-2.5,-0.5L0,-3.0L2.5,-0.5"/>
                </g>
        </g>
        <svg viewBox="0 0 15 15" width="100%" height="30px" preserveAspectRatio="xMaxYMin meet">
         <g id="arrow_out" transform="scale(0.3 0.3)">
          <a xlink:href="classCat_a0680012e4e432f9a1b128a82948a4798_cgraph_org.svg" target="_base">
           <rect id="button" ry="5" rx="5" y="6" x="6" height="38" width="38"
                fill="#f2f5e9" fill-opacity="0.5" stroke="#606060" stroke-width="1.0"/>
           <path id="arrow"
             d="M 11.500037,31.436501 C 11.940474,20.09759 22.043105,11.32322 32.158766,21.979434 L 37.068811,17.246167 C 37.068811,17.246167 37.088388,32 37.088388,32 L 22.160133,31.978069 C 22.160133,31.978069 26.997745,27.140456 26.997745,27.140456 C 18.528582,18.264221 13.291696,25.230495 11.500037,31.436501 z"
             style="fill:#404040;"/>
          </a>
         </g>
        </svg>
</svg>
