<?xml version="1.0" encoding="UTF-8" standalone="no"?>
<!DOCTYPE svg PUBLIC "-//W3C//DTD SVG 1.1//EN"
 "http://www.w3.org/Graphics/SVG/1.1/DTD/svg11.dtd">
<!-- Generated by graphviz version 7.0.5 (20221223.1930)
 -->
<!-- Title: Container::size Pages: 1 -->
<svg width="401pt" height="28pt"
 viewBox="0.00 0.00 401.48 28.00" xmlns="http://www.w3.org/2000/svg" xmlns:xlink="http://www.w3.org/1999/xlink">
<g id="graph0" class="graph" transform="scale(1 1) rotate(0) translate(4 24)">
<title>Container::size</title>
<!-- Node1 -->
<g id="node1" class="node">
<title>Node1</title>
<g id="a_node1"><a xlink:title="Returns number of objects in Container.">
<polygon fill="#999999" stroke="#666666" points="393.33,-20 310.93,-20 310.93,0 393.33,0 393.33,-20"/>
<text text-anchor="middle" x="352.13" y="-7" font-family="Helvetica,sans-Serif" font-size="10.00">Container::size</text>
</a>
</g>
</g>
<!-- Node2 -->
<g id="node2" class="node">
<title>Node2</title>
<g id="a_node2"><a xlink:href="classSingleLinkedList.html#af4561d78939a5b2f1c9cf4c86866cec4" target="_top" xlink:title="Removes a (thisNode) from the SLL.">
<polygon fill="white" stroke="#666666" points="274.65,-20 147.19,-20 147.19,0 274.65,0 274.65,-20"/>
<text text-anchor="middle" x="210.92" y="-7" font-family="Helvetica,sans-Serif" font-size="10.00">SingleLinkedList::remove</text>
</a>
</g>
</g>
<!-- Node1&#45;&gt;Node2 -->
<g id="edge1" class="edge">
<title>Node1&#45;&gt;Node2</title>
<path fill="none" stroke="#63b8ff" d="M298.98,-10C291.2,-10 283.12,-10 275.14,-10"/>
<polygon fill="#63b8ff" stroke="#63b8ff" points="298.98,-13.5 308.98,-10 298.98,-6.5 298.98,-13.5"/>
</g>
<!-- Node3 -->
<g id="node3" class="node">
<title>Node3</title>
<g id="a_node3"><a xlink:href="classSingleLinkedList.html#af7e0bb2dfe82ddcb6e8ff9291807e66b" target="_top" xlink:title="Sorts an SLL via selection sort.">
<polygon fill="white" stroke="#666666" points="111.08,-20 -0.03,-20 -0.03,0 111.08,0 111.08,-20"/>
<text text-anchor="middle" x="55.53" y="-7" font-family="Helvetica,sans-Serif" font-size="10.00">SingleLinkedList::sort</text>
</a>
</g>
</g>
<!-- Node2&#45;&gt;Node3 -->
<g id="edge2" class="edge">
<title>Node2&#45;&gt;Node3</title>
<path fill="none" stroke="#63b8ff" d="M135.82,-10C127.51,-10 119.16,-10 111.16,-10"/>
<polygon fill="#63b8ff" stroke="#63b8ff" points="135.57,-13.5 145.57,-10 135.57,-6.5 135.57,-13.5"/>
</g>
</g>
</svg>
