<?xml version="1.0" encoding="UTF-8" standalone="no"?>
<!DOCTYPE svg PUBLIC "-//W3C//DTD SVG 1.1//EN"
 "http://www.w3.org/Graphics/SVG/1.1/DTD/svg11.dtd">
<!-- Generated by graphviz version 7.0.5 (20221223.1930)
 -->
<!-- Title: Cat Pages: 1 -->
<!--zoomable 1057 -->
<svg id="main" version="1.1" xmlns="http://www.w3.org/2000/svg" xmlns:xlink="http://www.w3.org/1999/xlink" xml:space="preserve" onload="init(evt)">
<style type="text/css"><![CDATA[
.edge:hover path { stroke: red; }
.edge:hover polygon { stroke: red; fill: red; }
]]></style>
<script type="text/javascript"><![CDATA[
var edges = document.getElementsByTagName('g');
if (edges && edges.length) {
  for (var i=0;i<edges.length;i++) {
    if (edges[i].id.substr(0,4)=='edge') {
      edges[i].setAttribute('class','edge');
    }
  }
}
]]></script>
        <defs>
                <circle id="rim" cx="0" cy="0" r="7"/>
                <circle id="rim2" cx="0" cy="0" r="3.5"/>
                <g id="zoomPlus">
                        <use xlink:href="#rim" fill="#404040">
                                <set attributeName="fill" to="#808080" begin="zoomplus.mouseover" end="zoomplus.mouseout"/>
                        </use>
                        <path d="M-4,0h8M0,-4v8" fill="none" stroke="white" stroke-width="1.5" pointer-events="none"/>
                </g>
                <g id="zoomMin">
                        <use xlink:href="#rim" fill="#404040">
                                <set attributeName="fill" to="#808080" begin="zoomminus.mouseover" end="zoomminus.mouseout"/>
                        </use>
                        <path d="M-4,0h8" fill="none" stroke="white" stroke-width="1.5" pointer-events="none"/>
                </g>
                <g id="dirArrow">
                        <path fill="none" stroke="white" stroke-width="1.5" d="M0,-3.0v7 M-2.5,-0.5L0,-3.0L2.5,-0.5"/>
                </g>
               <g id="resetDef">
                       <use xlink:href="#rim2" fill="#404040">
                               <set attributeName="fill" to="#808080" begin="reset.mouseover" end="reset.mouseout"/>
                       </use>
               </g>
        </defs>

<script type="text/javascript">
var viewWidth = 827;
var viewHeight = 1057;
var sectionId = 'dynsection-1';
</script>
<script xlink:href="svgpan.js"/>
<svg id="graph" class="graph">
<g id="viewport">
<title>Cat</title>
<!-- Node1 -->
<g id="node1" class="node">
<title>Node1</title>
<g id="a_node1"><a xlink:title="Cat class.">
<polygon fill="#999999" stroke="#666666" points="209.13,-0.5 209.13,-240.5 665.6,-240.5 665.6,-0.5 209.13,-0.5"/>
<text text-anchor="middle" x="437.37" y="-227.5" font-family="Helvetica,sans-Serif" font-size="10.00">Cat</text>
<polyline fill="none" stroke="#666666" points="209.13,-220.5 665.6,-220.5"/>
<text text-anchor="start" x="217.13" y="-207.5" font-family="Helvetica,sans-Serif" font-size="10.00">+ enum Gender gender</text>
<text text-anchor="start" x="217.13" y="-195.5" font-family="Helvetica,sans-Serif" font-size="10.00">+ float weightInPounds</text>
<text text-anchor="start" x="217.13" y="-183.5" font-family="Helvetica,sans-Serif" font-size="10.00">+ uint32_t chipId</text>
<text text-anchor="start" x="217.13" y="-171.5" font-family="Helvetica,sans-Serif" font-size="10.00">+ bool isFixed</text>
<polyline fill="none" stroke="#666666" points="209.13,-164.5 665.6,-164.5"/>
<text text-anchor="start" x="217.13" y="-151.5" font-family="Helvetica,sans-Serif" font-size="10.00">+ Cat(const std::string_view newName, const float newWeight, const std::string_view</text>
<text text-anchor="start" x="217.13" y="-139.5" font-family="Helvetica,sans-Serif" font-size="10.00"> newColor, const Gender newGender)</text>
<text text-anchor="start" x="217.13" y="-127.5" font-family="Helvetica,sans-Serif" font-size="10.00">+ Cat(const std::string_view newName, const float newWeight, std::string_view newColor)</text>
<text text-anchor="start" x="217.13" y="-115.5" font-family="Helvetica,sans-Serif" font-size="10.00">+ Cat(const std::string_view newName, const float newWeight, const Gender newGender)</text>
<text text-anchor="start" x="217.13" y="-103.5" font-family="Helvetica,sans-Serif" font-size="10.00">+ Cat(const std::string_view newName, const Gender newGender, const std::string_view newColor)</text>
<text text-anchor="start" x="217.13" y="-91.5" font-family="Helvetica,sans-Serif" font-size="10.00">+ Cat(const std::string_view newName, const float newWeight)</text>
<text text-anchor="start" x="217.13" y="-79.5" font-family="Helvetica,sans-Serif" font-size="10.00">+ Cat(const std::string_view newName, const Gender newGender)</text>
<text text-anchor="start" x="217.13" y="-67.5" font-family="Helvetica,sans-Serif" font-size="10.00">+ Cat(std::string_view newName)</text>
<text text-anchor="start" x="217.13" y="-55.5" font-family="Helvetica,sans-Serif" font-size="10.00">+ std::string_view getName() const noexcept</text>
<text text-anchor="start" x="217.13" y="-43.5" font-family="Helvetica,sans-Serif" font-size="10.00">+ void setName(std::string_view newName)</text>
<text text-anchor="start" x="217.13" y="-31.5" font-family="Helvetica,sans-Serif" font-size="10.00">+ std::string_view speak() const noexcept</text>
<text text-anchor="start" x="217.13" y="-19.5" font-family="Helvetica,sans-Serif" font-size="10.00">+ virtual bool validate() const noexcept</text>
<text text-anchor="start" x="217.13" y="-7.5" font-family="Helvetica,sans-Serif" font-size="10.00">+ virtual void dump() const noexcept</text>
</a>
</g>
</g>
<!-- Node2 -->
<g id="node2" class="node">
<title>Node2</title>
<g id="a_node2"><a xlink:href="classMammal.html" target="_top" xlink:title="Mammals? More like &quot;ma pals!&quot;.">
<polygon fill="white" stroke="#666666" points="55.55,-289.5 55.55,-529.5 409.19,-529.5 409.19,-289.5 55.55,-289.5"/>
<text text-anchor="middle" x="232.37" y="-516.5" font-family="Helvetica,sans-Serif" font-size="10.00">Mammal</text>
<polyline fill="none" stroke="#666666" points="55.55,-509.5 409.19,-509.5"/>
<text text-anchor="start" x="63.55" y="-496.5" font-family="Helvetica,sans-Serif" font-size="10.00"># Gender gender</text>
<polyline fill="none" stroke="#666666" points="55.55,-489.5 409.19,-489.5"/>
<text text-anchor="start" x="63.55" y="-476.5" font-family="Helvetica,sans-Serif" font-size="10.00">+ Mammal(float newWeight, std::string_view newColor, Gender newGender)</text>
<text text-anchor="start" x="63.55" y="-464.5" font-family="Helvetica,sans-Serif" font-size="10.00">+ Mammal(float newWeight, std::string_view newColor)</text>
<text text-anchor="start" x="63.55" y="-452.5" font-family="Helvetica,sans-Serif" font-size="10.00">+ Mammal(float newWeight, Gender newGender)</text>
<text text-anchor="start" x="63.55" y="-440.5" font-family="Helvetica,sans-Serif" font-size="10.00">+ Mammal(Gender newGender, std::string_view newColor)</text>
<text text-anchor="start" x="63.55" y="-428.5" font-family="Helvetica,sans-Serif" font-size="10.00">+ Mammal(float newWeight)</text>
<text text-anchor="start" x="63.55" y="-416.5" font-family="Helvetica,sans-Serif" font-size="10.00">+ Mammal(Gender newGender)</text>
<text text-anchor="start" x="63.55" y="-404.5" font-family="Helvetica,sans-Serif" font-size="10.00">+ Mammal()</text>
<text text-anchor="start" x="63.55" y="-392.5" font-family="Helvetica,sans-Serif" font-size="10.00">+ virtual ~Mammal()</text>
<text text-anchor="start" x="63.55" y="-380.5" font-family="Helvetica,sans-Serif" font-size="10.00">+ void setColor(std::string_view newColor)</text>
<text text-anchor="start" x="63.55" y="-368.5" font-family="Helvetica,sans-Serif" font-size="10.00">+ std::string_view getColor() const noexcept</text>
<text text-anchor="start" x="63.55" y="-356.5" font-family="Helvetica,sans-Serif" font-size="10.00">+ void setGender(Gender newGender)</text>
<text text-anchor="start" x="63.55" y="-344.5" font-family="Helvetica,sans-Serif" font-size="10.00">+ Gender getGender() const noexcept</text>
<text text-anchor="start" x="63.55" y="-332.5" font-family="Helvetica,sans-Serif" font-size="10.00">+ virtual bool validate() const noexcept</text>
<text text-anchor="start" x="63.55" y="-320.5" font-family="Helvetica,sans-Serif" font-size="10.00">+ virtual void dump() const noexcept</text>
<text text-anchor="start" x="63.55" y="-308.5" font-family="Helvetica,sans-Serif" font-size="10.00">+ static std::string_view getClassification() noexcept</text>
<text text-anchor="start" x="63.55" y="-296.5" font-family="Helvetica,sans-Serif" font-size="10.00">+ static std::string_view generateColor() noexcept</text>
</a>
</g>
</g>
<!-- Node2&#45;&gt;Node1 -->
<g id="edge1" class="edge">
<title>Node2&#45;&gt;Node1</title>
<path fill="none" stroke="#63b8ff" d="M323.82,-280.46C333.39,-267.07 343.08,-253.5 352.57,-240.22"/>
<polygon fill="none" stroke="#63b8ff" points="321.07,-278.29 318.11,-288.46 326.77,-282.36 321.07,-278.29"/>
</g>
<!-- Node3 -->
<g id="node3" class="node">
<title>Node3</title>
<g id="a_node3"><a xlink:href="classAnimal.html" target="_top" xlink:title="Are there any malls for animals?">
<polygon fill="white" stroke="#666666" points="143.14,-578.5 143.14,-758.5 397.59,-758.5 397.59,-578.5 143.14,-578.5"/>
<text text-anchor="middle" x="270.37" y="-745.5" font-family="Helvetica,sans-Serif" font-size="10.00">Animal</text>
<polyline fill="none" stroke="#666666" points="143.14,-738.5 397.59,-738.5"/>
<text text-anchor="start" x="151.14" y="-725.5" font-family="Helvetica,sans-Serif" font-size="10.00"># float weight</text>
<polyline fill="none" stroke="#666666" points="143.14,-718.5 397.59,-718.5"/>
<text text-anchor="start" x="151.14" y="-705.5" font-family="Helvetica,sans-Serif" font-size="10.00">+ Animal(float newWeight)</text>
<text text-anchor="start" x="151.14" y="-693.5" font-family="Helvetica,sans-Serif" font-size="10.00">+ Animal()</text>
<text text-anchor="start" x="151.14" y="-681.5" font-family="Helvetica,sans-Serif" font-size="10.00">+ virtual bool validate() const noexcept</text>
<text text-anchor="start" x="151.14" y="-669.5" font-family="Helvetica,sans-Serif" font-size="10.00">+ virtual void dump() const noexcept</text>
<text text-anchor="start" x="151.14" y="-657.5" font-family="Helvetica,sans-Serif" font-size="10.00">+ virtual std::string_view speak() const noexcept=0</text>
<text text-anchor="start" x="151.14" y="-645.5" font-family="Helvetica,sans-Serif" font-size="10.00">+ virtual std::string_view getName() const noexcept=0</text>
<text text-anchor="start" x="151.14" y="-633.5" font-family="Helvetica,sans-Serif" font-size="10.00">+ virtual void info() const noexcept</text>
<text text-anchor="start" x="151.14" y="-621.5" font-family="Helvetica,sans-Serif" font-size="10.00">+ static std::string_view getKingdom() noexcept</text>
<text text-anchor="start" x="151.14" y="-609.5" font-family="Helvetica,sans-Serif" font-size="10.00">+ static bool validateWeight(float weight)</text>
<text text-anchor="start" x="151.14" y="-597.5" font-family="Helvetica,sans-Serif" font-size="10.00">+ static float generatePounds() noexcept</text>
<text text-anchor="start" x="151.14" y="-585.5" font-family="Helvetica,sans-Serif" font-size="10.00">+ static Animal * getRandomAnimal()</text>
</a>
</g>
</g>
<!-- Node3&#45;&gt;Node2 -->
<g id="edge2" class="edge">
<title>Node3&#45;&gt;Node2</title>
<path fill="none" stroke="#63b8ff" d="M255.56,-567.34C253.71,-554.84 251.81,-541.97 249.92,-529.22"/>
<polygon fill="none" stroke="#63b8ff" points="252.09,-567.82 257.01,-577.2 259.01,-566.79 252.09,-567.82"/>
</g>
<!-- Node4 -->
<g id="node4" class="node">
<title>Node4</title>
<g id="a_node4"><a xlink:href="classNode.html" target="_top" xlink:title="Do no new nodes know known nodes!?">
<polygon fill="white" stroke="#666666" points="170.84,-807.5 170.84,-939.5 373.89,-939.5 373.89,-807.5 170.84,-807.5"/>
<text text-anchor="middle" x="272.37" y="-926.5" font-family="Helvetica,sans-Serif" font-size="10.00">Node</text>
<polyline fill="none" stroke="#666666" points="170.84,-919.5 373.89,-919.5"/>
<text text-anchor="middle" x="272.37" y="-906.5" font-family="Helvetica,sans-Serif" font-size="10.00"> </text>
<polyline fill="none" stroke="#666666" points="170.84,-899.5 373.89,-899.5"/>
<text text-anchor="start" x="178.84" y="-886.5" font-family="Helvetica,sans-Serif" font-size="10.00">+ Node()=default</text>
<text text-anchor="start" x="178.84" y="-874.5" font-family="Helvetica,sans-Serif" font-size="10.00">+ virtual ~Node()</text>
<text text-anchor="start" x="178.84" y="-862.5" font-family="Helvetica,sans-Serif" font-size="10.00">+ virtual void reset()</text>
<text text-anchor="start" x="178.84" y="-850.5" font-family="Helvetica,sans-Serif" font-size="10.00">+ virtual void dump() const noexcept</text>
<text text-anchor="start" x="178.84" y="-838.5" font-family="Helvetica,sans-Serif" font-size="10.00">+ virtual bool validate() const</text>
<text text-anchor="start" x="178.84" y="-826.5" font-family="Helvetica,sans-Serif" font-size="10.00">+ virtual void info() const noexcept</text>
<text text-anchor="start" x="178.84" y="-814.5" font-family="Helvetica,sans-Serif" font-size="10.00">+ bool isLessThan(const Node *rhs_node)</text>
</a>
</g>
</g>
<!-- Node4&#45;&gt;Node3 -->
<g id="edge3" class="edge">
<title>Node4&#45;&gt;Node3</title>
<path fill="none" stroke="#63b8ff" d="M271.62,-796.5C271.5,-784.1 271.37,-771.15 271.24,-758.47"/>
<polygon fill="none" stroke="#63b8ff" points="268.12,-796.23 271.71,-806.2 275.11,-796.16 268.12,-796.23"/>
</g>
<!-- Node4&#45;&gt;Node4 -->
<g id="edge4" class="edge">
<title>Node4&#45;&gt;Node4</title>
<path fill="none" stroke="#404040" d="M373.52,-887.77C384.69,-885.06 391.89,-880.31 391.89,-873.5 391.89,-869.67 389.61,-866.49 385.63,-863.96"/>
<polygon fill="none" stroke="#404040" points="385.54,-863.92 378.49,-865.46 374.36,-859.55 381.4,-858.01 385.54,-863.92"/>
<text text-anchor="middle" x="404.4" y="-882.5" font-family="Helvetica,sans-Serif" font-size="10.00"> #left</text>
<text text-anchor="middle" x="404.4" y="-870.5" font-family="Helvetica,sans-Serif" font-size="10.00">#next</text>
<text text-anchor="middle" x="404.4" y="-858.5" font-family="Helvetica,sans-Serif" font-size="10.00">#right</text>
</g>
<!-- Node5 -->
<g id="node5" class="node">
<title>Node5</title>
<g id="a_node5"><a xlink:title=" ">
<polygon fill="white" stroke="#666666" points="37.91,-638.5 37.91,-698.5 122.82,-698.5 122.82,-638.5 37.91,-638.5"/>
<text text-anchor="middle" x="80.37" y="-685.5" font-family="Helvetica,sans-Serif" font-size="10.00">std::string_view</text>
<polyline fill="none" stroke="#666666" points="37.91,-678.5 122.82,-678.5"/>
<text text-anchor="middle" x="80.37" y="-665.5" font-family="Helvetica,sans-Serif" font-size="10.00"> </text>
<polyline fill="none" stroke="#666666" points="37.91,-658.5 122.82,-658.5"/>
<text text-anchor="middle" x="80.37" y="-645.5" font-family="Helvetica,sans-Serif" font-size="10.00"> </text>
</a>
</g>
</g>
<!-- Node5&#45;&gt;Node2 -->
<g id="edge5" class="edge">
<title>Node5&#45;&gt;Node2</title>
<path fill="none" stroke="#404040" d="M97.51,-638.52C111.96,-614.08 133.72,-577.28 155.58,-540.33"/>
<polygon fill="none" stroke="#404040" points="155.48,-540.5 155.09,-533.3 161.59,-530.17 161.97,-537.38 155.48,-540.5"/>
<text text-anchor="middle" x="162.37" y="-551" font-family="Helvetica,sans-Serif" font-size="10.00"> #color</text>
</g>
<!-- Node6 -->
<g id="node6" class="node">
<title>Node6</title>
<g id="a_node6"><a xlink:title=" ">
<polygon fill="white" stroke="#666666" points="0,-843.5 0,-903.5 152.73,-903.5 152.73,-843.5 0,-843.5"/>
<text text-anchor="middle" x="76.37" y="-890.5" font-family="Helvetica,sans-Serif" font-size="10.00">std::basic_string_view&lt; Char &gt;</text>
<polyline fill="none" stroke="#666666" points="0,-883.5 152.73,-883.5"/>
<text text-anchor="middle" x="76.37" y="-870.5" font-family="Helvetica,sans-Serif" font-size="10.00"> </text>
<polyline fill="none" stroke="#666666" points="0,-863.5 152.73,-863.5"/>
<text text-anchor="middle" x="76.37" y="-850.5" font-family="Helvetica,sans-Serif" font-size="10.00"> </text>
</a>
</g>
</g>
<!-- Node6&#45;&gt;Node5 -->
<g id="edge6" class="edge">
<title>Node6&#45;&gt;Node5</title>
<path fill="none" stroke="#63b8ff" d="M77.15,-832.52C77.93,-792.98 79.11,-733.46 79.8,-698.34"/>
<polygon fill="none" stroke="#63b8ff" points="73.66,-832.27 76.96,-842.33 80.66,-832.4 73.66,-832.27"/>
</g>
<!-- Node7 -->
<g id="node7" class="node">
<title>Node7</title>
<g id="a_node7"><a xlink:title=" ">
<polygon fill="white" stroke="#666666" points="478.69,-843.5 478.69,-903.5 538.04,-903.5 538.04,-843.5 478.69,-843.5"/>
<text text-anchor="middle" x="508.37" y="-890.5" font-family="Helvetica,sans-Serif" font-size="10.00">std::string</text>
<polyline fill="none" stroke="#666666" points="478.69,-883.5 538.04,-883.5"/>
<text text-anchor="middle" x="508.37" y="-870.5" font-family="Helvetica,sans-Serif" font-size="10.00"> </text>
<polyline fill="none" stroke="#666666" points="478.69,-863.5 538.04,-863.5"/>
<text text-anchor="middle" x="508.37" y="-850.5" font-family="Helvetica,sans-Serif" font-size="10.00"> </text>
</a>
</g>
</g>
<!-- Node7&#45;&gt;Node1 -->
<g id="edge7" class="edge">
<title>Node7&#45;&gt;Node1</title>
<path fill="none" stroke="#404040" d="M502.9,-843.56C499.94,-827.51 496.3,-807.18 493.37,-789 474.86,-674.2 467.3,-645.76 456.37,-530 447.64,-437.58 442.87,-333 440.29,-252.79"/>
<polygon fill="none" stroke="#404040" points="440.3,-253.03 436.11,-247.16 439.92,-241.04 444.11,-246.91 440.3,-253.03"/>
<text text-anchor="middle" x="476.04" y="-551" font-family="Helvetica,sans-Serif" font-size="10.00"> #name</text>
</g>
<!-- Node9 -->
<g id="node9" class="node">
<title>Node9</title>
<g id="a_node9"><a xlink:href="className.html" target="_top" xlink:title="A utility class for managing Animal names.">
<polygon fill="white" stroke="#666666" points="465.83,-307.5 465.83,-511.5 818.9,-511.5 818.9,-307.5 465.83,-307.5"/>
<text text-anchor="middle" x="642.37" y="-498.5" font-family="Helvetica,sans-Serif" font-size="10.00">Name</text>
<polyline fill="none" stroke="#666666" points="465.83,-491.5 818.9,-491.5"/>
<text text-anchor="start" x="473.83" y="-478.5" font-family="Helvetica,sans-Serif" font-size="10.00">+ static serial_t maxSerial</text>
<text text-anchor="start" x="473.83" y="-466.5" font-family="Helvetica,sans-Serif" font-size="10.00"># enum NameType nameType</text>
<text text-anchor="start" x="473.83" y="-454.5" font-family="Helvetica,sans-Serif" font-size="10.00"># serial_t serial</text>
<polyline fill="none" stroke="#666666" points="465.83,-447.5 818.9,-447.5"/>
<text text-anchor="start" x="473.83" y="-434.5" font-family="Helvetica,sans-Serif" font-size="10.00">+ Name(std::string_view newFilename)</text>
<text text-anchor="start" x="473.83" y="-422.5" font-family="Helvetica,sans-Serif" font-size="10.00">+ Name(std::string_view newSerialPrefix, std::string_view newSerialSuffix)</text>
<text text-anchor="start" x="473.83" y="-410.5" font-family="Helvetica,sans-Serif" font-size="10.00">+ std::string getNextName()</text>
<text text-anchor="start" x="473.83" y="-398.5" font-family="Helvetica,sans-Serif" font-size="10.00">+ void reset()</text>
<text text-anchor="start" x="473.83" y="-386.5" font-family="Helvetica,sans-Serif" font-size="10.00">+ serial_t remainingNames() noexcept</text>
<text text-anchor="start" x="473.83" y="-374.5" font-family="Helvetica,sans-Serif" font-size="10.00">+ static bool validateName(std::string_view newName)</text>
<text text-anchor="start" x="473.83" y="-362.5" font-family="Helvetica,sans-Serif" font-size="10.00">+ static bool validateNotEmpty(std::string_view newName)</text>
<text text-anchor="start" x="473.83" y="-350.5" font-family="Helvetica,sans-Serif" font-size="10.00">+ static bool validateTrimmed(std::string_view newName)</text>
<text text-anchor="start" x="473.83" y="-338.5" font-family="Helvetica,sans-Serif" font-size="10.00">+ static bool validateStartsWithAlpha(std::string_view newName)</text>
<text text-anchor="start" x="473.83" y="-326.5" font-family="Helvetica,sans-Serif" font-size="10.00">+ static bool validateNoSpecialChars(std::string_view newName)</text>
<text text-anchor="start" x="473.83" y="-314.5" font-family="Helvetica,sans-Serif" font-size="10.00">+ static bool validateInteriorWhitespaceTrimmed(std::string_view newName)</text>
</a>
</g>
</g>
<!-- Node7&#45;&gt;Node9 -->
<g id="edge10" class="edge">
<title>Node7&#45;&gt;Node9</title>
<path fill="none" stroke="#404040" d="M503.7,-843.87C496.11,-790.02 484.98,-670.73 517.35,-578 524.08,-558.71 533.9,-539.8 545.13,-522.04"/>
<polygon fill="none" stroke="#404040" points="545.2,-521.92 545.15,-514.71 551.79,-511.89 551.84,-519.1 545.2,-521.92"/>
<text text-anchor="middle" x="544.88" y="-677.5" font-family="Helvetica,sans-Serif" font-size="10.00"> #fileName</text>
<text text-anchor="middle" x="544.88" y="-665.5" font-family="Helvetica,sans-Serif" font-size="10.00">#serialPrefix</text>
<text text-anchor="middle" x="544.88" y="-653.5" font-family="Helvetica,sans-Serif" font-size="10.00">#serialSuffix</text>
</g>
<!-- Node10 -->
<g id="node10" class="node">
<title>Node10</title>
<g id="a_node10"><a xlink:title=" ">
<polygon fill="white" stroke="#666666" points="581.01,-638.5 581.01,-698.5 703.72,-698.5 703.72,-638.5 581.01,-638.5"/>
<text text-anchor="middle" x="642.37" y="-685.5" font-family="Helvetica,sans-Serif" font-size="10.00">std::vector&lt; std::string &gt;</text>
<polyline fill="none" stroke="#666666" points="581.01,-678.5 703.72,-678.5"/>
<text text-anchor="middle" x="642.37" y="-665.5" font-family="Helvetica,sans-Serif" font-size="10.00"> </text>
<polyline fill="none" stroke="#666666" points="581.01,-658.5 703.72,-658.5"/>
<text text-anchor="middle" x="642.37" y="-645.5" font-family="Helvetica,sans-Serif" font-size="10.00"> </text>
</a>
</g>
</g>
<!-- Node7&#45;&gt;Node10 -->
<g id="edge12" class="edge">
<title>Node7&#45;&gt;Node10</title>
<path fill="none" stroke="#404040" d="M527.28,-843.85C550.51,-808.66 590.04,-748.78 616.17,-709.18"/>
<polygon fill="none" stroke="#404040" points="616.22,-709.1 616.19,-701.89 622.84,-699.09 622.87,-706.3 616.22,-709.1"/>
<text text-anchor="middle" x="594.96" y="-780" font-family="Helvetica,sans-Serif" font-size="10.00"> +elements</text>
</g>
<!-- Node8 -->
<g id="node8" class="node">
<title>Node8</title>
<g id="a_node8"><a xlink:title=" ">
<polygon fill="white" stroke="#666666" points="444.78,-988.5 444.78,-1048.5 571.95,-1048.5 571.95,-988.5 444.78,-988.5"/>
<text text-anchor="middle" x="508.37" y="-1035.5" font-family="Helvetica,sans-Serif" font-size="10.00">std::basic_string&lt; Char &gt;</text>
<polyline fill="none" stroke="#666666" points="444.78,-1028.5 571.95,-1028.5"/>
<text text-anchor="middle" x="508.37" y="-1015.5" font-family="Helvetica,sans-Serif" font-size="10.00"> </text>
<polyline fill="none" stroke="#666666" points="444.78,-1008.5 571.95,-1008.5"/>
<text text-anchor="middle" x="508.37" y="-995.5" font-family="Helvetica,sans-Serif" font-size="10.00"> </text>
</a>
</g>
</g>
<!-- Node8&#45;&gt;Node7 -->
<g id="edge8" class="edge">
<title>Node8&#45;&gt;Node7</title>
<path fill="none" stroke="#63b8ff" d="M508.37,-977.2C508.37,-953.7 508.37,-924.61 508.37,-903.4"/>
<polygon fill="none" stroke="#63b8ff" points="504.87,-977.05 508.37,-987.05 511.87,-977.05 504.87,-977.05"/>
</g>
<!-- Node9&#45;&gt;Node1 -->
<g id="edge9" class="edge">
<title>Node9&#45;&gt;Node1</title>
<path fill="none" stroke="#404040" d="M570.38,-307.72C557.24,-289.32 543.36,-269.89 529.73,-250.8"/>
<polygon fill="none" stroke="#404040" points="529.68,-250.74 522.94,-248.18 522.7,-240.97 529.45,-243.53 529.68,-250.74"/>
<text text-anchor="middle" x="559.68" y="-262" font-family="Helvetica,sans-Serif" font-size="10.00"> +names</text>
</g>
<!-- Node10&#45;&gt;Node9 -->
<g id="edge11" class="edge">
<title>Node10&#45;&gt;Node9</title>
<path fill="none" stroke="#404040" d="M642.37,-638.52C642.37,-610.56 642.37,-566.41 642.37,-524.38"/>
<polygon fill="none" stroke="#404040" points="642.37,-524.32 638.37,-518.32 642.37,-512.32 646.37,-518.32 642.37,-524.32"/>
<text text-anchor="middle" x="661.54" y="-551" font-family="Helvetica,sans-Serif" font-size="10.00"> #names</text>
</g>
<!-- Node11 -->
<g id="node11" class="node">
<title>Node11</title>
<g id="a_node11"><a xlink:title=" ">
<polygon fill="white" stroke="#666666" points="599.63,-843.5 599.63,-903.5 685.1,-903.5 685.1,-843.5 599.63,-843.5"/>
<text text-anchor="middle" x="642.37" y="-890.5" font-family="Helvetica,sans-Serif" font-size="10.00">std::vector&lt; T &gt;</text>
<polyline fill="none" stroke="#666666" points="599.63,-883.5 685.1,-883.5"/>
<text text-anchor="middle" x="642.37" y="-870.5" font-family="Helvetica,sans-Serif" font-size="10.00"> </text>
<polyline fill="none" stroke="#666666" points="599.63,-863.5 685.1,-863.5"/>
<text text-anchor="middle" x="642.37" y="-850.5" font-family="Helvetica,sans-Serif" font-size="10.00"> </text>
</a>
</g>
</g>
<!-- Node11&#45;&gt;Node10 -->
<g id="edge13" class="edge">
<title>Node11&#45;&gt;Node10</title>
<path fill="none" stroke="orange" d="M642.37,-832.52C642.37,-792.98 642.37,-733.46 642.37,-698.34"/>
<polygon fill="orange" stroke="orange" points="638.87,-832.33 642.37,-842.33 645.87,-832.33 638.87,-832.33"/>
<text text-anchor="middle" x="674.05" y="-780" font-family="Helvetica,sans-Serif" font-size="10.00"> &lt; std::string &gt;</text>
</g>
<!-- Node12 -->
<g id="node12" class="node">
<title>Node12</title>
<g id="a_node12"><a xlink:title=" ">
<polygon fill="white" stroke="#bfbfbf" points="627.87,-988.5 627.87,-1048.5 656.87,-1048.5 656.87,-988.5 627.87,-988.5"/>
<text text-anchor="middle" x="641.92" y="-1035.5" font-family="Helvetica,sans-Serif" font-size="10.00">T</text>
<polyline fill="none" stroke="#bfbfbf" points="627.87,-1028.5 655.98,-1028.5"/>
<text text-anchor="middle" x="641.92" y="-1015.5" font-family="Helvetica,sans-Serif" font-size="10.00"> </text>
<polyline fill="none" stroke="#bfbfbf" points="627.87,-1008.5 655.98,-1008.5"/>
<text text-anchor="middle" x="641.92" y="-995.5" font-family="Helvetica,sans-Serif" font-size="10.00"> </text>
</a>
</g>
</g>
<!-- Node12&#45;&gt;Node11 -->
<g id="edge14" class="edge">
<title>Node12&#45;&gt;Node11</title>
<path fill="none" stroke="#404040" d="M642.37,-988.56C642.37,-967.82 642.37,-939.57 642.37,-916.37"/>
<polygon fill="none" stroke="#404040" points="642.37,-916.3 638.37,-910.3 642.37,-904.3 646.37,-910.3 642.37,-916.3"/>
<text text-anchor="middle" x="666.96" y="-961" font-family="Helvetica,sans-Serif" font-size="10.00"> +elements</text>
</g>
</g>
</svg>
        <g id="navigator" transform="translate(0 0)" fill="#404254">
                <rect fill="#f2f5e9" fill-opacity="0.5" stroke="#606060" stroke-width=".5" x="0" y="0" width="60" height="60"/>
                <use id="zoomplus" xlink:href="#zoomPlus" x="17" y="9" onmousedown="handleZoom(evt,'in')"/>
                <use id="zoomminus" xlink:href="#zoomMin" x="42" y="9" onmousedown="handleZoom(evt,'out')"/>
                <use id="reset" xlink:href="#resetDef" x="30" y="36" onmousedown="handleReset()"/>
                <g id="arrowUp" xlink:href="#dirArrow" transform="translate(30 24)" onmousedown="handlePan(0,-1)">
                  <use xlink:href="#rim" fill="#404040">
                        <set attributeName="fill" to="#808080" begin="arrowUp.mouseover" end="arrowUp.mouseout"/>
                  </use>
                  <path fill="none" stroke="white" stroke-width="1.5" d="M0,-3.0v7 M-2.5,-0.5L0,-3.0L2.5,-0.5"/>
                </g>
                <g id="arrowRight" xlink:href="#dirArrow" transform="rotate(90) translate(36 -43)" onmousedown="handlePan(1,0)">
                  <use xlink:href="#rim" fill="#404040">
                        <set attributeName="fill" to="#808080" begin="arrowRight.mouseover" end="arrowRight.mouseout"/>
                  </use>
                  <path fill="none" stroke="white" stroke-width="1.5" d="M0,-3.0v7 M-2.5,-0.5L0,-3.0L2.5,-0.5"/>
                </g>
                <g id="arrowDown" xlink:href="#dirArrow" transform="rotate(180) translate(-30 -48)" onmousedown="handlePan(0,1)">
                  <use xlink:href="#rim" fill="#404040">
                        <set attributeName="fill" to="#808080" begin="arrowDown.mouseover" end="arrowDown.mouseout"/>
                  </use>
                  <path fill="none" stroke="white" stroke-width="1.5" d="M0,-3.0v7 M-2.5,-0.5L0,-3.0L2.5,-0.5"/>
                </g>
                <g id="arrowLeft" xlink:href="#dirArrow" transform="rotate(270) translate(-36 17)" onmousedown="handlePan(-1,0)">
                  <use xlink:href="#rim" fill="#404040">
                        <set attributeName="fill" to="#808080" begin="arrowLeft.mouseover" end="arrowLeft.mouseout"/>
                  </use>
                  <path fill="none" stroke="white" stroke-width="1.5" d="M0,-3.0v7 M-2.5,-0.5L0,-3.0L2.5,-0.5"/>
                </g>
        </g>
        <svg viewBox="0 0 15 15" width="100%" height="30px" preserveAspectRatio="xMaxYMin meet">
         <g id="arrow_out" transform="scale(0.3 0.3)">
          <a xlink:href="classCat__coll__graph_org.svg" target="_base">
           <rect id="button" ry="5" rx="5" y="6" x="6" height="38" width="38"
                fill="#f2f5e9" fill-opacity="0.5" stroke="#606060" stroke-width="1.0"/>
           <path id="arrow"
             d="M 11.500037,31.436501 C 11.940474,20.09759 22.043105,11.32322 32.158766,21.979434 L 37.068811,17.246167 C 37.068811,17.246167 37.088388,32 37.088388,32 L 22.160133,31.978069 C 22.160133,31.978069 26.997745,27.140456 26.997745,27.140456 C 18.528582,18.264221 13.291696,25.230495 11.500037,31.436501 z"
             style="fill:#404040;"/>
          </a>
         </g>
        </svg>
</svg>
