<?xml version="1.0" encoding="UTF-8" standalone="no"?>
<!DOCTYPE svg PUBLIC "-//W3C//DTD SVG 1.1//EN"
 "http://www.w3.org/Graphics/SVG/1.1/DTD/svg11.dtd">
<!-- Generated by graphviz version 7.0.5 (20221223.1930)
 -->
<!-- Title: Name::reset Pages: 1 -->
<svg width="394pt" height="28pt"
 viewBox="0.00 0.00 394.22 28.00" xmlns="http://www.w3.org/2000/svg" xmlns:xlink="http://www.w3.org/1999/xlink">
<g id="graph0" class="graph" transform="scale(1 1) rotate(0) translate(4 24)">
<title>Name::reset</title>
<!-- Node1 -->
<g id="node1" class="node">
<title>Node1</title>
<g id="a_node1"><a xlink:title="Erase and then re&#45;load the names database or set the serial number to 0.">
<polygon fill="#999999" stroke="#666666" points="386.45,-20 315.52,-20 315.52,0 386.45,0 386.45,-20"/>
<text text-anchor="middle" x="350.99" y="-7" font-family="Helvetica,sans-Serif" font-size="10.00">Name::reset</text>
</a>
</g>
</g>
<!-- Node2 -->
<g id="node2" class="node">
<title>Node2</title>
<g id="a_node2"><a xlink:href="className.html#ad7a220d0aae6115ce4b63a7cb04b814b" target="_top" xlink:title="Get the next name.">
<polygon fill="white" stroke="#666666" points="279.94,-20 170.2,-20 170.2,0 279.94,0 279.94,-20"/>
<text text-anchor="middle" x="225.07" y="-7" font-family="Helvetica,sans-Serif" font-size="10.00">Name::getNextName</text>
</a>
</g>
</g>
<!-- Node1&#45;&gt;Node2 -->
<g id="edge1" class="edge">
<title>Node1&#45;&gt;Node2</title>
<path fill="none" stroke="#63b8ff" d="M303.77,-10C296.06,-10 288,-10 280.11,-10"/>
<polygon fill="#63b8ff" stroke="#63b8ff" points="303.63,-13.5 313.63,-10 303.63,-6.5 303.63,-13.5"/>
</g>
<!-- Node3 -->
<g id="node3" class="node">
<title>Node3</title>
<g id="a_node3"><a xlink:href="classAnimal.html#a6c67202c385f8e213a21454565f01e62" target="_top" xlink:title="Generates a random Animal with random specifications (in this case, a Cat)">
<polygon fill="white" stroke="#666666" points="134.58,-20 -0.19,-20 -0.19,0 134.58,0 134.58,-20"/>
<text text-anchor="middle" x="67.19" y="-7" font-family="Helvetica,sans-Serif" font-size="10.00">Animal::getRandomAnimal</text>
</a>
</g>
</g>
<!-- Node2&#45;&gt;Node3 -->
<g id="edge2" class="edge">
<title>Node2&#45;&gt;Node3</title>
<path fill="none" stroke="#63b8ff" d="M158.62,-10C150.75,-10 142.71,-10 134.82,-10"/>
<polygon fill="#63b8ff" stroke="#63b8ff" points="158.48,-13.5 168.48,-10 158.48,-6.5 158.48,-13.5"/>
</g>
</g>
</svg>
