<?xml version="1.0" encoding="UTF-8" standalone="no"?>
<!DOCTYPE svg PUBLIC "-//W3C//DTD SVG 1.1//EN"
 "http://www.w3.org/Graphics/SVG/1.1/DTD/svg11.dtd">
<!-- Generated by graphviz version 7.0.5 (20221223.1930)
 -->
<!-- Title: Mammal::validate Pages: 1 -->
<svg width="541pt" height="104pt"
 viewBox="0.00 0.00 541.25 104.00" xmlns="http://www.w3.org/2000/svg" xmlns:xlink="http://www.w3.org/1999/xlink">
<g id="graph0" class="graph" transform="scale(1 1) rotate(0) translate(4 100)">
<title>Mammal::validate</title>
<!-- Node1 -->
<g id="node1" class="node">
<title>Node1</title>
<g id="a_node1"><a xlink:title="Validates Animal based on specified ruleset.">
<polygon fill="#999999" stroke="#666666" points="94.54,-58 -0.18,-58 -0.18,-38 94.54,-38 94.54,-58"/>
<text text-anchor="middle" x="47.18" y="-45" font-family="Helvetica,sans-Serif" font-size="10.00">Mammal::validate</text>
</a>
</g>
</g>
<!-- Node2 -->
<g id="node2" class="node">
<title>Node2</title>
<g id="a_node2"><a xlink:href="classMammal.html#a58a3aed0f5c4a932ee49c7738d81b686" target="_top" xlink:title="Returns classification of Mammal.">
<polygon fill="white" stroke="#666666" points="262.92,-96 130.51,-96 130.51,-76 262.92,-76 262.92,-96"/>
<text text-anchor="middle" x="196.71" y="-83" font-family="Helvetica,sans-Serif" font-size="10.00">Mammal::getClassification</text>
</a>
</g>
</g>
<!-- Node1&#45;&gt;Node2 -->
<g id="edge1" class="edge">
<title>Node1&#45;&gt;Node2</title>
<path fill="none" stroke="#63b8ff" d="M88.88,-58.48C105.98,-62.89 126.06,-68.06 144.16,-72.72"/>
<polygon fill="#63b8ff" stroke="#63b8ff" points="143.12,-76.07 153.67,-75.17 144.86,-69.29 143.12,-76.07"/>
</g>
<!-- Node3 -->
<g id="node3" class="node">
<title>Node3</title>
<g id="a_node3"><a xlink:href="classAnimal.html#a7a892113e7a4a8834cf84b7b2621e2d8" target="_top" xlink:title="Validates Animal based on specified ruleset.">
<polygon fill="white" stroke="#666666" points="239.8,-58 153.62,-58 153.62,-38 239.8,-38 239.8,-58"/>
<text text-anchor="middle" x="196.71" y="-45" font-family="Helvetica,sans-Serif" font-size="10.00">Animal::validate</text>
</a>
</g>
</g>
<!-- Node1&#45;&gt;Node3 -->
<g id="edge2" class="edge">
<title>Node1&#45;&gt;Node3</title>
<path fill="none" stroke="#63b8ff" d="M94.86,-48C109.79,-48 126.45,-48 141.85,-48"/>
<polygon fill="#63b8ff" stroke="#63b8ff" points="141.82,-51.5 151.82,-48 141.82,-44.5 141.82,-51.5"/>
</g>
<!-- Node9 -->
<g id="node9" class="node">
<title>Node9</title>
<g id="a_node9"><a xlink:href="Gender_8cpp.html#a538e79224dfde704ae9d2a14d8ca761b" target="_top" xlink:title="Validates a Gender class given via input.">
<polygon fill="white" stroke="#666666" points="238.53,-20 154.89,-20 154.89,0 238.53,0 238.53,-20"/>
<text text-anchor="middle" x="196.71" y="-7" font-family="Helvetica,sans-Serif" font-size="10.00">validateGender</text>
</a>
</g>
</g>
<!-- Node1&#45;&gt;Node9 -->
<g id="edge8" class="edge">
<title>Node1&#45;&gt;Node9</title>
<path fill="none" stroke="#63b8ff" d="M88.88,-37.52C105.98,-33.11 126.06,-27.94 144.16,-23.28"/>
<polygon fill="#63b8ff" stroke="#63b8ff" points="144.86,-26.71 153.67,-20.83 143.12,-19.93 144.86,-26.71"/>
</g>
<!-- Node4 -->
<g id="node4" class="node">
<title>Node4</title>
<g id="a_node4"><a xlink:href="classAnimal.html#ae4e9e9cf7a0286c70334400b9310746c" target="_top" xlink:title="Returns &#39;kingdom&#39; of Animal.">
<polygon fill="white" stroke="#666666" points="404.8,-96 298.82,-96 298.82,-76 404.8,-76 404.8,-96"/>
<text text-anchor="middle" x="351.81" y="-83" font-family="Helvetica,sans-Serif" font-size="10.00">Animal::getKingdom</text>
</a>
</g>
</g>
<!-- Node3&#45;&gt;Node4 -->
<g id="edge3" class="edge">
<title>Node3&#45;&gt;Node4</title>
<path fill="none" stroke="#63b8ff" d="M239.95,-58.48C257.77,-62.91 278.72,-68.11 297.58,-72.79"/>
<polygon fill="#63b8ff" stroke="#63b8ff" points="296.69,-76.17 307.24,-75.19 298.38,-69.38 296.69,-76.17"/>
</g>
<!-- Node5 -->
<g id="node5" class="node">
<title>Node5</title>
<g id="a_node5"><a xlink:href="classAnimal.html#a46746d51ff73a32d4d96638c72fdb546" target="_top" xlink:title="Print a unique one&#45;line string representing this object.">
<polygon fill="white" stroke="#666666" points="386.06,-58 317.56,-58 317.56,-38 386.06,-38 386.06,-58"/>
<text text-anchor="middle" x="351.81" y="-45" font-family="Helvetica,sans-Serif" font-size="10.00">Animal::info</text>
</a>
</g>
</g>
<!-- Node3&#45;&gt;Node5 -->
<g id="edge4" class="edge">
<title>Node3&#45;&gt;Node5</title>
<path fill="none" stroke="#63b8ff" d="M239.95,-48C260.47,-48 285.13,-48 305.98,-48"/>
<polygon fill="#63b8ff" stroke="#63b8ff" points="305.92,-51.5 315.92,-48 305.92,-44.5 305.92,-51.5"/>
</g>
<!-- Node8 -->
<g id="node8" class="node">
<title>Node8</title>
<g id="a_node8"><a xlink:href="classNode.html#a9f69825adc179781257e406b3255a93e" target="_top" xlink:title="Ensures Node and all its members are healthy (presumably)">
<polygon fill="white" stroke="#666666" points="391.74,-20 311.88,-20 311.88,0 391.74,0 391.74,-20"/>
<text text-anchor="middle" x="351.81" y="-7" font-family="Helvetica,sans-Serif" font-size="10.00">Node::validate</text>
</a>
</g>
</g>
<!-- Node3&#45;&gt;Node8 -->
<g id="edge7" class="edge">
<title>Node3&#45;&gt;Node8</title>
<path fill="none" stroke="#63b8ff" d="M239.95,-37.52C258.76,-32.85 281.05,-27.32 300.69,-22.44"/>
<polygon fill="#63b8ff" stroke="#63b8ff" points="301.27,-25.9 310.13,-20.1 299.58,-19.11 301.27,-25.9"/>
</g>
<!-- Node6 -->
<g id="node6" class="node">
<title>Node6</title>
<g id="a_node6"><a xlink:href="classAnimal.html#a1b6305d15bcb9b2bf01d56d487cdef32" target="_top" xlink:title="Gets the Name of the Animal.">
<polygon fill="white" stroke="#666666" points="533.1,-77 440.71,-77 440.71,-57 533.1,-57 533.1,-77"/>
<text text-anchor="middle" x="486.91" y="-64" font-family="Helvetica,sans-Serif" font-size="10.00">Animal::getName</text>
</a>
</g>
</g>
<!-- Node5&#45;&gt;Node6 -->
<g id="edge5" class="edge">
<title>Node5&#45;&gt;Node6</title>
<path fill="none" stroke="#63b8ff" d="M386.4,-52.79C399.4,-54.65 414.66,-56.83 429.27,-58.92"/>
<polygon fill="#63b8ff" stroke="#63b8ff" points="428.37,-62.32 438.77,-60.27 429.36,-55.39 428.37,-62.32"/>
</g>
<!-- Node7 -->
<g id="node7" class="node">
<title>Node7</title>
<g id="a_node7"><a xlink:href="classAnimal.html#af10562d453ade06332323cb688dd7b1f" target="_top" xlink:title="Makes the Animal speak! (because who would let the dogs out if they won&#39;t woof)">
<polygon fill="white" stroke="#666666" points="526.21,-39 447.6,-39 447.6,-19 526.21,-19 526.21,-39"/>
<text text-anchor="middle" x="486.91" y="-26" font-family="Helvetica,sans-Serif" font-size="10.00">Animal::speak</text>
</a>
</g>
</g>
<!-- Node5&#45;&gt;Node7 -->
<g id="edge6" class="edge">
<title>Node5&#45;&gt;Node7</title>
<path fill="none" stroke="#63b8ff" d="M386.4,-43.21C401.41,-41.06 419.42,-38.49 435.97,-36.13"/>
<polygon fill="#63b8ff" stroke="#63b8ff" points="436.24,-39.63 445.64,-34.75 435.25,-32.7 436.24,-39.63"/>
</g>
</g>
</svg>
