<?xml version="1.0" encoding="UTF-8" standalone="no"?>
<!DOCTYPE svg PUBLIC "-//W3C//DTD SVG 1.1//EN"
 "http://www.w3.org/Graphics/SVG/1.1/DTD/svg11.dtd">
<!-- Generated by graphviz version 7.0.5 (20221223.1930)
 -->
<!-- Title: Name::validateName Pages: 1 -->
<svg width="359pt" height="180pt"
 viewBox="0.00 0.00 358.89 180.00" xmlns="http://www.w3.org/2000/svg" xmlns:xlink="http://www.w3.org/1999/xlink">
<g id="graph0" class="graph" transform="scale(1 1) rotate(0) translate(4 176)">
<title>Name::validateName</title>
<!-- Node1 -->
<g id="node1" class="node">
<title>Node1</title>
<g id="a_node1"><a xlink:title="Check if newName is valid.">
<polygon fill="#999999" stroke="#666666" points="109.56,-96 -0.19,-96 -0.19,-76 109.56,-76 109.56,-96"/>
<text text-anchor="middle" x="54.69" y="-83" font-family="Helvetica,sans-Serif" font-size="10.00">Name::validateName</text>
</a>
</g>
</g>
<!-- Node2 -->
<g id="node2" class="node">
<title>Node2</title>
<g id="a_node2"><a xlink:href="className.html#a528a6452c92fdd26082cd1f1ba96f0ee" target="_top" xlink:title="Return true if newName&#39;s interior whitespace is trimmed.">
<polygon fill="white" stroke="#666666" points="350.64,-172 145.62,-172 145.62,-152 350.64,-152 350.64,-172"/>
<text text-anchor="middle" x="248.13" y="-159" font-family="Helvetica,sans-Serif" font-size="10.00">Name::validateInteriorWhitespaceTrimmed</text>
</a>
</g>
</g>
<!-- Node1&#45;&gt;Node2 -->
<g id="edge1" class="edge">
<title>Node1&#45;&gt;Node2</title>
<path fill="none" stroke="#63b8ff" d="M68.49,-96.4C85.16,-109.38 115.68,-131.3 145.37,-143 150.67,-145.09 156.22,-146.95 161.87,-148.61"/>
<polygon fill="#63b8ff" stroke="#63b8ff" points="160.8,-151.95 171.37,-151.17 162.62,-145.19 160.8,-151.95"/>
</g>
<!-- Node3 -->
<g id="node3" class="node">
<title>Node3</title>
<g id="a_node3"><a xlink:href="className.html#a48ffe2521a489104cee5718de979a57a" target="_top" xlink:title="Return true if newName only contains A &#45; Z, a &#45; z, 0&#45;9, space and &#45;">
<polygon fill="white" stroke="#666666" points="325.58,-134 170.67,-134 170.67,-114 325.58,-114 325.58,-134"/>
<text text-anchor="middle" x="248.13" y="-121" font-family="Helvetica,sans-Serif" font-size="10.00">Name::validateNoSpecialChars</text>
</a>
</g>
</g>
<!-- Node1&#45;&gt;Node3 -->
<g id="edge2" class="edge">
<title>Node1&#45;&gt;Node3</title>
<path fill="none" stroke="#63b8ff" d="M104.05,-96.47C117.42,-99.3 131.95,-102.33 145.37,-105 156.15,-107.15 167.58,-109.35 178.74,-111.46"/>
<polygon fill="#63b8ff" stroke="#63b8ff" points="177.81,-114.85 188.28,-113.26 179.1,-107.97 177.81,-114.85"/>
</g>
<!-- Node4 -->
<g id="node4" class="node">
<title>Node4</title>
<g id="a_node4"><a xlink:href="className.html#a0af5e33bf02472905a9e9d0b9f9510cf" target="_top" xlink:title="Return true if newName is not empty.">
<polygon fill="white" stroke="#666666" points="311.23,-96 185.03,-96 185.03,-76 311.23,-76 311.23,-96"/>
<text text-anchor="middle" x="248.13" y="-83" font-family="Helvetica,sans-Serif" font-size="10.00">Name::validateNotEmpty</text>
</a>
</g>
</g>
<!-- Node1&#45;&gt;Node4 -->
<g id="edge3" class="edge">
<title>Node1&#45;&gt;Node4</title>
<path fill="none" stroke="#63b8ff" d="M110.03,-86C129.62,-86 152.07,-86 173.06,-86"/>
<polygon fill="#63b8ff" stroke="#63b8ff" points="173.02,-89.5 183.02,-86 173.02,-82.5 173.02,-89.5"/>
</g>
<!-- Node5 -->
<g id="node5" class="node">
<title>Node5</title>
<g id="a_node5"><a xlink:href="className.html#a024eecc170d4ba3e3fb4f05b35078478" target="_top" xlink:title="Return true if newName starts with an alphabetic character (A &#45; Z or a &#45; z)">
<polygon fill="white" stroke="#666666" points="325.52,-58 170.74,-58 170.74,-38 325.52,-38 325.52,-58"/>
<text text-anchor="middle" x="248.13" y="-45" font-family="Helvetica,sans-Serif" font-size="10.00">Name::validateStartsWithAlpha</text>
</a>
</g>
</g>
<!-- Node1&#45;&gt;Node5 -->
<g id="edge4" class="edge">
<title>Node1&#45;&gt;Node5</title>
<path fill="none" stroke="#63b8ff" d="M104.05,-75.53C117.42,-72.7 131.95,-69.67 145.37,-67 156.15,-64.85 167.58,-62.65 178.74,-60.54"/>
<polygon fill="#63b8ff" stroke="#63b8ff" points="179.1,-64.03 188.28,-58.74 177.81,-57.15 179.1,-64.03"/>
</g>
<!-- Node6 -->
<g id="node6" class="node">
<title>Node6</title>
<g id="a_node6"><a xlink:href="className.html#a8004ce0cca7df10725e0e34cd541f274" target="_top" xlink:title="Return true if newName is left and right trimmed for whitespace.">
<polygon fill="white" stroke="#666666" points="309.27,-20 186.99,-20 186.99,0 309.27,0 309.27,-20"/>
<text text-anchor="middle" x="248.13" y="-7" font-family="Helvetica,sans-Serif" font-size="10.00">Name::validateTrimmed</text>
</a>
</g>
</g>
<!-- Node1&#45;&gt;Node6 -->
<g id="edge5" class="edge">
<title>Node1&#45;&gt;Node6</title>
<path fill="none" stroke="#63b8ff" d="M68.49,-75.6C85.16,-62.62 115.68,-40.7 145.37,-29 154.89,-25.25 165.2,-22.23 175.49,-19.8"/>
<polygon fill="#63b8ff" stroke="#63b8ff" points="176.1,-23.25 185.13,-17.7 174.61,-16.41 176.1,-23.25"/>
</g>
</g>
</svg>
