<?xml version="1.0" encoding="UTF-8" standalone="no"?>
<!DOCTYPE svg PUBLIC "-//W3C//DTD SVG 1.1//EN"
 "http://www.w3.org/Graphics/SVG/1.1/DTD/svg11.dtd">
<!-- Generated by graphviz version 7.0.5 (20221223.1930)
 -->
<!-- Title: Animal::getKingdom Pages: 1 -->
<!--zoomable 66 -->
<svg id="main" version="1.1" xmlns="http://www.w3.org/2000/svg" xmlns:xlink="http://www.w3.org/1999/xlink" xml:space="preserve" onload="init(evt)">
<style type="text/css"><![CDATA[
.edge:hover path { stroke: red; }
.edge:hover polygon { stroke: red; fill: red; }
]]></style>
<script type="text/javascript"><![CDATA[
var edges = document.getElementsByTagName('g');
if (edges && edges.length) {
  for (var i=0;i<edges.length;i++) {
    if (edges[i].id.substr(0,4)=='edge') {
      edges[i].setAttribute('class','edge');
    }
  }
}
]]></script>
        <defs>
                <circle id="rim" cx="0" cy="0" r="7"/>
                <circle id="rim2" cx="0" cy="0" r="3.5"/>
                <g id="zoomPlus">
                        <use xlink:href="#rim" fill="#404040">
                                <set attributeName="fill" to="#808080" begin="zoomplus.mouseover" end="zoomplus.mouseout"/>
                        </use>
                        <path d="M-4,0h8M0,-4v8" fill="none" stroke="white" stroke-width="1.5" pointer-events="none"/>
                </g>
                <g id="zoomMin">
                        <use xlink:href="#rim" fill="#404040">
                                <set attributeName="fill" to="#808080" begin="zoomminus.mouseover" end="zoomminus.mouseout"/>
                        </use>
                        <path d="M-4,0h8" fill="none" stroke="white" stroke-width="1.5" pointer-events="none"/>
                </g>
                <g id="dirArrow">
                        <path fill="none" stroke="white" stroke-width="1.5" d="M0,-3.0v7 M-2.5,-0.5L0,-3.0L2.5,-0.5"/>
                </g>
               <g id="resetDef">
                       <use xlink:href="#rim2" fill="#404040">
                               <set attributeName="fill" to="#808080" begin="reset.mouseover" end="reset.mouseout"/>
                       </use>
               </g>
        </defs>

<script type="text/javascript">
var viewWidth = 585;
var viewHeight = 66;
var sectionId = 'dynsection-7';
</script>
<script xlink:href="svgpan.js"/>
<svg id="graph" class="graph">
<g id="viewport">
<title>Animal::getKingdom</title>
<!-- Node1 -->
<g id="node1" class="node">
<title>Node1</title>
<g id="a_node1"><a xlink:title="Returns &#39;kingdom&#39; of Animal.">
<polygon fill="#999999" stroke="#666666" points="577.73,-39 471.74,-39 471.74,-19 577.73,-19 577.73,-39"/>
<text text-anchor="middle" x="524.74" y="-26" font-family="Helvetica,sans-Serif" font-size="10.00">Animal::getKingdom</text>
</a>
</g>
</g>
<!-- Node2 -->
<g id="node2" class="node">
<title>Node2</title>
<g id="a_node2"><a xlink:href="classAnimal.html#a476580d51e6bf6dca87c5a3d395f4347" target="_top" xlink:title="Prints information of Animal (Node properties, &#39;kingdom&#39;, Gender)">
<polygon fill="white" stroke="#666666" points="304.86,-58 227.58,-58 227.58,-38 304.86,-38 304.86,-58"/>
<text text-anchor="middle" x="266.22" y="-45" font-family="Helvetica,sans-Serif" font-size="10.00">Animal::dump</text>
</a>
</g>
</g>
<!-- Node1&#45;&gt;Node2 -->
<g id="edge1" class="edge">
<title>Node1&#45;&gt;Node2</title>
<path fill="none" stroke="#63b8ff" d="M460.16,-33.71C411.49,-37.31 345.99,-42.17 305.2,-45.19"/>
<polygon fill="#63b8ff" stroke="#63b8ff" points="460.29,-37.21 470.01,-32.98 459.78,-30.23 460.29,-37.21"/>
</g>
<!-- Node5 -->
<g id="node5" class="node">
<title>Node5</title>
<g id="a_node5"><a xlink:href="classAnimal.html#a7a892113e7a4a8834cf84b7b2621e2d8" target="_top" xlink:title="Validates Animal based on specified ruleset.">
<polygon fill="white" stroke="#666666" points="435.79,-20 349.6,-20 349.6,0 435.79,0 435.79,-20"/>
<text text-anchor="middle" x="392.69" y="-7" font-family="Helvetica,sans-Serif" font-size="10.00">Animal::validate</text>
</a>
</g>
</g>
<!-- Node1&#45;&gt;Node5 -->
<g id="edge4" class="edge">
<title>Node1&#45;&gt;Node5</title>
<path fill="none" stroke="#63b8ff" d="M460.47,-19.76C452.27,-18.56 444.02,-17.35 436.27,-16.22"/>
<polygon fill="#63b8ff" stroke="#63b8ff" points="459.69,-23.18 470.09,-21.16 460.71,-16.25 459.69,-23.18"/>
</g>
<!-- Node3 -->
<g id="node3" class="node">
<title>Node3</title>
<g id="a_node3"><a xlink:href="classMammal.html#ab20372fdea68db8cdf54929f1f6f4e31" target="_top" xlink:title="Prints information about Mammal (Node, Animal, &#39;classification&#39;, &#39;color&#39;)">
<polygon fill="white" stroke="#666666" points="182.99,-58 98.18,-58 98.18,-38 182.99,-38 182.99,-58"/>
<text text-anchor="middle" x="140.59" y="-45" font-family="Helvetica,sans-Serif" font-size="10.00">Mammal::dump</text>
</a>
</g>
</g>
<!-- Node2&#45;&gt;Node3 -->
<g id="edge2" class="edge">
<title>Node2&#45;&gt;Node3</title>
<path fill="none" stroke="#63b8ff" d="M215.7,-48C204.93,-48 193.65,-48 183.22,-48"/>
<polygon fill="#63b8ff" stroke="#63b8ff" points="215.6,-51.5 225.6,-48 215.6,-44.5 215.6,-51.5"/>
</g>
<!-- Node4 -->
<g id="node4" class="node">
<title>Node4</title>
<g id="a_node4"><a xlink:href="classCat.html#a85f15f727bab7daf77a5c6284e9e50cb" target="_top" xlink:title="Prints information about Cat (Node, Animal, Mammal, Name)">
<polygon fill="white" stroke="#666666" points="62.2,-58 -0.07,-58 -0.07,-38 62.2,-38 62.2,-58"/>
<text text-anchor="middle" x="31.07" y="-45" font-family="Helvetica,sans-Serif" font-size="10.00">Cat::dump</text>
</a>
</g>
</g>
<!-- Node3&#45;&gt;Node4 -->
<g id="edge3" class="edge">
<title>Node3&#45;&gt;Node4</title>
<path fill="none" stroke="#63b8ff" d="M86.32,-48C78.21,-48 70.08,-48 62.68,-48"/>
<polygon fill="#63b8ff" stroke="#63b8ff" points="86.19,-51.5 96.19,-48 86.19,-44.5 86.19,-51.5"/>
</g>
<!-- Node5&#45;&gt;Node2 -->
<g id="edge5" class="edge">
<title>Node5&#45;&gt;Node2</title>
<path fill="none" stroke="#63b8ff" d="M346.35,-23.84C331.52,-28.37 315.31,-33.32 301.45,-37.55"/>
<polygon fill="#63b8ff" stroke="#63b8ff" points="347.36,-27.19 355.9,-20.93 345.32,-20.5 347.36,-27.19"/>
</g>
<!-- Node6 -->
<g id="node6" class="node">
<title>Node6</title>
<g id="a_node6"><a xlink:href="classMammal.html#a11ad9c1757cac1c6fff7ad1ce384e2c7" target="_top" xlink:title="Validates Animal based on specified ruleset.">
<polygon fill="white" stroke="#666666" points="313.58,-20 218.86,-20 218.86,0 313.58,0 313.58,-20"/>
<text text-anchor="middle" x="266.22" y="-7" font-family="Helvetica,sans-Serif" font-size="10.00">Mammal::validate</text>
</a>
</g>
</g>
<!-- Node5&#45;&gt;Node6 -->
<g id="edge6" class="edge">
<title>Node5&#45;&gt;Node6</title>
<path fill="none" stroke="#63b8ff" d="M337.72,-10C329.74,-10 321.59,-10 313.78,-10"/>
<polygon fill="#63b8ff" stroke="#63b8ff" points="337.69,-13.5 347.69,-10 337.69,-6.5 337.69,-13.5"/>
</g>
<!-- Node7 -->
<g id="node7" class="node">
<title>Node7</title>
<g id="a_node7"><a xlink:href="classCat.html#a0680012e4e432f9a1b128a82948a4798" target="_top" xlink:title="Validates Cat based on specified ruleset.">
<polygon fill="white" stroke="#666666" points="176.17,-20 105,-20 105,0 176.17,0 176.17,-20"/>
<text text-anchor="middle" x="140.59" y="-7" font-family="Helvetica,sans-Serif" font-size="10.00">Cat::validate</text>
</a>
</g>
</g>
<!-- Node6&#45;&gt;Node7 -->
<g id="edge7" class="edge">
<title>Node6&#45;&gt;Node7</title>
<path fill="none" stroke="#63b8ff" d="M207.19,-10C196.68,-10 186.02,-10 176.44,-10"/>
<polygon fill="#63b8ff" stroke="#63b8ff" points="206.96,-13.5 216.96,-10 206.96,-6.5 206.96,-13.5"/>
</g>
<!-- Node8 -->
<g id="node8" class="node">
<title>Node8</title>
<g id="a_node8"><a xlink:href="classCat.html#a84a4c2dd95aeafdee0c49ccde0ad5cb6" target="_top" xlink:title="Generates a Cat with an unknown &#39;color&#39;, Gender, random &#39;weight&#39;, and specified &#39;newName&#39;.">
<polygon fill="white" stroke="#666666" points="57.25,-20 4.89,-20 4.89,0 57.25,0 57.25,-20"/>
<text text-anchor="middle" x="31.07" y="-7" font-family="Helvetica,sans-Serif" font-size="10.00">Cat::Cat</text>
</a>
</g>
</g>
<!-- Node7&#45;&gt;Node8 -->
<g id="edge8" class="edge">
<title>Node7&#45;&gt;Node8</title>
<path fill="none" stroke="#63b8ff" d="M93.21,-10C81,-10 68.27,-10 57.61,-10"/>
<polygon fill="#63b8ff" stroke="#63b8ff" points="93.16,-13.5 103.16,-10 93.16,-6.5 93.16,-13.5"/>
</g>
</g>
</svg>
        <g id="navigator" transform="translate(0 0)" fill="#404254">
                <rect fill="#f2f5e9" fill-opacity="0.5" stroke="#606060" stroke-width=".5" x="0" y="0" width="60" height="60"/>
                <use id="zoomplus" xlink:href="#zoomPlus" x="17" y="9" onmousedown="handleZoom(evt,'in')"/>
                <use id="zoomminus" xlink:href="#zoomMin" x="42" y="9" onmousedown="handleZoom(evt,'out')"/>
                <use id="reset" xlink:href="#resetDef" x="30" y="36" onmousedown="handleReset()"/>
                <g id="arrowUp" xlink:href="#dirArrow" transform="translate(30 24)" onmousedown="handlePan(0,-1)">
                  <use xlink:href="#rim" fill="#404040">
                        <set attributeName="fill" to="#808080" begin="arrowUp.mouseover" end="arrowUp.mouseout"/>
                  </use>
                  <path fill="none" stroke="white" stroke-width="1.5" d="M0,-3.0v7 M-2.5,-0.5L0,-3.0L2.5,-0.5"/>
                </g>
                <g id="arrowRight" xlink:href="#dirArrow" transform="rotate(90) translate(36 -43)" onmousedown="handlePan(1,0)">
                  <use xlink:href="#rim" fill="#404040">
                        <set attributeName="fill" to="#808080" begin="arrowRight.mouseover" end="arrowRight.mouseout"/>
                  </use>
                  <path fill="none" stroke="white" stroke-width="1.5" d="M0,-3.0v7 M-2.5,-0.5L0,-3.0L2.5,-0.5"/>
                </g>
                <g id="arrowDown" xlink:href="#dirArrow" transform="rotate(180) translate(-30 -48)" onmousedown="handlePan(0,1)">
                  <use xlink:href="#rim" fill="#404040">
                        <set attributeName="fill" to="#808080" begin="arrowDown.mouseover" end="arrowDown.mouseout"/>
                  </use>
                  <path fill="none" stroke="white" stroke-width="1.5" d="M0,-3.0v7 M-2.5,-0.5L0,-3.0L2.5,-0.5"/>
                </g>
                <g id="arrowLeft" xlink:href="#dirArrow" transform="rotate(270) translate(-36 17)" onmousedown="handlePan(-1,0)">
                  <use xlink:href="#rim" fill="#404040">
                        <set attributeName="fill" to="#808080" begin="arrowLeft.mouseover" end="arrowLeft.mouseout"/>
                  </use>
                  <path fill="none" stroke="white" stroke-width="1.5" d="M0,-3.0v7 M-2.5,-0.5L0,-3.0L2.5,-0.5"/>
                </g>
        </g>
        <svg viewBox="0 0 15 15" width="100%" height="30px" preserveAspectRatio="xMaxYMin meet">
         <g id="arrow_out" transform="scale(0.3 0.3)">
          <a xlink:href="classAnimal_ae4e9e9cf7a0286c70334400b9310746c_icgraph_org.svg" target="_base">
           <rect id="button" ry="5" rx="5" y="6" x="6" height="38" width="38"
                fill="#f2f5e9" fill-opacity="0.5" stroke="#606060" stroke-width="1.0"/>
           <path id="arrow"
             d="M 11.500037,31.436501 C 11.940474,20.09759 22.043105,11.32322 32.158766,21.979434 L 37.068811,17.246167 C 37.068811,17.246167 37.088388,32 37.088388,32 L 22.160133,31.978069 C 22.160133,31.978069 26.997745,27.140456 26.997745,27.140456 C 18.528582,18.264221 13.291696,25.230495 11.500037,31.436501 z"
             style="fill:#404040;"/>
          </a>
         </g>
        </svg>
</svg>
