<?xml version="1.0" encoding="UTF-8" standalone="no"?>
<!DOCTYPE svg PUBLIC "-//W3C//DTD SVG 1.1//EN"
 "http://www.w3.org/Graphics/SVG/1.1/DTD/svg11.dtd">
<!-- Generated by graphviz version 7.0.5 (20221223.1930)
 -->
<!-- Title: SingleLinkedList::validate Pages: 1 -->
<svg width="409pt" height="78pt"
 viewBox="0.00 0.00 408.71 78.46" xmlns="http://www.w3.org/2000/svg" xmlns:xlink="http://www.w3.org/1999/xlink">
<g id="graph0" class="graph" transform="scale(1 1) rotate(0) translate(4 74.46)">
<title>SingleLinkedList::validate</title>
<!-- Node1 -->
<g id="node1" class="node">
<title>Node1</title>
<g id="a_node1"><a xlink:title="Iterates and validates every object in a SingleLinkedList based on specified ruleset.">
<polygon fill="#999999" stroke="#666666" points="128.78,-58 0.07,-58 0.07,-38 128.78,-38 128.78,-58"/>
<text text-anchor="middle" x="64.43" y="-45" font-family="Helvetica,sans-Serif" font-size="10.00">SingleLinkedList::validate</text>
</a>
</g>
</g>
<!-- Node2 -->
<g id="node2" class="node">
<title>Node2</title>
<g id="a_node2"><a xlink:href="classContainer.html#a4ba5dfecf5b1505bd08df17f0c2436c5" target="_top" xlink:title="Generates a Container to place objects into.">
<polygon fill="white" stroke="#666666" points="400.95,-58 300,-58 300,-38 400.95,-38 400.95,-58"/>
<text text-anchor="middle" x="350.47" y="-45" font-family="Helvetica,sans-Serif" font-size="10.00">Container::isEmpty</text>
</a>
</g>
</g>
<!-- Node1&#45;&gt;Node2 -->
<g id="edge1" class="edge">
<title>Node1&#45;&gt;Node2</title>
<path fill="none" stroke="#63b8ff" d="M110.21,-58.42C127.22,-61.88 146.83,-65.29 164.85,-67 208.83,-71.16 220.33,-71.83 264.24,-67 276,-65.7 288.51,-63.43 300.23,-60.9"/>
<polygon fill="#63b8ff" stroke="#63b8ff" points="300.71,-64.38 309.69,-58.75 299.16,-57.55 300.71,-64.38"/>
</g>
<!-- Node3 -->
<g id="node3" class="node">
<title>Node3</title>
<g id="a_node3"><a xlink:href="classNode.html#a9f69825adc179781257e406b3255a93e" target="_top" xlink:title="Ensures Node and all its members are healthy (presumably)">
<polygon fill="white" stroke="#666666" points="254.47,-58 174.61,-58 174.61,-38 254.47,-38 254.47,-58"/>
<text text-anchor="middle" x="214.54" y="-45" font-family="Helvetica,sans-Serif" font-size="10.00">Node::validate</text>
</a>
</g>
</g>
<!-- Node1&#45;&gt;Node3 -->
<g id="edge2" class="edge">
<title>Node1&#45;&gt;Node3</title>
<path fill="none" stroke="#63b8ff" d="M129.1,-48C140.39,-48 152,-48 162.87,-48"/>
<polygon fill="#63b8ff" stroke="#63b8ff" points="162.8,-51.5 172.8,-48 162.8,-44.5 162.8,-51.5"/>
</g>
<!-- Node4 -->
<g id="node4" class="node">
<title>Node4</title>
<g id="a_node4"><a xlink:href="classContainer.html#a654be97698b35ecb309b27f8a075b216" target="_top" xlink:title="Validates that Node and Container follow a specified ruleset.">
<polygon fill="white" stroke="#666666" points="264.43,-20 164.66,-20 164.66,0 264.43,0 264.43,-20"/>
<text text-anchor="middle" x="214.54" y="-7" font-family="Helvetica,sans-Serif" font-size="10.00">Container::validate</text>
</a>
</g>
</g>
<!-- Node1&#45;&gt;Node4 -->
<g id="edge3" class="edge">
<title>Node1&#45;&gt;Node4</title>
<path fill="none" stroke="#63b8ff" d="M106.29,-37.52C123.45,-33.11 143.61,-27.94 161.79,-23.28"/>
<polygon fill="#63b8ff" stroke="#63b8ff" points="162.53,-26.7 171.34,-20.83 160.79,-19.92 162.53,-26.7"/>
</g>
<!-- Node4&#45;&gt;Node2 -->
<g id="edge4" class="edge">
<title>Node4&#45;&gt;Node2</title>
<path fill="none" stroke="#63b8ff" d="M252.5,-20.48C267.72,-24.8 285.55,-29.86 301.75,-34.46"/>
<polygon fill="#63b8ff" stroke="#63b8ff" points="300.61,-37.77 311.19,-37.14 302.52,-31.04 300.61,-37.77"/>
</g>
</g>
</svg>
