<?xml version="1.0" encoding="UTF-8" standalone="no"?>
<!DOCTYPE svg PUBLIC "-//W3C//DTD SVG 1.1//EN"
 "http://www.w3.org/Graphics/SVG/1.1/DTD/svg11.dtd">
<!-- Generated by graphviz version 7.0.5 (20221223.1930)
 -->
<!-- Title: Cat::Cat Pages: 1 -->
<svg width="598pt" height="180pt"
 viewBox="0.00 0.00 597.93 180.00" xmlns="http://www.w3.org/2000/svg" xmlns:xlink="http://www.w3.org/1999/xlink">
<g id="graph0" class="graph" transform="scale(1 1) rotate(0) translate(4 176)">
<title>Cat::Cat</title>
<!-- Node1 -->
<g id="node1" class="node">
<title>Node1</title>
<g id="a_node1"><a xlink:title="Generates a Cat with a specified Name and Gender.">
<polygon fill="#999999" stroke="#666666" points="52.52,-115 0.16,-115 0.16,-95 52.52,-95 52.52,-115"/>
<text text-anchor="middle" x="26.34" y="-102" font-family="Helvetica,sans-Serif" font-size="10.00">Cat::Cat</text>
</a>
</g>
</g>
<!-- Node2 -->
<g id="node2" class="node">
<title>Node2</title>
<g id="a_node2"><a xlink:href="classMammal.html#a2963b6863086e485edc02b48d34eb9fc" target="_top" xlink:title="Generates a Mammal with a specified Gender and random &#39;weight&#39;.">
<polygon fill="white" stroke="#666666" points="187.02,-134 88.57,-134 88.57,-114 187.02,-114 187.02,-134"/>
<text text-anchor="middle" x="137.79" y="-121" font-family="Helvetica,sans-Serif" font-size="10.00">Mammal::Mammal</text>
</a>
</g>
</g>
<!-- Node1&#45;&gt;Node2 -->
<g id="edge1" class="edge">
<title>Node1&#45;&gt;Node2</title>
<path fill="none" stroke="#63b8ff" d="M53,-109.45C60.29,-110.72 68.56,-112.16 76.98,-113.62"/>
<polygon fill="#63b8ff" stroke="#63b8ff" points="76.14,-117.02 86.59,-115.29 77.34,-110.13 76.14,-117.02"/>
</g>
<!-- Node4 -->
<g id="node4" class="node">
<title>Node4</title>
<g id="a_node4"><a xlink:href="classCat.html#af4a79f34cbaf6a5059a1d0863f8072bb" target="_top" xlink:title="Set the Cat name.">
<polygon fill="white" stroke="#666666" points="176.43,-96 99.16,-96 99.16,-76 176.43,-76 176.43,-96"/>
<text text-anchor="middle" x="137.79" y="-83" font-family="Helvetica,sans-Serif" font-size="10.00">Cat::setName</text>
</a>
</g>
</g>
<!-- Node1&#45;&gt;Node4 -->
<g id="edge3" class="edge">
<title>Node1&#45;&gt;Node4</title>
<path fill="none" stroke="#63b8ff" d="M53,-100.55C63.34,-98.75 75.64,-96.62 87.58,-94.54"/>
<polygon fill="#63b8ff" stroke="#63b8ff" points="88.1,-98.01 97.35,-92.85 86.9,-91.11 88.1,-98.01"/>
</g>
<!-- Node3 -->
<g id="node3" class="node">
<title>Node3</title>
<g id="a_node3"><a xlink:href="classAnimal.html#a96634826703e846e99b8592be6fef36a" target="_top" xlink:title="Generates a random &#39;weight&#39; in pounds for an Animal.">
<polygon fill="white" stroke="#666666" points="348.18,-134 223.15,-134 223.15,-114 348.18,-114 348.18,-134"/>
<text text-anchor="middle" x="285.66" y="-121" font-family="Helvetica,sans-Serif" font-size="10.00">Animal::generatePounds</text>
</a>
</g>
</g>
<!-- Node2&#45;&gt;Node3 -->
<g id="edge2" class="edge">
<title>Node2&#45;&gt;Node3</title>
<path fill="none" stroke="#63b8ff" d="M187.37,-124C195.08,-124 203.21,-124 211.35,-124"/>
<polygon fill="#63b8ff" stroke="#63b8ff" points="211.3,-127.5 221.3,-124 211.3,-120.5 211.3,-127.5"/>
</g>
<!-- Node5 -->
<g id="node5" class="node">
<title>Node5</title>
<g id="a_node5"><a xlink:href="className.html#adf2e3789f330180d37ad880f17e004cc" target="_top" xlink:title="Check if newName is valid.">
<polygon fill="white" stroke="#666666" points="340.54,-96 230.79,-96 230.79,-76 340.54,-76 340.54,-96"/>
<text text-anchor="middle" x="285.66" y="-83" font-family="Helvetica,sans-Serif" font-size="10.00">Name::validateName</text>
</a>
</g>
</g>
<!-- Node4&#45;&gt;Node5 -->
<g id="edge4" class="edge">
<title>Node4&#45;&gt;Node5</title>
<path fill="none" stroke="#63b8ff" d="M176.74,-86C189.66,-86 204.5,-86 218.96,-86"/>
<polygon fill="#63b8ff" stroke="#63b8ff" points="218.92,-89.5 228.92,-86 218.92,-82.5 218.92,-89.5"/>
</g>
<!-- Node6 -->
<g id="node6" class="node">
<title>Node6</title>
<g id="a_node6"><a xlink:href="className.html#a528a6452c92fdd26082cd1f1ba96f0ee" target="_top" xlink:title="Return true if newName&#39;s interior whitespace is trimmed.">
<polygon fill="white" stroke="#666666" points="589.69,-172 384.67,-172 384.67,-152 589.69,-152 589.69,-172"/>
<text text-anchor="middle" x="487.18" y="-159" font-family="Helvetica,sans-Serif" font-size="10.00">Name::validateInteriorWhitespaceTrimmed</text>
</a>
</g>
</g>
<!-- Node5&#45;&gt;Node6 -->
<g id="edge5" class="edge">
<title>Node5&#45;&gt;Node6</title>
<path fill="none" stroke="#63b8ff" d="M330.75,-96.48C336.91,-98.82 342.99,-101.63 348.42,-105 368.19,-117.27 363.99,-131.88 384.42,-143 387.48,-144.66 390.66,-146.19 393.92,-147.58"/>
<polygon fill="#63b8ff" stroke="#63b8ff" points="392.57,-150.81 403.17,-151.05 395.04,-144.26 392.57,-150.81"/>
</g>
<!-- Node7 -->
<g id="node7" class="node">
<title>Node7</title>
<g id="a_node7"><a xlink:href="className.html#a48ffe2521a489104cee5718de979a57a" target="_top" xlink:title="Return true if newName only contains A &#45; Z, a &#45; z, 0&#45;9, space and &#45;">
<polygon fill="white" stroke="#666666" points="564.63,-134 409.72,-134 409.72,-114 564.63,-114 564.63,-134"/>
<text text-anchor="middle" x="487.18" y="-121" font-family="Helvetica,sans-Serif" font-size="10.00">Name::validateNoSpecialChars</text>
</a>
</g>
</g>
<!-- Node5&#45;&gt;Node7 -->
<g id="edge6" class="edge">
<title>Node5&#45;&gt;Node7</title>
<path fill="none" stroke="#63b8ff" d="M340.18,-96.47C354.54,-99.27 370.07,-102.27 384.42,-105 395.41,-107.09 407.07,-109.29 418.43,-111.42"/>
<polygon fill="#63b8ff" stroke="#63b8ff" points="417.69,-114.84 428.16,-113.24 418.98,-107.96 417.69,-114.84"/>
</g>
<!-- Node8 -->
<g id="node8" class="node">
<title>Node8</title>
<g id="a_node8"><a xlink:href="className.html#a0af5e33bf02472905a9e9d0b9f9510cf" target="_top" xlink:title="Return true if newName is not empty.">
<polygon fill="white" stroke="#666666" points="550.28,-96 424.08,-96 424.08,-76 550.28,-76 550.28,-96"/>
<text text-anchor="middle" x="487.18" y="-83" font-family="Helvetica,sans-Serif" font-size="10.00">Name::validateNotEmpty</text>
</a>
</g>
</g>
<!-- Node5&#45;&gt;Node8 -->
<g id="edge7" class="edge">
<title>Node5&#45;&gt;Node8</title>
<path fill="none" stroke="#63b8ff" d="M340.92,-86C362.93,-86 388.71,-86 412.39,-86"/>
<polygon fill="#63b8ff" stroke="#63b8ff" points="412.31,-89.5 422.31,-86 412.31,-82.5 412.31,-89.5"/>
</g>
<!-- Node9 -->
<g id="node9" class="node">
<title>Node9</title>
<g id="a_node9"><a xlink:href="className.html#a024eecc170d4ba3e3fb4f05b35078478" target="_top" xlink:title="Return true if newName starts with an alphabetic character (A &#45; Z or a &#45; z)">
<polygon fill="white" stroke="#666666" points="564.57,-58 409.78,-58 409.78,-38 564.57,-38 564.57,-58"/>
<text text-anchor="middle" x="487.18" y="-45" font-family="Helvetica,sans-Serif" font-size="10.00">Name::validateStartsWithAlpha</text>
</a>
</g>
</g>
<!-- Node5&#45;&gt;Node9 -->
<g id="edge8" class="edge">
<title>Node5&#45;&gt;Node9</title>
<path fill="none" stroke="#63b8ff" d="M340.18,-75.53C354.54,-72.73 370.07,-69.73 384.42,-67 395.41,-64.91 407.07,-62.71 418.43,-60.58"/>
<polygon fill="#63b8ff" stroke="#63b8ff" points="418.98,-64.04 428.16,-58.76 417.69,-57.16 418.98,-64.04"/>
</g>
<!-- Node10 -->
<g id="node10" class="node">
<title>Node10</title>
<g id="a_node10"><a xlink:href="className.html#a8004ce0cca7df10725e0e34cd541f274" target="_top" xlink:title="Return true if newName is left and right trimmed for whitespace.">
<polygon fill="white" stroke="#666666" points="548.32,-20 426.04,-20 426.04,0 548.32,0 548.32,-20"/>
<text text-anchor="middle" x="487.18" y="-7" font-family="Helvetica,sans-Serif" font-size="10.00">Name::validateTrimmed</text>
</a>
</g>
</g>
<!-- Node5&#45;&gt;Node10 -->
<g id="edge9" class="edge">
<title>Node5&#45;&gt;Node10</title>
<path fill="none" stroke="#63b8ff" d="M300.78,-75.65C319.12,-62.72 352.57,-40.85 384.42,-29 394.01,-25.43 404.36,-22.51 414.67,-20.13"/>
<polygon fill="#63b8ff" stroke="#63b8ff" points="415.27,-23.58 424.31,-18.06 413.8,-16.73 415.27,-23.58"/>
</g>
</g>
</svg>
