<?xml version="1.0" encoding="UTF-8" standalone="no"?>
<!DOCTYPE svg PUBLIC "-//W3C//DTD SVG 1.1//EN"
 "http://www.w3.org/Graphics/SVG/1.1/DTD/svg11.dtd">
<!-- Generated by graphviz version 7.0.5 (20221223.1930)
 -->
<!-- Title: Animal::info Pages: 1 -->
<svg width="205pt" height="66pt"
 viewBox="0.00 0.00 204.95 66.00" xmlns="http://www.w3.org/2000/svg" xmlns:xlink="http://www.w3.org/1999/xlink">
<g id="graph0" class="graph" transform="scale(1 1) rotate(0) translate(4 62)">
<title>Animal::info</title>
<!-- Node1 -->
<g id="node1" class="node">
<title>Node1</title>
<g id="a_node1"><a xlink:title="Print a unique one&#45;line string representing this object.">
<polygon fill="#999999" stroke="#666666" points="68.37,-39 -0.12,-39 -0.12,-19 68.37,-19 68.37,-39"/>
<text text-anchor="middle" x="34.12" y="-26" font-family="Helvetica,sans-Serif" font-size="10.00">Animal::info</text>
</a>
</g>
</g>
<!-- Node2 -->
<g id="node2" class="node">
<title>Node2</title>
<g id="a_node2"><a xlink:href="classAnimal.html#ad9b6a3fe9b944a3a4950e11e7b7ab696" target="_top" xlink:title="Gets the Name of the Animal.">
<polygon fill="white" stroke="#666666" points="196.8,-58 104.4,-58 104.4,-38 196.8,-38 196.8,-58"/>
<text text-anchor="middle" x="150.6" y="-45" font-family="Helvetica,sans-Serif" font-size="10.00">Animal::getName</text>
</a>
</g>
</g>
<!-- Node1&#45;&gt;Node2 -->
<g id="edge1" class="edge">
<title>Node1&#45;&gt;Node2</title>
<path fill="none" stroke="#63b8ff" d="M68.85,-34.6C76.47,-35.86 84.76,-37.24 93.03,-38.61"/>
<polygon fill="#63b8ff" stroke="#63b8ff" points="92.3,-42.04 102.74,-40.22 93.44,-35.13 92.3,-42.04"/>
</g>
<!-- Node3 -->
<g id="node3" class="node">
<title>Node3</title>
<g id="a_node3"><a xlink:href="classAnimal.html#aaf8f400ee99ab4433f593648b5d3f564" target="_top" xlink:title="Makes the Animal speak! (because who would let the dogs out if they won&#39;t woof)">
<polygon fill="white" stroke="#666666" points="189.9,-20 111.29,-20 111.29,0 189.9,0 189.9,-20"/>
<text text-anchor="middle" x="150.6" y="-7" font-family="Helvetica,sans-Serif" font-size="10.00">Animal::speak</text>
</a>
</g>
</g>
<!-- Node1&#45;&gt;Node3 -->
<g id="edge2" class="edge">
<title>Node1&#45;&gt;Node3</title>
<path fill="none" stroke="#63b8ff" d="M68.85,-23.4C78.54,-21.79 89.31,-20.01 99.75,-18.27"/>
<polygon fill="#63b8ff" stroke="#63b8ff" points="100.1,-21.76 109.39,-16.67 98.95,-14.86 100.1,-21.76"/>
</g>
</g>
</svg>
