<?xml version="1.0" encoding="UTF-8" standalone="no"?>
<!DOCTYPE svg PUBLIC "-//W3C//DTD SVG 1.1//EN"
 "http://www.w3.org/Graphics/SVG/1.1/DTD/svg11.dtd">
<!-- Generated by graphviz version 7.0.5 (20221223.1930)
 -->
<!-- Title: Cat::setName Pages: 1 -->
<svg width="344pt" height="28pt"
 viewBox="0.00 0.00 344.20 28.00" xmlns="http://www.w3.org/2000/svg" xmlns:xlink="http://www.w3.org/1999/xlink">
<g id="graph0" class="graph" transform="scale(1 1) rotate(0) translate(4 24)">
<title>Cat::setName</title>
<!-- Node1 -->
<g id="node1" class="node">
<title>Node1</title>
<g id="a_node1"><a xlink:title="Set the Cat name.">
<polygon fill="#999999" stroke="#666666" points="336.27,-20 259,-20 259,0 336.27,0 336.27,-20"/>
<text text-anchor="middle" x="297.63" y="-7" font-family="Helvetica,sans-Serif" font-size="10.00">Cat::setName</text>
</a>
</g>
</g>
<!-- Node2 -->
<g id="node2" class="node">
<title>Node2</title>
<g id="a_node2"><a xlink:href="classCat.html#a70728c65135e1a98f70eada1da99b282" target="_top" xlink:title="Generates a Cat with a specified Name, &#39;color&#39;, &#39;weight&#39;, and Gender.">
<polygon fill="white" stroke="#666666" points="222.91,-20 170.55,-20 170.55,0 222.91,0 222.91,-20"/>
<text text-anchor="middle" x="196.73" y="-7" font-family="Helvetica,sans-Serif" font-size="10.00">Cat::Cat</text>
</a>
</g>
</g>
<!-- Node1&#45;&gt;Node2 -->
<g id="edge1" class="edge">
<title>Node1&#45;&gt;Node2</title>
<path fill="none" stroke="#63b8ff" d="M247.36,-10C238.99,-10 230.62,-10 223.19,-10"/>
<polygon fill="#63b8ff" stroke="#63b8ff" points="247.16,-13.5 257.16,-10 247.16,-6.5 247.16,-13.5"/>
</g>
<!-- Node3 -->
<g id="node3" class="node">
<title>Node3</title>
<g id="a_node3"><a xlink:href="classAnimal.html#a6c67202c385f8e213a21454565f01e62" target="_top" xlink:title="Generates a random Animal with random specifications (in this case, a Cat)">
<polygon fill="white" stroke="#666666" points="134.58,-20 -0.19,-20 -0.19,0 134.58,0 134.58,-20"/>
<text text-anchor="middle" x="67.19" y="-7" font-family="Helvetica,sans-Serif" font-size="10.00">Animal::getRandomAnimal</text>
</a>
</g>
</g>
<!-- Node2&#45;&gt;Node3 -->
<g id="edge2" class="edge">
<title>Node2&#45;&gt;Node3</title>
<path fill="none" stroke="#63b8ff" d="M158.91,-10C151.33,-10 143.13,-10 134.86,-10"/>
<polygon fill="#63b8ff" stroke="#63b8ff" points="158.71,-13.5 168.71,-10 158.71,-6.5 158.71,-13.5"/>
</g>
</g>
</svg>
