<?xml version="1.0" encoding="UTF-8" standalone="no"?>
<!DOCTYPE svg PUBLIC "-//W3C//DTD SVG 1.1//EN"
 "http://www.w3.org/Graphics/SVG/1.1/DTD/svg11.dtd">
<!-- Generated by graphviz version 7.0.5 (20221223.1930)
 -->
<!-- Title: Mammal::dump Pages: 1 -->
<!--zoomable 180 -->
<svg id="main" version="1.1" xmlns="http://www.w3.org/2000/svg" xmlns:xlink="http://www.w3.org/1999/xlink" xml:space="preserve" onload="init(evt)">
<style type="text/css"><![CDATA[
.edge:hover path { stroke: red; }
.edge:hover polygon { stroke: red; fill: red; }
]]></style>
<script type="text/javascript"><![CDATA[
var edges = document.getElementsByTagName('g');
if (edges && edges.length) {
  for (var i=0;i<edges.length;i++) {
    if (edges[i].id.substr(0,4)=='edge') {
      edges[i].setAttribute('class','edge');
    }
  }
}
]]></script>
        <defs>
                <circle id="rim" cx="0" cy="0" r="7"/>
                <circle id="rim2" cx="0" cy="0" r="3.5"/>
                <g id="zoomPlus">
                        <use xlink:href="#rim" fill="#404040">
                                <set attributeName="fill" to="#808080" begin="zoomplus.mouseover" end="zoomplus.mouseout"/>
                        </use>
                        <path d="M-4,0h8M0,-4v8" fill="none" stroke="white" stroke-width="1.5" pointer-events="none"/>
                </g>
                <g id="zoomMin">
                        <use xlink:href="#rim" fill="#404040">
                                <set attributeName="fill" to="#808080" begin="zoomminus.mouseover" end="zoomminus.mouseout"/>
                        </use>
                        <path d="M-4,0h8" fill="none" stroke="white" stroke-width="1.5" pointer-events="none"/>
                </g>
                <g id="dirArrow">
                        <path fill="none" stroke="white" stroke-width="1.5" d="M0,-3.0v7 M-2.5,-0.5L0,-3.0L2.5,-0.5"/>
                </g>
               <g id="resetDef">
                       <use xlink:href="#rim2" fill="#404040">
                               <set attributeName="fill" to="#808080" begin="reset.mouseover" end="reset.mouseout"/>
                       </use>
               </g>
        </defs>

<script type="text/javascript">
var viewWidth = 526;
var viewHeight = 180;
var sectionId = 'dynsection-15';
</script>
<script xlink:href="svgpan.js"/>
<svg id="graph" class="graph">
<g id="viewport">
<title>Mammal::dump</title>
<!-- Node1 -->
<g id="node1" class="node">
<title>Node1</title>
<g id="a_node1"><a xlink:title="Prints information about Mammal (Node, Animal, &#39;classification&#39;, &#39;color&#39;)">
<polygon fill="#999999" stroke="#666666" points="84.86,-77 0.05,-77 0.05,-57 84.86,-57 84.86,-77"/>
<text text-anchor="middle" x="42.45" y="-64" font-family="Helvetica,sans-Serif" font-size="10.00">Mammal::dump</text>
</a>
</g>
</g>
<!-- Node2 -->
<g id="node2" class="node">
<title>Node2</title>
<g id="a_node2"><a xlink:href="classAnimal.html#a476580d51e6bf6dca87c5a3d395f4347" target="_top" xlink:title="Prints information of Animal (Node properties, &#39;kingdom&#39;, Gender)">
<polygon fill="white" stroke="#666666" points="225.9,-134 148.62,-134 148.62,-114 225.9,-114 225.9,-134"/>
<text text-anchor="middle" x="187.26" y="-121" font-family="Helvetica,sans-Serif" font-size="10.00">Animal::dump</text>
</a>
</g>
</g>
<!-- Node1&#45;&gt;Node2 -->
<g id="edge1" class="edge">
<title>Node1&#45;&gt;Node2</title>
<path fill="none" stroke="#63b8ff" d="M62.45,-77.48C77.88,-85.7 100.37,-97.05 120.91,-105 126.21,-107.05 131.83,-109.01 137.46,-110.83"/>
<polygon fill="#63b8ff" stroke="#63b8ff" points="136.18,-114.1 146.77,-113.7 138.25,-107.41 136.18,-114.1"/>
</g>
<!-- Node7 -->
<g id="node7" class="node">
<title>Node7</title>
<g id="a_node7"><a xlink:href="classMammal.html#a58a3aed0f5c4a932ee49c7738d81b686" target="_top" xlink:title="Returns classification of Mammal.">
<polygon fill="white" stroke="#666666" points="253.46,-96 121.05,-96 121.05,-76 253.46,-76 253.46,-96"/>
<text text-anchor="middle" x="187.26" y="-83" font-family="Helvetica,sans-Serif" font-size="10.00">Mammal::getClassification</text>
</a>
</g>
</g>
<!-- Node1&#45;&gt;Node7 -->
<g id="edge7" class="edge">
<title>Node1&#45;&gt;Node7</title>
<path fill="none" stroke="#63b8ff" d="M85.14,-72.55C92.78,-73.56 100.98,-74.65 109.27,-75.76"/>
<polygon fill="#63b8ff" stroke="#63b8ff" points="108.73,-79.22 119.1,-77.06 109.65,-72.28 108.73,-79.22"/>
</g>
<!-- Node8 -->
<g id="node8" class="node">
<title>Node8</title>
<g id="a_node8"><a xlink:href="classMammal.html#ae7aab3e81200cfb2e8294ca97d90a124" target="_top" xlink:title="Returns color of Mammal.">
<polygon fill="white" stroke="#666666" points="235.95,-58 138.57,-58 138.57,-38 235.95,-38 235.95,-58"/>
<text text-anchor="middle" x="187.26" y="-45" font-family="Helvetica,sans-Serif" font-size="10.00">Mammal::getColor</text>
</a>
</g>
</g>
<!-- Node1&#45;&gt;Node8 -->
<g id="edge8" class="edge">
<title>Node1&#45;&gt;Node8</title>
<path fill="none" stroke="#63b8ff" d="M85.14,-61.45C98.26,-59.71 113.02,-57.74 127.11,-55.87"/>
<polygon fill="#63b8ff" stroke="#63b8ff" points="127.28,-59.38 136.73,-54.59 126.36,-52.44 127.28,-59.38"/>
</g>
<!-- Node9 -->
<g id="node9" class="node">
<title>Node9</title>
<g id="a_node9"><a xlink:href="classMammal.html#ad8aeb9fdbb53a17bf3bd3385d0d0b2b4" target="_top" xlink:title="Returns Gender of Animal.">
<polygon fill="white" stroke="#666666" points="240.91,-20 133.61,-20 133.61,0 240.91,0 240.91,-20"/>
<text text-anchor="middle" x="187.26" y="-7" font-family="Helvetica,sans-Serif" font-size="10.00">Mammal::getGender</text>
</a>
</g>
</g>
<!-- Node1&#45;&gt;Node9 -->
<g id="edge9" class="edge">
<title>Node1&#45;&gt;Node9</title>
<path fill="none" stroke="#63b8ff" d="M62.45,-56.52C77.88,-48.3 100.37,-36.95 120.91,-29 125.56,-27.2 130.45,-25.48 135.38,-23.85"/>
<polygon fill="#63b8ff" stroke="#63b8ff" points="136.21,-27.26 144.7,-20.92 134.11,-20.58 136.21,-27.26"/>
</g>
<!-- Node3 -->
<g id="node3" class="node">
<title>Node3</title>
<g id="a_node3"><a xlink:href="classNode.html#aafe01f5fb0aa5034d12b210065427110" target="_top" xlink:title="Prints information of a Node, including class, address, and next Node.">
<polygon fill="white" stroke="#666666" points="368.38,-172 297.43,-172 297.43,-152 368.38,-152 368.38,-172"/>
<text text-anchor="middle" x="332.91" y="-159" font-family="Helvetica,sans-Serif" font-size="10.00">Node::dump</text>
</a>
</g>
</g>
<!-- Node2&#45;&gt;Node3 -->
<g id="edge2" class="edge">
<title>Node2&#45;&gt;Node3</title>
<path fill="none" stroke="#63b8ff" d="M226.38,-134.08C244.72,-138.94 266.86,-144.79 286.11,-149.88"/>
<polygon fill="#63b8ff" stroke="#63b8ff" points="285.03,-153.22 295.6,-152.39 286.82,-146.45 285.03,-153.22"/>
</g>
<!-- Node4 -->
<g id="node4" class="node">
<title>Node4</title>
<g id="a_node4"><a xlink:href="classAnimal.html#ae4e9e9cf7a0286c70334400b9310746c" target="_top" xlink:title="Returns &#39;kingdom&#39; of Animal.">
<polygon fill="white" stroke="#666666" points="517.94,-134 411.95,-134 411.95,-114 517.94,-114 517.94,-134"/>
<text text-anchor="middle" x="464.95" y="-121" font-family="Helvetica,sans-Serif" font-size="10.00">Animal::getKingdom</text>
</a>
</g>
</g>
<!-- Node2&#45;&gt;Node4 -->
<g id="edge3" class="edge">
<title>Node2&#45;&gt;Node4</title>
<path fill="none" stroke="#63b8ff" d="M226.3,-124C271.16,-124 346.42,-124 400.23,-124"/>
<polygon fill="#63b8ff" stroke="#63b8ff" points="400.2,-127.5 410.2,-124 400.2,-120.5 400.2,-127.5"/>
</g>
<!-- Node5 -->
<g id="node5" class="node">
<title>Node5</title>
<g id="a_node5"><a xlink:href="classAnimal.html#a7a892113e7a4a8834cf84b7b2621e2d8" target="_top" xlink:title="Validates Animal based on specified ruleset.">
<polygon fill="white" stroke="#666666" points="376,-96 289.81,-96 289.81,-76 376,-76 376,-96"/>
<text text-anchor="middle" x="332.91" y="-83" font-family="Helvetica,sans-Serif" font-size="10.00">Animal::validate</text>
</a>
</g>
</g>
<!-- Node2&#45;&gt;Node5 -->
<g id="edge4" class="edge">
<title>Node2&#45;&gt;Node5</title>
<path fill="none" stroke="#63b8ff" d="M226.38,-113.92C243.24,-109.46 263.31,-104.15 281.4,-99.36"/>
<polygon fill="#63b8ff" stroke="#63b8ff" points="282.12,-102.79 290.89,-96.85 280.33,-96.02 282.12,-102.79"/>
</g>
<!-- Node5&#45;&gt;Node4 -->
<g id="edge5" class="edge">
<title>Node5&#45;&gt;Node4</title>
<path fill="none" stroke="#63b8ff" d="M369.78,-96.48C384.42,-100.76 401.55,-105.77 417.15,-110.33"/>
<polygon fill="#63b8ff" stroke="#63b8ff" points="416.15,-113.68 426.73,-113.13 418.12,-106.96 416.15,-113.68"/>
</g>
<!-- Node6 -->
<g id="node6" class="node">
<title>Node6</title>
<g id="a_node6"><a xlink:href="classNode.html#a9f69825adc179781257e406b3255a93e" target="_top" xlink:title="Ensures Node and all its members are healthy (presumably)">
<polygon fill="white" stroke="#666666" points="504.88,-96 425.02,-96 425.02,-76 504.88,-76 504.88,-96"/>
<text text-anchor="middle" x="464.95" y="-83" font-family="Helvetica,sans-Serif" font-size="10.00">Node::validate</text>
</a>
</g>
</g>
<!-- Node5&#45;&gt;Node6 -->
<g id="edge6" class="edge">
<title>Node5&#45;&gt;Node6</title>
<path fill="none" stroke="#63b8ff" d="M376.49,-86C388.27,-86 401.18,-86 413.38,-86"/>
<polygon fill="#63b8ff" stroke="#63b8ff" points="413.28,-89.5 423.28,-86 413.28,-82.5 413.28,-89.5"/>
</g>
</g>
</svg>
        <g id="navigator" transform="translate(0 0)" fill="#404254">
                <rect fill="#f2f5e9" fill-opacity="0.5" stroke="#606060" stroke-width=".5" x="0" y="0" width="60" height="60"/>
                <use id="zoomplus" xlink:href="#zoomPlus" x="17" y="9" onmousedown="handleZoom(evt,'in')"/>
                <use id="zoomminus" xlink:href="#zoomMin" x="42" y="9" onmousedown="handleZoom(evt,'out')"/>
                <use id="reset" xlink:href="#resetDef" x="30" y="36" onmousedown="handleReset()"/>
                <g id="arrowUp" xlink:href="#dirArrow" transform="translate(30 24)" onmousedown="handlePan(0,-1)">
                  <use xlink:href="#rim" fill="#404040">
                        <set attributeName="fill" to="#808080" begin="arrowUp.mouseover" end="arrowUp.mouseout"/>
                  </use>
                  <path fill="none" stroke="white" stroke-width="1.5" d="M0,-3.0v7 M-2.5,-0.5L0,-3.0L2.5,-0.5"/>
                </g>
                <g id="arrowRight" xlink:href="#dirArrow" transform="rotate(90) translate(36 -43)" onmousedown="handlePan(1,0)">
                  <use xlink:href="#rim" fill="#404040">
                        <set attributeName="fill" to="#808080" begin="arrowRight.mouseover" end="arrowRight.mouseout"/>
                  </use>
                  <path fill="none" stroke="white" stroke-width="1.5" d="M0,-3.0v7 M-2.5,-0.5L0,-3.0L2.5,-0.5"/>
                </g>
                <g id="arrowDown" xlink:href="#dirArrow" transform="rotate(180) translate(-30 -48)" onmousedown="handlePan(0,1)">
                  <use xlink:href="#rim" fill="#404040">
                        <set attributeName="fill" to="#808080" begin="arrowDown.mouseover" end="arrowDown.mouseout"/>
                  </use>
                  <path fill="none" stroke="white" stroke-width="1.5" d="M0,-3.0v7 M-2.5,-0.5L0,-3.0L2.5,-0.5"/>
                </g>
                <g id="arrowLeft" xlink:href="#dirArrow" transform="rotate(270) translate(-36 17)" onmousedown="handlePan(-1,0)">
                  <use xlink:href="#rim" fill="#404040">
                        <set attributeName="fill" to="#808080" begin="arrowLeft.mouseover" end="arrowLeft.mouseout"/>
                  </use>
                  <path fill="none" stroke="white" stroke-width="1.5" d="M0,-3.0v7 M-2.5,-0.5L0,-3.0L2.5,-0.5"/>
                </g>
        </g>
        <svg viewBox="0 0 15 15" width="100%" height="30px" preserveAspectRatio="xMaxYMin meet">
         <g id="arrow_out" transform="scale(0.3 0.3)">
          <a xlink:href="classMammal_ab20372fdea68db8cdf54929f1f6f4e31_cgraph_org.svg" target="_base">
           <rect id="button" ry="5" rx="5" y="6" x="6" height="38" width="38"
                fill="#f2f5e9" fill-opacity="0.5" stroke="#606060" stroke-width="1.0"/>
           <path id="arrow"
             d="M 11.500037,31.436501 C 11.940474,20.09759 22.043105,11.32322 32.158766,21.979434 L 37.068811,17.246167 C 37.068811,17.246167 37.088388,32 37.088388,32 L 22.160133,31.978069 C 22.160133,31.978069 26.997745,27.140456 26.997745,27.140456 C 18.528582,18.264221 13.291696,25.230495 11.500037,31.436501 z"
             style="fill:#404040;"/>
          </a>
         </g>
        </svg>
</svg>
