<?xml version="1.0" encoding="UTF-8" standalone="no"?>
<!DOCTYPE svg PUBLIC "-//W3C//DTD SVG 1.1//EN"
 "http://www.w3.org/Graphics/SVG/1.1/DTD/svg11.dtd">
<!-- Generated by graphviz version 7.0.5 (20221223.1930)
 -->
<!-- Title: Name Pages: 1 -->
<svg width="361pt" height="540pt"
 viewBox="0.00 0.00 361.08 540.00" xmlns="http://www.w3.org/2000/svg" xmlns:xlink="http://www.w3.org/1999/xlink">
<g id="graph0" class="graph" transform="scale(1 1) rotate(0) translate(4 536)">
<title>Name</title>
<!-- Node1 -->
<g id="node1" class="node">
<title>Node1</title>
<g id="a_node1"><a xlink:title="A utility class for managing Animal names.">
<polygon fill="#999999" stroke="#666666" points="0,-0.5 0,-204.5 353.08,-204.5 353.08,-0.5 0,-0.5"/>
<text text-anchor="middle" x="176.54" y="-191.5" font-family="Helvetica,sans-Serif" font-size="10.00">Name</text>
<polyline fill="none" stroke="#666666" points="0,-184.5 353.08,-184.5"/>
<text text-anchor="start" x="8" y="-171.5" font-family="Helvetica,sans-Serif" font-size="10.00">+ static serial_t maxSerial</text>
<text text-anchor="start" x="8" y="-159.5" font-family="Helvetica,sans-Serif" font-size="10.00"># enum NameType nameType</text>
<text text-anchor="start" x="8" y="-147.5" font-family="Helvetica,sans-Serif" font-size="10.00"># serial_t serial</text>
<polyline fill="none" stroke="#666666" points="0,-140.5 353.08,-140.5"/>
<text text-anchor="start" x="8" y="-127.5" font-family="Helvetica,sans-Serif" font-size="10.00">+ Name(std::string_view newFilename)</text>
<text text-anchor="start" x="8" y="-115.5" font-family="Helvetica,sans-Serif" font-size="10.00">+ Name(std::string_view newSerialPrefix, std::string_view newSerialSuffix)</text>
<text text-anchor="start" x="8" y="-103.5" font-family="Helvetica,sans-Serif" font-size="10.00">+ std::string getNextName()</text>
<text text-anchor="start" x="8" y="-91.5" font-family="Helvetica,sans-Serif" font-size="10.00">+ void reset()</text>
<text text-anchor="start" x="8" y="-79.5" font-family="Helvetica,sans-Serif" font-size="10.00">+ serial_t remainingNames() noexcept</text>
<text text-anchor="start" x="8" y="-67.5" font-family="Helvetica,sans-Serif" font-size="10.00">+ static bool validateName(std::string_view newName)</text>
<text text-anchor="start" x="8" y="-55.5" font-family="Helvetica,sans-Serif" font-size="10.00">+ static bool validateNotEmpty(std::string_view newName)</text>
<text text-anchor="start" x="8" y="-43.5" font-family="Helvetica,sans-Serif" font-size="10.00">+ static bool validateTrimmed(std::string_view newName)</text>
<text text-anchor="start" x="8" y="-31.5" font-family="Helvetica,sans-Serif" font-size="10.00">+ static bool validateStartsWithAlpha(std::string_view newName)</text>
<text text-anchor="start" x="8" y="-19.5" font-family="Helvetica,sans-Serif" font-size="10.00">+ static bool validateNoSpecialChars(std::string_view newName)</text>
<text text-anchor="start" x="8" y="-7.5" font-family="Helvetica,sans-Serif" font-size="10.00">+ static bool validateInteriorWhitespaceTrimmed(std::string_view newName)</text>
</a>
</g>
</g>
<!-- Node2 -->
<g id="node2" class="node">
<title>Node2</title>
<g id="a_node2"><a xlink:title=" ">
<polygon fill="white" stroke="#666666" points="168.86,-362.5 168.86,-422.5 228.21,-422.5 228.21,-362.5 168.86,-362.5"/>
<text text-anchor="middle" x="198.54" y="-409.5" font-family="Helvetica,sans-Serif" font-size="10.00">std::string</text>
<polyline fill="none" stroke="#666666" points="168.86,-402.5 228.21,-402.5"/>
<text text-anchor="middle" x="198.54" y="-389.5" font-family="Helvetica,sans-Serif" font-size="10.00"> </text>
<polyline fill="none" stroke="#666666" points="168.86,-382.5 228.21,-382.5"/>
<text text-anchor="middle" x="198.54" y="-369.5" font-family="Helvetica,sans-Serif" font-size="10.00"> </text>
</a>
</g>
</g>
<!-- Node2&#45;&gt;Node1 -->
<g id="edge1" class="edge">
<title>Node2&#45;&gt;Node1</title>
<path fill="none" stroke="#404040" d="M207.76,-362.61C209.33,-356.53 210.72,-350.1 211.54,-344 212.25,-338.71 211.94,-337.32 211.54,-332 208.68,-294.41 203.2,-253.65 197.42,-217.1"/>
<polygon fill="none" stroke="#404040" points="197.42,-217.09 192.51,-211.81 195.51,-205.25 200.41,-210.53 197.42,-217.09"/>
<text text-anchor="middle" x="237.05" y="-292.5" font-family="Helvetica,sans-Serif" font-size="10.00"> #fileName</text>
<text text-anchor="middle" x="237.05" y="-280.5" font-family="Helvetica,sans-Serif" font-size="10.00">#serialPrefix</text>
<text text-anchor="middle" x="237.05" y="-268.5" font-family="Helvetica,sans-Serif" font-size="10.00">#serialSuffix</text>
</g>
<!-- Node4 -->
<g id="node4" class="node">
<title>Node4</title>
<g id="a_node4"><a xlink:title=" ">
<polygon fill="white" stroke="#666666" points="67.18,-253.5 67.18,-313.5 189.89,-313.5 189.89,-253.5 67.18,-253.5"/>
<text text-anchor="middle" x="128.54" y="-300.5" font-family="Helvetica,sans-Serif" font-size="10.00">std::vector&lt; std::string &gt;</text>
<polyline fill="none" stroke="#666666" points="67.18,-293.5 189.89,-293.5"/>
<text text-anchor="middle" x="128.54" y="-280.5" font-family="Helvetica,sans-Serif" font-size="10.00"> </text>
<polyline fill="none" stroke="#666666" points="67.18,-273.5 189.89,-273.5"/>
<text text-anchor="middle" x="128.54" y="-260.5" font-family="Helvetica,sans-Serif" font-size="10.00"> </text>
</a>
</g>
</g>
<!-- Node2&#45;&gt;Node4 -->
<g id="edge4" class="edge">
<title>Node2&#45;&gt;Node4</title>
<path fill="none" stroke="#404040" d="M175.51,-362.56C170.99,-356.53 166.4,-350.14 162.34,-344 158.23,-337.78 154.1,-331.03 150.21,-324.38"/>
<polygon fill="none" stroke="#404040" points="150.35,-324.61 143.89,-321.39 144.39,-314.2 150.84,-317.42 150.35,-324.61"/>
<text text-anchor="middle" x="186.13" y="-335" font-family="Helvetica,sans-Serif" font-size="10.00"> +elements</text>
</g>
<!-- Node3 -->
<g id="node3" class="node">
<title>Node3</title>
<g id="a_node3"><a xlink:title=" ">
<polygon fill="white" stroke="#666666" points="134.95,-471.5 134.95,-531.5 262.12,-531.5 262.12,-471.5 134.95,-471.5"/>
<text text-anchor="middle" x="198.54" y="-518.5" font-family="Helvetica,sans-Serif" font-size="10.00">std::basic_string&lt; Char &gt;</text>
<polyline fill="none" stroke="#666666" points="134.95,-511.5 262.12,-511.5"/>
<text text-anchor="middle" x="198.54" y="-498.5" font-family="Helvetica,sans-Serif" font-size="10.00"> </text>
<polyline fill="none" stroke="#666666" points="134.95,-491.5 262.12,-491.5"/>
<text text-anchor="middle" x="198.54" y="-478.5" font-family="Helvetica,sans-Serif" font-size="10.00"> </text>
</a>
</g>
</g>
<!-- Node3&#45;&gt;Node2 -->
<g id="edge2" class="edge">
<title>Node3&#45;&gt;Node2</title>
<path fill="none" stroke="#63b8ff" d="M198.54,-460.37C198.54,-447.78 198.54,-434.14 198.54,-422.48"/>
<polygon fill="none" stroke="#63b8ff" points="195.04,-460.03 198.54,-470.03 202.04,-460.03 195.04,-460.03"/>
</g>
<!-- Node4&#45;&gt;Node1 -->
<g id="edge3" class="edge">
<title>Node4&#45;&gt;Node1</title>
<path fill="none" stroke="#404040" d="M136.25,-253.74C139.09,-243.15 142.51,-230.41 146.13,-216.88"/>
<polygon fill="none" stroke="#404040" points="146.17,-216.73 143.86,-209.9 149.28,-205.14 151.59,-211.97 146.17,-216.73"/>
<text text-anchor="middle" x="162.71" y="-226" font-family="Helvetica,sans-Serif" font-size="10.00"> #names</text>
</g>
<!-- Node5 -->
<g id="node5" class="node">
<title>Node5</title>
<g id="a_node5"><a xlink:title=" ">
<polygon fill="white" stroke="#666666" points="32.8,-362.5 32.8,-422.5 118.27,-422.5 118.27,-362.5 32.8,-362.5"/>
<text text-anchor="middle" x="75.54" y="-409.5" font-family="Helvetica,sans-Serif" font-size="10.00">std::vector&lt; T &gt;</text>
<polyline fill="none" stroke="#666666" points="32.8,-402.5 118.27,-402.5"/>
<text text-anchor="middle" x="75.54" y="-389.5" font-family="Helvetica,sans-Serif" font-size="10.00"> </text>
<polyline fill="none" stroke="#666666" points="32.8,-382.5 118.27,-382.5"/>
<text text-anchor="middle" x="75.54" y="-369.5" font-family="Helvetica,sans-Serif" font-size="10.00"> </text>
</a>
</g>
</g>
<!-- Node5&#45;&gt;Node4 -->
<g id="edge5" class="edge">
<title>Node5&#45;&gt;Node4</title>
<path fill="none" stroke="orange" d="M71.5,-351.49C72.07,-344.78 73.46,-338.04 76.17,-332 79.24,-325.17 83.82,-318.9 89.02,-313.31"/>
<polygon fill="orange" stroke="orange" points="68.01,-351.05 71.28,-361.13 75.01,-351.21 68.01,-351.05"/>
<text text-anchor="middle" x="108.22" y="-335" font-family="Helvetica,sans-Serif" font-size="10.00"> &lt; std::string &gt;</text>
</g>
<!-- Node6 -->
<g id="node6" class="node">
<title>Node6</title>
<g id="a_node6"><a xlink:title=" ">
<polygon fill="white" stroke="#bfbfbf" points="61.04,-471.5 61.04,-531.5 90.04,-531.5 90.04,-471.5 61.04,-471.5"/>
<text text-anchor="middle" x="75.09" y="-518.5" font-family="Helvetica,sans-Serif" font-size="10.00">T</text>
<polyline fill="none" stroke="#bfbfbf" points="61.04,-511.5 89.15,-511.5"/>
<text text-anchor="middle" x="75.09" y="-498.5" font-family="Helvetica,sans-Serif" font-size="10.00"> </text>
<polyline fill="none" stroke="#bfbfbf" points="61.04,-491.5 89.15,-491.5"/>
<text text-anchor="middle" x="75.09" y="-478.5" font-family="Helvetica,sans-Serif" font-size="10.00"> </text>
</a>
</g>
</g>
<!-- Node6&#45;&gt;Node5 -->
<g id="edge6" class="edge">
<title>Node6&#45;&gt;Node5</title>
<path fill="none" stroke="#404040" d="M75.54,-471.54C75.54,-460.36 75.54,-447.36 75.54,-435.2"/>
<polygon fill="none" stroke="#404040" points="75.54,-435.38 71.54,-429.38 75.54,-423.38 79.54,-429.38 75.54,-435.38"/>
<text text-anchor="middle" x="100.13" y="-444" font-family="Helvetica,sans-Serif" font-size="10.00"> +elements</text>
</g>
</g>
</svg>
