<?xml version="1.0" encoding="UTF-8" standalone="no"?>
<!DOCTYPE svg PUBLIC "-//W3C//DTD SVG 1.1//EN"
 "http://www.w3.org/Graphics/SVG/1.1/DTD/svg11.dtd">
<!-- Generated by graphviz version 7.0.5 (20221223.1930)
 -->
<!-- Title: Node::isLessThan Pages: 1 -->
<svg width="458pt" height="104pt"
 viewBox="0.00 0.00 458.19 104.00" xmlns="http://www.w3.org/2000/svg" xmlns:xlink="http://www.w3.org/1999/xlink">
<g id="graph0" class="graph" transform="scale(1 1) rotate(0) translate(4 100)">
<title>Node::isLessThan</title>
<!-- Node1 -->
<g id="node1" class="node">
<title>Node1</title>
<g id="a_node1"><a xlink:title="Compares Node based by numerically comparing addresses.">
<polygon fill="#999999" stroke="#666666" points="449.99,-58 353.79,-58 353.79,-38 449.99,-38 449.99,-58"/>
<text text-anchor="middle" x="401.89" y="-45" font-family="Helvetica,sans-Serif" font-size="10.00">Node::isLessThan</text>
</a>
</g>
</g>
<!-- Node2 -->
<g id="node2" class="node">
<title>Node2</title>
<g id="a_node2"><a xlink:href="classSingleLinkedList.html#a0574ca35fa19ffd4073671b5ad1d505c" target="_top" xlink:title="Returns largest Node in SingleLinkedList.">
<polygon fill="white" stroke="#666666" points="314.87,-96 149.78,-96 149.78,-76 314.87,-76 314.87,-96"/>
<text text-anchor="middle" x="232.32" y="-83" font-family="Helvetica,sans-Serif" font-size="10.00">SingleLinkedList::getLargestNode</text>
</a>
</g>
</g>
<!-- Node1&#45;&gt;Node2 -->
<g id="edge1" class="edge">
<title>Node1&#45;&gt;Node2</title>
<path fill="none" stroke="#63b8ff" d="M344.01,-60.99C335.17,-63.01 326.13,-65.06 317.59,-67 305.3,-69.79 292.01,-72.79 279.69,-75.57"/>
<polygon fill="#63b8ff" stroke="#63b8ff" points="344.62,-64.44 353.59,-58.81 343.06,-57.62 344.62,-64.44"/>
</g>
<!-- Node3 -->
<g id="node3" class="node">
<title>Node3</title>
<g id="a_node3"><a xlink:href="classSingleLinkedList.html#a943d365899a8f6ada65f95ba188cec5f" target="_top" xlink:title="Returns smallest Node in SingleLinkedList.">
<polygon fill="white" stroke="#666666" points="317.36,-58 147.29,-58 147.29,-38 317.36,-38 317.36,-58"/>
<text text-anchor="middle" x="232.32" y="-45" font-family="Helvetica,sans-Serif" font-size="10.00">SingleLinkedList::getSmallestNode</text>
</a>
</g>
</g>
<!-- Node1&#45;&gt;Node3 -->
<g id="edge2" class="edge">
<title>Node1&#45;&gt;Node3</title>
<path fill="none" stroke="#63b8ff" d="M342.06,-48C334.2,-48 326.01,-48 317.81,-48"/>
<polygon fill="#63b8ff" stroke="#63b8ff" points="341.81,-51.5 351.81,-48 341.81,-44.5 341.81,-51.5"/>
</g>
<!-- Node5 -->
<g id="node5" class="node">
<title>Node5</title>
<g id="a_node5"><a xlink:href="classSingleLinkedList.html#aa87b3ac7c24c27effa6f24b850ea52d6" target="_top" xlink:title="Checks if SingleLinkedList is sorted from least to greatest.">
<polygon fill="white" stroke="#666666" points="297.89,-20 166.75,-20 166.75,0 297.89,0 297.89,-20"/>
<text text-anchor="middle" x="232.32" y="-7" font-family="Helvetica,sans-Serif" font-size="10.00">SingleLinkedList::isSorted</text>
</a>
</g>
</g>
<!-- Node1&#45;&gt;Node5 -->
<g id="edge4" class="edge">
<title>Node1&#45;&gt;Node5</title>
<path fill="none" stroke="#63b8ff" d="M344.01,-35.01C335.17,-32.99 326.13,-30.94 317.59,-29 305.3,-26.21 292.01,-23.21 279.69,-20.43"/>
<polygon fill="#63b8ff" stroke="#63b8ff" points="343.06,-38.38 353.59,-37.19 344.62,-31.56 343.06,-38.38"/>
</g>
<!-- Node4 -->
<g id="node4" class="node">
<title>Node4</title>
<g id="a_node4"><a xlink:href="classSingleLinkedList.html#af7e0bb2dfe82ddcb6e8ff9291807e66b" target="_top" xlink:title="Sorts SingleLinkedList via selection sort.">
<polygon fill="white" stroke="#666666" points="111.08,-39 -0.03,-39 -0.03,-19 111.08,-19 111.08,-39"/>
<text text-anchor="middle" x="55.53" y="-26" font-family="Helvetica,sans-Serif" font-size="10.00">SingleLinkedList::sort</text>
</a>
</g>
</g>
<!-- Node3&#45;&gt;Node4 -->
<g id="edge3" class="edge">
<title>Node3&#45;&gt;Node4</title>
<path fill="none" stroke="#63b8ff" d="M135.71,-37.61C127.45,-36.71 119.3,-35.82 111.54,-34.98"/>
<polygon fill="#63b8ff" stroke="#63b8ff" points="135.17,-41.07 145.49,-38.67 135.93,-34.11 135.17,-41.07"/>
</g>
<!-- Node5&#45;&gt;Node4 -->
<g id="edge5" class="edge">
<title>Node5&#45;&gt;Node4</title>
<path fill="none" stroke="#63b8ff" d="M155.5,-18.24C140.67,-19.85 125.38,-21.52 111.38,-23.04"/>
<polygon fill="#63b8ff" stroke="#63b8ff" points="155.66,-21.74 165.23,-17.18 154.91,-14.79 155.66,-21.74"/>
</g>
</g>
</svg>
