<?xml version="1.0" encoding="UTF-8" standalone="no"?>
<!DOCTYPE svg PUBLIC "-//W3C//DTD SVG 1.1//EN"
 "http://www.w3.org/Graphics/SVG/1.1/DTD/svg11.dtd">
<!-- Generated by graphviz version 7.0.5 (20221223.1930)
 -->
<!-- Title: Cat::dump Pages: 1 -->
<svg width="624pt" height="180pt"
 viewBox="0.00 0.00 623.83 180.00" xmlns="http://www.w3.org/2000/svg" xmlns:xlink="http://www.w3.org/1999/xlink">
<g id="graph0" class="graph" transform="scale(1 1) rotate(0) translate(4 176)">
<title>Cat::dump</title>
<!-- Node1 -->
<g id="node1" class="node">
<title>Node1</title>
<g id="a_node1"><a xlink:title="Prints information about Cat (Node, Animal, Mammal, Name)">
<polygon fill="#999999" stroke="#666666" points="62.2,-58 -0.07,-58 -0.07,-38 62.2,-38 62.2,-58"/>
<text text-anchor="middle" x="31.07" y="-45" font-family="Helvetica,sans-Serif" font-size="10.00">Cat::dump</text>
</a>
</g>
</g>
<!-- Node2 -->
<g id="node2" class="node">
<title>Node2</title>
<g id="a_node2"><a xlink:href="classMammal.html#ab20372fdea68db8cdf54929f1f6f4e31" target="_top" xlink:title="Prints information about Mammal (Node, Animal, &#39;classification&#39;, &#39;color&#39;)">
<polygon fill="white" stroke="#666666" points="182.99,-77 98.18,-77 98.18,-57 182.99,-57 182.99,-77"/>
<text text-anchor="middle" x="140.59" y="-64" font-family="Helvetica,sans-Serif" font-size="10.00">Mammal::dump</text>
</a>
</g>
</g>
<!-- Node1&#45;&gt;Node2 -->
<g id="edge1" class="edge">
<title>Node1&#45;&gt;Node2</title>
<path fill="none" stroke="#63b8ff" d="M62.59,-53.39C70.1,-54.72 78.36,-56.18 86.6,-57.64"/>
<polygon fill="#63b8ff" stroke="#63b8ff" points="85.8,-61.05 96.26,-59.34 87.02,-54.16 85.8,-61.05"/>
</g>
<!-- Node11 -->
<g id="node11" class="node">
<title>Node11</title>
<g id="a_node11"><a xlink:href="classCat.html#a177d1647dd84b72312677a4acdf48401" target="_top" xlink:title="Get the Cat name.">
<polygon fill="white" stroke="#666666" points="179.28,-39 101.89,-39 101.89,-19 179.28,-19 179.28,-39"/>
<text text-anchor="middle" x="140.59" y="-26" font-family="Helvetica,sans-Serif" font-size="10.00">Cat::getName</text>
</a>
</g>
</g>
<!-- Node1&#45;&gt;Node11 -->
<g id="edge11" class="edge">
<title>Node1&#45;&gt;Node11</title>
<path fill="none" stroke="#63b8ff" d="M62.59,-42.61C71.34,-41.06 81.1,-39.34 90.66,-37.65"/>
<polygon fill="#63b8ff" stroke="#63b8ff" points="90.98,-41.14 100.22,-35.96 89.76,-34.25 90.98,-41.14"/>
</g>
<!-- Node3 -->
<g id="node3" class="node">
<title>Node3</title>
<g id="a_node3"><a xlink:href="classAnimal.html#a476580d51e6bf6dca87c5a3d395f4347" target="_top" xlink:title="Prints information of Animal (Node properties, &#39;kingdom&#39;, Gender)">
<polygon fill="white" stroke="#666666" points="324.03,-134 246.75,-134 246.75,-114 324.03,-114 324.03,-134"/>
<text text-anchor="middle" x="285.39" y="-121" font-family="Helvetica,sans-Serif" font-size="10.00">Animal::dump</text>
</a>
</g>
</g>
<!-- Node2&#45;&gt;Node3 -->
<g id="edge2" class="edge">
<title>Node2&#45;&gt;Node3</title>
<path fill="none" stroke="#63b8ff" d="M160.59,-77.48C176.02,-85.7 198.51,-97.05 219.04,-105 224.34,-107.05 229.96,-109.01 235.59,-110.83"/>
<polygon fill="#63b8ff" stroke="#63b8ff" points="234.32,-114.1 244.91,-113.7 236.38,-107.41 234.32,-114.1"/>
</g>
<!-- Node8 -->
<g id="node8" class="node">
<title>Node8</title>
<g id="a_node8"><a xlink:href="classMammal.html#a58a3aed0f5c4a932ee49c7738d81b686" target="_top" xlink:title="Returns classification of Mammal.">
<polygon fill="white" stroke="#666666" points="351.6,-96 219.19,-96 219.19,-76 351.6,-76 351.6,-96"/>
<text text-anchor="middle" x="285.39" y="-83" font-family="Helvetica,sans-Serif" font-size="10.00">Mammal::getClassification</text>
</a>
</g>
</g>
<!-- Node2&#45;&gt;Node8 -->
<g id="edge8" class="edge">
<title>Node2&#45;&gt;Node8</title>
<path fill="none" stroke="#63b8ff" d="M183.27,-72.55C190.92,-73.56 199.11,-74.65 207.4,-75.76"/>
<polygon fill="#63b8ff" stroke="#63b8ff" points="206.86,-79.22 217.23,-77.06 207.78,-72.28 206.86,-79.22"/>
</g>
<!-- Node9 -->
<g id="node9" class="node">
<title>Node9</title>
<g id="a_node9"><a xlink:href="classMammal.html#ae7aab3e81200cfb2e8294ca97d90a124" target="_top" xlink:title="Returns color of Mammal.">
<polygon fill="white" stroke="#666666" points="334.08,-58 236.7,-58 236.7,-38 334.08,-38 334.08,-58"/>
<text text-anchor="middle" x="285.39" y="-45" font-family="Helvetica,sans-Serif" font-size="10.00">Mammal::getColor</text>
</a>
</g>
</g>
<!-- Node2&#45;&gt;Node9 -->
<g id="edge9" class="edge">
<title>Node2&#45;&gt;Node9</title>
<path fill="none" stroke="#63b8ff" d="M183.27,-61.45C196.4,-59.71 211.15,-57.74 225.24,-55.87"/>
<polygon fill="#63b8ff" stroke="#63b8ff" points="225.41,-59.38 234.86,-54.59 224.49,-52.44 225.41,-59.38"/>
</g>
<!-- Node10 -->
<g id="node10" class="node">
<title>Node10</title>
<g id="a_node10"><a xlink:href="classMammal.html#ad8aeb9fdbb53a17bf3bd3385d0d0b2b4" target="_top" xlink:title="Returns Gender of Animal.">
<polygon fill="white" stroke="#666666" points="339.04,-20 231.74,-20 231.74,0 339.04,0 339.04,-20"/>
<text text-anchor="middle" x="285.39" y="-7" font-family="Helvetica,sans-Serif" font-size="10.00">Mammal::getGender</text>
</a>
</g>
</g>
<!-- Node2&#45;&gt;Node10 -->
<g id="edge10" class="edge">
<title>Node2&#45;&gt;Node10</title>
<path fill="none" stroke="#63b8ff" d="M164.93,-56.57C170.87,-53.85 177.22,-50.87 183.04,-48 199.27,-40.01 202.27,-35.78 219.04,-29 223.41,-27.23 228.01,-25.55 232.66,-23.98"/>
<polygon fill="#63b8ff" stroke="#63b8ff" points="233.62,-27.35 242.07,-20.96 231.48,-20.68 233.62,-27.35"/>
</g>
<!-- Node4 -->
<g id="node4" class="node">
<title>Node4</title>
<g id="a_node4"><a xlink:href="classNode.html#aafe01f5fb0aa5034d12b210065427110" target="_top" xlink:title="Prints information of a Node, including class, address, and next Node.">
<polygon fill="white" stroke="#666666" points="466.52,-172 395.56,-172 395.56,-152 466.52,-152 466.52,-172"/>
<text text-anchor="middle" x="431.04" y="-159" font-family="Helvetica,sans-Serif" font-size="10.00">Node::dump</text>
</a>
</g>
</g>
<!-- Node3&#45;&gt;Node4 -->
<g id="edge3" class="edge">
<title>Node3&#45;&gt;Node4</title>
<path fill="none" stroke="#63b8ff" d="M324.51,-134.08C342.85,-138.94 364.99,-144.79 384.24,-149.88"/>
<polygon fill="#63b8ff" stroke="#63b8ff" points="383.17,-153.22 393.73,-152.39 384.96,-146.45 383.17,-153.22"/>
</g>
<!-- Node5 -->
<g id="node5" class="node">
<title>Node5</title>
<g id="a_node5"><a xlink:href="classAnimal.html#ae4e9e9cf7a0286c70334400b9310746c" target="_top" xlink:title="Returns &#39;kingdom&#39; of Animal.">
<polygon fill="white" stroke="#666666" points="616.07,-134 510.09,-134 510.09,-114 616.07,-114 616.07,-134"/>
<text text-anchor="middle" x="563.08" y="-121" font-family="Helvetica,sans-Serif" font-size="10.00">Animal::getKingdom</text>
</a>
</g>
</g>
<!-- Node3&#45;&gt;Node5 -->
<g id="edge4" class="edge">
<title>Node3&#45;&gt;Node5</title>
<path fill="none" stroke="#63b8ff" d="M324.44,-124C369.3,-124 444.56,-124 498.37,-124"/>
<polygon fill="#63b8ff" stroke="#63b8ff" points="498.33,-127.5 508.33,-124 498.33,-120.5 498.33,-127.5"/>
</g>
<!-- Node6 -->
<g id="node6" class="node">
<title>Node6</title>
<g id="a_node6"><a xlink:href="classAnimal.html#a7a892113e7a4a8834cf84b7b2621e2d8" target="_top" xlink:title="Validates Animal based on specified ruleset.">
<polygon fill="white" stroke="#666666" points="474.13,-96 387.95,-96 387.95,-76 474.13,-76 474.13,-96"/>
<text text-anchor="middle" x="431.04" y="-83" font-family="Helvetica,sans-Serif" font-size="10.00">Animal::validate</text>
</a>
</g>
</g>
<!-- Node3&#45;&gt;Node6 -->
<g id="edge5" class="edge">
<title>Node3&#45;&gt;Node6</title>
<path fill="none" stroke="#63b8ff" d="M324.51,-113.92C341.37,-109.46 361.44,-104.15 379.53,-99.36"/>
<polygon fill="#63b8ff" stroke="#63b8ff" points="380.25,-102.79 389.03,-96.85 378.46,-96.02 380.25,-102.79"/>
</g>
<!-- Node6&#45;&gt;Node5 -->
<g id="edge6" class="edge">
<title>Node6&#45;&gt;Node5</title>
<path fill="none" stroke="#63b8ff" d="M467.92,-96.48C482.56,-100.76 499.68,-105.77 515.28,-110.33"/>
<polygon fill="#63b8ff" stroke="#63b8ff" points="514.29,-113.68 524.87,-113.13 516.25,-106.96 514.29,-113.68"/>
</g>
<!-- Node7 -->
<g id="node7" class="node">
<title>Node7</title>
<g id="a_node7"><a xlink:href="classNode.html#a9f69825adc179781257e406b3255a93e" target="_top" xlink:title="Ensures Node and all its members are healthy (presumably)">
<polygon fill="white" stroke="#666666" points="603.01,-96 523.15,-96 523.15,-76 603.01,-76 603.01,-96"/>
<text text-anchor="middle" x="563.08" y="-83" font-family="Helvetica,sans-Serif" font-size="10.00">Node::validate</text>
</a>
</g>
</g>
<!-- Node6&#45;&gt;Node7 -->
<g id="edge7" class="edge">
<title>Node6&#45;&gt;Node7</title>
<path fill="none" stroke="#63b8ff" d="M474.62,-86C486.41,-86 499.32,-86 511.51,-86"/>
<polygon fill="#63b8ff" stroke="#63b8ff" points="511.41,-89.5 521.41,-86 511.41,-82.5 511.41,-89.5"/>
</g>
</g>
</svg>
