<?xml version="1.0" encoding="UTF-8" standalone="no"?>
<!DOCTYPE svg PUBLIC "-//W3C//DTD SVG 1.1//EN"
 "http://www.w3.org/Graphics/SVG/1.1/DTD/svg11.dtd">
<!-- Generated by graphviz version 7.0.5 (20221223.1930)
 -->
<!-- Title: Mammal::Mammal Pages: 1 -->
<svg width="260pt" height="66pt"
 viewBox="0.00 0.00 259.94 66.00" xmlns="http://www.w3.org/2000/svg" xmlns:xlink="http://www.w3.org/1999/xlink">
<g id="graph0" class="graph" transform="scale(1 1) rotate(0) translate(4 62)">
<title>Mammal::Mammal</title>
<!-- Node1 -->
<g id="node1" class="node">
<title>Node1</title>
<g id="a_node1"><a xlink:title="Generates a Mammal with a specified &#39;weight&#39; and &#39;color&#39;.">
<polygon fill="#999999" stroke="#666666" points="98.34,-39 -0.11,-39 -0.11,-19 98.34,-19 98.34,-39"/>
<text text-anchor="middle" x="49.11" y="-26" font-family="Helvetica,sans-Serif" font-size="10.00">Mammal::Mammal</text>
</a>
</g>
</g>
<!-- Node2 -->
<g id="node2" class="node">
<title>Node2</title>
<g id="a_node2"><a xlink:href="classMammal.html#a42669c20d1329bf92fc078bd3220bd17" target="_top" xlink:title="Sets color of Mammal.">
<polygon fill="white" stroke="#666666" points="241.71,-58 144.46,-58 144.46,-38 241.71,-38 241.71,-58"/>
<text text-anchor="middle" x="193.08" y="-45" font-family="Helvetica,sans-Serif" font-size="10.00">Mammal::setColor</text>
</a>
</g>
</g>
<!-- Node1&#45;&gt;Node2 -->
<g id="edge1" class="edge">
<title>Node1&#45;&gt;Node2</title>
<path fill="none" stroke="#63b8ff" d="M98.57,-35.49C109.66,-36.97 121.56,-38.56 133.04,-40.1"/>
<polygon fill="#63b8ff" stroke="#63b8ff" points="132.45,-43.55 142.82,-41.41 133.37,-36.61 132.45,-43.55"/>
</g>
<!-- Node3 -->
<g id="node3" class="node">
<title>Node3</title>
<g id="a_node3"><a xlink:href="classAnimal.html#acde9807bf2eadb3fb6a8650ba7ccfa43" target="_top" xlink:title="Validates &#39;weight&#39; based on specified ruleset.">
<polygon fill="white" stroke="#666666" points="251.8,-20 134.37,-20 134.37,0 251.8,0 251.8,-20"/>
<text text-anchor="middle" x="193.08" y="-7" font-family="Helvetica,sans-Serif" font-size="10.00">Animal::validateWeight</text>
</a>
</g>
</g>
<!-- Node1&#45;&gt;Node3 -->
<g id="edge2" class="edge">
<title>Node1&#45;&gt;Node3</title>
<path fill="none" stroke="#63b8ff" d="M98.57,-22.51C106.42,-21.46 114.67,-20.36 122.89,-19.26"/>
<polygon fill="#63b8ff" stroke="#63b8ff" points="123.09,-22.77 132.53,-17.97 122.16,-15.83 123.09,-22.77"/>
</g>
</g>
</svg>
