<?xml version="1.0" encoding="UTF-8" standalone="no"?>
<!DOCTYPE svg PUBLIC "-//W3C//DTD SVG 1.1//EN"
 "http://www.w3.org/Graphics/SVG/1.1/DTD/svg11.dtd">
<!-- Generated by graphviz version 7.0.5 (20221223.1930)
 -->
<!-- Title: Node::dump Pages: 1 -->
<svg width="453pt" height="66pt"
 viewBox="0.00 0.00 452.92 66.00" xmlns="http://www.w3.org/2000/svg" xmlns:xlink="http://www.w3.org/1999/xlink">
<g id="graph0" class="graph" transform="scale(1 1) rotate(0) translate(4 62)">
<title>Node::dump</title>
<!-- Node1 -->
<g id="node1" class="node">
<title>Node1</title>
<g id="a_node1"><a xlink:title="Prints information of a Node, including class, address, and next Node.">
<polygon fill="#999999" stroke="#666666" points="445.16,-39 374.2,-39 374.2,-19 445.16,-19 445.16,-39"/>
<text text-anchor="middle" x="409.68" y="-26" font-family="Helvetica,sans-Serif" font-size="10.00">Node::dump</text>
</a>
</g>
</g>
<!-- Node2 -->
<g id="node2" class="node">
<title>Node2</title>
<g id="a_node2"><a xlink:href="classAnimal.html#a476580d51e6bf6dca87c5a3d395f4347" target="_top" xlink:title="Prints information of Animal (Node properties, &#39;kingdom&#39;, Gender)">
<polygon fill="white" stroke="#666666" points="317.38,-58 240.1,-58 240.1,-38 317.38,-38 317.38,-58"/>
<text text-anchor="middle" x="278.74" y="-45" font-family="Helvetica,sans-Serif" font-size="10.00">Animal::dump</text>
</a>
</g>
</g>
<!-- Node1&#45;&gt;Node2 -->
<g id="edge1" class="edge">
<title>Node1&#45;&gt;Node2</title>
<path fill="none" stroke="#63b8ff" d="M362.41,-35.82C347.79,-37.97 331.81,-40.33 317.83,-42.39"/>
<polygon fill="#63b8ff" stroke="#63b8ff" points="362.9,-39.28 372.29,-34.36 361.88,-32.36 362.9,-39.28"/>
</g>
<!-- Node5 -->
<g id="node5" class="node">
<title>Node5</title>
<g id="a_node5"><a xlink:href="classSingleLinkedList.html#ada4ae206ab0869b65fae629228f33ba1" target="_top" xlink:title="Iterates and prints information for every object in a SingleLinkedList.">
<polygon fill="white" stroke="#666666" points="338.64,-20 218.84,-20 218.84,0 338.64,0 338.64,-20"/>
<text text-anchor="middle" x="278.74" y="-7" font-family="Helvetica,sans-Serif" font-size="10.00">SingleLinkedList::dump</text>
</a>
</g>
</g>
<!-- Node1&#45;&gt;Node5 -->
<g id="edge4" class="edge">
<title>Node1&#45;&gt;Node5</title>
<path fill="none" stroke="#63b8ff" d="M362.55,-22.2C354.92,-21.08 346.91,-19.9 339.01,-18.73"/>
<polygon fill="#63b8ff" stroke="#63b8ff" points="361.88,-25.64 372.29,-23.64 362.9,-18.72 361.88,-25.64"/>
</g>
<!-- Node3 -->
<g id="node3" class="node">
<title>Node3</title>
<g id="a_node3"><a xlink:href="classMammal.html#ab20372fdea68db8cdf54929f1f6f4e31" target="_top" xlink:title="Prints information about Mammal (Node, Animal, &#39;classification&#39;, &#39;color&#39;)">
<polygon fill="white" stroke="#666666" points="182.99,-58 98.18,-58 98.18,-38 182.99,-38 182.99,-58"/>
<text text-anchor="middle" x="140.59" y="-45" font-family="Helvetica,sans-Serif" font-size="10.00">Mammal::dump</text>
</a>
</g>
</g>
<!-- Node2&#45;&gt;Node3 -->
<g id="edge2" class="edge">
<title>Node2&#45;&gt;Node3</title>
<path fill="none" stroke="#63b8ff" d="M228.71,-48C213.78,-48 197.52,-48 183.13,-48"/>
<polygon fill="#63b8ff" stroke="#63b8ff" points="228.3,-51.5 238.3,-48 228.3,-44.5 228.3,-51.5"/>
</g>
<!-- Node4 -->
<g id="node4" class="node">
<title>Node4</title>
<g id="a_node4"><a xlink:href="classCat.html#a85f15f727bab7daf77a5c6284e9e50cb" target="_top" xlink:title="Prints information about Cat (Node, Animal, Mammal, Name)">
<polygon fill="white" stroke="#666666" points="62.2,-58 -0.07,-58 -0.07,-38 62.2,-38 62.2,-58"/>
<text text-anchor="middle" x="31.07" y="-45" font-family="Helvetica,sans-Serif" font-size="10.00">Cat::dump</text>
</a>
</g>
</g>
<!-- Node3&#45;&gt;Node4 -->
<g id="edge3" class="edge">
<title>Node3&#45;&gt;Node4</title>
<path fill="none" stroke="#63b8ff" d="M86.32,-48C78.21,-48 70.08,-48 62.68,-48"/>
<polygon fill="#63b8ff" stroke="#63b8ff" points="86.19,-51.5 96.19,-48 86.19,-44.5 86.19,-51.5"/>
</g>
</g>
</svg>
