<?xml version="1.0" encoding="UTF-8" standalone="no"?>
<!DOCTYPE svg PUBLIC "-//W3C//DTD SVG 1.1//EN"
 "http://www.w3.org/Graphics/SVG/1.1/DTD/svg11.dtd">
<!-- Generated by graphviz version 7.0.5 (20221223.1930)
 -->
<!-- Title: Cat::Cat Pages: 1 -->
<!--zoomable 332 -->
<svg id="main" version="1.1" xmlns="http://www.w3.org/2000/svg" xmlns:xlink="http://www.w3.org/1999/xlink" xml:space="preserve" onload="init(evt)">
<style type="text/css"><![CDATA[
.edge:hover path { stroke: red; }
.edge:hover polygon { stroke: red; fill: red; }
]]></style>
<script type="text/javascript"><![CDATA[
var edges = document.getElementsByTagName('g');
if (edges && edges.length) {
  for (var i=0;i<edges.length;i++) {
    if (edges[i].id.substr(0,4)=='edge') {
      edges[i].setAttribute('class','edge');
    }
  }
}
]]></script>
        <defs>
                <circle id="rim" cx="0" cy="0" r="7"/>
                <circle id="rim2" cx="0" cy="0" r="3.5"/>
                <g id="zoomPlus">
                        <use xlink:href="#rim" fill="#404040">
                                <set attributeName="fill" to="#808080" begin="zoomplus.mouseover" end="zoomplus.mouseout"/>
                        </use>
                        <path d="M-4,0h8M0,-4v8" fill="none" stroke="white" stroke-width="1.5" pointer-events="none"/>
                </g>
                <g id="zoomMin">
                        <use xlink:href="#rim" fill="#404040">
                                <set attributeName="fill" to="#808080" begin="zoomminus.mouseover" end="zoomminus.mouseout"/>
                        </use>
                        <path d="M-4,0h8" fill="none" stroke="white" stroke-width="1.5" pointer-events="none"/>
                </g>
                <g id="dirArrow">
                        <path fill="none" stroke="white" stroke-width="1.5" d="M0,-3.0v7 M-2.5,-0.5L0,-3.0L2.5,-0.5"/>
                </g>
               <g id="resetDef">
                       <use xlink:href="#rim2" fill="#404040">
                               <set attributeName="fill" to="#808080" begin="reset.mouseover" end="reset.mouseout"/>
                       </use>
               </g>
        </defs>

<script type="text/javascript">
var viewWidth = 751;
var viewHeight = 332;
var sectionId = 'dynsection-9';
</script>
<script xlink:href="svgpan.js"/>
<svg id="graph" class="graph">
<g id="viewport">
<title>Cat::Cat</title>
<!-- Node1 -->
<g id="node1" class="node">
<title>Node1</title>
<g id="a_node1"><a xlink:title="Generates a Cat with an unknown &#39;color&#39;, Gender, random &#39;weight&#39;, and specified &#39;newName&#39;.">
<polygon fill="#999999" stroke="#666666" points="52.52,-229 0.16,-229 0.16,-209 52.52,-209 52.52,-229"/>
<text text-anchor="middle" x="26.34" y="-216" font-family="Helvetica,sans-Serif" font-size="10.00">Cat::Cat</text>
</a>
</g>
</g>
<!-- Node2 -->
<g id="node2" class="node">
<title>Node2</title>
<g id="a_node2"><a xlink:href="classMammal.html#a70dd126be96f5b57dbe3ae394fd17809" target="_top" xlink:title="Generates a Mammal with a specified &#39;color&#39;, &#39;weight&#39;, and Gender.">
<polygon fill="white" stroke="#666666" points="200.66,-286 102.21,-286 102.21,-266 200.66,-266 200.66,-286"/>
<text text-anchor="middle" x="151.44" y="-273" font-family="Helvetica,sans-Serif" font-size="10.00">Mammal::Mammal</text>
</a>
</g>
</g>
<!-- Node1&#45;&gt;Node2 -->
<g id="edge1" class="edge">
<title>Node1&#45;&gt;Node2</title>
<path fill="none" stroke="#63b8ff" d="M41.87,-229.49C53.94,-237.83 71.8,-249.33 88.68,-257 92.42,-258.7 96.36,-260.3 100.36,-261.8"/>
<polygon fill="#63b8ff" stroke="#63b8ff" points="98.98,-265.03 109.57,-265.02 101.29,-258.42 98.98,-265.03"/>
</g>
<!-- Node6 -->
<g id="node6" class="node">
<title>Node6</title>
<g id="a_node6"><a xlink:href="classAnimal.html#a96634826703e846e99b8592be6fef36a" target="_top" xlink:title="Generates a random &#39;weight&#39; in pounds for an Animal.">
<polygon fill="white" stroke="#666666" points="213.96,-248 88.92,-248 88.92,-228 213.96,-228 213.96,-248"/>
<text text-anchor="middle" x="151.44" y="-235" font-family="Helvetica,sans-Serif" font-size="10.00">Animal::generatePounds</text>
</a>
</g>
</g>
<!-- Node1&#45;&gt;Node6 -->
<g id="edge6" class="edge">
<title>Node1&#45;&gt;Node6</title>
<path fill="none" stroke="#63b8ff" d="M52.85,-222.94C60.22,-224.08 68.67,-225.38 77.43,-226.73"/>
<polygon fill="#63b8ff" stroke="#63b8ff" points="76.74,-230.17 87.16,-228.23 77.81,-223.25 76.74,-230.17"/>
</g>
<!-- Node7 -->
<g id="node7" class="node">
<title>Node7</title>
<g id="a_node7"><a xlink:href="classCat.html#af4a79f34cbaf6a5059a1d0863f8072bb" target="_top" xlink:title="Set the Cat name.">
<polygon fill="white" stroke="#666666" points="190.07,-210 112.81,-210 112.81,-190 190.07,-190 190.07,-210"/>
<text text-anchor="middle" x="151.44" y="-197" font-family="Helvetica,sans-Serif" font-size="10.00">Cat::setName</text>
</a>
</g>
</g>
<!-- Node1&#45;&gt;Node7 -->
<g id="edge7" class="edge">
<title>Node1&#45;&gt;Node7</title>
<path fill="none" stroke="#63b8ff" d="M52.85,-215.06C66.81,-212.91 84.59,-210.16 101.14,-207.61"/>
<polygon fill="#63b8ff" stroke="#63b8ff" points="101.49,-211.1 110.84,-206.11 100.42,-204.18 101.49,-211.1"/>
</g>
<!-- Node14 -->
<g id="node14" class="node">
<title>Node14</title>
<g id="a_node14"><a xlink:href="classCat.html#a0680012e4e432f9a1b128a82948a4798" target="_top" xlink:title="Validates Cat based on specified ruleset.">
<polygon fill="white" stroke="#666666" points="187.03,-172 115.85,-172 115.85,-152 187.03,-152 187.03,-172"/>
<text text-anchor="middle" x="151.44" y="-159" font-family="Helvetica,sans-Serif" font-size="10.00">Cat::validate</text>
</a>
</g>
</g>
<!-- Node1&#45;&gt;Node14 -->
<g id="edge14" class="edge">
<title>Node1&#45;&gt;Node14</title>
<path fill="none" stroke="#63b8ff" d="M41.87,-208.51C53.94,-200.17 71.8,-188.67 88.68,-181 93.85,-178.65 99.38,-176.49 104.94,-174.53"/>
<polygon fill="#63b8ff" stroke="#63b8ff" points="105.72,-177.96 114.12,-171.5 103.53,-171.31 105.72,-177.96"/>
</g>
<!-- Node3 -->
<g id="node3" class="node">
<title>Node3</title>
<g id="a_node3"><a xlink:href="classAnimal.html#aec8039997b0be3da027036d998f8207c" target="_top" xlink:title="Generates an Animal with a specified &#39;weight&#39;.">
<polygon fill="white" stroke="#666666" points="346.07,-324 263.69,-324 263.69,-304 346.07,-304 346.07,-324"/>
<text text-anchor="middle" x="304.88" y="-311" font-family="Helvetica,sans-Serif" font-size="10.00">Animal::Animal</text>
</a>
</g>
</g>
<!-- Node2&#45;&gt;Node3 -->
<g id="edge2" class="edge">
<title>Node2&#45;&gt;Node3</title>
<path fill="none" stroke="#63b8ff" d="M194.22,-286.48C212.14,-290.98 233.26,-296.28 252.15,-301.02"/>
<polygon fill="#63b8ff" stroke="#63b8ff" points="251.26,-304.41 261.81,-303.44 252.97,-297.62 251.26,-304.41"/>
</g>
<!-- Node4 -->
<g id="node4" class="node">
<title>Node4</title>
<g id="a_node4"><a xlink:href="classAnimal.html#acde9807bf2eadb3fb6a8650ba7ccfa43" target="_top" xlink:title="Validates &#39;weight&#39; based on specified ruleset.">
<polygon fill="white" stroke="#666666" points="557.04,-324 439.61,-324 439.61,-304 557.04,-304 557.04,-324"/>
<text text-anchor="middle" x="498.33" y="-311" font-family="Helvetica,sans-Serif" font-size="10.00">Animal::validateWeight</text>
</a>
</g>
</g>
<!-- Node2&#45;&gt;Node4 -->
<g id="edge5" class="edge">
<title>Node2&#45;&gt;Node4</title>
<path fill="none" stroke="#63b8ff" d="M201.05,-279.83C243.07,-283.29 305.4,-288.78 359.57,-295 381.94,-297.57 406.28,-300.78 428.2,-303.84"/>
<polygon fill="#63b8ff" stroke="#63b8ff" points="427.53,-307.28 437.92,-305.21 428.51,-300.35 427.53,-307.28"/>
</g>
<!-- Node5 -->
<g id="node5" class="node">
<title>Node5</title>
<g id="a_node5"><a xlink:href="classMammal.html#a826f4c8ab8772a1daac49f9214929a77" target="_top" xlink:title="Sets color of Mammal.">
<polygon fill="white" stroke="#666666" points="353.51,-248 256.26,-248 256.26,-228 353.51,-228 353.51,-248"/>
<text text-anchor="middle" x="304.88" y="-235" font-family="Helvetica,sans-Serif" font-size="10.00">Mammal::setColor</text>
</a>
</g>
</g>
<!-- Node2&#45;&gt;Node5 -->
<g id="edge4" class="edge">
<title>Node2&#45;&gt;Node5</title>
<path fill="none" stroke="#63b8ff" d="M194.22,-265.52C211.85,-261.09 232.57,-255.89 251.23,-251.21"/>
<polygon fill="#63b8ff" stroke="#63b8ff" points="251.92,-254.65 260.77,-248.82 250.22,-247.86 251.92,-254.65"/>
</g>
<!-- Node3&#45;&gt;Node4 -->
<g id="edge3" class="edge">
<title>Node3&#45;&gt;Node4</title>
<path fill="none" stroke="#63b8ff" d="M346.48,-314C370.11,-314 400.53,-314 427.86,-314"/>
<polygon fill="#63b8ff" stroke="#63b8ff" points="427.84,-317.5 437.84,-314 427.84,-310.5 427.84,-317.5"/>
</g>
<!-- Node8 -->
<g id="node8" class="node">
<title>Node8</title>
<g id="a_node8"><a xlink:href="className.html#adf2e3789f330180d37ad880f17e004cc" target="_top" xlink:title="Check if newName is valid.">
<polygon fill="white" stroke="#666666" points="359.76,-210 250.01,-210 250.01,-190 359.76,-190 359.76,-210"/>
<text text-anchor="middle" x="304.88" y="-197" font-family="Helvetica,sans-Serif" font-size="10.00">Name::validateName</text>
</a>
</g>
</g>
<!-- Node7&#45;&gt;Node8 -->
<g id="edge8" class="edge">
<title>Node7&#45;&gt;Node8</title>
<path fill="none" stroke="#63b8ff" d="M190.26,-200C204.86,-200 221.98,-200 238.44,-200"/>
<polygon fill="#63b8ff" stroke="#63b8ff" points="238.18,-203.5 248.18,-200 238.18,-196.5 238.18,-203.5"/>
</g>
<!-- Node9 -->
<g id="node9" class="node">
<title>Node9</title>
<g id="a_node9"><a xlink:href="className.html#a528a6452c92fdd26082cd1f1ba96f0ee" target="_top" xlink:title="Return true if newName&#39;s interior whitespace is trimmed.">
<polygon fill="white" stroke="#666666" points="600.84,-286 395.81,-286 395.81,-266 600.84,-266 600.84,-286"/>
<text text-anchor="middle" x="498.33" y="-273" font-family="Helvetica,sans-Serif" font-size="10.00">Name::validateInteriorWhitespaceTrimmed</text>
</a>
</g>
</g>
<!-- Node8&#45;&gt;Node9 -->
<g id="edge9" class="edge">
<title>Node8&#45;&gt;Node9</title>
<path fill="none" stroke="#63b8ff" d="M342.79,-210.44C348.63,-212.82 354.43,-215.66 359.57,-219 379.08,-231.68 375.14,-245.88 395.57,-257 398.63,-258.66 401.81,-260.19 405.07,-261.58"/>
<polygon fill="#63b8ff" stroke="#63b8ff" points="403.72,-264.81 414.31,-265.05 406.19,-258.26 403.72,-264.81"/>
</g>
<!-- Node10 -->
<g id="node10" class="node">
<title>Node10</title>
<g id="a_node10"><a xlink:href="className.html#a48ffe2521a489104cee5718de979a57a" target="_top" xlink:title="Return true if newName only contains A &#45; Z, a &#45; z, 0&#45;9, space and &#45;">
<polygon fill="white" stroke="#666666" points="575.78,-248 420.87,-248 420.87,-228 575.78,-228 575.78,-248"/>
<text text-anchor="middle" x="498.33" y="-235" font-family="Helvetica,sans-Serif" font-size="10.00">Name::validateNoSpecialChars</text>
</a>
</g>
</g>
<!-- Node8&#45;&gt;Node10 -->
<g id="edge10" class="edge">
<title>Node8&#45;&gt;Node10</title>
<path fill="none" stroke="#63b8ff" d="M354.25,-210.47C367.62,-213.3 382.15,-216.33 395.57,-219 406.34,-221.15 417.77,-223.35 428.93,-225.46"/>
<polygon fill="#63b8ff" stroke="#63b8ff" points="428,-228.85 438.48,-227.26 429.3,-221.97 428,-228.85"/>
</g>
<!-- Node11 -->
<g id="node11" class="node">
<title>Node11</title>
<g id="a_node11"><a xlink:href="className.html#a0af5e33bf02472905a9e9d0b9f9510cf" target="_top" xlink:title="Return true if newName is not empty.">
<polygon fill="white" stroke="#666666" points="561.43,-210 435.22,-210 435.22,-190 561.43,-190 561.43,-210"/>
<text text-anchor="middle" x="498.33" y="-197" font-family="Helvetica,sans-Serif" font-size="10.00">Name::validateNotEmpty</text>
</a>
</g>
</g>
<!-- Node8&#45;&gt;Node11 -->
<g id="edge11" class="edge">
<title>Node8&#45;&gt;Node11</title>
<path fill="none" stroke="#63b8ff" d="M360.23,-200C379.82,-200 402.27,-200 423.25,-200"/>
<polygon fill="#63b8ff" stroke="#63b8ff" points="423.22,-203.5 433.22,-200 423.22,-196.5 423.22,-203.5"/>
</g>
<!-- Node12 -->
<g id="node12" class="node">
<title>Node12</title>
<g id="a_node12"><a xlink:href="className.html#a024eecc170d4ba3e3fb4f05b35078478" target="_top" xlink:title="Return true if newName starts with an alphabetic character (A &#45; Z or a &#45; z)">
<polygon fill="white" stroke="#666666" points="575.72,-172 420.93,-172 420.93,-152 575.72,-152 575.72,-172"/>
<text text-anchor="middle" x="498.33" y="-159" font-family="Helvetica,sans-Serif" font-size="10.00">Name::validateStartsWithAlpha</text>
</a>
</g>
</g>
<!-- Node8&#45;&gt;Node12 -->
<g id="edge12" class="edge">
<title>Node8&#45;&gt;Node12</title>
<path fill="none" stroke="#63b8ff" d="M354.25,-189.53C367.62,-186.7 382.15,-183.67 395.57,-181 406.34,-178.85 417.77,-176.65 428.93,-174.54"/>
<polygon fill="#63b8ff" stroke="#63b8ff" points="429.3,-178.03 438.48,-172.74 428,-171.15 429.3,-178.03"/>
</g>
<!-- Node13 -->
<g id="node13" class="node">
<title>Node13</title>
<g id="a_node13"><a xlink:href="className.html#a8004ce0cca7df10725e0e34cd541f274" target="_top" xlink:title="Return true if newName is left and right trimmed for whitespace.">
<polygon fill="white" stroke="#666666" points="559.47,-134 437.18,-134 437.18,-114 559.47,-114 559.47,-134"/>
<text text-anchor="middle" x="498.33" y="-121" font-family="Helvetica,sans-Serif" font-size="10.00">Name::validateTrimmed</text>
</a>
</g>
</g>
<!-- Node8&#45;&gt;Node13 -->
<g id="edge13" class="edge">
<title>Node8&#45;&gt;Node13</title>
<path fill="none" stroke="#63b8ff" d="M318.69,-189.6C335.36,-176.62 365.88,-154.7 395.57,-143 405.09,-139.25 415.4,-136.23 425.69,-133.8"/>
<polygon fill="#63b8ff" stroke="#63b8ff" points="426.29,-137.25 435.32,-131.7 424.81,-130.41 426.29,-137.25"/>
</g>
<!-- Node14&#45;&gt;Node8 -->
<g id="edge21" class="edge">
<title>Node14&#45;&gt;Node8</title>
<path fill="none" stroke="#63b8ff" d="M187.18,-170.72C206.13,-175.47 229.98,-181.46 251.17,-186.77"/>
<polygon fill="#63b8ff" stroke="#63b8ff" points="250.28,-190.16 260.83,-189.2 251.98,-183.37 250.28,-190.16"/>
</g>
<!-- Node15 -->
<g id="node15" class="node">
<title>Node15</title>
<g id="a_node15"><a xlink:href="classMammal.html#a11ad9c1757cac1c6fff7ad1ce384e2c7" target="_top" xlink:title="Validates Animal based on specified ruleset.">
<polygon fill="white" stroke="#666666" points="352.24,-77 257.52,-77 257.52,-57 352.24,-57 352.24,-77"/>
<text text-anchor="middle" x="304.88" y="-64" font-family="Helvetica,sans-Serif" font-size="10.00">Mammal::validate</text>
</a>
</g>
</g>
<!-- Node14&#45;&gt;Node15 -->
<g id="edge15" class="edge">
<title>Node14&#45;&gt;Node15</title>
<path fill="none" stroke="#63b8ff" d="M168.93,-151.65C195.22,-135.16 246.82,-102.79 278.05,-83.21"/>
<polygon fill="#63b8ff" stroke="#63b8ff" points="279.51,-86.42 286.13,-78.14 275.79,-80.49 279.51,-86.42"/>
</g>
<!-- Node16 -->
<g id="node16" class="node">
<title>Node16</title>
<g id="a_node16"><a xlink:href="classMammal.html#a58a3aed0f5c4a932ee49c7738d81b686" target="_top" xlink:title="Returns classification of Mammal.">
<polygon fill="white" stroke="#666666" points="564.53,-96 432.12,-96 432.12,-76 564.53,-76 564.53,-96"/>
<text text-anchor="middle" x="498.33" y="-83" font-family="Helvetica,sans-Serif" font-size="10.00">Mammal::getClassification</text>
</a>
</g>
</g>
<!-- Node15&#45;&gt;Node16 -->
<g id="edge16" class="edge">
<title>Node15&#45;&gt;Node16</title>
<path fill="none" stroke="#63b8ff" d="M352.72,-71.65C373.08,-73.67 397.47,-76.09 420.37,-78.36"/>
<polygon fill="#63b8ff" stroke="#63b8ff" points="420.02,-81.84 430.32,-79.35 420.71,-74.88 420.02,-81.84"/>
</g>
<!-- Node17 -->
<g id="node17" class="node">
<title>Node17</title>
<g id="a_node17"><a xlink:href="classAnimal.html#a7a892113e7a4a8834cf84b7b2621e2d8" target="_top" xlink:title="Validates Animal based on specified ruleset.">
<polygon fill="white" stroke="#666666" points="541.42,-58 455.23,-58 455.23,-38 541.42,-38 541.42,-58"/>
<text text-anchor="middle" x="498.33" y="-45" font-family="Helvetica,sans-Serif" font-size="10.00">Animal::validate</text>
</a>
</g>
</g>
<!-- Node15&#45;&gt;Node17 -->
<g id="edge17" class="edge">
<title>Node15&#45;&gt;Node17</title>
<path fill="none" stroke="#63b8ff" d="M352.72,-62.35C380.15,-59.63 414.91,-56.18 443.48,-53.34"/>
<polygon fill="#63b8ff" stroke="#63b8ff" points="443.78,-56.83 453.39,-52.36 443.09,-49.87 443.78,-56.83"/>
</g>
<!-- Node20 -->
<g id="node20" class="node">
<title>Node20</title>
<g id="a_node20"><a xlink:href="Gender_8cpp.html#a538e79224dfde704ae9d2a14d8ca761b" target="_top" xlink:title="Validates a Gender class given via input.">
<polygon fill="white" stroke="#666666" points="540.15,-20 456.5,-20 456.5,0 540.15,0 540.15,-20"/>
<text text-anchor="middle" x="498.33" y="-7" font-family="Helvetica,sans-Serif" font-size="10.00">validateGender</text>
</a>
</g>
</g>
<!-- Node15&#45;&gt;Node20 -->
<g id="edge20" class="edge">
<title>Node15&#45;&gt;Node20</title>
<path fill="none" stroke="#63b8ff" d="M326.79,-56.61C344.67,-48.11 371.28,-36.32 395.57,-29 411.36,-24.24 428.89,-20.46 444.9,-17.55"/>
<polygon fill="#63b8ff" stroke="#63b8ff" points="445.49,-21 454.75,-15.85 444.3,-14.11 445.49,-21"/>
</g>
<!-- Node18 -->
<g id="node18" class="node">
<title>Node18</title>
<g id="a_node18"><a xlink:href="classAnimal.html#ae4e9e9cf7a0286c70334400b9310746c" target="_top" xlink:title="Returns &#39;kingdom&#39; of Animal.">
<polygon fill="white" stroke="#666666" points="742.82,-77 636.83,-77 636.83,-57 742.82,-57 742.82,-77"/>
<text text-anchor="middle" x="689.83" y="-64" font-family="Helvetica,sans-Serif" font-size="10.00">Animal::getKingdom</text>
</a>
</g>
</g>
<!-- Node17&#45;&gt;Node18 -->
<g id="edge18" class="edge">
<title>Node17&#45;&gt;Node18</title>
<path fill="none" stroke="#63b8ff" d="M541.85,-52.26C566.5,-54.74 598.01,-57.89 625.52,-60.65"/>
<polygon fill="#63b8ff" stroke="#63b8ff" points="624.84,-64.1 635.14,-61.62 625.53,-57.14 624.84,-64.1"/>
</g>
<!-- Node19 -->
<g id="node19" class="node">
<title>Node19</title>
<g id="a_node19"><a xlink:href="classNode.html#a9f69825adc179781257e406b3255a93e" target="_top" xlink:title="Ensures Node and all its members are healthy (presumably)">
<polygon fill="white" stroke="#666666" points="729.76,-39 649.9,-39 649.9,-19 729.76,-19 729.76,-39"/>
<text text-anchor="middle" x="689.83" y="-26" font-family="Helvetica,sans-Serif" font-size="10.00">Node::validate</text>
</a>
</g>
</g>
<!-- Node17&#45;&gt;Node19 -->
<g id="edge19" class="edge">
<title>Node17&#45;&gt;Node19</title>
<path fill="none" stroke="#63b8ff" d="M541.85,-43.74C570.5,-40.86 608.4,-37.06 638.54,-34.04"/>
<polygon fill="#63b8ff" stroke="#63b8ff" points="638.56,-37.56 648.16,-33.08 637.87,-30.59 638.56,-37.56"/>
</g>
</g>
</svg>
        <g id="navigator" transform="translate(0 0)" fill="#404254">
                <rect fill="#f2f5e9" fill-opacity="0.5" stroke="#606060" stroke-width=".5" x="0" y="0" width="60" height="60"/>
                <use id="zoomplus" xlink:href="#zoomPlus" x="17" y="9" onmousedown="handleZoom(evt,'in')"/>
                <use id="zoomminus" xlink:href="#zoomMin" x="42" y="9" onmousedown="handleZoom(evt,'out')"/>
                <use id="reset" xlink:href="#resetDef" x="30" y="36" onmousedown="handleReset()"/>
                <g id="arrowUp" xlink:href="#dirArrow" transform="translate(30 24)" onmousedown="handlePan(0,-1)">
                  <use xlink:href="#rim" fill="#404040">
                        <set attributeName="fill" to="#808080" begin="arrowUp.mouseover" end="arrowUp.mouseout"/>
                  </use>
                  <path fill="none" stroke="white" stroke-width="1.5" d="M0,-3.0v7 M-2.5,-0.5L0,-3.0L2.5,-0.5"/>
                </g>
                <g id="arrowRight" xlink:href="#dirArrow" transform="rotate(90) translate(36 -43)" onmousedown="handlePan(1,0)">
                  <use xlink:href="#rim" fill="#404040">
                        <set attributeName="fill" to="#808080" begin="arrowRight.mouseover" end="arrowRight.mouseout"/>
                  </use>
                  <path fill="none" stroke="white" stroke-width="1.5" d="M0,-3.0v7 M-2.5,-0.5L0,-3.0L2.5,-0.5"/>
                </g>
                <g id="arrowDown" xlink:href="#dirArrow" transform="rotate(180) translate(-30 -48)" onmousedown="handlePan(0,1)">
                  <use xlink:href="#rim" fill="#404040">
                        <set attributeName="fill" to="#808080" begin="arrowDown.mouseover" end="arrowDown.mouseout"/>
                  </use>
                  <path fill="none" stroke="white" stroke-width="1.5" d="M0,-3.0v7 M-2.5,-0.5L0,-3.0L2.5,-0.5"/>
                </g>
                <g id="arrowLeft" xlink:href="#dirArrow" transform="rotate(270) translate(-36 17)" onmousedown="handlePan(-1,0)">
                  <use xlink:href="#rim" fill="#404040">
                        <set attributeName="fill" to="#808080" begin="arrowLeft.mouseover" end="arrowLeft.mouseout"/>
                  </use>
                  <path fill="none" stroke="white" stroke-width="1.5" d="M0,-3.0v7 M-2.5,-0.5L0,-3.0L2.5,-0.5"/>
                </g>
        </g>
        <svg viewBox="0 0 15 15" width="100%" height="30px" preserveAspectRatio="xMaxYMin meet">
         <g id="arrow_out" transform="scale(0.3 0.3)">
          <a xlink:href="classCat_a84a4c2dd95aeafdee0c49ccde0ad5cb6_cgraph_org.svg" target="_base">
           <rect id="button" ry="5" rx="5" y="6" x="6" height="38" width="38"
                fill="#f2f5e9" fill-opacity="0.5" stroke="#606060" stroke-width="1.0"/>
           <path id="arrow"
             d="M 11.500037,31.436501 C 11.940474,20.09759 22.043105,11.32322 32.158766,21.979434 L 37.068811,17.246167 C 37.068811,17.246167 37.088388,32 37.088388,32 L 22.160133,31.978069 C 22.160133,31.978069 26.997745,27.140456 26.997745,27.140456 C 18.528582,18.264221 13.291696,25.230495 11.500037,31.436501 z"
             style="fill:#404040;"/>
          </a>
         </g>
        </svg>
</svg>
