<?xml version="1.0" encoding="UTF-8" standalone="no"?>
<!DOCTYPE svg PUBLIC "-//W3C//DTD SVG 1.1//EN"
 "http://www.w3.org/Graphics/SVG/1.1/DTD/svg11.dtd">
<!-- Generated by graphviz version 7.0.5 (20221223.1930)
 -->
<!-- Title: Node::validate Pages: 1 -->
<svg width="751pt" height="256pt"
 viewBox="0.00 0.00 751.21 256.00" xmlns="http://www.w3.org/2000/svg" xmlns:xlink="http://www.w3.org/1999/xlink">
<g id="graph0" class="graph" transform="scale(1 1) rotate(0) translate(4 252)">
<title>Node::validate</title>
<!-- Node1 -->
<g id="node1" class="node">
<title>Node1</title>
<g id="a_node1"><a xlink:title="Ensures Node and all its members are healthy (presumably)">
<polygon fill="#999999" stroke="#666666" points="743.17,-125 663.31,-125 663.31,-105 743.17,-105 743.17,-125"/>
<text text-anchor="middle" x="703.24" y="-112" font-family="Helvetica,sans-Serif" font-size="10.00">Node::validate</text>
</a>
</g>
</g>
<!-- Node2 -->
<g id="node2" class="node">
<title>Node2</title>
<g id="a_node2"><a xlink:href="classSingleLinkedList.html#ae4bac7ac6ecc8a0f1d689d2fed3b2c2e" target="_top" xlink:title="Adds a new Node, &#39;newNode&#39;, to SingleLinkedList.">
<polygon fill="white" stroke="#666666" points="443.84,-172 332.71,-172 332.71,-152 443.84,-152 443.84,-172"/>
<text text-anchor="middle" x="388.27" y="-159" font-family="Helvetica,sans-Serif" font-size="10.00">SingleLinkedList::add</text>
</a>
</g>
</g>
<!-- Node1&#45;&gt;Node2 -->
<g id="edge1" class="edge">
<title>Node1&#45;&gt;Node2</title>
<path fill="none" stroke="#63b8ff" d="M651.7,-122.59C594.84,-131.13 502.81,-144.95 444.22,-153.75"/>
<polygon fill="#63b8ff" stroke="#63b8ff" points="652.06,-126.08 661.43,-121.13 651.02,-119.15 652.06,-126.08"/>
</g>
<!-- Node4 -->
<g id="node4" class="node">
<title>Node4</title>
<g id="a_node4"><a xlink:href="classSingleLinkedList.html#ae5d531b9dd176a59642c64e02bca26c0" target="_top" xlink:title="Returns &quot;parent&quot; Node (previous) of thisNode.">
<polygon fill="white" stroke="#666666" points="462.58,-20 313.97,-20 313.97,0 462.58,0 462.58,-20"/>
<text text-anchor="middle" x="388.27" y="-7" font-family="Helvetica,sans-Serif" font-size="10.00">SingleLinkedList::getParentOf</text>
</a>
</g>
</g>
<!-- Node1&#45;&gt;Node4 -->
<g id="edge3" class="edge">
<title>Node1&#45;&gt;Node4</title>
<path fill="none" stroke="#63b8ff" d="M674.34,-99.22C660.48,-91.81 643.31,-83.25 627.28,-77 562.89,-51.89 485.35,-31.87 436.67,-20.46"/>
<polygon fill="#63b8ff" stroke="#63b8ff" points="672.43,-102.17 682.89,-103.88 675.78,-96.02 672.43,-102.17"/>
</g>
<!-- Node6 -->
<g id="node6" class="node">
<title>Node6</title>
<g id="a_node6"><a xlink:href="classAnimal.html#a7a892113e7a4a8834cf84b7b2621e2d8" target="_top" xlink:title="Validates Animal based on specified ruleset.">
<polygon fill="white" stroke="#666666" points="605.94,-210 519.76,-210 519.76,-190 605.94,-190 605.94,-210"/>
<text text-anchor="middle" x="562.85" y="-197" font-family="Helvetica,sans-Serif" font-size="10.00">Animal::validate</text>
</a>
</g>
</g>
<!-- Node1&#45;&gt;Node6 -->
<g id="edge6" class="edge">
<title>Node1&#45;&gt;Node6</title>
<path fill="none" stroke="#63b8ff" d="M679.26,-132.07C664.68,-142.62 645.24,-156.16 627.28,-167 613.78,-175.15 598.07,-183.33 585.66,-189.51"/>
<polygon fill="#63b8ff" stroke="#63b8ff" points="681.27,-134.94 687.28,-126.21 677.14,-129.29 681.27,-134.94"/>
</g>
<!-- Node13 -->
<g id="node13" class="node">
<title>Node13</title>
<g id="a_node13"><a xlink:href="classSingleLinkedList.html#a4e475a8028331e1eee38a655f88706a6" target="_top" xlink:title="Iterates and validates every object in a SingleLinkedList based on specified ruleset.">
<polygon fill="white" stroke="#666666" points="627.2,-106 498.5,-106 498.5,-86 627.2,-86 627.2,-106"/>
<text text-anchor="middle" x="562.85" y="-93" font-family="Helvetica,sans-Serif" font-size="10.00">SingleLinkedList::validate</text>
</a>
</g>
</g>
<!-- Node1&#45;&gt;Node13 -->
<g id="edge13" class="edge">
<title>Node1&#45;&gt;Node13</title>
<path fill="none" stroke="#63b8ff" d="M651.75,-108.07C643.89,-106.99 635.69,-105.86 627.59,-104.75"/>
<polygon fill="#63b8ff" stroke="#63b8ff" points="651.07,-111.51 661.46,-109.4 652.03,-104.57 651.07,-111.51"/>
</g>
<!-- Node3 -->
<g id="node3" class="node">
<title>Node3</title>
<g id="a_node3"><a xlink:href="classSingleLinkedList.html#af7e0bb2dfe82ddcb6e8ff9291807e66b" target="_top" xlink:title="Sorts SingleLinkedList via selection sort.">
<polygon fill="white" stroke="#666666" points="111.08,-115 -0.03,-115 -0.03,-95 111.08,-95 111.08,-115"/>
<text text-anchor="middle" x="55.53" y="-102" font-family="Helvetica,sans-Serif" font-size="10.00">SingleLinkedList::sort</text>
</a>
</g>
</g>
<!-- Node2&#45;&gt;Node3 -->
<g id="edge2" class="edge">
<title>Node2&#45;&gt;Node3</title>
<path fill="none" stroke="#63b8ff" d="M321.25,-162.39C272.48,-161.34 204.83,-157.03 147.05,-143 121.55,-136.81 93.97,-124.31 76.04,-115.34"/>
<polygon fill="#63b8ff" stroke="#63b8ff" points="321.02,-165.89 331.08,-162.56 321.14,-158.89 321.02,-165.89"/>
</g>
<!-- Node5 -->
<g id="node5" class="node">
<title>Node5</title>
<g id="a_node5"><a xlink:href="classSingleLinkedList.html#af4561d78939a5b2f1c9cf4c86866cec4" target="_top" xlink:title="Removes a Node, &#39;thisNode&#39;, from SingleLinkedList.">
<polygon fill="white" stroke="#666666" points="276.32,-58 148.86,-58 148.86,-38 276.32,-38 276.32,-58"/>
<text text-anchor="middle" x="212.59" y="-45" font-family="Helvetica,sans-Serif" font-size="10.00">SingleLinkedList::remove</text>
</a>
</g>
</g>
<!-- Node4&#45;&gt;Node5 -->
<g id="edge4" class="edge">
<title>Node4&#45;&gt;Node5</title>
<path fill="none" stroke="#63b8ff" d="M328.23,-22.92C306.43,-27.69 282.03,-33.03 261.35,-37.55"/>
<polygon fill="#63b8ff" stroke="#63b8ff" points="328.85,-26.36 337.88,-20.81 327.36,-19.53 328.85,-26.36"/>
</g>
<!-- Node5&#45;&gt;Node3 -->
<g id="edge5" class="edge">
<title>Node5&#45;&gt;Node3</title>
<path fill="none" stroke="#63b8ff" d="M172.43,-62.39C145.23,-72.39 109.59,-85.5 85.05,-94.52"/>
<polygon fill="#63b8ff" stroke="#63b8ff" points="173.55,-65.71 181.73,-58.98 171.13,-59.14 173.55,-65.71"/>
</g>
<!-- Node7 -->
<g id="node7" class="node">
<title>Node7</title>
<g id="a_node7"><a xlink:href="classAnimal.html#a476580d51e6bf6dca87c5a3d395f4347" target="_top" xlink:title="Prints information of Animal (Node properties, &#39;kingdom&#39;, Gender)">
<polygon fill="white" stroke="#666666" points="426.91,-210 349.64,-210 349.64,-190 426.91,-190 426.91,-210"/>
<text text-anchor="middle" x="388.27" y="-197" font-family="Helvetica,sans-Serif" font-size="10.00">Animal::dump</text>
</a>
</g>
</g>
<!-- Node6&#45;&gt;Node7 -->
<g id="edge7" class="edge">
<title>Node6&#45;&gt;Node7</title>
<path fill="none" stroke="#63b8ff" d="M508.32,-200C482.05,-200 451.03,-200 427.23,-200"/>
<polygon fill="#63b8ff" stroke="#63b8ff" points="508.12,-203.5 518.12,-200 508.12,-196.5 508.12,-203.5"/>
</g>
<!-- Node10 -->
<g id="node10" class="node">
<title>Node10</title>
<g id="a_node10"><a xlink:href="classMammal.html#a11ad9c1757cac1c6fff7ad1ce384e2c7" target="_top" xlink:title="Validates Animal based on specified ruleset.">
<polygon fill="white" stroke="#666666" points="435.63,-248 340.91,-248 340.91,-228 435.63,-228 435.63,-248"/>
<text text-anchor="middle" x="388.27" y="-235" font-family="Helvetica,sans-Serif" font-size="10.00">Mammal::validate</text>
</a>
</g>
</g>
<!-- Node6&#45;&gt;Node10 -->
<g id="edge10" class="edge">
<title>Node6&#45;&gt;Node10</title>
<path fill="none" stroke="#63b8ff" d="M508.57,-211.73C485.33,-216.85 458.34,-222.79 435.91,-227.73"/>
<polygon fill="#63b8ff" stroke="#63b8ff" points="509.14,-215.19 518.16,-209.62 507.64,-208.35 509.14,-215.19"/>
</g>
<!-- Node8 -->
<g id="node8" class="node">
<title>Node8</title>
<g id="a_node8"><a xlink:href="classMammal.html#ab20372fdea68db8cdf54929f1f6f4e31" target="_top" xlink:title="Prints information about Mammal (Node, Animal, &#39;classification&#39;, &#39;color&#39;)">
<polygon fill="white" stroke="#666666" points="254.99,-210 170.18,-210 170.18,-190 254.99,-190 254.99,-210"/>
<text text-anchor="middle" x="212.59" y="-197" font-family="Helvetica,sans-Serif" font-size="10.00">Mammal::dump</text>
</a>
</g>
</g>
<!-- Node7&#45;&gt;Node8 -->
<g id="edge8" class="edge">
<title>Node7&#45;&gt;Node8</title>
<path fill="none" stroke="#63b8ff" d="M337.97,-200C311.86,-200 280.13,-200 255.26,-200"/>
<polygon fill="#63b8ff" stroke="#63b8ff" points="337.64,-203.5 347.64,-200 337.64,-196.5 337.64,-203.5"/>
</g>
<!-- Node9 -->
<g id="node9" class="node">
<title>Node9</title>
<g id="a_node9"><a xlink:href="classCat.html#a85f15f727bab7daf77a5c6284e9e50cb" target="_top" xlink:title="Prints information about Cat (Node, Animal, Mammal, Name)">
<polygon fill="white" stroke="#666666" points="86.66,-210 24.39,-210 24.39,-190 86.66,-190 86.66,-210"/>
<text text-anchor="middle" x="55.53" y="-197" font-family="Helvetica,sans-Serif" font-size="10.00">Cat::dump</text>
</a>
</g>
</g>
<!-- Node8&#45;&gt;Node9 -->
<g id="edge9" class="edge">
<title>Node8&#45;&gt;Node9</title>
<path fill="none" stroke="#63b8ff" d="M158.61,-200C134.68,-200 107.27,-200 86.88,-200"/>
<polygon fill="#63b8ff" stroke="#63b8ff" points="158.52,-203.5 168.52,-200 158.52,-196.5 158.52,-203.5"/>
</g>
<!-- Node11 -->
<g id="node11" class="node">
<title>Node11</title>
<g id="a_node11"><a xlink:href="classCat.html#a0680012e4e432f9a1b128a82948a4798" target="_top" xlink:title="Validates Cat based on specified ruleset.">
<polygon fill="white" stroke="#666666" points="248.18,-248 177,-248 177,-228 248.18,-228 248.18,-248"/>
<text text-anchor="middle" x="212.59" y="-235" font-family="Helvetica,sans-Serif" font-size="10.00">Cat::validate</text>
</a>
</g>
</g>
<!-- Node10&#45;&gt;Node11 -->
<g id="edge11" class="edge">
<title>Node10&#45;&gt;Node11</title>
<path fill="none" stroke="#63b8ff" d="M329.51,-238C302.66,-238 271.61,-238 248.41,-238"/>
<polygon fill="#63b8ff" stroke="#63b8ff" points="329.22,-241.5 339.22,-238 329.22,-234.5 329.22,-241.5"/>
</g>
<!-- Node12 -->
<g id="node12" class="node">
<title>Node12</title>
<g id="a_node12"><a xlink:href="classCat.html#a84a4c2dd95aeafdee0c49ccde0ad5cb6" target="_top" xlink:title="Generates a Cat with an unknown &#39;color&#39;, Gender, random &#39;weight&#39;, and specified &#39;newName&#39;.">
<polygon fill="white" stroke="#666666" points="81.71,-248 29.35,-248 29.35,-228 81.71,-228 81.71,-248"/>
<text text-anchor="middle" x="55.53" y="-235" font-family="Helvetica,sans-Serif" font-size="10.00">Cat::Cat</text>
</a>
</g>
</g>
<!-- Node11&#45;&gt;Node12 -->
<g id="edge12" class="edge">
<title>Node11&#45;&gt;Node12</title>
<path fill="none" stroke="#63b8ff" d="M165.52,-238C138.22,-238 104.65,-238 82.04,-238"/>
<polygon fill="#63b8ff" stroke="#63b8ff" points="165.28,-241.5 175.28,-238 165.28,-234.5 165.28,-241.5"/>
</g>
<!-- Node13&#45;&gt;Node2 -->
<g id="edge14" class="edge">
<title>Node13&#45;&gt;Node2</title>
<path fill="none" stroke="#63b8ff" d="M528.45,-110.92C509.29,-119.28 484.68,-129.67 462.43,-138 449.66,-142.78 435.45,-147.56 422.98,-151.59"/>
<polygon fill="#63b8ff" stroke="#63b8ff" points="529.63,-114.23 537.38,-107 526.82,-107.82 529.63,-114.23"/>
</g>
<!-- Node13&#45;&gt;Node3 -->
<g id="edge19" class="edge">
<title>Node13&#45;&gt;Node3</title>
<path fill="none" stroke="#63b8ff" d="M486.6,-97.34C383.95,-99.17 202.44,-102.4 111.57,-104.02"/>
<polygon fill="#63b8ff" stroke="#63b8ff" points="486.66,-100.84 496.6,-97.16 486.53,-93.84 486.66,-100.84"/>
</g>
<!-- Node13&#45;&gt;Node4 -->
<g id="edge15" class="edge">
<title>Node13&#45;&gt;Node4</title>
<path fill="none" stroke="#63b8ff" d="M538.33,-79.06C518.74,-65.52 489.73,-46.76 462.43,-34 451.17,-28.74 438.43,-24.13 426.78,-20.4"/>
<polygon fill="#63b8ff" stroke="#63b8ff" points="536.22,-81.86 546.42,-84.74 540.24,-76.13 536.22,-81.86"/>
</g>
<!-- Node13&#45;&gt;Node5 -->
<g id="edge18" class="edge">
<title>Node13&#45;&gt;Node5</title>
<path fill="none" stroke="#63b8ff" d="M513.11,-82.79C497.07,-78.83 479.07,-74.8 462.43,-72 399.72,-61.46 327.29,-55.13 276.8,-51.63"/>
<polygon fill="#63b8ff" stroke="#63b8ff" points="511.85,-86.08 522.4,-85.13 513.56,-79.29 511.85,-86.08"/>
</g>
<!-- Node14 -->
<g id="node14" class="node">
<title>Node14</title>
<g id="a_node14"><a xlink:href="classSingleLinkedList.html#aa87b3ac7c24c27effa6f24b850ea52d6" target="_top" xlink:title="Checks if SingleLinkedList is sorted from least to greatest.">
<polygon fill="white" stroke="#666666" points="278.16,-134 147.02,-134 147.02,-114 278.16,-114 278.16,-134"/>
<text text-anchor="middle" x="212.59" y="-121" font-family="Helvetica,sans-Serif" font-size="10.00">SingleLinkedList::isSorted</text>
</a>
</g>
</g>
<!-- Node13&#45;&gt;Node14 -->
<g id="edge16" class="edge">
<title>Node13&#45;&gt;Node14</title>
<path fill="none" stroke="#63b8ff" d="M487.09,-102.01C425,-107 337.56,-114.03 278.39,-118.79"/>
<polygon fill="#63b8ff" stroke="#63b8ff" points="487.18,-105.51 496.87,-101.22 486.62,-98.54 487.18,-105.51"/>
</g>
<!-- Node14&#45;&gt;Node3 -->
<g id="edge17" class="edge">
<title>Node14&#45;&gt;Node3</title>
<path fill="none" stroke="#63b8ff" d="M135.32,-114.65C127.21,-113.66 119.09,-112.67 111.3,-111.71"/>
<polygon fill="#63b8ff" stroke="#63b8ff" points="134.87,-118.13 145.22,-115.87 135.72,-111.18 134.87,-118.13"/>
</g>
</g>
</svg>
