<?xml version="1.0" encoding="UTF-8" standalone="no"?>
<!DOCTYPE svg PUBLIC "-//W3C//DTD SVG 1.1//EN"
 "http://www.w3.org/Graphics/SVG/1.1/DTD/svg11.dtd">
<!-- Generated by graphviz version 7.0.5 (20221223.1930)
 -->
<!-- Title: Container::isEmpty Pages: 1 -->
<!--zoomable 180 -->
<svg id="main" version="1.1" xmlns="http://www.w3.org/2000/svg" xmlns:xlink="http://www.w3.org/1999/xlink" xml:space="preserve" onload="init(evt)">
<style type="text/css"><![CDATA[
.edge:hover path { stroke: red; }
.edge:hover polygon { stroke: red; fill: red; }
]]></style>
<script type="text/javascript"><![CDATA[
var edges = document.getElementsByTagName('g');
if (edges && edges.length) {
  for (var i=0;i<edges.length;i++) {
    if (edges[i].id.substr(0,4)=='edge') {
      edges[i].setAttribute('class','edge');
    }
  }
}
]]></script>
        <defs>
                <circle id="rim" cx="0" cy="0" r="7"/>
                <circle id="rim2" cx="0" cy="0" r="3.5"/>
                <g id="zoomPlus">
                        <use xlink:href="#rim" fill="#404040">
                                <set attributeName="fill" to="#808080" begin="zoomplus.mouseover" end="zoomplus.mouseout"/>
                        </use>
                        <path d="M-4,0h8M0,-4v8" fill="none" stroke="white" stroke-width="1.5" pointer-events="none"/>
                </g>
                <g id="zoomMin">
                        <use xlink:href="#rim" fill="#404040">
                                <set attributeName="fill" to="#808080" begin="zoomminus.mouseover" end="zoomminus.mouseout"/>
                        </use>
                        <path d="M-4,0h8" fill="none" stroke="white" stroke-width="1.5" pointer-events="none"/>
                </g>
                <g id="dirArrow">
                        <path fill="none" stroke="white" stroke-width="1.5" d="M0,-3.0v7 M-2.5,-0.5L0,-3.0L2.5,-0.5"/>
                </g>
               <g id="resetDef">
                       <use xlink:href="#rim2" fill="#404040">
                               <set attributeName="fill" to="#808080" begin="reset.mouseover" end="reset.mouseout"/>
                       </use>
               </g>
        </defs>

<script type="text/javascript">
var viewWidth = 904;
var viewHeight = 180;
var sectionId = 'dynsection-3';
</script>
<script xlink:href="svgpan.js"/>
<svg id="graph" class="graph">
<g id="viewport">
<title>Container::isEmpty</title>
<!-- Node1 -->
<g id="node1" class="node">
<title>Node1</title>
<g id="a_node1"><a xlink:title="Generates a Container to place objects into.">
<polygon fill="#999999" stroke="#666666" points="896.04,-96 795.08,-96 795.08,-76 896.04,-76 896.04,-96"/>
<text text-anchor="middle" x="845.56" y="-83" font-family="Helvetica,sans-Serif" font-size="10.00">Container::isEmpty</text>
</a>
</g>
</g>
<!-- Node2 -->
<g id="node2" class="node">
<title>Node2</title>
<g id="a_node2"><a xlink:href="classContainer.html#a654be97698b35ecb309b27f8a075b216" target="_top" xlink:title="Validates that Node and Container follow a specified ruleset.">
<polygon fill="white" stroke="#666666" points="759.51,-115 659.75,-115 659.75,-95 759.51,-95 759.51,-115"/>
<text text-anchor="middle" x="709.63" y="-102" font-family="Helvetica,sans-Serif" font-size="10.00">Container::validate</text>
</a>
</g>
</g>
<!-- Node1&#45;&gt;Node2 -->
<g id="edge1" class="edge">
<title>Node1&#45;&gt;Node2</title>
<path fill="none" stroke="#63b8ff" d="M783.51,-94.66C775.52,-95.79 767.41,-96.94 759.65,-98.05"/>
<polygon fill="#63b8ff" stroke="#63b8ff" points="783.78,-98.16 793.19,-93.29 782.8,-91.23 783.78,-98.16"/>
</g>
<!-- Node3 -->
<g id="node3" class="node">
<title>Node3</title>
<g id="a_node3"><a xlink:href="classSingleLinkedList.html#a4e475a8028331e1eee38a655f88706a6" target="_top" xlink:title="Iterates and validates every object in a SingleLinkedList based on specified ruleset.">
<polygon fill="white" stroke="#666666" points="623.86,-96 495.16,-96 495.16,-76 623.86,-76 623.86,-96"/>
<text text-anchor="middle" x="559.51" y="-83" font-family="Helvetica,sans-Serif" font-size="10.00">SingleLinkedList::validate</text>
</a>
</g>
</g>
<!-- Node1&#45;&gt;Node3 -->
<g id="edge12" class="edge">
<title>Node1&#45;&gt;Node3</title>
<path fill="none" stroke="#63b8ff" d="M783.52,-86C736.56,-86 671.84,-86 624.22,-86"/>
<polygon fill="#63b8ff" stroke="#63b8ff" points="783.25,-89.5 793.25,-86 783.24,-82.5 783.25,-89.5"/>
</g>
<!-- Node2&#45;&gt;Node3 -->
<g id="edge2" class="edge">
<title>Node2&#45;&gt;Node3</title>
<path fill="none" stroke="#63b8ff" d="M647.97,-97.22C640.1,-96.21 632.03,-95.17 624.11,-94.16"/>
<polygon fill="#63b8ff" stroke="#63b8ff" points="647.44,-100.68 657.81,-98.48 648.33,-93.74 647.44,-100.68"/>
</g>
<!-- Node4 -->
<g id="node4" class="node">
<title>Node4</title>
<g id="a_node4"><a xlink:href="classSingleLinkedList.html#ae4bac7ac6ecc8a0f1d689d2fed3b2c2e" target="_top" xlink:title="Adds a new Node, &#39;newNode&#39;, to SingleLinkedList.">
<polygon fill="white" stroke="#666666" points="266.49,-172 155.35,-172 155.35,-152 266.49,-152 266.49,-172"/>
<text text-anchor="middle" x="210.92" y="-159" font-family="Helvetica,sans-Serif" font-size="10.00">SingleLinkedList::add</text>
</a>
</g>
</g>
<!-- Node3&#45;&gt;Node4 -->
<g id="edge3" class="edge">
<title>Node3&#45;&gt;Node4</title>
<path fill="none" stroke="#63b8ff" d="M533.55,-102.53C514.11,-114.52 485.99,-129.99 459.09,-138 394.83,-157.13 317.44,-161.87 266.58,-162.65"/>
<polygon fill="#63b8ff" stroke="#63b8ff" points="535.28,-105.58 541.86,-97.27 531.53,-99.66 535.28,-105.58"/>
</g>
<!-- Node5 -->
<g id="node5" class="node">
<title>Node5</title>
<g id="a_node5"><a xlink:href="classSingleLinkedList.html#af7e0bb2dfe82ddcb6e8ff9291807e66b" target="_top" xlink:title="Sorts SingleLinkedList via selection sort.">
<polygon fill="white" stroke="#666666" points="111.08,-115 -0.03,-115 -0.03,-95 111.08,-95 111.08,-115"/>
<text text-anchor="middle" x="55.53" y="-102" font-family="Helvetica,sans-Serif" font-size="10.00">SingleLinkedList::sort</text>
</a>
</g>
</g>
<!-- Node3&#45;&gt;Node5 -->
<g id="edge11" class="edge">
<title>Node3&#45;&gt;Node5</title>
<path fill="none" stroke="#63b8ff" d="M502.66,-98.59C488.52,-101.25 473.31,-103.65 459.09,-105 335.24,-116.73 189,-112.15 111.38,-108.27"/>
<polygon fill="#63b8ff" stroke="#63b8ff" points="503.11,-102.07 512.25,-96.71 501.76,-95.2 503.11,-102.07"/>
</g>
<!-- Node6 -->
<g id="node6" class="node">
<title>Node6</title>
<g id="a_node6"><a xlink:href="classSingleLinkedList.html#ae5d531b9dd176a59642c64e02bca26c0" target="_top" xlink:title="Returns &quot;parent&quot; Node (previous) of thisNode.">
<polygon fill="white" stroke="#666666" points="459.24,-96 310.63,-96 310.63,-76 459.24,-76 459.24,-96"/>
<text text-anchor="middle" x="384.93" y="-83" font-family="Helvetica,sans-Serif" font-size="10.00">SingleLinkedList::getParentOf</text>
</a>
</g>
</g>
<!-- Node3&#45;&gt;Node6 -->
<g id="edge5" class="edge">
<title>Node3&#45;&gt;Node6</title>
<path fill="none" stroke="#63b8ff" d="M483.34,-86C475.48,-86 467.49,-86 459.64,-86"/>
<polygon fill="#63b8ff" stroke="#63b8ff" points="483.23,-89.5 493.23,-86 483.23,-82.5 483.23,-89.5"/>
</g>
<!-- Node7 -->
<g id="node7" class="node">
<title>Node7</title>
<g id="a_node7"><a xlink:href="classSingleLinkedList.html#af4561d78939a5b2f1c9cf4c86866cec4" target="_top" xlink:title="Removes a Node, &#39;thisNode&#39;, from SingleLinkedList.">
<polygon fill="white" stroke="#666666" points="274.65,-96 147.19,-96 147.19,-76 274.65,-76 274.65,-96"/>
<text text-anchor="middle" x="210.92" y="-83" font-family="Helvetica,sans-Serif" font-size="10.00">SingleLinkedList::remove</text>
</a>
</g>
</g>
<!-- Node3&#45;&gt;Node7 -->
<g id="edge10" class="edge">
<title>Node3&#45;&gt;Node7</title>
<path fill="none" stroke="#63b8ff" d="M502.66,-73.41C488.52,-70.75 473.31,-68.35 459.09,-67 393.47,-60.79 376.4,-60.75 310.78,-67 292.86,-68.71 273.36,-72.12 256.44,-75.58"/>
<polygon fill="#63b8ff" stroke="#63b8ff" points="501.76,-76.8 512.25,-75.29 503.11,-69.93 501.76,-76.8"/>
</g>
<!-- Node8 -->
<g id="node8" class="node">
<title>Node8</title>
<g id="a_node8"><a xlink:href="classSingleLinkedList.html#aa87b3ac7c24c27effa6f24b850ea52d6" target="_top" xlink:title="Checks if SingleLinkedList is sorted from least to greatest.">
<polygon fill="white" stroke="#666666" points="450.5,-20 319.37,-20 319.37,0 450.5,0 450.5,-20"/>
<text text-anchor="middle" x="384.93" y="-7" font-family="Helvetica,sans-Serif" font-size="10.00">SingleLinkedList::isSorted</text>
</a>
</g>
</g>
<!-- Node3&#45;&gt;Node8 -->
<g id="edge8" class="edge">
<title>Node3&#45;&gt;Node8</title>
<path fill="none" stroke="#63b8ff" d="M531.19,-70.15C511.54,-59.14 484.19,-44.6 459.09,-34 447.14,-28.96 433.75,-24.29 421.72,-20.44"/>
<polygon fill="#63b8ff" stroke="#63b8ff" points="529.24,-73.06 539.66,-74.95 532.69,-66.97 529.24,-73.06"/>
</g>
<!-- Node4&#45;&gt;Node5 -->
<g id="edge4" class="edge">
<title>Node4&#45;&gt;Node5</title>
<path fill="none" stroke="#63b8ff" d="M171.18,-147.61C144.27,-137.61 109.02,-124.5 84.74,-115.48"/>
<polygon fill="#63b8ff" stroke="#63b8ff" points="169.77,-150.82 180.36,-151.02 172.21,-144.25 169.77,-150.82"/>
</g>
<!-- Node6&#45;&gt;Node7 -->
<g id="edge6" class="edge">
<title>Node6&#45;&gt;Node7</title>
<path fill="none" stroke="#63b8ff" d="M299.1,-86C291.01,-86 282.92,-86 275.09,-86"/>
<polygon fill="#63b8ff" stroke="#63b8ff" points="298.97,-89.5 308.97,-86 298.97,-82.5 298.97,-89.5"/>
</g>
<!-- Node7&#45;&gt;Node5 -->
<g id="edge7" class="edge">
<title>Node7&#45;&gt;Node5</title>
<path fill="none" stroke="#63b8ff" d="M135.82,-95.18C127.51,-96.21 119.16,-97.24 111.16,-98.23"/>
<polygon fill="#63b8ff" stroke="#63b8ff" points="136.09,-98.67 145.58,-93.97 135.23,-91.72 136.09,-98.67"/>
</g>
<!-- Node8&#45;&gt;Node5 -->
<g id="edge9" class="edge">
<title>Node8&#45;&gt;Node5</title>
<path fill="none" stroke="#63b8ff" d="M318.44,-22.79C270.44,-32.88 203.99,-48.34 147.05,-67 123.08,-74.86 96.57,-86.33 78.47,-94.61"/>
<polygon fill="#63b8ff" stroke="#63b8ff" points="319.06,-26.23 328.14,-20.77 317.63,-19.38 319.06,-26.23"/>
</g>
</g>
</svg>
        <g id="navigator" transform="translate(0 0)" fill="#404254">
                <rect fill="#f2f5e9" fill-opacity="0.5" stroke="#606060" stroke-width=".5" x="0" y="0" width="60" height="60"/>
                <use id="zoomplus" xlink:href="#zoomPlus" x="17" y="9" onmousedown="handleZoom(evt,'in')"/>
                <use id="zoomminus" xlink:href="#zoomMin" x="42" y="9" onmousedown="handleZoom(evt,'out')"/>
                <use id="reset" xlink:href="#resetDef" x="30" y="36" onmousedown="handleReset()"/>
                <g id="arrowUp" xlink:href="#dirArrow" transform="translate(30 24)" onmousedown="handlePan(0,-1)">
                  <use xlink:href="#rim" fill="#404040">
                        <set attributeName="fill" to="#808080" begin="arrowUp.mouseover" end="arrowUp.mouseout"/>
                  </use>
                  <path fill="none" stroke="white" stroke-width="1.5" d="M0,-3.0v7 M-2.5,-0.5L0,-3.0L2.5,-0.5"/>
                </g>
                <g id="arrowRight" xlink:href="#dirArrow" transform="rotate(90) translate(36 -43)" onmousedown="handlePan(1,0)">
                  <use xlink:href="#rim" fill="#404040">
                        <set attributeName="fill" to="#808080" begin="arrowRight.mouseover" end="arrowRight.mouseout"/>
                  </use>
                  <path fill="none" stroke="white" stroke-width="1.5" d="M0,-3.0v7 M-2.5,-0.5L0,-3.0L2.5,-0.5"/>
                </g>
                <g id="arrowDown" xlink:href="#dirArrow" transform="rotate(180) translate(-30 -48)" onmousedown="handlePan(0,1)">
                  <use xlink:href="#rim" fill="#404040">
                        <set attributeName="fill" to="#808080" begin="arrowDown.mouseover" end="arrowDown.mouseout"/>
                  </use>
                  <path fill="none" stroke="white" stroke-width="1.5" d="M0,-3.0v7 M-2.5,-0.5L0,-3.0L2.5,-0.5"/>
                </g>
                <g id="arrowLeft" xlink:href="#dirArrow" transform="rotate(270) translate(-36 17)" onmousedown="handlePan(-1,0)">
                  <use xlink:href="#rim" fill="#404040">
                        <set attributeName="fill" to="#808080" begin="arrowLeft.mouseover" end="arrowLeft.mouseout"/>
                  </use>
                  <path fill="none" stroke="white" stroke-width="1.5" d="M0,-3.0v7 M-2.5,-0.5L0,-3.0L2.5,-0.5"/>
                </g>
        </g>
        <svg viewBox="0 0 15 15" width="100%" height="30px" preserveAspectRatio="xMaxYMin meet">
         <g id="arrow_out" transform="scale(0.3 0.3)">
          <a xlink:href="classContainer_a4ba5dfecf5b1505bd08df17f0c2436c5_icgraph_org.svg" target="_base">
           <rect id="button" ry="5" rx="5" y="6" x="6" height="38" width="38"
                fill="#f2f5e9" fill-opacity="0.5" stroke="#606060" stroke-width="1.0"/>
           <path id="arrow"
             d="M 11.500037,31.436501 C 11.940474,20.09759 22.043105,11.32322 32.158766,21.979434 L 37.068811,17.246167 C 37.068811,17.246167 37.088388,32 37.088388,32 L 22.160133,31.978069 C 22.160133,31.978069 26.997745,27.140456 26.997745,27.140456 C 18.528582,18.264221 13.291696,25.230495 11.500037,31.436501 z"
             style="fill:#404040;"/>
          </a>
         </g>
        </svg>
</svg>
