<?xml version="1.0" encoding="UTF-8" standalone="no"?>
<!DOCTYPE svg PUBLIC "-//W3C//DTD SVG 1.1//EN"
 "http://www.w3.org/Graphics/SVG/1.1/DTD/svg11.dtd">
<!-- Generated by graphviz version 7.0.5 (20221223.1930)
 -->
<!-- Title: Mammal Pages: 1 -->
<svg width="425pt" height="648pt"
 viewBox="0.00 0.00 424.89 648.00" xmlns="http://www.w3.org/2000/svg" xmlns:xlink="http://www.w3.org/1999/xlink">
<g id="graph0" class="graph" transform="scale(1 1) rotate(0) translate(4 644)">
<title>Mammal</title>
<!-- Node1 -->
<g id="node1" class="node">
<title>Node1</title>
<g id="a_node1"><a xlink:title="Mammals? More like &quot;ma pals!&quot;.">
<polygon fill="#999999" stroke="#666666" points="49.71,-0.5 49.71,-240.5 403.35,-240.5 403.35,-0.5 49.71,-0.5"/>
<text text-anchor="middle" x="226.53" y="-227.5" font-family="Helvetica,sans-Serif" font-size="10.00">Mammal</text>
<polyline fill="none" stroke="#666666" points="49.71,-220.5 403.35,-220.5"/>
<text text-anchor="start" x="57.71" y="-207.5" font-family="Helvetica,sans-Serif" font-size="10.00"># Gender gender</text>
<polyline fill="none" stroke="#666666" points="49.71,-200.5 403.35,-200.5"/>
<text text-anchor="start" x="57.71" y="-187.5" font-family="Helvetica,sans-Serif" font-size="10.00">+ Mammal(float newWeight, std::string_view newColor, Gender newGender)</text>
<text text-anchor="start" x="57.71" y="-175.5" font-family="Helvetica,sans-Serif" font-size="10.00">+ Mammal(float newWeight, std::string_view newColor)</text>
<text text-anchor="start" x="57.71" y="-163.5" font-family="Helvetica,sans-Serif" font-size="10.00">+ Mammal(float newWeight, Gender newGender)</text>
<text text-anchor="start" x="57.71" y="-151.5" font-family="Helvetica,sans-Serif" font-size="10.00">+ Mammal(Gender newGender, std::string_view newColor)</text>
<text text-anchor="start" x="57.71" y="-139.5" font-family="Helvetica,sans-Serif" font-size="10.00">+ Mammal(float newWeight)</text>
<text text-anchor="start" x="57.71" y="-127.5" font-family="Helvetica,sans-Serif" font-size="10.00">+ Mammal(Gender newGender)</text>
<text text-anchor="start" x="57.71" y="-115.5" font-family="Helvetica,sans-Serif" font-size="10.00">+ Mammal()</text>
<text text-anchor="start" x="57.71" y="-103.5" font-family="Helvetica,sans-Serif" font-size="10.00">+ virtual ~Mammal()</text>
<text text-anchor="start" x="57.71" y="-91.5" font-family="Helvetica,sans-Serif" font-size="10.00">+ void setColor(std::string_view newColor)</text>
<text text-anchor="start" x="57.71" y="-79.5" font-family="Helvetica,sans-Serif" font-size="10.00">+ std::string_view getColor() const noexcept</text>
<text text-anchor="start" x="57.71" y="-67.5" font-family="Helvetica,sans-Serif" font-size="10.00">+ void setGender(Gender newGender)</text>
<text text-anchor="start" x="57.71" y="-55.5" font-family="Helvetica,sans-Serif" font-size="10.00">+ Gender getGender() const noexcept</text>
<text text-anchor="start" x="57.71" y="-43.5" font-family="Helvetica,sans-Serif" font-size="10.00">+ virtual bool validate() const noexcept</text>
<text text-anchor="start" x="57.71" y="-31.5" font-family="Helvetica,sans-Serif" font-size="10.00">+ virtual void dump() const noexcept</text>
<text text-anchor="start" x="57.71" y="-19.5" font-family="Helvetica,sans-Serif" font-size="10.00">+ static std::string_view getClassification() noexcept</text>
<text text-anchor="start" x="57.71" y="-7.5" font-family="Helvetica,sans-Serif" font-size="10.00">+ static std::string_view generateColor() noexcept</text>
</a>
</g>
</g>
<!-- Node2 -->
<g id="node2" class="node">
<title>Node2</title>
<g id="a_node2"><a xlink:href="classAnimal.html" target="_top" xlink:title="Are there any malls for animals?">
<polygon fill="white" stroke="#666666" points="6.3,-289.5 6.3,-469.5 260.75,-469.5 260.75,-289.5 6.3,-289.5"/>
<text text-anchor="middle" x="133.53" y="-456.5" font-family="Helvetica,sans-Serif" font-size="10.00">Animal</text>
<polyline fill="none" stroke="#666666" points="6.3,-449.5 260.75,-449.5"/>
<text text-anchor="start" x="14.3" y="-436.5" font-family="Helvetica,sans-Serif" font-size="10.00"># float weight</text>
<polyline fill="none" stroke="#666666" points="6.3,-429.5 260.75,-429.5"/>
<text text-anchor="start" x="14.3" y="-416.5" font-family="Helvetica,sans-Serif" font-size="10.00">+ Animal(float newWeight)</text>
<text text-anchor="start" x="14.3" y="-404.5" font-family="Helvetica,sans-Serif" font-size="10.00">+ Animal()</text>
<text text-anchor="start" x="14.3" y="-392.5" font-family="Helvetica,sans-Serif" font-size="10.00">+ virtual bool validate() const noexcept</text>
<text text-anchor="start" x="14.3" y="-380.5" font-family="Helvetica,sans-Serif" font-size="10.00">+ virtual void dump() const noexcept</text>
<text text-anchor="start" x="14.3" y="-368.5" font-family="Helvetica,sans-Serif" font-size="10.00">+ virtual std::string_view speak() const noexcept=0</text>
<text text-anchor="start" x="14.3" y="-356.5" font-family="Helvetica,sans-Serif" font-size="10.00">+ virtual std::string_view getName() const noexcept=0</text>
<text text-anchor="start" x="14.3" y="-344.5" font-family="Helvetica,sans-Serif" font-size="10.00">+ virtual void info() const noexcept</text>
<text text-anchor="start" x="14.3" y="-332.5" font-family="Helvetica,sans-Serif" font-size="10.00">+ static std::string_view getKingdom() noexcept</text>
<text text-anchor="start" x="14.3" y="-320.5" font-family="Helvetica,sans-Serif" font-size="10.00">+ static bool validateWeight(float weight)</text>
<text text-anchor="start" x="14.3" y="-308.5" font-family="Helvetica,sans-Serif" font-size="10.00">+ static float generatePounds() noexcept</text>
<text text-anchor="start" x="14.3" y="-296.5" font-family="Helvetica,sans-Serif" font-size="10.00">+ static Animal * getRandomAnimal()</text>
</a>
</g>
</g>
<!-- Node2&#45;&gt;Node1 -->
<g id="edge1" class="edge">
<title>Node2&#45;&gt;Node1</title>
<path fill="none" stroke="#63b8ff" d="M169.5,-279.1C174.1,-266.37 178.86,-253.23 183.57,-240.22"/>
<polygon fill="none" stroke="#63b8ff" points="166.29,-277.68 166.18,-288.27 172.87,-280.06 166.29,-277.68"/>
</g>
<!-- Node3 -->
<g id="node3" class="node">
<title>Node3</title>
<g id="a_node3"><a xlink:href="classNode.html" target="_top" xlink:title="Do no new nodes know known nodes!?">
<polygon fill="white" stroke="#666666" points="0,-507.5 0,-639.5 203.06,-639.5 203.06,-507.5 0,-507.5"/>
<text text-anchor="middle" x="101.53" y="-626.5" font-family="Helvetica,sans-Serif" font-size="10.00">Node</text>
<polyline fill="none" stroke="#666666" points="0,-619.5 203.06,-619.5"/>
<text text-anchor="middle" x="101.53" y="-606.5" font-family="Helvetica,sans-Serif" font-size="10.00"> </text>
<polyline fill="none" stroke="#666666" points="0,-599.5 203.06,-599.5"/>
<text text-anchor="start" x="8" y="-586.5" font-family="Helvetica,sans-Serif" font-size="10.00">+ Node()=default</text>
<text text-anchor="start" x="8" y="-574.5" font-family="Helvetica,sans-Serif" font-size="10.00">+ virtual ~Node()</text>
<text text-anchor="start" x="8" y="-562.5" font-family="Helvetica,sans-Serif" font-size="10.00">+ virtual void reset()</text>
<text text-anchor="start" x="8" y="-550.5" font-family="Helvetica,sans-Serif" font-size="10.00">+ virtual void dump() const noexcept</text>
<text text-anchor="start" x="8" y="-538.5" font-family="Helvetica,sans-Serif" font-size="10.00">+ virtual bool validate() const</text>
<text text-anchor="start" x="8" y="-526.5" font-family="Helvetica,sans-Serif" font-size="10.00">+ virtual void info() const noexcept</text>
<text text-anchor="start" x="8" y="-514.5" font-family="Helvetica,sans-Serif" font-size="10.00">+ bool isLessThan(const Node *rhs_node)</text>
</a>
</g>
</g>
<!-- Node3&#45;&gt;Node2 -->
<g id="edge2" class="edge">
<title>Node3&#45;&gt;Node2</title>
<path fill="none" stroke="#63b8ff" d="M114.17,-496.63C115.66,-487.72 117.18,-478.56 118.7,-469.49"/>
<polygon fill="none" stroke="#63b8ff" points="110.76,-495.83 112.57,-506.27 117.66,-496.98 110.76,-495.83"/>
</g>
<!-- Node3&#45;&gt;Node3 -->
<g id="edge3" class="edge">
<title>Node3&#45;&gt;Node3</title>
<path fill="none" stroke="#404040" d="M202.68,-586.91C213.85,-584.36 221.06,-579.89 221.06,-573.5 221.06,-569.9 218.77,-566.92 214.79,-564.54"/>
<polygon fill="none" stroke="#404040" points="214.79,-564.54 207.78,-566.23 203.53,-560.4 210.54,-558.72 214.79,-564.54"/>
<text text-anchor="middle" x="233.56" y="-582.5" font-family="Helvetica,sans-Serif" font-size="10.00"> #left</text>
<text text-anchor="middle" x="233.56" y="-570.5" font-family="Helvetica,sans-Serif" font-size="10.00">#next</text>
<text text-anchor="middle" x="233.56" y="-558.5" font-family="Helvetica,sans-Serif" font-size="10.00">#right</text>
</g>
<!-- Node4 -->
<g id="node4" class="node">
<title>Node4</title>
<g id="a_node4"><a xlink:title=" ">
<polygon fill="white" stroke="#666666" points="292.07,-349.5 292.07,-409.5 376.99,-409.5 376.99,-349.5 292.07,-349.5"/>
<text text-anchor="middle" x="334.53" y="-396.5" font-family="Helvetica,sans-Serif" font-size="10.00">std::string_view</text>
<polyline fill="none" stroke="#666666" points="292.07,-389.5 376.99,-389.5"/>
<text text-anchor="middle" x="334.53" y="-376.5" font-family="Helvetica,sans-Serif" font-size="10.00"> </text>
<polyline fill="none" stroke="#666666" points="292.07,-369.5 376.99,-369.5"/>
<text text-anchor="middle" x="334.53" y="-356.5" font-family="Helvetica,sans-Serif" font-size="10.00"> </text>
</a>
</g>
</g>
<!-- Node4&#45;&gt;Node1 -->
<g id="edge4" class="edge">
<title>Node4&#45;&gt;Node1</title>
<path fill="none" stroke="#404040" d="M322.35,-349.52C312.17,-325.29 296.88,-288.91 281.49,-252.28"/>
<polygon fill="none" stroke="#404040" points="281.49,-252.29 275.48,-248.31 276.84,-241.23 282.85,-245.21 281.49,-252.29"/>
<text text-anchor="middle" x="302.54" y="-262" font-family="Helvetica,sans-Serif" font-size="10.00"> #color</text>
</g>
<!-- Node5 -->
<g id="node5" class="node">
<title>Node5</title>
<g id="a_node5"><a xlink:title=" ">
<polygon fill="white" stroke="#666666" points="264.16,-543.5 264.16,-603.5 416.89,-603.5 416.89,-543.5 264.16,-543.5"/>
<text text-anchor="middle" x="340.53" y="-590.5" font-family="Helvetica,sans-Serif" font-size="10.00">std::basic_string_view&lt; Char &gt;</text>
<polyline fill="none" stroke="#666666" points="264.16,-583.5 416.89,-583.5"/>
<text text-anchor="middle" x="340.53" y="-570.5" font-family="Helvetica,sans-Serif" font-size="10.00"> </text>
<polyline fill="none" stroke="#666666" points="264.16,-563.5 416.89,-563.5"/>
<text text-anchor="middle" x="340.53" y="-550.5" font-family="Helvetica,sans-Serif" font-size="10.00"> </text>
</a>
</g>
</g>
<!-- Node5&#45;&gt;Node4 -->
<g id="edge5" class="edge">
<title>Node5&#45;&gt;Node4</title>
<path fill="none" stroke="#63b8ff" d="M339.28,-532.47C338.13,-495.73 336.46,-442.19 335.43,-409.44"/>
<polygon fill="none" stroke="#63b8ff" points="335.77,-532.36 339.58,-542.24 342.77,-532.14 335.77,-532.36"/>
</g>
</g>
</svg>
