<?xml version="1.0" encoding="UTF-8" standalone="no"?>
<!DOCTYPE svg PUBLIC "-//W3C//DTD SVG 1.1//EN"
 "http://www.w3.org/Graphics/SVG/1.1/DTD/svg11.dtd">
<!-- Generated by graphviz version 7.0.5 (20221223.1930)
 -->
<!-- Title: Mammal::Mammal Pages: 1 -->
<svg width="249pt" height="66pt"
 viewBox="0.00 0.00 248.81 66.00" xmlns="http://www.w3.org/2000/svg" xmlns:xlink="http://www.w3.org/1999/xlink">
<g id="graph0" class="graph" transform="scale(1 1) rotate(0) translate(4 62)">
<title>Mammal::Mammal</title>
<!-- Node1 -->
<g id="node1" class="node">
<title>Node1</title>
<g id="a_node1"><a xlink:title="Generates Mammal with ONLY specified Gender.">
<polygon fill="#999999" stroke="#666666" points="98.34,-39 -0.11,-39 -0.11,-19 98.34,-19 98.34,-39"/>
<text text-anchor="middle" x="49.11" y="-26" font-family="Helvetica,sans-Serif" font-size="10.00">Mammal::Mammal</text>
</a>
</g>
</g>
<!-- Node2 -->
<g id="node2" class="node">
<title>Node2</title>
<g id="a_node2"><a xlink:href="classMammal.html#a42669c20d1329bf92fc078bd3220bd17" target="_top" xlink:title="Sets color of Mammal.">
<polygon fill="white" stroke="#666666" points="236.15,-58 138.89,-58 138.89,-38 236.15,-38 236.15,-58"/>
<text text-anchor="middle" x="187.52" y="-45" font-family="Helvetica,sans-Serif" font-size="10.00">Mammal::setColor</text>
</a>
</g>
</g>
<!-- Node1&#45;&gt;Node2 -->
<g id="edge1" class="edge">
<title>Node1&#45;&gt;Node2</title>
<path fill="none" stroke="#63b8ff" d="M98.59,-35.75C107.95,-37.06 117.84,-38.43 127.49,-39.78"/>
<polygon fill="#63b8ff" stroke="#63b8ff" points="126.77,-43.21 137.16,-41.12 127.74,-36.28 126.77,-43.21"/>
</g>
<!-- Node3 -->
<g id="node3" class="node">
<title>Node3</title>
<g id="a_node3"><a xlink:href="classMammal.html#a74e180dc1e795f516c21ab3950d112a0" target="_top" xlink:title="Sets Gender of Animal if &quot;unknown&quot;.">
<polygon fill="white" stroke="#666666" points="240.61,-20 134.43,-20 134.43,0 240.61,0 240.61,-20"/>
<text text-anchor="middle" x="187.52" y="-7" font-family="Helvetica,sans-Serif" font-size="10.00">Mammal::setGender</text>
</a>
</g>
</g>
<!-- Node1&#45;&gt;Node3 -->
<g id="edge2" class="edge">
<title>Node1&#45;&gt;Node3</title>
<path fill="none" stroke="#63b8ff" d="M98.59,-22.25C106.4,-21.16 114.58,-20.02 122.68,-18.89"/>
<polygon fill="#63b8ff" stroke="#63b8ff" points="123.11,-22.37 132.54,-17.52 122.15,-15.43 123.11,-22.37"/>
</g>
</g>
</svg>
