<?xml version="1.0" encoding="UTF-8" standalone="no"?>
<!DOCTYPE svg PUBLIC "-//W3C//DTD SVG 1.1//EN"
 "http://www.w3.org/Graphics/SVG/1.1/DTD/svg11.dtd">
<!-- Generated by graphviz version 7.0.5 (20221223.1930)
 -->
<!-- Title: Mammal::getClassification Pages: 1 -->
<svg width="392pt" height="47pt"
 viewBox="0.00 0.00 391.97 47.00" xmlns="http://www.w3.org/2000/svg" xmlns:xlink="http://www.w3.org/1999/xlink">
<g id="graph0" class="graph" transform="scale(1 1) rotate(0) translate(4 43)">
<title>Mammal::getClassification</title>
<!-- Node1 -->
<g id="node1" class="node">
<title>Node1</title>
<g id="a_node1"><a xlink:title="Returns classification of Mammal.">
<polygon fill="#999999" stroke="#666666" points="383.82,-39 251.41,-39 251.41,-19 383.82,-19 383.82,-39"/>
<text text-anchor="middle" x="317.62" y="-26" font-family="Helvetica,sans-Serif" font-size="10.00">Mammal::getClassification</text>
</a>
</g>
</g>
<!-- Node2 -->
<g id="node2" class="node">
<title>Node2</title>
<g id="a_node2"><a xlink:href="classMammal.html#ab20372fdea68db8cdf54929f1f6f4e31" target="_top" xlink:title="Prints information about Mammal (Node, Animal, classification, color)">
<polygon fill="white" stroke="#666666" points="84.86,-39 0.05,-39 0.05,-19 84.86,-19 84.86,-39"/>
<text text-anchor="middle" x="42.45" y="-26" font-family="Helvetica,sans-Serif" font-size="10.00">Mammal::dump</text>
</a>
</g>
</g>
<!-- Node1&#45;&gt;Node2 -->
<g id="edge1" class="edge">
<title>Node1&#45;&gt;Node2</title>
<path fill="none" stroke="#63b8ff" d="M239.72,-29C189.53,-29 125.96,-29 85,-29"/>
<polygon fill="#63b8ff" stroke="#63b8ff" points="239.67,-32.5 249.67,-29 239.67,-25.5 239.67,-32.5"/>
</g>
<!-- Node3 -->
<g id="node3" class="node">
<title>Node3</title>
<g id="a_node3"><a xlink:href="classMammal.html#a11ad9c1757cac1c6fff7ad1ce384e2c7" target="_top" xlink:title="Validates Mammal, ensuring classification and color are not empty/unknown.">
<polygon fill="white" stroke="#666666" points="215.45,-20 120.73,-20 120.73,0 215.45,0 215.45,-20"/>
<text text-anchor="middle" x="168.09" y="-7" font-family="Helvetica,sans-Serif" font-size="10.00">Mammal::validate</text>
</a>
</g>
</g>
<!-- Node1&#45;&gt;Node3 -->
<g id="edge2" class="edge">
<title>Node1&#45;&gt;Node3</title>
<path fill="none" stroke="#63b8ff" d="M239.89,-19.12C231.71,-18.06 223.57,-17.02 215.88,-16.03"/>
<polygon fill="#63b8ff" stroke="#63b8ff" points="239.18,-22.56 249.55,-20.36 240.08,-15.61 239.18,-22.56"/>
</g>
<!-- Node3&#45;&gt;Node2 -->
<g id="edge3" class="edge">
<title>Node3&#45;&gt;Node2</title>
<path fill="none" stroke="#63b8ff" d="M109,-18.93C100.89,-20.17 92.7,-21.43 84.98,-22.62"/>
<polygon fill="#63b8ff" stroke="#63b8ff" points="109.5,-22.39 118.85,-17.41 108.43,-15.47 109.5,-22.39"/>
</g>
</g>
</svg>
