<?xml version="1.0" encoding="UTF-8" standalone="no"?>
<!DOCTYPE svg PUBLIC "-//W3C//DTD SVG 1.1//EN"
 "http://www.w3.org/Graphics/SVG/1.1/DTD/svg11.dtd">
<!-- Generated by graphviz version 7.0.5 (20221223.1930)
 -->
<!-- Title: Mammal::Mammal Pages: 1 -->
<svg width="535pt" height="142pt"
 viewBox="0.00 0.00 535.11 142.00" xmlns="http://www.w3.org/2000/svg" xmlns:xlink="http://www.w3.org/1999/xlink">
<g id="graph0" class="graph" transform="scale(1 1) rotate(0) translate(4 138)">
<title>Mammal::Mammal</title>
<!-- Node1 -->
<g id="node1" class="node">
<title>Node1</title>
<g id="a_node1"><a xlink:title="Generates a Mammal with a specified &#39;color&#39;, &#39;weight&#39;, and Gender.">
<polygon fill="#999999" stroke="#666666" points="98.34,-77 -0.11,-77 -0.11,-57 98.34,-57 98.34,-77"/>
<text text-anchor="middle" x="49.11" y="-64" font-family="Helvetica,sans-Serif" font-size="10.00">Mammal::Mammal</text>
</a>
</g>
</g>
<!-- Node2 -->
<g id="node2" class="node">
<title>Node2</title>
<g id="a_node2"><a xlink:href="classAnimal.html#aec8039997b0be3da027036d998f8207c" target="_top" xlink:title="Generates an Animal with a specified &#39;weight&#39;.">
<polygon fill="white" stroke="#666666" points="228.71,-134 146.33,-134 146.33,-114 228.71,-114 228.71,-134"/>
<text text-anchor="middle" x="187.52" y="-121" font-family="Helvetica,sans-Serif" font-size="10.00">Animal::Animal</text>
</a>
</g>
</g>
<!-- Node1&#45;&gt;Node2 -->
<g id="edge1" class="edge">
<title>Node1&#45;&gt;Node2</title>
<path fill="none" stroke="#63b8ff" d="M75.13,-77.45C96.48,-86.37 127.4,-99.3 151.26,-109.26"/>
<polygon fill="#63b8ff" stroke="#63b8ff" points="149.69,-112.4 160.26,-113.03 152.39,-105.94 149.69,-112.4"/>
</g>
<!-- Node3 -->
<g id="node3" class="node">
<title>Node3</title>
<g id="a_node3"><a xlink:href="classAnimal.html#abdee41d99f6b3654a31f9275a238b611" target="_top" xlink:title="Sets &#39;weight&#39; of Animal.">
<polygon fill="white" stroke="#666666" points="373.19,-115 277.02,-115 277.02,-95 373.19,-95 373.19,-115"/>
<text text-anchor="middle" x="325.11" y="-102" font-family="Helvetica,sans-Serif" font-size="10.00">Animal::setWeight</text>
</a>
</g>
</g>
<!-- Node1&#45;&gt;Node3 -->
<g id="edge6" class="edge">
<title>Node1&#45;&gt;Node3</title>
<path fill="none" stroke="#63b8ff" d="M98.78,-73.75C145.43,-80.22 215.91,-89.99 265.59,-96.89"/>
<polygon fill="#63b8ff" stroke="#63b8ff" points="264.92,-100.33 275.31,-98.23 265.88,-93.39 264.92,-100.33"/>
</g>
<!-- Node5 -->
<g id="node5" class="node">
<title>Node5</title>
<g id="a_node5"><a xlink:href="classMammal.html#a42669c20d1329bf92fc078bd3220bd17" target="_top" xlink:title="Sets color of Mammal.">
<polygon fill="white" stroke="#666666" points="236.15,-58 138.89,-58 138.89,-38 236.15,-38 236.15,-58"/>
<text text-anchor="middle" x="187.52" y="-45" font-family="Helvetica,sans-Serif" font-size="10.00">Mammal::setColor</text>
</a>
</g>
</g>
<!-- Node1&#45;&gt;Node5 -->
<g id="edge4" class="edge">
<title>Node1&#45;&gt;Node5</title>
<path fill="none" stroke="#63b8ff" d="M98.59,-60.25C107.95,-58.94 117.84,-57.57 127.49,-56.22"/>
<polygon fill="#63b8ff" stroke="#63b8ff" points="127.74,-59.72 137.16,-54.88 126.77,-52.79 127.74,-59.72"/>
</g>
<!-- Node6 -->
<g id="node6" class="node">
<title>Node6</title>
<g id="a_node6"><a xlink:href="classMammal.html#a74e180dc1e795f516c21ab3950d112a0" target="_top" xlink:title="Sets Gender of Animal if &quot;unknown&quot;.">
<polygon fill="white" stroke="#666666" points="240.61,-20 134.43,-20 134.43,0 240.61,0 240.61,-20"/>
<text text-anchor="middle" x="187.52" y="-7" font-family="Helvetica,sans-Serif" font-size="10.00">Mammal::setGender</text>
</a>
</g>
</g>
<!-- Node1&#45;&gt;Node6 -->
<g id="edge5" class="edge">
<title>Node1&#45;&gt;Node6</title>
<path fill="none" stroke="#63b8ff" d="M72.05,-56.54C88.91,-48.63 112.85,-37.7 134.23,-29 138.03,-27.45 142.01,-25.9 146.01,-24.37"/>
<polygon fill="#63b8ff" stroke="#63b8ff" points="146.94,-27.76 155.09,-20.99 144.49,-21.2 146.94,-27.76"/>
</g>
<!-- Node2&#45;&gt;Node3 -->
<g id="edge2" class="edge">
<title>Node2&#45;&gt;Node3</title>
<path fill="none" stroke="#63b8ff" d="M229.2,-118.3C240.67,-116.69 253.37,-114.91 265.66,-113.19"/>
<polygon fill="#63b8ff" stroke="#63b8ff" points="265.86,-116.7 275.28,-111.84 264.89,-109.76 265.86,-116.7"/>
</g>
<!-- Node4 -->
<g id="node4" class="node">
<title>Node4</title>
<g id="a_node4"><a xlink:href="classAnimal.html#acde9807bf2eadb3fb6a8650ba7ccfa43" target="_top" xlink:title="Validates &#39;weight&#39; based on specified ruleset.">
<polygon fill="white" stroke="#666666" points="526.97,-115 409.54,-115 409.54,-95 526.97,-95 526.97,-115"/>
<text text-anchor="middle" x="468.26" y="-102" font-family="Helvetica,sans-Serif" font-size="10.00">Animal::validateWeight</text>
</a>
</g>
</g>
<!-- Node3&#45;&gt;Node4 -->
<g id="edge3" class="edge">
<title>Node3&#45;&gt;Node4</title>
<path fill="none" stroke="#63b8ff" d="M373.5,-105C381.43,-105 389.8,-105 398.14,-105"/>
<polygon fill="#63b8ff" stroke="#63b8ff" points="397.94,-108.5 407.94,-105 397.94,-101.5 397.94,-108.5"/>
</g>
</g>
</svg>
