<?xml version="1.0" encoding="UTF-8" standalone="no"?>
<!DOCTYPE svg PUBLIC "-//W3C//DTD SVG 1.1//EN"
 "http://www.w3.org/Graphics/SVG/1.1/DTD/svg11.dtd">
<!-- Generated by graphviz version 7.0.5 (20221223.1930)
 -->
<!-- Title: Animal::getGender Pages: 1 -->
<svg width="341pt" height="28pt"
 viewBox="0.00 0.00 341.42 28.00" xmlns="http://www.w3.org/2000/svg" xmlns:xlink="http://www.w3.org/1999/xlink">
<g id="graph0" class="graph" transform="scale(1 1) rotate(0) translate(4 24)">
<title>Animal::getGender</title>
<!-- Node1 -->
<g id="node1" class="node">
<title>Node1</title>
<g id="a_node1"><a xlink:title="Returns Gender of Animal.">
<polygon fill="#999999" stroke="#666666" points="333.61,-20 233.85,-20 233.85,0 333.61,0 333.61,-20"/>
<text text-anchor="middle" x="283.73" y="-7" font-family="Helvetica,sans-Serif" font-size="10.00">Animal::getGender</text>
</a>
</g>
</g>
<!-- Node2 -->
<g id="node2" class="node">
<title>Node2</title>
<g id="a_node2"><a xlink:href="classAnimal.html#a476580d51e6bf6dca87c5a3d395f4347" target="_top" xlink:title="Prints information of Animal (Node properties, &#39;kingdom&#39;, Gender)">
<polygon fill="white" stroke="#666666" points="198.11,-20 120.84,-20 120.84,0 198.11,0 198.11,-20"/>
<text text-anchor="middle" x="159.48" y="-7" font-family="Helvetica,sans-Serif" font-size="10.00">Animal::dump</text>
</a>
</g>
</g>
<!-- Node1&#45;&gt;Node2 -->
<g id="edge1" class="edge">
<title>Node1&#45;&gt;Node2</title>
<path fill="none" stroke="#63b8ff" d="M222.03,-10C213.96,-10 205.89,-10 198.37,-10"/>
<polygon fill="#63b8ff" stroke="#63b8ff" points="221.85,-13.5 231.85,-10 221.85,-6.5 221.85,-13.5"/>
</g>
<!-- Node3 -->
<g id="node3" class="node">
<title>Node3</title>
<g id="a_node3"><a xlink:href="classMammal.html#ab20372fdea68db8cdf54929f1f6f4e31" target="_top" xlink:title="Prints information about Mammal (Node, Animal, &#39;classification&#39;, &#39;color&#39;)">
<polygon fill="white" stroke="#666666" points="84.86,-20 0.05,-20 0.05,0 84.86,0 84.86,-20"/>
<text text-anchor="middle" x="42.45" y="-7" font-family="Helvetica,sans-Serif" font-size="10.00">Mammal::dump</text>
</a>
</g>
</g>
<!-- Node2&#45;&gt;Node3 -->
<g id="edge2" class="edge">
<title>Node2&#45;&gt;Node3</title>
<path fill="none" stroke="#63b8ff" d="M108.99,-10C100.98,-10 92.76,-10 84.96,-10"/>
<polygon fill="#63b8ff" stroke="#63b8ff" points="108.98,-13.5 118.98,-10 108.98,-6.5 108.98,-13.5"/>
</g>
</g>
</svg>
