<?xml version="1.0" encoding="UTF-8" standalone="no"?>
<!DOCTYPE svg PUBLIC "-//W3C//DTD SVG 1.1//EN"
 "http://www.w3.org/Graphics/SVG/1.1/DTD/svg11.dtd">
<!-- Generated by graphviz version 7.0.5 (20221223.1930)
 -->
<!-- Title: Mammal::setColor Pages: 1 -->
<svg width="498pt" height="28pt"
 viewBox="0.00 0.00 498.42 28.00" xmlns="http://www.w3.org/2000/svg" xmlns:xlink="http://www.w3.org/1999/xlink">
<g id="graph0" class="graph" transform="scale(1 1) rotate(0) translate(4 24)">
<title>Mammal::setColor</title>
<!-- Node1 -->
<g id="node1" class="node">
<title>Node1</title>
<g id="a_node1"><a xlink:title="Sets color of Mammal.">
<polygon fill="#999999" stroke="#666666" points="490.49,-20 393.23,-20 393.23,0 490.49,0 490.49,-20"/>
<text text-anchor="middle" x="441.86" y="-7" font-family="Helvetica,sans-Serif" font-size="10.00">Mammal::setColor</text>
</a>
</g>
</g>
<!-- Node2 -->
<g id="node2" class="node">
<title>Node2</title>
<g id="a_node2"><a xlink:href="classMammal.html#a355f8c647618d6baf6bda466f04401e2" target="_top" xlink:title="Generates a Mammal with a specified &#39;color&#39;, &#39;weight&#39;, and Gender.">
<polygon fill="white" stroke="#666666" points="357.41,-20 258.95,-20 258.95,0 357.41,0 357.41,-20"/>
<text text-anchor="middle" x="308.18" y="-7" font-family="Helvetica,sans-Serif" font-size="10.00">Mammal::Mammal</text>
</a>
</g>
</g>
<!-- Node1&#45;&gt;Node2 -->
<g id="edge1" class="edge">
<title>Node1&#45;&gt;Node2</title>
<path fill="none" stroke="#63b8ff" d="M381.46,-10C373.51,-10 365.45,-10 357.72,-10"/>
<polygon fill="#63b8ff" stroke="#63b8ff" points="381.43,-13.5 391.43,-10 381.43,-6.5 381.43,-13.5"/>
</g>
<!-- Node3 -->
<g id="node3" class="node">
<title>Node3</title>
<g id="a_node3"><a xlink:href="classCat.html#a481c200246b8e3df042f1f5c36187777" target="_top" xlink:title="Generates a Cat with a specified Name, &#39;color&#39;, &#39;weight&#39;, and Gender.">
<polygon fill="white" stroke="#666666" points="222.91,-20 170.55,-20 170.55,0 222.91,0 222.91,-20"/>
<text text-anchor="middle" x="196.73" y="-7" font-family="Helvetica,sans-Serif" font-size="10.00">Cat::Cat</text>
</a>
</g>
</g>
<!-- Node2&#45;&gt;Node3 -->
<g id="edge2" class="edge">
<title>Node2&#45;&gt;Node3</title>
<path fill="none" stroke="#63b8ff" d="M247.04,-10C238.63,-10 230.39,-10 223.13,-10"/>
<polygon fill="#63b8ff" stroke="#63b8ff" points="247.02,-13.5 257.02,-10 247.02,-6.5 247.02,-13.5"/>
</g>
<!-- Node4 -->
<g id="node4" class="node">
<title>Node4</title>
<g id="a_node4"><a xlink:href="classAnimal.html#a6c67202c385f8e213a21454565f01e62" target="_top" xlink:title="Generates a random Animal with random specifications (in this case, a Cat)">
<polygon fill="white" stroke="#666666" points="134.58,-20 -0.19,-20 -0.19,0 134.58,0 134.58,-20"/>
<text text-anchor="middle" x="67.19" y="-7" font-family="Helvetica,sans-Serif" font-size="10.00">Animal::getRandomAnimal</text>
</a>
</g>
</g>
<!-- Node3&#45;&gt;Node4 -->
<g id="edge3" class="edge">
<title>Node3&#45;&gt;Node4</title>
<path fill="none" stroke="#63b8ff" d="M158.91,-10C151.33,-10 143.13,-10 134.86,-10"/>
<polygon fill="#63b8ff" stroke="#63b8ff" points="158.71,-13.5 168.71,-10 158.71,-6.5 158.71,-13.5"/>
</g>
</g>
</svg>
