<?xml version="1.0" encoding="UTF-8" standalone="no"?>
<!DOCTYPE svg PUBLIC "-//W3C//DTD SVG 1.1//EN"
 "http://www.w3.org/Graphics/SVG/1.1/DTD/svg11.dtd">
<!-- Generated by graphviz version 7.0.5 (20221223.1930)
 -->
<!-- Title: Node::info Pages: 1 -->
<svg width="443pt" height="66pt"
 viewBox="0.00 0.00 443.44 66.00" xmlns="http://www.w3.org/2000/svg" xmlns:xlink="http://www.w3.org/1999/xlink">
<g id="graph0" class="graph" transform="scale(1 1) rotate(0) translate(4 62)">
<title>Node::info</title>
<!-- Node1 -->
<g id="node1" class="node">
<title>Node1</title>
<g id="a_node1"><a xlink:title="Prints unique line representing this object.">
<polygon fill="#999999" stroke="#666666" points="435.24,-39 374.06,-39 374.06,-19 435.24,-19 435.24,-39"/>
<text text-anchor="middle" x="404.65" y="-26" font-family="Helvetica,sans-Serif" font-size="10.00">Node::info</text>
</a>
</g>
</g>
<!-- Node2 -->
<g id="node2" class="node">
<title>Node2</title>
<g id="a_node2"><a xlink:href="classAnimal.html#a7a892113e7a4a8834cf84b7b2621e2d8" target="_top" xlink:title="Validates Animal based on specified ruleset.">
<polygon fill="white" stroke="#666666" points="337.65,-39 251.47,-39 251.47,-19 337.65,-19 337.65,-39"/>
<text text-anchor="middle" x="294.56" y="-26" font-family="Helvetica,sans-Serif" font-size="10.00">Animal::validate</text>
</a>
</g>
</g>
<!-- Node1&#45;&gt;Node2 -->
<g id="edge1" class="edge">
<title>Node1&#45;&gt;Node2</title>
<path fill="none" stroke="#63b8ff" d="M362.41,-29C354.36,-29 345.91,-29 337.83,-29"/>
<polygon fill="#63b8ff" stroke="#63b8ff" points="362.31,-32.5 372.31,-29 362.31,-25.5 362.31,-32.5"/>
</g>
<!-- Node3 -->
<g id="node3" class="node">
<title>Node3</title>
<g id="a_node3"><a xlink:href="classAnimal.html#a476580d51e6bf6dca87c5a3d395f4347" target="_top" xlink:title="Prints information of Animal (Node properties, &#39;kingdom&#39;, Gender)">
<polygon fill="white" stroke="#666666" points="206.72,-58 129.45,-58 129.45,-38 206.72,-38 206.72,-58"/>
<text text-anchor="middle" x="168.09" y="-45" font-family="Helvetica,sans-Serif" font-size="10.00">Animal::dump</text>
</a>
</g>
</g>
<!-- Node2&#45;&gt;Node3 -->
<g id="edge2" class="edge">
<title>Node2&#45;&gt;Node3</title>
<path fill="none" stroke="#63b8ff" d="M239.82,-37.2C228.84,-38.88 217.51,-40.61 207.21,-42.18"/>
<polygon fill="#63b8ff" stroke="#63b8ff" points="240.22,-40.68 249.58,-35.71 239.16,-33.76 240.22,-40.68"/>
</g>
<!-- Node5 -->
<g id="node5" class="node">
<title>Node5</title>
<g id="a_node5"><a xlink:href="classMammal.html#a11ad9c1757cac1c6fff7ad1ce384e2c7" target="_top" xlink:title="Validates Animal based on specified ruleset.">
<polygon fill="white" stroke="#666666" points="215.45,-20 120.73,-20 120.73,0 215.45,0 215.45,-20"/>
<text text-anchor="middle" x="168.09" y="-7" font-family="Helvetica,sans-Serif" font-size="10.00">Mammal::validate</text>
</a>
</g>
</g>
<!-- Node2&#45;&gt;Node5 -->
<g id="edge4" class="edge">
<title>Node2&#45;&gt;Node5</title>
<path fill="none" stroke="#63b8ff" d="M239.86,-20.8C231.8,-19.57 223.54,-18.31 215.65,-17.11"/>
<polygon fill="#63b8ff" stroke="#63b8ff" points="239.16,-24.24 249.58,-22.29 240.22,-17.32 239.16,-24.24"/>
</g>
<!-- Node4 -->
<g id="node4" class="node">
<title>Node4</title>
<g id="a_node4"><a xlink:href="classMammal.html#ab20372fdea68db8cdf54929f1f6f4e31" target="_top" xlink:title="Prints information about Mammal (Node, Animal, &#39;classification&#39;, &#39;color&#39;)">
<polygon fill="white" stroke="#666666" points="84.86,-58 0.05,-58 0.05,-38 84.86,-38 84.86,-58"/>
<text text-anchor="middle" x="42.45" y="-45" font-family="Helvetica,sans-Serif" font-size="10.00">Mammal::dump</text>
</a>
</g>
</g>
<!-- Node3&#45;&gt;Node4 -->
<g id="edge3" class="edge">
<title>Node3&#45;&gt;Node4</title>
<path fill="none" stroke="#63b8ff" d="M117.57,-48C106.8,-48 95.51,-48 85.09,-48"/>
<polygon fill="#63b8ff" stroke="#63b8ff" points="117.47,-51.5 127.47,-48 117.47,-44.5 117.47,-51.5"/>
</g>
<!-- Node6 -->
<g id="node6" class="node">
<title>Node6</title>
<g id="a_node6"><a xlink:href="structCat.html#ae8cbfb9566aca77591c94edfb39413dc" target="_top" xlink:title="Generates a Cat with an unknown &#39;color&#39;, Gender, random &#39;weight&#39;, and specified &#39;newName&#39;.">
<polygon fill="white" stroke="#666666" points="68.63,-20 16.27,-20 16.27,0 68.63,0 68.63,-20"/>
<text text-anchor="middle" x="42.45" y="-7" font-family="Helvetica,sans-Serif" font-size="10.00">Cat::Cat</text>
</a>
</g>
</g>
<!-- Node5&#45;&gt;Node6 -->
<g id="edge5" class="edge">
<title>Node5&#45;&gt;Node6</title>
<path fill="none" stroke="#63b8ff" d="M109.18,-10C95.13,-10 80.8,-10 69.12,-10"/>
<polygon fill="#63b8ff" stroke="#63b8ff" points="108.83,-13.5 118.83,-10 108.83,-6.5 108.83,-13.5"/>
</g>
</g>
</svg>
