<?xml version="1.0" encoding="UTF-8" standalone="no"?>
<!DOCTYPE svg PUBLIC "-//W3C//DTD SVG 1.1//EN"
 "http://www.w3.org/Graphics/SVG/1.1/DTD/svg11.dtd">
<!-- Generated by graphviz version 7.0.5 (20221223.1930)
 -->
<!-- Title: ee205_animal_farm&#45;aar0m/src/config.h Pages: 1 -->
<svg width="198pt" height="84pt"
 viewBox="0.00 0.00 197.97 84.00" xmlns="http://www.w3.org/2000/svg" xmlns:xlink="http://www.w3.org/1999/xlink">
<g id="graph0" class="graph" transform="scale(1 1) rotate(0) translate(4 80)">
<title>ee205_animal_farm&#45;aar0m/src/config.h</title>
<!-- Node1 -->
<g id="node1" class="node">
<title>Node1</title>
<g id="a_node1"><a xlink:title="Header file for Animal Farm configuration.">
<polygon fill="#999999" stroke="#666666" points="189.96,-76 0.01,-76 0.01,-56 189.96,-56 189.96,-76"/>
<text text-anchor="middle" x="94.99" y="-63" font-family="Helvetica,sans-Serif" font-size="10.00">ee205_animal_farm&#45;aar0m/src/config.h</text>
</a>
</g>
</g>
<!-- Node2 -->
<g id="node2" class="node">
<title>Node2</title>
<g id="a_node2"><a xlink:title=" ">
<polygon fill="#e0e0e0" stroke="#999999" points="86.51,-20 35.47,-20 35.47,0 86.51,0 86.51,-20"/>
<text text-anchor="middle" x="60.99" y="-7" font-family="Helvetica,sans-Serif" font-size="10.00">iomanip</text>
</a>
</g>
</g>
<!-- Node1&#45;&gt;Node2 -->
<g id="edge1" class="edge">
<title>Node1&#45;&gt;Node2</title>
<path fill="none" stroke="#63b8ff" d="M89.06,-55.59C84.63,-48.55 78.41,-38.67 72.95,-30"/>
<polygon fill="#63b8ff" stroke="#63b8ff" points="75.94,-28.18 67.65,-21.58 70.01,-31.91 75.94,-28.18"/>
</g>
<!-- Node3 -->
<g id="node3" class="node">
<title>Node3</title>
<g id="a_node3"><a xlink:title=" ">
<polygon fill="#e0e0e0" stroke="#999999" points="153.89,-20 104.08,-20 104.08,0 153.89,0 153.89,-20"/>
<text text-anchor="middle" x="128.99" y="-7" font-family="Helvetica,sans-Serif" font-size="10.00">random</text>
</a>
</g>
</g>
<!-- Node1&#45;&gt;Node3 -->
<g id="edge2" class="edge">
<title>Node1&#45;&gt;Node3</title>
<path fill="none" stroke="#63b8ff" d="M100.91,-55.59C105.35,-48.55 111.57,-38.67 117.02,-30"/>
<polygon fill="#63b8ff" stroke="#63b8ff" points="119.96,-31.91 122.33,-21.58 114.04,-28.18 119.96,-31.91"/>
</g>
</g>
</svg>
