<?xml version="1.0" encoding="UTF-8" standalone="no"?>
<!DOCTYPE svg PUBLIC "-//W3C//DTD SVG 1.1//EN"
 "http://www.w3.org/Graphics/SVG/1.1/DTD/svg11.dtd">
<!-- Generated by graphviz version 7.0.5 (20221223.1930)
 -->
<!-- Title: ee205_animal_farm&#45;aar0m/src/config.h Pages: 1 -->
<!--zoomable 308 -->
<svg id="main" version="1.1" xmlns="http://www.w3.org/2000/svg" xmlns:xlink="http://www.w3.org/1999/xlink" xml:space="preserve" onload="init(evt)">
<style type="text/css"><![CDATA[
.edge:hover path { stroke: red; }
.edge:hover polygon { stroke: red; fill: red; }
]]></style>
<script type="text/javascript"><![CDATA[
var edges = document.getElementsByTagName('g');
if (edges && edges.length) {
  for (var i=0;i<edges.length;i++) {
    if (edges[i].id.substr(0,4)=='edge') {
      edges[i].setAttribute('class','edge');
    }
  }
}
]]></script>
        <defs>
                <circle id="rim" cx="0" cy="0" r="7"/>
                <circle id="rim2" cx="0" cy="0" r="3.5"/>
                <g id="zoomPlus">
                        <use xlink:href="#rim" fill="#404040">
                                <set attributeName="fill" to="#808080" begin="zoomplus.mouseover" end="zoomplus.mouseout"/>
                        </use>
                        <path d="M-4,0h8M0,-4v8" fill="none" stroke="white" stroke-width="1.5" pointer-events="none"/>
                </g>
                <g id="zoomMin">
                        <use xlink:href="#rim" fill="#404040">
                                <set attributeName="fill" to="#808080" begin="zoomminus.mouseover" end="zoomminus.mouseout"/>
                        </use>
                        <path d="M-4,0h8" fill="none" stroke="white" stroke-width="1.5" pointer-events="none"/>
                </g>
                <g id="dirArrow">
                        <path fill="none" stroke="white" stroke-width="1.5" d="M0,-3.0v7 M-2.5,-0.5L0,-3.0L2.5,-0.5"/>
                </g>
               <g id="resetDef">
                       <use xlink:href="#rim2" fill="#404040">
                               <set attributeName="fill" to="#808080" begin="reset.mouseover" end="reset.mouseout"/>
                       </use>
               </g>
        </defs>

<script type="text/javascript">
var viewWidth = 1428;
var viewHeight = 308;
var sectionId = 'dynsection-1';
</script>
<script xlink:href="svgpan.js"/>
<svg id="graph" class="graph">
<g id="viewport">
<title>ee205_animal_farm&#45;aar0m/src/config.h</title>
<!-- Node1 -->
<g id="node1" class="node">
<title>Node1</title>
<g id="a_node1"><a xlink:title="Header file for Animal Farm configuration.">
<polygon fill="#999999" stroke="#666666" points="807.38,-300 617.43,-300 617.43,-280 807.38,-280 807.38,-300"/>
<text text-anchor="middle" x="712.41" y="-287" font-family="Helvetica,sans-Serif" font-size="10.00">ee205_animal_farm&#45;aar0m/src/config.h</text>
</a>
</g>
</g>
<!-- Node2 -->
<g id="node2" class="node">
<title>Node2</title>
<g id="a_node2"><a xlink:href="Animal_8h.html" target="_top" xlink:title="Are there any malls for animals?">
<polygon fill="white" stroke="#666666" points="818.11,-188 590.71,-188 590.71,-168 818.11,-168 818.11,-188"/>
<text text-anchor="middle" x="704.41" y="-175" font-family="Helvetica,sans-Serif" font-size="10.00">ee205_animal_farm&#45;aar0m/src/Animal/Animal.h</text>
</a>
</g>
</g>
<!-- Node1&#45;&gt;Node2 -->
<g id="edge1" class="edge">
<title>Node1&#45;&gt;Node2</title>
<path fill="none" stroke="#63b8ff" d="M710.9,-268.31C709.16,-244.36 706.37,-205.95 705.09,-188.35"/>
<polygon fill="#63b8ff" stroke="#63b8ff" points="707.4,-268.39 711.62,-278.11 714.38,-267.88 707.4,-268.39"/>
</g>
<!-- Node7 -->
<g id="node7" class="node">
<title>Node7</title>
<g id="a_node7"><a xlink:href="main__catEmpire_8cpp_source.html" target="_top" xlink:title=" ">
<polygon fill="white" stroke="#666666" points="556.51,-20 310.31,-20 310.31,0 556.51,0 556.51,-20"/>
<text text-anchor="middle" x="433.41" y="-7" font-family="Helvetica,sans-Serif" font-size="10.00">ee205_animal_farm&#45;aar0m/src/main_catEmpire.cpp</text>
</a>
</g>
</g>
<!-- Node1&#45;&gt;Node7 -->
<g id="edge22" class="edge">
<title>Node1&#45;&gt;Node7</title>
<path fill="none" stroke="#63b8ff" d="M605.9,-285.87C464.91,-280.79 230.42,-268.72 199.41,-244 175.67,-225.08 178.41,-209.36 178.41,-179 178.41,-179 178.41,-179 178.41,-121 178.41,-90.9 175.13,-76.24 197.41,-56 216.74,-38.44 273.65,-27.29 326.74,-20.48"/>
<polygon fill="#63b8ff" stroke="#63b8ff" points="605.51,-289.36 615.63,-286.22 605.76,-282.36 605.51,-289.36"/>
</g>
<!-- Node11 -->
<g id="node11" class="node">
<title>Node11</title>
<g id="a_node11"><a xlink:href="Node_8h.html" target="_top" xlink:title="Node class for objects to inherit.">
<polygon fill="white" stroke="#666666" points="684.24,-244 450.57,-244 450.57,-224 684.24,-224 684.24,-244"/>
<text text-anchor="middle" x="567.41" y="-231" font-family="Helvetica,sans-Serif" font-size="10.00">ee205_animal_farm&#45;aar0m/src/Container/Node.h</text>
</a>
</g>
</g>
<!-- Node1&#45;&gt;Node11 -->
<g id="edge12" class="edge">
<title>Node1&#45;&gt;Node11</title>
<path fill="none" stroke="#63b8ff" d="M676.59,-275.66C650.6,-265.98 616.07,-253.12 592.86,-244.48"/>
<polygon fill="#63b8ff" stroke="#63b8ff" points="675.14,-278.86 685.73,-279.07 677.58,-272.3 675.14,-278.86"/>
</g>
<!-- Node13 -->
<g id="node13" class="node">
<title>Node13</title>
<g id="a_node13"><a xlink:href="Gender_8h.html" target="_top" xlink:title="Gender class to be used for Mammals.">
<polygon fill="white" stroke="#666666" points="432.27,-244 208.54,-244 208.54,-224 432.27,-224 432.27,-244"/>
<text text-anchor="middle" x="320.41" y="-231" font-family="Helvetica,sans-Serif" font-size="10.00">ee205_animal_farm&#45;aar0m/src/Utility/Gender.h</text>
</a>
</g>
</g>
<!-- Node1&#45;&gt;Node13 -->
<g id="edge16" class="edge">
<title>Node1&#45;&gt;Node13</title>
<path fill="none" stroke="#63b8ff" d="M632.48,-277.99C560.88,-268.13 456.98,-253.81 389.06,-244.46"/>
<polygon fill="#63b8ff" stroke="#63b8ff" points="631.79,-281.43 642.18,-279.33 632.75,-274.49 631.79,-281.43"/>
</g>
<!-- Node15 -->
<g id="node15" class="node">
<title>Node15</title>
<g id="a_node15"><a xlink:href="Name_8cpp.html" target="_top" xlink:title="A utility class for managing Animal names.">
<polygon fill="white" stroke="#666666" points="968.16,-244 740.66,-244 740.66,-224 968.16,-224 968.16,-244"/>
<text text-anchor="middle" x="854.41" y="-231" font-family="Helvetica,sans-Serif" font-size="10.00">ee205_animal_farm&#45;aar0m/src/Utility/Name.cpp</text>
</a>
</g>
</g>
<!-- Node1&#45;&gt;Node15 -->
<g id="edge19" class="edge">
<title>Node1&#45;&gt;Node15</title>
<path fill="none" stroke="#63b8ff" d="M747.82,-275.53C773.24,-265.87 806.85,-253.08 829.48,-244.48"/>
<polygon fill="#63b8ff" stroke="#63b8ff" points="746.66,-272.23 738.56,-279.06 749.15,-278.77 746.66,-272.23"/>
</g>
<!-- Node16 -->
<g id="node16" class="node">
<title>Node16</title>
<g id="a_node16"><a xlink:href="Trim_8cpp.html" target="_top" xlink:title="General string&#45;trimming functions.">
<polygon fill="white" stroke="#666666" points="1206.97,-244 985.84,-244 985.84,-224 1206.97,-224 1206.97,-244"/>
<text text-anchor="middle" x="1096.41" y="-231" font-family="Helvetica,sans-Serif" font-size="10.00">ee205_animal_farm&#45;aar0m/src/Utility/Trim.cpp</text>
</a>
</g>
</g>
<!-- Node1&#45;&gt;Node16 -->
<g id="edge20" class="edge">
<title>Node1&#45;&gt;Node16</title>
<path fill="none" stroke="#63b8ff" d="M790.71,-277.99C860.85,-268.13 962.63,-253.81 1029.16,-244.46"/>
<polygon fill="#63b8ff" stroke="#63b8ff" points="790.65,-274.46 781.23,-279.32 791.62,-281.39 790.65,-274.46"/>
</g>
<!-- Node17 -->
<g id="node17" class="node">
<title>Node17</title>
<g id="a_node17"><a xlink:href="main_8cpp.html" target="_top" xlink:title="Generic Hello World template.">
<polygon fill="white" stroke="#666666" points="1419.94,-244 1224.88,-244 1224.88,-224 1419.94,-224 1419.94,-244"/>
<text text-anchor="middle" x="1322.41" y="-231" font-family="Helvetica,sans-Serif" font-size="10.00">ee205_animal_farm&#45;aar0m/src/main.cpp</text>
</a>
</g>
</g>
<!-- Node1&#45;&gt;Node17 -->
<g id="edge21" class="edge">
<title>Node1&#45;&gt;Node17</title>
<path fill="none" stroke="#63b8ff" d="M818.92,-279.57C933.31,-269.44 1113.53,-253.49 1224.49,-243.67"/>
<polygon fill="#63b8ff" stroke="#63b8ff" points="818.88,-276.06 809.23,-280.43 819.5,-283.03 818.88,-276.06"/>
</g>
<!-- Node3 -->
<g id="node3" class="node">
<title>Node3</title>
<g id="a_node3"><a xlink:href="Animal_8cpp.html" target="_top" xlink:title="Are there any malls for animals?">
<polygon fill="white" stroke="#666666" points="1163.17,-20 925.65,-20 925.65,0 1163.17,0 1163.17,-20"/>
<text text-anchor="middle" x="1044.41" y="-7" font-family="Helvetica,sans-Serif" font-size="10.00">ee205_animal_farm&#45;aar0m/src/Animal/Animal.cpp</text>
</a>
</g>
</g>
<!-- Node2&#45;&gt;Node3 -->
<g id="edge2" class="edge">
<title>Node2&#45;&gt;Node3</title>
<path fill="none" stroke="#63b8ff" d="M829.21,-165.92C895.64,-153.77 973.99,-128.48 1025.41,-76 1040.38,-60.72 1043.67,-34.31 1044.32,-20.32"/>
<polygon fill="#63b8ff" stroke="#63b8ff" points="828.98,-162.41 819.73,-167.57 830.18,-169.31 828.98,-162.41"/>
</g>
<!-- Node4 -->
<g id="node4" class="node">
<title>Node4</title>
<g id="a_node4"><a xlink:href="Mammal_8h.html" target="_top" xlink:title="Mammals? More like &quot;ma pals!&quot;.">
<polygon fill="white" stroke="#666666" points="754.65,-132 512.17,-132 512.17,-112 754.65,-112 754.65,-132"/>
<text text-anchor="middle" x="633.41" y="-119" font-family="Helvetica,sans-Serif" font-size="10.00">ee205_animal_farm&#45;aar0m/src/Mammal/Mammal.h</text>
</a>
</g>
</g>
<!-- Node2&#45;&gt;Node4 -->
<g id="edge3" class="edge">
<title>Node2&#45;&gt;Node4</title>
<path fill="none" stroke="#63b8ff" d="M682.95,-160.68C670.73,-151.39 655.87,-140.09 645.63,-132.3"/>
<polygon fill="#63b8ff" stroke="#63b8ff" points="680.76,-163.41 690.84,-166.68 685,-157.84 680.76,-163.41"/>
</g>
<!-- Node5 -->
<g id="node5" class="node">
<title>Node5</title>
<g id="a_node5"><a xlink:href="SingleLinkedList_8h.html" target="_top" xlink:title="Singly Linked List (SLL) class to store Nodes.">
<polygon fill="white" stroke="#666666" points="488.66,-76 206.15,-76 206.15,-56 488.66,-56 488.66,-76"/>
<text text-anchor="middle" x="347.41" y="-63" font-family="Helvetica,sans-Serif" font-size="10.00">ee205_animal_farm&#45;aar0m/src/Container/SingleLinkedList.h</text>
</a>
</g>
</g>
<!-- Node4&#45;&gt;Node5 -->
<g id="edge4" class="edge">
<title>Node4&#45;&gt;Node5</title>
<path fill="none" stroke="#63b8ff" d="M572.16,-109.44C520.05,-99.6 446.13,-85.64 397.5,-76.46"/>
<polygon fill="#63b8ff" stroke="#63b8ff" points="571.3,-112.84 581.78,-111.25 572.6,-105.96 571.3,-112.84"/>
</g>
<!-- Node8 -->
<g id="node8" class="node">
<title>Node8</title>
<g id="a_node8"><a xlink:href="Mammal_2Cat_2Cat_8h.html" target="_top" xlink:title="Meow meow meow? Meow meow meow meow meow meow!">
<polygon fill="white" stroke="#666666" points="1016.71,-76 778.1,-76 778.1,-56 1016.71,-56 1016.71,-76"/>
<text text-anchor="middle" x="897.41" y="-63" font-family="Helvetica,sans-Serif" font-size="10.00">ee205_animal_farm&#45;aar0m/src/Mammal/Cat/Cat.h</text>
</a>
</g>
</g>
<!-- Node4&#45;&gt;Node8 -->
<g id="edge7" class="edge">
<title>Node4&#45;&gt;Node8</title>
<path fill="none" stroke="#63b8ff" d="M690.85,-109.25C738.9,-99.42 806.56,-85.58 851.17,-76.46"/>
<polygon fill="#63b8ff" stroke="#63b8ff" points="690.27,-105.8 681.18,-111.23 691.68,-112.65 690.27,-105.8"/>
</g>
<!-- Node10 -->
<g id="node10" class="node">
<title>Node10</title>
<g id="a_node10"><a xlink:href="Mammal_8cpp.html" target="_top" xlink:title="Mammals? More like &quot;ma pals!&quot;.">
<polygon fill="white" stroke="#666666" points="760.21,-76 506.61,-76 506.61,-56 760.21,-56 760.21,-76"/>
<text text-anchor="middle" x="633.41" y="-63" font-family="Helvetica,sans-Serif" font-size="10.00">ee205_animal_farm&#45;aar0m/src/Mammal/Mammal.cpp</text>
</a>
</g>
</g>
<!-- Node4&#45;&gt;Node10 -->
<g id="edge11" class="edge">
<title>Node4&#45;&gt;Node10</title>
<path fill="none" stroke="#63b8ff" d="M633.41,-100.13C633.41,-91.9 633.41,-82.85 633.41,-76.3"/>
<polygon fill="#63b8ff" stroke="#63b8ff" points="629.91,-100.08 633.41,-110.08 636.91,-100.08 629.91,-100.08"/>
</g>
<!-- Node6 -->
<g id="node6" class="node">
<title>Node6</title>
<g id="a_node6"><a xlink:href="SingleLinkedList_8cpp.html" target="_top" xlink:title="Singly Linked List (SLL) class to store Nodes.">
<polygon fill="white" stroke="#666666" points="292.72,-20 0.09,-20 0.09,0 292.72,0 292.72,-20"/>
<text text-anchor="middle" x="146.41" y="-7" font-family="Helvetica,sans-Serif" font-size="10.00">ee205_animal_farm&#45;aar0m/src/Container/SingleLinkedList.cpp</text>
</a>
</g>
</g>
<!-- Node5&#45;&gt;Node6 -->
<g id="edge5" class="edge">
<title>Node5&#45;&gt;Node6</title>
<path fill="none" stroke="#63b8ff" d="M301.57,-52.69C265.17,-42.91 215.01,-29.43 181.69,-20.48"/>
<polygon fill="#63b8ff" stroke="#63b8ff" points="300.37,-55.99 310.93,-55.2 302.19,-49.23 300.37,-55.99"/>
</g>
<!-- Node5&#45;&gt;Node7 -->
<g id="edge6" class="edge">
<title>Node5&#45;&gt;Node7</title>
<path fill="none" stroke="#63b8ff" d="M372.03,-49.54C386.96,-40.17 405.53,-28.51 418.31,-20.48"/>
<polygon fill="#63b8ff" stroke="#63b8ff" points="370.28,-46.51 363.67,-54.79 374,-52.44 370.28,-46.51"/>
</g>
<!-- Node8&#45;&gt;Node3 -->
<g id="edge8" class="edge">
<title>Node8&#45;&gt;Node3</title>
<path fill="none" stroke="#63b8ff" d="M933.72,-51.66C960.07,-41.98 995.07,-29.12 1018.6,-20.48"/>
<polygon fill="#63b8ff" stroke="#63b8ff" points="932.61,-48.34 924.43,-55.07 935.03,-54.91 932.61,-48.34"/>
</g>
<!-- Node8&#45;&gt;Node7 -->
<g id="edge10" class="edge">
<title>Node8&#45;&gt;Node7</title>
<path fill="none" stroke="#63b8ff" d="M804.37,-54.17C719.67,-44.32 595.86,-29.91 514.96,-20.49"/>
<polygon fill="#63b8ff" stroke="#63b8ff" points="803.95,-57.65 814.29,-55.33 804.76,-50.69 803.95,-57.65"/>
</g>
<!-- Node9 -->
<g id="node9" class="node">
<title>Node9</title>
<g id="a_node9"><a xlink:href="Mammal_2Cat_2Cat_8cpp.html" target="_top" xlink:title="Meow meow meow? Meow meow meow meow meow meow!">
<polygon fill="white" stroke="#666666" points="907.77,-20 659.04,-20 659.04,0 907.77,0 907.77,-20"/>
<text text-anchor="middle" x="783.41" y="-7" font-family="Helvetica,sans-Serif" font-size="10.00">ee205_animal_farm&#45;aar0m/src/Mammal/Cat/Cat.cpp</text>
</a>
</g>
</g>
<!-- Node8&#45;&gt;Node9 -->
<g id="edge9" class="edge">
<title>Node8&#45;&gt;Node9</title>
<path fill="none" stroke="#63b8ff" d="M867.32,-50.75C847.13,-41.18 821.1,-28.85 803.42,-20.48"/>
<polygon fill="#63b8ff" stroke="#63b8ff" points="865.65,-53.83 876.18,-54.95 868.64,-47.5 865.65,-53.83"/>
</g>
<!-- Node11&#45;&gt;Node2 -->
<g id="edge13" class="edge">
<title>Node11&#45;&gt;Node2</title>
<path fill="none" stroke="#63b8ff" d="M601.91,-219.4C626.39,-209.75 658.63,-197.05 680.36,-188.48"/>
<polygon fill="#63b8ff" stroke="#63b8ff" points="600.7,-216.12 592.68,-223.04 603.27,-222.63 600.7,-216.12"/>
</g>
<!-- Node12 -->
<g id="node12" class="node">
<title>Node12</title>
<g id="a_node12"><a xlink:href="Container_8h.html" target="_top" xlink:title="Container class for objects to be storage and use.">
<polygon fill="white" stroke="#666666" points="483.7,-132 231.12,-132 231.12,-112 483.7,-112 483.7,-132"/>
<text text-anchor="middle" x="357.41" y="-119" font-family="Helvetica,sans-Serif" font-size="10.00">ee205_animal_farm&#45;aar0m/src/Container/Container.h</text>
</a>
</g>
</g>
<!-- Node11&#45;&gt;Node12 -->
<g id="edge14" class="edge">
<title>Node11&#45;&gt;Node12</title>
<path fill="none" stroke="#63b8ff" d="M541.12,-218.04C517.34,-204.62 481.26,-184.55 449.41,-168 424.79,-155.21 396.02,-141.3 377.29,-132.38"/>
<polygon fill="#63b8ff" stroke="#63b8ff" points="539.38,-221.08 549.81,-222.96 542.83,-214.99 539.38,-221.08"/>
</g>
<!-- Node12&#45;&gt;Node5 -->
<g id="edge15" class="edge">
<title>Node12&#45;&gt;Node5</title>
<path fill="none" stroke="#63b8ff" d="M353.6,-100.43C352.06,-92.11 350.36,-82.93 349.13,-76.3"/>
<polygon fill="#63b8ff" stroke="#63b8ff" points="350.13,-100.91 355.39,-110.11 357.01,-99.64 350.13,-100.91"/>
</g>
<!-- Node13&#45;&gt;Node4 -->
<g id="edge17" class="edge">
<title>Node13&#45;&gt;Node4</title>
<path fill="none" stroke="#63b8ff" d="M358.38,-219.8C384.08,-210.85 418.8,-198.74 449.41,-188 505.51,-168.31 571.17,-145.07 606.91,-132.4"/>
<polygon fill="#63b8ff" stroke="#63b8ff" points="357.32,-216.46 349.03,-223.05 359.62,-223.07 357.32,-216.46"/>
</g>
<!-- Node14 -->
<g id="node14" class="node">
<title>Node14</title>
<g id="a_node14"><a xlink:href="Gender_8cpp.html" target="_top" xlink:title="Methods to generate and validate Genders.">
<polygon fill="white" stroke="#666666" points="440.84,-188 205.98,-188 205.98,-168 440.84,-168 440.84,-188"/>
<text text-anchor="middle" x="323.41" y="-175" font-family="Helvetica,sans-Serif" font-size="10.00">ee205_animal_farm&#45;aar0m/src/Utility/Gender.cpp</text>
</a>
</g>
</g>
<!-- Node13&#45;&gt;Node14 -->
<g id="edge18" class="edge">
<title>Node13&#45;&gt;Node14</title>
<path fill="none" stroke="#63b8ff" d="M321.57,-212.13C322.03,-203.9 322.53,-194.85 322.89,-188.3"/>
<polygon fill="#63b8ff" stroke="#63b8ff" points="318.07,-211.9 321.01,-222.08 325.06,-212.29 318.07,-211.9"/>
</g>
</g>
</svg>
        <g id="navigator" transform="translate(0 0)" fill="#404254">
                <rect fill="#f2f5e9" fill-opacity="0.5" stroke="#606060" stroke-width=".5" x="0" y="0" width="60" height="60"/>
                <use id="zoomplus" xlink:href="#zoomPlus" x="17" y="9" onmousedown="handleZoom(evt,'in')"/>
                <use id="zoomminus" xlink:href="#zoomMin" x="42" y="9" onmousedown="handleZoom(evt,'out')"/>
                <use id="reset" xlink:href="#resetDef" x="30" y="36" onmousedown="handleReset()"/>
                <g id="arrowUp" xlink:href="#dirArrow" transform="translate(30 24)" onmousedown="handlePan(0,-1)">
                  <use xlink:href="#rim" fill="#404040">
                        <set attributeName="fill" to="#808080" begin="arrowUp.mouseover" end="arrowUp.mouseout"/>
                  </use>
                  <path fill="none" stroke="white" stroke-width="1.5" d="M0,-3.0v7 M-2.5,-0.5L0,-3.0L2.5,-0.5"/>
                </g>
                <g id="arrowRight" xlink:href="#dirArrow" transform="rotate(90) translate(36 -43)" onmousedown="handlePan(1,0)">
                  <use xlink:href="#rim" fill="#404040">
                        <set attributeName="fill" to="#808080" begin="arrowRight.mouseover" end="arrowRight.mouseout"/>
                  </use>
                  <path fill="none" stroke="white" stroke-width="1.5" d="M0,-3.0v7 M-2.5,-0.5L0,-3.0L2.5,-0.5"/>
                </g>
                <g id="arrowDown" xlink:href="#dirArrow" transform="rotate(180) translate(-30 -48)" onmousedown="handlePan(0,1)">
                  <use xlink:href="#rim" fill="#404040">
                        <set attributeName="fill" to="#808080" begin="arrowDown.mouseover" end="arrowDown.mouseout"/>
                  </use>
                  <path fill="none" stroke="white" stroke-width="1.5" d="M0,-3.0v7 M-2.5,-0.5L0,-3.0L2.5,-0.5"/>
                </g>
                <g id="arrowLeft" xlink:href="#dirArrow" transform="rotate(270) translate(-36 17)" onmousedown="handlePan(-1,0)">
                  <use xlink:href="#rim" fill="#404040">
                        <set attributeName="fill" to="#808080" begin="arrowLeft.mouseover" end="arrowLeft.mouseout"/>
                  </use>
                  <path fill="none" stroke="white" stroke-width="1.5" d="M0,-3.0v7 M-2.5,-0.5L0,-3.0L2.5,-0.5"/>
                </g>
        </g>
        <svg viewBox="0 0 15 15" width="100%" height="30px" preserveAspectRatio="xMaxYMin meet">
         <g id="arrow_out" transform="scale(0.3 0.3)">
          <a xlink:href="config_8h__dep__incl_org.svg" target="_base">
           <rect id="button" ry="5" rx="5" y="6" x="6" height="38" width="38"
                fill="#f2f5e9" fill-opacity="0.5" stroke="#606060" stroke-width="1.0"/>
           <path id="arrow"
             d="M 11.500037,31.436501 C 11.940474,20.09759 22.043105,11.32322 32.158766,21.979434 L 37.068811,17.246167 C 37.068811,17.246167 37.088388,32 37.088388,32 L 22.160133,31.978069 C 22.160133,31.978069 26.997745,27.140456 26.997745,27.140456 C 18.528582,18.264221 13.291696,25.230495 11.500037,31.436501 z"
             style="fill:#404040;"/>
          </a>
         </g>
        </svg>
</svg>
