<?xml version="1.0" encoding="UTF-8" standalone="no"?>
<!DOCTYPE svg PUBLIC "-//W3C//DTD SVG 1.1//EN"
 "http://www.w3.org/Graphics/SVG/1.1/DTD/svg11.dtd">
<!-- Generated by graphviz version 7.0.5 (20221223.1930)
 -->
<!-- Title: ee205_animal_farm&#45;aar0m/src Pages: 1 -->
<svg width="161pt" height="264pt"
 viewBox="0.00 0.00 161.00 264.00" xmlns="http://www.w3.org/2000/svg" xmlns:xlink="http://www.w3.org/1999/xlink">
<g id="graph0" class="graph" transform="scale(1 1) rotate(0) translate(4 260)">
<title>ee205_animal_farm&#45;aar0m/src</title>
<g id="clust1" class="cluster">
<title>clusterdir_f8e7bde39fdf2abee12b9639c697daed</title>
<g id="a_clust1"><a xlink:href="dir_f8e7bde39fdf2abee12b9639c697daed.html" target="_top" xlink:title="ee205_animal_farm&#45;aar0m">
<polygon fill="#edf0f7" stroke="#404040" stroke-dasharray="5,2" points="8,-8 8,-248 145,-248 145,-8 8,-8"/>
<text text-anchor="middle" x="76.5" y="-235" font-family="Helvetica,sans-Serif" font-size="10.00">ee205_animal_farm&#45;aar0m</text>
</a>
</g>
</g>
<g id="clust2" class="cluster">
<title>clusterdir_ed9effbd23eea416039333bbbedef500</title>
<g id="a_clust2"><a xlink:href="dir_ed9effbd23eea416039333bbbedef500.html" target="_top">
<polygon fill="#edf0f7" stroke="#404040" stroke-width="2" points="16,-16 16,-220 137,-220 137,-16 16,-16"/>
</a>
</g>
</g>
<!-- dir_ed9effbd23eea416039333bbbedef500 -->
<g id="node1" class="node">
<title>dir_ed9effbd23eea416039333bbbedef500</title>
<text text-anchor="middle" x="105" y="-199" font-family="Helvetica,sans-Serif" font-size="10.00">src</text>
</g>
<!-- dir_1ec4b2fb96a3ecb2a72cbfaa7f9ed4f9 -->
<g id="node3" class="node">
<title>dir_1ec4b2fb96a3ecb2a72cbfaa7f9ed4f9</title>
<g id="a_node3"><a xlink:href="dir_1ec4b2fb96a3ecb2a72cbfaa7f9ed4f9.html" target="_top" xlink:title="Container">
<polygon fill="#a2b4d6" stroke="#404040" points="85.86,-156 26.14,-156 26.14,-136 85.86,-136 85.86,-156"/>
<text text-anchor="middle" x="56" y="-143" font-family="Helvetica,sans-Serif" font-size="10.00">Container</text>
</a>
</g>
</g>
<!-- dir_ed9effbd23eea416039333bbbedef500&#45;&gt;dir_1ec4b2fb96a3ecb2a72cbfaa7f9ed4f9 -->
<g id="edge1" class="edge">
<title>dir_ed9effbd23eea416039333bbbedef500&#45;&gt;dir_1ec4b2fb96a3ecb2a72cbfaa7f9ed4f9</title>
<path fill="none" stroke="#63b8ff" d="M96.91,-192.08C90.22,-184.71 80.52,-174.02 72.24,-164.89"/>
<polygon fill="#63b8ff" stroke="#63b8ff" points="74.93,-162.65 65.62,-157.6 69.74,-167.35 74.93,-162.65"/>
<g id="a_edge1&#45;headlabel"><a xlink:href="dir_000006_000002.html" target="_top" xlink:title="2">
<text text-anchor="middle" x="78.43" y="-159.28" font-family="Helvetica,sans-Serif" font-size="10.00" fill="#63b8ff">2</text>
</a>
</g>
</g>
<!-- dir_735e45b698db48ad41396bc10a4854d1 -->
<g id="node5" class="node">
<title>dir_735e45b698db48ad41396bc10a4854d1</title>
<g id="a_node5"><a xlink:href="dir_735e45b698db48ad41396bc10a4854d1.html" target="_top" xlink:title="Mammal">
<polygon fill="#a2b4d6" stroke="#404040" points="120.34,-100 65.66,-100 65.66,-80 120.34,-80 120.34,-100"/>
<text text-anchor="middle" x="93" y="-87" font-family="Helvetica,sans-Serif" font-size="10.00">Mammal</text>
</a>
</g>
</g>
<!-- dir_ed9effbd23eea416039333bbbedef500&#45;&gt;dir_735e45b698db48ad41396bc10a4854d1 -->
<g id="edge2" class="edge">
<title>dir_ed9effbd23eea416039333bbbedef500&#45;&gt;dir_735e45b698db48ad41396bc10a4854d1</title>
<path fill="none" stroke="#63b8ff" d="M104.06,-192.37C102.18,-175.11 97.9,-135.92 95.25,-111.64"/>
<polygon fill="#63b8ff" stroke="#63b8ff" points="98.73,-111.27 94.17,-101.71 91.77,-112.03 98.73,-111.27"/>
<g id="a_edge2&#45;headlabel"><a xlink:href="dir_000006_000005.html" target="_top" xlink:title="3">
<text text-anchor="middle" x="101.78" y="-110.03" font-family="Helvetica,sans-Serif" font-size="10.00" fill="#63b8ff">3</text>
</a>
</g>
</g>
<!-- dir_f734d0787c7bc41f4ffda6988fd4c849 -->
<g id="node2" class="node">
<title>dir_f734d0787c7bc41f4ffda6988fd4c849</title>
<g id="a_node2"><a xlink:href="dir_f734d0787c7bc41f4ffda6988fd4c849.html" target="_top" xlink:title="Animal">
<polygon fill="#a2b4d6" stroke="#404040" points="70.07,-44 23.93,-44 23.93,-24 70.07,-24 70.07,-44"/>
<text text-anchor="middle" x="47" y="-31" font-family="Helvetica,sans-Serif" font-size="10.00">Animal</text>
</a>
</g>
</g>
<!-- dir_f734d0787c7bc41f4ffda6988fd4c849&#45;&gt;dir_1ec4b2fb96a3ecb2a72cbfaa7f9ed4f9 -->
<g id="edge3" class="edge">
<title>dir_f734d0787c7bc41f4ffda6988fd4c849&#45;&gt;dir_1ec4b2fb96a3ecb2a72cbfaa7f9ed4f9</title>
<path fill="none" stroke="#63b8ff" d="M47.77,-44.35C49.21,-61.95 52.35,-100.36 54.31,-124.31"/>
<polygon fill="#63b8ff" stroke="#63b8ff" points="50.81,-124.43 55.11,-134.11 57.78,-123.86 50.81,-124.43"/>
<g id="a_edge3&#45;headlabel"><a xlink:href="dir_000000_000002.html" target="_top" xlink:title="1">
<text text-anchor="middle" x="47.81" y="-119.59" font-family="Helvetica,sans-Serif" font-size="10.00" fill="#63b8ff">1</text>
</a>
</g>
</g>
<!-- dir_f734d0787c7bc41f4ffda6988fd4c849&#45;&gt;dir_735e45b698db48ad41396bc10a4854d1 -->
<g id="edge4" class="edge">
<title>dir_f734d0787c7bc41f4ffda6988fd4c849&#45;&gt;dir_735e45b698db48ad41396bc10a4854d1</title>
<path fill="none" stroke="#63b8ff" d="M60.17,-44.3C67.73,-51.47 76.78,-61.62 83.64,-70.44"/>
<polygon fill="#63b8ff" stroke="#63b8ff" points="80.67,-72.31 89.37,-78.37 86.35,-68.21 80.67,-72.31"/>
<g id="a_edge4&#45;headlabel"><a xlink:href="dir_000000_000005.html" target="_top" xlink:title="1">
<text text-anchor="middle" x="77.15" y="-69.29" font-family="Helvetica,sans-Serif" font-size="10.00" fill="#63b8ff">1</text>
</a>
</g>
</g>
<!-- dir_1ec4b2fb96a3ecb2a72cbfaa7f9ed4f9&#45;&gt;dir_735e45b698db48ad41396bc10a4854d1 -->
<g id="edge5" class="edge">
<title>dir_1ec4b2fb96a3ecb2a72cbfaa7f9ed4f9&#45;&gt;dir_735e45b698db48ad41396bc10a4854d1</title>
<path fill="none" stroke="#63b8ff" d="M62.44,-135.59C67.33,-128.47 74.19,-118.45 80.18,-109.72"/>
<polygon fill="#63b8ff" stroke="#63b8ff" points="83.01,-111.77 85.77,-101.55 77.23,-107.82 83.01,-111.77"/>
<g id="a_edge5&#45;headlabel"><a xlink:href="dir_000002_000005.html" target="_top" xlink:title="1">
<text text-anchor="middle" x="84.17" y="-112.1" font-family="Helvetica,sans-Serif" font-size="10.00" fill="#63b8ff">1</text>
</a>
</g>
</g>
<!-- dir_0b325f8488cb48dde41a55c592ca8cb4 -->
<g id="node4" class="node">
<title>dir_0b325f8488cb48dde41a55c592ca8cb4</title>
<g id="a_node4"><a xlink:href="dir_0b325f8488cb48dde41a55c592ca8cb4.html" target="_top" xlink:title="Legacy">
<polygon fill="#a2b4d6" stroke="#404040" points="72.25,-212 23.75,-212 23.75,-192 72.25,-192 72.25,-212"/>
<text text-anchor="middle" x="48" y="-199" font-family="Helvetica,sans-Serif" font-size="10.00">Legacy</text>
</a>
</g>
</g>
<!-- dir_735e45b698db48ad41396bc10a4854d1&#45;&gt;dir_f734d0787c7bc41f4ffda6988fd4c849 -->
<g id="edge7" class="edge">
<title>dir_735e45b698db48ad41396bc10a4854d1&#45;&gt;dir_f734d0787c7bc41f4ffda6988fd4c849</title>
<path fill="none" stroke="#63b8ff" d="M79.72,-79.59C72.14,-72.39 63.1,-62.23 56.26,-53.43"/>
<polygon fill="#63b8ff" stroke="#63b8ff" points="59.25,-51.59 50.56,-45.53 53.57,-55.68 59.25,-51.59"/>
<g id="a_edge7&#45;headlabel"><a xlink:href="dir_000005_000000.html" target="_top" xlink:title="1">
<text text-anchor="middle" x="62.77" y="-48.62" font-family="Helvetica,sans-Serif" font-size="10.00" fill="#63b8ff">1</text>
</a>
</g>
</g>
<!-- dir_295ab4d9a59b36eeb33a2da6e00722a8 -->
<g id="node6" class="node">
<title>dir_295ab4d9a59b36eeb33a2da6e00722a8</title>
<g id="a_node6"><a xlink:href="dir_295ab4d9a59b36eeb33a2da6e00722a8.html" target="_top" xlink:title="Utility">
<polygon fill="#a2b4d6" stroke="#404040" points="129.45,-44 88.55,-44 88.55,-24 129.45,-24 129.45,-44"/>
<text text-anchor="middle" x="109" y="-31" font-family="Helvetica,sans-Serif" font-size="10.00">Utility</text>
</a>
</g>
</g>
<!-- dir_735e45b698db48ad41396bc10a4854d1&#45;&gt;dir_295ab4d9a59b36eeb33a2da6e00722a8 -->
<g id="edge6" class="edge">
<title>dir_735e45b698db48ad41396bc10a4854d1&#45;&gt;dir_295ab4d9a59b36eeb33a2da6e00722a8</title>
<path fill="none" stroke="#63b8ff" d="M95.79,-79.59C97.78,-72.86 100.55,-63.53 103.03,-55.15"/>
<polygon fill="#63b8ff" stroke="#63b8ff" points="106.33,-56.33 105.81,-45.75 99.62,-54.34 106.33,-56.33"/>
<g id="a_edge6&#45;headlabel"><a xlink:href="dir_000005_000007.html" target="_top" xlink:title="3">
<text text-anchor="middle" x="108.46" y="-56.13" font-family="Helvetica,sans-Serif" font-size="10.00" fill="#63b8ff">3</text>
</a>
</g>
</g>
</g>
</svg>
