<?xml version="1.0" encoding="UTF-8" standalone="no"?>
<!DOCTYPE svg PUBLIC "-//W3C//DTD SVG 1.1//EN"
 "http://www.w3.org/Graphics/SVG/1.1/DTD/svg11.dtd">
<!-- Generated by graphviz version 7.0.5 (20221223.1930)
 -->
<!-- Title: main Pages: 1 -->
<svg width="255pt" height="142pt"
 viewBox="0.00 0.00 254.74 142.00" xmlns="http://www.w3.org/2000/svg" xmlns:xlink="http://www.w3.org/1999/xlink">
<g id="graph0" class="graph" transform="scale(1 1) rotate(0) translate(4 138)">
<title>main</title>
<!-- Node1 -->
<g id="node1" class="node">
<title>Node1</title>
<g id="a_node1"><a xlink:title="Program for generating a Cat database.">
<polygon fill="#999999" stroke="#666666" points="37.51,-77 0.16,-77 0.16,-57 37.51,-57 37.51,-77"/>
<text text-anchor="middle" x="18.84" y="-64" font-family="Helvetica,sans-Serif" font-size="10.00">main</text>
</a>
</g>
</g>
<!-- Node2 -->
<g id="node2" class="node">
<title>Node2</title>
<g id="a_node2"><a xlink:href="ArrayDB_8cpp.html#af818deeeeb8f57be5bd7a4a6d95b5a34" target="_top" xlink:title="If newCat is valid, return true">
<polygon fill="white" stroke="#666666" points="134.05,-134 84.34,-134 84.34,-114 134.05,-114 134.05,-134"/>
<text text-anchor="middle" x="109.19" y="-121" font-family="Helvetica,sans-Serif" font-size="10.00">AddCat</text>
</a>
</g>
</g>
<!-- Node1&#45;&gt;Node2 -->
<g id="edge1" class="edge">
<title>Node1&#45;&gt;Node2</title>
<path fill="none" stroke="#63b8ff" d="M33.71,-77.44C44.42,-85.33 59.71,-96.26 73.67,-105 75.27,-106 76.92,-107 78.6,-107.99"/>
<polygon fill="#63b8ff" stroke="#63b8ff" points="76.53,-110.84 86.95,-112.77 80,-104.77 76.53,-110.84"/>
</g>
<!-- Node4 -->
<g id="node4" class="node">
<title>Node4</title>
<g id="a_node4"><a xlink:href="Legacy_2Cat_8cpp.html#a495595bb258b9cd1419d36e4e712fb14" target="_top" xlink:title="Generate a valid, random cat.">
<polygon fill="white" stroke="#666666" points="144.73,-96 73.66,-96 73.66,-76 144.73,-76 144.73,-96"/>
<text text-anchor="middle" x="109.19" y="-83" font-family="Helvetica,sans-Serif" font-size="10.00">generateCat</text>
</a>
</g>
</g>
<!-- Node1&#45;&gt;Node4 -->
<g id="edge3" class="edge">
<title>Node1&#45;&gt;Node4</title>
<path fill="none" stroke="#63b8ff" d="M37.72,-70.84C44.88,-72.39 53.49,-74.24 62.2,-76.11"/>
<polygon fill="#63b8ff" stroke="#63b8ff" points="61.18,-79.47 71.69,-78.15 62.65,-72.63 61.18,-79.47"/>
</g>
<!-- Node5 -->
<g id="node5" class="node">
<title>Node5</title>
<g id="a_node5"><a xlink:href="ArrayDB_8cpp.html#ab9f92cfb73b3e157fe2cba3a7769c93e" target="_top" xlink:title="Initialize catArray.">
<polygon fill="white" stroke="#666666" points="130.37,-58 88.02,-58 88.02,-38 130.37,-38 130.37,-58"/>
<text text-anchor="middle" x="109.19" y="-45" font-family="Helvetica,sans-Serif" font-size="10.00">initDB</text>
</a>
</g>
</g>
<!-- Node1&#45;&gt;Node5 -->
<g id="edge5" class="edge">
<title>Node1&#45;&gt;Node5</title>
<path fill="none" stroke="#63b8ff" d="M37.72,-63.16C48.87,-60.76 63.54,-57.6 76.61,-54.79"/>
<polygon fill="#63b8ff" stroke="#63b8ff" points="77.03,-58.28 86.07,-52.76 75.56,-51.44 77.03,-58.28"/>
</g>
<!-- Node6 -->
<g id="node6" class="node">
<title>Node6</title>
<g id="a_node6"><a xlink:href="Legacy_2Cat_8cpp.html#abc4f74521f9a187a3e6ebc017eecb48d" target="_top" xlink:title="Prints Cat structure.">
<polygon fill="white" stroke="#666666" points="134.71,-20 83.68,-20 83.68,0 134.71,0 134.71,-20"/>
<text text-anchor="middle" x="109.19" y="-7" font-family="Helvetica,sans-Serif" font-size="10.00">printCat</text>
</a>
</g>
</g>
<!-- Node1&#45;&gt;Node6 -->
<g id="edge6" class="edge">
<title>Node1&#45;&gt;Node6</title>
<path fill="none" stroke="#63b8ff" d="M33.71,-56.56C44.42,-48.67 59.71,-37.74 73.67,-29 75.27,-28 76.92,-27 78.6,-26.01"/>
<polygon fill="#63b8ff" stroke="#63b8ff" points="80,-29.23 86.95,-21.23 76.53,-23.16 80,-29.23"/>
</g>
<!-- Node3 -->
<g id="node3" class="node">
<title>Node3</title>
<g id="a_node3"><a xlink:href="Legacy_2Cat_8cpp.html#a3daa0851aa17e2fa26c14060bb7ab259" target="_top" xlink:title="Validate Cat based on member information.">
<polygon fill="white" stroke="#666666" points="246.76,-96 180.7,-96 180.7,-76 246.76,-76 246.76,-96"/>
<text text-anchor="middle" x="213.73" y="-83" font-family="Helvetica,sans-Serif" font-size="10.00">validateCat</text>
</a>
</g>
</g>
<!-- Node2&#45;&gt;Node3 -->
<g id="edge2" class="edge">
<title>Node2&#45;&gt;Node3</title>
<path fill="none" stroke="#63b8ff" d="M134.49,-114.99C146.25,-110.64 160.64,-105.3 173.86,-100.4"/>
<polygon fill="#63b8ff" stroke="#63b8ff" points="175.03,-103.7 183.19,-96.95 172.6,-97.14 175.03,-103.7"/>
</g>
<!-- Node4&#45;&gt;Node3 -->
<g id="edge4" class="edge">
<title>Node4&#45;&gt;Node3</title>
<path fill="none" stroke="#63b8ff" d="M145.19,-86C152.83,-86 161.01,-86 168.94,-86"/>
<polygon fill="#63b8ff" stroke="#63b8ff" points="168.79,-89.5 178.79,-86 168.79,-82.5 168.79,-89.5"/>
</g>
<!-- Node6&#45;&gt;Node3 -->
<g id="edge7" class="edge">
<title>Node6&#45;&gt;Node3</title>
<path fill="none" stroke="#63b8ff" d="M130.67,-20.41C135.39,-23.04 140.31,-25.99 144.71,-29 162.07,-40.88 180.25,-56.3 193.45,-68.1"/>
<polygon fill="#63b8ff" stroke="#63b8ff" points="190.84,-70.46 200.59,-74.59 195.54,-65.28 190.84,-70.46"/>
</g>
</g>
</svg>
