<?xml version="1.0" encoding="UTF-8" standalone="no"?>
<!DOCTYPE svg PUBLIC "-//W3C//DTD SVG 1.1//EN"
 "http://www.w3.org/Graphics/SVG/1.1/DTD/svg11.dtd">
<!-- Generated by graphviz version 7.0.5 (20221223.1930)
 -->
<!-- Title: ee205_animal_farm&#45;aar0m/src/Legacy/epicCats.cpp Pages: 1 -->
<svg width="256pt" height="140pt"
 viewBox="0.00 0.00 255.78 140.00" xmlns="http://www.w3.org/2000/svg" xmlns:xlink="http://www.w3.org/1999/xlink">
<g id="graph0" class="graph" transform="scale(1 1) rotate(0) translate(4 136)">
<title>ee205_animal_farm&#45;aar0m/src/Legacy/epicCats.cpp</title>
<!-- Node1 -->
<g id="node1" class="node">
<title>Node1</title>
<g id="a_node1"><a xlink:title="File for epicCats.">
<polygon fill="#999999" stroke="#666666" points="247.67,-132 0.11,-132 0.11,-112 247.67,-112 247.67,-132"/>
<text text-anchor="middle" x="123.89" y="-119" font-family="Helvetica,sans-Serif" font-size="10.00">ee205_animal_farm&#45;aar0m/src/Legacy/epicCats.cpp</text>
</a>
</g>
</g>
<!-- Node2 -->
<g id="node2" class="node">
<title>Node2</title>
<g id="a_node2"><a xlink:href="ArrayDB_8h.html" target="_top" xlink:title="Header file for Cat array database.">
<polygon fill="white" stroke="#666666" points="86.01,-76 23.77,-76 23.77,-56 86.01,-56 86.01,-76"/>
<text text-anchor="middle" x="54.89" y="-63" font-family="Helvetica,sans-Serif" font-size="10.00">ArrayDB.h</text>
</a>
</g>
</g>
<!-- Node1&#45;&gt;Node2 -->
<g id="edge1" class="edge">
<title>Node1&#45;&gt;Node2</title>
<path fill="none" stroke="#63b8ff" d="M111.87,-111.59C101.88,-103.77 87.43,-92.46 75.58,-83.19"/>
<polygon fill="#63b8ff" stroke="#63b8ff" points="78,-80.64 67.96,-77.23 73.68,-86.15 78,-80.64"/>
</g>
<!-- Node3 -->
<g id="node3" class="node">
<title>Node3</title>
<g id="a_node3"><a xlink:href="Legacy_2Cat_8h.html" target="_top" xlink:title="Header file for Cat.">
<polygon fill="white" stroke="#666666" points="143.79,-76 103.99,-76 103.99,-56 143.79,-56 143.79,-76"/>
<text text-anchor="middle" x="123.89" y="-63" font-family="Helvetica,sans-Serif" font-size="10.00">Cat.h</text>
</a>
</g>
</g>
<!-- Node1&#45;&gt;Node3 -->
<g id="edge2" class="edge">
<title>Node1&#45;&gt;Node3</title>
<path fill="none" stroke="#63b8ff" d="M123.89,-111.59C123.89,-105.01 123.89,-95.96 123.89,-87.73"/>
<polygon fill="#63b8ff" stroke="#63b8ff" points="127.39,-87.81 123.89,-77.81 120.39,-87.81 127.39,-87.81"/>
</g>
<!-- Node6 -->
<g id="node6" class="node">
<title>Node6</title>
<g id="a_node6"><a xlink:title=" ">
<polygon fill="#e0e0e0" stroke="#999999" points="216.24,-76 161.55,-76 161.55,-56 216.24,-56 216.24,-76"/>
<text text-anchor="middle" x="188.89" y="-63" font-family="Helvetica,sans-Serif" font-size="10.00">iostream</text>
</a>
</g>
</g>
<!-- Node1&#45;&gt;Node6 -->
<g id="edge5" class="edge">
<title>Node1&#45;&gt;Node6</title>
<path fill="none" stroke="#63b8ff" d="M135.21,-111.59C144.53,-103.85 157.97,-92.69 169.07,-83.47"/>
<polygon fill="#63b8ff" stroke="#63b8ff" points="171.08,-86.35 176.53,-77.27 166.61,-80.96 171.08,-86.35"/>
</g>
<!-- Node4 -->
<g id="node4" class="node">
<title>Node4</title>
<g id="a_node4"><a xlink:title=" ">
<polygon fill="#e0e0e0" stroke="#999999" points="115.13,-20 66.65,-20 66.65,0 115.13,0 115.13,-20"/>
<text text-anchor="middle" x="90.89" y="-7" font-family="Helvetica,sans-Serif" font-size="10.00">stdint.h</text>
</a>
</g>
</g>
<!-- Node3&#45;&gt;Node4 -->
<g id="edge3" class="edge">
<title>Node3&#45;&gt;Node4</title>
<path fill="none" stroke="#63b8ff" d="M118.14,-55.59C113.84,-48.55 107.8,-38.67 102.5,-30"/>
<polygon fill="#63b8ff" stroke="#63b8ff" points="105.56,-28.3 97.36,-21.59 99.59,-31.95 105.56,-28.3"/>
</g>
<!-- Node5 -->
<g id="node5" class="node">
<title>Node5</title>
<g id="a_node5"><a xlink:title=" ">
<polygon fill="#e0e0e0" stroke="#999999" points="180.58,-20 133.21,-20 133.21,0 180.58,0 180.58,-20"/>
<text text-anchor="middle" x="156.89" y="-7" font-family="Helvetica,sans-Serif" font-size="10.00">stdlib.h</text>
</a>
</g>
</g>
<!-- Node3&#45;&gt;Node5 -->
<g id="edge4" class="edge">
<title>Node3&#45;&gt;Node5</title>
<path fill="none" stroke="#63b8ff" d="M129.64,-55.59C133.95,-48.55 139.98,-38.67 145.28,-30"/>
<polygon fill="#63b8ff" stroke="#63b8ff" points="148.19,-31.95 150.42,-21.59 142.22,-28.3 148.19,-31.95"/>
</g>
</g>
</svg>
