<?xml version="1.0" encoding="UTF-8" standalone="no"?>
<!DOCTYPE svg PUBLIC "-//W3C//DTD SVG 1.1//EN"
 "http://www.w3.org/Graphics/SVG/1.1/DTD/svg11.dtd">
<!-- Generated by graphviz version 7.0.5 (20221223.1930)
 -->
<!-- Title: ee205_animal_farm&#45;aar0m/src/Utility/Gender.cpp Pages: 1 -->
<svg width="255pt" height="196pt"
 viewBox="0.00 0.00 254.72 196.00" xmlns="http://www.w3.org/2000/svg" xmlns:xlink="http://www.w3.org/1999/xlink">
<g id="graph0" class="graph" transform="scale(1 1) rotate(0) translate(4 192)">
<title>ee205_animal_farm&#45;aar0m/src/Utility/Gender.cpp</title>
<!-- Node1 -->
<g id="node1" class="node">
<title>Node1</title>
<g id="a_node1"><a xlink:title="Methods to generate and validate Genders.">
<polygon fill="#999999" stroke="#666666" points="246.94,-188 12.08,-188 12.08,-168 246.94,-168 246.94,-188"/>
<text text-anchor="middle" x="129.51" y="-175" font-family="Helvetica,sans-Serif" font-size="10.00">ee205_animal_farm&#45;aar0m/src/Utility/Gender.cpp</text>
</a>
</g>
</g>
<!-- Node2 -->
<g id="node2" class="node">
<title>Node2</title>
<g id="a_node2"><a xlink:href="Gender_8h.html" target="_top" xlink:title="Gender class to be used for Mammals.">
<polygon fill="white" stroke="#666666" points="158.2,-132 100.81,-132 100.81,-112 158.2,-112 158.2,-132"/>
<text text-anchor="middle" x="129.51" y="-119" font-family="Helvetica,sans-Serif" font-size="10.00">Gender.h</text>
</a>
</g>
</g>
<!-- Node1&#45;&gt;Node2 -->
<g id="edge1" class="edge">
<title>Node1&#45;&gt;Node2</title>
<path fill="none" stroke="#63b8ff" d="M129.51,-167.59C129.51,-161.01 129.51,-151.96 129.51,-143.73"/>
<polygon fill="#63b8ff" stroke="#63b8ff" points="133.01,-143.81 129.51,-133.81 126.01,-143.81 133.01,-143.81"/>
</g>
<!-- Node3 -->
<g id="node3" class="node">
<title>Node3</title>
<g id="a_node3"><a xlink:href="config_8h.html" target="_top" xlink:title="Header file for Animal Farm configuration.">
<polygon fill="white" stroke="#666666" points="89.37,-76 29.65,-76 29.65,-56 89.37,-56 89.37,-76"/>
<text text-anchor="middle" x="59.51" y="-63" font-family="Helvetica,sans-Serif" font-size="10.00">../config.h</text>
</a>
</g>
</g>
<!-- Node2&#45;&gt;Node3 -->
<g id="edge2" class="edge">
<title>Node2&#45;&gt;Node3</title>
<path fill="none" stroke="#63b8ff" d="M117.32,-111.59C107.18,-103.77 92.52,-92.46 80.5,-83.19"/>
<polygon fill="#63b8ff" stroke="#63b8ff" points="82.82,-80.56 72.76,-77.22 78.54,-86.1 82.82,-80.56"/>
</g>
<!-- Node6 -->
<g id="node6" class="node">
<title>Node6</title>
<g id="a_node6"><a xlink:title=" ">
<polygon fill="#e0e0e0" stroke="#999999" points="151.86,-76 107.16,-76 107.16,-56 151.86,-56 151.86,-76"/>
<text text-anchor="middle" x="129.51" y="-63" font-family="Helvetica,sans-Serif" font-size="10.00">cstdlib</text>
</a>
</g>
</g>
<!-- Node2&#45;&gt;Node6 -->
<g id="edge5" class="edge">
<title>Node2&#45;&gt;Node6</title>
<path fill="none" stroke="#63b8ff" d="M129.51,-111.59C129.51,-105.01 129.51,-95.96 129.51,-87.73"/>
<polygon fill="#63b8ff" stroke="#63b8ff" points="133.01,-87.81 129.51,-77.81 126.01,-87.81 133.01,-87.81"/>
</g>
<!-- Node7 -->
<g id="node7" class="node">
<title>Node7</title>
<g id="a_node7"><a xlink:title=" ">
<polygon fill="#e0e0e0" stroke="#999999" points="228.81,-76 170.21,-76 170.21,-56 228.81,-56 228.81,-76"/>
<text text-anchor="middle" x="199.51" y="-63" font-family="Helvetica,sans-Serif" font-size="10.00">stdexcept</text>
</a>
</g>
</g>
<!-- Node2&#45;&gt;Node7 -->
<g id="edge6" class="edge">
<title>Node2&#45;&gt;Node7</title>
<path fill="none" stroke="#63b8ff" d="M141.7,-111.59C151.84,-103.77 166.5,-92.46 178.52,-83.19"/>
<polygon fill="#63b8ff" stroke="#63b8ff" points="180.48,-86.1 186.26,-77.22 176.2,-80.56 180.48,-86.1"/>
</g>
<!-- Node4 -->
<g id="node4" class="node">
<title>Node4</title>
<g id="a_node4"><a xlink:title=" ">
<polygon fill="#e0e0e0" stroke="#999999" points="51.03,-20 -0.01,-20 -0.01,0 51.03,0 51.03,-20"/>
<text text-anchor="middle" x="25.51" y="-7" font-family="Helvetica,sans-Serif" font-size="10.00">iomanip</text>
</a>
</g>
</g>
<!-- Node3&#45;&gt;Node4 -->
<g id="edge3" class="edge">
<title>Node3&#45;&gt;Node4</title>
<path fill="none" stroke="#63b8ff" d="M53.59,-55.59C49.15,-48.55 42.93,-38.67 37.47,-30"/>
<polygon fill="#63b8ff" stroke="#63b8ff" points="40.46,-28.18 32.17,-21.58 34.54,-31.91 40.46,-28.18"/>
</g>
<!-- Node5 -->
<g id="node5" class="node">
<title>Node5</title>
<g id="a_node5"><a xlink:title=" ">
<polygon fill="#e0e0e0" stroke="#999999" points="118.42,-20 68.6,-20 68.6,0 118.42,0 118.42,-20"/>
<text text-anchor="middle" x="93.51" y="-7" font-family="Helvetica,sans-Serif" font-size="10.00">random</text>
</a>
</g>
</g>
<!-- Node3&#45;&gt;Node5 -->
<g id="edge4" class="edge">
<title>Node3&#45;&gt;Node5</title>
<path fill="none" stroke="#63b8ff" d="M65.43,-55.59C69.87,-48.55 76.09,-38.67 81.55,-30"/>
<polygon fill="#63b8ff" stroke="#63b8ff" points="84.48,-31.91 86.85,-21.58 78.56,-28.18 84.48,-31.91"/>
</g>
</g>
</svg>
