<?xml version="1.0" encoding="UTF-8" standalone="no"?>
<!DOCTYPE svg PUBLIC "-//W3C//DTD SVG 1.1//EN"
 "http://www.w3.org/Graphics/SVG/1.1/DTD/svg11.dtd">
<!-- Generated by graphviz version 7.0.5 (20221223.1930)
 -->
<!-- Title: ee205_animal_farm&#45;aar0m/src/Utility/Gender.h Pages: 1 -->
<svg width="1092pt" height="196pt"
 viewBox="0.00 0.00 1092.06 196.00" xmlns="http://www.w3.org/2000/svg" xmlns:xlink="http://www.w3.org/1999/xlink">
<g id="graph0" class="graph" transform="scale(1 1) rotate(0) translate(4 192)">
<title>ee205_animal_farm&#45;aar0m/src/Utility/Gender.h</title>
<!-- Node1 -->
<g id="node1" class="node">
<title>Node1</title>
<g id="a_node1"><a xlink:title="Gender class to be used for Mammals.">
<polygon fill="#999999" stroke="#666666" points="933.27,-188 709.54,-188 709.54,-168 933.27,-168 933.27,-188"/>
<text text-anchor="middle" x="821.41" y="-175" font-family="Helvetica,sans-Serif" font-size="10.00">ee205_animal_farm&#45;aar0m/src/Utility/Gender.h</text>
</a>
</g>
</g>
<!-- Node2 -->
<g id="node2" class="node">
<title>Node2</title>
<g id="a_node2"><a xlink:href="Mammal_8h.html" target="_top" xlink:title="Mammals? More like &quot;ma pals!&quot;.">
<polygon fill="white" stroke="#666666" points="814.65,-132 572.17,-132 572.17,-112 814.65,-112 814.65,-132"/>
<text text-anchor="middle" x="693.41" y="-119" font-family="Helvetica,sans-Serif" font-size="10.00">ee205_animal_farm&#45;aar0m/src/Mammal/Mammal.h</text>
</a>
</g>
</g>
<!-- Node1&#45;&gt;Node2 -->
<g id="edge1" class="edge">
<title>Node1&#45;&gt;Node2</title>
<path fill="none" stroke="#63b8ff" d="M788.56,-163.14C765.76,-153.52 736,-140.97 715.88,-132.48"/>
<polygon fill="#63b8ff" stroke="#63b8ff" points="787.14,-166.34 797.72,-167.01 789.86,-159.89 787.14,-166.34"/>
</g>
<!-- Node10 -->
<g id="node10" class="node">
<title>Node10</title>
<g id="a_node10"><a xlink:href="Gender_8cpp.html" target="_top" xlink:title="Methods to generate and validate Genders.">
<polygon fill="white" stroke="#666666" points="1067.84,-132 832.98,-132 832.98,-112 1067.84,-112 1067.84,-132"/>
<text text-anchor="middle" x="950.41" y="-119" font-family="Helvetica,sans-Serif" font-size="10.00">ee205_animal_farm&#45;aar0m/src/Utility/Gender.cpp</text>
</a>
</g>
</g>
<!-- Node1&#45;&gt;Node10 -->
<g id="edge10" class="edge">
<title>Node1&#45;&gt;Node10</title>
<path fill="none" stroke="#63b8ff" d="M854.2,-163.27C877.21,-153.64 907.39,-141.01 927.76,-132.48"/>
<polygon fill="#63b8ff" stroke="#63b8ff" points="853.15,-159.92 845.27,-167.01 855.85,-166.38 853.15,-159.92"/>
</g>
<!-- Node3 -->
<g id="node3" class="node">
<title>Node3</title>
<g id="a_node3"><a xlink:href="SingleLinkedList_8h.html" target="_top" xlink:title="Singly Linked List (SLL) class to store Nodes.">
<polygon fill="white" stroke="#666666" points="556.66,-76 274.15,-76 274.15,-56 556.66,-56 556.66,-76"/>
<text text-anchor="middle" x="415.41" y="-63" font-family="Helvetica,sans-Serif" font-size="10.00">ee205_animal_farm&#45;aar0m/src/Container/SingleLinkedList.h</text>
</a>
</g>
</g>
<!-- Node2&#45;&gt;Node3 -->
<g id="edge2" class="edge">
<title>Node2&#45;&gt;Node3</title>
<path fill="none" stroke="#63b8ff" d="M633.56,-109.37C582.92,-99.54 511.27,-85.62 464.09,-76.46"/>
<polygon fill="#63b8ff" stroke="#63b8ff" points="632.7,-112.77 643.18,-111.24 634.03,-105.9 632.7,-112.77"/>
</g>
<!-- Node6 -->
<g id="node6" class="node">
<title>Node6</title>
<g id="a_node6"><a xlink:href="Mammal_2Cat_2Cat_8h.html" target="_top" xlink:title="Meow meow meow? Meow meow meow meow meow meow!">
<polygon fill="white" stroke="#666666" points="812.71,-76 574.1,-76 574.1,-56 812.71,-56 812.71,-76"/>
<text text-anchor="middle" x="693.41" y="-63" font-family="Helvetica,sans-Serif" font-size="10.00">ee205_animal_farm&#45;aar0m/src/Mammal/Cat/Cat.h</text>
</a>
</g>
</g>
<!-- Node2&#45;&gt;Node6 -->
<g id="edge5" class="edge">
<title>Node2&#45;&gt;Node6</title>
<path fill="none" stroke="#63b8ff" d="M693.41,-100.13C693.41,-91.9 693.41,-82.85 693.41,-76.3"/>
<polygon fill="#63b8ff" stroke="#63b8ff" points="689.91,-100.08 693.41,-110.08 696.91,-100.08 689.91,-100.08"/>
</g>
<!-- Node9 -->
<g id="node9" class="node">
<title>Node9</title>
<g id="a_node9"><a xlink:href="Mammal_8cpp.html" target="_top" xlink:title="Mammals? More like &quot;ma pals!&quot;.">
<polygon fill="white" stroke="#666666" points="1084.21,-76 830.61,-76 830.61,-56 1084.21,-56 1084.21,-76"/>
<text text-anchor="middle" x="957.41" y="-63" font-family="Helvetica,sans-Serif" font-size="10.00">ee205_animal_farm&#45;aar0m/src/Mammal/Mammal.cpp</text>
</a>
</g>
</g>
<!-- Node2&#45;&gt;Node9 -->
<g id="edge9" class="edge">
<title>Node2&#45;&gt;Node9</title>
<path fill="none" stroke="#63b8ff" d="M750.85,-109.25C798.9,-99.42 866.56,-85.58 911.17,-76.46"/>
<polygon fill="#63b8ff" stroke="#63b8ff" points="750.27,-105.8 741.18,-111.23 751.68,-112.65 750.27,-105.8"/>
</g>
<!-- Node4 -->
<g id="node4" class="node">
<title>Node4</title>
<g id="a_node4"><a xlink:href="SingleLinkedList_8cpp.html" target="_top" xlink:title="Singly Linked List (SLL) class to store Nodes.">
<polygon fill="white" stroke="#666666" points="292.72,-20 0.09,-20 0.09,0 292.72,0 292.72,-20"/>
<text text-anchor="middle" x="146.41" y="-7" font-family="Helvetica,sans-Serif" font-size="10.00">ee205_animal_farm&#45;aar0m/src/Container/SingleLinkedList.cpp</text>
</a>
</g>
</g>
<!-- Node3&#45;&gt;Node4 -->
<g id="edge3" class="edge">
<title>Node3&#45;&gt;Node4</title>
<path fill="none" stroke="#63b8ff" d="M357.19,-53.31C308.21,-43.48 239.07,-29.6 193.52,-20.46"/>
<polygon fill="#63b8ff" stroke="#63b8ff" points="356.27,-56.7 366.76,-55.23 357.64,-49.83 356.27,-56.7"/>
</g>
<!-- Node5 -->
<g id="node5" class="node">
<title>Node5</title>
<g id="a_node5"><a xlink:href="main__catEmpire_8cpp_source.html" target="_top" xlink:title=" ">
<polygon fill="white" stroke="#666666" points="556.51,-20 310.31,-20 310.31,0 556.51,0 556.51,-20"/>
<text text-anchor="middle" x="433.41" y="-7" font-family="Helvetica,sans-Serif" font-size="10.00">ee205_animal_farm&#45;aar0m/src/main_catEmpire.cpp</text>
</a>
</g>
</g>
<!-- Node3&#45;&gt;Node5 -->
<g id="edge4" class="edge">
<title>Node3&#45;&gt;Node5</title>
<path fill="none" stroke="#63b8ff" d="M422.17,-44.71C424.97,-36.32 428.07,-27.01 430.31,-20.3"/>
<polygon fill="#63b8ff" stroke="#63b8ff" points="418.86,-43.56 419.02,-54.16 425.5,-45.78 418.86,-43.56"/>
</g>
<!-- Node6&#45;&gt;Node5 -->
<g id="edge8" class="edge">
<title>Node6&#45;&gt;Node5</title>
<path fill="none" stroke="#63b8ff" d="M636.84,-53.25C589.51,-43.42 522.88,-29.58 478.94,-20.46"/>
<polygon fill="#63b8ff" stroke="#63b8ff" points="635.84,-56.62 646.34,-55.22 637.26,-49.76 635.84,-56.62"/>
</g>
<!-- Node7 -->
<g id="node7" class="node">
<title>Node7</title>
<g id="a_node7"><a xlink:href="Animal_8cpp.html" target="_top" xlink:title="Are there any malls for animals?">
<polygon fill="white" stroke="#666666" points="812.17,-20 574.65,-20 574.65,0 812.17,0 812.17,-20"/>
<text text-anchor="middle" x="693.41" y="-7" font-family="Helvetica,sans-Serif" font-size="10.00">ee205_animal_farm&#45;aar0m/src/Animal/Animal.cpp</text>
</a>
</g>
</g>
<!-- Node6&#45;&gt;Node7 -->
<g id="edge6" class="edge">
<title>Node6&#45;&gt;Node7</title>
<path fill="none" stroke="#63b8ff" d="M693.41,-44.13C693.41,-35.9 693.41,-26.85 693.41,-20.3"/>
<polygon fill="#63b8ff" stroke="#63b8ff" points="689.91,-44.08 693.41,-54.08 696.91,-44.08 689.91,-44.08"/>
</g>
<!-- Node8 -->
<g id="node8" class="node">
<title>Node8</title>
<g id="a_node8"><a xlink:href="Mammal_2Cat_2Cat_8cpp.html" target="_top" xlink:title="Meow meow meow? Meow meow meow meow meow meow!">
<polygon fill="white" stroke="#666666" points="1078.77,-20 830.04,-20 830.04,0 1078.77,0 1078.77,-20"/>
<text text-anchor="middle" x="954.41" y="-7" font-family="Helvetica,sans-Serif" font-size="10.00">ee205_animal_farm&#45;aar0m/src/Mammal/Cat/Cat.cpp</text>
</a>
</g>
</g>
<!-- Node6&#45;&gt;Node8 -->
<g id="edge7" class="edge">
<title>Node6&#45;&gt;Node8</title>
<path fill="none" stroke="#63b8ff" d="M750.2,-53.25C797.7,-43.42 864.59,-29.58 908.7,-20.46"/>
<polygon fill="#63b8ff" stroke="#63b8ff" points="749.74,-49.77 740.65,-55.23 751.15,-56.63 749.74,-49.77"/>
</g>
</g>
</svg>
