<?xml version="1.0" encoding="UTF-8" standalone="no"?>
<!DOCTYPE svg PUBLIC "-//W3C//DTD SVG 1.1//EN"
 "http://www.w3.org/Graphics/SVG/1.1/DTD/svg11.dtd">
<!-- Generated by graphviz version 7.0.5 (20221223.1930)
 -->
<!-- Title: validateGender Pages: 1 -->
<svg width="418pt" height="28pt"
 viewBox="0.00 0.00 418.45 28.00" xmlns="http://www.w3.org/2000/svg" xmlns:xlink="http://www.w3.org/1999/xlink">
<g id="graph0" class="graph" transform="scale(1 1) rotate(0) translate(4 24)">
<title>validateGender</title>
<!-- Node1 -->
<g id="node1" class="node">
<title>Node1</title>
<g id="a_node1"><a xlink:title="Validates a Gender class given via input.">
<polygon fill="#999999" stroke="#666666" points="410.36,-20 326.71,-20 326.71,0 410.36,0 410.36,-20"/>
<text text-anchor="middle" x="368.54" y="-7" font-family="Helvetica,sans-Serif" font-size="10.00">validateGender</text>
</a>
</g>
</g>
<!-- Node2 -->
<g id="node2" class="node">
<title>Node2</title>
<g id="a_node2"><a xlink:href="classMammal.html#a11ad9c1757cac1c6fff7ad1ce384e2c7" target="_top" xlink:title="Validates Animal based on specified ruleset.">
<polygon fill="white" stroke="#666666" points="290.81,-20 196.09,-20 196.09,0 290.81,0 290.81,-20"/>
<text text-anchor="middle" x="243.45" y="-7" font-family="Helvetica,sans-Serif" font-size="10.00">Mammal::validate</text>
</a>
</g>
</g>
<!-- Node1&#45;&gt;Node2 -->
<g id="edge1" class="edge">
<title>Node1&#45;&gt;Node2</title>
<path fill="none" stroke="#63b8ff" d="M315.12,-10C307.18,-10 299.02,-10 291.21,-10"/>
<polygon fill="#63b8ff" stroke="#63b8ff" points="315.04,-13.5 325.04,-10 315.04,-6.5 315.04,-13.5"/>
</g>
<!-- Node3 -->
<g id="node3" class="node">
<title>Node3</title>
<g id="a_node3"><a xlink:href="classCat.html#a0680012e4e432f9a1b128a82948a4798" target="_top" xlink:title="Validates Cat based on specified ruleset.">
<polygon fill="white" stroke="#666666" points="160.06,-20 88.89,-20 88.89,0 160.06,0 160.06,-20"/>
<text text-anchor="middle" x="124.47" y="-7" font-family="Helvetica,sans-Serif" font-size="10.00">Cat::validate</text>
</a>
</g>
</g>
<!-- Node2&#45;&gt;Node3 -->
<g id="edge2" class="edge">
<title>Node2&#45;&gt;Node3</title>
<path fill="none" stroke="#63b8ff" d="M184.63,-10C176.33,-10 168.01,-10 160.34,-10"/>
<polygon fill="#63b8ff" stroke="#63b8ff" points="184.37,-13.5 194.36,-10 184.36,-6.5 184.37,-13.5"/>
</g>
<!-- Node4 -->
<g id="node4" class="node">
<title>Node4</title>
<g id="a_node4"><a xlink:href="classCat.html#a84a4c2dd95aeafdee0c49ccde0ad5cb6" target="_top" xlink:title="Generates a Cat with an unknown &#39;color&#39;, Gender, random &#39;weight&#39;, and specified &#39;newName&#39;.">
<polygon fill="white" stroke="#666666" points="52.52,-20 0.16,-20 0.16,0 52.52,0 52.52,-20"/>
<text text-anchor="middle" x="26.34" y="-7" font-family="Helvetica,sans-Serif" font-size="10.00">Cat::Cat</text>
</a>
</g>
</g>
<!-- Node3&#45;&gt;Node4 -->
<g id="edge3" class="edge">
<title>Node3&#45;&gt;Node4</title>
<path fill="none" stroke="#63b8ff" d="M77.18,-10C68.79,-10 60.32,-10 52.8,-10"/>
<polygon fill="#63b8ff" stroke="#63b8ff" points="76.98,-13.5 86.98,-10 76.98,-6.5 76.98,-13.5"/>
</g>
</g>
</svg>
