<?xml version="1.0" encoding="UTF-8" standalone="no"?>
<!DOCTYPE svg PUBLIC "-//W3C//DTD SVG 1.1//EN"
 "http://www.w3.org/Graphics/SVG/1.1/DTD/svg11.dtd">
<!-- Generated by graphviz version 7.0.5 (20221223.1930)
 -->
<!-- Title: Graphical Class Hierarchy Pages: 1 -->
<svg width="221pt" height="28pt"
 viewBox="0.00 0.00 220.81 28.00" xmlns="http://www.w3.org/2000/svg" xmlns:xlink="http://www.w3.org/1999/xlink">
<g id="graph0" class="graph" transform="scale(1 1) rotate(0) translate(4 24)">
<title>Graphical Class Hierarchy</title>
<!-- Node0 -->
<g id="node1" class="node">
<title>Node0</title>
<g id="a_node1"><a xlink:href="classNode.html" target="_top" xlink:title="Do no new nodes know known nodes!?">
<polygon fill="white" stroke="#666666" points="39.86,-20 0.05,-20 0.05,0 39.86,0 39.86,-20"/>
<text text-anchor="middle" x="19.95" y="-7" font-family="Helvetica,sans-Serif" font-size="10.00">Node</text>
</a>
</g>
</g>
<!-- Node1 -->
<g id="node2" class="node">
<title>Node1</title>
<g id="a_node2"><a xlink:href="classAnimal.html" target="_top" xlink:title="Are there any malls for animals?">
<polygon fill="white" stroke="#666666" points="122.26,-20 76.12,-20 76.12,0 122.26,0 122.26,-20"/>
<text text-anchor="middle" x="99.19" y="-7" font-family="Helvetica,sans-Serif" font-size="10.00">Animal</text>
</a>
</g>
</g>
<!-- Node0&#45;&gt;Node1 -->
<g id="edge1" class="edge">
<title>Node0&#45;&gt;Node1</title>
<path fill="none" stroke="#63b8ff" d="M51.4,-10C59.52,-10 68.15,-10 75.75,-10"/>
<polygon fill="#63b8ff" stroke="#63b8ff" points="51.56,-6.5 41.56,-10 51.56,-13.5 51.56,-6.5"/>
</g>
<!-- Node2 -->
<g id="node3" class="node">
<title>Node2</title>
<g id="a_node3"><a xlink:href="classMammal.html" target="_top" xlink:title="Mammals? More like &quot;ma pals!&quot;.">
<polygon fill="white" stroke="#666666" points="212.98,-20 158.3,-20 158.3,0 212.98,0 212.98,-20"/>
<text text-anchor="middle" x="185.64" y="-7" font-family="Helvetica,sans-Serif" font-size="10.00">Mammal</text>
</a>
</g>
</g>
<!-- Node1&#45;&gt;Node2 -->
<g id="edge2" class="edge">
<title>Node1&#45;&gt;Node2</title>
<path fill="none" stroke="#63b8ff" d="M133.76,-10C141.85,-10 150.38,-10 158.09,-10"/>
<polygon fill="#63b8ff" stroke="#63b8ff" points="133.89,-6.5 123.89,-10 133.89,-13.5 133.89,-6.5"/>
</g>
</g>
</svg>
