<?xml version="1.0" encoding="UTF-8" standalone="no"?>
<!DOCTYPE svg PUBLIC "-//W3C//DTD SVG 1.1//EN"
 "http://www.w3.org/Graphics/SVG/1.1/DTD/svg11.dtd">
<!-- Generated by graphviz version 7.0.5 (20221223.1930)
 -->
<!-- Title: validateCat Pages: 1 -->
<svg width="264pt" height="142pt"
 viewBox="0.00 0.00 263.62 142.00" xmlns="http://www.w3.org/2000/svg" xmlns:xlink="http://www.w3.org/1999/xlink">
<g id="graph0" class="graph" transform="scale(1 1) rotate(0) translate(4 138)">
<title>validateCat</title>
<!-- Node1 -->
<g id="node1" class="node">
<title>Node1</title>
<g id="a_node1"><a xlink:title="Validate Cat based on member information.">
<polygon fill="#999999" stroke="#666666" points="255.64,-77 189.58,-77 189.58,-57 255.64,-57 255.64,-77"/>
<text text-anchor="middle" x="222.61" y="-64" font-family="Helvetica,sans-Serif" font-size="10.00">validateCat</text>
</a>
</g>
</g>
<!-- Node2 -->
<g id="node2" class="node">
<title>Node2</title>
<g id="a_node2"><a xlink:href="ArrayDB_8cpp.html#af818deeeeb8f57be5bd7a4a6d95b5a34" target="_top" xlink:title="If newCat is valid, return true">
<polygon fill="white" stroke="#666666" points="138.49,-134 88.78,-134 88.78,-114 138.49,-114 138.49,-134"/>
<text text-anchor="middle" x="113.64" y="-121" font-family="Helvetica,sans-Serif" font-size="10.00">AddCat</text>
</a>
</g>
</g>
<!-- Node1&#45;&gt;Node2 -->
<g id="edge1" class="edge">
<title>Node1&#45;&gt;Node2</title>
<path fill="none" stroke="#63b8ff" d="M193.91,-82.94C181.64,-89.87 166.99,-98 153.6,-105 148.13,-107.86 142.16,-110.84 136.58,-113.56"/>
<polygon fill="#63b8ff" stroke="#63b8ff" points="195.3,-86.17 202.26,-78.19 191.84,-80.09 195.3,-86.17"/>
</g>
<!-- Node4 -->
<g id="node4" class="node">
<title>Node4</title>
<g id="a_node4"><a xlink:href="Legacy_2Cat_8cpp.html#a495595bb258b9cd1419d36e4e712fb14" target="_top" xlink:title="Generate a valid, random cat.">
<polygon fill="white" stroke="#666666" points="149.17,-96 78.1,-96 78.1,-76 149.17,-76 149.17,-96"/>
<text text-anchor="middle" x="113.64" y="-83" font-family="Helvetica,sans-Serif" font-size="10.00">generateCat</text>
</a>
</g>
</g>
<!-- Node1&#45;&gt;Node4 -->
<g id="edge3" class="edge">
<title>Node1&#45;&gt;Node4</title>
<path fill="none" stroke="#63b8ff" d="M177.97,-74.75C168.5,-76.43 158.6,-78.19 149.52,-79.8"/>
<polygon fill="#63b8ff" stroke="#63b8ff" points="178.5,-78.21 187.73,-73.02 177.28,-71.32 178.5,-78.21"/>
</g>
<!-- Node5 -->
<g id="node5" class="node">
<title>Node5</title>
<g id="a_node5"><a xlink:href="Legacy_2Cat_8cpp.html#abc4f74521f9a187a3e6ebc017eecb48d" target="_top" xlink:title="Prints Cat structure.">
<polygon fill="white" stroke="#666666" points="139.15,-58 88.12,-58 88.12,-38 139.15,-38 139.15,-58"/>
<text text-anchor="middle" x="113.64" y="-45" font-family="Helvetica,sans-Serif" font-size="10.00">printCat</text>
</a>
</g>
</g>
<!-- Node1&#45;&gt;Node5 -->
<g id="edge5" class="edge">
<title>Node1&#45;&gt;Node5</title>
<path fill="none" stroke="#63b8ff" d="M177.98,-59.25C164.85,-56.92 150.89,-54.44 139.44,-52.4"/>
<polygon fill="#63b8ff" stroke="#63b8ff" points="177.28,-62.68 187.73,-60.98 178.5,-55.79 177.28,-62.68"/>
</g>
<!-- Node6 -->
<g id="node6" class="node">
<title>Node6</title>
<g id="a_node6"><a xlink:href="ArrayDB_8cpp.html#a3cc5529977915144909a162715ba1274" target="_top" xlink:title="Validate the Cat database based on preexisting checks.">
<polygon fill="white" stroke="#666666" points="153.56,-20 73.71,-20 73.71,0 153.56,0 153.56,-20"/>
<text text-anchor="middle" x="113.64" y="-7" font-family="Helvetica,sans-Serif" font-size="10.00">validateCatDB</text>
</a>
</g>
</g>
<!-- Node1&#45;&gt;Node6 -->
<g id="edge7" class="edge">
<title>Node1&#45;&gt;Node6</title>
<path fill="none" stroke="#63b8ff" d="M193.91,-51.06C181.64,-44.13 166.99,-36 153.6,-29 148.13,-26.14 142.16,-23.16 136.58,-20.44"/>
<polygon fill="#63b8ff" stroke="#63b8ff" points="191.84,-53.91 202.26,-55.81 195.3,-47.83 191.84,-53.91"/>
</g>
<!-- Node3 -->
<g id="node3" class="node">
<title>Node3</title>
<g id="a_node3"><a xlink:href="epicCats_8cpp.html#ae66f6b31b5ad750f1fe042a706a4e3d4" target="_top" xlink:title="Program for generating a Cat database.">
<polygon fill="white" stroke="#666666" points="37.51,-96 0.16,-96 0.16,-76 37.51,-76 37.51,-96"/>
<text text-anchor="middle" x="18.84" y="-83" font-family="Helvetica,sans-Serif" font-size="10.00">main</text>
</a>
</g>
</g>
<!-- Node2&#45;&gt;Node3 -->
<g id="edge2" class="edge">
<title>Node2&#45;&gt;Node3</title>
<path fill="none" stroke="#63b8ff" d="M78.16,-109.88C64.44,-104.27 49.24,-98.04 37.79,-93.35"/>
<polygon fill="#63b8ff" stroke="#63b8ff" points="76.76,-113.09 87.34,-113.64 79.41,-106.61 76.76,-113.09"/>
</g>
<!-- Node4&#45;&gt;Node3 -->
<g id="edge4" class="edge">
<title>Node4&#45;&gt;Node3</title>
<path fill="none" stroke="#63b8ff" d="M66.47,-86C56.31,-86 46.15,-86 37.91,-86"/>
<polygon fill="#63b8ff" stroke="#63b8ff" points="66.3,-89.5 76.3,-86 66.3,-82.5 66.3,-89.5"/>
</g>
<!-- Node5&#45;&gt;Node3 -->
<g id="edge6" class="edge">
<title>Node5&#45;&gt;Node3</title>
<path fill="none" stroke="#63b8ff" d="M77.38,-62.44C63.95,-67.94 49.21,-73.97 38,-78.56"/>
<polygon fill="#63b8ff" stroke="#63b8ff" points="78.44,-65.79 86.37,-58.76 75.79,-59.31 78.44,-65.79"/>
</g>
</g>
</svg>
