<?xml version="1.0" encoding="UTF-8" standalone="no"?>
<!DOCTYPE svg PUBLIC "-//W3C//DTD SVG 1.1//EN"
 "http://www.w3.org/Graphics/SVG/1.1/DTD/svg11.dtd">
<!-- Generated by graphviz version 7.0.5 (20221223.1930)
 -->
<!-- Title: ee205_animal_farm&#45;aar0m/src/Legacy/Cat.cpp Pages: 1 -->
<svg width="352pt" height="140pt"
 viewBox="0.00 0.00 352.29 140.00" xmlns="http://www.w3.org/2000/svg" xmlns:xlink="http://www.w3.org/1999/xlink">
<g id="graph0" class="graph" transform="scale(1 1) rotate(0) translate(4 136)">
<title>ee205_animal_farm&#45;aar0m/src/Legacy/Cat.cpp</title>
<!-- Node1 -->
<g id="node1" class="node">
<title>Node1</title>
<g id="a_node1"><a xlink:title="Functions for validating, generating, and printing structures for Cats.">
<polygon fill="#999999" stroke="#666666" points="292.56,-132 67.68,-132 67.68,-112 292.56,-112 292.56,-132"/>
<text text-anchor="middle" x="180.12" y="-119" font-family="Helvetica,sans-Serif" font-size="10.00">ee205_animal_farm&#45;aar0m/src/Legacy/Cat.cpp</text>
</a>
</g>
</g>
<!-- Node2 -->
<g id="node2" class="node">
<title>Node2</title>
<g id="a_node2"><a xlink:href="Legacy_2Cat_8h.html" target="_top" xlink:title="Header file for Cat.">
<polygon fill="white" stroke="#666666" points="77.02,-76 37.22,-76 37.22,-56 77.02,-56 77.02,-76"/>
<text text-anchor="middle" x="57.12" y="-63" font-family="Helvetica,sans-Serif" font-size="10.00">Cat.h</text>
</a>
</g>
</g>
<!-- Node1&#45;&gt;Node2 -->
<g id="edge1" class="edge">
<title>Node1&#45;&gt;Node2</title>
<path fill="none" stroke="#63b8ff" d="M158.7,-111.59C139.15,-103.01 110.03,-90.23 87.98,-80.55"/>
<polygon fill="#63b8ff" stroke="#63b8ff" points="89.43,-77.36 78.87,-76.55 86.62,-83.77 89.43,-77.36"/>
</g>
<!-- Node5 -->
<g id="node5" class="node">
<title>Node5</title>
<g id="a_node5"><a xlink:title=" ">
<polygon fill="#e0e0e0" stroke="#999999" points="139.47,-76 94.77,-76 94.77,-56 139.47,-56 139.47,-76"/>
<text text-anchor="middle" x="117.12" y="-63" font-family="Helvetica,sans-Serif" font-size="10.00">cstdlib</text>
</a>
</g>
</g>
<!-- Node1&#45;&gt;Node5 -->
<g id="edge4" class="edge">
<title>Node1&#45;&gt;Node5</title>
<path fill="none" stroke="#63b8ff" d="M169.15,-111.59C160.2,-103.93 147.35,-92.91 136.66,-83.75"/>
<polygon fill="#63b8ff" stroke="#63b8ff" points="138.99,-81.13 129.12,-77.28 134.43,-86.45 138.99,-81.13"/>
</g>
<!-- Node6 -->
<g id="node6" class="node">
<title>Node6</title>
<g id="a_node6"><a xlink:title=" ">
<polygon fill="#e0e0e0" stroke="#999999" points="203.08,-76 157.17,-76 157.17,-56 203.08,-56 203.08,-76"/>
<text text-anchor="middle" x="180.12" y="-63" font-family="Helvetica,sans-Serif" font-size="10.00">cstring</text>
</a>
</g>
</g>
<!-- Node1&#45;&gt;Node6 -->
<g id="edge5" class="edge">
<title>Node1&#45;&gt;Node6</title>
<path fill="none" stroke="#63b8ff" d="M180.12,-111.59C180.12,-105.01 180.12,-95.96 180.12,-87.73"/>
<polygon fill="#63b8ff" stroke="#63b8ff" points="183.62,-87.81 180.12,-77.81 176.62,-87.81 183.62,-87.81"/>
</g>
<!-- Node7 -->
<g id="node7" class="node">
<title>Node7</title>
<g id="a_node7"><a xlink:title=" ">
<polygon fill="#e0e0e0" stroke="#999999" points="271.64,-76 220.6,-76 220.6,-56 271.64,-56 271.64,-76"/>
<text text-anchor="middle" x="246.12" y="-63" font-family="Helvetica,sans-Serif" font-size="10.00">iomanip</text>
</a>
</g>
</g>
<!-- Node1&#45;&gt;Node7 -->
<g id="edge6" class="edge">
<title>Node1&#45;&gt;Node7</title>
<path fill="none" stroke="#63b8ff" d="M191.62,-111.59C201.08,-103.85 214.72,-92.69 225.99,-83.47"/>
<polygon fill="#63b8ff" stroke="#63b8ff" points="228.06,-86.3 233.58,-77.26 223.63,-80.88 228.06,-86.3"/>
</g>
<!-- Node8 -->
<g id="node8" class="node">
<title>Node8</title>
<g id="a_node8"><a xlink:title=" ">
<polygon fill="#e0e0e0" stroke="#999999" points="344.47,-76 289.77,-76 289.77,-56 344.47,-56 344.47,-76"/>
<text text-anchor="middle" x="317.12" y="-63" font-family="Helvetica,sans-Serif" font-size="10.00">iostream</text>
</a>
</g>
</g>
<!-- Node1&#45;&gt;Node8 -->
<g id="edge7" class="edge">
<title>Node1&#45;&gt;Node8</title>
<path fill="none" stroke="#63b8ff" d="M203.98,-111.59C225.66,-103.05 257.89,-90.35 282.41,-80.68"/>
<polygon fill="#63b8ff" stroke="#63b8ff" points="283.64,-83.96 291.66,-77.03 281.08,-77.45 283.64,-83.96"/>
</g>
<!-- Node3 -->
<g id="node3" class="node">
<title>Node3</title>
<g id="a_node3"><a xlink:title=" ">
<polygon fill="#e0e0e0" stroke="#999999" points="48.36,-20 -0.12,-20 -0.12,0 48.36,0 48.36,-20"/>
<text text-anchor="middle" x="24.12" y="-7" font-family="Helvetica,sans-Serif" font-size="10.00">stdint.h</text>
</a>
</g>
</g>
<!-- Node2&#45;&gt;Node3 -->
<g id="edge2" class="edge">
<title>Node2&#45;&gt;Node3</title>
<path fill="none" stroke="#63b8ff" d="M51.37,-55.59C47.07,-48.55 41.03,-38.67 35.73,-30"/>
<polygon fill="#63b8ff" stroke="#63b8ff" points="38.79,-28.3 30.59,-21.59 32.82,-31.95 38.79,-28.3"/>
</g>
<!-- Node4 -->
<g id="node4" class="node">
<title>Node4</title>
<g id="a_node4"><a xlink:title=" ">
<polygon fill="#e0e0e0" stroke="#999999" points="113.81,-20 66.43,-20 66.43,0 113.81,0 113.81,-20"/>
<text text-anchor="middle" x="90.12" y="-7" font-family="Helvetica,sans-Serif" font-size="10.00">stdlib.h</text>
</a>
</g>
</g>
<!-- Node2&#45;&gt;Node4 -->
<g id="edge3" class="edge">
<title>Node2&#45;&gt;Node4</title>
<path fill="none" stroke="#63b8ff" d="M62.87,-55.59C67.17,-48.55 73.21,-38.67 78.51,-30"/>
<polygon fill="#63b8ff" stroke="#63b8ff" points="81.42,-31.95 83.65,-21.59 75.45,-28.3 81.42,-31.95"/>
</g>
</g>
</svg>
