<?xml version="1.0" encoding="UTF-8" standalone="no"?>
<!DOCTYPE svg PUBLIC "-//W3C//DTD SVG 1.1//EN"
 "http://www.w3.org/Graphics/SVG/1.1/DTD/svg11.dtd">
<!-- Generated by graphviz version 7.0.5 (20221223.1930)
 -->
<!-- Title: ee205_animal_farm&#45;aar0m/src/main.cpp Pages: 1 -->
<svg width="204pt" height="140pt"
 viewBox="0.00 0.00 203.53 140.00" xmlns="http://www.w3.org/2000/svg" xmlns:xlink="http://www.w3.org/1999/xlink">
<g id="graph0" class="graph" transform="scale(1 1) rotate(0) translate(4 136)">
<title>ee205_animal_farm&#45;aar0m/src/main.cpp</title>
<!-- Node1 -->
<g id="node1" class="node">
<title>Node1</title>
<g id="a_node1"><a xlink:title="Generic Hello World template.">
<polygon fill="#999999" stroke="#666666" points="195.29,-132 0.24,-132 0.24,-112 195.29,-112 195.29,-132"/>
<text text-anchor="middle" x="97.76" y="-119" font-family="Helvetica,sans-Serif" font-size="10.00">ee205_animal_farm&#45;aar0m/src/main.cpp</text>
</a>
</g>
</g>
<!-- Node2 -->
<g id="node2" class="node">
<title>Node2</title>
<g id="a_node2"><a xlink:href="config_8h.html" target="_top" xlink:title="Header file for Animal Farm configuration.">
<polygon fill="white" stroke="#666666" points="88.29,-76 37.24,-76 37.24,-56 88.29,-56 88.29,-76"/>
<text text-anchor="middle" x="62.76" y="-63" font-family="Helvetica,sans-Serif" font-size="10.00">config.h</text>
</a>
</g>
</g>
<!-- Node1&#45;&gt;Node2 -->
<g id="edge1" class="edge">
<title>Node1&#45;&gt;Node2</title>
<path fill="none" stroke="#63b8ff" d="M91.67,-111.59C87.05,-104.47 80.56,-94.45 74.89,-85.72"/>
<polygon fill="#63b8ff" stroke="#63b8ff" points="77.99,-84.06 69.61,-77.57 72.12,-87.86 77.99,-84.06"/>
</g>
<!-- Node5 -->
<g id="node5" class="node">
<title>Node5</title>
<g id="a_node5"><a xlink:title=" ">
<polygon fill="#e0e0e0" stroke="#999999" points="161.11,-76 106.42,-76 106.42,-56 161.11,-56 161.11,-76"/>
<text text-anchor="middle" x="133.76" y="-63" font-family="Helvetica,sans-Serif" font-size="10.00">iostream</text>
</a>
</g>
</g>
<!-- Node1&#45;&gt;Node5 -->
<g id="edge4" class="edge">
<title>Node1&#45;&gt;Node5</title>
<path fill="none" stroke="#63b8ff" d="M104.03,-111.59C108.78,-104.47 115.46,-94.45 121.29,-85.72"/>
<polygon fill="#63b8ff" stroke="#63b8ff" points="124.09,-87.82 126.72,-77.56 118.27,-83.94 124.09,-87.82"/>
</g>
<!-- Node3 -->
<g id="node3" class="node">
<title>Node3</title>
<g id="a_node3"><a xlink:title=" ">
<polygon fill="#e0e0e0" stroke="#999999" points="54.28,-20 3.24,-20 3.24,0 54.28,0 54.28,-20"/>
<text text-anchor="middle" x="28.76" y="-7" font-family="Helvetica,sans-Serif" font-size="10.00">iomanip</text>
</a>
</g>
</g>
<!-- Node2&#45;&gt;Node3 -->
<g id="edge2" class="edge">
<title>Node2&#45;&gt;Node3</title>
<path fill="none" stroke="#63b8ff" d="M56.84,-55.59C52.4,-48.55 46.18,-38.67 40.73,-30"/>
<polygon fill="#63b8ff" stroke="#63b8ff" points="43.71,-28.18 35.42,-21.58 37.79,-31.91 43.71,-28.18"/>
</g>
<!-- Node4 -->
<g id="node4" class="node">
<title>Node4</title>
<g id="a_node4"><a xlink:title=" ">
<polygon fill="#e0e0e0" stroke="#999999" points="121.67,-20 71.86,-20 71.86,0 121.67,0 121.67,-20"/>
<text text-anchor="middle" x="96.76" y="-7" font-family="Helvetica,sans-Serif" font-size="10.00">random</text>
</a>
</g>
</g>
<!-- Node2&#45;&gt;Node4 -->
<g id="edge3" class="edge">
<title>Node2&#45;&gt;Node4</title>
<path fill="none" stroke="#63b8ff" d="M68.69,-55.59C73.12,-48.55 79.34,-38.67 84.8,-30"/>
<polygon fill="#63b8ff" stroke="#63b8ff" points="87.74,-31.91 90.1,-21.58 81.81,-28.18 87.74,-31.91"/>
</g>
</g>
</svg>
