<?xml version="1.0" encoding="UTF-8" standalone="no"?>
<!DOCTYPE svg PUBLIC "-//W3C//DTD SVG 1.1//EN"
 "http://www.w3.org/Graphics/SVG/1.1/DTD/svg11.dtd">
<!-- Generated by graphviz version 7.0.5 (20221223.1930)
 -->
<!-- Title: ee205_animal_farm&#45;aar0m/src/Mammal/Cat/Cat.h Pages: 1 -->
<svg width="776pt" height="84pt"
 viewBox="0.00 0.00 775.93 84.00" xmlns="http://www.w3.org/2000/svg" xmlns:xlink="http://www.w3.org/1999/xlink">
<g id="graph0" class="graph" transform="scale(1 1) rotate(0) translate(4 80)">
<title>ee205_animal_farm&#45;aar0m/src/Mammal/Cat/Cat.h</title>
<!-- Node1 -->
<g id="node1" class="node">
<title>Node1</title>
<g id="a_node1"><a xlink:title="Meow meow meow? Meow meow meow meow meow meow!">
<polygon fill="#999999" stroke="#666666" points="499.19,-76 260.58,-76 260.58,-56 499.19,-56 499.19,-76"/>
<text text-anchor="middle" x="379.88" y="-63" font-family="Helvetica,sans-Serif" font-size="10.00">ee205_animal_farm&#45;aar0m/src/Mammal/Cat/Cat.h</text>
</a>
</g>
</g>
<!-- Node2 -->
<g id="node2" class="node">
<title>Node2</title>
<g id="a_node2"><a xlink:href="Animal_8cpp.html" target="_top" xlink:title="Are there any malls for animals?">
<polygon fill="white" stroke="#666666" points="237.64,-20 0.12,-20 0.12,0 237.64,0 237.64,-20"/>
<text text-anchor="middle" x="118.88" y="-7" font-family="Helvetica,sans-Serif" font-size="10.00">ee205_animal_farm&#45;aar0m/src/Animal/Animal.cpp</text>
</a>
</g>
</g>
<!-- Node1&#45;&gt;Node2 -->
<g id="edge1" class="edge">
<title>Node1&#45;&gt;Node2</title>
<path fill="none" stroke="#63b8ff" d="M323.09,-53.25C275.59,-43.42 208.7,-29.58 164.59,-20.46"/>
<polygon fill="#63b8ff" stroke="#63b8ff" points="322.14,-56.63 332.64,-55.23 323.55,-49.77 322.14,-56.63"/>
</g>
<!-- Node3 -->
<g id="node3" class="node">
<title>Node3</title>
<g id="a_node3"><a xlink:href="Mammal_2Cat_2Cat_8cpp.html" target="_top" xlink:title="Meow meow meow? Meow meow meow meow meow meow!">
<polygon fill="white" stroke="#666666" points="504.25,-20 255.52,-20 255.52,0 504.25,0 504.25,-20"/>
<text text-anchor="middle" x="379.88" y="-7" font-family="Helvetica,sans-Serif" font-size="10.00">ee205_animal_farm&#45;aar0m/src/Mammal/Cat/Cat.cpp</text>
</a>
</g>
</g>
<!-- Node1&#45;&gt;Node3 -->
<g id="edge2" class="edge">
<title>Node1&#45;&gt;Node3</title>
<path fill="none" stroke="#63b8ff" d="M379.88,-44.13C379.88,-35.9 379.88,-26.85 379.88,-20.3"/>
<polygon fill="#63b8ff" stroke="#63b8ff" points="376.38,-44.08 379.88,-54.08 383.38,-44.08 376.38,-44.08"/>
</g>
<!-- Node4 -->
<g id="node4" class="node">
<title>Node4</title>
<g id="a_node4"><a xlink:href="main__catEmpire_8cpp_source.html" target="_top" xlink:title=" ">
<polygon fill="white" stroke="#666666" points="767.98,-20 521.78,-20 521.78,0 767.98,0 767.98,-20"/>
<text text-anchor="middle" x="644.88" y="-7" font-family="Helvetica,sans-Serif" font-size="10.00">ee205_animal_farm&#45;aar0m/src/main_catEmpire.cpp</text>
</a>
</g>
</g>
<!-- Node1&#45;&gt;Node4 -->
<g id="edge3" class="edge">
<title>Node1&#45;&gt;Node4</title>
<path fill="none" stroke="#63b8ff" d="M437.54,-53.25C485.77,-43.42 553.69,-29.58 598.47,-20.46"/>
<polygon fill="#63b8ff" stroke="#63b8ff" points="436.93,-49.8 427.83,-55.23 438.32,-56.66 436.93,-49.8"/>
</g>
</g>
</svg>
