<?xml version="1.0" encoding="UTF-8" standalone="no"?>
<!DOCTYPE svg PUBLIC "-//W3C//DTD SVG 1.1//EN"
 "http://www.w3.org/Graphics/SVG/1.1/DTD/svg11.dtd">
<!-- Generated by graphviz version 7.0.5 (20221223.1930)
 -->
<!-- Title: ee205_animal_farm&#45;aar0m/src/Mammal/Mammal.h Pages: 1 -->
<!--zoomable 140 -->
<svg id="main" version="1.1" xmlns="http://www.w3.org/2000/svg" xmlns:xlink="http://www.w3.org/1999/xlink" xml:space="preserve" onload="init(evt)">
<style type="text/css"><![CDATA[
.edge:hover path { stroke: red; }
.edge:hover polygon { stroke: red; fill: red; }
]]></style>
<script type="text/javascript"><![CDATA[
var edges = document.getElementsByTagName('g');
if (edges && edges.length) {
  for (var i=0;i<edges.length;i++) {
    if (edges[i].id.substr(0,4)=='edge') {
      edges[i].setAttribute('class','edge');
    }
  }
}
]]></script>
        <defs>
                <circle id="rim" cx="0" cy="0" r="7"/>
                <circle id="rim2" cx="0" cy="0" r="3.5"/>
                <g id="zoomPlus">
                        <use xlink:href="#rim" fill="#404040">
                                <set attributeName="fill" to="#808080" begin="zoomplus.mouseover" end="zoomplus.mouseout"/>
                        </use>
                        <path d="M-4,0h8M0,-4v8" fill="none" stroke="white" stroke-width="1.5" pointer-events="none"/>
                </g>
                <g id="zoomMin">
                        <use xlink:href="#rim" fill="#404040">
                                <set attributeName="fill" to="#808080" begin="zoomminus.mouseover" end="zoomminus.mouseout"/>
                        </use>
                        <path d="M-4,0h8" fill="none" stroke="white" stroke-width="1.5" pointer-events="none"/>
                </g>
                <g id="dirArrow">
                        <path fill="none" stroke="white" stroke-width="1.5" d="M0,-3.0v7 M-2.5,-0.5L0,-3.0L2.5,-0.5"/>
                </g>
               <g id="resetDef">
                       <use xlink:href="#rim2" fill="#404040">
                               <set attributeName="fill" to="#808080" begin="reset.mouseover" end="reset.mouseout"/>
                       </use>
               </g>
        </defs>

<script type="text/javascript">
var viewWidth = 1092;
var viewHeight = 140;
var sectionId = 'dynsection-1';
</script>
<script xlink:href="svgpan.js"/>
<svg id="graph" class="graph">
<g id="viewport">
<title>ee205_animal_farm&#45;aar0m/src/Mammal/Mammal.h</title>
<!-- Node1 -->
<g id="node1" class="node">
<title>Node1</title>
<g id="a_node1"><a xlink:title="Mammals? More like &quot;ma pals!&quot;.">
<polygon fill="#999999" stroke="#666666" points="814.65,-132 572.17,-132 572.17,-112 814.65,-112 814.65,-132"/>
<text text-anchor="middle" x="693.41" y="-119" font-family="Helvetica,sans-Serif" font-size="10.00">ee205_animal_farm&#45;aar0m/src/Mammal/Mammal.h</text>
</a>
</g>
</g>
<!-- Node2 -->
<g id="node2" class="node">
<title>Node2</title>
<g id="a_node2"><a xlink:href="SingleLinkedList_8h.html" target="_top" xlink:title="Singly Linked List (SLL) class to store Nodes.">
<polygon fill="white" stroke="#666666" points="556.66,-76 274.15,-76 274.15,-56 556.66,-56 556.66,-76"/>
<text text-anchor="middle" x="415.41" y="-63" font-family="Helvetica,sans-Serif" font-size="10.00">ee205_animal_farm&#45;aar0m/src/Container/SingleLinkedList.h</text>
</a>
</g>
</g>
<!-- Node1&#45;&gt;Node2 -->
<g id="edge1" class="edge">
<title>Node1&#45;&gt;Node2</title>
<path fill="none" stroke="#63b8ff" d="M633.56,-109.37C582.92,-99.54 511.27,-85.62 464.09,-76.46"/>
<polygon fill="#63b8ff" stroke="#63b8ff" points="632.7,-112.77 643.18,-111.24 634.03,-105.9 632.7,-112.77"/>
</g>
<!-- Node5 -->
<g id="node5" class="node">
<title>Node5</title>
<g id="a_node5"><a xlink:href="Mammal_2Cat_2Cat_8h.html" target="_top" xlink:title="Meow meow meow? Meow meow meow meow meow meow!">
<polygon fill="white" stroke="#666666" points="812.71,-76 574.1,-76 574.1,-56 812.71,-56 812.71,-76"/>
<text text-anchor="middle" x="693.41" y="-63" font-family="Helvetica,sans-Serif" font-size="10.00">ee205_animal_farm&#45;aar0m/src/Mammal/Cat/Cat.h</text>
</a>
</g>
</g>
<!-- Node1&#45;&gt;Node5 -->
<g id="edge4" class="edge">
<title>Node1&#45;&gt;Node5</title>
<path fill="none" stroke="#63b8ff" d="M693.41,-100.13C693.41,-91.9 693.41,-82.85 693.41,-76.3"/>
<polygon fill="#63b8ff" stroke="#63b8ff" points="689.91,-100.08 693.41,-110.08 696.91,-100.08 689.91,-100.08"/>
</g>
<!-- Node8 -->
<g id="node8" class="node">
<title>Node8</title>
<g id="a_node8"><a xlink:href="Mammal_8cpp.html" target="_top" xlink:title="Mammals? More like &quot;ma pals!&quot;.">
<polygon fill="white" stroke="#666666" points="1084.21,-76 830.61,-76 830.61,-56 1084.21,-56 1084.21,-76"/>
<text text-anchor="middle" x="957.41" y="-63" font-family="Helvetica,sans-Serif" font-size="10.00">ee205_animal_farm&#45;aar0m/src/Mammal/Mammal.cpp</text>
</a>
</g>
</g>
<!-- Node1&#45;&gt;Node8 -->
<g id="edge8" class="edge">
<title>Node1&#45;&gt;Node8</title>
<path fill="none" stroke="#63b8ff" d="M750.85,-109.25C798.9,-99.42 866.56,-85.58 911.17,-76.46"/>
<polygon fill="#63b8ff" stroke="#63b8ff" points="750.27,-105.8 741.18,-111.23 751.68,-112.65 750.27,-105.8"/>
</g>
<!-- Node3 -->
<g id="node3" class="node">
<title>Node3</title>
<g id="a_node3"><a xlink:href="SingleLinkedList_8cpp.html" target="_top" xlink:title="Singly Linked List (SLL) class to store Nodes.">
<polygon fill="white" stroke="#666666" points="292.72,-20 0.09,-20 0.09,0 292.72,0 292.72,-20"/>
<text text-anchor="middle" x="146.41" y="-7" font-family="Helvetica,sans-Serif" font-size="10.00">ee205_animal_farm&#45;aar0m/src/Container/SingleLinkedList.cpp</text>
</a>
</g>
</g>
<!-- Node2&#45;&gt;Node3 -->
<g id="edge2" class="edge">
<title>Node2&#45;&gt;Node3</title>
<path fill="none" stroke="#63b8ff" d="M357.19,-53.31C308.21,-43.48 239.07,-29.6 193.52,-20.46"/>
<polygon fill="#63b8ff" stroke="#63b8ff" points="356.27,-56.7 366.76,-55.23 357.64,-49.83 356.27,-56.7"/>
</g>
<!-- Node4 -->
<g id="node4" class="node">
<title>Node4</title>
<g id="a_node4"><a xlink:href="main__catEmpire_8cpp_source.html" target="_top" xlink:title=" ">
<polygon fill="white" stroke="#666666" points="556.51,-20 310.31,-20 310.31,0 556.51,0 556.51,-20"/>
<text text-anchor="middle" x="433.41" y="-7" font-family="Helvetica,sans-Serif" font-size="10.00">ee205_animal_farm&#45;aar0m/src/main_catEmpire.cpp</text>
</a>
</g>
</g>
<!-- Node2&#45;&gt;Node4 -->
<g id="edge3" class="edge">
<title>Node2&#45;&gt;Node4</title>
<path fill="none" stroke="#63b8ff" d="M422.17,-44.71C424.97,-36.32 428.07,-27.01 430.31,-20.3"/>
<polygon fill="#63b8ff" stroke="#63b8ff" points="418.86,-43.56 419.02,-54.16 425.5,-45.78 418.86,-43.56"/>
</g>
<!-- Node5&#45;&gt;Node4 -->
<g id="edge7" class="edge">
<title>Node5&#45;&gt;Node4</title>
<path fill="none" stroke="#63b8ff" d="M636.84,-53.25C589.51,-43.42 522.88,-29.58 478.94,-20.46"/>
<polygon fill="#63b8ff" stroke="#63b8ff" points="635.84,-56.62 646.34,-55.22 637.26,-49.76 635.84,-56.62"/>
</g>
<!-- Node6 -->
<g id="node6" class="node">
<title>Node6</title>
<g id="a_node6"><a xlink:href="Animal_8cpp.html" target="_top" xlink:title="Are there any malls for animals?">
<polygon fill="white" stroke="#666666" points="812.17,-20 574.65,-20 574.65,0 812.17,0 812.17,-20"/>
<text text-anchor="middle" x="693.41" y="-7" font-family="Helvetica,sans-Serif" font-size="10.00">ee205_animal_farm&#45;aar0m/src/Animal/Animal.cpp</text>
</a>
</g>
</g>
<!-- Node5&#45;&gt;Node6 -->
<g id="edge5" class="edge">
<title>Node5&#45;&gt;Node6</title>
<path fill="none" stroke="#63b8ff" d="M693.41,-44.13C693.41,-35.9 693.41,-26.85 693.41,-20.3"/>
<polygon fill="#63b8ff" stroke="#63b8ff" points="689.91,-44.08 693.41,-54.08 696.91,-44.08 689.91,-44.08"/>
</g>
<!-- Node7 -->
<g id="node7" class="node">
<title>Node7</title>
<g id="a_node7"><a xlink:href="Mammal_2Cat_2Cat_8cpp.html" target="_top" xlink:title="Meow meow meow? Meow meow meow meow meow meow!">
<polygon fill="white" stroke="#666666" points="1078.77,-20 830.04,-20 830.04,0 1078.77,0 1078.77,-20"/>
<text text-anchor="middle" x="954.41" y="-7" font-family="Helvetica,sans-Serif" font-size="10.00">ee205_animal_farm&#45;aar0m/src/Mammal/Cat/Cat.cpp</text>
</a>
</g>
</g>
<!-- Node5&#45;&gt;Node7 -->
<g id="edge6" class="edge">
<title>Node5&#45;&gt;Node7</title>
<path fill="none" stroke="#63b8ff" d="M750.2,-53.25C797.7,-43.42 864.59,-29.58 908.7,-20.46"/>
<polygon fill="#63b8ff" stroke="#63b8ff" points="749.74,-49.77 740.65,-55.23 751.15,-56.63 749.74,-49.77"/>
</g>
</g>
</svg>
        <g id="navigator" transform="translate(0 0)" fill="#404254">
                <rect fill="#f2f5e9" fill-opacity="0.5" stroke="#606060" stroke-width=".5" x="0" y="0" width="60" height="60"/>
                <use id="zoomplus" xlink:href="#zoomPlus" x="17" y="9" onmousedown="handleZoom(evt,'in')"/>
                <use id="zoomminus" xlink:href="#zoomMin" x="42" y="9" onmousedown="handleZoom(evt,'out')"/>
                <use id="reset" xlink:href="#resetDef" x="30" y="36" onmousedown="handleReset()"/>
                <g id="arrowUp" xlink:href="#dirArrow" transform="translate(30 24)" onmousedown="handlePan(0,-1)">
                  <use xlink:href="#rim" fill="#404040">
                        <set attributeName="fill" to="#808080" begin="arrowUp.mouseover" end="arrowUp.mouseout"/>
                  </use>
                  <path fill="none" stroke="white" stroke-width="1.5" d="M0,-3.0v7 M-2.5,-0.5L0,-3.0L2.5,-0.5"/>
                </g>
                <g id="arrowRight" xlink:href="#dirArrow" transform="rotate(90) translate(36 -43)" onmousedown="handlePan(1,0)">
                  <use xlink:href="#rim" fill="#404040">
                        <set attributeName="fill" to="#808080" begin="arrowRight.mouseover" end="arrowRight.mouseout"/>
                  </use>
                  <path fill="none" stroke="white" stroke-width="1.5" d="M0,-3.0v7 M-2.5,-0.5L0,-3.0L2.5,-0.5"/>
                </g>
                <g id="arrowDown" xlink:href="#dirArrow" transform="rotate(180) translate(-30 -48)" onmousedown="handlePan(0,1)">
                  <use xlink:href="#rim" fill="#404040">
                        <set attributeName="fill" to="#808080" begin="arrowDown.mouseover" end="arrowDown.mouseout"/>
                  </use>
                  <path fill="none" stroke="white" stroke-width="1.5" d="M0,-3.0v7 M-2.5,-0.5L0,-3.0L2.5,-0.5"/>
                </g>
                <g id="arrowLeft" xlink:href="#dirArrow" transform="rotate(270) translate(-36 17)" onmousedown="handlePan(-1,0)">
                  <use xlink:href="#rim" fill="#404040">
                        <set attributeName="fill" to="#808080" begin="arrowLeft.mouseover" end="arrowLeft.mouseout"/>
                  </use>
                  <path fill="none" stroke="white" stroke-width="1.5" d="M0,-3.0v7 M-2.5,-0.5L0,-3.0L2.5,-0.5"/>
                </g>
        </g>
        <svg viewBox="0 0 15 15" width="100%" height="30px" preserveAspectRatio="xMaxYMin meet">
         <g id="arrow_out" transform="scale(0.3 0.3)">
          <a xlink:href="Mammal_8h__dep__incl_org.svg" target="_base">
           <rect id="button" ry="5" rx="5" y="6" x="6" height="38" width="38"
                fill="#f2f5e9" fill-opacity="0.5" stroke="#606060" stroke-width="1.0"/>
           <path id="arrow"
             d="M 11.500037,31.436501 C 11.940474,20.09759 22.043105,11.32322 32.158766,21.979434 L 37.068811,17.246167 C 37.068811,17.246167 37.088388,32 37.088388,32 L 22.160133,31.978069 C 22.160133,31.978069 26.997745,27.140456 26.997745,27.140456 C 18.528582,18.264221 13.291696,25.230495 11.500037,31.436501 z"
             style="fill:#404040;"/>
          </a>
         </g>
        </svg>
</svg>
