<?xml version="1.0" encoding="UTF-8" standalone="no"?>
<!DOCTYPE svg PUBLIC "-//W3C//DTD SVG 1.1//EN"
 "http://www.w3.org/Graphics/SVG/1.1/DTD/svg11.dtd">
<!-- Generated by graphviz version 7.0.5 (20221223.1930)
 -->
<!-- Title: ee205_animal_farm&#45;aar0m/src/Mammal/Cat/Cat.cpp Pages: 1 -->
<svg width="694pt" height="364pt"
 viewBox="0.00 0.00 694.24 364.00" xmlns="http://www.w3.org/2000/svg" xmlns:xlink="http://www.w3.org/1999/xlink">
<g id="graph0" class="graph" transform="scale(1 1) rotate(0) translate(4 360)">
<title>ee205_animal_farm&#45;aar0m/src/Mammal/Cat/Cat.cpp</title>
<!-- Node1 -->
<g id="node1" class="node">
<title>Node1</title>
<g id="a_node1"><a xlink:title="Meow meow meow? Meow meow meow meow meow meow!">
<polygon fill="#999999" stroke="#666666" points="284.59,-356 35.86,-356 35.86,-336 284.59,-336 284.59,-356"/>
<text text-anchor="middle" x="160.23" y="-343" font-family="Helvetica,sans-Serif" font-size="10.00">ee205_animal_farm&#45;aar0m/src/Mammal/Cat/Cat.cpp</text>
</a>
</g>
</g>
<!-- Node2 -->
<g id="node2" class="node">
<title>Node2</title>
<g id="a_node2"><a xlink:href="Mammal_2Cat_2Cat_8h.html" target="_top" xlink:title="Meow meow meow? Meow meow meow meow meow meow!">
<polygon fill="white" stroke="#666666" points="180.13,-300 140.33,-300 140.33,-280 180.13,-280 180.13,-300"/>
<text text-anchor="middle" x="160.23" y="-287" font-family="Helvetica,sans-Serif" font-size="10.00">Cat.h</text>
</a>
</g>
</g>
<!-- Node1&#45;&gt;Node2 -->
<g id="edge1" class="edge">
<title>Node1&#45;&gt;Node2</title>
<path fill="none" stroke="#63b8ff" d="M160.23,-335.59C160.23,-329.01 160.23,-319.96 160.23,-311.73"/>
<polygon fill="#63b8ff" stroke="#63b8ff" points="163.73,-311.81 160.23,-301.81 156.73,-311.81 163.73,-311.81"/>
</g>
<!-- Node3 -->
<g id="node3" class="node">
<title>Node3</title>
<g id="a_node3"><a xlink:href="Name_8h.html" target="_top" xlink:title="A utility class for managing names of things.">
<polygon fill="white" stroke="#666666" points="97.63,-244 2.82,-244 2.82,-224 97.63,-224 97.63,-244"/>
<text text-anchor="middle" x="50.23" y="-231" font-family="Helvetica,sans-Serif" font-size="10.00">../../Utility/Name.h</text>
</a>
</g>
</g>
<!-- Node2&#45;&gt;Node3 -->
<g id="edge2" class="edge">
<title>Node2&#45;&gt;Node3</title>
<path fill="none" stroke="#63b8ff" d="M141.07,-279.59C124.13,-271.28 99.18,-259.03 79.7,-249.47"/>
<polygon fill="#63b8ff" stroke="#63b8ff" points="81.41,-246.41 70.9,-245.15 78.33,-252.7 81.41,-246.41"/>
</g>
<!-- Node6 -->
<g id="node6" class="node">
<title>Node6</title>
<g id="a_node6"><a xlink:href="Trim_8h.html" target="_top" xlink:title="General string&#45;trimming functions.">
<polygon fill="white" stroke="#666666" points="204.45,-244 116,-244 116,-224 204.45,-224 204.45,-244"/>
<text text-anchor="middle" x="160.23" y="-231" font-family="Helvetica,sans-Serif" font-size="10.00">../../Utility/Trim.h</text>
</a>
</g>
</g>
<!-- Node2&#45;&gt;Node6 -->
<g id="edge5" class="edge">
<title>Node2&#45;&gt;Node6</title>
<path fill="none" stroke="#63b8ff" d="M160.23,-279.59C160.23,-273.01 160.23,-263.96 160.23,-255.73"/>
<polygon fill="#63b8ff" stroke="#63b8ff" points="163.73,-255.81 160.23,-245.81 156.73,-255.81 163.73,-255.81"/>
</g>
<!-- Node7 -->
<g id="node7" class="node">
<title>Node7</title>
<g id="a_node7"><a xlink:href="Mammal_8h.html" target="_top" xlink:title="Mammals? More like &quot;ma pals!&quot;.">
<polygon fill="white" stroke="#666666" points="293.74,-244 222.72,-244 222.72,-224 293.74,-224 293.74,-244"/>
<text text-anchor="middle" x="258.23" y="-231" font-family="Helvetica,sans-Serif" font-size="10.00">../Mammal.h</text>
</a>
</g>
</g>
<!-- Node2&#45;&gt;Node7 -->
<g id="edge6" class="edge">
<title>Node2&#45;&gt;Node7</title>
<path fill="none" stroke="#63b8ff" d="M177.3,-279.59C192.1,-271.44 213.79,-259.48 231,-250"/>
<polygon fill="#63b8ff" stroke="#63b8ff" points="232.63,-253.1 239.7,-245.21 229.25,-246.97 232.63,-253.1"/>
</g>
<!-- Node4 -->
<g id="node4" class="node">
<title>Node4</title>
<g id="a_node4"><a xlink:title=" ">
<polygon fill="#e0e0e0" stroke="#999999" points="40.68,-188 -0.23,-188 -0.23,-168 40.68,-168 40.68,-188"/>
<text text-anchor="middle" x="20.23" y="-175" font-family="Helvetica,sans-Serif" font-size="10.00">string</text>
</a>
</g>
</g>
<!-- Node3&#45;&gt;Node4 -->
<g id="edge3" class="edge">
<title>Node3&#45;&gt;Node4</title>
<path fill="none" stroke="#63b8ff" d="M45,-223.59C41.13,-216.63 35.72,-206.89 30.94,-198.29"/>
<polygon fill="#63b8ff" stroke="#63b8ff" points="34.04,-196.66 26.13,-189.62 27.92,-200.06 34.04,-196.66"/>
</g>
<!-- Node5 -->
<g id="node5" class="node">
<title>Node5</title>
<g id="a_node5"><a xlink:title=" ">
<polygon fill="#e0e0e0" stroke="#999999" points="101.96,-188 58.49,-188 58.49,-168 101.96,-168 101.96,-188"/>
<text text-anchor="middle" x="80.23" y="-175" font-family="Helvetica,sans-Serif" font-size="10.00">vector</text>
</a>
</g>
</g>
<!-- Node3&#45;&gt;Node5 -->
<g id="edge4" class="edge">
<title>Node3&#45;&gt;Node5</title>
<path fill="none" stroke="#63b8ff" d="M55.45,-223.59C59.32,-216.63 64.73,-206.89 69.51,-198.29"/>
<polygon fill="#63b8ff" stroke="#63b8ff" points="72.53,-200.06 74.33,-189.62 66.41,-196.66 72.53,-200.06"/>
</g>
<!-- Node8 -->
<g id="node8" class="node">
<title>Node8</title>
<g id="a_node8"><a xlink:href="Animal_8h.html" target="_top" xlink:title="Are there any malls for animals?">
<polygon fill="white" stroke="#666666" points="510.31,-188 414.14,-188 414.14,-168 510.31,-168 510.31,-188"/>
<text text-anchor="middle" x="462.23" y="-175" font-family="Helvetica,sans-Serif" font-size="10.00">../Animal/Animal.h</text>
</a>
</g>
</g>
<!-- Node7&#45;&gt;Node8 -->
<g id="edge7" class="edge">
<title>Node7&#45;&gt;Node8</title>
<path fill="none" stroke="#63b8ff" d="M293.76,-223.59C327.49,-214.67 378.38,-201.19 415.41,-191.39"/>
<polygon fill="#63b8ff" stroke="#63b8ff" points="416.18,-194.81 424.95,-188.87 414.39,-188.04 416.18,-194.81"/>
</g>
<!-- Node18 -->
<g id="node18" class="node">
<title>Node18</title>
<g id="a_node18"><a xlink:href="Gender_8h.html" target="_top" xlink:title="Gender class to be used for Mammals.">
<polygon fill="white" stroke="#666666" points="258.98,-188 165.48,-188 165.48,-168 258.98,-168 258.98,-188"/>
<text text-anchor="middle" x="212.23" y="-175" font-family="Helvetica,sans-Serif" font-size="10.00">../Utility/Gender.h</text>
</a>
</g>
</g>
<!-- Node7&#45;&gt;Node18 -->
<g id="edge19" class="edge">
<title>Node7&#45;&gt;Node18</title>
<path fill="none" stroke="#63b8ff" d="M250.21,-223.59C243.95,-216.24 235.05,-205.8 227.44,-196.87"/>
<polygon fill="#63b8ff" stroke="#63b8ff" points="230.28,-194.79 221.13,-189.45 224.95,-199.33 230.28,-194.79"/>
</g>
<!-- Node9 -->
<g id="node9" class="node">
<title>Node9</title>
<g id="a_node9"><a xlink:href="Node_8h.html" target="_top" xlink:title="Node class for objects to inherit.">
<polygon fill="white" stroke="#666666" points="434.45,-132 332.01,-132 332.01,-112 434.45,-112 434.45,-132"/>
<text text-anchor="middle" x="383.23" y="-119" font-family="Helvetica,sans-Serif" font-size="10.00">../Container/Node.h</text>
</a>
</g>
</g>
<!-- Node8&#45;&gt;Node9 -->
<g id="edge8" class="edge">
<title>Node8&#45;&gt;Node9</title>
<path fill="none" stroke="#63b8ff" d="M448.47,-167.59C436.87,-159.67 420.03,-148.16 406.36,-138.82"/>
<polygon fill="#63b8ff" stroke="#63b8ff" points="408.57,-136.09 398.34,-133.33 404.62,-141.87 408.57,-136.09"/>
</g>
<!-- Node10 -->
<g id="node10" class="node">
<title>Node10</title>
<g id="a_node10"><a xlink:href="config_8h.html" target="_top" xlink:title="Header file for Animal Farm configuration.">
<polygon fill="white" stroke="#666666" points="292.09,-76 232.37,-76 232.37,-56 292.09,-56 292.09,-76"/>
<text text-anchor="middle" x="262.23" y="-63" font-family="Helvetica,sans-Serif" font-size="10.00">../config.h</text>
</a>
</g>
</g>
<!-- Node8&#45;&gt;Node10 -->
<g id="edge14" class="edge">
<title>Node8&#45;&gt;Node10</title>
<path fill="none" stroke="#63b8ff" d="M413.94,-167.7C385.94,-160.81 350.86,-149.52 323.23,-132 303.9,-119.74 286.55,-99.96 275.34,-85.43"/>
<polygon fill="#63b8ff" stroke="#63b8ff" points="278.28,-83.53 269.51,-77.59 272.66,-87.7 278.28,-83.53"/>
</g>
<!-- Node14 -->
<g id="node14" class="node">
<title>Node14</title>
<g id="a_node14"><a xlink:title=" ">
<polygon fill="#e0e0e0" stroke="#999999" points="502.57,-76 447.88,-76 447.88,-56 502.57,-56 502.57,-76"/>
<text text-anchor="middle" x="475.23" y="-63" font-family="Helvetica,sans-Serif" font-size="10.00">iostream</text>
</a>
</g>
</g>
<!-- Node8&#45;&gt;Node14 -->
<g id="edge17" class="edge">
<title>Node8&#45;&gt;Node14</title>
<path fill="none" stroke="#63b8ff" d="M463.33,-167.62C465.42,-150.01 469.96,-111.59 472.79,-87.65"/>
<polygon fill="#63b8ff" stroke="#63b8ff" points="476.25,-88.2 473.94,-77.86 469.29,-87.38 476.25,-88.2"/>
</g>
<!-- Node15 -->
<g id="node15" class="node">
<title>Node15</title>
<g id="a_node15"><a xlink:title=" ">
<polygon fill="#e0e0e0" stroke="#999999" points="538.46,-132 489.99,-132 489.99,-112 538.46,-112 538.46,-132"/>
<text text-anchor="middle" x="514.23" y="-119" font-family="Helvetica,sans-Serif" font-size="10.00">cassert</text>
</a>
</g>
</g>
<!-- Node8&#45;&gt;Node15 -->
<g id="edge15" class="edge">
<title>Node8&#45;&gt;Node15</title>
<path fill="none" stroke="#63b8ff" d="M471.28,-167.59C478.44,-160.16 488.64,-149.58 497.29,-140.58"/>
<polygon fill="#63b8ff" stroke="#63b8ff" points="499.81,-143.02 504.22,-133.39 494.77,-138.16 499.81,-143.02"/>
</g>
<!-- Node16 -->
<g id="node16" class="node">
<title>Node16</title>
<g id="a_node16"><a xlink:title=" ">
<polygon fill="#e0e0e0" stroke="#999999" points="602.18,-132 556.27,-132 556.27,-112 602.18,-112 602.18,-132"/>
<text text-anchor="middle" x="579.23" y="-119" font-family="Helvetica,sans-Serif" font-size="10.00">cstring</text>
</a>
</g>
</g>
<!-- Node8&#45;&gt;Node16 -->
<g id="edge16" class="edge">
<title>Node8&#45;&gt;Node16</title>
<path fill="none" stroke="#63b8ff" d="M482.61,-167.59C500.78,-159.21 527.65,-146.8 548.45,-137.21"/>
<polygon fill="#63b8ff" stroke="#63b8ff" points="549.7,-140.48 557.31,-133.11 546.77,-134.13 549.7,-140.48"/>
</g>
<!-- Node17 -->
<g id="node17" class="node">
<title>Node17</title>
<g id="a_node17"><a xlink:title=" ">
<polygon fill="#e0e0e0" stroke="#999999" points="686.25,-132 620.21,-132 620.21,-112 686.25,-112 686.25,-132"/>
<text text-anchor="middle" x="653.23" y="-119" font-family="Helvetica,sans-Serif" font-size="10.00">string_view</text>
</a>
</g>
</g>
<!-- Node8&#45;&gt;Node17 -->
<g id="edge18" class="edge">
<title>Node8&#45;&gt;Node17</title>
<path fill="none" stroke="#63b8ff" d="M495.5,-167.59C527.03,-158.68 574.61,-145.23 609.26,-135.43"/>
<polygon fill="#63b8ff" stroke="#63b8ff" points="609.89,-138.89 618.56,-132.8 607.99,-132.15 609.89,-138.89"/>
</g>
<!-- Node9&#45;&gt;Node10 -->
<g id="edge9" class="edge">
<title>Node9&#45;&gt;Node10</title>
<path fill="none" stroke="#63b8ff" d="M362.15,-111.59C343.27,-103.17 315.31,-90.69 293.76,-81.07"/>
<polygon fill="#63b8ff" stroke="#63b8ff" points="295.41,-77.98 284.85,-77.1 292.56,-84.37 295.41,-77.98"/>
</g>
<!-- Node13 -->
<g id="node13" class="node">
<title>Node13</title>
<g id="a_node13"><a xlink:title=" ">
<polygon fill="#e0e0e0" stroke="#999999" points="430.19,-76 310.27,-76 310.27,-56 430.19,-56 430.19,-76"/>
<text text-anchor="middle" x="370.23" y="-63" font-family="Helvetica,sans-Serif" font-size="10.00">boost/core/typeinfo.hpp</text>
</a>
</g>
</g>
<!-- Node9&#45;&gt;Node13 -->
<g id="edge12" class="edge">
<title>Node9&#45;&gt;Node13</title>
<path fill="none" stroke="#63b8ff" d="M380.96,-111.59C379.36,-104.93 377.15,-95.75 375.15,-87.44"/>
<polygon fill="#63b8ff" stroke="#63b8ff" points="378.56,-86.67 372.82,-77.77 371.76,-88.31 378.56,-86.67"/>
</g>
<!-- Node9&#45;&gt;Node14 -->
<g id="edge13" class="edge">
<title>Node9&#45;&gt;Node14</title>
<path fill="none" stroke="#63b8ff" d="M399.25,-111.59C413.02,-103.51 433.13,-91.71 449.2,-82.27"/>
<polygon fill="#63b8ff" stroke="#63b8ff" points="450.92,-85.33 457.77,-77.25 447.38,-79.29 450.92,-85.33"/>
</g>
<!-- Node11 -->
<g id="node11" class="node">
<title>Node11</title>
<g id="a_node11"><a xlink:title=" ">
<polygon fill="#e0e0e0" stroke="#999999" points="253.75,-20 202.71,-20 202.71,0 253.75,0 253.75,-20"/>
<text text-anchor="middle" x="228.23" y="-7" font-family="Helvetica,sans-Serif" font-size="10.00">iomanip</text>
</a>
</g>
</g>
<!-- Node10&#45;&gt;Node11 -->
<g id="edge10" class="edge">
<title>Node10&#45;&gt;Node11</title>
<path fill="none" stroke="#63b8ff" d="M256.3,-55.59C251.87,-48.55 245.65,-38.67 240.19,-30"/>
<polygon fill="#63b8ff" stroke="#63b8ff" points="243.18,-28.18 234.89,-21.58 237.25,-31.91 243.18,-28.18"/>
</g>
<!-- Node12 -->
<g id="node12" class="node">
<title>Node12</title>
<g id="a_node12"><a xlink:title=" ">
<polygon fill="#e0e0e0" stroke="#999999" points="321.13,-20 271.32,-20 271.32,0 321.13,0 321.13,-20"/>
<text text-anchor="middle" x="296.23" y="-7" font-family="Helvetica,sans-Serif" font-size="10.00">random</text>
</a>
</g>
</g>
<!-- Node10&#45;&gt;Node12 -->
<g id="edge11" class="edge">
<title>Node10&#45;&gt;Node12</title>
<path fill="none" stroke="#63b8ff" d="M268.15,-55.59C272.59,-48.55 278.8,-38.67 284.26,-30"/>
<polygon fill="#63b8ff" stroke="#63b8ff" points="287.2,-31.91 289.57,-21.58 281.28,-28.18 287.2,-31.91"/>
</g>
<!-- Node18&#45;&gt;Node10 -->
<g id="edge20" class="edge">
<title>Node18&#45;&gt;Node10</title>
<path fill="none" stroke="#63b8ff" d="M189.66,-167.56C164.95,-155.82 130.78,-134.56 146.23,-112 162.86,-87.7 194.68,-76.52 220.78,-71.38"/>
<polygon fill="#63b8ff" stroke="#63b8ff" points="221.18,-74.86 230.44,-69.72 219.99,-67.96 221.18,-74.86"/>
</g>
<!-- Node19 -->
<g id="node19" class="node">
<title>Node19</title>
<g id="a_node19"><a xlink:title=" ">
<polygon fill="#e0e0e0" stroke="#999999" points="199.57,-132 154.88,-132 154.88,-112 199.57,-112 199.57,-132"/>
<text text-anchor="middle" x="177.23" y="-119" font-family="Helvetica,sans-Serif" font-size="10.00">cstdlib</text>
</a>
</g>
</g>
<!-- Node18&#45;&gt;Node19 -->
<g id="edge21" class="edge">
<title>Node18&#45;&gt;Node19</title>
<path fill="none" stroke="#63b8ff" d="M206.13,-167.59C201.51,-160.47 195.02,-150.45 189.36,-141.72"/>
<polygon fill="#63b8ff" stroke="#63b8ff" points="192.45,-140.06 184.08,-133.57 186.58,-143.86 192.45,-140.06"/>
</g>
<!-- Node20 -->
<g id="node20" class="node">
<title>Node20</title>
<g id="a_node20"><a xlink:title=" ">
<polygon fill="#e0e0e0" stroke="#999999" points="276.53,-132 217.92,-132 217.92,-112 276.53,-112 276.53,-132"/>
<text text-anchor="middle" x="247.23" y="-119" font-family="Helvetica,sans-Serif" font-size="10.00">stdexcept</text>
</a>
</g>
</g>
<!-- Node18&#45;&gt;Node20 -->
<g id="edge22" class="edge">
<title>Node18&#45;&gt;Node20</title>
<path fill="none" stroke="#63b8ff" d="M218.32,-167.59C222.94,-160.47 229.43,-150.45 235.1,-141.72"/>
<polygon fill="#63b8ff" stroke="#63b8ff" points="237.87,-143.86 240.38,-133.57 232,-140.06 237.87,-143.86"/>
</g>
</g>
</svg>
