<?xml version="1.0" encoding="UTF-8" standalone="no"?>
<!DOCTYPE svg PUBLIC "-//W3C//DTD SVG 1.1//EN"
 "http://www.w3.org/Graphics/SVG/1.1/DTD/svg11.dtd">
<!-- Generated by graphviz version 7.0.5 (20221223.1930)
 -->
<!-- Title: ee205_animal_farm&#45;aar0m/src/Mammal/Mammal.h Pages: 1 -->
<!--zoomable 252 -->
<svg id="main" version="1.1" xmlns="http://www.w3.org/2000/svg" xmlns:xlink="http://www.w3.org/1999/xlink" xml:space="preserve" onload="init(evt)">
<style type="text/css"><![CDATA[
.edge:hover path { stroke: red; }
.edge:hover polygon { stroke: red; fill: red; }
]]></style>
<script type="text/javascript"><![CDATA[
var edges = document.getElementsByTagName('g');
if (edges && edges.length) {
  for (var i=0;i<edges.length;i++) {
    if (edges[i].id.substr(0,4)=='edge') {
      edges[i].setAttribute('class','edge');
    }
  }
}
]]></script>
        <defs>
                <circle id="rim" cx="0" cy="0" r="7"/>
                <circle id="rim2" cx="0" cy="0" r="3.5"/>
                <g id="zoomPlus">
                        <use xlink:href="#rim" fill="#404040">
                                <set attributeName="fill" to="#808080" begin="zoomplus.mouseover" end="zoomplus.mouseout"/>
                        </use>
                        <path d="M-4,0h8M0,-4v8" fill="none" stroke="white" stroke-width="1.5" pointer-events="none"/>
                </g>
                <g id="zoomMin">
                        <use xlink:href="#rim" fill="#404040">
                                <set attributeName="fill" to="#808080" begin="zoomminus.mouseover" end="zoomminus.mouseout"/>
                        </use>
                        <path d="M-4,0h8" fill="none" stroke="white" stroke-width="1.5" pointer-events="none"/>
                </g>
                <g id="dirArrow">
                        <path fill="none" stroke="white" stroke-width="1.5" d="M0,-3.0v7 M-2.5,-0.5L0,-3.0L2.5,-0.5"/>
                </g>
               <g id="resetDef">
                       <use xlink:href="#rim2" fill="#404040">
                               <set attributeName="fill" to="#808080" begin="reset.mouseover" end="reset.mouseout"/>
                       </use>
               </g>
        </defs>

<script type="text/javascript">
var viewWidth = 552;
var viewHeight = 252;
var sectionId = 'dynsection-0';
</script>
<script xlink:href="svgpan.js"/>
<svg id="graph" class="graph">
<g id="viewport">
<title>ee205_animal_farm&#45;aar0m/src/Mammal/Mammal.h</title>
<!-- Node1 -->
<g id="node1" class="node">
<title>Node1</title>
<g id="a_node1"><a xlink:title="Mammals? More like &quot;ma pals!&quot;.">
<polygon fill="#999999" stroke="#666666" points="298.32,-244 55.84,-244 55.84,-224 298.32,-224 298.32,-244"/>
<text text-anchor="middle" x="177.08" y="-231" font-family="Helvetica,sans-Serif" font-size="10.00">ee205_animal_farm&#45;aar0m/src/Mammal/Mammal.h</text>
</a>
</g>
</g>
<!-- Node2 -->
<g id="node2" class="node">
<title>Node2</title>
<g id="a_node2"><a xlink:href="Animal_8h.html" target="_top" xlink:title="Are there any malls for animals?">
<polygon fill="white" stroke="#666666" points="368.16,-188 271.99,-188 271.99,-168 368.16,-168 368.16,-188"/>
<text text-anchor="middle" x="320.08" y="-175" font-family="Helvetica,sans-Serif" font-size="10.00">../Animal/Animal.h</text>
</a>
</g>
</g>
<!-- Node1&#45;&gt;Node2 -->
<g id="edge1" class="edge">
<title>Node1&#45;&gt;Node2</title>
<path fill="none" stroke="#63b8ff" d="M201.99,-223.59C224.81,-214.97 258.86,-202.12 284.54,-192.42"/>
<polygon fill="#63b8ff" stroke="#63b8ff" points="285.44,-195.82 293.56,-189.01 282.97,-189.27 285.44,-195.82"/>
</g>
<!-- Node12 -->
<g id="node12" class="node">
<title>Node12</title>
<g id="a_node12"><a xlink:href="Gender_8h.html" target="_top" xlink:title="Gender class to be used for Mammals.">
<polygon fill="white" stroke="#666666" points="116.83,-188 23.33,-188 23.33,-168 116.83,-168 116.83,-188"/>
<text text-anchor="middle" x="70.08" y="-175" font-family="Helvetica,sans-Serif" font-size="10.00">../Utility/Gender.h</text>
</a>
</g>
</g>
<!-- Node1&#45;&gt;Node12 -->
<g id="edge13" class="edge">
<title>Node1&#45;&gt;Node12</title>
<path fill="none" stroke="#63b8ff" d="M158.44,-223.59C142.05,-215.32 117.92,-203.14 99.01,-193.6"/>
<polygon fill="#63b8ff" stroke="#63b8ff" points="100.72,-190.54 90.21,-189.16 97.56,-196.79 100.72,-190.54"/>
</g>
<!-- Node3 -->
<g id="node3" class="node">
<title>Node3</title>
<g id="a_node3"><a xlink:href="Node_8h.html" target="_top" xlink:title="Node class for objects to inherit.">
<polygon fill="white" stroke="#666666" points="292.3,-132 189.86,-132 189.86,-112 292.3,-112 292.3,-132"/>
<text text-anchor="middle" x="241.08" y="-119" font-family="Helvetica,sans-Serif" font-size="10.00">../Container/Node.h</text>
</a>
</g>
</g>
<!-- Node2&#45;&gt;Node3 -->
<g id="edge2" class="edge">
<title>Node2&#45;&gt;Node3</title>
<path fill="none" stroke="#63b8ff" d="M306.32,-167.59C294.72,-159.67 277.88,-148.16 264.21,-138.82"/>
<polygon fill="#63b8ff" stroke="#63b8ff" points="266.43,-136.09 256.19,-133.33 262.48,-141.87 266.43,-136.09"/>
</g>
<!-- Node4 -->
<g id="node4" class="node">
<title>Node4</title>
<g id="a_node4"><a xlink:href="config_8h.html" target="_top" xlink:title="Header file for Animal Farm configuration.">
<polygon fill="white" stroke="#666666" points="149.94,-76 90.22,-76 90.22,-56 149.94,-56 149.94,-76"/>
<text text-anchor="middle" x="120.08" y="-63" font-family="Helvetica,sans-Serif" font-size="10.00">../config.h</text>
</a>
</g>
</g>
<!-- Node2&#45;&gt;Node4 -->
<g id="edge8" class="edge">
<title>Node2&#45;&gt;Node4</title>
<path fill="none" stroke="#63b8ff" d="M271.79,-167.7C243.79,-160.81 208.71,-149.52 181.08,-132 161.75,-119.74 144.4,-99.96 133.19,-85.43"/>
<polygon fill="#63b8ff" stroke="#63b8ff" points="136.13,-83.53 127.36,-77.59 130.51,-87.7 136.13,-83.53"/>
</g>
<!-- Node8 -->
<g id="node8" class="node">
<title>Node8</title>
<g id="a_node8"><a xlink:title=" ">
<polygon fill="#e0e0e0" stroke="#999999" points="360.42,-76 305.73,-76 305.73,-56 360.42,-56 360.42,-76"/>
<text text-anchor="middle" x="333.08" y="-63" font-family="Helvetica,sans-Serif" font-size="10.00">iostream</text>
</a>
</g>
</g>
<!-- Node2&#45;&gt;Node8 -->
<g id="edge11" class="edge">
<title>Node2&#45;&gt;Node8</title>
<path fill="none" stroke="#63b8ff" d="M321.19,-167.62C323.27,-150.01 327.81,-111.59 330.64,-87.65"/>
<polygon fill="#63b8ff" stroke="#63b8ff" points="334.1,-88.2 331.79,-77.86 327.14,-87.38 334.1,-88.2"/>
</g>
<!-- Node9 -->
<g id="node9" class="node">
<title>Node9</title>
<g id="a_node9"><a xlink:title=" ">
<polygon fill="#e0e0e0" stroke="#999999" points="396.31,-132 347.85,-132 347.85,-112 396.31,-112 396.31,-132"/>
<text text-anchor="middle" x="372.08" y="-119" font-family="Helvetica,sans-Serif" font-size="10.00">cassert</text>
</a>
</g>
</g>
<!-- Node2&#45;&gt;Node9 -->
<g id="edge9" class="edge">
<title>Node2&#45;&gt;Node9</title>
<path fill="none" stroke="#63b8ff" d="M329.13,-167.59C336.29,-160.16 346.49,-149.58 355.14,-140.58"/>
<polygon fill="#63b8ff" stroke="#63b8ff" points="357.66,-143.02 362.07,-133.39 352.62,-138.16 357.66,-143.02"/>
</g>
<!-- Node10 -->
<g id="node10" class="node">
<title>Node10</title>
<g id="a_node10"><a xlink:title=" ">
<polygon fill="#e0e0e0" stroke="#999999" points="460.03,-132 414.12,-132 414.12,-112 460.03,-112 460.03,-132"/>
<text text-anchor="middle" x="437.08" y="-119" font-family="Helvetica,sans-Serif" font-size="10.00">cstring</text>
</a>
</g>
</g>
<!-- Node2&#45;&gt;Node10 -->
<g id="edge10" class="edge">
<title>Node2&#45;&gt;Node10</title>
<path fill="none" stroke="#63b8ff" d="M340.46,-167.59C358.63,-159.21 385.5,-146.8 406.3,-137.21"/>
<polygon fill="#63b8ff" stroke="#63b8ff" points="407.55,-140.48 415.16,-133.11 404.62,-134.13 407.55,-140.48"/>
</g>
<!-- Node11 -->
<g id="node11" class="node">
<title>Node11</title>
<g id="a_node11"><a xlink:title=" ">
<polygon fill="#e0e0e0" stroke="#999999" points="544.1,-132 478.06,-132 478.06,-112 544.1,-112 544.1,-132"/>
<text text-anchor="middle" x="511.08" y="-119" font-family="Helvetica,sans-Serif" font-size="10.00">string_view</text>
</a>
</g>
</g>
<!-- Node2&#45;&gt;Node11 -->
<g id="edge12" class="edge">
<title>Node2&#45;&gt;Node11</title>
<path fill="none" stroke="#63b8ff" d="M353.35,-167.59C384.88,-158.68 432.46,-145.23 467.11,-135.43"/>
<polygon fill="#63b8ff" stroke="#63b8ff" points="467.74,-138.89 476.41,-132.8 465.84,-132.15 467.74,-138.89"/>
</g>
<!-- Node3&#45;&gt;Node4 -->
<g id="edge3" class="edge">
<title>Node3&#45;&gt;Node4</title>
<path fill="none" stroke="#63b8ff" d="M220,-111.59C201.12,-103.17 173.16,-90.69 151.61,-81.07"/>
<polygon fill="#63b8ff" stroke="#63b8ff" points="153.26,-77.98 142.7,-77.1 150.41,-84.37 153.26,-77.98"/>
</g>
<!-- Node7 -->
<g id="node7" class="node">
<title>Node7</title>
<g id="a_node7"><a xlink:title=" ">
<polygon fill="#e0e0e0" stroke="#999999" points="288.04,-76 168.12,-76 168.12,-56 288.04,-56 288.04,-76"/>
<text text-anchor="middle" x="228.08" y="-63" font-family="Helvetica,sans-Serif" font-size="10.00">boost/core/typeinfo.hpp</text>
</a>
</g>
</g>
<!-- Node3&#45;&gt;Node7 -->
<g id="edge6" class="edge">
<title>Node3&#45;&gt;Node7</title>
<path fill="none" stroke="#63b8ff" d="M238.81,-111.59C237.21,-104.93 235,-95.75 233,-87.44"/>
<polygon fill="#63b8ff" stroke="#63b8ff" points="236.41,-86.67 230.67,-77.77 229.61,-88.31 236.41,-86.67"/>
</g>
<!-- Node3&#45;&gt;Node8 -->
<g id="edge7" class="edge">
<title>Node3&#45;&gt;Node8</title>
<path fill="none" stroke="#63b8ff" d="M257.1,-111.59C270.87,-103.51 290.98,-91.71 307.06,-82.27"/>
<polygon fill="#63b8ff" stroke="#63b8ff" points="308.77,-85.33 315.62,-77.25 305.23,-79.29 308.77,-85.33"/>
</g>
<!-- Node5 -->
<g id="node5" class="node">
<title>Node5</title>
<g id="a_node5"><a xlink:title=" ">
<polygon fill="#e0e0e0" stroke="#999999" points="111.6,-20 60.56,-20 60.56,0 111.6,0 111.6,-20"/>
<text text-anchor="middle" x="86.08" y="-7" font-family="Helvetica,sans-Serif" font-size="10.00">iomanip</text>
</a>
</g>
</g>
<!-- Node4&#45;&gt;Node5 -->
<g id="edge4" class="edge">
<title>Node4&#45;&gt;Node5</title>
<path fill="none" stroke="#63b8ff" d="M114.15,-55.59C109.72,-48.55 103.5,-38.67 98.04,-30"/>
<polygon fill="#63b8ff" stroke="#63b8ff" points="101.03,-28.18 92.74,-21.58 95.1,-31.91 101.03,-28.18"/>
</g>
<!-- Node6 -->
<g id="node6" class="node">
<title>Node6</title>
<g id="a_node6"><a xlink:title=" ">
<polygon fill="#e0e0e0" stroke="#999999" points="178.98,-20 129.17,-20 129.17,0 178.98,0 178.98,-20"/>
<text text-anchor="middle" x="154.08" y="-7" font-family="Helvetica,sans-Serif" font-size="10.00">random</text>
</a>
</g>
</g>
<!-- Node4&#45;&gt;Node6 -->
<g id="edge5" class="edge">
<title>Node4&#45;&gt;Node6</title>
<path fill="none" stroke="#63b8ff" d="M126,-55.59C130.44,-48.55 136.66,-38.67 142.11,-30"/>
<polygon fill="#63b8ff" stroke="#63b8ff" points="145.05,-31.91 147.42,-21.58 139.13,-28.18 145.05,-31.91"/>
</g>
<!-- Node12&#45;&gt;Node4 -->
<g id="edge14" class="edge">
<title>Node12&#45;&gt;Node4</title>
<path fill="none" stroke="#63b8ff" d="M47.51,-167.56C22.8,-155.82 -11.37,-134.56 4.08,-112 20.71,-87.7 52.53,-76.52 78.64,-71.38"/>
<polygon fill="#63b8ff" stroke="#63b8ff" points="79.03,-74.86 88.29,-69.72 77.84,-67.96 79.03,-74.86"/>
</g>
<!-- Node13 -->
<g id="node13" class="node">
<title>Node13</title>
<g id="a_node13"><a xlink:title=" ">
<polygon fill="#e0e0e0" stroke="#999999" points="57.42,-132 12.73,-132 12.73,-112 57.42,-112 57.42,-132"/>
<text text-anchor="middle" x="35.08" y="-119" font-family="Helvetica,sans-Serif" font-size="10.00">cstdlib</text>
</a>
</g>
</g>
<!-- Node12&#45;&gt;Node13 -->
<g id="edge15" class="edge">
<title>Node12&#45;&gt;Node13</title>
<path fill="none" stroke="#63b8ff" d="M63.98,-167.59C59.36,-160.47 52.87,-150.45 47.21,-141.72"/>
<polygon fill="#63b8ff" stroke="#63b8ff" points="50.3,-140.06 41.93,-133.57 44.43,-143.86 50.3,-140.06"/>
</g>
<!-- Node14 -->
<g id="node14" class="node">
<title>Node14</title>
<g id="a_node14"><a xlink:title=" ">
<polygon fill="#e0e0e0" stroke="#999999" points="134.38,-132 75.77,-132 75.77,-112 134.38,-112 134.38,-132"/>
<text text-anchor="middle" x="105.08" y="-119" font-family="Helvetica,sans-Serif" font-size="10.00">stdexcept</text>
</a>
</g>
</g>
<!-- Node12&#45;&gt;Node14 -->
<g id="edge16" class="edge">
<title>Node12&#45;&gt;Node14</title>
<path fill="none" stroke="#63b8ff" d="M76.17,-167.59C80.79,-160.47 87.28,-150.45 92.95,-141.72"/>
<polygon fill="#63b8ff" stroke="#63b8ff" points="95.73,-143.86 98.23,-133.57 89.85,-140.06 95.73,-143.86"/>
</g>
</g>
</svg>
        <g id="navigator" transform="translate(0 0)" fill="#404254">
                <rect fill="#f2f5e9" fill-opacity="0.5" stroke="#606060" stroke-width=".5" x="0" y="0" width="60" height="60"/>
                <use id="zoomplus" xlink:href="#zoomPlus" x="17" y="9" onmousedown="handleZoom(evt,'in')"/>
                <use id="zoomminus" xlink:href="#zoomMin" x="42" y="9" onmousedown="handleZoom(evt,'out')"/>
                <use id="reset" xlink:href="#resetDef" x="30" y="36" onmousedown="handleReset()"/>
                <g id="arrowUp" xlink:href="#dirArrow" transform="translate(30 24)" onmousedown="handlePan(0,-1)">
                  <use xlink:href="#rim" fill="#404040">
                        <set attributeName="fill" to="#808080" begin="arrowUp.mouseover" end="arrowUp.mouseout"/>
                  </use>
                  <path fill="none" stroke="white" stroke-width="1.5" d="M0,-3.0v7 M-2.5,-0.5L0,-3.0L2.5,-0.5"/>
                </g>
                <g id="arrowRight" xlink:href="#dirArrow" transform="rotate(90) translate(36 -43)" onmousedown="handlePan(1,0)">
                  <use xlink:href="#rim" fill="#404040">
                        <set attributeName="fill" to="#808080" begin="arrowRight.mouseover" end="arrowRight.mouseout"/>
                  </use>
                  <path fill="none" stroke="white" stroke-width="1.5" d="M0,-3.0v7 M-2.5,-0.5L0,-3.0L2.5,-0.5"/>
                </g>
                <g id="arrowDown" xlink:href="#dirArrow" transform="rotate(180) translate(-30 -48)" onmousedown="handlePan(0,1)">
                  <use xlink:href="#rim" fill="#404040">
                        <set attributeName="fill" to="#808080" begin="arrowDown.mouseover" end="arrowDown.mouseout"/>
                  </use>
                  <path fill="none" stroke="white" stroke-width="1.5" d="M0,-3.0v7 M-2.5,-0.5L0,-3.0L2.5,-0.5"/>
                </g>
                <g id="arrowLeft" xlink:href="#dirArrow" transform="rotate(270) translate(-36 17)" onmousedown="handlePan(-1,0)">
                  <use xlink:href="#rim" fill="#404040">
                        <set attributeName="fill" to="#808080" begin="arrowLeft.mouseover" end="arrowLeft.mouseout"/>
                  </use>
                  <path fill="none" stroke="white" stroke-width="1.5" d="M0,-3.0v7 M-2.5,-0.5L0,-3.0L2.5,-0.5"/>
                </g>
        </g>
        <svg viewBox="0 0 15 15" width="100%" height="30px" preserveAspectRatio="xMaxYMin meet">
         <g id="arrow_out" transform="scale(0.3 0.3)">
          <a xlink:href="Mammal_8h__incl_org.svg" target="_base">
           <rect id="button" ry="5" rx="5" y="6" x="6" height="38" width="38"
                fill="#f2f5e9" fill-opacity="0.5" stroke="#606060" stroke-width="1.0"/>
           <path id="arrow"
             d="M 11.500037,31.436501 C 11.940474,20.09759 22.043105,11.32322 32.158766,21.979434 L 37.068811,17.246167 C 37.068811,17.246167 37.088388,32 37.088388,32 L 22.160133,31.978069 C 22.160133,31.978069 26.997745,27.140456 26.997745,27.140456 C 18.528582,18.264221 13.291696,25.230495 11.500037,31.436501 z"
             style="fill:#404040;"/>
          </a>
         </g>
        </svg>
</svg>
