<?xml version="1.0" encoding="UTF-8" standalone="no"?>
<!DOCTYPE svg PUBLIC "-//W3C//DTD SVG 1.1//EN"
 "http://www.w3.org/Graphics/SVG/1.1/DTD/svg11.dtd">
<!-- Generated by graphviz version 7.0.5 (20221223.1930)
 -->
<!-- Title: ee205_animal_farm&#45;aar0m/src/Utility/Name.cpp Pages: 1 -->
<svg width="639pt" height="140pt"
 viewBox="0.00 0.00 639.28 140.00" xmlns="http://www.w3.org/2000/svg" xmlns:xlink="http://www.w3.org/1999/xlink">
<g id="graph0" class="graph" transform="scale(1 1) rotate(0) translate(4 136)">
<title>ee205_animal_farm&#45;aar0m/src/Utility/Name.cpp</title>
<!-- Node1 -->
<g id="node1" class="node">
<title>Node1</title>
<g id="a_node1"><a xlink:title="A utility class for managing Animal names.">
<polygon fill="#999999" stroke="#666666" points="425.86,-132 198.37,-132 198.37,-112 425.86,-112 425.86,-132"/>
<text text-anchor="middle" x="312.12" y="-119" font-family="Helvetica,sans-Serif" font-size="10.00">ee205_animal_farm&#45;aar0m/src/Utility/Name.cpp</text>
</a>
</g>
</g>
<!-- Node2 -->
<g id="node2" class="node">
<title>Node2</title>
<g id="a_node2"><a xlink:title=" ">
<polygon fill="#e0e0e0" stroke="#999999" points="48.35,-76 -0.12,-76 -0.12,-56 48.35,-56 48.35,-76"/>
<text text-anchor="middle" x="24.12" y="-63" font-family="Helvetica,sans-Serif" font-size="10.00">cassert</text>
</a>
</g>
</g>
<!-- Node1&#45;&gt;Node2 -->
<g id="edge1" class="edge">
<title>Node1&#45;&gt;Node2</title>
<path fill="none" stroke="#63b8ff" d="M250.24,-111.52C201.15,-103.66 130.58,-91.62 59.52,-76.14"/>
<polygon fill="#63b8ff" stroke="#63b8ff" points="60.57,-72.79 50.05,-74.06 59.06,-79.63 60.57,-72.79"/>
</g>
<!-- Node3 -->
<g id="node3" class="node">
<title>Node3</title>
<g id="a_node3"><a xlink:title=" ">
<polygon fill="#e0e0e0" stroke="#999999" points="111.52,-76 66.71,-76 66.71,-56 111.52,-56 111.52,-76"/>
<text text-anchor="middle" x="89.12" y="-63" font-family="Helvetica,sans-Serif" font-size="10.00">cctype</text>
</a>
</g>
</g>
<!-- Node1&#45;&gt;Node3 -->
<g id="edge2" class="edge">
<title>Node1&#45;&gt;Node3</title>
<path fill="none" stroke="#63b8ff" d="M268.87,-111.54C232.29,-103.39 178.24,-91 122.85,-76.62"/>
<polygon fill="#63b8ff" stroke="#63b8ff" points="123.79,-73.25 113.23,-74.11 122.02,-80.02 123.79,-73.25"/>
</g>
<!-- Node4 -->
<g id="node4" class="node">
<title>Node4</title>
<g id="a_node4"><a xlink:title=" ">
<polygon fill="#e0e0e0" stroke="#999999" points="178.96,-76 129.27,-76 129.27,-56 178.96,-56 178.96,-76"/>
<text text-anchor="middle" x="154.12" y="-63" font-family="Helvetica,sans-Serif" font-size="10.00">fstream</text>
</a>
</g>
</g>
<!-- Node1&#45;&gt;Node4 -->
<g id="edge3" class="edge">
<title>Node1&#45;&gt;Node4</title>
<path fill="none" stroke="#63b8ff" d="M284.59,-111.59C258.37,-102.63 218.74,-89.09 190.03,-79.28"/>
<polygon fill="#63b8ff" stroke="#63b8ff" points="191.27,-76 180.67,-76.08 189,-82.62 191.27,-76"/>
</g>
<!-- Node5 -->
<g id="node5" class="node">
<title>Node5</title>
<g id="a_node5"><a xlink:title=" ">
<polygon fill="#e0e0e0" stroke="#999999" points="251.46,-76 196.77,-76 196.77,-56 251.46,-56 251.46,-76"/>
<text text-anchor="middle" x="224.12" y="-63" font-family="Helvetica,sans-Serif" font-size="10.00">iostream</text>
</a>
</g>
</g>
<!-- Node1&#45;&gt;Node5 -->
<g id="edge4" class="edge">
<title>Node1&#45;&gt;Node5</title>
<path fill="none" stroke="#63b8ff" d="M296.79,-111.59C283.62,-103.51 264.38,-91.71 249.01,-82.27"/>
<polygon fill="#63b8ff" stroke="#63b8ff" points="251.21,-79.52 240.85,-77.27 247.55,-85.48 251.21,-79.52"/>
</g>
<!-- Node6 -->
<g id="node6" class="node">
<title>Node6</title>
<g id="a_node6"><a xlink:title=" ">
<polygon fill="#e0e0e0" stroke="#999999" points="308.39,-76 269.84,-76 269.84,-56 308.39,-56 308.39,-76"/>
<text text-anchor="middle" x="289.12" y="-63" font-family="Helvetica,sans-Serif" font-size="10.00">limits</text>
</a>
</g>
</g>
<!-- Node1&#45;&gt;Node6 -->
<g id="edge5" class="edge">
<title>Node1&#45;&gt;Node6</title>
<path fill="none" stroke="#63b8ff" d="M308.11,-111.59C305.21,-104.78 301.18,-95.32 297.58,-86.86"/>
<polygon fill="#63b8ff" stroke="#63b8ff" points="300.81,-85.52 293.67,-77.69 294.37,-88.26 300.81,-85.52"/>
</g>
<!-- Node7 -->
<g id="node7" class="node">
<title>Node7</title>
<g id="a_node7"><a xlink:title=" ">
<polygon fill="#e0e0e0" stroke="#999999" points="394.02,-20 344.21,-20 344.21,0 394.02,0 394.02,-20"/>
<text text-anchor="middle" x="369.12" y="-7" font-family="Helvetica,sans-Serif" font-size="10.00">random</text>
</a>
</g>
</g>
<!-- Node1&#45;&gt;Node7 -->
<g id="edge6" class="edge">
<title>Node1&#45;&gt;Node7</title>
<path fill="none" stroke="#63b8ff" d="M316.98,-111.62C326.27,-93.68 346.75,-54.17 359.09,-30.35"/>
<polygon fill="#63b8ff" stroke="#63b8ff" points="362.08,-32.19 363.57,-21.7 355.86,-28.97 362.08,-32.19"/>
</g>
<!-- Node8 -->
<g id="node8" class="node">
<title>Node8</title>
<g id="a_node8"><a xlink:title=" ">
<polygon fill="#e0e0e0" stroke="#999999" points="422.42,-76 363.81,-76 363.81,-56 422.42,-56 422.42,-76"/>
<text text-anchor="middle" x="393.12" y="-63" font-family="Helvetica,sans-Serif" font-size="10.00">stdexcept</text>
</a>
</g>
</g>
<!-- Node1&#45;&gt;Node8 -->
<g id="edge7" class="edge">
<title>Node1&#45;&gt;Node8</title>
<path fill="none" stroke="#63b8ff" d="M326.22,-111.59C338.12,-103.67 355.38,-92.16 369.39,-82.82"/>
<polygon fill="#63b8ff" stroke="#63b8ff" points="371.26,-85.78 377.64,-77.32 367.38,-79.95 371.26,-85.78"/>
</g>
<!-- Node9 -->
<g id="node9" class="node">
<title>Node9</title>
<g id="a_node9"><a xlink:href="config_8h.html" target="_top" xlink:title="Header file for Animal Farm configuration.">
<polygon fill="white" stroke="#666666" points="499.98,-76 440.26,-76 440.26,-56 499.98,-56 499.98,-76"/>
<text text-anchor="middle" x="470.12" y="-63" font-family="Helvetica,sans-Serif" font-size="10.00">../config.h</text>
</a>
</g>
</g>
<!-- Node1&#45;&gt;Node9 -->
<g id="edge8" class="edge">
<title>Node1&#45;&gt;Node9</title>
<path fill="none" stroke="#63b8ff" d="M339.64,-111.59C365.08,-102.9 403.15,-89.89 431.61,-80.16"/>
<polygon fill="#63b8ff" stroke="#63b8ff" points="432.62,-83.52 440.95,-76.97 430.35,-76.89 432.62,-83.52"/>
</g>
<!-- Node11 -->
<g id="node11" class="node">
<title>Node11</title>
<g id="a_node11"><a xlink:href="Name_8h.html" target="_top" xlink:title="A utility class for managing names of things.">
<polygon fill="white" stroke="#666666" points="568.63,-76 517.6,-76 517.6,-56 568.63,-56 568.63,-76"/>
<text text-anchor="middle" x="543.12" y="-63" font-family="Helvetica,sans-Serif" font-size="10.00">Name.h</text>
</a>
</g>
</g>
<!-- Node1&#45;&gt;Node11 -->
<g id="edge11" class="edge">
<title>Node1&#45;&gt;Node11</title>
<path fill="none" stroke="#63b8ff" d="M355.64,-111.51C393.21,-103.21 449.2,-90.61 506.13,-76.68"/>
<polygon fill="#63b8ff" stroke="#63b8ff" points="506.81,-80.12 515.68,-74.33 505.13,-73.32 506.81,-80.12"/>
</g>
<!-- Node14 -->
<g id="node14" class="node">
<title>Node14</title>
<g id="a_node14"><a xlink:href="Trim_8h.html" target="_top" xlink:title="General string&#45;trimming functions.">
<polygon fill="white" stroke="#666666" points="631.45,-76 586.78,-76 586.78,-56 631.45,-56 631.45,-76"/>
<text text-anchor="middle" x="609.12" y="-63" font-family="Helvetica,sans-Serif" font-size="10.00">Trim.h</text>
</a>
</g>
</g>
<!-- Node1&#45;&gt;Node14 -->
<g id="edge14" class="edge">
<title>Node1&#45;&gt;Node14</title>
<path fill="none" stroke="#63b8ff" d="M381.44,-111.5C432.74,-103.97 504.49,-92.36 575.57,-76.38"/>
<polygon fill="#63b8ff" stroke="#63b8ff" points="576.06,-79.86 585.03,-74.23 574.5,-73.04 576.06,-79.86"/>
</g>
<!-- Node9&#45;&gt;Node7 -->
<g id="edge10" class="edge">
<title>Node9&#45;&gt;Node7</title>
<path fill="none" stroke="#63b8ff" d="M452.52,-55.59C437.19,-47.4 414.7,-35.37 396.93,-25.87"/>
<polygon fill="#63b8ff" stroke="#63b8ff" points="398.65,-22.82 388.18,-21.19 395.35,-28.99 398.65,-22.82"/>
</g>
<!-- Node10 -->
<g id="node10" class="node">
<title>Node10</title>
<g id="a_node10"><a xlink:title=" ">
<polygon fill="#e0e0e0" stroke="#999999" points="495.64,-20 444.6,-20 444.6,0 495.64,0 495.64,-20"/>
<text text-anchor="middle" x="470.12" y="-7" font-family="Helvetica,sans-Serif" font-size="10.00">iomanip</text>
</a>
</g>
</g>
<!-- Node9&#45;&gt;Node10 -->
<g id="edge9" class="edge">
<title>Node9&#45;&gt;Node10</title>
<path fill="none" stroke="#63b8ff" d="M470.12,-55.59C470.12,-49.01 470.12,-39.96 470.12,-31.73"/>
<polygon fill="#63b8ff" stroke="#63b8ff" points="473.62,-31.81 470.12,-21.81 466.62,-31.81 473.62,-31.81"/>
</g>
<!-- Node12 -->
<g id="node12" class="node">
<title>Node12</title>
<g id="a_node12"><a xlink:title=" ">
<polygon fill="#e0e0e0" stroke="#999999" points="558.57,-20 517.66,-20 517.66,0 558.57,0 558.57,-20"/>
<text text-anchor="middle" x="538.12" y="-7" font-family="Helvetica,sans-Serif" font-size="10.00">string</text>
</a>
</g>
</g>
<!-- Node11&#45;&gt;Node12 -->
<g id="edge12" class="edge">
<title>Node11&#45;&gt;Node12</title>
<path fill="none" stroke="#63b8ff" d="M542.24,-55.59C541.64,-49.01 540.8,-39.96 540.04,-31.73"/>
<polygon fill="#63b8ff" stroke="#63b8ff" points="543.52,-31.44 539.12,-21.81 536.55,-32.09 543.52,-31.44"/>
</g>
<!-- Node13 -->
<g id="node13" class="node">
<title>Node13</title>
<g id="a_node13"><a xlink:title=" ">
<polygon fill="#e0e0e0" stroke="#999999" points="619.85,-20 576.38,-20 576.38,0 619.85,0 619.85,-20"/>
<text text-anchor="middle" x="598.12" y="-7" font-family="Helvetica,sans-Serif" font-size="10.00">vector</text>
</a>
</g>
</g>
<!-- Node11&#45;&gt;Node13 -->
<g id="edge13" class="edge">
<title>Node11&#45;&gt;Node13</title>
<path fill="none" stroke="#63b8ff" d="M552.7,-55.59C560.35,-48.08 571.27,-37.35 580.49,-28.3"/>
<polygon fill="#63b8ff" stroke="#63b8ff" points="582.88,-30.86 587.57,-21.36 577.98,-25.87 582.88,-30.86"/>
</g>
</g>
</svg>
