<?xml version="1.0" encoding="UTF-8" standalone="no"?>
<!DOCTYPE svg PUBLIC "-//W3C//DTD SVG 1.1//EN"
 "http://www.w3.org/Graphics/SVG/1.1/DTD/svg11.dtd">
<!-- Generated by graphviz version 7.0.5 (20221223.1930)
 -->
<!-- Title: ee205_animal_farm&#45;aar0m/src/Utility/Name.h Pages: 1 -->
<svg width="225pt" height="84pt"
 viewBox="0.00 0.00 225.19 84.00" xmlns="http://www.w3.org/2000/svg" xmlns:xlink="http://www.w3.org/1999/xlink">
<g id="graph0" class="graph" transform="scale(1 1) rotate(0) translate(4 80)">
<title>ee205_animal_farm&#45;aar0m/src/Utility/Name.h</title>
<!-- Node1 -->
<g id="node1" class="node">
<title>Node1</title>
<g id="a_node1"><a xlink:title="A utility class for managing names of things.">
<polygon fill="#999999" stroke="#666666" points="217.28,-76 -0.09,-76 -0.09,-56 217.28,-56 217.28,-76"/>
<text text-anchor="middle" x="108.59" y="-63" font-family="Helvetica,sans-Serif" font-size="10.00">ee205_animal_farm&#45;aar0m/src/Utility/Name.h</text>
</a>
</g>
</g>
<!-- Node2 -->
<g id="node2" class="node">
<title>Node2</title>
<g id="a_node2"><a xlink:title=" ">
<polygon fill="#e0e0e0" stroke="#999999" points="99.05,-20 58.14,-20 58.14,0 99.05,0 99.05,-20"/>
<text text-anchor="middle" x="78.59" y="-7" font-family="Helvetica,sans-Serif" font-size="10.00">string</text>
</a>
</g>
</g>
<!-- Node1&#45;&gt;Node2 -->
<g id="edge1" class="edge">
<title>Node1&#45;&gt;Node2</title>
<path fill="none" stroke="#63b8ff" d="M103.37,-55.59C99.5,-48.63 94.09,-38.89 89.31,-30.29"/>
<polygon fill="#63b8ff" stroke="#63b8ff" points="92.41,-28.66 84.49,-21.62 86.29,-32.06 92.41,-28.66"/>
</g>
<!-- Node3 -->
<g id="node3" class="node">
<title>Node3</title>
<g id="a_node3"><a xlink:title=" ">
<polygon fill="#e0e0e0" stroke="#999999" points="160.33,-20 116.86,-20 116.86,0 160.33,0 160.33,-20"/>
<text text-anchor="middle" x="138.59" y="-7" font-family="Helvetica,sans-Serif" font-size="10.00">vector</text>
</a>
</g>
</g>
<!-- Node1&#45;&gt;Node3 -->
<g id="edge2" class="edge">
<title>Node1&#45;&gt;Node3</title>
<path fill="none" stroke="#63b8ff" d="M113.82,-55.59C117.69,-48.63 123.1,-38.89 127.88,-30.29"/>
<polygon fill="#63b8ff" stroke="#63b8ff" points="130.9,-32.06 132.69,-21.62 124.78,-28.66 130.9,-32.06"/>
</g>
</g>
</svg>
