<?xml version="1.0" encoding="UTF-8" standalone="no"?>
<!DOCTYPE svg PUBLIC "-//W3C//DTD SVG 1.1//EN"
 "http://www.w3.org/Graphics/SVG/1.1/DTD/svg11.dtd">
<!-- Generated by graphviz version 7.0.5 (20221223.1930)
 -->
<!-- Title: ee205_animal_farm&#45;aar0m/src/Container/Node.h Pages: 1 -->
<svg width="308pt" height="140pt"
 viewBox="0.00 0.00 307.68 140.00" xmlns="http://www.w3.org/2000/svg" xmlns:xlink="http://www.w3.org/1999/xlink">
<g id="graph0" class="graph" transform="scale(1 1) rotate(0) translate(4 136)">
<title>ee205_animal_farm&#45;aar0m/src/Container/Node.h</title>
<!-- Node1 -->
<g id="node1" class="node">
<title>Node1</title>
<g id="a_node1"><a xlink:title="Node class for objects to inherit.">
<polygon fill="#999999" stroke="#666666" points="284.34,-132 50.68,-132 50.68,-112 284.34,-112 284.34,-132"/>
<text text-anchor="middle" x="167.51" y="-119" font-family="Helvetica,sans-Serif" font-size="10.00">ee205_animal_farm&#45;aar0m/src/Container/Node.h</text>
</a>
</g>
</g>
<!-- Node2 -->
<g id="node2" class="node">
<title>Node2</title>
<g id="a_node2"><a xlink:href="config_8h.html" target="_top" xlink:title="Header file for Animal Farm configuration.">
<polygon fill="white" stroke="#666666" points="89.37,-76 29.65,-76 29.65,-56 89.37,-56 89.37,-76"/>
<text text-anchor="middle" x="59.51" y="-63" font-family="Helvetica,sans-Serif" font-size="10.00">../config.h</text>
</a>
</g>
</g>
<!-- Node1&#45;&gt;Node2 -->
<g id="edge1" class="edge">
<title>Node1&#45;&gt;Node2</title>
<path fill="none" stroke="#63b8ff" d="M148.7,-111.59C132.15,-103.32 107.8,-91.14 88.72,-81.6"/>
<polygon fill="#63b8ff" stroke="#63b8ff" points="90.33,-78.5 79.82,-77.16 87.2,-84.76 90.33,-78.5"/>
</g>
<!-- Node5 -->
<g id="node5" class="node">
<title>Node5</title>
<g id="a_node5"><a xlink:title=" ">
<polygon fill="#e0e0e0" stroke="#999999" points="227.47,-76 107.55,-76 107.55,-56 227.47,-56 227.47,-76"/>
<text text-anchor="middle" x="167.51" y="-63" font-family="Helvetica,sans-Serif" font-size="10.00">boost/core/typeinfo.hpp</text>
</a>
</g>
</g>
<!-- Node1&#45;&gt;Node5 -->
<g id="edge4" class="edge">
<title>Node1&#45;&gt;Node5</title>
<path fill="none" stroke="#63b8ff" d="M167.51,-111.59C167.51,-105.01 167.51,-95.96 167.51,-87.73"/>
<polygon fill="#63b8ff" stroke="#63b8ff" points="171.01,-87.81 167.51,-77.81 164.01,-87.81 171.01,-87.81"/>
</g>
<!-- Node6 -->
<g id="node6" class="node">
<title>Node6</title>
<g id="a_node6"><a xlink:title=" ">
<polygon fill="#e0e0e0" stroke="#999999" points="299.86,-76 245.16,-76 245.16,-56 299.86,-56 299.86,-76"/>
<text text-anchor="middle" x="272.51" y="-63" font-family="Helvetica,sans-Serif" font-size="10.00">iostream</text>
</a>
</g>
</g>
<!-- Node1&#45;&gt;Node6 -->
<g id="edge5" class="edge">
<title>Node1&#45;&gt;Node6</title>
<path fill="none" stroke="#63b8ff" d="M185.8,-111.59C201.81,-103.36 225.34,-91.26 243.85,-81.74"/>
<polygon fill="#63b8ff" stroke="#63b8ff" points="245.44,-84.86 252.73,-77.17 242.24,-78.63 245.44,-84.86"/>
</g>
<!-- Node3 -->
<g id="node3" class="node">
<title>Node3</title>
<g id="a_node3"><a xlink:title=" ">
<polygon fill="#e0e0e0" stroke="#999999" points="51.03,-20 -0.01,-20 -0.01,0 51.03,0 51.03,-20"/>
<text text-anchor="middle" x="25.51" y="-7" font-family="Helvetica,sans-Serif" font-size="10.00">iomanip</text>
</a>
</g>
</g>
<!-- Node2&#45;&gt;Node3 -->
<g id="edge2" class="edge">
<title>Node2&#45;&gt;Node3</title>
<path fill="none" stroke="#63b8ff" d="M53.59,-55.59C49.15,-48.55 42.93,-38.67 37.47,-30"/>
<polygon fill="#63b8ff" stroke="#63b8ff" points="40.46,-28.18 32.17,-21.58 34.54,-31.91 40.46,-28.18"/>
</g>
<!-- Node4 -->
<g id="node4" class="node">
<title>Node4</title>
<g id="a_node4"><a xlink:title=" ">
<polygon fill="#e0e0e0" stroke="#999999" points="118.42,-20 68.6,-20 68.6,0 118.42,0 118.42,-20"/>
<text text-anchor="middle" x="93.51" y="-7" font-family="Helvetica,sans-Serif" font-size="10.00">random</text>
</a>
</g>
</g>
<!-- Node2&#45;&gt;Node4 -->
<g id="edge3" class="edge">
<title>Node2&#45;&gt;Node4</title>
<path fill="none" stroke="#63b8ff" d="M65.43,-55.59C69.87,-48.55 76.09,-38.67 81.55,-30"/>
<polygon fill="#63b8ff" stroke="#63b8ff" points="84.48,-31.91 86.85,-21.58 78.56,-28.18 84.48,-31.91"/>
</g>
</g>
</svg>
