<?xml version="1.0" encoding="UTF-8" standalone="no"?>
<!DOCTYPE svg PUBLIC "-//W3C//DTD SVG 1.1//EN"
 "http://www.w3.org/Graphics/SVG/1.1/DTD/svg11.dtd">
<!-- Generated by graphviz version 7.0.5 (20221223.1930)
 -->
<!-- Title: ee205_animal_farm&#45;aar0m/src/Container/Node.h Pages: 1 -->
<!--zoomable 252 -->
<svg id="main" version="1.1" xmlns="http://www.w3.org/2000/svg" xmlns:xlink="http://www.w3.org/1999/xlink" xml:space="preserve" onload="init(evt)">
<style type="text/css"><![CDATA[
.edge:hover path { stroke: red; }
.edge:hover polygon { stroke: red; fill: red; }
]]></style>
<script type="text/javascript"><![CDATA[
var edges = document.getElementsByTagName('g');
if (edges && edges.length) {
  for (var i=0;i<edges.length;i++) {
    if (edges[i].id.substr(0,4)=='edge') {
      edges[i].setAttribute('class','edge');
    }
  }
}
]]></script>
        <defs>
                <circle id="rim" cx="0" cy="0" r="7"/>
                <circle id="rim2" cx="0" cy="0" r="3.5"/>
                <g id="zoomPlus">
                        <use xlink:href="#rim" fill="#404040">
                                <set attributeName="fill" to="#808080" begin="zoomplus.mouseover" end="zoomplus.mouseout"/>
                        </use>
                        <path d="M-4,0h8M0,-4v8" fill="none" stroke="white" stroke-width="1.5" pointer-events="none"/>
                </g>
                <g id="zoomMin">
                        <use xlink:href="#rim" fill="#404040">
                                <set attributeName="fill" to="#808080" begin="zoomminus.mouseover" end="zoomminus.mouseout"/>
                        </use>
                        <path d="M-4,0h8" fill="none" stroke="white" stroke-width="1.5" pointer-events="none"/>
                </g>
                <g id="dirArrow">
                        <path fill="none" stroke="white" stroke-width="1.5" d="M0,-3.0v7 M-2.5,-0.5L0,-3.0L2.5,-0.5"/>
                </g>
               <g id="resetDef">
                       <use xlink:href="#rim2" fill="#404040">
                               <set attributeName="fill" to="#808080" begin="reset.mouseover" end="reset.mouseout"/>
                       </use>
               </g>
        </defs>

<script type="text/javascript">
var viewWidth = 1125;
var viewHeight = 252;
var sectionId = 'dynsection-1';
</script>
<script xlink:href="svgpan.js"/>
<svg id="graph" class="graph">
<g id="viewport">
<title>ee205_animal_farm&#45;aar0m/src/Container/Node.h</title>
<!-- Node1 -->
<g id="node1" class="node">
<title>Node1</title>
<g id="a_node1"><a xlink:title="Node class for objects to inherit.">
<polygon fill="#999999" stroke="#666666" points="646.72,-244 413.05,-244 413.05,-224 646.72,-224 646.72,-244"/>
<text text-anchor="middle" x="529.88" y="-231" font-family="Helvetica,sans-Serif" font-size="10.00">ee205_animal_farm&#45;aar0m/src/Container/Node.h</text>
</a>
</g>
</g>
<!-- Node2 -->
<g id="node2" class="node">
<title>Node2</title>
<g id="a_node2"><a xlink:href="Animal_8h.html" target="_top" xlink:title="Are there any malls for animals?">
<polygon fill="white" stroke="#666666" points="572.58,-188 345.18,-188 345.18,-168 572.58,-168 572.58,-188"/>
<text text-anchor="middle" x="458.88" y="-175" font-family="Helvetica,sans-Serif" font-size="10.00">ee205_animal_farm&#45;aar0m/src/Animal/Animal.h</text>
</a>
</g>
</g>
<!-- Node1&#45;&gt;Node2 -->
<g id="edge1" class="edge">
<title>Node1&#45;&gt;Node2</title>
<path fill="none" stroke="#63b8ff" d="M508.42,-216.68C496.21,-207.39 481.35,-196.09 471.11,-188.3"/>
<polygon fill="#63b8ff" stroke="#63b8ff" points="506.23,-219.41 516.31,-222.68 510.47,-213.84 506.23,-219.41"/>
</g>
<!-- Node11 -->
<g id="node11" class="node">
<title>Node11</title>
<g id="a_node11"><a xlink:href="Container_8h.html" target="_top" xlink:title="Container class for objects to be storage and use.">
<polygon fill="white" stroke="#666666" points="857.17,-132 604.59,-132 604.59,-112 857.17,-112 857.17,-132"/>
<text text-anchor="middle" x="730.88" y="-119" font-family="Helvetica,sans-Serif" font-size="10.00">ee205_animal_farm&#45;aar0m/src/Container/Container.h</text>
</a>
</g>
</g>
<!-- Node1&#45;&gt;Node11 -->
<g id="edge12" class="edge">
<title>Node1&#45;&gt;Node11</title>
<path fill="none" stroke="#63b8ff" d="M557.1,-218.1C599.21,-195.06 678.89,-151.45 713.79,-132.35"/>
<polygon fill="#63b8ff" stroke="#63b8ff" points="555.44,-215.02 548.35,-222.89 558.8,-221.16 555.44,-215.02"/>
</g>
<!-- Node3 -->
<g id="node3" class="node">
<title>Node3</title>
<g id="a_node3"><a xlink:href="Animal_8cpp.html" target="_top" xlink:title="Are there any malls for animals?">
<polygon fill="white" stroke="#666666" points="237.64,-20 0.12,-20 0.12,0 237.64,0 237.64,-20"/>
<text text-anchor="middle" x="118.88" y="-7" font-family="Helvetica,sans-Serif" font-size="10.00">ee205_animal_farm&#45;aar0m/src/Animal/Animal.cpp</text>
</a>
</g>
</g>
<!-- Node2&#45;&gt;Node3 -->
<g id="edge2" class="edge">
<title>Node2&#45;&gt;Node3</title>
<path fill="none" stroke="#63b8ff" d="M361.09,-166.01C254.96,-151.84 95.67,-123.23 58.88,-76 42.56,-55.04 75.7,-32.72 98.9,-20.46"/>
<polygon fill="#63b8ff" stroke="#63b8ff" points="360.6,-169.48 370.97,-167.31 361.51,-162.54 360.6,-169.48"/>
</g>
<!-- Node4 -->
<g id="node4" class="node">
<title>Node4</title>
<g id="a_node4"><a xlink:href="Mammal_8h.html" target="_top" xlink:title="Mammals? More like &quot;ma pals!&quot;.">
<polygon fill="white" stroke="#666666" points="580.12,-132 337.64,-132 337.64,-112 580.12,-112 580.12,-132"/>
<text text-anchor="middle" x="458.88" y="-119" font-family="Helvetica,sans-Serif" font-size="10.00">ee205_animal_farm&#45;aar0m/src/Mammal/Mammal.h</text>
</a>
</g>
</g>
<!-- Node2&#45;&gt;Node4 -->
<g id="edge3" class="edge">
<title>Node2&#45;&gt;Node4</title>
<path fill="none" stroke="#63b8ff" d="M458.88,-156.13C458.88,-147.9 458.88,-138.85 458.88,-132.3"/>
<polygon fill="#63b8ff" stroke="#63b8ff" points="455.38,-156.08 458.88,-166.08 462.38,-156.08 455.38,-156.08"/>
</g>
<!-- Node5 -->
<g id="node5" class="node">
<title>Node5</title>
<g id="a_node5"><a xlink:href="SingleLinkedList_8h.html" target="_top" xlink:title="Singly Linked List (SLL) class to store Nodes.">
<polygon fill="white" stroke="#666666" points="878.14,-76 595.63,-76 595.63,-56 878.14,-56 878.14,-76"/>
<text text-anchor="middle" x="736.88" y="-63" font-family="Helvetica,sans-Serif" font-size="10.00">ee205_animal_farm&#45;aar0m/src/Container/SingleLinkedList.h</text>
</a>
</g>
</g>
<!-- Node4&#45;&gt;Node5 -->
<g id="edge4" class="edge">
<title>Node4&#45;&gt;Node5</title>
<path fill="none" stroke="#63b8ff" d="M518.73,-109.37C569.37,-99.54 641.02,-85.62 688.2,-76.46"/>
<polygon fill="#63b8ff" stroke="#63b8ff" points="518.26,-105.9 509.11,-111.24 519.59,-112.77 518.26,-105.9"/>
</g>
<!-- Node8 -->
<g id="node8" class="node">
<title>Node8</title>
<g id="a_node8"><a xlink:href="Mammal_2Cat_2Cat_8h.html" target="_top" xlink:title="Meow meow meow? Meow meow meow meow meow meow!">
<polygon fill="white" stroke="#666666" points="578.19,-76 339.58,-76 339.58,-56 578.19,-56 578.19,-76"/>
<text text-anchor="middle" x="458.88" y="-63" font-family="Helvetica,sans-Serif" font-size="10.00">ee205_animal_farm&#45;aar0m/src/Mammal/Cat/Cat.h</text>
</a>
</g>
</g>
<!-- Node4&#45;&gt;Node8 -->
<g id="edge7" class="edge">
<title>Node4&#45;&gt;Node8</title>
<path fill="none" stroke="#63b8ff" d="M458.88,-100.13C458.88,-91.9 458.88,-82.85 458.88,-76.3"/>
<polygon fill="#63b8ff" stroke="#63b8ff" points="455.38,-100.08 458.88,-110.08 462.38,-100.08 455.38,-100.08"/>
</g>
<!-- Node10 -->
<g id="node10" class="node">
<title>Node10</title>
<g id="a_node10"><a xlink:href="Mammal_8cpp.html" target="_top" xlink:title="Mammals? More like &quot;ma pals!&quot;.">
<polygon fill="white" stroke="#666666" points="321.68,-76 68.08,-76 68.08,-56 321.68,-56 321.68,-76"/>
<text text-anchor="middle" x="194.88" y="-63" font-family="Helvetica,sans-Serif" font-size="10.00">ee205_animal_farm&#45;aar0m/src/Mammal/Mammal.cpp</text>
</a>
</g>
</g>
<!-- Node4&#45;&gt;Node10 -->
<g id="edge11" class="edge">
<title>Node4&#45;&gt;Node10</title>
<path fill="none" stroke="#63b8ff" d="M401.44,-109.25C353.39,-99.42 285.73,-85.58 241.12,-76.46"/>
<polygon fill="#63b8ff" stroke="#63b8ff" points="400.61,-112.65 411.11,-111.23 402.02,-105.8 400.61,-112.65"/>
</g>
<!-- Node6 -->
<g id="node6" class="node">
<title>Node6</title>
<g id="a_node6"><a xlink:href="SingleLinkedList_8cpp.html" target="_top" xlink:title="Singly Linked List (SLL) class to store Nodes.">
<polygon fill="white" stroke="#666666" points="1117.2,-20 824.56,-20 824.56,0 1117.2,0 1117.2,-20"/>
<text text-anchor="middle" x="970.88" y="-7" font-family="Helvetica,sans-Serif" font-size="10.00">ee205_animal_farm&#45;aar0m/src/Container/SingleLinkedList.cpp</text>
</a>
</g>
</g>
<!-- Node5&#45;&gt;Node6 -->
<g id="edge5" class="edge">
<title>Node5&#45;&gt;Node6</title>
<path fill="none" stroke="#63b8ff" d="M788.88,-53C831.4,-43.19 890.69,-29.51 929.9,-20.46"/>
<polygon fill="#63b8ff" stroke="#63b8ff" points="788.34,-49.53 779.38,-55.19 789.91,-56.35 788.34,-49.53"/>
</g>
<!-- Node7 -->
<g id="node7" class="node">
<title>Node7</title>
<g id="a_node7"><a xlink:href="main__catEmpire_8cpp_source.html" target="_top" xlink:title=" ">
<polygon fill="white" stroke="#666666" points="806.98,-20 560.78,-20 560.78,0 806.98,0 806.98,-20"/>
<text text-anchor="middle" x="683.88" y="-7" font-family="Helvetica,sans-Serif" font-size="10.00">ee205_animal_farm&#45;aar0m/src/main_catEmpire.cpp</text>
</a>
</g>
</g>
<!-- Node5&#45;&gt;Node7 -->
<g id="edge6" class="edge">
<title>Node5&#45;&gt;Node7</title>
<path fill="none" stroke="#63b8ff" d="M719.77,-47.57C710.87,-38.5 700.35,-27.78 693.01,-20.3"/>
<polygon fill="#63b8ff" stroke="#63b8ff" points="717.09,-49.83 726.59,-54.51 722.08,-44.93 717.09,-49.83"/>
</g>
<!-- Node8&#45;&gt;Node3 -->
<g id="edge8" class="edge">
<title>Node8&#45;&gt;Node3</title>
<path fill="none" stroke="#63b8ff" d="M388.01,-53.74C325.97,-43.89 236.85,-29.74 178.43,-20.46"/>
<polygon fill="#63b8ff" stroke="#63b8ff" points="387.35,-57.18 397.77,-55.29 388.45,-50.27 387.35,-57.18"/>
</g>
<!-- Node8&#45;&gt;Node7 -->
<g id="edge10" class="edge">
<title>Node8&#45;&gt;Node7</title>
<path fill="none" stroke="#63b8ff" d="M509.4,-52.88C550.25,-43.07 606.94,-29.47 644.48,-20.46"/>
<polygon fill="#63b8ff" stroke="#63b8ff" points="508.71,-49.44 499.8,-55.18 510.34,-56.25 508.71,-49.44"/>
</g>
<!-- Node9 -->
<g id="node9" class="node">
<title>Node9</title>
<g id="a_node9"><a xlink:href="Mammal_2Cat_2Cat_8cpp.html" target="_top" xlink:title="Meow meow meow? Meow meow meow meow meow meow!">
<polygon fill="white" stroke="#666666" points="543.25,-20 294.52,-20 294.52,0 543.25,0 543.25,-20"/>
<text text-anchor="middle" x="418.88" y="-7" font-family="Helvetica,sans-Serif" font-size="10.00">ee205_animal_farm&#45;aar0m/src/Mammal/Cat/Cat.cpp</text>
</a>
</g>
</g>
<!-- Node8&#45;&gt;Node9 -->
<g id="edge9" class="edge">
<title>Node8&#45;&gt;Node9</title>
<path fill="none" stroke="#63b8ff" d="M445.13,-46.44C438.6,-37.62 431.08,-27.47 425.77,-20.3"/>
<polygon fill="#63b8ff" stroke="#63b8ff" points="442.25,-48.43 451.01,-54.38 447.87,-44.26 442.25,-48.43"/>
</g>
<!-- Node11&#45;&gt;Node5 -->
<g id="edge13" class="edge">
<title>Node11&#45;&gt;Node5</title>
<path fill="none" stroke="#63b8ff" d="M733.17,-100.43C734.09,-92.11 735.11,-82.93 735.85,-76.3"/>
<polygon fill="#63b8ff" stroke="#63b8ff" points="729.72,-99.76 732.09,-110.09 736.68,-100.54 729.72,-99.76"/>
</g>
</g>
</svg>
        <g id="navigator" transform="translate(0 0)" fill="#404254">
                <rect fill="#f2f5e9" fill-opacity="0.5" stroke="#606060" stroke-width=".5" x="0" y="0" width="60" height="60"/>
                <use id="zoomplus" xlink:href="#zoomPlus" x="17" y="9" onmousedown="handleZoom(evt,'in')"/>
                <use id="zoomminus" xlink:href="#zoomMin" x="42" y="9" onmousedown="handleZoom(evt,'out')"/>
                <use id="reset" xlink:href="#resetDef" x="30" y="36" onmousedown="handleReset()"/>
                <g id="arrowUp" xlink:href="#dirArrow" transform="translate(30 24)" onmousedown="handlePan(0,-1)">
                  <use xlink:href="#rim" fill="#404040">
                        <set attributeName="fill" to="#808080" begin="arrowUp.mouseover" end="arrowUp.mouseout"/>
                  </use>
                  <path fill="none" stroke="white" stroke-width="1.5" d="M0,-3.0v7 M-2.5,-0.5L0,-3.0L2.5,-0.5"/>
                </g>
                <g id="arrowRight" xlink:href="#dirArrow" transform="rotate(90) translate(36 -43)" onmousedown="handlePan(1,0)">
                  <use xlink:href="#rim" fill="#404040">
                        <set attributeName="fill" to="#808080" begin="arrowRight.mouseover" end="arrowRight.mouseout"/>
                  </use>
                  <path fill="none" stroke="white" stroke-width="1.5" d="M0,-3.0v7 M-2.5,-0.5L0,-3.0L2.5,-0.5"/>
                </g>
                <g id="arrowDown" xlink:href="#dirArrow" transform="rotate(180) translate(-30 -48)" onmousedown="handlePan(0,1)">
                  <use xlink:href="#rim" fill="#404040">
                        <set attributeName="fill" to="#808080" begin="arrowDown.mouseover" end="arrowDown.mouseout"/>
                  </use>
                  <path fill="none" stroke="white" stroke-width="1.5" d="M0,-3.0v7 M-2.5,-0.5L0,-3.0L2.5,-0.5"/>
                </g>
                <g id="arrowLeft" xlink:href="#dirArrow" transform="rotate(270) translate(-36 17)" onmousedown="handlePan(-1,0)">
                  <use xlink:href="#rim" fill="#404040">
                        <set attributeName="fill" to="#808080" begin="arrowLeft.mouseover" end="arrowLeft.mouseout"/>
                  </use>
                  <path fill="none" stroke="white" stroke-width="1.5" d="M0,-3.0v7 M-2.5,-0.5L0,-3.0L2.5,-0.5"/>
                </g>
        </g>
        <svg viewBox="0 0 15 15" width="100%" height="30px" preserveAspectRatio="xMaxYMin meet">
         <g id="arrow_out" transform="scale(0.3 0.3)">
          <a xlink:href="Node_8h__dep__incl_org.svg" target="_base">
           <rect id="button" ry="5" rx="5" y="6" x="6" height="38" width="38"
                fill="#f2f5e9" fill-opacity="0.5" stroke="#606060" stroke-width="1.0"/>
           <path id="arrow"
             d="M 11.500037,31.436501 C 11.940474,20.09759 22.043105,11.32322 32.158766,21.979434 L 37.068811,17.246167 C 37.068811,17.246167 37.088388,32 37.088388,32 L 22.160133,31.978069 C 22.160133,31.978069 26.997745,27.140456 26.997745,27.140456 C 18.528582,18.264221 13.291696,25.230495 11.500037,31.436501 z"
             style="fill:#404040;"/>
          </a>
         </g>
        </svg>
</svg>
