<?xml version="1.0" encoding="UTF-8" standalone="no"?>
<!DOCTYPE svg PUBLIC "-//W3C//DTD SVG 1.1//EN"
 "http://www.w3.org/Graphics/SVG/1.1/DTD/svg11.dtd">
<!-- Generated by graphviz version 7.0.5 (20221223.1930)
 -->
<!-- Title: ee205_animal_farm&#45;aar0m/src/Container/SingleLinkedList.h Pages: 1 -->
<!--zoomable 308 -->
<svg id="main" version="1.1" xmlns="http://www.w3.org/2000/svg" xmlns:xlink="http://www.w3.org/1999/xlink" xml:space="preserve" onload="init(evt)">
<style type="text/css"><![CDATA[
.edge:hover path { stroke: red; }
.edge:hover polygon { stroke: red; fill: red; }
]]></style>
<script type="text/javascript"><![CDATA[
var edges = document.getElementsByTagName('g');
if (edges && edges.length) {
  for (var i=0;i<edges.length;i++) {
    if (edges[i].id.substr(0,4)=='edge') {
      edges[i].setAttribute('class','edge');
    }
  }
}
]]></script>
        <defs>
                <circle id="rim" cx="0" cy="0" r="7"/>
                <circle id="rim2" cx="0" cy="0" r="3.5"/>
                <g id="zoomPlus">
                        <use xlink:href="#rim" fill="#404040">
                                <set attributeName="fill" to="#808080" begin="zoomplus.mouseover" end="zoomplus.mouseout"/>
                        </use>
                        <path d="M-4,0h8M0,-4v8" fill="none" stroke="white" stroke-width="1.5" pointer-events="none"/>
                </g>
                <g id="zoomMin">
                        <use xlink:href="#rim" fill="#404040">
                                <set attributeName="fill" to="#808080" begin="zoomminus.mouseover" end="zoomminus.mouseout"/>
                        </use>
                        <path d="M-4,0h8" fill="none" stroke="white" stroke-width="1.5" pointer-events="none"/>
                </g>
                <g id="dirArrow">
                        <path fill="none" stroke="white" stroke-width="1.5" d="M0,-3.0v7 M-2.5,-0.5L0,-3.0L2.5,-0.5"/>
                </g>
               <g id="resetDef">
                       <use xlink:href="#rim2" fill="#404040">
                               <set attributeName="fill" to="#808080" begin="reset.mouseover" end="reset.mouseout"/>
                       </use>
               </g>
        </defs>

<script type="text/javascript">
var viewWidth = 577;
var viewHeight = 308;
var sectionId = 'dynsection-0';
</script>
<script xlink:href="svgpan.js"/>
<svg id="graph" class="graph">
<g id="viewport">
<title>ee205_animal_farm&#45;aar0m/src/Container/SingleLinkedList.h</title>
<!-- Node1 -->
<g id="node1" class="node">
<title>Node1</title>
<g id="a_node1"><a xlink:title="Singly Linked List (SLL) class to store Nodes.">
<polygon fill="#999999" stroke="#666666" points="515.43,-300 232.92,-300 232.92,-280 515.43,-280 515.43,-300"/>
<text text-anchor="middle" x="374.17" y="-287" font-family="Helvetica,sans-Serif" font-size="10.00">ee205_animal_farm&#45;aar0m/src/Container/SingleLinkedList.h</text>
</a>
</g>
</g>
<!-- Node2 -->
<g id="node2" class="node">
<title>Node2</title>
<g id="a_node2"><a xlink:href="Mammal_8h.html" target="_top" xlink:title="Mammals? More like &quot;ma pals!&quot;.">
<polygon fill="white" stroke="#666666" points="322.3,-244 210.05,-244 210.05,-224 322.3,-224 322.3,-244"/>
<text text-anchor="middle" x="266.17" y="-231" font-family="Helvetica,sans-Serif" font-size="10.00">../Mammal/Mammal.h</text>
</a>
</g>
</g>
<!-- Node1&#45;&gt;Node2 -->
<g id="edge1" class="edge">
<title>Node1&#45;&gt;Node2</title>
<path fill="none" stroke="#63b8ff" d="M355.36,-279.59C338.81,-271.32 314.46,-259.14 295.38,-249.6"/>
<polygon fill="#63b8ff" stroke="#63b8ff" points="296.99,-246.5 286.49,-245.16 293.86,-252.76 296.99,-246.5"/>
</g>
<!-- Node10 -->
<g id="node10" class="node">
<title>Node10</title>
<g id="a_node10"><a xlink:title=" ">
<polygon fill="#e0e0e0" stroke="#999999" points="569.4,-132 520.94,-132 520.94,-112 569.4,-112 569.4,-132"/>
<text text-anchor="middle" x="545.17" y="-119" font-family="Helvetica,sans-Serif" font-size="10.00">cassert</text>
</a>
</g>
</g>
<!-- Node1&#45;&gt;Node10 -->
<g id="edge20" class="edge">
<title>Node1&#45;&gt;Node10</title>
<path fill="none" stroke="#63b8ff" d="M383.86,-279.6C411.6,-252.66 491.69,-174.92 527.5,-140.15"/>
<polygon fill="#63b8ff" stroke="#63b8ff" points="529.77,-142.83 534.51,-133.35 524.9,-137.81 529.77,-142.83"/>
</g>
<!-- Node16 -->
<g id="node16" class="node">
<title>Node16</title>
<g id="a_node16"><a xlink:href="Container_8h.html" target="_top" xlink:title="Container class for objects to be storage and use.">
<polygon fill="white" stroke="#666666" points="407.87,-244 340.47,-244 340.47,-224 407.87,-224 407.87,-244"/>
<text text-anchor="middle" x="374.17" y="-231" font-family="Helvetica,sans-Serif" font-size="10.00">Container.h</text>
</a>
</g>
</g>
<!-- Node1&#45;&gt;Node16 -->
<g id="edge18" class="edge">
<title>Node1&#45;&gt;Node16</title>
<path fill="none" stroke="#63b8ff" d="M374.17,-279.59C374.17,-273.01 374.17,-263.96 374.17,-255.73"/>
<polygon fill="#63b8ff" stroke="#63b8ff" points="377.67,-255.81 374.17,-245.81 370.67,-255.81 377.67,-255.81"/>
</g>
<!-- Node3 -->
<g id="node3" class="node">
<title>Node3</title>
<g id="a_node3"><a xlink:href="Animal_8h.html" target="_top" xlink:title="Are there any malls for animals?">
<polygon fill="white" stroke="#666666" points="406.26,-188 310.09,-188 310.09,-168 406.26,-168 406.26,-188"/>
<text text-anchor="middle" x="358.17" y="-175" font-family="Helvetica,sans-Serif" font-size="10.00">../Animal/Animal.h</text>
</a>
</g>
</g>
<!-- Node2&#45;&gt;Node3 -->
<g id="edge2" class="edge">
<title>Node2&#45;&gt;Node3</title>
<path fill="none" stroke="#63b8ff" d="M282.2,-223.59C295.96,-215.51 316.08,-203.71 332.15,-194.27"/>
<polygon fill="#63b8ff" stroke="#63b8ff" points="333.86,-197.33 340.72,-189.25 330.32,-191.29 333.86,-197.33"/>
</g>
<!-- Node13 -->
<g id="node13" class="node">
<title>Node13</title>
<g id="a_node13"><a xlink:href="Gender_8h.html" target="_top" xlink:title="Gender class to be used for Mammals.">
<polygon fill="white" stroke="#666666" points="167.92,-188 74.42,-188 74.42,-168 167.92,-168 167.92,-188"/>
<text text-anchor="middle" x="121.17" y="-175" font-family="Helvetica,sans-Serif" font-size="10.00">../Utility/Gender.h</text>
</a>
</g>
</g>
<!-- Node2&#45;&gt;Node13 -->
<g id="edge14" class="edge">
<title>Node2&#45;&gt;Node13</title>
<path fill="none" stroke="#63b8ff" d="M240.92,-223.59C217.77,-214.97 183.25,-202.12 157.21,-192.42"/>
<polygon fill="#63b8ff" stroke="#63b8ff" points="158.64,-189.22 148.04,-189.01 156.19,-195.78 158.64,-189.22"/>
</g>
<!-- Node4 -->
<g id="node4" class="node">
<title>Node4</title>
<g id="a_node4"><a xlink:href="Node_8h.html" target="_top" xlink:title="Node class for objects to inherit.">
<polygon fill="white" stroke="#666666" points="317.39,-132 214.95,-132 214.95,-112 317.39,-112 317.39,-132"/>
<text text-anchor="middle" x="266.17" y="-119" font-family="Helvetica,sans-Serif" font-size="10.00">../Container/Node.h</text>
</a>
</g>
</g>
<!-- Node3&#45;&gt;Node4 -->
<g id="edge3" class="edge">
<title>Node3&#45;&gt;Node4</title>
<path fill="none" stroke="#63b8ff" d="M342.15,-167.59C328.38,-159.51 308.27,-147.71 292.19,-138.27"/>
<polygon fill="#63b8ff" stroke="#63b8ff" points="294.02,-135.29 283.63,-133.25 290.48,-141.33 294.02,-135.29"/>
</g>
<!-- Node5 -->
<g id="node5" class="node">
<title>Node5</title>
<g id="a_node5"><a xlink:href="config_8h.html" target="_top" xlink:title="Header file for Animal Farm configuration.">
<polygon fill="white" stroke="#666666" points="202.03,-76 142.31,-76 142.31,-56 202.03,-56 202.03,-76"/>
<text text-anchor="middle" x="172.17" y="-63" font-family="Helvetica,sans-Serif" font-size="10.00">../config.h</text>
</a>
</g>
</g>
<!-- Node3&#45;&gt;Node5 -->
<g id="edge9" class="edge">
<title>Node3&#45;&gt;Node5</title>
<path fill="none" stroke="#63b8ff" d="M309.76,-172.51C277.38,-167.32 235.5,-156.13 206.17,-132 192.19,-120.5 183.25,-101.72 178.07,-87.3"/>
<polygon fill="#63b8ff" stroke="#63b8ff" points="181.44,-86.34 175.03,-77.9 174.77,-88.49 181.44,-86.34"/>
</g>
<!-- Node9 -->
<g id="node9" class="node">
<title>Node9</title>
<g id="a_node9"><a xlink:title=" ">
<polygon fill="#e0e0e0" stroke="#999999" points="473.52,-76 418.83,-76 418.83,-56 473.52,-56 473.52,-76"/>
<text text-anchor="middle" x="446.17" y="-63" font-family="Helvetica,sans-Serif" font-size="10.00">iostream</text>
</a>
</g>
</g>
<!-- Node3&#45;&gt;Node9 -->
<g id="edge12" class="edge">
<title>Node3&#45;&gt;Node9</title>
<path fill="none" stroke="#63b8ff" d="M406.52,-171.14C431.13,-165.44 458.98,-154.19 474.17,-132 484.21,-117.34 473.97,-98.5 463.16,-84.88"/>
<polygon fill="#63b8ff" stroke="#63b8ff" points="466.01,-82.82 456.82,-77.54 460.71,-87.4 466.01,-82.82"/>
</g>
<!-- Node3&#45;&gt;Node10 -->
<g id="edge10" class="edge">
<title>Node3&#45;&gt;Node10</title>
<path fill="none" stroke="#63b8ff" d="M390.75,-167.59C424.03,-157.98 475.55,-143.11 509.81,-133.21"/>
<polygon fill="#63b8ff" stroke="#63b8ff" points="510.62,-136.62 519.26,-130.48 508.68,-129.89 510.62,-136.62"/>
</g>
<!-- Node11 -->
<g id="node11" class="node">
<title>Node11</title>
<g id="a_node11"><a xlink:title=" ">
<polygon fill="#e0e0e0" stroke="#999999" points="381.13,-132 335.22,-132 335.22,-112 381.13,-112 381.13,-132"/>
<text text-anchor="middle" x="358.17" y="-119" font-family="Helvetica,sans-Serif" font-size="10.00">cstring</text>
</a>
</g>
</g>
<!-- Node3&#45;&gt;Node11 -->
<g id="edge11" class="edge">
<title>Node3&#45;&gt;Node11</title>
<path fill="none" stroke="#63b8ff" d="M358.17,-167.59C358.17,-161.01 358.17,-151.96 358.17,-143.73"/>
<polygon fill="#63b8ff" stroke="#63b8ff" points="361.67,-143.81 358.17,-133.81 354.67,-143.81 361.67,-143.81"/>
</g>
<!-- Node12 -->
<g id="node12" class="node">
<title>Node12</title>
<g id="a_node12"><a xlink:title=" ">
<polygon fill="#e0e0e0" stroke="#999999" points="465.19,-132 399.15,-132 399.15,-112 465.19,-112 465.19,-132"/>
<text text-anchor="middle" x="432.17" y="-119" font-family="Helvetica,sans-Serif" font-size="10.00">string_view</text>
</a>
</g>
</g>
<!-- Node3&#45;&gt;Node12 -->
<g id="edge13" class="edge">
<title>Node3&#45;&gt;Node12</title>
<path fill="none" stroke="#63b8ff" d="M371.06,-167.59C381.89,-159.7 397.58,-148.24 410.36,-138.92"/>
<polygon fill="#63b8ff" stroke="#63b8ff" points="412.19,-141.91 418.21,-133.19 408.07,-136.26 412.19,-141.91"/>
</g>
<!-- Node4&#45;&gt;Node5 -->
<g id="edge4" class="edge">
<title>Node4&#45;&gt;Node5</title>
<path fill="none" stroke="#63b8ff" d="M249.8,-111.59C235.6,-103.44 214.79,-91.48 198.29,-82"/>
<polygon fill="#63b8ff" stroke="#63b8ff" points="200.4,-79.18 189.99,-77.23 196.91,-85.25 200.4,-79.18"/>
</g>
<!-- Node8 -->
<g id="node8" class="node">
<title>Node8</title>
<g id="a_node8"><a xlink:title=" ">
<polygon fill="#e0e0e0" stroke="#999999" points="340.13,-76 220.21,-76 220.21,-56 340.13,-56 340.13,-76"/>
<text text-anchor="middle" x="280.17" y="-63" font-family="Helvetica,sans-Serif" font-size="10.00">boost/core/typeinfo.hpp</text>
</a>
</g>
</g>
<!-- Node4&#45;&gt;Node8 -->
<g id="edge7" class="edge">
<title>Node4&#45;&gt;Node8</title>
<path fill="none" stroke="#63b8ff" d="M268.61,-111.59C270.34,-104.93 272.72,-95.75 274.87,-87.44"/>
<polygon fill="#63b8ff" stroke="#63b8ff" points="278.26,-88.32 277.38,-77.76 271.48,-86.56 278.26,-88.32"/>
</g>
<!-- Node4&#45;&gt;Node9 -->
<g id="edge8" class="edge">
<title>Node4&#45;&gt;Node9</title>
<path fill="none" stroke="#63b8ff" d="M297.53,-111.59C328.07,-102.43 374.58,-88.48 407.42,-78.62"/>
<polygon fill="#63b8ff" stroke="#63b8ff" points="408.4,-81.99 416.97,-75.76 406.39,-75.28 408.4,-81.99"/>
</g>
<!-- Node6 -->
<g id="node6" class="node">
<title>Node6</title>
<g id="a_node6"><a xlink:title=" ">
<polygon fill="#e0e0e0" stroke="#999999" points="163.69,-20 112.65,-20 112.65,0 163.69,0 163.69,-20"/>
<text text-anchor="middle" x="138.17" y="-7" font-family="Helvetica,sans-Serif" font-size="10.00">iomanip</text>
</a>
</g>
</g>
<!-- Node5&#45;&gt;Node6 -->
<g id="edge5" class="edge">
<title>Node5&#45;&gt;Node6</title>
<path fill="none" stroke="#63b8ff" d="M166.25,-55.59C161.81,-48.55 155.59,-38.67 150.14,-30"/>
<polygon fill="#63b8ff" stroke="#63b8ff" points="153.12,-28.18 144.83,-21.58 147.2,-31.91 153.12,-28.18"/>
</g>
<!-- Node7 -->
<g id="node7" class="node">
<title>Node7</title>
<g id="a_node7"><a xlink:title=" ">
<polygon fill="#e0e0e0" stroke="#999999" points="231.08,-20 181.27,-20 181.27,0 231.08,0 231.08,-20"/>
<text text-anchor="middle" x="206.17" y="-7" font-family="Helvetica,sans-Serif" font-size="10.00">random</text>
</a>
</g>
</g>
<!-- Node5&#45;&gt;Node7 -->
<g id="edge6" class="edge">
<title>Node5&#45;&gt;Node7</title>
<path fill="none" stroke="#63b8ff" d="M178.09,-55.59C182.53,-48.55 188.75,-38.67 194.21,-30"/>
<polygon fill="#63b8ff" stroke="#63b8ff" points="197.15,-31.91 199.51,-21.58 191.22,-28.18 197.15,-31.91"/>
</g>
<!-- Node13&#45;&gt;Node5 -->
<g id="edge15" class="edge">
<title>Node13&#45;&gt;Node5</title>
<path fill="none" stroke="#63b8ff" d="M125.52,-167.62C133.8,-149.76 151.99,-110.53 163.05,-86.67"/>
<polygon fill="#63b8ff" stroke="#63b8ff" points="166.17,-88.27 167.2,-77.73 159.82,-85.33 166.17,-88.27"/>
</g>
<!-- Node14 -->
<g id="node14" class="node">
<title>Node14</title>
<g id="a_node14"><a xlink:title=" ">
<polygon fill="#e0e0e0" stroke="#999999" points="44.52,-132 -0.17,-132 -0.17,-112 44.52,-112 44.52,-132"/>
<text text-anchor="middle" x="22.17" y="-119" font-family="Helvetica,sans-Serif" font-size="10.00">cstdlib</text>
</a>
</g>
</g>
<!-- Node13&#45;&gt;Node14 -->
<g id="edge16" class="edge">
<title>Node13&#45;&gt;Node14</title>
<path fill="none" stroke="#63b8ff" d="M103.93,-167.59C88.83,-159.36 66.64,-147.26 49.19,-137.74"/>
<polygon fill="#63b8ff" stroke="#63b8ff" points="51.34,-134.92 40.88,-133.2 47.98,-141.07 51.34,-134.92"/>
</g>
<!-- Node15 -->
<g id="node15" class="node">
<title>Node15</title>
<g id="a_node15"><a xlink:title=" ">
<polygon fill="#e0e0e0" stroke="#999999" points="121.48,-132 62.87,-132 62.87,-112 121.48,-112 121.48,-132"/>
<text text-anchor="middle" x="92.17" y="-119" font-family="Helvetica,sans-Serif" font-size="10.00">stdexcept</text>
</a>
</g>
</g>
<!-- Node13&#45;&gt;Node15 -->
<g id="edge17" class="edge">
<title>Node13&#45;&gt;Node15</title>
<path fill="none" stroke="#63b8ff" d="M116.12,-167.59C112.38,-160.63 107.15,-150.89 102.53,-142.29"/>
<polygon fill="#63b8ff" stroke="#63b8ff" points="105.7,-140.79 97.88,-133.63 99.53,-144.1 105.7,-140.79"/>
</g>
<!-- Node16&#45;&gt;Node4 -->
<g id="edge19" class="edge">
<title>Node16&#45;&gt;Node4</title>
<path fill="none" stroke="#63b8ff" d="M352.93,-223.65C337.14,-215.89 315.88,-203.6 301.17,-188 288.81,-174.89 279.46,-156.57 273.56,-142.72"/>
<polygon fill="#63b8ff" stroke="#63b8ff" points="276.93,-141.74 269.97,-133.75 270.43,-144.34 276.93,-141.74"/>
</g>
</g>
</svg>
        <g id="navigator" transform="translate(0 0)" fill="#404254">
                <rect fill="#f2f5e9" fill-opacity="0.5" stroke="#606060" stroke-width=".5" x="0" y="0" width="60" height="60"/>
                <use id="zoomplus" xlink:href="#zoomPlus" x="17" y="9" onmousedown="handleZoom(evt,'in')"/>
                <use id="zoomminus" xlink:href="#zoomMin" x="42" y="9" onmousedown="handleZoom(evt,'out')"/>
                <use id="reset" xlink:href="#resetDef" x="30" y="36" onmousedown="handleReset()"/>
                <g id="arrowUp" xlink:href="#dirArrow" transform="translate(30 24)" onmousedown="handlePan(0,-1)">
                  <use xlink:href="#rim" fill="#404040">
                        <set attributeName="fill" to="#808080" begin="arrowUp.mouseover" end="arrowUp.mouseout"/>
                  </use>
                  <path fill="none" stroke="white" stroke-width="1.5" d="M0,-3.0v7 M-2.5,-0.5L0,-3.0L2.5,-0.5"/>
                </g>
                <g id="arrowRight" xlink:href="#dirArrow" transform="rotate(90) translate(36 -43)" onmousedown="handlePan(1,0)">
                  <use xlink:href="#rim" fill="#404040">
                        <set attributeName="fill" to="#808080" begin="arrowRight.mouseover" end="arrowRight.mouseout"/>
                  </use>
                  <path fill="none" stroke="white" stroke-width="1.5" d="M0,-3.0v7 M-2.5,-0.5L0,-3.0L2.5,-0.5"/>
                </g>
                <g id="arrowDown" xlink:href="#dirArrow" transform="rotate(180) translate(-30 -48)" onmousedown="handlePan(0,1)">
                  <use xlink:href="#rim" fill="#404040">
                        <set attributeName="fill" to="#808080" begin="arrowDown.mouseover" end="arrowDown.mouseout"/>
                  </use>
                  <path fill="none" stroke="white" stroke-width="1.5" d="M0,-3.0v7 M-2.5,-0.5L0,-3.0L2.5,-0.5"/>
                </g>
                <g id="arrowLeft" xlink:href="#dirArrow" transform="rotate(270) translate(-36 17)" onmousedown="handlePan(-1,0)">
                  <use xlink:href="#rim" fill="#404040">
                        <set attributeName="fill" to="#808080" begin="arrowLeft.mouseover" end="arrowLeft.mouseout"/>
                  </use>
                  <path fill="none" stroke="white" stroke-width="1.5" d="M0,-3.0v7 M-2.5,-0.5L0,-3.0L2.5,-0.5"/>
                </g>
        </g>
        <svg viewBox="0 0 15 15" width="100%" height="30px" preserveAspectRatio="xMaxYMin meet">
         <g id="arrow_out" transform="scale(0.3 0.3)">
          <a xlink:href="SingleLinkedList_8h__incl_org.svg" target="_base">
           <rect id="button" ry="5" rx="5" y="6" x="6" height="38" width="38"
                fill="#f2f5e9" fill-opacity="0.5" stroke="#606060" stroke-width="1.0"/>
           <path id="arrow"
             d="M 11.500037,31.436501 C 11.940474,20.09759 22.043105,11.32322 32.158766,21.979434 L 37.068811,17.246167 C 37.068811,17.246167 37.088388,32 37.088388,32 L 22.160133,31.978069 C 22.160133,31.978069 26.997745,27.140456 26.997745,27.140456 C 18.528582,18.264221 13.291696,25.230495 11.500037,31.436501 z"
             style="fill:#404040;"/>
          </a>
         </g>
        </svg>
</svg>
