<?xml version="1.0" encoding="UTF-8" standalone="no"?>
<!DOCTYPE svg PUBLIC "-//W3C//DTD SVG 1.1//EN"
 "http://www.w3.org/Graphics/SVG/1.1/DTD/svg11.dtd">
<!-- Generated by graphviz version 7.0.5 (20221223.1930)
 -->
<!-- Title: ee205_animal_farm&#45;aar0m/src/Container/SingleLinkedList.h Pages: 1 -->
<svg width="564pt" height="84pt"
 viewBox="0.00 0.00 564.46 84.00" xmlns="http://www.w3.org/2000/svg" xmlns:xlink="http://www.w3.org/1999/xlink">
<g id="graph0" class="graph" transform="scale(1 1) rotate(0) translate(4 80)">
<title>ee205_animal_farm&#45;aar0m/src/Container/SingleLinkedList.h</title>
<!-- Node1 -->
<g id="node1" class="node">
<title>Node1</title>
<g id="a_node1"><a xlink:title="Singly Linked List (SLL) class to store Nodes.">
<polygon fill="#999999" stroke="#666666" points="430.66,-76 148.15,-76 148.15,-56 430.66,-56 430.66,-76"/>
<text text-anchor="middle" x="289.41" y="-63" font-family="Helvetica,sans-Serif" font-size="10.00">ee205_animal_farm&#45;aar0m/src/Container/SingleLinkedList.h</text>
</a>
</g>
</g>
<!-- Node2 -->
<g id="node2" class="node">
<title>Node2</title>
<g id="a_node2"><a xlink:href="SingleLinkedList_8cpp.html" target="_top" xlink:title="Singly Linked List (SLL) class to store Nodes.">
<polygon fill="white" stroke="#666666" points="292.72,-20 0.09,-20 0.09,0 292.72,0 292.72,-20"/>
<text text-anchor="middle" x="146.41" y="-7" font-family="Helvetica,sans-Serif" font-size="10.00">ee205_animal_farm&#45;aar0m/src/Container/SingleLinkedList.cpp</text>
</a>
</g>
</g>
<!-- Node1&#45;&gt;Node2 -->
<g id="edge1" class="edge">
<title>Node1&#45;&gt;Node2</title>
<path fill="none" stroke="#63b8ff" d="M253.74,-51.53C228.15,-41.87 194.3,-29.08 171.51,-20.48"/>
<polygon fill="#63b8ff" stroke="#63b8ff" points="252.49,-54.8 263.08,-55.06 254.96,-48.25 252.49,-54.8"/>
</g>
<!-- Node3 -->
<g id="node3" class="node">
<title>Node3</title>
<g id="a_node3"><a xlink:href="main__catEmpire_8cpp_source.html" target="_top" xlink:title=" ">
<polygon fill="white" stroke="#666666" points="556.51,-20 310.31,-20 310.31,0 556.51,0 556.51,-20"/>
<text text-anchor="middle" x="433.41" y="-7" font-family="Helvetica,sans-Serif" font-size="10.00">ee205_animal_farm&#45;aar0m/src/main_catEmpire.cpp</text>
</a>
</g>
</g>
<!-- Node1&#45;&gt;Node3 -->
<g id="edge2" class="edge">
<title>Node1&#45;&gt;Node3</title>
<path fill="none" stroke="#63b8ff" d="M324.98,-51.66C350.79,-41.98 385.08,-29.12 408.13,-20.48"/>
<polygon fill="#63b8ff" stroke="#63b8ff" points="324.04,-48.27 315.91,-55.06 326.5,-54.83 324.04,-48.27"/>
</g>
</g>
</svg>
