<?xml version="1.0" encoding="UTF-8" standalone="no"?>
<!DOCTYPE svg PUBLIC "-//W3C//DTD SVG 1.1//EN"
 "http://www.w3.org/Graphics/SVG/1.1/DTD/svg11.dtd">
<!-- Generated by graphviz version 7.0.5 (20221223.1930)
 -->
<!-- Title: Cat::Cat Pages: 1 -->
<svg width="632pt" height="332pt"
 viewBox="0.00 0.00 632.41 332.00" xmlns="http://www.w3.org/2000/svg" xmlns:xlink="http://www.w3.org/1999/xlink">
<g id="graph0" class="graph" transform="scale(1 1) rotate(0) translate(4 328)">
<title>Cat::Cat</title>
<!-- Node1 -->
<g id="node1" class="node">
<title>Node1</title>
<g id="a_node1"><a xlink:title="Generates a Cat with an unknown &#39;color&#39;, Gender, random &#39;weight&#39;, and specified &#39;newName&#39;.">
<polygon fill="#999999" stroke="#666666" points="52.52,-229 0.16,-229 0.16,-209 52.52,-209 52.52,-229"/>
<text text-anchor="middle" x="26.34" y="-216" font-family="Helvetica,sans-Serif" font-size="10.00">Cat::Cat</text>
</a>
</g>
</g>
<!-- Node2 -->
<g id="node2" class="node">
<title>Node2</title>
<g id="a_node2"><a xlink:href="classMammal.html#a355f8c647618d6baf6bda466f04401e2" target="_top" xlink:title="Generates a Mammal with a specified &#39;color&#39;, &#39;weight&#39;, and Gender.">
<polygon fill="white" stroke="#666666" points="200.66,-286 102.21,-286 102.21,-266 200.66,-266 200.66,-286"/>
<text text-anchor="middle" x="151.44" y="-273" font-family="Helvetica,sans-Serif" font-size="10.00">Mammal::Mammal</text>
</a>
</g>
</g>
<!-- Node1&#45;&gt;Node2 -->
<g id="edge1" class="edge">
<title>Node1&#45;&gt;Node2</title>
<path fill="none" stroke="#63b8ff" d="M41.87,-229.49C53.94,-237.83 71.8,-249.33 88.68,-257 92.42,-258.7 96.36,-260.3 100.36,-261.8"/>
<polygon fill="#63b8ff" stroke="#63b8ff" points="98.98,-265.03 109.57,-265.02 101.29,-258.42 98.98,-265.03"/>
</g>
<!-- Node6 -->
<g id="node6" class="node">
<title>Node6</title>
<g id="a_node6"><a xlink:href="classAnimal.html#a96634826703e846e99b8592be6fef36a" target="_top" xlink:title="Generates a random &#39;weight&#39; in pounds for an Animal.">
<polygon fill="white" stroke="#666666" points="213.96,-248 88.92,-248 88.92,-228 213.96,-228 213.96,-248"/>
<text text-anchor="middle" x="151.44" y="-235" font-family="Helvetica,sans-Serif" font-size="10.00">Animal::generatePounds</text>
</a>
</g>
</g>
<!-- Node1&#45;&gt;Node6 -->
<g id="edge6" class="edge">
<title>Node1&#45;&gt;Node6</title>
<path fill="none" stroke="#63b8ff" d="M52.85,-222.94C60.22,-224.08 68.67,-225.38 77.43,-226.73"/>
<polygon fill="#63b8ff" stroke="#63b8ff" points="76.74,-230.17 87.16,-228.23 77.81,-223.25 76.74,-230.17"/>
</g>
<!-- Node7 -->
<g id="node7" class="node">
<title>Node7</title>
<g id="a_node7"><a xlink:href="structCat.html#af4a79f34cbaf6a5059a1d0863f8072bb" target="_top" xlink:title="Set the Cat name.">
<polygon fill="white" stroke="#666666" points="190.07,-210 112.81,-210 112.81,-190 190.07,-190 190.07,-210"/>
<text text-anchor="middle" x="151.44" y="-197" font-family="Helvetica,sans-Serif" font-size="10.00">Cat::setName</text>
</a>
</g>
</g>
<!-- Node1&#45;&gt;Node7 -->
<g id="edge7" class="edge">
<title>Node1&#45;&gt;Node7</title>
<path fill="none" stroke="#63b8ff" d="M52.85,-215.06C66.81,-212.91 84.59,-210.16 101.14,-207.61"/>
<polygon fill="#63b8ff" stroke="#63b8ff" points="101.49,-211.1 110.84,-206.11 100.42,-204.18 101.49,-211.1"/>
</g>
<!-- Node14 -->
<g id="node14" class="node">
<title>Node14</title>
<g id="a_node14"><a xlink:href="classMammal.html#a11ad9c1757cac1c6fff7ad1ce384e2c7" target="_top" xlink:title="Validates Animal based on specified ruleset.">
<polygon fill="white" stroke="#666666" points="198.8,-96 104.08,-96 104.08,-76 198.8,-76 198.8,-96"/>
<text text-anchor="middle" x="151.44" y="-83" font-family="Helvetica,sans-Serif" font-size="10.00">Mammal::validate</text>
</a>
</g>
</g>
<!-- Node1&#45;&gt;Node14 -->
<g id="edge14" class="edge">
<title>Node1&#45;&gt;Node14</title>
<path fill="none" stroke="#63b8ff" d="M37,-208.56C57.76,-186.13 106.89,-133.05 133.16,-104.67"/>
<polygon fill="#63b8ff" stroke="#63b8ff" points="135.57,-107.22 139.8,-97.5 130.43,-102.46 135.57,-107.22"/>
</g>
<!-- Node3 -->
<g id="node3" class="node">
<title>Node3</title>
<g id="a_node3"><a xlink:href="classAnimal.html#aec8039997b0be3da027036d998f8207c" target="_top" xlink:title="Generates an Animal with a specified &#39;weight&#39;.">
<polygon fill="white" stroke="#666666" points="357.74,-324 275.36,-324 275.36,-304 357.74,-304 357.74,-324"/>
<text text-anchor="middle" x="316.55" y="-311" font-family="Helvetica,sans-Serif" font-size="10.00">Animal::Animal</text>
</a>
</g>
</g>
<!-- Node2&#45;&gt;Node3 -->
<g id="edge2" class="edge">
<title>Node2&#45;&gt;Node3</title>
<path fill="none" stroke="#63b8ff" d="M197.44,-286.48C217.98,-291.27 242.43,-296.96 263.73,-301.93"/>
<polygon fill="#63b8ff" stroke="#63b8ff" points="262.87,-305.32 273.4,-304.18 264.46,-298.5 262.87,-305.32"/>
</g>
<!-- Node4 -->
<g id="node4" class="node">
<title>Node4</title>
<g id="a_node4"><a xlink:href="classAnimal.html#acde9807bf2eadb3fb6a8650ba7ccfa43" target="_top" xlink:title="Validates &#39;weight&#39; based on specified ruleset.">
<polygon fill="white" stroke="#666666" points="580.37,-324 462.94,-324 462.94,-304 580.37,-304 580.37,-324"/>
<text text-anchor="middle" x="521.66" y="-311" font-family="Helvetica,sans-Serif" font-size="10.00">Animal::validateWeight</text>
</a>
</g>
</g>
<!-- Node2&#45;&gt;Node4 -->
<g id="edge5" class="edge">
<title>Node2&#45;&gt;Node4</title>
<path fill="none" stroke="#63b8ff" d="M201.07,-279.23C247.76,-282.52 320.25,-288.1 382.9,-295 405.28,-297.46 429.63,-300.65 451.55,-303.71"/>
<polygon fill="#63b8ff" stroke="#63b8ff" points="450.88,-307.15 461.27,-305.09 451.85,-300.22 450.88,-307.15"/>
</g>
<!-- Node5 -->
<g id="node5" class="node">
<title>Node5</title>
<g id="a_node5"><a xlink:href="classMammal.html#a42669c20d1329bf92fc078bd3220bd17" target="_top" xlink:title="Sets color of Mammal.">
<polygon fill="white" stroke="#666666" points="365.18,-248 267.92,-248 267.92,-228 365.18,-228 365.18,-248"/>
<text text-anchor="middle" x="316.55" y="-235" font-family="Helvetica,sans-Serif" font-size="10.00">Mammal::setColor</text>
</a>
</g>
</g>
<!-- Node2&#45;&gt;Node5 -->
<g id="edge4" class="edge">
<title>Node2&#45;&gt;Node5</title>
<path fill="none" stroke="#63b8ff" d="M197.44,-265.52C216.69,-261.03 239.38,-255.75 259.69,-251.01"/>
<polygon fill="#63b8ff" stroke="#63b8ff" points="260.27,-254.47 269.22,-248.79 258.69,-247.65 260.27,-254.47"/>
</g>
<!-- Node3&#45;&gt;Node4 -->
<g id="edge3" class="edge">
<title>Node3&#45;&gt;Node4</title>
<path fill="none" stroke="#63b8ff" d="M358.16,-314C384.87,-314 420.49,-314 451.58,-314"/>
<polygon fill="#63b8ff" stroke="#63b8ff" points="451.29,-317.5 461.29,-314 451.29,-310.5 451.29,-317.5"/>
</g>
<!-- Node8 -->
<g id="node8" class="node">
<title>Node8</title>
<g id="a_node8"><a xlink:href="className.html#adf2e3789f330180d37ad880f17e004cc" target="_top" xlink:title="Check if newName is valid.">
<polygon fill="white" stroke="#666666" points="371.42,-210 261.67,-210 261.67,-190 371.42,-190 371.42,-210"/>
<text text-anchor="middle" x="316.55" y="-197" font-family="Helvetica,sans-Serif" font-size="10.00">Name::validateName</text>
</a>
</g>
</g>
<!-- Node7&#45;&gt;Node8 -->
<g id="edge8" class="edge">
<title>Node7&#45;&gt;Node8</title>
<path fill="none" stroke="#63b8ff" d="M190.27,-200C207.97,-200 229.58,-200 249.83,-200"/>
<polygon fill="#63b8ff" stroke="#63b8ff" points="249.72,-203.5 259.72,-200 249.72,-196.5 249.72,-203.5"/>
</g>
<!-- Node9 -->
<g id="node9" class="node">
<title>Node9</title>
<g id="a_node9"><a xlink:href="className.html#a528a6452c92fdd26082cd1f1ba96f0ee" target="_top" xlink:title="Return true if newName&#39;s interior whitespace is trimmed.">
<polygon fill="white" stroke="#666666" points="624.17,-286 419.14,-286 419.14,-266 624.17,-266 624.17,-286"/>
<text text-anchor="middle" x="521.66" y="-273" font-family="Helvetica,sans-Serif" font-size="10.00">Name::validateInteriorWhitespaceTrimmed</text>
</a>
</g>
</g>
<!-- Node8&#45;&gt;Node9 -->
<g id="edge9" class="edge">
<title>Node8&#45;&gt;Node9</title>
<path fill="none" stroke="#63b8ff" d="M364.89,-210.49C371.17,-212.81 377.35,-215.62 382.9,-219 402.76,-231.11 398.47,-245.88 418.9,-257 421.96,-258.66 425.14,-260.19 428.4,-261.58"/>
<polygon fill="#63b8ff" stroke="#63b8ff" points="427.05,-264.81 437.64,-265.05 429.52,-258.26 427.05,-264.81"/>
</g>
<!-- Node10 -->
<g id="node10" class="node">
<title>Node10</title>
<g id="a_node10"><a xlink:href="className.html#a48ffe2521a489104cee5718de979a57a" target="_top" xlink:title="Return true if newName only contains A &#45; Z, a &#45; z, 0&#45;9, space and &#45;">
<polygon fill="white" stroke="#666666" points="599.11,-248 444.2,-248 444.2,-228 599.11,-228 599.11,-248"/>
<text text-anchor="middle" x="521.66" y="-235" font-family="Helvetica,sans-Serif" font-size="10.00">Name::validateNoSpecialChars</text>
</a>
</g>
</g>
<!-- Node8&#45;&gt;Node10 -->
<g id="edge10" class="edge">
<title>Node8&#45;&gt;Node10</title>
<path fill="none" stroke="#63b8ff" d="M371.72,-210.16C386.98,-213.02 403.59,-216.14 418.9,-219 429.96,-221.07 441.7,-223.26 453.13,-225.4"/>
<polygon fill="#63b8ff" stroke="#63b8ff" points="452.45,-228.83 462.92,-227.23 453.73,-221.95 452.45,-228.83"/>
</g>
<!-- Node11 -->
<g id="node11" class="node">
<title>Node11</title>
<g id="a_node11"><a xlink:href="className.html#a0af5e33bf02472905a9e9d0b9f9510cf" target="_top" xlink:title="Return true if newName is not empty.">
<polygon fill="white" stroke="#666666" points="584.76,-210 458.56,-210 458.56,-190 584.76,-190 584.76,-210"/>
<text text-anchor="middle" x="521.66" y="-197" font-family="Helvetica,sans-Serif" font-size="10.00">Name::validateNotEmpty</text>
</a>
</g>
</g>
<!-- Node8&#45;&gt;Node11 -->
<g id="edge11" class="edge">
<title>Node8&#45;&gt;Node11</title>
<path fill="none" stroke="#63b8ff" d="M371.71,-200C394.84,-200 422.21,-200 447.13,-200"/>
<polygon fill="#63b8ff" stroke="#63b8ff" points="446.87,-203.5 456.87,-200 446.87,-196.5 446.87,-203.5"/>
</g>
<!-- Node12 -->
<g id="node12" class="node">
<title>Node12</title>
<g id="a_node12"><a xlink:href="className.html#a024eecc170d4ba3e3fb4f05b35078478" target="_top" xlink:title="Return true if newName starts with an alphabetic character (A &#45; Z or a &#45; z)">
<polygon fill="white" stroke="#666666" points="599.05,-172 444.26,-172 444.26,-152 599.05,-152 599.05,-172"/>
<text text-anchor="middle" x="521.66" y="-159" font-family="Helvetica,sans-Serif" font-size="10.00">Name::validateStartsWithAlpha</text>
</a>
</g>
</g>
<!-- Node8&#45;&gt;Node12 -->
<g id="edge12" class="edge">
<title>Node8&#45;&gt;Node12</title>
<path fill="none" stroke="#63b8ff" d="M371.72,-189.84C386.98,-186.98 403.59,-183.86 418.9,-181 429.96,-178.93 441.7,-176.74 453.13,-174.6"/>
<polygon fill="#63b8ff" stroke="#63b8ff" points="453.73,-178.05 462.92,-172.77 452.45,-171.17 453.73,-178.05"/>
</g>
<!-- Node13 -->
<g id="node13" class="node">
<title>Node13</title>
<g id="a_node13"><a xlink:href="className.html#a8004ce0cca7df10725e0e34cd541f274" target="_top" xlink:title="Return true if newName is left and right trimmed for whitespace.">
<polygon fill="white" stroke="#666666" points="582.8,-134 460.51,-134 460.51,-114 582.8,-114 582.8,-134"/>
<text text-anchor="middle" x="521.66" y="-121" font-family="Helvetica,sans-Serif" font-size="10.00">Name::validateTrimmed</text>
</a>
</g>
</g>
<!-- Node8&#45;&gt;Node13 -->
<g id="edge13" class="edge">
<title>Node8&#45;&gt;Node13</title>
<path fill="none" stroke="#63b8ff" d="M332.25,-189.67C351.33,-176.76 386.07,-154.92 418.9,-143 428.45,-139.53 438.75,-136.67 449,-134.31"/>
<polygon fill="#63b8ff" stroke="#63b8ff" points="449.53,-137.77 458.58,-132.26 448.07,-130.93 449.53,-137.77"/>
</g>
<!-- Node15 -->
<g id="node15" class="node">
<title>Node15</title>
<g id="a_node15"><a xlink:href="classMammal.html#a58a3aed0f5c4a932ee49c7738d81b686" target="_top" xlink:title="Returns classification of Mammal.">
<polygon fill="white" stroke="#666666" points="382.75,-115 250.34,-115 250.34,-95 382.75,-95 382.75,-115"/>
<text text-anchor="middle" x="316.55" y="-102" font-family="Helvetica,sans-Serif" font-size="10.00">Mammal::getClassification</text>
</a>
</g>
</g>
<!-- Node14&#45;&gt;Node15 -->
<g id="edge15" class="edge">
<title>Node14&#45;&gt;Node15</title>
<path fill="none" stroke="#63b8ff" d="M199.18,-91.44C211.53,-92.88 225.2,-94.48 238.7,-96.05"/>
<polygon fill="#63b8ff" stroke="#63b8ff" points="238.12,-99.5 248.46,-97.18 238.93,-92.55 238.12,-99.5"/>
</g>
<!-- Node16 -->
<g id="node16" class="node">
<title>Node16</title>
<g id="a_node16"><a xlink:href="classAnimal.html#a7a892113e7a4a8834cf84b7b2621e2d8" target="_top" xlink:title="Validates Animal based on specified ruleset.">
<polygon fill="white" stroke="#666666" points="359.64,-77 273.46,-77 273.46,-57 359.64,-57 359.64,-77"/>
<text text-anchor="middle" x="316.55" y="-64" font-family="Helvetica,sans-Serif" font-size="10.00">Animal::validate</text>
</a>
</g>
</g>
<!-- Node14&#45;&gt;Node16 -->
<g id="edge16" class="edge">
<title>Node14&#45;&gt;Node16</title>
<path fill="none" stroke="#63b8ff" d="M199.18,-80.56C218.71,-78.28 241.51,-75.62 261.74,-73.27"/>
<polygon fill="#63b8ff" stroke="#63b8ff" points="261.95,-76.77 271.48,-72.13 261.14,-69.81 261.95,-76.77"/>
</g>
<!-- Node20 -->
<g id="node20" class="node">
<title>Node20</title>
<g id="a_node20"><a xlink:href="Gender_8cpp.html#a538e79224dfde704ae9d2a14d8ca761b" target="_top" xlink:title="Validates a Gender class given via input.">
<polygon fill="white" stroke="#666666" points="358.37,-39 274.73,-39 274.73,-19 358.37,-19 358.37,-39"/>
<text text-anchor="middle" x="316.55" y="-26" font-family="Helvetica,sans-Serif" font-size="10.00">validateGender</text>
</a>
</g>
</g>
<!-- Node14&#45;&gt;Node20 -->
<g id="edge20" class="edge">
<title>Node14&#45;&gt;Node20</title>
<path fill="none" stroke="#63b8ff" d="M177.53,-75.54C197.15,-67.54 225.19,-56.48 250.2,-48 255.52,-46.2 261.11,-44.41 266.7,-42.69"/>
<polygon fill="#63b8ff" stroke="#63b8ff" points="267.34,-46.15 275.91,-39.93 265.33,-39.45 267.34,-46.15"/>
</g>
<!-- Node17 -->
<g id="node17" class="node">
<title>Node17</title>
<g id="a_node17"><a xlink:href="classAnimal.html#ae4e9e9cf7a0286c70334400b9310746c" target="_top" xlink:title="Returns &#39;kingdom&#39; of Animal.">
<polygon fill="white" stroke="#666666" points="574.65,-96 468.66,-96 468.66,-76 574.65,-76 574.65,-96"/>
<text text-anchor="middle" x="521.66" y="-83" font-family="Helvetica,sans-Serif" font-size="10.00">Animal::getKingdom</text>
</a>
</g>
</g>
<!-- Node16&#45;&gt;Node17 -->
<g id="edge17" class="edge">
<title>Node16&#45;&gt;Node17</title>
<path fill="none" stroke="#63b8ff" d="M360.13,-70.98C388.2,-73.61 425.48,-77.1 457.05,-80.05"/>
<polygon fill="#63b8ff" stroke="#63b8ff" points="456.6,-83.52 466.88,-80.97 457.25,-76.55 456.6,-83.52"/>
</g>
<!-- Node18 -->
<g id="node18" class="node">
<title>Node18</title>
<g id="a_node18"><a xlink:href="classNode.html#a19d5df5724b59b748758848d95fa283f" target="_top" xlink:title="Prints unique line representing this object.">
<polygon fill="white" stroke="#666666" points="552.24,-58 491.07,-58 491.07,-38 552.24,-38 552.24,-58"/>
<text text-anchor="middle" x="521.66" y="-45" font-family="Helvetica,sans-Serif" font-size="10.00">Node::info</text>
</a>
</g>
</g>
<!-- Node16&#45;&gt;Node18 -->
<g id="edge18" class="edge">
<title>Node16&#45;&gt;Node18</title>
<path fill="none" stroke="#63b8ff" d="M360.13,-63.02C395.24,-59.73 444.75,-55.1 479.48,-51.85"/>
<polygon fill="#63b8ff" stroke="#63b8ff" points="479.51,-55.36 489.14,-50.95 478.86,-48.4 479.51,-55.36"/>
</g>
<!-- Node19 -->
<g id="node19" class="node">
<title>Node19</title>
<g id="a_node19"><a xlink:href="classNode.html#a9f69825adc179781257e406b3255a93e" target="_top" xlink:title="Ensures Node and all its members are healthy (presumably)">
<polygon fill="white" stroke="#666666" points="561.59,-20 481.73,-20 481.73,0 561.59,0 561.59,-20"/>
<text text-anchor="middle" x="521.66" y="-7" font-family="Helvetica,sans-Serif" font-size="10.00">Node::validate</text>
</a>
</g>
</g>
<!-- Node16&#45;&gt;Node19 -->
<g id="edge19" class="edge">
<title>Node16&#45;&gt;Node19</title>
<path fill="none" stroke="#63b8ff" d="M358.42,-56.5C366.63,-54.01 375.12,-51.14 382.9,-48 399.67,-41.22 401.82,-34.95 418.9,-29 435.17,-23.33 453.53,-19.25 470.12,-16.35"/>
<polygon fill="#63b8ff" stroke="#63b8ff" points="470.49,-19.84 479.79,-14.77 469.36,-12.93 470.49,-19.84"/>
</g>
</g>
</svg>
