<?xml version="1.0" encoding="UTF-8" standalone="no"?>
<!DOCTYPE svg PUBLIC "-//W3C//DTD SVG 1.1//EN"
 "http://www.w3.org/Graphics/SVG/1.1/DTD/svg11.dtd">
<!-- Generated by graphviz version 7.0.5 (20221223.1930)
 -->
<!-- Title: Cat::Cat Pages: 1 -->
<svg width="582pt" height="218pt"
 viewBox="0.00 0.00 581.79 218.00" xmlns="http://www.w3.org/2000/svg" xmlns:xlink="http://www.w3.org/1999/xlink">
<g id="graph0" class="graph" transform="scale(1 1) rotate(0) translate(4 214)">
<title>Cat::Cat</title>
<!-- Node1 -->
<g id="node1" class="node">
<title>Node1</title>
<g id="a_node1"><a xlink:title="Generates a Cat with a specified Name, &#39;color&#39;, &#39;weight&#39;, and Gender.">
<polygon fill="#999999" stroke="#666666" points="52.52,-134 0.16,-134 0.16,-114 52.52,-114 52.52,-134"/>
<text text-anchor="middle" x="26.34" y="-121" font-family="Helvetica,sans-Serif" font-size="10.00">Cat::Cat</text>
</a>
</g>
</g>
<!-- Node2 -->
<g id="node2" class="node">
<title>Node2</title>
<g id="a_node2"><a xlink:href="classMammal.html#a355f8c647618d6baf6bda466f04401e2" target="_top" xlink:title="Generates a Mammal with a specified &#39;color&#39;, &#39;weight&#39;, and Gender.">
<polygon fill="white" stroke="#666666" points="187.02,-162 88.57,-162 88.57,-142 187.02,-142 187.02,-162"/>
<text text-anchor="middle" x="137.79" y="-149" font-family="Helvetica,sans-Serif" font-size="10.00">Mammal::Mammal</text>
</a>
</g>
</g>
<!-- Node1&#45;&gt;Node2 -->
<g id="edge1" class="edge">
<title>Node1&#45;&gt;Node2</title>
<path fill="none" stroke="#63b8ff" d="M53,-130.56C62.57,-133.01 73.82,-135.89 84.91,-138.73"/>
<polygon fill="#63b8ff" stroke="#63b8ff" points="83.85,-142.07 94.41,-141.16 85.59,-135.29 83.85,-142.07"/>
</g>
<!-- Node6 -->
<g id="node6" class="node">
<title>Node6</title>
<g id="a_node6"><a xlink:href="structCat.html#af4a79f34cbaf6a5059a1d0863f8072bb" target="_top" xlink:title="Set the Cat name.">
<polygon fill="white" stroke="#666666" points="176.43,-115 99.16,-115 99.16,-95 176.43,-95 176.43,-115"/>
<text text-anchor="middle" x="137.79" y="-102" font-family="Helvetica,sans-Serif" font-size="10.00">Cat::setName</text>
</a>
</g>
</g>
<!-- Node1&#45;&gt;Node6 -->
<g id="edge6" class="edge">
<title>Node1&#45;&gt;Node6</title>
<path fill="none" stroke="#63b8ff" d="M53,-119.55C63.34,-117.75 75.64,-115.62 87.58,-113.54"/>
<polygon fill="#63b8ff" stroke="#63b8ff" points="88.1,-117.01 97.35,-111.85 86.9,-110.11 88.1,-117.01"/>
</g>
<!-- Node3 -->
<g id="node3" class="node">
<title>Node3</title>
<g id="a_node3"><a xlink:href="classAnimal.html#aec8039997b0be3da027036d998f8207c" target="_top" xlink:title="Generates an Animal with a specified &#39;weight&#39;.">
<polygon fill="white" stroke="#666666" points="318.78,-210 236.4,-210 236.4,-190 318.78,-190 318.78,-210"/>
<text text-anchor="middle" x="277.59" y="-197" font-family="Helvetica,sans-Serif" font-size="10.00">Animal::Animal</text>
</a>
</g>
</g>
<!-- Node2&#45;&gt;Node3 -->
<g id="edge2" class="edge">
<title>Node2&#45;&gt;Node3</title>
<path fill="none" stroke="#63b8ff" d="M168.69,-162.42C188.38,-169.27 214.39,-178.33 235.94,-185.84"/>
<polygon fill="#63b8ff" stroke="#63b8ff" points="234.73,-189.12 245.32,-189.11 237.03,-182.51 234.73,-189.12"/>
</g>
<!-- Node4 -->
<g id="node4" class="node">
<title>Node4</title>
<g id="a_node4"><a xlink:href="classAnimal.html#acde9807bf2eadb3fb6a8650ba7ccfa43" target="_top" xlink:title="Validates &#39;weight&#39; based on specified ruleset.">
<polygon fill="white" stroke="#666666" points="529.75,-210 412.32,-210 412.32,-190 529.75,-190 529.75,-210"/>
<text text-anchor="middle" x="471.04" y="-197" font-family="Helvetica,sans-Serif" font-size="10.00">Animal::validateWeight</text>
</a>
</g>
</g>
<!-- Node2&#45;&gt;Node4 -->
<g id="edge5" class="edge">
<title>Node2&#45;&gt;Node4</title>
<path fill="none" stroke="#63b8ff" d="M187.31,-159.03C243.59,-167.19 336.81,-180.69 400.72,-189.96"/>
<polygon fill="#63b8ff" stroke="#63b8ff" points="400,-193.39 410.4,-191.36 401,-186.46 400,-193.39"/>
</g>
<!-- Node5 -->
<g id="node5" class="node">
<title>Node5</title>
<g id="a_node5"><a xlink:href="classMammal.html#a42669c20d1329bf92fc078bd3220bd17" target="_top" xlink:title="Sets color of Mammal.">
<polygon fill="white" stroke="#666666" points="326.22,-134 228.97,-134 228.97,-114 326.22,-114 326.22,-134"/>
<text text-anchor="middle" x="277.59" y="-121" font-family="Helvetica,sans-Serif" font-size="10.00">Mammal::setColor</text>
</a>
</g>
</g>
<!-- Node2&#45;&gt;Node5 -->
<g id="edge4" class="edge">
<title>Node2&#45;&gt;Node5</title>
<path fill="none" stroke="#63b8ff" d="M187.38,-142.13C197.17,-140.14 207.57,-138.02 217.68,-135.97"/>
<polygon fill="#63b8ff" stroke="#63b8ff" points="218.33,-139.41 227.43,-133.99 216.93,-132.55 218.33,-139.41"/>
</g>
<!-- Node3&#45;&gt;Node4 -->
<g id="edge3" class="edge">
<title>Node3&#45;&gt;Node4</title>
<path fill="none" stroke="#63b8ff" d="M319.19,-200C342.82,-200 373.24,-200 400.57,-200"/>
<polygon fill="#63b8ff" stroke="#63b8ff" points="400.55,-203.5 410.55,-200 400.55,-196.5 400.55,-203.5"/>
</g>
<!-- Node7 -->
<g id="node7" class="node">
<title>Node7</title>
<g id="a_node7"><a xlink:href="className.html#adf2e3789f330180d37ad880f17e004cc" target="_top" xlink:title="Check if newName is valid.">
<polygon fill="white" stroke="#666666" points="332.47,-96 222.72,-96 222.72,-76 332.47,-76 332.47,-96"/>
<text text-anchor="middle" x="277.59" y="-83" font-family="Helvetica,sans-Serif" font-size="10.00">Name::validateName</text>
</a>
</g>
</g>
<!-- Node6&#45;&gt;Node7 -->
<g id="edge7" class="edge">
<title>Node6&#45;&gt;Node7</title>
<path fill="none" stroke="#63b8ff" d="M176.81,-99.76C187.5,-98.28 199.43,-96.64 211.23,-95.01"/>
<polygon fill="#63b8ff" stroke="#63b8ff" points="211.52,-98.5 220.95,-93.67 210.57,-91.57 211.52,-98.5"/>
</g>
<!-- Node8 -->
<g id="node8" class="node">
<title>Node8</title>
<g id="a_node8"><a xlink:href="className.html#a528a6452c92fdd26082cd1f1ba96f0ee" target="_top" xlink:title="Return true if newName&#39;s interior whitespace is trimmed.">
<polygon fill="white" stroke="#666666" points="573.55,-172 368.52,-172 368.52,-152 573.55,-152 573.55,-172"/>
<text text-anchor="middle" x="471.04" y="-159" font-family="Helvetica,sans-Serif" font-size="10.00">Name::validateInteriorWhitespaceTrimmed</text>
</a>
</g>
</g>
<!-- Node7&#45;&gt;Node8 -->
<g id="edge8" class="edge">
<title>Node7&#45;&gt;Node8</title>
<path fill="none" stroke="#63b8ff" d="M315.5,-96.44C321.34,-98.82 327.14,-101.66 332.28,-105 351.79,-117.68 347.85,-131.88 368.28,-143 371.34,-144.66 374.52,-146.19 377.78,-147.58"/>
<polygon fill="#63b8ff" stroke="#63b8ff" points="376.43,-150.81 387.02,-151.05 378.9,-144.26 376.43,-150.81"/>
</g>
<!-- Node9 -->
<g id="node9" class="node">
<title>Node9</title>
<g id="a_node9"><a xlink:href="className.html#a48ffe2521a489104cee5718de979a57a" target="_top" xlink:title="Return true if newName only contains A &#45; Z, a &#45; z, 0&#45;9, space and &#45;">
<polygon fill="white" stroke="#666666" points="548.49,-134 393.58,-134 393.58,-114 548.49,-114 548.49,-134"/>
<text text-anchor="middle" x="471.04" y="-121" font-family="Helvetica,sans-Serif" font-size="10.00">Name::validateNoSpecialChars</text>
</a>
</g>
</g>
<!-- Node7&#45;&gt;Node9 -->
<g id="edge9" class="edge">
<title>Node7&#45;&gt;Node9</title>
<path fill="none" stroke="#63b8ff" d="M326.96,-96.47C340.33,-99.3 354.86,-102.33 368.28,-105 379.05,-107.15 390.48,-109.35 401.64,-111.46"/>
<polygon fill="#63b8ff" stroke="#63b8ff" points="400.71,-114.85 411.19,-113.26 402.01,-107.97 400.71,-114.85"/>
</g>
<!-- Node10 -->
<g id="node10" class="node">
<title>Node10</title>
<g id="a_node10"><a xlink:href="className.html#a0af5e33bf02472905a9e9d0b9f9510cf" target="_top" xlink:title="Return true if newName is not empty.">
<polygon fill="white" stroke="#666666" points="534.14,-96 407.93,-96 407.93,-76 534.14,-76 534.14,-96"/>
<text text-anchor="middle" x="471.04" y="-83" font-family="Helvetica,sans-Serif" font-size="10.00">Name::validateNotEmpty</text>
</a>
</g>
</g>
<!-- Node7&#45;&gt;Node10 -->
<g id="edge10" class="edge">
<title>Node7&#45;&gt;Node10</title>
<path fill="none" stroke="#63b8ff" d="M332.94,-86C352.53,-86 374.98,-86 395.96,-86"/>
<polygon fill="#63b8ff" stroke="#63b8ff" points="395.93,-89.5 405.93,-86 395.93,-82.5 395.93,-89.5"/>
</g>
<!-- Node11 -->
<g id="node11" class="node">
<title>Node11</title>
<g id="a_node11"><a xlink:href="className.html#a024eecc170d4ba3e3fb4f05b35078478" target="_top" xlink:title="Return true if newName starts with an alphabetic character (A &#45; Z or a &#45; z)">
<polygon fill="white" stroke="#666666" points="548.43,-58 393.64,-58 393.64,-38 548.43,-38 548.43,-58"/>
<text text-anchor="middle" x="471.04" y="-45" font-family="Helvetica,sans-Serif" font-size="10.00">Name::validateStartsWithAlpha</text>
</a>
</g>
</g>
<!-- Node7&#45;&gt;Node11 -->
<g id="edge11" class="edge">
<title>Node7&#45;&gt;Node11</title>
<path fill="none" stroke="#63b8ff" d="M326.96,-75.53C340.33,-72.7 354.86,-69.67 368.28,-67 379.05,-64.85 390.48,-62.65 401.64,-60.54"/>
<polygon fill="#63b8ff" stroke="#63b8ff" points="402.01,-64.03 411.19,-58.74 400.71,-57.15 402.01,-64.03"/>
</g>
<!-- Node12 -->
<g id="node12" class="node">
<title>Node12</title>
<g id="a_node12"><a xlink:href="className.html#a8004ce0cca7df10725e0e34cd541f274" target="_top" xlink:title="Return true if newName is left and right trimmed for whitespace.">
<polygon fill="white" stroke="#666666" points="532.18,-20 409.89,-20 409.89,0 532.18,0 532.18,-20"/>
<text text-anchor="middle" x="471.04" y="-7" font-family="Helvetica,sans-Serif" font-size="10.00">Name::validateTrimmed</text>
</a>
</g>
</g>
<!-- Node7&#45;&gt;Node12 -->
<g id="edge12" class="edge">
<title>Node7&#45;&gt;Node12</title>
<path fill="none" stroke="#63b8ff" d="M291.4,-75.6C308.07,-62.62 338.59,-40.7 368.28,-29 377.8,-25.25 388.11,-22.23 398.4,-19.8"/>
<polygon fill="#63b8ff" stroke="#63b8ff" points="399,-23.25 408.03,-17.7 397.52,-16.41 399,-23.25"/>
</g>
</g>
</svg>
