<?xml version="1.0" encoding="UTF-8" standalone="no"?>
<!DOCTYPE svg PUBLIC "-//W3C//DTD SVG 1.1//EN"
 "http://www.w3.org/Graphics/SVG/1.1/DTD/svg11.dtd">
<!-- Generated by graphviz version 7.0.5 (20221223.1930)
 -->
<!-- Title: Cat::Cat Pages: 1 -->
<svg width="509pt" height="104pt"
 viewBox="0.00 0.00 509.04 104.00" xmlns="http://www.w3.org/2000/svg" xmlns:xlink="http://www.w3.org/1999/xlink">
<g id="graph0" class="graph" transform="scale(1 1) rotate(0) translate(4 100)">
<title>Cat::Cat</title>
<!-- Node1 -->
<g id="node1" class="node">
<title>Node1</title>
<g id="a_node1"><a xlink:title="Generates a Cat with a unknown &#39;color&#39;, Gender and a random &#39;weight&#39;.">
<polygon fill="#999999" stroke="#666666" points="52.52,-39 0.16,-39 0.16,-19 52.52,-19 52.52,-39"/>
<text text-anchor="middle" x="26.34" y="-26" font-family="Helvetica,sans-Serif" font-size="10.00">Cat::Cat</text>
</a>
</g>
</g>
<!-- Node2 -->
<g id="node2" class="node">
<title>Node2</title>
<g id="a_node2"><a xlink:href="classMammal.html#a355f8c647618d6baf6bda466f04401e2" target="_top" xlink:title="Generates a Mammal with a specified &#39;color&#39;, &#39;weight&#39;, and Gender.">
<polygon fill="white" stroke="#666666" points="200.66,-58 102.21,-58 102.21,-38 200.66,-38 200.66,-58"/>
<text text-anchor="middle" x="151.44" y="-45" font-family="Helvetica,sans-Serif" font-size="10.00">Mammal::Mammal</text>
</a>
</g>
</g>
<!-- Node1&#45;&gt;Node2 -->
<g id="edge1" class="edge">
<title>Node1&#45;&gt;Node2</title>
<path fill="none" stroke="#63b8ff" d="M52.85,-32.94C63.96,-34.65 77.49,-36.74 90.9,-38.81"/>
<polygon fill="#63b8ff" stroke="#63b8ff" points="90.16,-42.24 100.58,-40.3 91.23,-35.32 90.16,-42.24"/>
</g>
<!-- Node6 -->
<g id="node6" class="node">
<title>Node6</title>
<g id="a_node6"><a xlink:href="classAnimal.html#a96634826703e846e99b8592be6fef36a" target="_top" xlink:title="Generates a random &#39;weight&#39; in pounds for an Animal.">
<polygon fill="white" stroke="#666666" points="213.96,-20 88.92,-20 88.92,0 213.96,0 213.96,-20"/>
<text text-anchor="middle" x="151.44" y="-7" font-family="Helvetica,sans-Serif" font-size="10.00">Animal::generatePounds</text>
</a>
</g>
</g>
<!-- Node1&#45;&gt;Node6 -->
<g id="edge6" class="edge">
<title>Node1&#45;&gt;Node6</title>
<path fill="none" stroke="#63b8ff" d="M52.85,-25.06C60.22,-23.92 68.67,-22.62 77.43,-21.27"/>
<polygon fill="#63b8ff" stroke="#63b8ff" points="77.81,-24.75 87.16,-19.77 76.74,-17.83 77.81,-24.75"/>
</g>
<!-- Node3 -->
<g id="node3" class="node">
<title>Node3</title>
<g id="a_node3"><a xlink:href="classAnimal.html#aec8039997b0be3da027036d998f8207c" target="_top" xlink:title="Generates an Animal with a specified &#39;weight&#39;.">
<polygon fill="white" stroke="#666666" points="339.95,-96 257.57,-96 257.57,-76 339.95,-76 339.95,-96"/>
<text text-anchor="middle" x="298.76" y="-83" font-family="Helvetica,sans-Serif" font-size="10.00">Animal::Animal</text>
</a>
</g>
</g>
<!-- Node2&#45;&gt;Node3 -->
<g id="edge2" class="edge">
<title>Node2&#45;&gt;Node3</title>
<path fill="none" stroke="#63b8ff" d="M192.53,-58.48C209.29,-62.87 228.96,-68.01 246.73,-72.66"/>
<polygon fill="#63b8ff" stroke="#63b8ff" points="245.77,-76.02 256.33,-75.17 247.54,-69.25 245.77,-76.02"/>
</g>
<!-- Node4 -->
<g id="node4" class="node">
<title>Node4</title>
<g id="a_node4"><a xlink:href="classAnimal.html#acde9807bf2eadb3fb6a8650ba7ccfa43" target="_top" xlink:title="Validates &#39;weight&#39; based on specified ruleset.">
<polygon fill="white" stroke="#666666" points="500.9,-77 383.47,-77 383.47,-57 500.9,-57 500.9,-77"/>
<text text-anchor="middle" x="442.18" y="-64" font-family="Helvetica,sans-Serif" font-size="10.00">Animal::validateWeight</text>
</a>
</g>
</g>
<!-- Node2&#45;&gt;Node4 -->
<g id="edge5" class="edge">
<title>Node2&#45;&gt;Node4</title>
<path fill="none" stroke="#63b8ff" d="M201.09,-51.2C247.89,-54.28 319.09,-58.97 371.82,-62.44"/>
<polygon fill="#63b8ff" stroke="#63b8ff" points="371.39,-65.92 381.6,-63.08 371.85,-58.93 371.39,-65.92"/>
</g>
<!-- Node5 -->
<g id="node5" class="node">
<title>Node5</title>
<g id="a_node5"><a xlink:href="classMammal.html#a42669c20d1329bf92fc078bd3220bd17" target="_top" xlink:title="Sets color of Mammal.">
<polygon fill="white" stroke="#666666" points="347.39,-20 250.13,-20 250.13,0 347.39,0 347.39,-20"/>
<text text-anchor="middle" x="298.76" y="-7" font-family="Helvetica,sans-Serif" font-size="10.00">Mammal::setColor</text>
</a>
</g>
</g>
<!-- Node2&#45;&gt;Node5 -->
<g id="edge4" class="edge">
<title>Node2&#45;&gt;Node5</title>
<path fill="none" stroke="#63b8ff" d="M192.53,-37.52C209.29,-33.13 228.96,-27.99 246.73,-23.34"/>
<polygon fill="#63b8ff" stroke="#63b8ff" points="247.54,-26.75 256.33,-20.83 245.77,-19.98 247.54,-26.75"/>
</g>
<!-- Node3&#45;&gt;Node4 -->
<g id="edge3" class="edge">
<title>Node3&#45;&gt;Node4</title>
<path fill="none" stroke="#63b8ff" d="M340.29,-80.56C350.16,-79.23 361,-77.77 371.8,-76.32"/>
<polygon fill="#63b8ff" stroke="#63b8ff" points="372.05,-79.82 381.5,-75.02 371.12,-72.88 372.05,-79.82"/>
</g>
</g>
</svg>
