<?xml version="1.0" encoding="UTF-8" standalone="no"?>
<!DOCTYPE svg PUBLIC "-//W3C//DTD SVG 1.1//EN"
 "http://www.w3.org/Graphics/SVG/1.1/DTD/svg11.dtd">
<!-- Generated by graphviz version 7.0.5 (20221223.1930)
 -->
<!-- Title: Cat::Cat Pages: 1 -->
<svg width="482pt" height="104pt"
 viewBox="0.00 0.00 481.75 104.00" xmlns="http://www.w3.org/2000/svg" xmlns:xlink="http://www.w3.org/1999/xlink">
<g id="graph0" class="graph" transform="scale(1 1) rotate(0) translate(4 100)">
<title>Cat::Cat</title>
<!-- Node1 -->
<g id="node1" class="node">
<title>Node1</title>
<g id="a_node1"><a xlink:title="Generates a Cat with a specified &#39;color&#39;, &#39;weight&#39;, and Gender.">
<polygon fill="#999999" stroke="#666666" points="52.52,-58 0.16,-58 0.16,-38 52.52,-38 52.52,-58"/>
<text text-anchor="middle" x="26.34" y="-45" font-family="Helvetica,sans-Serif" font-size="10.00">Cat::Cat</text>
</a>
</g>
</g>
<!-- Node2 -->
<g id="node2" class="node">
<title>Node2</title>
<g id="a_node2"><a xlink:href="classMammal.html#a355f8c647618d6baf6bda466f04401e2" target="_top" xlink:title="Generates a Mammal with a specified &#39;color&#39;, &#39;weight&#39;, and Gender.">
<polygon fill="white" stroke="#666666" points="187.02,-58 88.57,-58 88.57,-38 187.02,-38 187.02,-58"/>
<text text-anchor="middle" x="137.79" y="-45" font-family="Helvetica,sans-Serif" font-size="10.00">Mammal::Mammal</text>
</a>
</g>
</g>
<!-- Node1&#45;&gt;Node2 -->
<g id="edge1" class="edge">
<title>Node1&#45;&gt;Node2</title>
<path fill="none" stroke="#63b8ff" d="M53,-48C60.21,-48 68.37,-48 76.7,-48"/>
<polygon fill="#63b8ff" stroke="#63b8ff" points="76.57,-51.5 86.57,-48 76.57,-44.5 76.57,-51.5"/>
</g>
<!-- Node3 -->
<g id="node3" class="node">
<title>Node3</title>
<g id="a_node3"><a xlink:href="classAnimal.html#aec8039997b0be3da027036d998f8207c" target="_top" xlink:title="Generates an Animal with a specified &#39;weight&#39;.">
<polygon fill="white" stroke="#666666" points="312.66,-96 230.28,-96 230.28,-76 312.66,-76 312.66,-96"/>
<text text-anchor="middle" x="271.47" y="-83" font-family="Helvetica,sans-Serif" font-size="10.00">Animal::Animal</text>
</a>
</g>
</g>
<!-- Node2&#45;&gt;Node3 -->
<g id="edge2" class="edge">
<title>Node2&#45;&gt;Node3</title>
<path fill="none" stroke="#63b8ff" d="M175.12,-58.48C190.09,-62.8 207.62,-67.86 223.55,-72.46"/>
<polygon fill="#63b8ff" stroke="#63b8ff" points="222.23,-75.72 232.8,-75.13 224.17,-68.99 222.23,-75.72"/>
</g>
<!-- Node4 -->
<g id="node4" class="node">
<title>Node4</title>
<g id="a_node4"><a xlink:href="classAnimal.html#acde9807bf2eadb3fb6a8650ba7ccfa43" target="_top" xlink:title="Validates &#39;weight&#39; based on specified ruleset.">
<polygon fill="white" stroke="#666666" points="473.61,-77 356.18,-77 356.18,-57 473.61,-57 473.61,-77"/>
<text text-anchor="middle" x="414.89" y="-64" font-family="Helvetica,sans-Serif" font-size="10.00">Animal::validateWeight</text>
</a>
</g>
</g>
<!-- Node2&#45;&gt;Node4 -->
<g id="edge5" class="edge">
<title>Node2&#45;&gt;Node4</title>
<path fill="none" stroke="#63b8ff" d="M187.34,-51.35C230.9,-54.36 295.31,-58.81 344.34,-62.2"/>
<polygon fill="#63b8ff" stroke="#63b8ff" points="344.08,-65.69 354.3,-62.88 344.57,-58.7 344.08,-65.69"/>
</g>
<!-- Node5 -->
<g id="node5" class="node">
<title>Node5</title>
<g id="a_node5"><a xlink:href="classMammal.html#a42669c20d1329bf92fc078bd3220bd17" target="_top" xlink:title="Sets color of Mammal.">
<polygon fill="white" stroke="#666666" points="320.1,-20 222.84,-20 222.84,0 320.1,0 320.1,-20"/>
<text text-anchor="middle" x="271.47" y="-7" font-family="Helvetica,sans-Serif" font-size="10.00">Mammal::setColor</text>
</a>
</g>
</g>
<!-- Node2&#45;&gt;Node5 -->
<g id="edge4" class="edge">
<title>Node2&#45;&gt;Node5</title>
<path fill="none" stroke="#63b8ff" d="M175.12,-37.52C190.09,-33.2 207.62,-28.14 223.55,-23.54"/>
<polygon fill="#63b8ff" stroke="#63b8ff" points="224.17,-27.01 232.8,-20.87 222.23,-20.28 224.17,-27.01"/>
</g>
<!-- Node3&#45;&gt;Node4 -->
<g id="edge3" class="edge">
<title>Node3&#45;&gt;Node4</title>
<path fill="none" stroke="#63b8ff" d="M313,-80.56C322.87,-79.23 333.71,-77.77 344.51,-76.32"/>
<polygon fill="#63b8ff" stroke="#63b8ff" points="344.76,-79.82 354.21,-75.02 343.83,-72.88 344.76,-79.82"/>
</g>
</g>
</svg>
