<?xml version="1.0" encoding="UTF-8" standalone="no"?>
<!DOCTYPE svg PUBLIC "-//W3C//DTD SVG 1.1//EN"
 "http://www.w3.org/Graphics/SVG/1.1/DTD/svg11.dtd">
<!-- Generated by graphviz version 7.0.5 (20221223.1930)
 -->
<!-- Title: Cat Pages: 1 -->
<!--zoomable 985 -->
<svg id="main" version="1.1" xmlns="http://www.w3.org/2000/svg" xmlns:xlink="http://www.w3.org/1999/xlink" xml:space="preserve" onload="init(evt)">
<style type="text/css"><![CDATA[
.edge:hover path { stroke: red; }
.edge:hover polygon { stroke: red; fill: red; }
]]></style>
<script type="text/javascript"><![CDATA[
var edges = document.getElementsByTagName('g');
if (edges && edges.length) {
  for (var i=0;i<edges.length;i++) {
    if (edges[i].id.substr(0,4)=='edge') {
      edges[i].setAttribute('class','edge');
    }
  }
}
]]></script>
        <defs>
                <circle id="rim" cx="0" cy="0" r="7"/>
                <circle id="rim2" cx="0" cy="0" r="3.5"/>
                <g id="zoomPlus">
                        <use xlink:href="#rim" fill="#404040">
                                <set attributeName="fill" to="#808080" begin="zoomplus.mouseover" end="zoomplus.mouseout"/>
                        </use>
                        <path d="M-4,0h8M0,-4v8" fill="none" stroke="white" stroke-width="1.5" pointer-events="none"/>
                </g>
                <g id="zoomMin">
                        <use xlink:href="#rim" fill="#404040">
                                <set attributeName="fill" to="#808080" begin="zoomminus.mouseover" end="zoomminus.mouseout"/>
                        </use>
                        <path d="M-4,0h8" fill="none" stroke="white" stroke-width="1.5" pointer-events="none"/>
                </g>
                <g id="dirArrow">
                        <path fill="none" stroke="white" stroke-width="1.5" d="M0,-3.0v7 M-2.5,-0.5L0,-3.0L2.5,-0.5"/>
                </g>
               <g id="resetDef">
                       <use xlink:href="#rim2" fill="#404040">
                               <set attributeName="fill" to="#808080" begin="reset.mouseover" end="reset.mouseout"/>
                       </use>
               </g>
        </defs>

<script type="text/javascript">
var viewWidth = 792;
var viewHeight = 985;
var sectionId = 'dynsection-1';
</script>
<script xlink:href="svgpan.js"/>
<svg id="graph" class="graph">
<g id="viewport">
<title>Cat</title>
<!-- Node1 -->
<g id="node1" class="node">
<title>Node1</title>
<g id="a_node1"><a xlink:title="A database record for a cat.">
<polygon fill="#999999" stroke="#666666" points="141.33,-0.5 141.33,-204.5 663.4,-204.5 663.4,-0.5 141.33,-0.5"/>
<text text-anchor="middle" x="402.37" y="-191.5" font-family="Helvetica,sans-Serif" font-size="10.00">Cat</text>
<polyline fill="none" stroke="#666666" points="141.33,-184.5 663.4,-184.5"/>
<text text-anchor="start" x="149.33" y="-171.5" font-family="Helvetica,sans-Serif" font-size="10.00">+ enum Gender gender</text>
<text text-anchor="start" x="149.33" y="-159.5" font-family="Helvetica,sans-Serif" font-size="10.00">+ float weightInPounds</text>
<text text-anchor="start" x="149.33" y="-147.5" font-family="Helvetica,sans-Serif" font-size="10.00">+ uint32_t chipId</text>
<text text-anchor="start" x="149.33" y="-135.5" font-family="Helvetica,sans-Serif" font-size="10.00">+ bool isFixed</text>
<polyline fill="none" stroke="#666666" points="141.33,-128.5 663.4,-128.5"/>
<text text-anchor="start" x="149.33" y="-115.5" font-family="Helvetica,sans-Serif" font-size="10.00">+ Cat(const string_view newName, const float newWeight, const string_view newColor, const Gender newGender)</text>
<text text-anchor="start" x="149.33" y="-103.5" font-family="Helvetica,sans-Serif" font-size="10.00">+ Cat(const string_view newName, const float newWeight, string_view newColor)</text>
<text text-anchor="start" x="149.33" y="-91.5" font-family="Helvetica,sans-Serif" font-size="10.00">+ Cat(const string_view newName, const float newWeight, const Gender newGender)</text>
<text text-anchor="start" x="149.33" y="-79.5" font-family="Helvetica,sans-Serif" font-size="10.00">+ Cat(const string_view newName, const Gender newGender, const string_view newColor)</text>
<text text-anchor="start" x="149.33" y="-67.5" font-family="Helvetica,sans-Serif" font-size="10.00">+ Cat(const string_view newName, const float newWeight)</text>
<text text-anchor="start" x="149.33" y="-55.5" font-family="Helvetica,sans-Serif" font-size="10.00">+ Cat(const string_view newName, const Gender newGender)</text>
<text text-anchor="start" x="149.33" y="-43.5" font-family="Helvetica,sans-Serif" font-size="10.00">+ Cat(string_view newName)</text>
<text text-anchor="start" x="149.33" y="-31.5" font-family="Helvetica,sans-Serif" font-size="10.00">+ string_view getName() const noexcept</text>
<text text-anchor="start" x="149.33" y="-19.5" font-family="Helvetica,sans-Serif" font-size="10.00">+ void setName(std::string_view newName)</text>
<text text-anchor="start" x="149.33" y="-7.5" font-family="Helvetica,sans-Serif" font-size="10.00">+ string_view speak() const noexcept</text>
</a>
</g>
</g>
<!-- Node2 -->
<g id="node2" class="node">
<title>Node2</title>
<g id="a_node2"><a xlink:href="classMammal.html" target="_top" xlink:title="Mammals? More like &quot;ma pals!&quot;.">
<polygon fill="white" stroke="#666666" points="39.99,-253.5 39.99,-493.5 374.74,-493.5 374.74,-253.5 39.99,-253.5"/>
<text text-anchor="middle" x="207.37" y="-480.5" font-family="Helvetica,sans-Serif" font-size="10.00">Mammal</text>
<polyline fill="none" stroke="#666666" points="39.99,-473.5 374.74,-473.5"/>
<text text-anchor="start" x="47.99" y="-460.5" font-family="Helvetica,sans-Serif" font-size="10.00"># Gender gender</text>
<polyline fill="none" stroke="#666666" points="39.99,-453.5 374.74,-453.5"/>
<text text-anchor="start" x="47.99" y="-440.5" font-family="Helvetica,sans-Serif" font-size="10.00">+ Mammal(float newWeight, string_view newColor, Gender newGender)</text>
<text text-anchor="start" x="47.99" y="-428.5" font-family="Helvetica,sans-Serif" font-size="10.00">+ Mammal(float newWeight, string_view newColor)</text>
<text text-anchor="start" x="47.99" y="-416.5" font-family="Helvetica,sans-Serif" font-size="10.00">+ Mammal(float newWeight, Gender newGender)</text>
<text text-anchor="start" x="47.99" y="-404.5" font-family="Helvetica,sans-Serif" font-size="10.00">+ Mammal(Gender newGender, string_view newColor)</text>
<text text-anchor="start" x="47.99" y="-392.5" font-family="Helvetica,sans-Serif" font-size="10.00">+ Mammal(float newWeight)</text>
<text text-anchor="start" x="47.99" y="-380.5" font-family="Helvetica,sans-Serif" font-size="10.00">+ Mammal(Gender newGender)</text>
<text text-anchor="start" x="47.99" y="-368.5" font-family="Helvetica,sans-Serif" font-size="10.00">+ Mammal()</text>
<text text-anchor="start" x="47.99" y="-356.5" font-family="Helvetica,sans-Serif" font-size="10.00">+ virtual ~Mammal()</text>
<text text-anchor="start" x="47.99" y="-344.5" font-family="Helvetica,sans-Serif" font-size="10.00">+ void setColor(string_view newColor)</text>
<text text-anchor="start" x="47.99" y="-332.5" font-family="Helvetica,sans-Serif" font-size="10.00">+ string_view getColor() const noexcept</text>
<text text-anchor="start" x="47.99" y="-320.5" font-family="Helvetica,sans-Serif" font-size="10.00">+ void setGender(Gender newGender)</text>
<text text-anchor="start" x="47.99" y="-308.5" font-family="Helvetica,sans-Serif" font-size="10.00">+ Gender getGender() const noexcept</text>
<text text-anchor="start" x="47.99" y="-296.5" font-family="Helvetica,sans-Serif" font-size="10.00">+ virtual bool validate() const noexcept</text>
<text text-anchor="start" x="47.99" y="-284.5" font-family="Helvetica,sans-Serif" font-size="10.00">+ virtual void dump() const noexcept</text>
<text text-anchor="start" x="47.99" y="-272.5" font-family="Helvetica,sans-Serif" font-size="10.00">+ static string_view getClassification() noexcept</text>
<text text-anchor="start" x="47.99" y="-260.5" font-family="Helvetica,sans-Serif" font-size="10.00">+ static string_view generateColor() noexcept</text>
</a>
</g>
</g>
<!-- Node2&#45;&gt;Node1 -->
<g id="edge1" class="edge">
<title>Node2&#45;&gt;Node1</title>
<path fill="none" stroke="#63b8ff" d="M300.2,-244.44C309.95,-230.99 319.76,-217.46 329.24,-204.38"/>
<polygon fill="none" stroke="#63b8ff" points="297.39,-242.35 294.35,-252.5 303.06,-246.46 297.39,-242.35"/>
</g>
<!-- Node3 -->
<g id="node3" class="node">
<title>Node3</title>
<g id="a_node3"><a xlink:href="classAnimal.html" target="_top" xlink:title="Are there any malls for animals?">
<polygon fill="white" stroke="#666666" points="148.54,-542.5 148.54,-686.5 370.2,-686.5 370.2,-542.5 148.54,-542.5"/>
<text text-anchor="middle" x="259.37" y="-673.5" font-family="Helvetica,sans-Serif" font-size="10.00">Animal</text>
<polyline fill="none" stroke="#666666" points="148.54,-666.5 370.2,-666.5"/>
<text text-anchor="start" x="156.54" y="-653.5" font-family="Helvetica,sans-Serif" font-size="10.00"># float weight</text>
<polyline fill="none" stroke="#666666" points="148.54,-646.5 370.2,-646.5"/>
<text text-anchor="start" x="156.54" y="-633.5" font-family="Helvetica,sans-Serif" font-size="10.00">+ Animal(float newWeight)</text>
<text text-anchor="start" x="156.54" y="-621.5" font-family="Helvetica,sans-Serif" font-size="10.00">+ Animal()</text>
<text text-anchor="start" x="156.54" y="-609.5" font-family="Helvetica,sans-Serif" font-size="10.00">+ virtual bool validate() const noexcept</text>
<text text-anchor="start" x="156.54" y="-597.5" font-family="Helvetica,sans-Serif" font-size="10.00">+ virtual void dump() const noexcept</text>
<text text-anchor="start" x="156.54" y="-585.5" font-family="Helvetica,sans-Serif" font-size="10.00">+ virtual string_view speak() const noexcept=0</text>
<text text-anchor="start" x="156.54" y="-573.5" font-family="Helvetica,sans-Serif" font-size="10.00">+ static string_view getKingdom() noexcept</text>
<text text-anchor="start" x="156.54" y="-561.5" font-family="Helvetica,sans-Serif" font-size="10.00">+ static bool validateWeight(float weight)</text>
<text text-anchor="start" x="156.54" y="-549.5" font-family="Helvetica,sans-Serif" font-size="10.00">+ static float generatePounds() noexcept</text>
</a>
</g>
</g>
<!-- Node3&#45;&gt;Node2 -->
<g id="edge2" class="edge">
<title>Node3&#45;&gt;Node2</title>
<path fill="none" stroke="#63b8ff" d="M241.55,-531.62C238.87,-519.29 236.06,-506.37 233.25,-493.45"/>
<polygon fill="none" stroke="#63b8ff" points="238.11,-532.26 243.65,-541.28 244.95,-530.77 238.11,-532.26"/>
</g>
<!-- Node4 -->
<g id="node4" class="node">
<title>Node4</title>
<g id="a_node4"><a xlink:href="classNode.html" target="_top" xlink:title="Do no new nodes know known nodes!?">
<polygon fill="white" stroke="#666666" points="170.84,-735.5 170.84,-867.5 373.89,-867.5 373.89,-735.5 170.84,-735.5"/>
<text text-anchor="middle" x="272.37" y="-854.5" font-family="Helvetica,sans-Serif" font-size="10.00">Node</text>
<polyline fill="none" stroke="#666666" points="170.84,-847.5 373.89,-847.5"/>
<text text-anchor="middle" x="272.37" y="-834.5" font-family="Helvetica,sans-Serif" font-size="10.00"> </text>
<polyline fill="none" stroke="#666666" points="170.84,-827.5 373.89,-827.5"/>
<text text-anchor="start" x="178.84" y="-814.5" font-family="Helvetica,sans-Serif" font-size="10.00">+ Node()=default</text>
<text text-anchor="start" x="178.84" y="-802.5" font-family="Helvetica,sans-Serif" font-size="10.00">+ virtual ~Node()</text>
<text text-anchor="start" x="178.84" y="-790.5" font-family="Helvetica,sans-Serif" font-size="10.00">+ virtual void reset()</text>
<text text-anchor="start" x="178.84" y="-778.5" font-family="Helvetica,sans-Serif" font-size="10.00">+ virtual void dump() const noexcept</text>
<text text-anchor="start" x="178.84" y="-766.5" font-family="Helvetica,sans-Serif" font-size="10.00">+ virtual bool validate() const</text>
<text text-anchor="start" x="178.84" y="-754.5" font-family="Helvetica,sans-Serif" font-size="10.00">+ string info() const noexcept</text>
<text text-anchor="start" x="178.84" y="-742.5" font-family="Helvetica,sans-Serif" font-size="10.00">+ bool isLessThan(const Node *rhs_node)</text>
</a>
</g>
</g>
<!-- Node4&#45;&gt;Node3 -->
<g id="edge3" class="edge">
<title>Node4&#45;&gt;Node3</title>
<path fill="none" stroke="#63b8ff" d="M267,-724.17C266.12,-711.63 265.21,-698.68 264.34,-686.29"/>
<polygon fill="none" stroke="#63b8ff" points="263.5,-724.3 267.7,-734.03 270.49,-723.81 263.5,-724.3"/>
</g>
<!-- Node4&#45;&gt;Node4 -->
<g id="edge4" class="edge">
<title>Node4&#45;&gt;Node4</title>
<path fill="none" stroke="#404040" d="M373.52,-815.77C384.69,-813.06 391.89,-808.31 391.89,-801.5 391.89,-797.67 389.61,-794.49 385.63,-791.96"/>
<polygon fill="none" stroke="#404040" points="385.54,-791.92 378.49,-793.46 374.36,-787.55 381.4,-786.01 385.54,-791.92"/>
<text text-anchor="middle" x="404.4" y="-810.5" font-family="Helvetica,sans-Serif" font-size="10.00"> #left</text>
<text text-anchor="middle" x="404.4" y="-798.5" font-family="Helvetica,sans-Serif" font-size="10.00">#next</text>
<text text-anchor="middle" x="404.4" y="-786.5" font-family="Helvetica,sans-Serif" font-size="10.00">#right</text>
</g>
<!-- Node5 -->
<g id="node5" class="node">
<title>Node5</title>
<g id="a_node5"><a xlink:title=" ">
<polygon fill="white" stroke="#666666" points="37.91,-584.5 37.91,-644.5 122.82,-644.5 122.82,-584.5 37.91,-584.5"/>
<text text-anchor="middle" x="80.37" y="-631.5" font-family="Helvetica,sans-Serif" font-size="10.00">std::string_view</text>
<polyline fill="none" stroke="#666666" points="37.91,-624.5 122.82,-624.5"/>
<text text-anchor="middle" x="80.37" y="-611.5" font-family="Helvetica,sans-Serif" font-size="10.00"> </text>
<polyline fill="none" stroke="#666666" points="37.91,-604.5 122.82,-604.5"/>
<text text-anchor="middle" x="80.37" y="-591.5" font-family="Helvetica,sans-Serif" font-size="10.00"> </text>
</a>
</g>
</g>
<!-- Node5&#45;&gt;Node2 -->
<g id="edge5" class="edge">
<title>Node5&#45;&gt;Node2</title>
<path fill="none" stroke="#404040" d="M95.69,-584.67C106.64,-564.05 122.25,-534.69 138.33,-504.43"/>
<polygon fill="none" stroke="#404040" points="138.21,-504.65 137.49,-497.47 143.84,-494.05 144.56,-501.22 138.21,-504.65"/>
<text text-anchor="middle" x="148.37" y="-515" font-family="Helvetica,sans-Serif" font-size="10.00"> #color</text>
</g>
<!-- Node6 -->
<g id="node6" class="node">
<title>Node6</title>
<g id="a_node6"><a xlink:title=" ">
<polygon fill="white" stroke="#666666" points="0,-771.5 0,-831.5 152.73,-831.5 152.73,-771.5 0,-771.5"/>
<text text-anchor="middle" x="76.37" y="-818.5" font-family="Helvetica,sans-Serif" font-size="10.00">std::basic_string_view&lt; Char &gt;</text>
<polyline fill="none" stroke="#666666" points="0,-811.5 152.73,-811.5"/>
<text text-anchor="middle" x="76.37" y="-798.5" font-family="Helvetica,sans-Serif" font-size="10.00"> </text>
<polyline fill="none" stroke="#666666" points="0,-791.5 152.73,-791.5"/>
<text text-anchor="middle" x="76.37" y="-778.5" font-family="Helvetica,sans-Serif" font-size="10.00"> </text>
</a>
</g>
</g>
<!-- Node6&#45;&gt;Node5 -->
<g id="edge6" class="edge">
<title>Node6&#45;&gt;Node5</title>
<path fill="none" stroke="#63b8ff" d="M77.24,-760.33C77.99,-725.3 79.07,-675.35 79.75,-644.2"/>
<polygon fill="none" stroke="#63b8ff" points="73.74,-760.01 77.02,-770.08 80.74,-760.16 73.74,-760.01"/>
</g>
<!-- Node7 -->
<g id="node7" class="node">
<title>Node7</title>
<g id="a_node7"><a xlink:title=" ">
<polygon fill="white" stroke="#666666" points="443.69,-771.5 443.69,-831.5 503.04,-831.5 503.04,-771.5 443.69,-771.5"/>
<text text-anchor="middle" x="473.37" y="-818.5" font-family="Helvetica,sans-Serif" font-size="10.00">std::string</text>
<polyline fill="none" stroke="#666666" points="443.69,-811.5 503.04,-811.5"/>
<text text-anchor="middle" x="473.37" y="-798.5" font-family="Helvetica,sans-Serif" font-size="10.00"> </text>
<polyline fill="none" stroke="#666666" points="443.69,-791.5 503.04,-791.5"/>
<text text-anchor="middle" x="473.37" y="-778.5" font-family="Helvetica,sans-Serif" font-size="10.00"> </text>
</a>
</g>
</g>
<!-- Node7&#45;&gt;Node1 -->
<g id="edge7" class="edge">
<title>Node7&#45;&gt;Node1</title>
<path fill="none" stroke="#404040" d="M467.26,-771.5C456.1,-717.29 432.54,-596.75 421.37,-494 411.27,-401.16 406.54,-295.31 404.32,-217.26"/>
<polygon fill="none" stroke="#404040" points="404.32,-217.39 400.16,-211.5 404,-205.39 408.16,-211.28 404.32,-217.39"/>
<text text-anchor="middle" x="442.04" y="-515" font-family="Helvetica,sans-Serif" font-size="10.00"> #name</text>
</g>
<!-- Node9 -->
<g id="node9" class="node">
<title>Node9</title>
<g id="a_node9"><a xlink:href="className.html" target="_top" xlink:title="A utility class for managing Animal names.">
<polygon fill="white" stroke="#666666" points="430.83,-271.5 430.83,-475.5 783.9,-475.5 783.9,-271.5 430.83,-271.5"/>
<text text-anchor="middle" x="607.37" y="-462.5" font-family="Helvetica,sans-Serif" font-size="10.00">Name</text>
<polyline fill="none" stroke="#666666" points="430.83,-455.5 783.9,-455.5"/>
<text text-anchor="start" x="438.83" y="-442.5" font-family="Helvetica,sans-Serif" font-size="10.00">+ static serial_t maxSerial</text>
<text text-anchor="start" x="438.83" y="-430.5" font-family="Helvetica,sans-Serif" font-size="10.00"># enum NameType nameType</text>
<text text-anchor="start" x="438.83" y="-418.5" font-family="Helvetica,sans-Serif" font-size="10.00"># serial_t serial</text>
<polyline fill="none" stroke="#666666" points="430.83,-411.5 783.9,-411.5"/>
<text text-anchor="start" x="438.83" y="-398.5" font-family="Helvetica,sans-Serif" font-size="10.00">+ Name(std::string_view newFilename)</text>
<text text-anchor="start" x="438.83" y="-386.5" font-family="Helvetica,sans-Serif" font-size="10.00">+ Name(std::string_view newSerialPrefix, std::string_view newSerialSuffix)</text>
<text text-anchor="start" x="438.83" y="-374.5" font-family="Helvetica,sans-Serif" font-size="10.00">+ std::string getNextName()</text>
<text text-anchor="start" x="438.83" y="-362.5" font-family="Helvetica,sans-Serif" font-size="10.00">+ void reset()</text>
<text text-anchor="start" x="438.83" y="-350.5" font-family="Helvetica,sans-Serif" font-size="10.00">+ serial_t remainingNames() noexcept</text>
<text text-anchor="start" x="438.83" y="-338.5" font-family="Helvetica,sans-Serif" font-size="10.00">+ static bool validateName(std::string_view newName)</text>
<text text-anchor="start" x="438.83" y="-326.5" font-family="Helvetica,sans-Serif" font-size="10.00">+ static bool validateNotEmpty(std::string_view newName)</text>
<text text-anchor="start" x="438.83" y="-314.5" font-family="Helvetica,sans-Serif" font-size="10.00">+ static bool validateTrimmed(std::string_view newName)</text>
<text text-anchor="start" x="438.83" y="-302.5" font-family="Helvetica,sans-Serif" font-size="10.00">+ static bool validateStartsWithAlpha(std::string_view newName)</text>
<text text-anchor="start" x="438.83" y="-290.5" font-family="Helvetica,sans-Serif" font-size="10.00">+ static bool validateNoSpecialChars(std::string_view newName)</text>
<text text-anchor="start" x="438.83" y="-278.5" font-family="Helvetica,sans-Serif" font-size="10.00">+ static bool validateInteriorWhitespaceTrimmed(std::string_view newName)</text>
</a>
</g>
</g>
<!-- Node7&#45;&gt;Node9 -->
<g id="edge10" class="edge">
<title>Node7&#45;&gt;Node9</title>
<path fill="none" stroke="#404040" d="M468.9,-771.55C462.55,-722.64 454.51,-621.22 482.35,-542 489.12,-522.72 498.97,-503.82 510.2,-486.06"/>
<polygon fill="none" stroke="#404040" points="510.28,-485.94 510.23,-478.73 516.87,-475.91 516.92,-483.12 510.28,-485.94"/>
<text text-anchor="middle" x="509.88" y="-623.5" font-family="Helvetica,sans-Serif" font-size="10.00"> #fileName</text>
<text text-anchor="middle" x="509.88" y="-611.5" font-family="Helvetica,sans-Serif" font-size="10.00">#serialPrefix</text>
<text text-anchor="middle" x="509.88" y="-599.5" font-family="Helvetica,sans-Serif" font-size="10.00">#serialSuffix</text>
</g>
<!-- Node10 -->
<g id="node10" class="node">
<title>Node10</title>
<g id="a_node10"><a xlink:title=" ">
<polygon fill="white" stroke="#666666" points="546.01,-584.5 546.01,-644.5 668.72,-644.5 668.72,-584.5 546.01,-584.5"/>
<text text-anchor="middle" x="607.37" y="-631.5" font-family="Helvetica,sans-Serif" font-size="10.00">std::vector&lt; std::string &gt;</text>
<polyline fill="none" stroke="#666666" points="546.01,-624.5 668.72,-624.5"/>
<text text-anchor="middle" x="607.37" y="-611.5" font-family="Helvetica,sans-Serif" font-size="10.00"> </text>
<polyline fill="none" stroke="#666666" points="546.01,-604.5 668.72,-604.5"/>
<text text-anchor="middle" x="607.37" y="-591.5" font-family="Helvetica,sans-Serif" font-size="10.00"> </text>
</a>
</g>
</g>
<!-- Node7&#45;&gt;Node10 -->
<g id="edge12" class="edge">
<title>Node7&#45;&gt;Node10</title>
<path fill="none" stroke="#404040" d="M494.3,-771.59C517.12,-740.1 553.74,-689.53 579.1,-654.53"/>
<polygon fill="none" stroke="#404040" points="579.01,-654.65 579.29,-647.45 586.05,-644.93 585.77,-652.14 579.01,-654.65"/>
<text text-anchor="middle" x="564.96" y="-708" font-family="Helvetica,sans-Serif" font-size="10.00"> +elements</text>
</g>
<!-- Node8 -->
<g id="node8" class="node">
<title>Node8</title>
<g id="a_node8"><a xlink:title=" ">
<polygon fill="white" stroke="#666666" points="409.78,-916.5 409.78,-976.5 536.95,-976.5 536.95,-916.5 409.78,-916.5"/>
<text text-anchor="middle" x="473.37" y="-963.5" font-family="Helvetica,sans-Serif" font-size="10.00">std::basic_string&lt; Char &gt;</text>
<polyline fill="none" stroke="#666666" points="409.78,-956.5 536.95,-956.5"/>
<text text-anchor="middle" x="473.37" y="-943.5" font-family="Helvetica,sans-Serif" font-size="10.00"> </text>
<polyline fill="none" stroke="#666666" points="409.78,-936.5 536.95,-936.5"/>
<text text-anchor="middle" x="473.37" y="-923.5" font-family="Helvetica,sans-Serif" font-size="10.00"> </text>
</a>
</g>
</g>
<!-- Node8&#45;&gt;Node7 -->
<g id="edge8" class="edge">
<title>Node8&#45;&gt;Node7</title>
<path fill="none" stroke="#63b8ff" d="M473.37,-905.2C473.37,-881.7 473.37,-852.61 473.37,-831.4"/>
<polygon fill="none" stroke="#63b8ff" points="469.87,-905.05 473.37,-915.05 476.87,-905.05 469.87,-905.05"/>
</g>
<!-- Node9&#45;&gt;Node1 -->
<g id="edge9" class="edge">
<title>Node9&#45;&gt;Node1</title>
<path fill="none" stroke="#404040" d="M530.45,-271.57C516.2,-252.87 501.24,-233.24 486.78,-214.26"/>
<polygon fill="none" stroke="#404040" points="486.85,-214.36 480.04,-212.02 479.58,-204.82 486.4,-207.17 486.85,-214.36"/>
<text text-anchor="middle" x="518.68" y="-226" font-family="Helvetica,sans-Serif" font-size="10.00"> +names</text>
</g>
<!-- Node10&#45;&gt;Node9 -->
<g id="edge11" class="edge">
<title>Node10&#45;&gt;Node9</title>
<path fill="none" stroke="#404040" d="M607.37,-584.67C607.37,-560.35 607.37,-523.87 607.37,-488.1"/>
<polygon fill="none" stroke="#404040" points="607.37,-488.4 603.37,-482.4 607.37,-476.4 611.37,-482.4 607.37,-488.4"/>
<text text-anchor="middle" x="626.54" y="-515" font-family="Helvetica,sans-Serif" font-size="10.00"> #names</text>
</g>
<!-- Node11 -->
<g id="node11" class="node">
<title>Node11</title>
<g id="a_node11"><a xlink:title=" ">
<polygon fill="white" stroke="#666666" points="564.63,-771.5 564.63,-831.5 650.1,-831.5 650.1,-771.5 564.63,-771.5"/>
<text text-anchor="middle" x="607.37" y="-818.5" font-family="Helvetica,sans-Serif" font-size="10.00">std::vector&lt; T &gt;</text>
<polyline fill="none" stroke="#666666" points="564.63,-811.5 650.1,-811.5"/>
<text text-anchor="middle" x="607.37" y="-798.5" font-family="Helvetica,sans-Serif" font-size="10.00"> </text>
<polyline fill="none" stroke="#666666" points="564.63,-791.5 650.1,-791.5"/>
<text text-anchor="middle" x="607.37" y="-778.5" font-family="Helvetica,sans-Serif" font-size="10.00"> </text>
</a>
</g>
</g>
<!-- Node11&#45;&gt;Node10 -->
<g id="edge13" class="edge">
<title>Node11&#45;&gt;Node10</title>
<path fill="none" stroke="orange" d="M607.37,-760.33C607.37,-725.3 607.37,-675.35 607.37,-644.2"/>
<polygon fill="orange" stroke="orange" points="603.87,-760.08 607.37,-770.08 610.87,-760.08 603.87,-760.08"/>
<text text-anchor="middle" x="639.05" y="-708" font-family="Helvetica,sans-Serif" font-size="10.00"> &lt; std::string &gt;</text>
</g>
<!-- Node12 -->
<g id="node12" class="node">
<title>Node12</title>
<g id="a_node12"><a xlink:title=" ">
<polygon fill="white" stroke="#bfbfbf" points="592.87,-916.5 592.87,-976.5 621.87,-976.5 621.87,-916.5 592.87,-916.5"/>
<text text-anchor="middle" x="606.92" y="-963.5" font-family="Helvetica,sans-Serif" font-size="10.00">T</text>
<polyline fill="none" stroke="#bfbfbf" points="592.87,-956.5 620.98,-956.5"/>
<text text-anchor="middle" x="606.92" y="-943.5" font-family="Helvetica,sans-Serif" font-size="10.00"> </text>
<polyline fill="none" stroke="#bfbfbf" points="592.87,-936.5 620.98,-936.5"/>
<text text-anchor="middle" x="606.92" y="-923.5" font-family="Helvetica,sans-Serif" font-size="10.00"> </text>
</a>
</g>
</g>
<!-- Node12&#45;&gt;Node11 -->
<g id="edge14" class="edge">
<title>Node12&#45;&gt;Node11</title>
<path fill="none" stroke="#404040" d="M607.37,-916.56C607.37,-895.82 607.37,-867.57 607.37,-844.37"/>
<polygon fill="none" stroke="#404040" points="607.37,-844.3 603.37,-838.3 607.37,-832.3 611.37,-838.3 607.37,-844.3"/>
<text text-anchor="middle" x="631.96" y="-889" font-family="Helvetica,sans-Serif" font-size="10.00"> +elements</text>
</g>
</g>
</svg>
        <g id="navigator" transform="translate(0 0)" fill="#404254">
                <rect fill="#f2f5e9" fill-opacity="0.5" stroke="#606060" stroke-width=".5" x="0" y="0" width="60" height="60"/>
                <use id="zoomplus" xlink:href="#zoomPlus" x="17" y="9" onmousedown="handleZoom(evt,'in')"/>
                <use id="zoomminus" xlink:href="#zoomMin" x="42" y="9" onmousedown="handleZoom(evt,'out')"/>
                <use id="reset" xlink:href="#resetDef" x="30" y="36" onmousedown="handleReset()"/>
                <g id="arrowUp" xlink:href="#dirArrow" transform="translate(30 24)" onmousedown="handlePan(0,-1)">
                  <use xlink:href="#rim" fill="#404040">
                        <set attributeName="fill" to="#808080" begin="arrowUp.mouseover" end="arrowUp.mouseout"/>
                  </use>
                  <path fill="none" stroke="white" stroke-width="1.5" d="M0,-3.0v7 M-2.5,-0.5L0,-3.0L2.5,-0.5"/>
                </g>
                <g id="arrowRight" xlink:href="#dirArrow" transform="rotate(90) translate(36 -43)" onmousedown="handlePan(1,0)">
                  <use xlink:href="#rim" fill="#404040">
                        <set attributeName="fill" to="#808080" begin="arrowRight.mouseover" end="arrowRight.mouseout"/>
                  </use>
                  <path fill="none" stroke="white" stroke-width="1.5" d="M0,-3.0v7 M-2.5,-0.5L0,-3.0L2.5,-0.5"/>
                </g>
                <g id="arrowDown" xlink:href="#dirArrow" transform="rotate(180) translate(-30 -48)" onmousedown="handlePan(0,1)">
                  <use xlink:href="#rim" fill="#404040">
                        <set attributeName="fill" to="#808080" begin="arrowDown.mouseover" end="arrowDown.mouseout"/>
                  </use>
                  <path fill="none" stroke="white" stroke-width="1.5" d="M0,-3.0v7 M-2.5,-0.5L0,-3.0L2.5,-0.5"/>
                </g>
                <g id="arrowLeft" xlink:href="#dirArrow" transform="rotate(270) translate(-36 17)" onmousedown="handlePan(-1,0)">
                  <use xlink:href="#rim" fill="#404040">
                        <set attributeName="fill" to="#808080" begin="arrowLeft.mouseover" end="arrowLeft.mouseout"/>
                  </use>
                  <path fill="none" stroke="white" stroke-width="1.5" d="M0,-3.0v7 M-2.5,-0.5L0,-3.0L2.5,-0.5"/>
                </g>
        </g>
        <svg viewBox="0 0 15 15" width="100%" height="30px" preserveAspectRatio="xMaxYMin meet">
         <g id="arrow_out" transform="scale(0.3 0.3)">
          <a xlink:href="structCat__coll__graph_org.svg" target="_base">
           <rect id="button" ry="5" rx="5" y="6" x="6" height="38" width="38"
                fill="#f2f5e9" fill-opacity="0.5" stroke="#606060" stroke-width="1.0"/>
           <path id="arrow"
             d="M 11.500037,31.436501 C 11.940474,20.09759 22.043105,11.32322 32.158766,21.979434 L 37.068811,17.246167 C 37.068811,17.246167 37.088388,32 37.088388,32 L 22.160133,31.978069 C 22.160133,31.978069 26.997745,27.140456 26.997745,27.140456 C 18.528582,18.264221 13.291696,25.230495 11.500037,31.436501 z"
             style="fill:#404040;"/>
          </a>
         </g>
        </svg>
</svg>
