<?xml version="1.0" encoding="UTF-8" standalone="no"?>
<!DOCTYPE svg PUBLIC "-//W3C//DTD SVG 1.1//EN"
 "http://www.w3.org/Graphics/SVG/1.1/DTD/svg11.dtd">
<!-- Generated by graphviz version 7.0.5 (20221223.1930)
 -->
<!-- Title: Cat::Cat Pages: 1 -->
<svg width="349pt" height="28pt"
 viewBox="0.00 0.00 348.62 28.00" xmlns="http://www.w3.org/2000/svg" xmlns:xlink="http://www.w3.org/1999/xlink">
<g id="graph0" class="graph" transform="scale(1 1) rotate(0) translate(4 24)">
<title>Cat::Cat</title>
<!-- Node1 -->
<g id="node1" class="node">
<title>Node1</title>
<g id="a_node1"><a xlink:title="Generates a Mammal with a specified &#39;weight&#39; and Gender.">
<polygon fill="#999999" stroke="#666666" points="52.52,-20 0.16,-20 0.16,0 52.52,0 52.52,-20"/>
<text text-anchor="middle" x="26.34" y="-7" font-family="Helvetica,sans-Serif" font-size="10.00">Cat::Cat</text>
</a>
</g>
</g>
<!-- Node2 -->
<g id="node2" class="node">
<title>Node2</title>
<g id="a_node2"><a xlink:href="classMammal.html#abf70435fbb0b7a21bb228b6a89c3d271" target="_top" xlink:title="Generates a Mammal with a specified &#39;weight&#39; and Gender.">
<polygon fill="white" stroke="#666666" points="187.02,-20 88.57,-20 88.57,0 187.02,0 187.02,-20"/>
<text text-anchor="middle" x="137.79" y="-7" font-family="Helvetica,sans-Serif" font-size="10.00">Mammal::Mammal</text>
</a>
</g>
</g>
<!-- Node1&#45;&gt;Node2 -->
<g id="edge1" class="edge">
<title>Node1&#45;&gt;Node2</title>
<path fill="none" stroke="#63b8ff" d="M53,-10C60.21,-10 68.37,-10 76.7,-10"/>
<polygon fill="#63b8ff" stroke="#63b8ff" points="76.57,-13.5 86.57,-10 76.57,-6.5 76.57,-13.5"/>
</g>
<!-- Node3 -->
<g id="node3" class="node">
<title>Node3</title>
<g id="a_node3"><a xlink:href="classAnimal.html#acde9807bf2eadb3fb6a8650ba7ccfa43" target="_top" xlink:title="Validates &#39;weight&#39; based on specified ruleset.">
<polygon fill="white" stroke="#666666" points="340.48,-20 223.05,-20 223.05,0 340.48,0 340.48,-20"/>
<text text-anchor="middle" x="281.76" y="-7" font-family="Helvetica,sans-Serif" font-size="10.00">Animal::validateWeight</text>
</a>
</g>
</g>
<!-- Node2&#45;&gt;Node3 -->
<g id="edge2" class="edge">
<title>Node2&#45;&gt;Node3</title>
<path fill="none" stroke="#63b8ff" d="M187.25,-10C195.01,-10 203.16,-10 211.29,-10"/>
<polygon fill="#63b8ff" stroke="#63b8ff" points="211.2,-13.5 221.2,-10 211.2,-6.5 211.2,-13.5"/>
</g>
</g>
</svg>
