<?xml version="1.0" encoding="UTF-8" standalone="no"?>
<!DOCTYPE svg PUBLIC "-//W3C//DTD SVG 1.1//EN"
 "http://www.w3.org/Graphics/SVG/1.1/DTD/svg11.dtd">
<!-- Generated by graphviz version 7.0.5 (20221223.1930)
 -->
<!-- Title: Cat::Cat Pages: 1 -->
<svg width="349pt" height="66pt"
 viewBox="0.00 0.00 348.62 66.00" xmlns="http://www.w3.org/2000/svg" xmlns:xlink="http://www.w3.org/1999/xlink">
<g id="graph0" class="graph" transform="scale(1 1) rotate(0) translate(4 62)">
<title>Cat::Cat</title>
<!-- Node1 -->
<g id="node1" class="node">
<title>Node1</title>
<g id="a_node1"><a xlink:title="Generates a Mammal with a specified &#39;weight&#39; and &#39;color&#39;.">
<polygon fill="#999999" stroke="#666666" points="52.52,-39 0.16,-39 0.16,-19 52.52,-19 52.52,-39"/>
<text text-anchor="middle" x="26.34" y="-26" font-family="Helvetica,sans-Serif" font-size="10.00">Cat::Cat</text>
</a>
</g>
</g>
<!-- Node2 -->
<g id="node2" class="node">
<title>Node2</title>
<g id="a_node2"><a xlink:href="classMammal.html#a112e293165df420a114cdbbf7d9fb973" target="_top" xlink:title="Generates a Mammal with a specified &#39;weight&#39; and &#39;color&#39;.">
<polygon fill="white" stroke="#666666" points="187.02,-39 88.57,-39 88.57,-19 187.02,-19 187.02,-39"/>
<text text-anchor="middle" x="137.79" y="-26" font-family="Helvetica,sans-Serif" font-size="10.00">Mammal::Mammal</text>
</a>
</g>
</g>
<!-- Node1&#45;&gt;Node2 -->
<g id="edge1" class="edge">
<title>Node1&#45;&gt;Node2</title>
<path fill="none" stroke="#63b8ff" d="M53,-29C60.21,-29 68.37,-29 76.7,-29"/>
<polygon fill="#63b8ff" stroke="#63b8ff" points="76.57,-32.5 86.57,-29 76.57,-25.5 76.57,-32.5"/>
</g>
<!-- Node3 -->
<g id="node3" class="node">
<title>Node3</title>
<g id="a_node3"><a xlink:href="classMammal.html#a42669c20d1329bf92fc078bd3220bd17" target="_top" xlink:title="Sets color of Mammal.">
<polygon fill="white" stroke="#666666" points="330.39,-58 233.14,-58 233.14,-38 330.39,-38 330.39,-58"/>
<text text-anchor="middle" x="281.76" y="-45" font-family="Helvetica,sans-Serif" font-size="10.00">Mammal::setColor</text>
</a>
</g>
</g>
<!-- Node2&#45;&gt;Node3 -->
<g id="edge2" class="edge">
<title>Node2&#45;&gt;Node3</title>
<path fill="none" stroke="#63b8ff" d="M187.25,-35.49C198.34,-36.97 210.24,-38.56 221.72,-40.1"/>
<polygon fill="#63b8ff" stroke="#63b8ff" points="221.13,-43.55 231.5,-41.41 222.05,-36.61 221.13,-43.55"/>
</g>
<!-- Node4 -->
<g id="node4" class="node">
<title>Node4</title>
<g id="a_node4"><a xlink:href="classAnimal.html#acde9807bf2eadb3fb6a8650ba7ccfa43" target="_top" xlink:title="Validates &#39;weight&#39; based on specified ruleset.">
<polygon fill="white" stroke="#666666" points="340.48,-20 223.05,-20 223.05,0 340.48,0 340.48,-20"/>
<text text-anchor="middle" x="281.76" y="-7" font-family="Helvetica,sans-Serif" font-size="10.00">Animal::validateWeight</text>
</a>
</g>
</g>
<!-- Node2&#45;&gt;Node4 -->
<g id="edge3" class="edge">
<title>Node2&#45;&gt;Node4</title>
<path fill="none" stroke="#63b8ff" d="M187.25,-22.51C195.1,-21.46 203.35,-20.36 211.57,-19.26"/>
<polygon fill="#63b8ff" stroke="#63b8ff" points="211.77,-22.77 221.21,-17.97 210.84,-15.83 211.77,-22.77"/>
</g>
</g>
</svg>
