<?xml version="1.0" encoding="UTF-8" standalone="no"?>
<!DOCTYPE svg PUBLIC "-//W3C//DTD SVG 1.1//EN"
 "http://www.w3.org/Graphics/SVG/1.1/DTD/svg11.dtd">
<!-- Generated by graphviz version 7.0.5 (20221223.1930)
 -->
<!-- Title: trim_left Pages: 1 -->
<svg width="403pt" height="28pt"
 viewBox="0.00 0.00 402.54 28.00" xmlns="http://www.w3.org/2000/svg" xmlns:xlink="http://www.w3.org/1999/xlink">
<g id="graph0" class="graph" transform="scale(1 1) rotate(0) translate(4 24)">
<title>trim_left</title>
<!-- Node1 -->
<g id="node1" class="node">
<title>Node1</title>
<g id="a_node1"><a xlink:title="Remove all leading whitespace from inString">
<polygon fill="#999999" stroke="#666666" points="394.32,-20 343.2,-20 343.2,0 394.32,0 394.32,-20"/>
<text text-anchor="middle" x="368.76" y="-7" font-family="Helvetica,sans-Serif" font-size="10.00">trim_left</text>
</a>
</g>
</g>
<!-- Node2 -->
<g id="node2" class="node">
<title>Node2</title>
<g id="a_node2"><a xlink:href="Trim_8cpp.html#a52d77b305eaae949f76722f60b4fbeeb" target="_top" xlink:title="Remove all leading and trailing whitespace from inString">
<polygon fill="white" stroke="#666666" points="307.22,-20 241.28,-20 241.28,0 307.22,0 307.22,-20"/>
<text text-anchor="middle" x="274.25" y="-7" font-family="Helvetica,sans-Serif" font-size="10.00">trim_edges</text>
</a>
</g>
</g>
<!-- Node1&#45;&gt;Node2 -->
<g id="edge1" class="edge">
<title>Node1&#45;&gt;Node2</title>
<path fill="none" stroke="#63b8ff" d="M331.68,-10C323.68,-10 315.26,-10 307.43,-10"/>
<polygon fill="#63b8ff" stroke="#63b8ff" points="331.45,-13.5 341.45,-10 331.45,-6.5 331.45,-13.5"/>
</g>
<!-- Node3 -->
<g id="node3" class="node">
<title>Node3</title>
<g id="a_node3"><a xlink:href="className.html#a528a6452c92fdd26082cd1f1ba96f0ee" target="_top" xlink:title="Return true if newName&#39;s interior whitespace is trimmed.">
<polygon fill="white" stroke="#666666" points="205.27,-20 0.24,-20 0.24,0 205.27,0 205.27,-20"/>
<text text-anchor="middle" x="102.76" y="-7" font-family="Helvetica,sans-Serif" font-size="10.00">Name::validateInteriorWhitespaceTrimmed</text>
</a>
</g>
</g>
<!-- Node2&#45;&gt;Node3 -->
<g id="edge2" class="edge">
<title>Node2&#45;&gt;Node3</title>
<path fill="none" stroke="#63b8ff" d="M229.6,-10C222.03,-10 213.88,-10 205.5,-10"/>
<polygon fill="#63b8ff" stroke="#63b8ff" points="229.45,-13.5 239.45,-10 229.45,-6.5 229.45,-13.5"/>
</g>
</g>
</svg>
