<?xml version="1.0" encoding="UTF-8" standalone="no"?>
<!DOCTYPE svg PUBLIC "-//W3C//DTD SVG 1.1//EN"
 "http://www.w3.org/Graphics/SVG/1.1/DTD/svg11.dtd">
<!-- Generated by graphviz version 7.0.5 (20221223.1930)
 -->
<!-- Title: trim_edges Pages: 1 -->
<svg width="167pt" height="66pt"
 viewBox="0.00 0.00 167.14 66.00" xmlns="http://www.w3.org/2000/svg" xmlns:xlink="http://www.w3.org/1999/xlink">
<g id="graph0" class="graph" transform="scale(1 1) rotate(0) translate(4 62)">
<title>trim_edges</title>
<!-- Node1 -->
<g id="node1" class="node">
<title>Node1</title>
<g id="a_node1"><a xlink:title="This trim function does not modify the interior of the string.">
<polygon fill="#999999" stroke="#666666" points="65.7,-39 -0.24,-39 -0.24,-19 65.7,-19 65.7,-39"/>
<text text-anchor="middle" x="32.73" y="-26" font-family="Helvetica,sans-Serif" font-size="10.00">trim_edges</text>
</a>
</g>
</g>
<!-- Node2 -->
<g id="node2" class="node">
<title>Node2</title>
<g id="a_node2"><a xlink:href="Trim_8cpp.html#a99e65232a2abb35971f043272c3ff14a" target="_top" xlink:title="Remove all leading whitespace from inString">
<polygon fill="white" stroke="#666666" points="155.87,-58 104.74,-58 104.74,-38 155.87,-38 155.87,-58"/>
<text text-anchor="middle" x="130.31" y="-45" font-family="Helvetica,sans-Serif" font-size="10.00">trim_left</text>
</a>
</g>
</g>
<!-- Node1&#45;&gt;Node2 -->
<g id="edge1" class="edge">
<title>Node1&#45;&gt;Node2</title>
<path fill="none" stroke="#63b8ff" d="M66.09,-35.43C74.83,-37.17 84.33,-39.06 93.26,-40.83"/>
<polygon fill="#63b8ff" stroke="#63b8ff" points="92.56,-44.26 103.05,-42.78 93.93,-37.4 92.56,-44.26"/>
</g>
<!-- Node3 -->
<g id="node3" class="node">
<title>Node3</title>
<g id="a_node3"><a xlink:href="Trim_8cpp.html#a4fd3d593e219e63ecda26b3f89be8021" target="_top" xlink:title="Remove all trailing whitespace from inString">
<polygon fill="white" stroke="#666666" points="158.98,-20 101.63,-20 101.63,0 158.98,0 158.98,-20"/>
<text text-anchor="middle" x="130.31" y="-7" font-family="Helvetica,sans-Serif" font-size="10.00">trim_right</text>
</a>
</g>
</g>
<!-- Node1&#45;&gt;Node3 -->
<g id="edge2" class="edge">
<title>Node1&#45;&gt;Node3</title>
<path fill="none" stroke="#63b8ff" d="M66.09,-22.57C73.73,-21.05 81.96,-19.41 89.88,-17.84"/>
<polygon fill="#63b8ff" stroke="#63b8ff" points="90.53,-21.28 99.66,-15.89 89.16,-14.41 90.53,-21.28"/>
</g>
</g>
</svg>
