<?xml version="1.0" encoding="UTF-8" standalone="no"?>
<!DOCTYPE svg PUBLIC "-//W3C//DTD SVG 1.1//EN"
 "http://www.w3.org/Graphics/SVG/1.1/DTD/svg11.dtd">
<!-- Generated by graphviz version 7.0.5 (20221223.1930)
 -->
<!-- Title: trim Pages: 1 -->
<svg width="147pt" height="66pt"
 viewBox="0.00 0.00 147.12 66.00" xmlns="http://www.w3.org/2000/svg" xmlns:xlink="http://www.w3.org/1999/xlink">
<g id="graph0" class="graph" transform="scale(1 1) rotate(0) translate(4 62)">
<title>trim</title>
<!-- Node1 -->
<g id="node1" class="node">
<title>Node1</title>
<g id="a_node1"><a xlink:title="This function does the following:">
<polygon fill="#999999" stroke="#666666" points="32.49,-39 0.17,-39 0.17,-19 32.49,-19 32.49,-39"/>
<text text-anchor="middle" x="16.33" y="-26" font-family="Helvetica,sans-Serif" font-size="10.00">trim</text>
</a>
</g>
</g>
<!-- Node2 -->
<g id="node2" class="node">
<title>Node2</title>
<g id="a_node2"><a xlink:href="Trim_8cpp.html#a398351d9936e6de09064add80fa3cc4e" target="_top" xlink:title="Classify a character into a CharClass.">
<polygon fill="white" stroke="#666666" points="139.35,-58 68.43,-58 68.43,-38 139.35,-38 139.35,-58"/>
<text text-anchor="middle" x="103.89" y="-45" font-family="Helvetica,sans-Serif" font-size="10.00">classifyChar</text>
</a>
</g>
</g>
<!-- Node1&#45;&gt;Node2 -->
<g id="edge1" class="edge">
<title>Node1&#45;&gt;Node2</title>
<path fill="none" stroke="#63b8ff" d="M32.63,-32.4C39.59,-33.94 48.23,-35.86 57.05,-37.82"/>
<polygon fill="#63b8ff" stroke="#63b8ff" points="56.21,-41.22 66.73,-39.97 57.73,-34.39 56.21,-41.22"/>
</g>
<!-- Node3 -->
<g id="node3" class="node">
<title>Node3</title>
<g id="a_node3"><a xlink:href="Trim_8cpp.html#a1def1a684f40ed2028c47b59da0c86f3" target="_top" xlink:title="Shift characters in a string to the left.">
<polygon fill="white" stroke="#666666" points="130.63,-20 77.15,-20 77.15,0 130.63,0 130.63,-20"/>
<text text-anchor="middle" x="103.89" y="-7" font-family="Helvetica,sans-Serif" font-size="10.00">shift_left</text>
</a>
</g>
</g>
<!-- Node1&#45;&gt;Node3 -->
<g id="edge2" class="edge">
<title>Node1&#45;&gt;Node3</title>
<path fill="none" stroke="#63b8ff" d="M32.63,-25.6C41.88,-23.55 54.1,-20.83 65.76,-18.25"/>
<polygon fill="#63b8ff" stroke="#63b8ff" points="66.17,-21.74 75.17,-16.16 64.65,-14.91 66.17,-21.74"/>
</g>
</g>
</svg>
