<?xml version="1.0" encoding="UTF-8" standalone="no"?>
<!DOCTYPE svg PUBLIC "-//W3C//DTD SVG 1.1//EN"
 "http://www.w3.org/Graphics/SVG/1.1/DTD/svg11.dtd">
<!-- Generated by graphviz version 7.0.5 (20221223.1930)
 -->
<!-- Title: ee205_animal_farm&#45;aar0m/src/Utility/Trim.cpp Pages: 1 -->
<svg width="433pt" height="140pt"
 viewBox="0.00 0.00 432.91 140.00" xmlns="http://www.w3.org/2000/svg" xmlns:xlink="http://www.w3.org/1999/xlink">
<g id="graph0" class="graph" transform="scale(1 1) rotate(0) translate(4 136)">
<title>ee205_animal_farm&#45;aar0m/src/Utility/Trim.cpp</title>
<!-- Node1 -->
<g id="node1" class="node">
<title>Node1</title>
<g id="a_node1"><a xlink:title="General string&#45;trimming functions.">
<polygon fill="#999999" stroke="#666666" points="340.07,-132 118.95,-132 118.95,-112 340.07,-112 340.07,-132"/>
<text text-anchor="middle" x="229.51" y="-119" font-family="Helvetica,sans-Serif" font-size="10.00">ee205_animal_farm&#45;aar0m/src/Utility/Trim.cpp</text>
</a>
</g>
</g>
<!-- Node2 -->
<g id="node2" class="node">
<title>Node2</title>
<g id="a_node2"><a xlink:href="config_8h.html" target="_top" xlink:title="Header file for Animal Farm configuration.">
<polygon fill="white" stroke="#666666" points="89.37,-76 29.65,-76 29.65,-56 89.37,-56 89.37,-76"/>
<text text-anchor="middle" x="59.51" y="-63" font-family="Helvetica,sans-Serif" font-size="10.00">../config.h</text>
</a>
</g>
</g>
<!-- Node1&#45;&gt;Node2 -->
<g id="edge1" class="edge">
<title>Node1&#45;&gt;Node2</title>
<path fill="none" stroke="#63b8ff" d="M199.9,-111.59C172.28,-102.82 130.84,-89.66 100.13,-79.9"/>
<polygon fill="#63b8ff" stroke="#63b8ff" points="101.39,-76.63 90.8,-76.94 99.27,-83.3 101.39,-76.63"/>
</g>
<!-- Node5 -->
<g id="node5" class="node">
<title>Node5</title>
<g id="a_node5"><a xlink:href="Trim_8h.html" target="_top" xlink:title="General string&#45;trimming functions.">
<polygon fill="white" stroke="#666666" points="151.84,-76 107.18,-76 107.18,-56 151.84,-56 151.84,-76"/>
<text text-anchor="middle" x="129.51" y="-63" font-family="Helvetica,sans-Serif" font-size="10.00">Trim.h</text>
</a>
</g>
</g>
<!-- Node1&#45;&gt;Node5 -->
<g id="edge4" class="edge">
<title>Node1&#45;&gt;Node5</title>
<path fill="none" stroke="#63b8ff" d="M212.09,-111.59C196.84,-103.36 174.43,-91.26 156.8,-81.74"/>
<polygon fill="#63b8ff" stroke="#63b8ff" points="158.86,-78.87 148.4,-77.2 155.53,-85.03 158.86,-78.87"/>
</g>
<!-- Node6 -->
<g id="node6" class="node">
<title>Node6</title>
<g id="a_node6"><a xlink:title=" ">
<polygon fill="#e0e0e0" stroke="#999999" points="217.75,-76 169.27,-76 169.27,-56 217.75,-56 217.75,-76"/>
<text text-anchor="middle" x="193.51" y="-63" font-family="Helvetica,sans-Serif" font-size="10.00">ctype.h</text>
</a>
</g>
</g>
<!-- Node1&#45;&gt;Node6 -->
<g id="edge5" class="edge">
<title>Node1&#45;&gt;Node6</title>
<path fill="none" stroke="#63b8ff" d="M223.24,-111.59C218.49,-104.47 211.81,-94.45 205.99,-85.72"/>
<polygon fill="#63b8ff" stroke="#63b8ff" points="209.01,-83.94 200.55,-77.56 203.18,-87.82 209.01,-83.94"/>
</g>
<!-- Node7 -->
<g id="node7" class="node">
<title>Node7</title>
<g id="a_node7"><a xlink:title=" ">
<polygon fill="#e0e0e0" stroke="#999999" points="294.81,-76 236.21,-76 236.21,-56 294.81,-56 294.81,-76"/>
<text text-anchor="middle" x="265.51" y="-63" font-family="Helvetica,sans-Serif" font-size="10.00">stdexcept</text>
</a>
</g>
</g>
<!-- Node1&#45;&gt;Node7 -->
<g id="edge6" class="edge">
<title>Node1&#45;&gt;Node7</title>
<path fill="none" stroke="#63b8ff" d="M235.78,-111.59C240.53,-104.47 247.21,-94.45 253.03,-85.72"/>
<polygon fill="#63b8ff" stroke="#63b8ff" points="255.84,-87.82 258.47,-77.56 250.01,-83.94 255.84,-87.82"/>
</g>
<!-- Node8 -->
<g id="node8" class="node">
<title>Node8</title>
<g id="a_node8"><a xlink:title=" ">
<polygon fill="#e0e0e0" stroke="#999999" points="358.48,-76 312.54,-76 312.54,-56 358.48,-56 358.48,-76"/>
<text text-anchor="middle" x="335.51" y="-63" font-family="Helvetica,sans-Serif" font-size="10.00">stdio.h</text>
</a>
</g>
</g>
<!-- Node1&#45;&gt;Node8 -->
<g id="edge7" class="edge">
<title>Node1&#45;&gt;Node8</title>
<path fill="none" stroke="#63b8ff" d="M247.97,-111.59C264.21,-103.32 288.12,-91.14 306.84,-81.6"/>
<polygon fill="#63b8ff" stroke="#63b8ff" points="308.23,-84.82 315.55,-77.17 305.05,-78.59 308.23,-84.82"/>
</g>
<!-- Node9 -->
<g id="node9" class="node">
<title>Node9</title>
<g id="a_node9"><a xlink:title=" ">
<polygon fill="#e0e0e0" stroke="#999999" points="424.8,-76 376.22,-76 376.22,-56 424.8,-56 424.8,-76"/>
<text text-anchor="middle" x="400.51" y="-63" font-family="Helvetica,sans-Serif" font-size="10.00">string.h</text>
</a>
</g>
</g>
<!-- Node1&#45;&gt;Node9 -->
<g id="edge8" class="edge">
<title>Node1&#45;&gt;Node9</title>
<path fill="none" stroke="#63b8ff" d="M259.3,-111.59C288.7,-102.31 333.67,-88.11 364.93,-78.23"/>
<polygon fill="#63b8ff" stroke="#63b8ff" points="365.85,-81.62 374.33,-75.27 363.74,-74.94 365.85,-81.62"/>
</g>
<!-- Node3 -->
<g id="node3" class="node">
<title>Node3</title>
<g id="a_node3"><a xlink:title=" ">
<polygon fill="#e0e0e0" stroke="#999999" points="51.03,-20 -0.01,-20 -0.01,0 51.03,0 51.03,-20"/>
<text text-anchor="middle" x="25.51" y="-7" font-family="Helvetica,sans-Serif" font-size="10.00">iomanip</text>
</a>
</g>
</g>
<!-- Node2&#45;&gt;Node3 -->
<g id="edge2" class="edge">
<title>Node2&#45;&gt;Node3</title>
<path fill="none" stroke="#63b8ff" d="M53.59,-55.59C49.15,-48.55 42.93,-38.67 37.47,-30"/>
<polygon fill="#63b8ff" stroke="#63b8ff" points="40.46,-28.18 32.17,-21.58 34.54,-31.91 40.46,-28.18"/>
</g>
<!-- Node4 -->
<g id="node4" class="node">
<title>Node4</title>
<g id="a_node4"><a xlink:title=" ">
<polygon fill="#e0e0e0" stroke="#999999" points="118.42,-20 68.6,-20 68.6,0 118.42,0 118.42,-20"/>
<text text-anchor="middle" x="93.51" y="-7" font-family="Helvetica,sans-Serif" font-size="10.00">random</text>
</a>
</g>
</g>
<!-- Node2&#45;&gt;Node4 -->
<g id="edge3" class="edge">
<title>Node2&#45;&gt;Node4</title>
<path fill="none" stroke="#63b8ff" d="M65.43,-55.59C69.87,-48.55 76.09,-38.67 81.55,-30"/>
<polygon fill="#63b8ff" stroke="#63b8ff" points="84.48,-31.91 86.85,-21.58 78.56,-28.18 84.48,-31.91"/>
</g>
</g>
</svg>
