<?xml version="1.0" encoding="UTF-8" standalone="no"?>
<!DOCTYPE svg PUBLIC "-//W3C//DTD SVG 1.1//EN"
 "http://www.w3.org/Graphics/SVG/1.1/DTD/svg11.dtd">
<!-- Generated by graphviz version 7.0.5 (20221223.1930)
 -->
<!-- Title: trim Pages: 1 -->
<svg width="299pt" height="66pt"
 viewBox="0.00 0.00 299.16 66.00" xmlns="http://www.w3.org/2000/svg" xmlns:xlink="http://www.w3.org/1999/xlink">
<g id="graph0" class="graph" transform="scale(1 1) rotate(0) translate(4 62)">
<title>trim</title>
<!-- Node1 -->
<g id="node1" class="node">
<title>Node1</title>
<g id="a_node1"><a xlink:title="This function does the following:">
<polygon fill="#999999" stroke="#666666" points="290.99,-39 258.67,-39 258.67,-19 290.99,-19 290.99,-39"/>
<text text-anchor="middle" x="274.83" y="-26" font-family="Helvetica,sans-Serif" font-size="10.00">trim</text>
</a>
</g>
</g>
<!-- Node2 -->
<g id="node2" class="node">
<title>Node2</title>
<g id="a_node2"><a xlink:href="className.html#a27aa1b326d6f3bc1e040f645f87a6c4a" target="_top" xlink:title="Erase and then re&#45;load the names database or set the serial number to 0.">
<polygon fill="white" stroke="#666666" points="219.4,-58 148.47,-58 148.47,-38 219.4,-38 219.4,-58"/>
<text text-anchor="middle" x="183.94" y="-45" font-family="Helvetica,sans-Serif" font-size="10.00">Name::reset</text>
</a>
</g>
</g>
<!-- Node1&#45;&gt;Node2 -->
<g id="edge1" class="edge">
<title>Node1&#45;&gt;Node2</title>
<path fill="none" stroke="#63b8ff" d="M247.37,-34.65C238.71,-36.51 228.96,-38.59 219.77,-40.55"/>
<polygon fill="#63b8ff" stroke="#63b8ff" points="247.82,-38.14 256.87,-32.63 246.36,-31.29 247.82,-38.14"/>
</g>
<!-- Node4 -->
<g id="node4" class="node">
<title>Node4</title>
<g id="a_node4"><a xlink:href="structCat.html#af4a79f34cbaf6a5059a1d0863f8072bb" target="_top" xlink:title="Set the Cat name.">
<polygon fill="white" stroke="#666666" points="222.57,-20 145.3,-20 145.3,0 222.57,0 222.57,-20"/>
<text text-anchor="middle" x="183.94" y="-7" font-family="Helvetica,sans-Serif" font-size="10.00">Cat::setName</text>
</a>
</g>
</g>
<!-- Node1&#45;&gt;Node4 -->
<g id="edge3" class="edge">
<title>Node1&#45;&gt;Node4</title>
<path fill="none" stroke="#63b8ff" d="M247.16,-23.3C239.5,-21.66 230.99,-19.84 222.79,-18.09"/>
<polygon fill="#63b8ff" stroke="#63b8ff" points="246.36,-26.71 256.87,-25.37 247.82,-19.86 246.36,-26.71"/>
</g>
<!-- Node3 -->
<g id="node3" class="node">
<title>Node3</title>
<g id="a_node3"><a xlink:href="className.html#ad7a220d0aae6115ce4b63a7cb04b814b" target="_top" xlink:title="Get the next name.">
<polygon fill="white" stroke="#666666" points="109.55,-58 -0.19,-58 -0.19,-38 109.55,-38 109.55,-58"/>
<text text-anchor="middle" x="54.68" y="-45" font-family="Helvetica,sans-Serif" font-size="10.00">Name::getNextName</text>
</a>
</g>
</g>
<!-- Node2&#45;&gt;Node3 -->
<g id="edge2" class="edge">
<title>Node2&#45;&gt;Node3</title>
<path fill="none" stroke="#63b8ff" d="M136.7,-48C128.04,-48 118.9,-48 110.02,-48"/>
<polygon fill="#63b8ff" stroke="#63b8ff" points="136.65,-51.5 146.65,-48 136.65,-44.5 136.65,-51.5"/>
</g>
<!-- Node5 -->
<g id="node5" class="node">
<title>Node5</title>
<g id="a_node5"><a xlink:href="structCat.html#ae8cbfb9566aca77591c94edfb39413dc" target="_top" xlink:title="Generates a Cat with an unknown &#39;color&#39;, Gender, random &#39;weight&#39;, and specified &#39;newName&#39;.">
<polygon fill="white" stroke="#666666" points="80.87,-20 28.5,-20 28.5,0 80.87,0 80.87,-20"/>
<text text-anchor="middle" x="54.68" y="-7" font-family="Helvetica,sans-Serif" font-size="10.00">Cat::Cat</text>
</a>
</g>
</g>
<!-- Node4&#45;&gt;Node5 -->
<g id="edge4" class="edge">
<title>Node4&#45;&gt;Node5</title>
<path fill="none" stroke="#63b8ff" d="M133.6,-10C115.66,-10 96.12,-10 81.1,-10"/>
<polygon fill="#63b8ff" stroke="#63b8ff" points="133.59,-13.5 143.59,-10 133.59,-6.5 133.59,-13.5"/>
</g>
</g>
</svg>
