<?xml version="1.0" encoding="UTF-8" standalone="no"?>
<!DOCTYPE svg PUBLIC "-//W3C//DTD SVG 1.1//EN"
 "http://www.w3.org/Graphics/SVG/1.1/DTD/svg11.dtd">
<!-- Generated by graphviz version 7.0.5 (20221223.1930)
 -->
<!-- Title: shift_left Pages: 1 -->
<svg width="552pt" height="28pt"
 viewBox="0.00 0.00 552.12 28.00" xmlns="http://www.w3.org/2000/svg" xmlns:xlink="http://www.w3.org/1999/xlink">
<g id="graph0" class="graph" transform="scale(1 1) rotate(0) translate(4 24)">
<title>shift_left</title>
<!-- Node1 -->
<g id="node1" class="node">
<title>Node1</title>
<g id="a_node1"><a xlink:title="Shift characters in a string to the left.">
<polygon fill="#999999" stroke="#666666" points="544.24,-20 490.76,-20 490.76,0 544.24,0 544.24,-20"/>
<text text-anchor="middle" x="517.5" y="-7" font-family="Helvetica,sans-Serif" font-size="10.00">shift_left</text>
</a>
</g>
</g>
<!-- Node2 -->
<g id="node2" class="node">
<title>Node2</title>
<g id="a_node2"><a xlink:href="Trim_8cpp.html#a4279db14ccdb56c5983718defd20af7b" target="_top" xlink:title="This function does the following:">
<polygon fill="white" stroke="#666666" points="454.71,-20 422.39,-20 422.39,0 454.71,0 454.71,-20"/>
<text text-anchor="middle" x="438.55" y="-7" font-family="Helvetica,sans-Serif" font-size="10.00">trim</text>
</a>
</g>
</g>
<!-- Node1&#45;&gt;Node2 -->
<g id="edge1" class="edge">
<title>Node1&#45;&gt;Node2</title>
<path fill="none" stroke="#63b8ff" d="M478.97,-10C470.41,-10 461.79,-10 454.8,-10"/>
<polygon fill="#63b8ff" stroke="#63b8ff" points="478.94,-13.5 488.94,-10 478.94,-6.5 478.94,-13.5"/>
</g>
<!-- Node3 -->
<g id="node3" class="node">
<title>Node3</title>
<g id="a_node3"><a xlink:href="className.html#a27aa1b326d6f3bc1e040f645f87a6c4a" target="_top" xlink:title="Erase and then re&#45;load the names database or set the serial number to 0.">
<polygon fill="white" stroke="#666666" points="386.45,-20 315.52,-20 315.52,0 386.45,0 386.45,-20"/>
<text text-anchor="middle" x="350.99" y="-7" font-family="Helvetica,sans-Serif" font-size="10.00">Name::reset</text>
</a>
</g>
</g>
<!-- Node2&#45;&gt;Node3 -->
<g id="edge2" class="edge">
<title>Node2&#45;&gt;Node3</title>
<path fill="none" stroke="#63b8ff" d="M411.01,-10C403.31,-10 394.79,-10 386.67,-10"/>
<polygon fill="#63b8ff" stroke="#63b8ff" points="410.74,-13.5 420.74,-10 410.74,-6.5 410.74,-13.5"/>
</g>
<!-- Node4 -->
<g id="node4" class="node">
<title>Node4</title>
<g id="a_node4"><a xlink:href="className.html#ad7a220d0aae6115ce4b63a7cb04b814b" target="_top" xlink:title="Get the next name.">
<polygon fill="white" stroke="#666666" points="279.94,-20 170.2,-20 170.2,0 279.94,0 279.94,-20"/>
<text text-anchor="middle" x="225.07" y="-7" font-family="Helvetica,sans-Serif" font-size="10.00">Name::getNextName</text>
</a>
</g>
</g>
<!-- Node3&#45;&gt;Node4 -->
<g id="edge3" class="edge">
<title>Node3&#45;&gt;Node4</title>
<path fill="none" stroke="#63b8ff" d="M303.77,-10C296.06,-10 288,-10 280.11,-10"/>
<polygon fill="#63b8ff" stroke="#63b8ff" points="303.63,-13.5 313.63,-10 303.63,-6.5 303.63,-13.5"/>
</g>
<!-- Node5 -->
<g id="node5" class="node">
<title>Node5</title>
<g id="a_node5"><a xlink:href="classAnimal.html#a6c67202c385f8e213a21454565f01e62" target="_top" xlink:title="Generates a random Animal with random specifications (in this case, a Cat)">
<polygon fill="white" stroke="#666666" points="134.58,-20 -0.19,-20 -0.19,0 134.58,0 134.58,-20"/>
<text text-anchor="middle" x="67.19" y="-7" font-family="Helvetica,sans-Serif" font-size="10.00">Animal::getRandomAnimal</text>
</a>
</g>
</g>
<!-- Node4&#45;&gt;Node5 -->
<g id="edge4" class="edge">
<title>Node4&#45;&gt;Node5</title>
<path fill="none" stroke="#63b8ff" d="M158.62,-10C150.75,-10 142.71,-10 134.82,-10"/>
<polygon fill="#63b8ff" stroke="#63b8ff" points="158.48,-13.5 168.48,-10 158.48,-6.5 158.48,-13.5"/>
</g>
</g>
</svg>
